<?xml version="1.0" encoding="utf-8"?>
<!-- Generator: Adobe Illustrator 19.0.0, SVG Export Plug-In . SVG Version: 6.00 Build 0)  -->
<svg version="1.1" id="Layer_1" xmlns="http://www.w3.org/2000/svg" xmlns:xlink="http://www.w3.org/1999/xlink" x="0px" y="0px"
	 viewBox="0 0 1026 216" style="enable-background:new 0 0 1026 216;" xml:space="preserve">
<style type="text/css">
	.st0{fill:none;stroke:#000000;stroke-width:4;stroke-miterlimit:10;}
</style>
<g>
	<path d="M265,122.8c0,6,0.5,10.1,2.2,12.2c1.7,2.2,4,3.2,13.3,3.2c11.6,0,15.2-0.4,22.8-15.2c1-1.3,4-0.8,4.9,0.8
		c-0.6,6.7-3.7,17.3-5.5,20.7c-6.8-0.3-19.1-0.4-29.6-0.4h-17.2c-5.9,0-12.3,0.1-20.2,0.4c-1.2-0.8-1.4-3.7-0.4-4.5l4.9-0.6
		c5.8-0.8,6.5-1.8,6.5-13.7V78c0-11.9-0.8-13.1-6.5-13.8l-3.7-0.5c-1.3-0.8-1.3-3.7,0.3-4.5c6.7,0.3,13.1,0.4,19.2,0.4
		c6.1,0,12.5-0.1,18.9-0.4c1,0.8,1,3.7,0,4.5l-3.3,0.5C265.8,65,265,66.1,265,78V122.8z"/>
	<path d="M328.6,110.4c0,2.4,0.1,2.5,2.4,2.5h5.8c4.4,0,5.4-0.6,6.2-4.6l0.4-2.1c0.6-0.7,2.7-0.7,3.1,0.1c-0.2,2.7-0.3,5.7-0.3,8.9
		c0,3.2,0.1,6.2,0.3,8.9c-0.4,0.8-2.5,0.8-3.1,0.1l-0.4-2.1c-0.8-4-1.8-4.7-6.2-4.7H331c-2.3,0-2.4,0.1-2.4,2.6v10
		c0,3.9,0.3,6.6,1.3,8c1.1,1.5,2.7,2.2,8.8,2.2c7.3,0,10.2-0.3,14.8-9.7c0.7-0.9,2.8-0.6,3.1,0.4c-0.3,4.4-2.4,11.2-3.5,13.4
		c-4.5-0.2-12.5-0.3-19.4-0.3h-10.9c-4,0-8.1,0.1-14.4,0.3c-0.7-0.5-0.7-2.5,0-2.9l3.9-0.6c3.8-0.6,4.3-1.1,4.3-8.8v-31.3
		c0-7.6-0.5-8.1-4.3-8.9l-2.1-0.4c-0.8-0.5-0.7-2.4,0.2-2.9c3.9,0.2,8.1,0.3,12.1,0.3h17.8c5.4,0,10.2-0.1,11.3-0.3
		c0.1,1.3,0.7,7.4,1.1,13c-0.3,0.9-2.3,1.1-3.1,0.3c-0.9-2.9-2.1-5.5-3.2-6.6c-1.6-1.6-4.1-2.6-8.2-2.6h-6.7c-2.8,0-2.8,0.2-2.8,3.3
		V110.4z"/>
	<path d="M419.7,116c0,18.3-12.3,29.3-30.3,29.3c-16.9,0-29.1-11.1-29.1-28.6c0-16.6,12.4-29.5,30-29.5
		C407.6,87.2,419.7,99,419.7,116z M389.5,91.1c-10.3,0-15.9,9.7-15.9,23.7c0,10.2,3.6,26.7,17.3,26.7c11,0,15.3-10.8,15.3-24.4
		C406.2,102.8,399.9,91.1,389.5,91.1z"/>
	<path d="M477.8,129.7c0,5.5,0,10.8,0.2,13.5c-0.6,1-2.9,1.9-5,1.9c-0.1,0-2.9-4.3-6.8-9.2l-19.4-24c-4.9-6-7.6-9.5-9.2-10.8
		c-0.4,0.8-0.4,2.3-0.4,5.4v16.3c0,6.8,0.3,13.1,1.3,15.4c0.8,1.8,2.7,2.4,4.9,2.7l2.4,0.3c0.7,0.7,0.5,2.4,0,2.9
		c-4.5-0.2-7.9-0.3-11.3-0.3c-3.1,0-6.2,0.1-9.4,0.3c-0.5-0.5-0.7-2.3,0-2.9l1.4-0.3c2.3-0.4,3.9-1,4.6-2.8
		c0.9-2.3,1.2-8.6,1.2-15.4v-21.3c0-4.6-0.1-6-0.6-7.1c-0.7-1.4-1.8-2.4-4.8-2.9l-2.4-0.3c-0.6-0.7-0.5-2.7,0.3-2.9
		c3.9,0.2,8.1,0.3,11.6,0.3c2.9,0,5.3-0.1,7.1-0.3c0.8,3.8,6.3,10.2,13.9,19.2l7.1,8.3c3.7,4.4,6.1,7.3,8.1,9.2
		c0.3-0.8,0.3-2.3,0.3-3.8v-11.6c0-6.8-0.3-13.1-1.3-15.4c-0.8-1.8-2.6-2.4-4.9-2.7l-2.3-0.3c-0.7-0.7-0.5-2.4,0-2.9
		c4.5,0.2,7.8,0.3,11.3,0.3c3.1,0,6.1-0.1,9.4-0.3c0.5,0.5,0.7,2.3,0,2.9l-1.5,0.3c-2.2,0.3-3.8,1-4.5,2.8
		c-0.9,2.3-1.3,8.6-1.3,15.4V129.7z"/>
	<path d="M507.4,131.7c0,7.9,0.5,8.5,4.4,9.2l2.4,0.4c0.7,0.5,0.6,2.4-0.1,2.9c-4.5-0.2-8.7-0.3-12.6-0.3c-4,0-8.2,0.1-12.8,0.3
		c-0.7-0.5-0.7-2.4,0-2.9l2.4-0.4c3.9-0.7,4.4-1.3,4.4-9.2v-30.9c0-7.9-0.5-8.5-4.4-9.2l-2.4-0.4c-0.7-0.5-0.7-2.4,0-2.9
		c4.5,0.2,8.7,0.3,12.8,0.3c3.9,0,8.1-0.1,12.7-0.3c0.7,0.5,0.7,2.4,0,2.9l-2.4,0.4c-3.9,0.7-4.4,1.3-4.4,9.2V131.7z"/>
	<path d="M535.9,145.4c-7.7,0-12.5-2.2-14.3-3.2c-1.6-1.8-2.7-7.9-2.7-13.6c0.6-1.1,2.5-1.2,3.2-0.3c1.7,5.5,7.3,13.2,14.4,13.2
		c6.2,0,9.1-4.3,9.1-8.5c0-6.8-6.4-10.8-11.4-13.4c-6-3-12.7-8.1-12.7-16.4c-0.1-9.5,7.3-16,19.5-16c2.8,0,6.2,0.3,9.6,1.3
		c1.1,0.3,1.8,0.5,2.9,0.7c0.7,1.8,1.5,6.4,1.5,12c-0.4,1-2.5,1.1-3.3,0.3c-1.4-4.3-5-10.4-11.1-10.4c-5.5,0-8.6,3.6-8.6,7.8
		c0,3.9,3.4,7.4,7.6,9.6l5.5,2.9c5.2,2.8,11.8,7.6,11.8,16.9C557.1,138.6,548.6,145.4,535.9,145.4z"/>
	<path d="M614.4,112.2c0,5.6,0.1,22,0.2,23.4c0.2,2.6,1.4,3.8,3.4,3.8h6.1c0.8,0,1,0.4,1,0.8v3.1c0,0.6-0.1,1-1.1,1
		c-1.7,0-5.4-0.4-19.4-0.4c-10.6,0-15.2,0.4-16.6,0.4c-0.8,0-1-0.4-1-0.8v-3.2c0-0.6,0.1-0.8,0.7-0.8h3.1c4.1,0,4.9-0.6,5.3-3.6
		c0.1-1.2,0.5-19.9,0.5-33.8V88.2c0-7.9-0.1-20.5-0.2-22c-0.2-2.4-1.4-2.6-3.8-2.6h-5.6c-0.6,0-0.7-0.2-0.7-1v-3.1
		c0-0.6,0.1-0.8,0.7-0.8c1.3,0,5.6,0.4,18.2,0.4c2.2,0,9.2-0.4,13.2-0.4c14.8,0,21.8,1.2,28.8,6.6c5,3.8,8.6,10.7,8.6,18.6
		c0,14.4-11.5,24.2-31.7,24.2c-3.7,0-6.5-0.1-9.7-0.4V112.2z M614.4,103.1c2.6,0.6,5.4,0.7,7.3,0.7c3.7,0,9.7-3.8,12.4-8
		c2.4-3.7,2.9-8.3,2.9-12.7c0-16.6-12-20-16.9-20c-2,0-3.5,0.1-5.6,0.6V103.1z"/>
	<path d="M664.8,125c-2,0-2.3,0.1-2.8,1.7l-3.1,9.7c-0.5,1.7-0.6,2.4-0.6,3c0,0.5,0.7,1,3,1.4l2.5,0.4c0.5,0.6,0.7,2.5-0.2,2.9
		c-2.9-0.2-6.3-0.2-9.8-0.3c-2.9,0-4.8,0.3-8.7,0.3c-0.9-0.5-0.8-2.3-0.3-2.9l2.3-0.3c2-0.3,3.7-0.9,5.1-4.2
		c1.4-3.4,2.9-7.4,5.2-13.4l7.6-20.5c1.9-5.3,3.5-8.2,3.3-10.7c4-0.9,7.1-5,7.3-5c1.1,0,1.6,0.4,1.9,1.7c0.7,2.4,1.7,5.5,3.8,11.5
		l11.4,32.9c1.8,5,2.5,7,5.6,7.5l3.2,0.5c0.5,0.4,0.7,2.4-0.1,2.9c-4-0.2-8.6-0.3-12.9-0.3c-4.2,0-7.5,0.1-11.3,0.3
		c-0.9-0.5-1.1-2.3-0.2-2.9l2.7-0.4c1.9-0.3,2.3-0.9,2.3-1.4c0-0.6-0.6-2.6-1.6-5.7l-2.3-7.2c-0.4-1.3-1.1-1.5-4-1.5H664.8z
		 M673.8,120.6c1.9,0,2.4-0.3,1.7-2.4l-2.2-6.8c-1.2-3.6-2.3-7.1-3-8.8c-0.8,1.8-2.2,5.4-3.4,9.2l-2.1,6.3c-0.8,2.3-0.3,2.5,1.8,2.5
		H673.8z"/>
	<path d="M708.1,102.2c0-8.4-0.2-9.3-3.7-9.8l-2.3-0.3c-0.8-0.4-0.8-2.5,0.2-2.9c6.3-0.4,12.9-0.8,20.8-0.8c7.1,0,13.3,1.1,16.5,3
		c4.9,2.9,7.4,7.1,7.4,12.4c0,7.5-5,10.7-8.9,12.6c-0.8,0.4-0.8,0.9-0.4,1.8c5.5,11.3,9,17.6,13,21c2.2,1.8,4.4,2.3,5.6,2.4
		c0.8,0.4,0.8,1.7,0.3,2.2c-1.3,0.6-4,0.8-6.6,0.8c-7.7,0-12.6-2.8-16.3-8.8c-2.7-4.5-4.6-8.6-6.6-13c-1-2.3-2.4-2.9-4.5-2.9
		c-2.9,0-3.1,0.2-3.1,1.8v10.3c0,7.7,0.5,8.3,4.3,9l2.3,0.4c0.6,0.4,0.6,2.4,0,2.9c-4.5-0.2-8.3-0.3-12.3-0.3
		c-4.2,0-7.9,0.1-12.3,0.3c-0.7-0.5-0.7-2.5,0-2.9l2.3-0.4c3.8-0.7,4.3-1.3,4.3-9V102.2z M719.7,112.8c0,2.9,0.3,3.2,5.2,3.2
		c3,0,4.8-0.8,6.4-2.4c1.4-1.4,3-4.1,3-9.1c0-7.6-4.5-12.4-11-12.4c-3.4,0-3.6,0.3-3.6,4.3V112.8z"/>
	<path d="M771.4,94.9c0-2,0-2.4-2-2.4h-5.2c-6.1,0-7.9,3.4-10.4,9.5c-1,0.5-2.6,0.3-3.1-0.8c1.8-5.8,2.2-11,2.8-14.3
		c0.3-0.3,0.8-0.4,1.2-0.4c0.4,0,0.8,0.1,1.2,0.3c0.4,1.4,0.7,1.8,7.1,1.8h31.2c5.5,0,6.8-0.1,7.6-1.8c0.3-0.2,0.6-0.3,1.1-0.3
		s1.1,0.3,1.3,0.6c-0.8,2.9-1.4,9.7-1.3,14.4c-0.4,0.8-2.7,0.9-3.1,0.3c-1.4-5.4-2.6-9.3-8.9-9.3h-5c-2,0-2.3,0.3-2.3,2.4v37
		c0,7.8,0.5,8.5,4.3,9l3.4,0.4c0.6,0.5,0.6,2.4,0,2.9c-5.5-0.2-9.7-0.3-13.4-0.3c-4,0-8.4,0.1-14.3,0.3c-0.7-0.5-0.7-2.4,0-2.9
		l3.8-0.4c3.8-0.4,4.3-1.2,4.3-9V94.9z"/>
	<path d="M858.9,129.7c0,5.5,0,10.8,0.2,13.5c-0.6,1-2.9,1.9-5,1.9c-0.1,0-2.9-4.3-6.8-9.2l-19.4-24c-4.9-6-7.6-9.5-9.2-10.8
		c-0.4,0.8-0.4,2.3-0.4,5.4v16.3c0,6.8,0.3,13.1,1.3,15.4c0.8,1.8,2.7,2.4,4.9,2.7l2.4,0.3c0.7,0.7,0.5,2.4,0,2.9
		c-4.5-0.2-7.9-0.3-11.3-0.3c-3.1,0-6.2,0.1-9.4,0.3c-0.5-0.5-0.7-2.3,0-2.9l1.4-0.3c2.3-0.4,3.9-1,4.6-2.8
		c0.9-2.3,1.2-8.6,1.2-15.4v-21.3c0-4.6-0.1-6-0.6-7.1c-0.7-1.4-1.8-2.4-4.8-2.9l-2.4-0.3c-0.6-0.7-0.5-2.7,0.3-2.9
		c3.9,0.2,8.1,0.3,11.6,0.3c2.9,0,5.3-0.1,7.1-0.3c0.8,3.8,6.3,10.2,13.9,19.2l7.1,8.3c3.7,4.4,6.1,7.3,8.1,9.2
		c0.3-0.8,0.3-2.3,0.3-3.8v-11.6c0-6.8-0.3-13.1-1.3-15.4c-0.8-1.8-2.6-2.4-4.9-2.7l-2.3-0.3c-0.7-0.7-0.5-2.4,0-2.9
		c4.5,0.2,7.8,0.3,11.3,0.3c3.1,0,6.1-0.1,9.4-0.3c0.5,0.5,0.7,2.3,0,2.9l-1.5,0.3c-2.2,0.3-3.8,1-4.5,2.8
		c-0.9,2.3-1.3,8.6-1.3,15.4V129.7z"/>
	<path d="M888.6,110.4c0,2.4,0.1,2.5,2.4,2.5h5.8c4.4,0,5.4-0.6,6.2-4.6l0.4-2.1c0.6-0.7,2.7-0.7,3.1,0.1c-0.2,2.7-0.3,5.7-0.3,8.9
		c0,3.2,0.1,6.2,0.3,8.9c-0.4,0.8-2.5,0.8-3.1,0.1l-0.4-2.1c-0.8-4-1.8-4.7-6.2-4.7h-5.8c-2.3,0-2.4,0.1-2.4,2.6v10
		c0,3.9,0.3,6.6,1.3,8c1.1,1.5,2.7,2.2,8.8,2.2c7.3,0,10.2-0.3,14.8-9.7c0.7-0.9,2.8-0.6,3.1,0.4c-0.3,4.4-2.4,11.2-3.5,13.4
		c-4.5-0.2-12.5-0.3-19.4-0.3h-10.9c-4,0-8.1,0.1-14.4,0.3c-0.7-0.5-0.7-2.5,0-2.9l3.9-0.6c3.8-0.6,4.3-1.1,4.3-8.8v-31.3
		c0-7.6-0.5-8.1-4.3-8.9l-2.1-0.4c-0.8-0.5-0.7-2.4,0.2-2.9c3.9,0.2,8.1,0.3,12.1,0.3h17.8c5.4,0,10.2-0.1,11.3-0.3
		c0.1,1.3,0.7,7.4,1.1,13c-0.3,0.9-2.3,1.1-3.1,0.3c-0.9-2.9-2.1-5.5-3.2-6.6c-1.6-1.6-4.1-2.6-8.2-2.6h-6.7c-2.8,0-2.8,0.2-2.8,3.3
		V110.4z"/>
	<path d="M926.4,102.2c0-8.4-0.2-9.3-3.7-9.8l-2.3-0.3c-0.8-0.4-0.8-2.5,0.2-2.9c6.3-0.4,12.9-0.8,20.8-0.8c7.1,0,13.3,1.1,16.5,3
		c4.9,2.9,7.4,7.1,7.4,12.4c0,7.5-5,10.7-8.9,12.6c-0.8,0.4-0.8,0.9-0.4,1.8c5.5,11.3,9,17.6,13,21c2.2,1.8,4.4,2.3,5.6,2.4
		c0.8,0.4,0.8,1.7,0.3,2.2c-1.3,0.6-4,0.8-6.6,0.8c-7.7,0-12.6-2.8-16.3-8.8c-2.7-4.5-4.6-8.6-6.6-13c-1-2.3-2.4-2.9-4.5-2.9
		c-2.9,0-3.1,0.2-3.1,1.8v10.3c0,7.7,0.5,8.3,4.3,9l2.3,0.4c0.6,0.4,0.6,2.4,0,2.9c-4.5-0.2-8.3-0.3-12.3-0.3
		c-4.2,0-7.9,0.1-12.3,0.3c-0.7-0.5-0.7-2.5,0-2.9l2.3-0.4c3.8-0.7,4.3-1.3,4.3-9V102.2z M937.9,112.8c0,2.9,0.3,3.2,5.2,3.2
		c3,0,4.8-0.8,6.4-2.4c1.4-1.4,3-4.1,3-9.1c0-7.6-4.5-12.4-11-12.4c-3.4,0-3.6,0.3-3.6,4.3V112.8z"/>
	<path d="M991.5,145.4c-7.7,0-12.5-2.2-14.3-3.2c-1.6-1.8-2.7-7.9-2.7-13.6c0.6-1.1,2.5-1.2,3.2-0.3c1.7,5.5,7.3,13.2,14.4,13.2
		c6.2,0,9.1-4.3,9.1-8.5c0-6.8-6.4-10.8-11.4-13.4c-6-3-12.7-8.1-12.7-16.4c-0.1-9.5,7.3-16,19.5-16c2.8,0,6.2,0.3,9.6,1.3
		c1.1,0.3,1.8,0.5,2.9,0.7c0.7,1.8,1.5,6.4,1.5,12c-0.4,1-2.5,1.1-3.3,0.3c-1.4-4.3-5-10.4-11.1-10.4c-5.5,0-8.6,3.6-8.6,7.8
		c0,3.9,3.4,7.4,7.6,9.6l5.5,2.9c5.2,2.8,11.8,7.6,11.8,16.9C1012.6,138.6,1004.2,145.4,991.5,145.4z"/>
</g>
<line class="st0" x1="229.5" y1="8" x2="1014.1" y2="8"/>
<line class="st0" x1="229.5" y1="208" x2="1014.1" y2="208"/>
<g>
	<g>
		<g>
			<g>
				<path d="M502.6,41.7c-0.1,1.2-0.4,2.2-0.4,3.7c0,0.8,0.2,3.3,0.7,5.6c0.5,2.3,1.4,4.3,1.4,4.3l0.6,1.3c0.4,0.8,0.8,2,1.7,3
					c0.8,1.1,2.1,1.9,3.3,2.4c1.2,0.5,2.4,0.5,2.9,0.5c1-0.1,1.8-0.5,2.4-0.9c0.6-0.5,1.1-1,1.6-1.2c-0.6,0-1.2-0.3-1.7-0.8
					c-0.5-0.4-0.9-0.9-1.3-1.3c-0.2-0.2-0.7-0.6-1.1-1.1c-0.5-0.5-1-1.1-1.6-1.7c-0.7-0.5-1.4-1.1-1.9-1.6c-0.5-0.5-0.7-0.9-0.7-0.9
					c0,0-1.1-1.5-2.1-3.3c-1-1.8-2-4-2.3-4.7C503.6,43.6,503,42.9,502.6,41.7z"/>
			</g>
		</g>
	</g>
	<g>
		<g>
			<g>
				<path d="M502.6,41.7c-0.3,1.2-0.9,2-1.4,3.3c-0.3,0.7-1.2,2.9-2.2,4.8c-1,1.9-2,3.4-2,3.3c0,0-0.3,0.4-0.7,0.9
					c-0.5,0.5-1.2,1.1-1.8,1.7c-0.7,0.6-1.2,1.2-1.6,1.7c-0.5,0.5-0.9,0.9-1.1,1.1c-0.4,0.4-0.8,0.9-1.3,1.3
					c-0.5,0.5-1.1,0.8-1.7,0.8c0.6,0.3,1,0.7,1.6,1.2c0.6,0.4,1.4,0.8,2.4,0.9c0.5,0,1.7,0,2.9-0.5c1.2-0.5,2.5-1.4,3.3-2.4
					c0.8-1.1,1.3-2.2,1.6-3l0.5-1.3c0,0,0.9-2,1.3-4.3c0.5-2.3,0.6-4.8,0.7-5.6C503.1,43.8,502.7,42.9,502.6,41.7z"/>
			</g>
		</g>
	</g>
	<g>
		<g>
			<g>
				<path d="M502.6,79.4c0.1-1.2,0.4-2.2,0.4-3.7c0-0.8-0.2-3.3-0.7-5.6c-0.5-2.3-1.4-4.3-1.4-4.3l-0.6-1.3c-0.4-0.8-0.8-2-1.7-3
					c-0.8-1.1-2.1-1.9-3.3-2.4c-1.2-0.5-2.4-0.5-2.9-0.5c-1,0.1-1.8,0.5-2.4,0.9c-0.6,0.5-1.1,1-1.6,1.2c0.6,0,1.2,0.3,1.7,0.8
					c0.5,0.4,0.9,0.9,1.3,1.3c0.2,0.2,0.7,0.6,1.1,1.1c0.5,0.5,1,1.1,1.6,1.7c0.7,0.5,1.4,1.1,1.9,1.6c0.5,0.5,0.7,0.9,0.7,0.9
					c0,0,1.1,1.5,2.1,3.3c1,1.8,2,4,2.3,4.7C501.7,77.5,502.3,78.2,502.6,79.4z"/>
			</g>
		</g>
	</g>
	<g>
		<g>
			<g>
				<path d="M502.5,79.4c0.3-1.2,0.9-2,1.4-3.3c0.3-0.7,1.2-2.9,2.2-4.8c1-1.9,2-3.4,2-3.3c0,0,0.3-0.4,0.7-0.9
					c0.5-0.5,1.2-1.1,1.8-1.7c0.7-0.6,1.2-1.2,1.6-1.7c0.5-0.5,0.9-0.9,1.1-1.1c0.4-0.4,0.8-0.9,1.3-1.3c0.5-0.5,1.1-0.8,1.7-0.8
					c-0.6-0.3-1-0.7-1.6-1.2c-0.6-0.4-1.4-0.8-2.4-0.9c-0.5,0-1.7,0-2.9,0.5c-1.2,0.5-2.5,1.4-3.3,2.4c-0.8,1.1-1.3,2.2-1.6,3
					l-0.5,1.3c0,0-0.9,2-1.3,4.3c-0.5,2.3-0.6,4.8-0.7,5.6C502,77.3,502.4,78.2,502.5,79.4z"/>
			</g>
		</g>
	</g>
</g>
<g>
	<g>
		<g>
			<path d="M209.9,201.2c-49.6,0-99.3,0-148.9,0c-11.3,0-22.6,0-33.9,0c-2.8,0-5.5,0-8.3,0c-1.9,0-0.6,1-0.6-0.4c0-21.3,0-42.7,0-64
				c0-41.3,0-82.6,0-123.9c-0.5,0.3-1,0.5-1.5,0.8c49.6,0,99.3,0,148.9,0c11.3,0,22.6,0,33.9,0c2.8,0,5.5,0,8.3,0
				c1.9,0,0.6-1,0.6,0.4c0,21.3,0,42.7,0,64c0,41.3,0,82.6,0,123.9c0,1,2.2,0.5,2.2-0.2c0-49.7,0-99.4,0-149.1c0-13.3,0-26.5,0-39.8
				c0-0.4-0.3-0.5-0.7-0.5c-49.6,0-99.3,0-148.9,0c-14.5,0-29,0-43.5,0c-0.4,0-1.5,0.2-1.5,0.8c0,49.7,0,99.4,0,149.1
				c0,13.3,0,26.5,0,39.8c0,0.4,0.3,0.5,0.7,0.5c49.6,0,99.3,0,148.9,0c14.5,0,29,0,43.5,0C210,202.5,211.4,201.2,209.9,201.2z"/>
		</g>
	</g>
	<g>
		<g>
			<path d="M219,209.1c-48.7,0-97.5,0-146.2,0c-20.9,0-41.7,0-62.6,0c0.3,0.2,0.6,0.5,0.9,0.7c0-49,0-98,0-147.1
				c0-19.3,0-38.6,0-57.9c-0.7,0.3-1.3,0.7-2,1c48.7,0,97.5,0,146.2,0c20.9,0,41.7,0,62.6,0c-0.3-0.2-0.6-0.5-0.9-0.7
				c0,49,0,98,0,147.1c0,19.3,0,38.6,0,57.9c0,1.3,2.9,0.7,2.9-0.3c0-49,0-98,0-147.1c0-19.3,0-38.6,0-57.9c0-0.5-0.4-0.7-0.9-0.7
				c-48.7,0-97.5,0-146.2,0c-20.9,0-41.7,0-62.6,0c-0.5,0-2,0.3-2,1c0,49,0,98,0,147.1c0,19.3,0,38.6,0,57.9c0,0.5,0.4,0.7,0.9,0.7
				c48.7,0,97.5,0,146.2,0c20.9,0,41.7,0,62.6,0C219.1,210.9,220.9,209.1,219,209.1z"/>
		</g>
	</g>
	<g>
		<g>
			<g>
				<path d="M142.1,72.4c0.3-0.3,0.8-0.4,1.2-0.4c0.4,0,0.8,0.1,1.3,0.2c0.3,0,0.8,0.1,1.4,0.3c0.6,0.2,1.3,0.4,2,0.7l2.7,1.1
					c0,0,1.3,0.6,2.8,1.1c1.5,0.6,3.3,1.1,3.9,1.2c1.1,0.2,2,0,2.8,0.3c-0.8-0.4-1.1-1.3-1.9-2.1c-0.4-0.4-1.8-1.7-3.2-2.6
					c-1.4-0.9-2.9-1.5-2.9-1.5c0,0-1.4-0.7-3.3-1c-0.9-0.2-1.9-0.2-2.8-0.1c-0.9,0.1-1.6,0.4-1.9,0.5
					C143,70.8,142.7,71.7,142.1,72.4z"/>
			</g>
		</g>
	</g>
	<g>
		<g>
			<g>
				<path d="M185.2,95.7c0-0.2,0-0.3,0-0.5c0.1-0.8,0.5-1.6,0.5-1.8c0-0.1,0-0.1,0,0.1c0,0.2-0.1,0.8,0.2,1.5c0,0.1,0.2,0.3,0.2,0.3
					c0,0,0.2,0.2,0.5,0.5c0.3,0.2,0.9,0.5,1.7,0.8c0.4,0.2,0.9,0.3,1.5,0.6c0.6,0.3,1,0.5,1.6,0.8c1.2,0.7,2.5,1.5,3.7,2.9
					c0.6,0.7,1.3,1.7,1.7,2.8c0.5,1.1,0.7,2.4,0.7,3.6c0,1.2-0.2,2.5-0.4,3.6c-0.3,1.2-0.6,2.2-1.1,3.3c-0.5,1.2-1.1,2.3-1.8,3.2
					c-0.7,0.9-1.5,1.8-2.2,2.5c-1.5,1.4-3,2.4-4.2,3.1c-1.7,1-3.1,1.6-4,2.1c-1,0.4-1.5,0.6-1.5,0.6c0,0-2.4,0.8-5.7,1.4
					c-3.3,0.6-7.4,1-10.8,1.2c-2.9,0.2-4.7,0.2-5.8,0.2c-1.1,0-1.3,0.1-1,0c0.6,0,3.4-0.6,6.7-1.8c-0.4,0.1,3.6-1.2,7.4-2.9
					c1.9-0.8,3.8-1.8,5.2-2.5c1.4-0.7,2.2-1.3,2.2-1.3c0,0,1.6-0.8,4-2.3c0.9-0.6,2.1-1.4,3.2-2.4c0.6-0.5,1.1-1,1.6-1.6
					c0.5-0.6,0.9-1.2,1.3-1.9c0.4-0.8,0.8-1.6,1.1-2.4c0.3-0.8,0.5-1.6,0.6-2.3c0.2-1.4,0-2.6-0.6-3.7c-0.6-1-1.4-2-2.2-2.8
					l-1.2-1.2c-0.3-0.3-0.7-0.6-1.1-0.9c-0.7-0.6-1.4-1.2-1.7-1.8C185.2,96.1,185.2,95.7,185.2,95.7z"/>
			</g>
		</g>
	</g>
	<g>
		<g>
			<path d="M150.6,73.6c0.5,2.8,3.4,4.1,6,3.8c-0.2-0.3-0.3-0.5-0.5-0.8c-1.8,0.9-2.7-1.2-3-2.6c-0.6,0.2-1.2,0.4-1.9,0.6
				c1,1,2.1,1.7,3.4,2.3c0.5-0.3,1-0.6,1.5-0.9c-1.2-0.5-1.9-1.3-2.8-2.2c-0.6,0.3-1.2,0.5-1.8,0.8c1.1,1.1,2.3,1.9,3.7,2.7
				c0.5-0.3,1-0.6,1.5-0.9c-1.2-0.5-2.1-0.9-3.1-1.8c-0.6,0.3-1.1,0.6-1.7,0.8c1.2,0.6,2.4,1.2,3.5,1.9c0.5-0.3,1-0.6,1.5-0.9
				c-1.3-0.7-2-1.2-2.8-2.5c-0.6,0.3-1.1,0.6-1.7,0.8c0.9,0.6,1.7,1.1,2.5,1.8c0.6-0.3,1.2-0.5,1.8-0.8c-0.4-0.3-0.9-0.6-1.3-1
				c-0.6,0.3-1.2,0.5-1.8,0.8c0.3,0.2,0.6,0.4,1,0.6c0.5,0.4,2.3-0.3,1.8-0.8c-1.1-0.9-2.6-2.2-4.2-2.2c-0.9,0-2.1,0.5-1.8,1.6
				c0.7,2.8,4.8,2.6,6.8,1.6c-0.4-0.2-0.8-0.4-1.2-0.5c-1.8,1.6-3.3-0.8-3.7-2.4c-0.2-0.6-1.7-0.2-1.9,0.2c-1.8,3.7,2.7,5,5.5,4.4
				c0.2-0.1,1.3-0.7,0.6-0.9c-1-0.3-1.9-0.6-2.9-1c-0.4,0.3-0.8,0.7-1.1,1c0.1,0,0.2,0,0.3,0c0.7,0,2.1-1.1,0.8-1.1
				c-0.3,0-0.6,0-1,0c-0.3,0-2,0.6-1.1,1c2.4,1.1,4.9,0.7,7.2-0.5c-0.4-0.2-0.8-0.4-1.2-0.6c-0.8,0.4-1.6,0.5-2.4,0.8
				c-1.1,0.3-0.9,1.3,0.3,0.9c1.2-0.3,2.3-0.5,3.4-1.2c1.1-0.7-0.6-0.9-1.2-0.6c-1.4,0.8-3,0.8-4.4,0.1c-0.4,0.3-0.8,0.7-1.1,1
				c0.3,0,0.6,0,1,0c0.7,0,2.1-1.1,0.8-1.1c-0.1,0-0.2,0-0.3,0c-0.3,0-2,0.7-1.1,1c1,0.3,1.9,0.6,2.9,1c0.2-0.3,0.4-0.6,0.6-0.9
				c-2.1,0.4-4.6-1.1-3.5-3.4c-0.6,0.1-1.2,0.2-1.9,0.2c1,3.4,4.5,4.6,7.2,2.1c0.8-0.7-0.8-0.7-1.2-0.5c-1.4,0.7-2.9,0.4-3.9-0.9
				c-0.1-0.2-0.2-0.3-0.2-0.5c-0.1-0.5-0.1,0.1-0.7,0.1c1.1,0.2,2.2,1.2,3,1.8c0.6-0.3,1.2-0.5,1.8-0.8c-0.3-0.2-0.7-0.4-1-0.6
				c-0.5-0.4-2.3,0.3-1.8,0.8c0.4,0.4,0.9,0.6,1.3,1c0.5,0.4,2.3-0.3,1.8-0.8c-0.8-0.8-1.8-1.4-2.7-2c-0.4-0.3-2.1,0.2-1.7,0.8
				c0.8,1.4,1.6,2,3,2.7c0.5,0.3,2.3-0.4,1.5-0.9c-1.1-0.7-2.3-1.3-3.5-1.9c-0.4-0.2-2.2,0.3-1.7,0.8c1,1,2,1.5,3.4,2
				c0.5,0.2,2.4-0.4,1.5-0.9c-1.2-0.7-2.4-1.5-3.4-2.5c-0.5-0.5-2.3,0.2-1.8,0.8c1,1,1.7,1.8,3,2.3c0.5,0.2,2.4-0.5,1.5-0.9
				c-1.1-0.6-2.2-1.3-3.1-2.2c-0.4-0.4-2-0.1-1.9,0.6c0.5,3.3,3.4,4,6.1,2.6c0.8-0.4,0.1-0.9-0.5-0.8c-2,0.2-3.9-1.3-4.3-3.3
				C152.4,72.4,150.5,72.9,150.6,73.6L150.6,73.6z"/>
		</g>
	</g>
	<g>
		<g>
			<g>
				<path d="M98.1,88.6c0.2,2.2-0.5,3.9-0.1,6.8c0.1,0.8,0.4,2.3,1.1,4.1c0.7,1.8,1.8,3.9,3.1,5.7c1.3,1.8,2.9,3.3,4.1,4.2
					c1.2,1,2.1,1.5,2.1,1.5c0,0,0.8,0.6,2.2,1.3c1.4,0.7,3.4,1.5,5.5,2c2.1,0.5,4.4,0.7,6.3,0.7c1.9,0,3.4-0.3,4.2-0.4
					c2.8-0.5,4.2-1.7,6.4-2.1c-2.2,0.3-3.9-0.5-6.4-0.9c-0.7-0.1-2.1-0.4-3.7-0.8c-1.6-0.4-3.5-1-5.2-1.6c-1.7-0.7-3.3-1.4-4.4-2
					c-1.1-0.6-1.8-1-1.8-1c0,0-2.8-1.7-5.3-4.3c-1.3-1.3-2.5-2.7-3.4-4.1c-0.9-1.3-1.6-2.6-2-3.2C99.7,92.2,98.4,90.8,98.1,88.6z"/>
			</g>
		</g>
	</g>
	<g>
		<g>
			<g>
				<path d="M144.5,135.2c1.6-1,3.3-1.5,5-1.4c1.6,0.1,3.1,0.7,4.5,1.5c2.8,1.7,5.2,4.2,8.4,7.3c0.7,0.6,1.6,1.5,2.8,2.6
					c1.2,1.1,2.6,2.3,4.5,3.5c1.2,0.8,2.7,1.5,4.5,1.8c1.6,0.3,3.5,0.4,5.3,0c1.9-0.4,3.6-1.3,5.1-2.5c1.5-1.2,2.7-2.6,3.8-4.1
					c2.1-3,3.5-6.4,4.7-9.6c1.2-3.3,2-6.5,2.8-9.6c0.8-3,1.5-6,2.1-8.5c0.6-2.5,1.3-4.4,2.1-6c0.8-1.6,1.7-2.8,2.3-3.7
					c0.7-1.1,0.9-1.5,1-1.5l0.8-1.2c0.5-0.8,1.3-1.8,2.4-3.5c0.5-0.8,1.1-1.8,1.6-3.2c0.5-1.4,0.6-3.2,0.2-4.8
					c-0.4-1.6-1.2-3-2.1-4.3c-0.4-0.6-0.9-1.2-1.4-1.8c-0.5-0.6-1-1.1-1.5-1.7c-4.2-4.2-9.2-7.9-14.2-11.7
					c-5.1-3.7-10.2-7.2-14.8-10.2c-5-3.3-9.2-6-11.2-7.3l-5.1-3.3c-0.8-0.5-1.5-1-2.2-1.5c-0.7-0.5-1.3-1-2-1.6
					c-2.5-2.1-4.8-4.4-6.8-7.6c1.9,3.2,3.8,5.8,6,8.4c0.5,0.6,1.1,1.3,1.7,1.9c0.6,0.6,1.3,1.3,2,1.9c1.4,1.3,3,2.5,4.7,4
					c1.9,1.5,5.8,4.6,10.5,8.2c4.3,3.4,9.2,7.1,14,11c4.8,3.9,9.6,7.8,13.2,11.6c1.7,1.8,3.1,3.8,3.4,5.1c0.1,0.7,0.1,1.1-0.1,1.7
					c-0.2,0.6-0.6,1.2-1,1.9c-0.8,1.3-1.7,2.5-2.3,3.3l-0.9,1.3c0,0-0.4,0.7-0.9,1.4c-0.6,0.9-1.6,2.4-2.6,4.4c-1,2-1.9,4.6-2.5,7.3
					l-2,8.5c-0.7,3-1.5,6.1-2.4,9.2c-1,3.1-2.1,6.1-3.7,8.6c-1.6,2.6-3.6,4.5-5.9,5.2c-1.2,0.4-2.4,0.4-3.6,0.3
					c-1.1-0.1-2.2-0.5-3.3-1.1c-1.6-0.8-3.1-1.9-4.3-2.8c-1.2-0.9-2.2-1.7-2.9-2.3c-3.5-2.8-6.5-4.9-9.8-6.2c-1.6-0.6-3.3-1-5-0.9
					C147.7,133.6,146.1,134.2,144.5,135.2z"/>
			</g>
		</g>
	</g>
	<g>
		<g>
			<g>
				<path d="M17.8,142.2c2.4,0.8,4.6,1.4,6.9,1.9c2.3,0.4,4.6,0.5,7.1-0.1c2.4-0.5,4.9-1.8,7-3.8c2.1-1.9,3.9-4.4,5.3-7.3
					c1.2-2.4,2.9-6.7,4.2-12.1c0.6-2.1,1.3-5.9,1.3-5.9c0,0,0.7-3.2,1.1-5.3c0.7-3.9,1.3-7.4,1.9-10.3c0.6-2.9,1.1-5.2,1.5-6.7
					c1.4-5.5,2.8-9.6,5.2-13c1.2-1.6,2.8-3,4.8-4c2-1,4.3-1.5,6.8-1.3c-2.5-0.1-4.8-0.1-7.1,0.3c-2.3,0.5-4.5,1.4-6.5,2.8
					c-4.1,2.8-7.2,7.3-9.5,13.1c-0.6,1.6-1.5,4-2.3,7.1c-0.8,3-1.7,6.6-2.4,10.6c-0.4,2.1-1,5.3-1,5.3l-1.1,5.7
					c-1,5.2-2.1,9.1-2.9,11.2c-1.8,5.2-3.8,8.8-7.3,10.9C27.2,143.3,22.5,143.7,17.8,142.2z"/>
			</g>
		</g>
	</g>
	<g>
		<g>
			<g>
				<path d="M16.4,90.6c4.4-2.3,8.2-4.3,11.8-7.3c3.5-3,6.8-7.1,9.4-12.8c0.5-1.2,1.3-2.8,2-4.8c0.8-2,1.6-4.3,2.5-6.8
					c1-2.9,2.5-7,3.8-10.3l0.9-2.3c0.3-0.7,0.6-1.2,0.8-1.7c0.5-1,0.8-1.6,0.8-1.6c0,0,1.1-2.1,2.7-4.6c0.8-1.3,1.8-2.6,2.9-3.9
					c1.1-1.3,2.2-2.5,3.2-3.5c2.6-2.5,5.3-4.3,7.7-5.6c2.4-1.3,4.5-2,6-2.5c5.3-1.6,9.8-2.1,14.2-2.1c4.4,0,8.7,0.5,13.3,2.4
					c-4.6-1.9-8.5-3.6-12.9-4.9c-2.2-0.6-4.6-1.2-7.2-1.4c-2.6-0.3-5.5-0.3-8.7,0.3c-1.7,0.3-4.4,0.9-7.5,2.2
					c-3.1,1.3-6.6,3.3-9.9,6.2c-1.3,1.2-2.8,2.6-4.1,4.1c-1.3,1.5-2.5,3.1-3.5,4.5c-2,2.9-3.1,5.3-3.1,5.3c0,0-0.4,0.7-0.9,1.8
					c-0.3,0.6-0.6,1.3-0.9,2.1c-0.3,0.8-0.6,1.6-1,2.5c-1.4,3.6-2.6,7.9-3.5,10.9c-1.4,5.3-2.5,9.3-3.2,11.5
					c-1.7,5.5-3.4,9.6-5.8,13.2C23.9,85.1,20.8,88.2,16.4,90.6z"/>
			</g>
		</g>
	</g>
	<g>
		<g>
			<g>
				<path d="M60.5,57.3c4.9,0.9,9.2,1.5,13.9,0.8c4.7-0.7,9.6-2.6,14.7-6.5c2.1-1.6,5.5-4.6,9.2-8.8c0.6-0.7,1.4-1.6,2.2-2.5
					l2.3-2.7l2.4-3c0,0,0.9-1.1,2.1-2.5c1.2-1.4,2.8-3.1,4-4.4c2.6-2.6,5.2-4.6,7.5-5.9c2.3-1.3,4.2-1.8,5.6-2.1
					c2.5-0.5,4.9-0.5,7.2-0.3c2.3,0.2,4.5,0.6,6.6,1.1c4.3,1,8.4,2.4,12.7,4.9c-4.3-2.6-7.6-5.2-11.6-7.5c-2-1.2-4.1-2.3-6.7-3.2
					c-2.5-0.9-5.5-1.5-9-1.3c-1.9,0.1-4.8,0.6-8,2c-3.2,1.4-6.6,3.8-9.7,6.7c-1.5,1.4-3.3,3.3-4.6,4.8c-1.3,1.6-2.3,2.8-2.3,2.8
					l-0.7,0.9l-1.7,2.2l-4,5.2c-3.2,4.2-6,7.2-7.6,8.8c-4,4-7.4,6.7-11.3,8.6C69.8,57.2,65.5,58.2,60.5,57.3z"/>
			</g>
		</g>
	</g>
	<g>
		<g>
			<g>
				<path d="M65.1,202.3c3.8-0.8,6.8-0.3,11.5-1.9c1.3-0.4,3.8-1.4,6.6-3.3c2.8-1.8,5.9-4.6,8.1-7.8c2.3-3.2,3.8-6.7,4.6-9.3
					c0.8-2.6,1.1-4.2,1.1-4.2c0,0,0.4-1.7,0.7-4.2c0.4-2.6,0.6-6,0.8-9.5c0.2-3.5,0.3-7,0.6-9.9c0.3-2.9,0.9-5.2,1.2-6.3
					c0.6-2.1,1.1-3.8,1.8-5.4c0.7-1.6,1.6-3.1,3-4.4c-1.5,1.3-2.9,2.2-4.3,3.4c-1.4,1.2-2.9,2.6-4.2,4.7c-0.7,1.2-2.1,3.6-3.1,6.8
					c-1,3.2-1.7,6.9-2.2,10.4c-0.5,3.5-0.9,6.7-1.3,9c-0.4,2.3-0.7,3.7-0.7,3.7c0,0-0.3,1.5-0.9,3.6c-0.6,2.1-1.6,4.9-3.2,7.6
					c-1.5,2.7-3.6,5.3-5.6,7.3c-2,2-4,3.4-5,4.2c-1.8,1.3-3.3,2.4-4.8,3.3C68.5,201.1,67,201.9,65.1,202.3z"/>
			</g>
		</g>
	</g>
	<g>
		<g>
			<g>
				<path d="M33.4,172.7c4.1-0.2,6.9,1,12,0.7c1.4-0.1,4.2-0.3,7.6-1.5c1.7-0.6,3.5-1.4,5.3-2.5c1.8-1.1,3.4-2.5,4.9-4
					c2.9-3,4.8-6.4,6-8.9c1.2-2.5,1.7-4.2,1.7-4.2c0,0,0.6-1.7,1.4-4.2c0.7-2.6,1.5-6,2.3-9.5c0.7-3.5,1.5-7.1,2.4-10
					c0.8-2.9,1.8-5.2,2.4-6.3c1-2.1,1.8-3.8,2.8-5.3c1-1.5,2.1-2.9,3.8-4.1c-1.7,1.1-3.3,1.9-4.9,2.9c-1.6,1-3.3,2.2-5,4.2
					c-0.9,1.1-2.7,3.4-4.2,6.4c-1.6,3.1-3,6.8-4,10.3l-2.7,9.2c-0.7,2.4-1.3,3.8-1.3,3.8c0,0-0.5,1.5-1.4,3.6
					c-0.9,2.1-2.3,4.9-4.3,7.4c-1.9,2.5-4.5,4.6-7,6c-2.5,1.4-4.9,2.3-6.1,2.7c-2.2,0.8-4,1.5-5.8,2
					C37.1,172.1,35.4,172.6,33.4,172.7z"/>
			</g>
		</g>
	</g>
</g>
<g>
	<path d="M184,94.5c0.9-1.6,2.4-2.7,4.1-3.4c1.7-0.7,3.5-1,5.2-1c1.7,0,3.4,0.1,5.1,0.4c1.7,0.3,3.3,0.7,5,1.3
		c-1.6,0.7-3.4,0.9-5.1,1.1c-1.7,0.1-3.3,0.2-4.9,0.2c-1.6,0-3.2,0.1-4.7,0.3C187.2,93.5,185.7,93.9,184,94.5z"/>
</g>
</svg>
