<?xml version="1.0" encoding="utf-8"?>
<!-- Generator: Adobe Illustrator 19.0.0, SVG Export Plug-In . SVG Version: 6.00 Build 0)  -->
<svg version="1.1" id="Layer_1" xmlns="http://www.w3.org/2000/svg" xmlns:xlink="http://www.w3.org/1999/xlink" x="0px" y="0px"
	 viewBox="-123 351.5 363.8 91.5" style="enable-background:new -123 351.5 363.8 91.5;" xml:space="preserve">
<style type="text/css">
	.st0{fill:#263318;}
</style>
<g id="ground">
	<rect x="-123.2" y="433" class="st0" width="364" height="10.2"/>
</g>
<g id="new_york">
	<polygon class="st0" points="150.7,433.4 150.7,432.9 151.1,432.9 151.1,431.9 151.3,431.9 151.3,431.1 151.1,430.8 151.3,430.5 
		151.3,428.3 151.1,428.1 152.6,426 153.8,426 155.7,428.1 155.7,424 156.8,422.6 158,422.6 158.8,423.6 160,422 161.7,422 
		163.3,424.1 163.3,425.1 164,426 164,421.6 163.6,421.3 165.1,419.8 166.6,419.8 168,421.3 168,421.7 168.8,420.7 169.9,420.7 
		171.4,422.7 171.2,423 171.2,423.9 173.8,423.9 173.8,423.6 174.1,423.6 174.1,422.3 173.8,422.3 173.8,421.9 174.1,421.9 
		174.1,420.7 173.8,420.7 173.8,420.2 174.1,420.2 174.1,419 173.8,419 173.8,418.6 174.1,418.6 174.1,417.3 173.8,417.3 
		173.8,416.9 174.1,416.9 174.1,415.6 173.8,415.6 173.8,415.2 174.1,415.2 174.1,414.8 175.1,414.8 176.3,413.2 176.3,412.9 
		177.5,412.9 177.5,412.5 178.7,411 178.7,410 179.5,410 179.5,409.9 182.5,409.9 182.5,410.4 184,412.5 186.2,412.5 186.2,413.1 
		187.5,414.8 189,414.8 189,415.2 189.3,415.2 189.3,415.6 189,415.6 189,416.9 189.3,416.9 189.3,417.3 189,417.3 189,418.6 
		189.3,418.6 189.3,419 189,419 189,420.2 189.3,420.2 189.3,420.7 189,420.7 189,421.9 189.3,421.9 189.3,422.3 189,422.3 
		189,423.6 189.3,423.6 189.3,423.9 190.3,423.9 191,425.1 191.9,425.1 192.7,423.9 194.6,423.9 194.6,420 194.4,419.8 196,417.7 
		197.7,417.7 198.1,418.2 198.5,417.7 200.2,417.7 200.4,418 200.6,417.7 202.3,417.7 203.1,418.7 203.1,418.4 204.5,416.8 
		206.1,416.8 207.5,418.4 207.1,418.7 207.1,420.8 207.9,419.9 207.9,418.9 209.4,416.8 211.2,416.8 212.4,418.4 213.1,417.4 
		214.4,417.4 215.5,418.8 216.3,418.3 217.8,416.3 219,416.3 220.5,418.3 220.3,418.6 220.3,420.8 220.5,421.1 220.3,421.4 
		220.3,428 225.5,428 225.5,431.5 229.9,431.5 229.9,433.2 231.6,433.2 231.6,434 150,434 150,433.4 	"/>
	<polygon class="st0" points="32.5,424 32.5,418.4 31,418.4 31,413.8 30.3,413.8 30.3,379.6 30.1,379.6 30.1,379.4 29.3,379.4 
		29.3,379.3 30.1,379.3 29.9,379.1 29.7,379.1 29.7,379 29.6,379 29.6,379.1 29,379.1 29,379 29,379 29,378.8 28.7,378.4 
		28.7,378.1 27.8,378.1 27.8,378.4 27.5,378.8 27.5,379.1 26.9,379.1 26.9,379 26.8,379 26.8,379.1 26.2,379.1 26.2,379 26.1,379 
		26.1,379.1 25.5,379.1 25.5,379 25.4,379 25.4,379.1 24.8,379.1 24.8,379 24.7,379 24.7,379.1 24.1,379.1 24.1,379 24,379 
		24,379.1 23.4,379.1 23.4,379 23.3,379 23.3,379.1 22.7,379.1 22.7,379 22.6,379 22.6,379.1 22,379.1 22,379 21.9,379 21.9,379.1 
		21.3,379.1 21.3,379 21.2,379 21.2,379.1 20.6,379.1 20.6,379 20.5,379 20.5,379.1 19.9,379.1 19.9,379 19.8,379 19.8,379.1 
		19.2,379.1 19.2,379 19.1,379 19.1,379.1 18.9,379.1 18.7,379.3 19.4,379.3 19.4,379.4 18.7,379.4 18.7,379.6 18.5,379.6 
		18.5,413.8 17.8,413.8 17.8,418.4 16.3,418.4 16.3,424 15.1,424 15.1,434 33.6,434 33.6,424 	"/>
	<polygon class="st0" points="-10.1,420.3 -10.1,418.7 -9.9,418.7 -9.9,417.3 -9.6,417.3 -9.6,415.9 -8.1,415.9 -8.1,417.3 
		-7.9,417.3 -7.9,418.7 1.5,418.7 1.5,422.3 5.2,422.3 5.2,417 12.2,417 12.2,417.3 12.8,417.3 12.8,419.2 12.3,419.2 12.1,420.4 
		12.5,420.4 12.5,421.7 12,421.7 11.9,422.9 12.2,422.9 12.2,424.3 11.7,424.3 11.6,425.5 11.9,425.5 11.9,426.8 11.5,426.8 
		11.4,428 11.6,428 11.6,429.3 11.2,429.3 11.1,430.5 11.3,430.5 11.3,434 -10.7,434 -10.7,420.3 	"/>
	<path class="st0" d="M69.2,429.9L69.2,429.9l-1.6-0.1v-2.1h-0.2v-0.1h-1.2v-9.8l-0.2-0.2h-1.4v-2.1h-0.3v-3h-0.2v-0.2h-0.8v-33.7
		H63v-5.1h-0.8v-3.1h-0.6v-1.8l-0.5-0.1v-0.8H61v-0.1h-0.6l-0.6-2.6h-0.4l-0.2-3.3l-0.1-2.3l0,0c0.1,0,0.3-0.1,0.3-0.3
		c0-0.1-0.1-0.3-0.3-0.3l0,0v-0.9c0.1,0,0.1-0.1,0.1-0.2s-0.1-0.2-0.1-0.2l-0.2-6h-0.3l-0.2,6c-0.1,0-0.1,0.1-0.1,0.2
		s0.1,0.2,0.1,0.2v0.9l0,0c-0.1,0-0.3,0.1-0.3,0.3c0,0.1,0.1,0.3,0.3,0.3l0,0l-0.1,2.3l-0.2,3.3h-0.4l-0.7,2.6h-0.6v0.1h-0.2v0.8
		l-0.5,0.1v1.8H55v3.1h-0.8v5.1H54v33.7h-0.8v0.2H53v3h-0.3v2.1h-1.4l-0.3,0.2v9.8h-1.2v0.1h-0.2v2.1H48v0.1l0,0v4.1h21.4v-4.1H69.2
		z"/>
	<path class="st0" d="M161,434v-1.4h-0.2v-12h-0.3v0.1h-1.3V416h-0.6v-0.3h-0.1v-0.3h0.1v-0.2h-0.4v-0.8h0.2v-0.8h-0.9v-1.4h0.2
		c0,0,0-0.8,0-1c0-0.3-0.1-0.9-0.1-0.9h-0.1l0.2-0.9l-0.1-0.1l-0.6,0.8v-17.5h-0.1v-0.8c0,0,0.1-0.6,0.1-0.7s0.1-0.3,0.1-0.3
		s0.2,0.1,0.3,0s0-0.4,0-0.4l0.2,0.1c0,0,0.1-0.1,0.1-0.2s-0.2-0.3-0.5-0.3s-0.6,0-0.6,0v-4.7h-0.2v-0.1h-0.6v-2.4h-0.2
		c0,0-0.1-1-0.1-1.4s0-1,0-1h-0.2v-1.9h-0.2l-0.1,0.1c0-1.1,0-2.1,0-2.1s-0.3-0.1-0.3,0c0-0.9,0.1-2.6,0.1-2.6s-0.3-0.1-0.3,0
		c0-1,0-2.8,0-2.8h-0.3v-1.9c0,0-0.3-0.1-0.4,0c-0.2-1.1-0.6-2-0.6-2v-7.6h-0.3v7.5c0,0-0.4,1-0.6,2c-0.1-0.1-0.4,0-0.4,0v1.9h-0.3
		c0,0,0,1.8,0,2.8h-0.3c0,0,0,1.6,0.1,2.6c0-0.1-0.3,0-0.3,0s0,0.9,0,2.1l-0.1-0.1h-0.2v1.9h-0.2c0,0,0,0.6,0,1s-0.1,1.4-0.1,1.4
		h-0.2v2.4h-0.6v0.1h-0.2v4.7c0,0-0.3-0.1-0.6,0c-0.3,0-0.5,0.2-0.5,0.3s0.1,0.2,0.1,0.2l0.2-0.1c0,0-0.1,0.3,0,0.4s0.3,0,0.3,0
		s0.1,0.2,0.1,0.3s0.1,0.7,0.1,0.7v0.9h-0.1v17.5l-0.6-0.8l-0.1,0.1l0.2,0.9h-0.1c0,0-0.1,0.6-0.1,0.9s0,1,0,1h0.2v1.4H147v0.7h0.2
		v0.8h-0.4v0.2h0.1v0.3h-0.1v0.3h-0.6v4.7h-1.3l0,0h-0.3v12h-0.2v1.4H161z"/>
	<path class="st0" d="M123.1,420.9L123.1,420.9l-0.5-0.3l-0.1,0.1h-0.2v-0.1l-4.8-1.6h-1.7v-0.3v-0.2h-0.1v-0.7v-0.2h-1.4V417
		l0.1-0.1v-0.3l0.1-0.1h-0.2v-0.4h-0.1V416h-0.1v-3.3h0.1v-0.1v-0.1H114v-0.2h0.1v-0.1l0,0v-0.1H114v-0.2h0.2v-0.1l0.1-0.2v-0.1H114
		v-0.1l0,0v-0.6h0.1v-0.2h-0.9v-1.1h0.1l0,0v-0.1h-0.1v-0.1l0,0v-0.1l0,0V409h0.2v-0.1l0,0v-0.1h0.1v-0.1h-0.2l0,0H113v-0.5l0,0
		v-0.1h-0.2v-0.2v-0.1l0,0v-0.1h-0.1v-0.1l-0.1-0.1c0,0,0.1-2.2-1.2-3.4c-1-1-2-1.4-2-1.4s0-0.1,0.1-0.1l0.1-0.2l0,0v-0.6l0,0v-0.1
		h-0.1v-0.5l0,0l0,0l0,0H109v-0.3l0,0v-0.1l0,0l0,0h-0.1v-0.1h0.1v-1.3l0,0v-0.1l0,0v-0.1l0,0v-0.1h0.1l0,0l0,0l0,0H109l0,0
		c0,0,0,0,0-0.1v-0.1l0,0l0,0l0,0v-0.1c0,0-0.2-0.1-0.3-0.2s-0.1-0.3-0.1-0.3l0,0v-0.1l0,0c0,0,0-0.1,0-0.2
		c-0.1-0.1-0.2-0.1-0.2-0.1l0,0c0,0,0,0-0.1,0v-0.1l0,0c0,0,0.1,0,0.1-0.1s-0.1-0.1-0.1-0.1v-0.3l0,0l0,0v-0.1h-0.1V397h0.1l0,0l0,0
		c0,0,0,0,0-0.1c0,0,0-0.1-0.1-0.1c0,0-0.1,0-0.1,0.1v0.1l0,0c0,0,0,0-0.1,0v-0.3l0,0v-0.1l0,0v0.1l0,0v0.3h-0.1l0,0c0,0,0,0,0-0.1
		v-0.1c0,0-0.1,0-0.1,0.1v0.1l0,0l0,0h0.1v0.2h-0.1v0.1l0,0l0,0v0.3l-0.1,0.1c0,0.1,0.1,0.1,0.1,0.1l0,0v0.1h-0.1l0,0
		c0,0-0.1,0-0.2,0.1s0,0.2,0,0.2l0,0v0.1l0,0c0,0,0,0.1-0.1,0.3s-0.3,0.2-0.3,0.2v0.1l0,0l0,0l0,0v0.1c0,0.1,0,0.1,0,0.1l0,0H107
		l0,0l0,0l0,0h0.1v0.1l0,0v0.1l0,0v0.1l0,0v1.3H107v0.1h-0.1l0,0l0,0v0.1l0,0v0.3h-0.5l0,0l0,0l0,0v0.5h-0.1v0.1l0,0v0.6l0,0
		c0,0,0,0.1,0.1,0.2l0.1,0.1c0,0-1,0.4-2,1.4c-1.3,1.2-1.2,3.4-1.2,3.4l-0.1,0.1v0.1h-0.1v0.1l0,0v0.1v0.2h-0.2v0.1l0,0v0.5h-0.2
		l0,0h-0.2v0.1h0.1v0.1l0,0v0.1h0.2v0.2l0,0v0.1l0,0v0.1h-0.1v0.1l0,0h0.1v1.1h-0.9v0.1h0.1v0.6l0,0v0.1h-0.4v0.2l0.1,0.2v0.1h0.2
		v0.2h-0.1v0.1l0,0v0.1h0.1v0.2h-0.2v0.1v0.1h0.1v3.3h-0.1v0.1h-0.1v0.4h0.4v0.1v0.2l0.1,0.1v0.6h-1.4v0.2v0.7h-0.1v0.2v0.3H99
		l-4.8,1.6v0.1H94l-0.1-0.1l-0.5,0.2v0.1h-0.1v0.1l0,0v0.1l0,0c0,0,0,0,0,0.1h0.1l0,0l0,0v0.3h0.2v0.2h0.2v0.3l0,0v0.1l0,0v0.7l0,0
		v0.1l0,0v0.6l0,0v0.2l0,0v5.2h-0.2v2.7h-0.2v2.6h29.3v-2.6h-0.2v-2.7h-0.2v-5.2l0,0v-0.1l0,0v-0.6l0,0v-0.1l0,0v-0.7l0,0V422l0,0
		v-0.4h0.2v-0.1h0.2v-0.3l0,0l0,0h0.1v-0.1l0,0L123.1,420.9L123.1,420.9L123.1,420.9L123.1,420.9z M109.5,401.3L109.5,401.3v0.5l0,0
		V401.3z M109.4,401.3L109.4,401.3v0.5l0,0V401.3z M107,401.8L107,401.8v-0.5l0,0V401.8z M107,401.8L107,401.8v-0.5l0,0V401.8z
		 M107.1,401.8L107.1,401.8v-0.5l0,0V401.8z M107.2,401.8L107.2,401.8v-0.5l0,0V401.8z M107.2,401.8L107.2,401.8v-0.5l0,0V401.8z
		 M107.3,401.8L107.3,401.8v-0.5l0,0V401.8z M107.3,401.8L107.3,401.8v-0.5l0,0V401.8z M108.5,399.9v0.9l0,0l0,0h-0.6l0,0l0,0v-0.9
		l0,0v-0.2l0,0c0-0.2,0.1-0.3,0.3-0.3s0.3,0.1,0.3,0.3l0,0L108.5,399.9L108.5,399.9z M109.1,401.8L109.1,401.8v-0.5l0,0V401.8z
		 M109.2,401.8L109.2,401.8v-0.5l0,0V401.8z M109.3,401.8L109.3,401.8v-0.5l0,0V401.8z M109.3,401.8L109.3,401.8v-0.5l0,0V401.8z
		 M109.4,401.8L109.4,401.8v-0.5l0,0V401.8z"/>
	<path class="st0" d="M222.6,426.1v-1.8h-0.3V424h0.3v-0.8h-0.2v-0.3h0.2v-0.3h0.2v-0.3h1.9v0.3h0.2v0.2h0.2v0.3h-0.2v0.8h0.3v0.3
		h-0.3v1.8h0.4v0.2h0.3c0,0,0-0.4,0.5-0.9s1.7-0.3,1.7-0.3s0.1-0.1,0.1-0.3c0-0.2-0.3-0.7-0.3-0.7s0.5,0,0.5-0.4s-0.4-1-0.4-1.2
		s0.1-0.4,0.4-0.4s0.3,0.2,0.3,0.2s0.1,0,0.2,0v-0.1c0,0,0.8,0,1.2-0.5c0.3-0.3,0.4-0.6,0.5-0.8c-0.1,0-0.2-0.1-0.2-0.2
		s0.1-0.2,0.2-0.2h0.1v-0.2h-0.1v-0.4h0.1v-0.4h0.2v-0.8h-0.4v-0.2h0.4v-0.5h0.2v0.5h0.4v0.2h-0.4v0.9h0.2v0.4h0.1v0.4H231v0.2h0.1
		c0.1,0,0.2,0.1,0.2,0.2s-0.1,0.2-0.2,0.2c0.1,0.2,0.2,0.5,0.5,0.8c0.5,0.5,1.2,0.5,1.2,0.5v0.1c0.1,0,0.2,0,0.2,0s0.1-0.2,0.3-0.2
		c0.3,0,0.4,0.2,0.4,0.4c0,0.2-0.4,0.8-0.4,1.2s0.5,0.4,0.5,0.4s-0.3,0.5-0.3,0.7s0.1,0.3,0.1,0.3s1.2-0.2,1.7,0.3s0.5,0.9,0.5,0.9
		h0.3v-0.2h0.4v-1.8h-0.3V424h0.3v-0.8h-0.2v-0.3h0.2v-0.3h0.2v-0.3h1.9v0.3h0.2v0.2h0.2v0.3h-0.2v0.8h0.3v0.3h-0.3v1.8h0.4v0.6
		h-0.4v7.4h-16.2v-7.4h-0.4v-0.5H222.6z"/>
	<path class="st0" d="M-90.6,430.3v3.7h10.3v-3.7l-0.7-0.5V420l-0.2,1.5h-1l-0.1-0.5l-0.1,0.5h-1l-0.2-1.5v6.1l-2-1.5v-0.2
		c0,0,0.1,0,0.1-0.1h0.1l0,0h-0.1c0,0,0-0.1-0.1-0.1v-0.1h-0.1v0.1c0,0-0.1,0-0.1,0.1h-0.1l0,0h0.1c0,0,0,0.1,0.1,0.1v0.2l-1.9,1.5
		V420l-0.2,1.5h-1l-0.1-0.5l-0.1,0.5h-1l-0.2-1.5v9.8L-90.6,430.3z M-85.5,424.3L-85.5,424.3L-85.5,424.3L-85.5,424.3z M-85.5,424.4
		C-85.5,424.4-85.5,424.3-85.5,424.4L-85.5,424.4L-85.5,424.4z M-88.5,423.4h-0.3c0,0,0,0,0-0.3s0.1-0.3,0.1-0.3s0.1,0,0.1,0.3
		C-88.5,423.4-88.5,423.4-88.5,423.4z M-85.4,424.3L-85.4,424.3L-85.4,424.3L-85.4,424.3z M-85.4,424.4L-85.4,424.4L-85.4,424.4
		C-85.4,424.3-85.4,424.4-85.4,424.4z M-82.1,423.4h-0.3c0,0,0,0,0-0.3s0.1-0.3,0.1-0.3s0.1,0,0.1,0.3
		C-82.1,423.4-82.1,423.4-82.1,423.4z"/>
	<polygon class="st0" points="-65.6,430.7 -66.1,430.7 -63.2,428 -63.2,425.8 -60.7,422.2 -60.2,422.2 -60.2,420.3 -60.4,420.3 
		-60.4,419.6 -60.2,419.6 -60.2,419.1 -60,419.1 -60,419.6 -59.8,419.6 -59.8,419.1 -59.6,419.1 -59.6,419.6 -59.4,419.6 
		-59.4,419.1 -59.2,419.1 -59.2,419.6 -59,419.6 -59,420.3 -59.2,420.3 -59.2,422.2 -53.4,422.2 -50.8,425.8 -50.8,433.7 
		-50.4,433.7 -50.4,434 -66.1,434 -66.1,433.7 -65.6,433.7 	"/>
	<path class="st0" d="M-17.4,433.4v-1.1h0.6v-4h1l-7.1-5.6l-7.1,5.6h1v4h0.6v1.1c-0.5,0.1-0.9,0.3-1.2,0.6h13.5
		C-16.5,433.7-16.9,433.5-17.4,433.4z"/>
	<polygon class="st0" points="47.9,429.1 48.2,429.1 48.2,427.8 49.1,427.8 46.8,425.1 47.5,425.1 41.9,418.4 36.3,425.1 
		36.9,425.1 34.6,427.8 35.5,427.8 35.5,429.1 35.8,429.1 35.8,433.5 35.1,433.5 35.1,434 48.6,434 48.6,433.5 47.9,433.5 	"/>
	<path class="st0" d="M11.5,430H12v0.3h-0.5v3.8H4.6v-3.8H4.1V430h0.5v-3.3H3.1l4.4-4.4v-1.2h0.1v-0.2h0.2v0.2h0.1v-0.2h0.2v0.2h0.1
		v-0.2h0.2v0.2h0.1v1.2l4.4,4.4h-1.5L11.5,430L11.5,430z M8.3,424.7c0-0.6-0.3-0.6-0.3-0.6s-0.3,0-0.3,0.6s0,0.6,0,0.6h0.5
		C8.3,425.2,8.3,425.2,8.3,424.7z"/>
	<path class="st0" d="M-38.5,427.8v6.2h-10.7v-6.2l2.7-0.8v-0.4h0.3v-0.8h0.4c0-1,0.9-1.4,1.9-1.4s1.9,0.4,1.9,1.4h0.4v0.8h0.3v0.4
		L-38.5,427.8z"/>
	<polygon class="st0" points="135.2,429.5 135.2,428.6 130.9,426.2 130.9,420.1 119.8,423.1 119.8,423.8 119.4,423.8 119.4,424.4 
		119.8,424.4 119.8,433.6 119.1,433.6 119.1,434 135.2,434 135.2,433.6 134.8,433.6 134.8,429.5 	"/>
	<polygon class="st0" points="-70.7,427.9 -74,427.9 -75.1,424.3 -75.6,424.3 -75.6,420 -77.3,412.9 -77.3,412.2 -77.2,412.2 
		-77.2,412.2 -77.3,412.2 -77.3,412 -77.4,412 -77.4,412.2 -77.5,412.2 -77.5,412.2 -77.4,412.2 -77.4,412.9 -79.1,420 -79.1,424.3 
		-79.6,424.3 -80.7,427.9 -84,427.9 -84,434 -70.7,434 	"/>
	<polygon class="st0" points="89.2,402.4 89,402.4 89,393.7 88.6,393.7 88.6,385.3 88.2,385.3 88.2,376.8 86.7,376.4 81.4,376.4 
		79.8,376.8 79.8,385.3 79.4,385.3 79.4,393.7 79,393.7 79,402.4 78.8,402.4 78.8,411.2 78.5,411.2 78.5,434 89.5,434 89.5,411.2 
		89.2,411.2 	"/>
	<path class="st0" d="M-6,427.8V419h-0.3v0.3h-0.3V419h-0.3v0.3H-7l-1.1-2.5l-1.1,2.5h-0.1V419h-0.3v0.3h-0.3V419h-0.3v4.6h-0.3
		v-0.3h-0.3v0.3h-0.3v-0.3h-0.3v0.3h-0.3v-0.3H-12v0.3h-1v-0.3h-0.3v0.3h-0.3v-0.3H-14v0.3h-0.3v-4.5h-0.3v0.3H-15v-0.3h-0.3v0.3
		h-0.1l-1.1-2.5l-1.1,2.5h-0.1v-0.3H-18v0.3h-0.3v-0.3h-0.3v8.8l-1.6,0.6v5.6h16.1v-5.6L-6,427.8z M-16.5,425.5h-0.2v-1.1h0.2V425.5
		z M-16.5,421.3h-0.2v-1.1h0.2V421.3z M-8.2,425.5h-0.2v-1.1h0.2V425.5z M-8.2,421.3h-0.2v-1.1h0.2V421.3z"/>
</g>
<g id="statue_of_liberty">
	<path class="st0" d="M-68.4,434v-0.9H-87v-2.3h-4.9V430h-2.8v-0.6h-2.1v-3.3h-0.5v-1.7h-0.4l-0.2-9.1h0.3v-1.2h0.7v-1h0.5v-1h-3.9
		c0,0-1.5-1.6-1.5-8.3c0.5-0.5,0.9-0.8,1.2-1.5c0.2-0.7-0.2-4.2-0.3-5.4c0.4-1.2,0.7-3.9,0.3-5.3c0,0,1.6-2.3,0.2-4.7l-0.1-0.9
		c0,0,0.8-0.6,0.9-3.1c0.1-0.1,0.3-0.5,0.2-0.8c0,0,0.2-0.4,0.7-0.1s0-2.4-0.6-3.2c0,0,0.3-1.2,0.3-1.4c0,0,0.8-0.9,0.6-4.6l0.2,0.2
		c0,0-0.4,0.5,0.3,0.5c0.7,0,0.3-0.5,0.3-0.5s0.3-0.2,0.1-0.5c0.2-0.1,0.3-0.4,0.3-0.7h-0.2v-1c0,0,0.2,0,0.2-0.2s-0.1-0.2-0.2-0.2
		c0.1,0,0.3,0,0.3-0.2s-0.3-0.3-0.3-0.3v-0.1c0,0,0.3,0,0.3-0.3c0-0.2-0.3-0.2-0.3-0.2v-0.4c0,0,0.3,0,0.3-0.2s-0.3-0.2-0.3-0.2
		v-0.2c0,0,0.9-0.2,0.9-0.6c0-0.2-0.2-0.2-0.2-0.2V367c0,0-0.3-0.1-0.7-0.1v-0.3c0,0,0.1,0,0.1-0.1s-0.1-0.1-0.1-0.1
		s0.3-0.1,0.3-0.3s-0.1-0.2-0.1-0.4c0-0.1,0.2-0.5,0.2-0.7s-0.3-0.7-0.3-0.9c-0.1,0-0.1,0.3-0.2,0.3s-0.1-0.3-0.1-0.3
		s-0.3,0.1-0.2,0.3c-0.1,0-0.1-0.2-0.2-0.4c-0.1-0.2-0.3-0.3-0.3-0.3s-0.3,0.2-0.3,0.4c0,0.3,0.1,0.6,0.1,0.8c0,0.2-0.3,0.5-0.3,0.8
		s0.2,0.5,0.2,0.5s-0.1,0.1-0.1,0.2s0.1,0.1,0.1,0.1v0.3c-0.4,0-0.6,0.1-0.6,0.1v0.7c0,0-0.2,0-0.2,0.2c0,0.4,0.9,0.5,0.9,0.5v0.2
		c0,0-0.3,0.1-0.3,0.2c0,0.2,0.3,0.3,0.3,0.3v0.4c0,0-0.6,0.5-0.8,1.6c-0.5,1.2-0.6,2.4-0.6,2.4s-0.8,2.1-0.9,3.2l-1.4,0.2
		c0,0,0-0.1-0.1-0.2s-0.1-0.2-0.1-0.2l1.8-1.8l-2.1,1.5c0,0-0.1-0.1-0.2-0.1c-0.2,0-0.3,0-0.3,0l0.7-2.1l-1.2,2.1c0,0-0.2,0-0.4,0
		c-0.2,0-0.4,0.2-0.4,0.2l-0.5-1.8v1.9c0,0-0.3,0-0.4,0.1c-0.2,0.1-0.3,0.2-0.3,0.2l-1.7-0.7l1.3,1.1c0,0-0.1,0.1-0.2,0.2
		s-0.1,0.2-0.1,0.2l-2.1,0.1l1.8,0.3c0,0,0,0.3,0,0.5s0,0.5,0,0.5h0.2v0.2c0,0-0.2,0.2-0.3,0.4c-0.1,0.3,0.1,0.5,0.1,0.8
		s-0.3,0.4-0.2,0.5c0,0.2,0.2,0.3,0.2,0.3s-0.4,0.8-0.7,1c0,0-0.1,0-0.2,0s-0.1,0.1-0.1,0.1s-0.5,0.1-1.1,0.8
		c-0.6,0.7-0.9,2.2-1.1,2.6c-0.2,0.3-0.8,0.5-0.8,0.5l-0.3-0.6l0.1,0.2l-0.2-0.5l-0.8,0.3l-1,1.2l0.2,0.4l-0.2,0.1l0.5,1.1
		c0,0-0.4,0.2-0.4,0.5s0.2,0.6,0.2,0.6s-0.1,0.5,0,0.7c0.1,0.3,0.5,0.6,0.5,0.6s0,0.2,0.1,0.5s0,1.6,0.4,2.2s0.9,1,1.4,1
		s1-0.4,1-0.4s-1,4.2-1.2,7.8c-0.2,0.1-0.3,0.3-0.3,0.5s0.3,0.3,0.3,0.3s-0.3,0.8-0.3,1.2c0,0.4,0.3,0.5,0.3,0.5s-0.2,1.1-0.1,1.5
		c0,0.4,0.3,0.5,0.3,0.5s-0.7,2-0.8,2.6c0,0.5,0.2,0.8,0.2,0.8s-0.6,2.3-1.3,2.6h-4.3v1h0.5v1h0.7v1.2h0.3l-0.1,9h-0.4v1.7h-0.5v3.3
		h-1.3v0.6h-2.9v0.8h-0.5l-0.4,3.2L-68.4,434L-68.4,434z M-102.3,377.3c0-0.1,0.1-0.3,0.1-0.3l1.4-0.4c0,0,0,0.2-0.1,0.3
		c0,0.1-0.1,0.1-0.2,0.2s-0.3,0.3-0.3,0.3h-1.1C-102.4,377.5-102.3,377.4-102.3,377.3z M-102.8,379c0,0,0.3,0.2,0.4,0.1s0-0.7,0-0.7
		l0.1-0.2v-0.3h1c0,0-0.1,0.1-0.2,0.3c-0.1,0.2,0,0.4-0.1,0.5c0,0.1-0.1-0.1-0.2,0.1c0,0.2,0.1,0.2,0,0.4c-0.1,0.2-0.3,0.5-0.4,0.7
		C-102.3,379.8-102.9,379-102.8,379L-102.8,379z M-102.8,380.7c0.1-0.1,0.2-0.3,0.2-0.5c0-0.1-0.1-0.4-0.1-0.4s0.1,0.1,0.1,0.2
		c0.1,0.1,0.1,0.1,0.1,0.1s0,0.1,0,0.2s-0.1,0.1-0.2,0.2s-0.1,0.2-0.2,0.4c-0.1,0.1-0.4,0.3-0.4,0.3V381
		C-103.3,381.1-102.9,380.8-102.8,380.7z M-106.1,381.4c0.1-0.3,0.2-0.6,0.2-0.6h0.1c0,0,0.1,0.3,0,0.6c0,0.3-0.2,0.5-0.3,0.6
		s-0.3,0-0.3,0S-106.2,381.7-106.1,381.4z"/>
</g>
</svg>
