<?xml version="1.0" encoding="utf-8"?>
<!-- Generator: Adobe Illustrator 19.0.0, SVG Export Plug-In . SVG Version: 6.00 Build 0)  -->
<svg version="1.1" xmlns="http://www.w3.org/2000/svg" xmlns:xlink="http://www.w3.org/1999/xlink" x="0px" y="0px"
	 viewBox="0 0 363.8 91.5" style="enable-background:new 0 0 363.8 91.5;" xml:space="preserve">
<style type="text/css">
	.st0{fill:#8C8C8C;}
</style>
<g id="ground">
</g>
<g id="new_york">
	<path class="st0" d="M206.6,79.9h0.2v-0.6h-0.2V64.1h0.2v-0.6h-0.2V48.2h0.2v-1.6h-0.6v-0.2h-0.3v-0.1h-0.1v-0.1h-0.1V46h-0.1v0.2
		h-0.1v0.1h-0.4v0.1h-0.3v-0.2h-0.3v0.2h-1v-0.3h0.1v-0.1h1.2v-2.6h-0.4v-0.2h-0.1v0.2h-0.8v-0.2h-0.1v0.2h-0.2v-1.1h-0.1v1.1h-0.5
		v-0.2h-0.1v0.2h-0.8v-0.2h-0.1v0.2h-0.8v-0.2h-0.1v0.2H200v-0.2h-0.1v0.2h-0.8v-0.2h-0.1v0.2h-0.8v-0.2H198v0.2h-0.4v2.4h-0.4v0.5
		h-0.2v0.2h-0.6v0.2h-0.6v1.6h0.2v15.3h-0.2v0.6h0.2v15.3h-0.2v0.6h0.2v1.6h-9.4v0.9H209v-0.9h-2.3V79.9z M200.9,46.4v-0.3h0.8v0.3
		H200.9z M200.8,46.1v0.3H200v-0.3H200.8z M201.8,46.4v-0.3h0.8v0.3H201.8z M199.9,46.1v0.3h-0.8v-0.3H199.9z M203.5,46.4h-0.8v-0.3
		h0.8V46.4z M197.8,45.9h1v0.1h0.1v0.3h-1v-0.2h-0.1V45.9z"/>
	<path class="st0" d="M87.1,79.6V63.9H86V64h-0.5l-0.1-0.1h-0.3v-0.3h-0.3v-1.3h0.3v-1.7h-4v1.7h0.3v1.3h-0.3v0.3h-0.3L80.8,64h-0.5
		v-0.1h-1.1v15.7h-1.8v2.8h11.4v-2.8H87.1z M84.1,63h-0.5l0.3-0.3L84.1,63z M83.8,62.7l0.3-0.3v0.5L83.8,62.7z M83.5,62.9v-0.5
		l0.3,0.3L83.5,62.9z M83.4,62.9l-0.3-0.3l0.3-0.3V62.9z M83.4,63h-0.5l0.3-0.3L83.4,63z M82.8,62.9v-0.5l0.3,0.3L82.8,62.9z
		 M82.8,62.9l-0.3-0.3l0.3-0.3V62.9z M82.7,63h-0.5l0.3-0.3L82.7,63z M82.2,62.9v-0.5l0.3,0.3L82.2,62.9z M82.2,63h0.5l-0.3,0.3
		L82.2,63z M82.4,63.3l-0.3,0.3v-0.5L82.4,63.3z M82.8,63.1v0.5l-0.3-0.3L82.8,63.1z M82.8,63.1l0.3,0.3l-0.3,0.3V63.1z M82.9,63
		h0.5l-0.3,0.3L82.9,63z M83.4,63.1v0.5l-0.3-0.3L83.4,63.1z M83.5,63.1l0.3,0.3l-0.3,0.3V63.1z M83.5,63h0.5l-0.3,0.3L83.5,63z
		 M84.1,63.1v0.5l-0.3-0.3L84.1,63.1z M84.2,63.1l0.3,0.3l-0.3,0.3V63.1z M84.2,63h0.5l-0.3,0.3L84.2,63z M84.2,63l0.3-0.3l0.3,0.3
		H84.2z M84.2,62.9v-0.5l0.3,0.3L84.2,62.9z M84.2,62.4c0.2,0,0.4,0,0.5,0l-0.3,0.3L84.2,62.4z M83.8,62.6l-0.3-0.3
		c0.2,0,0.4,0,0.5,0L83.8,62.6z M83.1,62.6l-0.3-0.3c0.2,0,0.3,0,0.5,0L83.1,62.6z M82.5,62.6l-0.3-0.3c0.2,0,0.3,0,0.5,0L82.5,62.6
		z M82.1,62.4v0.5l-0.3-0.3L82.1,62.4z M81.8,62.6l-0.3-0.3c0.1,0,0.3,0,0.5,0L81.8,62.6z M82.1,63h-0.5l0.3-0.3L82.1,63z M82.1,63
		l-0.3,0.3L81.6,63H82.1z M82.1,63.1v0.5l-0.3-0.3L82.1,63.1z M82.1,63.6c-0.2,0-0.4,0-0.5,0l0.3-0.3L82.1,63.6z M82.5,63.4l0.3,0.3
		c-0.2,0-0.4,0-0.5,0L82.5,63.4z M83.1,63.4l0.3,0.3c-0.2,0-0.3,0-0.5,0L83.1,63.4z M83.8,63.4l0.3,0.3c-0.2,0-0.3,0-0.5,0
		L83.8,63.4z M84.5,63.4l0.3,0.3c-0.1,0-0.3,0-0.5,0L84.5,63.4z M84.5,63.3l0.3-0.3c0,0.2,0,0.4,0,0.5L84.5,63.3z M84.5,62.7
		l0.3-0.3c0,0.1,0,0.3,0,0.5L84.5,62.7z M81.8,62.7l-0.3,0.3c0-0.2,0-0.4,0-0.5L81.8,62.7z M81.8,63.3l-0.3,0.3c0-0.1,0-0.3,0-0.5
		L81.8,63.3z"/>
	<path class="st0" d="M310.1,49.5L310.1,49.5l-0.1-0.2h-1.4v-1.7l-0.1,0v-1h-0.5v-0.5h0.5v-0.5h-0.5v-1.1H308v-2h0v-0.7h-0.2v-0.1
		c0-0.1-0.1-0.2-0.2-0.2h-0.4V41h-0.3v-1.4h0.2v-0.2h0.8v-0.1h0.1v-1.1h-0.1v-0.1h-3.4v-0.3H302v-0.2h-0.2v-0.2h0v-0.2
		c0.4-0.1,0.7-0.5,0.7-0.7c0-0.1-0.4-0.2-0.8-0.2c-0.5,0-0.9,0.1-0.9,0.2c0,0.2,0.3,0.6,0.7,0.7v0.2h0v0.2h-0.9v-0.9h-0.4v-0.1h-0.8
		v0.1H299v0.4h-0.5v0.1h-0.1v-0.4H298v0.5h0.2v0.3h-0.6V38h-0.2v0.1h-0.8v0.1h-0.1v1.1h0.1v0.1h0.8v0.2h0.2v1h-0.3v0.2h-0.2V41h0.2
		v0.4h-0.2v0.2h0.2V42h-0.2v0.2h0.2v0.4h-0.2v0.2h0.2v0.1l-0.1,0l-2.9-1.6l-0.5-0.4v-0.2h0.2v-0.3h-0.2v-1h0.3v-0.2h0v-0.6h-3.9v0.6
		h0.1v0.2h0.3v0.1h-0.1v0.3h-0.2V41h0.2v1l-0.3,0.2H289v0.7l-0.4,0.2l0.1,0.1v3.3h-0.1v1l-0.1,0v1.7H287v0.2h-0.1v26.3h-0.1v6.6
		h23.4v-6.6h-0.1V49.5z M292.7,42.6l0.3-0.2h0.3l0.3,0.2v0.7l-0.3,0.2H293l-0.3-0.2V42.6z M293.1,41.2l0.4,0.1v0.8l-0.3,0.2H293
		l-0.3-0.2v-0.8L293.1,41.2z M292.3,43.3l-0.3,0.2h-0.2v-1.8l0.2-0.1l0.3-0.1V43.3z M289,45.3h-0.2v-0.7h0.2V45.3z M289,44.5h-0.2
		v-0.6h0.2V44.5z M288.8,45.4h0.2V46h-0.2V45.4z M294.2,41.5l2.9,1.6l0.2,0.2l-0.3,0.2h-2.9l-0.3-0.2v-1.8L294.2,41.5z M292.7,40.3
		V40h0.9v0.3H292.7z M291.7,39.8v-0.3h-0.1v-0.1h0.5v0.4h0.1V40h0.1v0.3h-0.2v0.3h0.2v0.2l-0.5,0.4l0,0v-1.5H291.7z M289,43.8h-0.2
		v-0.5l0.2-0.1V43.8z M288.8,46.1h0.2v0.4h-0.2V46.1z"/>
	<path class="st0" d="M150.9,66.1h-0.8v16.3h11.2V66.1h-0.8V44.3h-0.2v-1.4h-0.8v-2.4c0,0-2.8-3.3-3.3-3.8v-0.3h-0.1
		c0-0.6,0-2.3,0-2.3l-0.5-0.5v-5.7h0v-0.6h-0.3v0.6h0v5.7l-0.5,0.5c0,0,0,1.7,0,2.3h-0.1v0.3c-0.5,0.6-3.3,3.8-3.3,3.8v2.4h-0.8v1.4
		h-0.2V66.1z M156.1,34.4c0,0.1,0,0.2,0,0.4h-0.3v-0.4H156.1z M155.4,35.7h0.3V36h-0.3C155.4,35.9,155.4,35.8,155.4,35.7z M155.4,35
		h0.3v0.4h-0.3C155.4,35.3,155.4,35.1,155.4,35z M155.4,34.4h0.3v0.4h-0.3C155.4,34.6,155.4,34.5,155.4,34.4z M156.1,35
		c0,0.1,0,0.2,0,0.4h-0.3V35H156.1z M156.1,35.7c0,0.1,0,0.3,0,0.4h-0.3v-0.4H156.1z M152,41.9c0-0.5,0-1.1,0-1.2l0.7-0.1v1h-0.2
		v0.2L152,41.9z M152.2,40.4c0.2-0.2,0.6-0.7,1-1.2v0.7h-0.1v0.5L152.2,40.4z M158.2,39.2c0.5,0.5,0.9,1,1.1,1.2l-1-0.1v-0.5h-0.1
		V39.2z M159.4,40.7c0,0.2,0,0.7,0,1.2l-0.6-0.1v-0.2h-0.2v-1L159.4,40.7z M152,42.9c0-0.2,0-0.5,0-0.9l0.3-0.1v0.9H152z
		 M155.4,36.4c0,0,0-0.1,0-0.1h0.3v0.1H155.4z M155.6,33.9v0.3h-0.2C155.5,34.1,155.6,34,155.6,33.9z M155.8,33.9
		c0.1,0.1,0.2,0.2,0.2,0.3h-0.2V33.9z M156.1,36.4h-0.3v-0.1h0.3C156.1,36.3,156.1,36.4,156.1,36.4z M159.4,42.9h-0.3V42l0.3,0.1
		C159.4,42.4,159.4,42.7,159.4,42.9z"/>
	<path class="st0" d="M30.5,75.2v-1.3h0h-0.6v-1.4l0,0h-0.1c-0.1-1-0.9-1.8-1.9-1.9v-0.1h-0.5v0.1c-1,0.1-1.8,0.9-1.9,1.9h-0.1l0,0
		v1.4h-0.6l0,0v1.3l-1.1,0.5v6.8h7.9v-6.8L30.5,75.2z"/>
	<polygon class="st0" points="55.6,82.4 55.6,69.8 55.9,69.7 55.9,69.1 57.1,69.1 58.8,68.3 58.8,67.5 58.4,67.5 61.1,62.7 
		63.7,67.5 63.3,67.5 63.3,68.3 65,69.1 66.3,69.1 66.3,69.7 66.6,69.8 66.6,82.4 	"/>
	<polygon class="st0" points="95.8,75.3 96.2,75.3 96.2,59.7 96.3,59.7 96.3,59.4 96.4,59.4 96.4,46.5 96.8,46.5 96.8,46.2 
		95.9,46.2 95.9,44.2 97.6,44.2 97.6,42.8 98.1,42.8 98.1,41.4 98.7,41.4 98.7,40 99.2,40 99.2,38.6 99.6,38.6 99.6,36.3 99.8,36.3 
		99.8,38.6 100.1,38.6 100.1,40 100.7,40 100.7,41.4 101.2,41.4 101.2,42.8 101.7,42.8 101.7,44.2 103.5,44.2 103.5,46.2 
		102.6,46.2 102.6,46.5 103,46.5 103,59.4 103,59.4 103,59.7 103.2,59.7 103.2,75.3 103.5,75.3 103.5,76.4 104.2,76.4 104.2,82.4 
		95.1,82.4 95.1,76.4 95.8,76.4 	"/>
	<path class="st0" d="M315.6,73.6H315v8.8h11.8v-8.8h-0.6V42.5h-0.6l-0.2-0.1l0,0v-0.8h0.1v-3.8h-5.3v0h-3.7v0h-0.1v3.8h0.1v1.5
		h-0.8V73.6z M319.4,41.8l-0.5,0.5v-0.7h0.2L319.4,41.8z M319.3,41.6h0.3l-0.2,0.2L319.3,41.6z M317.9,41.6l0.2,0.2l-0.5,0.5v-0.7
		H317.9z M317.7,43.1v-0.5l0.5,0.5l-0.1,0.1H317.7z M318.4,43.1L318.4,43.1l0.4-0.5v0.5H318.4z M317.8,42.4l0.5-0.5l0.5,0.5H317.8z
		 M318.7,42.5l-0.5,0.5l-0.5-0.5H318.7z M318.1,41.6h0.3l-0.2,0.2L318.1,41.6z M318.6,41.6h0.2v0.7l-0.5-0.5L318.6,41.6z
		 M319.4,41.9l0.5,0.5H319L319.4,41.9z M319.9,42.5l-0.5,0.5l-0.5-0.5H319.9z M319.4,43L319.4,43l-0.5,0.1v-0.5L319.4,43z M317.1,43
		l0.5-0.5v0.5L317.1,43L317.1,43z M317.1,42.9l-0.5-0.5h0.9L317.1,42.9z M316.6,42.4l0.5-0.5l0.5,0.5H316.6z M317.1,41.8l0.2-0.2
		h0.2v0.7L317.1,41.8z M317.1,41.8l-0.2-0.2h0.3L317.1,41.8z M320,41.6c0,0.2,0,0.4,0,0.7l-0.5-0.5l0.2-0.2H320z M320,43.1h-0.4
		l-0.1-0.1l0.5-0.5C320,42.8,320,42.9,320,43.1z M316.5,43.1c0-0.2,0-0.3,0-0.5L317,43l-0.1,0.1H316.5z M316.5,41.6h0.2l0.2,0.2
		l-0.5,0.5C316.5,42,316.5,41.8,316.5,41.6z M324.4,42.6l-0.2-0.2l0.5-0.5l0.5,0.5l0,0L324.4,42.6z M324.1,42.8v-0.3l0.1,0.1l-0.1,0
		V42.8L324.1,42.8z M324.1,41.6h0.2l0.2,0.2l-0.5,0.5V41.6z M324.5,41.6h0.3l-0.2,0.2L324.5,41.6z M325.2,41.6v0.7l-0.5-0.5l0.2-0.2
		H325.2z M321.7,43.1h-1.6v-1.5h3.9v1.2h-0.4v0.1h-1.7L321.7,43.1z"/>
	<path class="st0" d="M273.1,72.4h-0.2v10H283v-10h-0.2V47.1h0.3v-3.9H283V43h-1.3v-0.5h0.9v-0.3h-0.2v-0.1h0.2v-0.1h-0.2V42h0.2
		v-0.1h-0.2v-0.1h0.2v-0.1h-0.2v-0.1h0.2v-0.1h-0.2v-0.1h0.2v-0.1h-0.2v-0.1h0.2v-0.1h-0.2v-0.1h0.2V41h-0.2v-0.1h0.2v-0.1h-0.2
		v-0.1h0.2v-0.3h-1l-1.2-1.6v-0.1h0.1v-0.1h-0.1v-0.1h0.1v-0.1h-0.1v-0.1h0.1v-0.1h-0.1v-0.1h0.1v-0.1h-0.1v-0.1h0.1v-0.1h-0.1V38
		h0.1v-0.1h-0.1v-0.1h0.1v-0.1h-0.1v-0.1h0.1v-0.1h-0.1v-0.1h0.1v-0.1h-0.1v-0.1h0.1v-0.1h-0.1v-0.1h0.1v-0.1h-0.1V37h0.1v-0.1h-0.1
		v-0.1h0v-1.4h0v-0.9h-0.1v0.9h0v1.4h0v0.1h-0.1V37h0.1v0.1h-0.1v0.1h0.1v0.1h-0.1v0.1h0.1v0.1h-0.1v0.1h0.1v0.1h-0.1v0.1h0.1v0.1
		h-0.1v0.1h0.1v0.1h-0.1V38h0.1v0.1h-0.1v0.1h0.1v0.1h-0.1v0.1h0.1v0.1h-0.1v0.1h0.1v0.1h-0.1v0.1h0.1v0.1h-0.1v0.1h0.1v0.1
		l-1.2,1.6h-1v0.3h0.2v0.1H278v0.1h0.2V41H278v0.1h0.2v0.1H278v0.1h0.2v0.1H278v0.1h0.2v0.1H278v0.1h0.2v0.1H278v0.1h0.2v0.1H278V42
		h0.2v0.1H278v0.1h0.2v0.1H278v0.3h0.9V43h-3.7v-0.6H275V43h-0.9v-0.3l-0.6,0.1V43h-0.5V72.4z M281.3,40.7L281.3,40.7l-0.7,0.1v-0.1
		H281.3z M279.3,42.2L279.3,42.2l0.7-0.1v0.1H279.3z M280.1,40.4C280.1,40.4,280.1,40.4,280.1,40.4l0.2,0v0H280.1z M280.1,40.3
		C280.1,40.3,280.1,40.3,280.1,40.3l0.1-0.1v0.1H280.1z M280.1,40.1C280.1,40.1,280.1,40.1,280.1,40.1l0.1-0.1v0.1H280.1z
		 M280.2,39.6C280.2,39.6,280.2,39.5,280.2,39.6L280.2,39.6L280.2,39.6L280.2,39.6z M280.2,39.7L280.2,39.7L280.2,39.7
		C280.2,39.7,280.2,39.7,280.2,39.7L280.2,39.7z M280.2,39.4C280.2,39.4,280.2,39.4,280.2,39.4L280.2,39.4L280.2,39.4z M280.3,39.3
		C280.3,39.4,280.3,39.4,280.3,39.3L280.3,39.3L280.3,39.3z M280.4,39.5C280.4,39.5,280.4,39.6,280.4,39.5L280.4,39.5L280.4,39.5
		L280.4,39.5z M280.4,39.7C280.4,39.7,280.4,39.7,280.4,39.7L280.4,39.7L280.4,39.7L280.4,39.7z M280.4,39.9
		C280.4,39.9,280.4,39.9,280.4,39.9L280.4,39.9L280.4,39.9L280.4,39.9z M280.2,40L280.2,40C280.2,39.9,280.2,39.9,280.2,40L280.2,40
		L280.2,40z M280.1,40.1h-0.2c0,0,0-0.1,0-0.1L280.1,40.1L280.1,40.1z M280,40C280,39.9,280,39.9,280,40l0.1-0.1l0,0.1H280z
		 M280.1,39.8C280.1,39.7,280.1,39.7,280.1,39.8l0.1-0.1L280.1,39.8L280.1,39.8z M280.1,39.6C280.1,39.6,280.1,39.5,280.1,39.6
		L280.1,39.6L280.1,39.6L280.1,39.6z M280.2,39.4C280.2,39.4,280.2,39.3,280.2,39.4L280.2,39.4L280.2,39.4L280.2,39.4z M280.4,39.3
		C280.4,39.3,280.4,39.4,280.4,39.3L280.4,39.3L280.4,39.3L280.4,39.3z M280.4,39.5C280.4,39.5,280.5,39.6,280.4,39.5L280.4,39.5
		L280.4,39.5L280.4,39.5z M280.5,39.7C280.5,39.7,280.5,39.7,280.5,39.7L280.5,39.7L280.5,39.7L280.5,39.7z M280.6,39.9
		C280.6,39.9,280.6,39.9,280.6,39.9L280.6,39.9h-0.1H280.6z M280.6,40C280.6,40.1,280.6,40.1,280.6,40l-0.1,0.1l0-0.1H280.6z
		 M280.4,40.1h-0.1V40L280.4,40.1C280.4,40.1,280.4,40.1,280.4,40.1z M280.5,40.2C280.5,40.3,280.5,40.3,280.5,40.2l-0.1,0.1v-0.1
		H280.5z M280.5,40.4C280.5,40.4,280.5,40.4,280.5,40.4l-0.2,0v0H280.5z M280.5,40.7L280.5,40.7l-0.4,0.1v-0.1H280.5z M280.5,40.9
		L280.5,40.9l-0.4,0.1v-0.1H280.5z M280.5,41.1L280.5,41.1l-0.4,0.1v-0.1H280.5z M280.5,41.2L280.5,41.2l-0.4,0.1v-0.1H280.5z
		 M280.5,41.4L280.5,41.4l-0.4,0.1v-0.1H280.5z M280.5,41.6L280.5,41.6l-0.4,0.1v-0.1H280.5z M280.5,41.8L280.5,41.8l-0.4,0.1v-0.1
		H280.5z M280.5,42L280.5,42l-0.4,0.1V42H280.5z M280.5,42.2L280.5,42.2l-0.4,0.1v-0.1H280.5z M279.3,42.1L279.3,42.1L280,42v0.1
		H279.3z M279.3,41.9L279.3,41.9l0.7-0.1v0.1H279.3z M279.3,41.7L279.3,41.7l0.7-0.1v0.1H279.3z M279.3,41.5L279.3,41.5l0.7-0.1v0.1
		H279.3z M279.3,41.3L279.3,41.3l0.7-0.1v0.1H279.3z M279.3,41.2L279.3,41.2l0.7-0.1v0.1H279.3z M279.3,41L279.3,41l0.7-0.1V41
		H279.3z M279.3,40.8L279.3,40.8l0.7-0.1v0.1H279.3z M279.8,40.4C279.8,40.4,279.8,40.4,279.8,40.4l0.2,0l0,0H279.8z M279.9,40.3
		C279.9,40.3,279.9,40.3,279.9,40.3l0.2-0.1l0,0.1H279.9z M279.8,40.3h-0.5c0,0,0-0.1,0.1-0.1L279.8,40.3L279.8,40.3z M279.4,40.1
		C279.5,40.1,279.5,40.1,279.4,40.1l0.4-0.1l0,0.1H279.4z M279.6,40C279.6,39.9,279.6,39.9,279.6,40l0.3-0.1l0,0.1H279.6z
		 M279.7,39.8C279.7,39.7,279.8,39.7,279.7,39.8l0.2-0.1l0,0.1H279.7z M279.9,39.6C279.9,39.6,279.9,39.5,279.9,39.6l0.2-0.1l0,0.1
		H279.9z M280,39.4C280,39.4,280.1,39.3,280,39.4L280,39.4L280,39.4L280,39.4z M280.5,39.3C280.5,39.3,280.5,39.4,280.5,39.3
		L280.5,39.3L280.5,39.3L280.5,39.3z M280.6,39.5C280.7,39.5,280.7,39.6,280.6,39.5L280.6,39.5h-0.1H280.6z M280.8,39.7
		C280.8,39.7,280.8,39.7,280.8,39.7l-0.2,0.1l0-0.1H280.8z M280.9,39.9C280.9,39.9,281,39.9,280.9,39.9l-0.2,0.1l0-0.1H280.9z
		 M281.1,40C281.1,40.1,281.1,40.1,281.1,40l-0.3,0.1l0-0.1H281.1z M281.2,40.2C281.2,40.3,281.3,40.3,281.2,40.2l-0.4,0.1l0-0.1
		H281.2z M280.7,40.3h-0.2l0-0.1L280.7,40.3C280.7,40.3,280.7,40.3,280.7,40.3z M280.7,40.4C280.7,40.4,280.7,40.4,280.7,40.4
		l-0.2,0v0H280.7z M281.3,40.9L281.3,40.9l-0.7,0.1v-0.1H281.3z M281.3,41.1L281.3,41.1l-0.7,0.1v-0.1H281.3z M281.3,41.2
		L281.3,41.2l-0.7,0.1v-0.1H281.3z M281.3,41.4L281.3,41.4l-0.7,0.1v-0.1H281.3z M281.3,41.6L281.3,41.6l-0.7,0.1v-0.1H281.3z
		 M281.3,41.8L281.3,41.8l-0.7,0.1v-0.1H281.3z M281.3,42L281.3,42l-0.7,0.1V42H281.3z M281.3,42.2L281.3,42.2l-0.7,0.1v-0.1H281.3z
		 M280.5,42.5V43h-0.4v-0.5H280.5z M279.1,42.5h0.8V43h-0.8V42.5z M278.3,42.2h0.4v0.1L278.3,42.2L278.3,42.2z M278.3,42h0.4v0.1
		L278.3,42L278.3,42z M278.3,41.8h0.4v0.1L278.3,41.8L278.3,41.8z M278.3,41.6h0.4v0.1L278.3,41.6L278.3,41.6z M278.3,41.4h0.4v0.1
		L278.3,41.4L278.3,41.4z M278.3,41.2h0.4v0.1L278.3,41.2L278.3,41.2z M278.3,41.1h0.4v0.1L278.3,41.1L278.3,41.1z M278.3,40.9h0.4
		V41L278.3,40.9L278.3,40.9z M278.3,40.7h0.4v0.1L278.3,40.7L278.3,40.7z M279.2,40.4C279.2,40.4,279.2,40.4,279.2,40.4l0.5,0l0,0
		H279.2z M281.4,40.4h-0.5l0,0L281.4,40.4C281.4,40.4,281.4,40.4,281.4,40.4z M282.3,40.8h-0.4v-0.1L282.3,40.8L282.3,40.8z
		 M282.3,41h-0.4v-0.1L282.3,41L282.3,41z M282.3,41.2h-0.4v-0.1L282.3,41.2L282.3,41.2z M282.3,41.3h-0.4v-0.1L282.3,41.3
		L282.3,41.3z M282.3,41.5h-0.4v-0.1L282.3,41.5L282.3,41.5z M282.3,41.7h-0.4v-0.1L282.3,41.7L282.3,41.7z M282.3,41.9h-0.4v-0.1
		L282.3,41.9L282.3,41.9z M282.3,42.1h-0.4V42L282.3,42.1L282.3,42.1z M282.3,42.2h-0.4v-0.1L282.3,42.2L282.3,42.2z M281.5,43h-0.8
		v-0.5h0.8V43z"/>
	<path class="st0" d="M335.2,69.3V58.9h0.1v-4.5h0.3v-4.1h0.3v-1.5h1.5v-1.6c-0.5-0.4-0.9-1.1-0.9-1.8c0-1.2,1-2.3,2.3-2.3
		c1.2,0,2.3,1,2.3,2.3c0,0.7-0.4,1.4-0.9,1.8v1.6h1.5v1.5h0.3v4.1h0.3v4.5h0.1v10.4h0.4v13.1h-8.1V69.3H335.2z"/>
	<path class="st0" d="M164.5,63.8v-1.3h0.4V49.2l0.4-0.6v-8.3l0.3-0.5v-3.7c-0.4,0-0.7-0.1-0.7-0.2c0-0.1,0.3-0.1,0.7-0.2v-0.5
		c-0.4,0-0.7-0.1-0.7-0.2c0-0.1,0.3-0.1,0.7-0.2v-0.8h0.9v-1.7l2.9-4.2v-0.5c-0.2,0-0.4-0.1-0.4-0.1c0,0,0.2-0.1,0.4-0.1v-0.4
		c-0.2,0-0.4-0.1-0.4-0.1c0,0,0.2-0.1,0.4-0.1v-0.4c-0.2,0-0.4-0.1-0.4-0.1c0,0,0.2-0.1,0.4-0.1v-0.5c0-0.3,0.1-0.6,0.4-0.6l0.1-5.7
		l0.1,5.7c0.3,0,0.4,0.2,0.4,0.6v0.5c0.2,0,0.4,0.1,0.4,0.1c0,0-0.2,0.1-0.4,0.1v0.4c0.2,0,0.4,0.1,0.4,0.1c0,0-0.2,0.1-0.4,0.1v0.4
		c0.2,0,0.4,0.1,0.4,0.1s-0.2,0.1-0.4,0.1v0.5l2.9,4.2v1.7h0.9V35c0.4,0,0.7,0.1,0.7,0.2c0,0.1-0.3,0.1-0.7,0.2v0.5
		c0.4,0,0.7,0.1,0.7,0.2c0,0.1-0.3,0.1-0.7,0.2v3.7l0.3,0.5v8.3l0.4,0.6v13.2h0.4v1.3h0.6v18.7h-12V63.8H164.5z"/>
	<polygon class="st0" points="356.2,67.2 356.2,66.7 355.9,66.7 355.9,65.9 356,65.9 356,65.1 355.9,65.1 355.9,64.8 354.1,64.8 
		354.1,61.4 354.2,61.4 354.2,61.2 354.1,61.2 354.1,60.7 354,60.7 354,60.1 353.7,60.1 353.7,59.3 353.9,59.3 353.9,59.2 
		353.7,59.2 353.7,59.1 353.6,59.1 353.6,58.8 353.3,58.8 353.3,58.4 353.2,58.4 353.2,57.9 353.2,57.9 353.2,56.7 353.1,56.7 
		353.1,56.3 353,56.3 353,56.7 353,56.7 353,57.9 353,57.9 353,58.4 351.2,58.4 351.2,57.9 351.2,57.9 351.2,56.7 351.2,56.7 
		351.2,56.3 351,56.3 351,56.7 351,56.7 351,57.9 351,57.9 351,58.4 350.9,58.4 350.9,58.8 350.6,58.8 350.6,59.1 350.4,59.1 
		350.4,59.2 350.3,59.2 350.3,59.3 350.4,59.3 350.4,60.1 350.2,60.1 350.2,60.7 350.1,60.7 350.1,61.2 350,61.2 350,61.4 
		350.1,61.4 350.1,64.8 348.2,64.8 348.2,65.1 348.1,65.1 348.1,65.9 348.2,65.9 348.2,66.7 347.9,66.7 347.9,67.2 347.8,67.2 
		347.8,82.4 356.4,82.4 356.4,67.2 	"/>
	<polygon class="st0" points="248.3,82.4 248.3,77.3 251.5,77.3 251.5,33.4 252,33.4 252,27.8 252.5,27.8 252.5,25.3 260.2,28 
		260.2,54.9 260.7,54.9 260.7,77.3 261.1,77.3 261.1,82.4 	"/>
</g>
<g id="statue_of_liberty">
</g>
</svg>
