<?xml version="1.0" encoding="utf-8"?>
<!-- Generator: Adobe Illustrator 19.0.0, SVG Export Plug-In . SVG Version: 6.00 Build 0)  -->
<svg version="1.1" xmlns="http://www.w3.org/2000/svg" xmlns:xlink="http://www.w3.org/1999/xlink" x="0px" y="0px"
	 viewBox="0 0 363.8 91.5" style="enable-background:new 0 0 363.8 91.5;" xml:space="preserve">
<style type="text/css">
	.st0{fill:#383838;}
</style>
<g id="ground">
</g>
<g id="new_york">
	<path class="st0" d="M324.7,71.6h0.2l0.1-17.8h-0.2v-1h1.6c0,0,0.1-0.1,0.1-0.1l-0.5-1l0.1-0.1l0,0.1l0.1-0.1l0.5,0.9
		c0,0,0,0,0.1,0c0.2,0,0.3,0.1,0.4,0.3h1V52h-0.5l-0.1-0.5h6.5L334,52h-0.5v0.8h0.5c0.1-0.3,0.4-0.6,0.8-0.6c0.4,0,0.8,0.2,0.8,0.6
		h1.1v1h-0.2l-0.1,17.8h0.2v2.5h1.1v8.4h-14.4v-8.4h1.1V71.6z"/>
	<path class="st0" d="M240.7,69.1V46.4h-1v-4.3l-9.8-3l-0.3-1.6l-0.7-0.2c-0.9,8.6-1,17.6-1,26.6c0,9.1,0,12.6,0.6,18.5h16.4V69.1
		H240.7z"/>
	<path class="st0" d="M175.3,66.1V49.3h-0.9v-1.4l-3.3-3.9v-0.4l-0.7-0.4v-0.7h0v-0.8h0v0.8h0v0.7l-0.7,0.4l0,0v0.4l-3.3,3.9v1.4
		h-0.9v16.8h-1.9v16.3h13.6V66.1H175.3z M171,43.7c0,0,0,0.2,0,0.3h-0.1L171,43.7c-0.1,0-0.2-0.1-0.2-0.1
		C170.9,43.6,171,43.7,171,43.7z M170.4,43.3c0.1,0.1,0.5,0.4,0.5,0.4c0,0,0,0.2,0,0.4h-1c0-0.1,0-0.3,0-0.4
		C169.9,43.7,170.3,43.4,170.4,43.3z M169.9,43.6c0,0-0.1,0.1-0.1,0.1V44h-0.1c0-0.1,0-0.3,0-0.3C169.7,43.7,169.8,43.6,169.9,43.6z
		"/>
	<polygon class="st0" points="199,47.3 198.8,47.3 198.8,47 198.8,47 198.8,46.9 198.8,46.9 198.8,46.5 198.8,46.5 198.8,46.5 
		198.8,46.5 198.8,46.1 198.8,46.1 198.8,46 198.8,46 198.8,45.7 198.8,45.7 198.8,45.6 198.8,45.6 198.8,45.5 198.7,45.5 
		198.7,45.2 198.8,45.2 198.8,45.2 198.7,45.2 198.7,44.8 198.8,44.8 198.8,44.7 198.7,44.7 198.7,44.7 199,44.7 199,44.5 
		198.7,44.5 198.7,44.4 198.8,44.4 198.8,44.3 198.7,44.3 198.7,43.9 198.8,43.9 198.8,43.9 198.7,43.9 198.7,43.5 198.8,43.5 
		198.8,43.4 198.7,43.4 198.7,43.2 199,43.2 199,42.9 198.7,42.9 198.7,42.6 198.8,42.6 198.8,42.6 198.7,42.6 198.7,42.2 
		198.8,42.2 198.8,42.1 198.7,42.1 198.7,41.8 198.8,41.8 198.8,41.7 198.7,41.7 198.7,41.6 199,41.6 199,41.4 198.7,41.4 
		198.7,41.4 198.8,41.4 198.8,41.3 198.7,41.3 198.7,40.9 198.8,40.9 198.8,40.8 198.7,40.8 198.7,40.8 198.8,40.8 198.8,40.5 
		198.8,40.5 198.8,40.4 198.8,40.4 198.8,40.1 198.8,40.1 198.8,40 198.8,40 198.8,39.6 198.8,39.6 198.8,39.5 198.8,39.5 
		198.8,39.2 198.7,39.2 198.7,39.2 198.8,39.2 198.8,39.1 198.7,39.1 198.7,38.8 198.8,38.8 198.8,38.7 198.7,38.7 198.7,38.3 
		198.8,38.3 198.8,38.3 198.7,38.3 198.7,38.1 198.8,38.1 198.8,37.9 198.8,37.9 198.8,37.8 198.8,37.8 198.8,37.5 198.8,37.5 
		198.8,37.4 198.8,37.4 198.8,37 198.8,37 198.8,36.9 198.8,36.9 198.8,36.6 198.8,36.6 198.8,36.5 198.7,36.5 198.7,36.2 
		198.8,36.2 198.8,36.1 198.7,36.1 198.7,35.7 198.8,35.7 198.8,35.7 198.7,35.7 198.7,35.3 198.8,35.3 198.8,35.2 198.7,35.2 
		198.7,34.9 198.8,34.9 198.8,34.8 198.7,34.8 198.7,34.4 198.8,34.4 198.8,34.4 198.7,34.4 198.7,33.6 198.7,33.6 198.7,34.4 
		198.6,34.4 198.6,34.4 198.7,34.4 198.7,34.8 198.6,34.8 198.6,34.9 198.7,34.9 198.7,35.2 198.6,35.2 198.6,35.3 198.7,35.3 
		198.7,35.7 198.6,35.7 198.6,35.7 198.7,35.7 198.7,36.1 198.6,36.1 198.6,36.2 198.7,36.2 198.7,36.5 198.6,36.5 198.6,36.6 
		198.7,36.6 198.7,36.9 198.6,36.9 198.6,37 198.7,37 198.7,37.4 198.6,37.4 198.6,37.5 198.7,37.5 198.7,37.8 198.6,37.8 
		198.6,37.9 198.7,37.9 198.7,38.1 198.7,38.1 198.7,38.3 198.6,38.3 198.6,38.3 198.7,38.3 198.7,38.7 198.6,38.7 198.6,38.8 
		198.7,38.8 198.7,39.1 198.6,39.1 198.6,39.2 198.7,39.2 198.7,39.2 198.7,39.2 198.7,39.5 198.6,39.5 198.6,39.6 198.7,39.6 
		198.7,39.9 194.2,39.7 193.7,39.3 192.9,39.6 192.9,39.5 192.8,39.5 192.8,39.6 192.8,39.6 191,39.6 189.6,40.2 189.6,82.4 
		199,82.4 199,74.4 199.1,74.4 199.1,73.9 199,73.9 199,73.6 199.1,73.6 199.1,73.2 199,73.2 199,72.9 199.1,72.9 199.1,72.5 
		199,72.5 199,72.2 199.1,72.2 199.1,71.7 199,71.7 199,71.4 199.1,71.4 199.1,71 199,71 199,70.7 199.1,70.7 199.1,70.3 199,70.3 
		199,70 199.1,70 199.1,69.5 199,69.5 199,69.3 199.1,69.3 199.1,68.8 199,68.8 199,68.5 199.1,68.5 199.1,68.1 199,68.1 199,67.8 
		199.1,67.8 199.1,67.4 199,67.4 199,67.1 199.1,67.1 199.1,66.6 199,66.6 199,66.3 199.1,66.3 199.1,65.9 199,65.9 199,65.6 
		199.1,65.6 199.1,65.2 199,65.2 199,64.9 199.1,64.9 199.1,64.4 199,64.4 199,64.2 199.1,64.2 199.1,63.7 199,63.7 199,63.4 
		199.1,63.4 199.1,63 199,63 199,62.7 199.1,62.7 199.1,62.2 199,62.2 199,62 199.1,62 199.1,61.5 199,61.5 199,61.2 199.1,61.2 
		199.1,60.8 199,60.8 199,60.5 199.1,60.5 199.1,60.1 199,60.1 199,59.8 199.1,59.8 199.1,59.3 199,59.3 199,59 199.1,59 
		199.1,58.6 199,58.6 199,58.3 199.1,58.3 199.1,57.9 199,57.9 199,57.6 199.1,57.6 199.1,57.1 199,57.1 199,56.9 199.1,56.9 
		199.1,56.4 199,56.4 199,56.1 199.1,56.1 199.1,55.7 199,55.7 199,55.4 199.1,55.4 199.1,54.9 199,54.9 199,54.7 199.1,54.7 
		199.1,54.2 199,54.2 199,53.9 199.1,53.9 199.1,53.5 199,53.5 199,53.2 199.1,53.2 199.1,52.8 199,52.8 199,52.5 199.1,52.5 
		199.1,52 199,52 199,51.8 199.1,51.8 199.1,51.3 199,51.3 199,51 199.1,51 199.1,50.6 199,50.6 199,50.3 199.1,50.3 199.1,49.8 
		199,49.8 199,49.6 199.1,49.6 199.1,49.1 199,49.1 199,48.8 199.1,48.8 199.1,48.4 199,48.4 199,48.1 199.1,48.1 199.1,47.7 
		199,47.7 	"/>
	<polygon class="st0" points="105.9,59.3 104.4,59.2 103.4,59.3 100.5,59.3 100.5,59.2 100.2,59.2 100.2,59.3 99.8,59.3 99.5,59.3 
		99.5,58.7 99.4,58.7 99.4,59.2 98.9,59.2 98.9,58.7 98.8,58.7 98.8,59.2 97.3,59.3 97.3,59.7 97.1,59.7 97.1,61.1 97.3,61.1 
		97.3,61.4 97.1,61.4 97.1,61.5 97.3,61.5 97.3,61.9 97.1,61.9 97.1,62 97.3,62 97.3,62.3 97.1,62.3 97.1,62.5 97.3,62.5 97.3,62.8 
		97.1,62.8 97.1,63 97.3,63 97.3,63.3 97.1,63.3 97.1,63.4 97.3,63.4 97.3,63.7 97.1,63.7 97.1,63.9 97.3,63.9 97.3,64.2 97.1,64.2 
		97.1,64.4 97.3,64.4 97.3,64.7 97.1,64.7 97.1,64.8 97.3,64.8 97.3,65.2 97.1,65.2 97.1,65.3 97.3,65.3 97.3,65.6 97.1,65.6 
		97.1,65.8 97.3,65.8 97.3,66.1 97.1,66.1 97.1,66.3 97.3,66.3 97.3,66.6 97.1,66.6 97.1,66.7 97.3,66.7 97.3,67.1 97.1,67.1 
		97.1,67.2 97.3,67.2 97.3,67.5 97.1,67.5 97.1,67.7 97.3,67.7 97.3,68 97.1,68 97.1,68.2 97.3,68.2 97.3,68.5 97.1,68.5 97.1,68.6 
		97.3,68.6 97.3,68.9 97.1,68.9 97.1,69.1 97.3,69.1 97.3,69.4 97.1,69.4 97.1,69.6 97.3,69.6 97.3,69.9 97.1,69.9 97.1,70 97.3,70 
		97.3,70.4 97.1,70.4 97.1,70.5 97.3,70.5 97.3,70.8 97.1,70.8 97.1,71 97.3,71 97.3,71.3 97.1,71.3 97.1,71.5 97.3,71.5 97.3,71.8 
		97.1,71.8 97.1,71.9 97.3,71.9 97.3,72.3 97.1,72.3 97.1,72.4 97.3,72.4 97.3,74.1 97.1,74.1 97.1,82.4 106.1,82.4 106.1,74.1 
		106,74.1 106,72.4 106.1,72.4 106.1,72.3 106,72.3 106,71.9 106.1,71.9 106.1,71.8 106,71.8 106,71.5 106.1,71.5 106.1,71.3 
		106,71.3 106,71 106.1,71 106.1,70.8 106,70.8 106,70.5 106.1,70.5 106.1,70.4 106,70.4 106,70 106.1,70 106.1,69.9 106,69.9 
		106,69.6 106.1,69.6 106.1,69.4 106,69.4 106,69.1 106.1,69.1 106.1,68.9 106,68.9 106,68.6 106.1,68.6 106.1,68.5 106,68.5 
		106,68.2 106.1,68.2 106.1,68 106,68 106,67.7 106.1,67.7 106.1,67.5 106,67.5 106,67.2 106.1,67.2 106.1,67.1 106,67.1 106,66.7 
		106.1,66.7 106.1,66.6 106,66.6 106,66.3 106.1,66.3 106.1,66.1 106,66.1 106,65.8 106.1,65.8 106.1,65.6 106,65.6 106,65.3 
		106.1,65.3 106.1,65.2 106,65.2 106,64.8 106.1,64.8 106.1,64.7 106,64.7 106,64.4 106.1,64.4 106.1,64.2 106,64.2 106,63.9 
		106.1,63.9 106.1,63.7 106,63.7 106,63.4 106.1,63.4 106.1,63.3 106,63.3 106,63 106.1,63 106.1,62.8 106,62.8 106,62.5 
		106.1,62.5 106.1,62.3 106,62.3 106,62 106.1,62 106.1,61.9 106,61.9 106,61.5 106.1,61.5 106.1,61.4 106,61.4 106,61.1 
		106.1,61.1 106.1,59.7 105.9,59.7 	"/>
	<path class="st0" d="M65.8,66.6l-0.1-0.3h0.2v-0.9h0l-0.1-0.1h0.2v-0.2h0l-0.1-0.3h0.1h0l0.1-0.6c0,0-0.1-0.1-0.1-0.1
		c0-0.1,0.1-0.2,0.2-0.2c0.1,0,0.2,0.1,0.2,0.2c0,0,0,0.1-0.1,0.1l0.1,0.5l1.9-10.8v-0.5H68v-0.1h0.2v-0.2h0.1v0.2h0.2v0.1h-0.2v0.5
		l1.9,10.8l0.1-0.5c0,0-0.1-0.1-0.1-0.1c0-0.1,0.1-0.2,0.2-0.2c0.1,0,0.2,0.1,0.2,0.2c0,0,0,0.1-0.1,0.1l0.1,0.6h0h0.1l-0.1,0.3h0
		v0.2h0.2l-0.1,0.1h0v0.9h0.2l-0.1,0.3h0V75h0l0.1,0.1v7.3h-5v-7.3l0.1-0.1h0L65.8,66.6L65.8,66.6z"/>
	<path class="st0" d="M48.7,77.2v-1.1h-0.4v-0.6h-0.1v-0.9h-0.1v0.1h-0.2v-0.1h-0.1v0.1h-0.2v-0.1h-0.1v0.1h-0.2v-0.1h-0.1v0.1h-0.2
		v-0.1h-0.1v0.1h-0.2v-0.1h-0.1v0.1h-0.2v-0.1h-0.1v0.1h-0.2v-0.1h-0.1v0.1h-0.2v-0.1h-0.1v0.1h-0.2v-0.1h-0.1v0.1h-0.2v-0.1h-0.1
		v0.1h-0.2v-0.1h-0.1v0.1h-0.1l-0.1,0v0h-0.1l-1.6-1.1l-3.8,2.5h-0.3v2.3L38,78.9v3.5h11.2v-4.7L48.7,77.2z M45.9,74.9h0.2v0.7h-0.2
		V74.9z M45.6,74.9h0.2v0.7h-0.2V74.9z M45.5,74.9v0.6l-0.2-0.1v-0.5H45.5z M45.1,74.9v0.4l-0.2-0.1v-0.3H45.1z M44.6,74.9h0.2V75
		L44.6,74.9L44.6,74.9z M46.4,75.5h-0.2v-0.7h0.2V75.5z M46.8,75.5h-0.2v-0.7h0.2V75.5z M47.1,75.5h-0.2v-0.7h0.2V75.5z M47.4,75.5
		h-0.2v-0.7h0.2V75.5z M47.8,75.5h-0.2v-0.7h0.2V75.5z M48.1,75.5h-0.2v-0.7h0.2V75.5z"/>
	<path class="st0" d="M140.7,80.7v-1h-0.7v-1h0.4v-0.5h-0.3l-0.5-0.4v-0.3H139v-0.1h0.4v-0.1H139v-0.2h0.4V77H139v-0.2h0.4v-0.1H139
		v-0.2h0.4v-0.1H139v-0.2h0.4v-0.1H139v-0.2h0.4v-0.1H139v-0.2h0.4v-0.1H139v-0.2h0.4v-0.1H139V75h0.4v-0.1H139v-0.2h0.4v-0.1H139
		v-0.2h0.4v-0.1H139v-0.2h0.4v0h0v-0.4H139v-0.2h0.4v-0.1H139v-0.2h0.4v-0.1H139v-0.2h0.4v-0.1h0v-0.4H139v-0.2h0.4v-0.1H139V72h0.4
		V72H139v-0.2h0.4v-0.1H139v-0.2h0.4v-0.1H139v-0.2h0.4v-0.1H139v-0.2h0.4v-0.1H139v-0.2h0.4v-0.1H139v-0.2h0.4v-0.1H139V70h0.4
		v-0.1H139v-0.2h0.4v-0.1H139v-0.2h0.4v-0.1H139v-0.2h0.4V69H139v-0.2h0.4v-0.1H139v-0.2h0.4v-0.1H139v-0.2h0.4v-0.1H139v-0.2h0.4
		v-0.1H139v-0.2h0.4v-0.1H139v-0.2h0.4v-0.1H139V67h0.4V67H139v-0.2h0.4v-0.1H139v-0.2h0.4v-0.1H139v-0.2h0.4v-0.1H139v-0.2h0.4
		v-0.1H139v-0.2h0.4v0h0v-0.4H139V65h0.4v-0.1H139v-0.2h0.4v-0.1H139v-0.2h0.4v-0.1H139v0h0.4v-0.4H139v-0.1h0.4v-0.1H139v-0.2h0.4
		v-0.1H139v-0.2h0.4v-0.1H139v-0.2h0.4v-0.1H139v-0.2h0.4v-0.1H139v-0.2h0.4v-0.1H139V62h0.4V62H139v-0.2h0.4v-0.1H139v-0.2h0.4
		v-0.1H139v-0.2h0.4v-0.1H139v-0.2h0.4v-0.1H139v-0.2h0.4v-0.1H139v-0.2h0.4v-0.1H139V60h0.4v-0.1H139v-0.2h0.4v-0.1H139v-0.2h0.4
		v-0.1H139v-0.2h0.4V59H139v-0.2h0.4v-0.1H139v-0.2h0.4v-0.1H139v-0.2h0.4v-0.1H139v-0.2h0.4v-0.1H139v-0.2h0.4v-0.1H139v-0.2h0.4
		v-0.1H139V57h0.4v-0.1H139v0h0.4v-0.4H139v-0.1h0.4v-0.1H139v-0.2h0.4v-0.1H139v-0.2h0.4v-0.1H139v-0.1h0.4v-0.4H139v-0.1h0.4v-0.1
		H139V55h0.4v-0.1H139v-0.2h0.4v-0.1H139v-0.2h0.4v-0.1H139v-0.2h0.4V54H139v-0.2h0.4v-0.1H139v-0.2h0.4v-0.1H139v-0.2h0.4v-0.1H139
		v-0.2h0.4v-0.1H139v-0.2h0.4v-0.1H139v-0.2h0.4v-0.1H139V52h0.4v-0.1H139v-0.2h0.4v-0.1H139v-0.2h0.4v-0.1H139v-0.2h0.4v-0.1H139
		v-0.2h0.4v-0.1H139v-0.2h0.4v-0.1H139v-0.2h0.4v-0.1H139v-0.2h0.4v-0.1H139v-0.2h0.4v-0.1H139v-0.2h0.4v-0.1H139v-0.2h0.4V49H139
		v-0.2h0.4v-0.1H139v-0.2h0.4v-0.1H139v-0.1h0.4V48H139v-0.1h0.4v-0.1H139v-0.2h0.4v-0.1H139v-0.2h0.4v-0.1H139v-0.1h0.4v-0.4h-1.3
		v-0.7h0.3v-0.5h-0.2v-0.4c0.1,0,0.1-0.2,0.1-0.4c0-0.2-0.1-0.4-0.1-0.4V44h-0.2v-1l-0.3-0.3h-0.6v-0.2h-0.1v-1.1H137v-0.3h0v0.3
		h-0.1v-0.3h0v0.3h-0.8v-0.1h-0.4v0.1h-0.1v1.1h-0.1v0.2h-0.2v-0.3h-0.2v0.1H135v0.2h-0.5v-0.4h-0.1c0-0.1,0-0.1-0.1-0.1h-4
		c-0.1,0-0.1,0-0.1,0.1h-0.1v0.4h-0.7l-0.3,0.3v1h-0.2v0.3c-0.1,0-0.1,0.2-0.1,0.4c0,0.2,0.1,0.4,0.1,0.4v0.4h-0.2v0.5h0.3v0.7h-1.3
		v0.4h0.4v0.1h-0.4v0.1h0.4v0.2h-0.4v0.1h0.4v0.2h-0.4v0.1h0.4V48h-0.4v0.4h0.4v0.1h-0.4v0.1h0.4v0.2h-0.4v0.1h0.4V49h-0.4v0.1h0.4
		v0.2h-0.4v0.1h0.4v0.2h-0.4v0.1h0.4v0.2h-0.4v0.1h0.4v0.2h-0.4v0.1h0.4v0.2h-0.4v0.1h0.4v0.2h-0.4v0.1h0.4v0.2h-0.4v0.1h0.4v0.2
		h-0.4v0.1h0.4v0.2h-0.4v0.1h0.4v0.2h-0.4V52h0.4v0.2h-0.4v0.1h0.4v0.2h-0.4v0.1h0.4v0.2h-0.4v0.1h0.4v0.2h-0.4v0.1h0.4v0.2h-0.4
		v0.1h0.4v0.2h-0.4v0.1h0.4V54h-0.4v0.1h0.4v0.2h-0.4v0.1h0.4v0.2h-0.4v0.1h0.4v0.2h-0.4V55h0.4v0.2h-0.4v0.1h0.4v0.1h-0.4v0.4h0.4
		v0.1h-0.4v0.1h0.4v0.2h-0.4v0.1h0.4v0.2h-0.4v0.1h0.4v0.1h-0.4v0.4h0.4v0h-0.4V57h0.4v0.2h-0.4v0.1h0.4v0.2h-0.4v0.1h0.4v0.2h-0.4
		v0.1h0.4v0.2h-0.4v0.1h0.4v0.2h-0.4v0.1h0.4v0.2h-0.4v0.1h0.4V59h-0.4v0.1h0.4v0.2h-0.4v0.1h0.4v0.2h-0.4v0.1h0.4v0.2h-0.4V60h0.4
		v0.2h-0.4v0.1h0.4v0.2h-0.4v0.1h0.4v0.2h-0.4v0.1h0.4v0.2h-0.4v0.1h0.4v0.2h-0.4v0.1h0.4v0.2h-0.4v0.1h0.4V62h-0.4V62h0.4v0.2h-0.4
		v0.1h0.4v0.2h-0.4v0.1h0.4v0.2h-0.4v0.1h0.4v0.2h-0.4v0.1h0.4v0.2h-0.4v0.1h0.4v0.2h-0.4v0.1h0.4v0.1h-0.4v0.4h0.4v0h-0.4v0.1h0.4
		v0.2h-0.4v0.1h0.4v0.2h-0.4V65h0.4v0.2h-0.4v0.4h0v0h0.4v0.2h-0.4v0.1h0.4v0.2h-0.4v0.1h0.4v0.2h-0.4v0.1h0.4v0.2h-0.4v0.1h0.4V67
		h-0.4V67h0.4v0.2h-0.4v0.1h0.4v0.2h-0.4v0.1h0.4v0.2h-0.4v0.1h0.4v0.2h-0.4v0.1h0.4v0.2h-0.4v0.1h0.4v0.2h-0.4v0.1h0.4V69h-0.4v0.1
		h0.4v0.2h-0.4v0.1h0.4v0.2h-0.4v0.1h0.4v0.2h-0.4V70h0.4v0.2h-0.4v0.1h0.4v0.2h-0.4v0.1h0.4v0.2h-0.4v0.1h0.4v0.2h-0.4v0.1h0.4v0.2
		h-0.4v0.1h0.4v0.2h-0.4v0.1h0.4V72h-0.4V72h0.4v0.2h-0.4v0.1h0.4v0.2h-0.4v0.4h0v0.1h0.4v0.2h-0.4v0.1h0.4v0.2h-0.4v0.1h0.4v0.2
		h-0.4v0.4h0v0h0.4v0.2h-0.4v0.1h0.4v0.2h-0.4v0.1h0.4v0.2h-0.4V75h0.4v0.2h-0.4v0.1h0.4v0.2h-0.4v0.1h0.4v0.2h-0.4v0.1h0.4v0.2
		h-0.4v0.1h0.4v0.2h-0.4v0.1h0.4v0.2h-0.4v0.1h0.4V77h-0.4v0.1h0.4v0.2h-0.4v0.1h0.4v0.1h-0.5v0.3l-0.5,0.4H127v0.5h0.3v1h-0.6v1
		h-0.4v1.7H141v-1.7H140.7z M128.7,77.5h-0.5v-0.1h0.5V77.5z M128.7,77.3h-0.5v-0.2h0.5V77.3z M128.7,77h-0.5v-0.2h0.5V77z
		 M128.7,76.7h-0.5v-0.2h0.5V76.7z M128.7,76.4h-0.5v-0.2h0.5V76.4z M128.7,76.1h-0.5v-0.2h0.5V76.1z M128.7,75.8h-0.5v-0.2h0.5
		V75.8z M128.7,75.5h-0.5v-0.2h0.5V75.5z M128.7,75.2h-0.5V75h0.5V75.2z M128.7,74.9h-0.5v-0.2h0.5V74.9z M128.7,74.6h-0.5v-0.2h0.5
		V74.6z M128.7,74.3h-0.5v-0.2h0.5V74.3z M128.7,73.7h-0.5v-0.2h0.5V73.7z M128.7,73.5h-0.5v-0.2h0.5V73.5z M128.7,73.2h-0.5v-0.2
		h0.5V73.2z M128.7,72.5h-0.5v-0.2h0.5V72.5z M128.7,72.3h-0.5V72h0.5V72.3z M128.7,72h-0.5v-0.2h0.5V72z M128.7,71.7h-0.5v-0.2h0.5
		V71.7z M128.7,71.4h-0.5v-0.2h0.5V71.4z M128.7,71.1h-0.5v-0.2h0.5V71.1z M128.7,70.8h-0.5v-0.2h0.5V70.8z M128.7,70.5h-0.5v-0.2
		h0.5V70.5z M128.7,70.2h-0.5V70h0.5V70.2z M128.7,69.9h-0.5v-0.2h0.5V69.9z M128.7,69.6h-0.5v-0.2h0.5V69.6z M128.7,69.3h-0.5v-0.2
		h0.5V69.3z M128.7,69h-0.5v-0.2h0.5V69z M128.7,68.7h-0.5v-0.2h0.5V68.7z M128.7,68.4h-0.5v-0.2h0.5V68.4z M128.7,68.1h-0.5v-0.2
		h0.5V68.1z M128.7,67.9h-0.5v-0.2h0.5V67.9z M128.7,67.6h-0.5v-0.2h0.5V67.6z M128.7,67.3h-0.5V67h0.5V67.3z M128.7,67h-0.5v-0.2
		h0.5V67z M128.7,66.7h-0.5v-0.2h0.5V66.7z M128.7,66.4h-0.5v-0.2h0.5V66.4z M128.7,66.1h-0.5v-0.2h0.5V66.1z M128.7,65.8h-0.5v-0.2
		h0.5V65.8z M128.7,65.2h-0.5V65h0.5V65.2z M128.7,64.9h-0.5v-0.2h0.5V64.9z M128.7,64.6h-0.5v-0.2h0.5V64.6z M128.7,64.3h-0.5v0
		L128.7,64.3L128.7,64.3z M128.7,63.9h-0.5v-0.1h0.5V63.9z M128.7,63.7h-0.5v-0.2h0.5V63.7z M128.7,63.4h-0.5v-0.2h0.5V63.4z
		 M128.7,63.1h-0.5v-0.2h0.5V63.1z M128.7,62.8h-0.5v-0.2h0.5V62.8z M128.7,62.5h-0.5v-0.2h0.5V62.5z M128.7,62.2h-0.5V62h0.5V62.2z
		 M128.7,62h-0.5v-0.2h0.5V62z M128.7,61.7h-0.5v-0.2h0.5V61.7z M128.7,61.4h-0.5v-0.2h0.5V61.4z M128.7,61.1h-0.5v-0.2h0.5V61.1z
		 M128.7,60.8h-0.5v-0.2h0.5V60.8z M128.7,60.5h-0.5v-0.2h0.5V60.5z M128.7,60.2h-0.5V60h0.5V60.2z M128.7,59.9h-0.5v-0.2h0.5V59.9z
		 M128.7,59.6h-0.5v-0.2h0.5V59.6z M128.7,59.3h-0.5v-0.2h0.5V59.3z M128.7,59h-0.5v-0.2h0.5V59z M128.7,58.7h-0.5v-0.2h0.5V58.7z
		 M128.7,58.4h-0.5v-0.2h0.5V58.4z M128.7,58.1h-0.5v-0.2h0.5V58.1z M128.7,57.8h-0.5v-0.2h0.5V57.8z M128.7,57.5h-0.5v-0.2h0.5
		V57.5z M128.7,57.2h-0.5V57h0.5V57.2z M128.7,56.9h-0.5v0L128.7,56.9L128.7,56.9z M128.7,56.6h-0.5v-0.1h0.5V56.6z M128.7,56.4
		h-0.5v-0.2h0.5V56.4z M128.7,56.1h-0.5v-0.2h0.5V56.1z M128.7,55.8h-0.5v-0.1L128.7,55.8L128.7,55.8z M128.7,55.3h-0.5v-0.1
		L128.7,55.3L128.7,55.3z M128.7,55.2h-0.5V55h0.5V55.2z M128.7,54.9h-0.5v-0.2h0.5V54.9z M128.7,54.6h-0.5v-0.2h0.5V54.6z
		 M128.7,54.3h-0.5v-0.2h0.5V54.3z M128.7,54h-0.5v-0.2h0.5V54z M128.7,53.7h-0.5v-0.2h0.5V53.7z M128.7,53.4h-0.5v-0.2h0.5V53.4z
		 M128.7,53.1h-0.5v-0.2h0.5V53.1z M128.7,52.8h-0.5v-0.2h0.5V52.8z M128.7,52.5h-0.5v-0.2h0.5V52.5z M128.7,52.2h-0.5V52h0.5V52.2z
		 M128.7,51.9h-0.5v-0.2h0.5V51.9z M128.7,51.6h-0.5v-0.2h0.5V51.6z M128.7,51.3h-0.5v-0.2h0.5V51.3z M128.7,51.1h-0.5v-0.2h0.5
		V51.1z M128.7,50.8h-0.5v-0.2h0.5V50.8z M128.7,50.5h-0.5v-0.2h0.5V50.5z M128.7,50.2h-0.5v-0.2h0.5V50.2z M128.7,49.9h-0.5v-0.2
		h0.5V49.9z M128.7,49.6h-0.5v-0.2h0.5V49.6z M128.7,49.3h-0.5v-0.2h0.5V49.3z M128.7,49h-0.5v-0.2h0.5V49z M128.7,48.7h-0.5v-0.2
		h0.5V48.7z M128.7,48.4h-0.5v-0.1L128.7,48.4L128.7,48.4z M128.7,48h-0.5v-0.1L128.7,48L128.7,48z M128.7,47.8h-0.5v-0.2h0.5V47.8z
		 M128.7,47.5h-0.5v-0.2h0.5V47.5z M128.7,47.2h-0.5v-0.1h0.5V47.2z M129.1,77.5h-0.3v-0.1h0.3V77.5z M129.1,77.3h-0.3v-0.2h0.3
		V77.3z M129.1,77h-0.3v-0.2h0.3V77z M129.1,76.7h-0.3v-0.2h0.3V76.7z M129.1,76.4h-0.3v-0.2h0.3V76.4z M129.1,76.1h-0.3v-0.2h0.3
		V76.1z M129.1,75.8h-0.3v-0.2h0.3V75.8z M129.1,75.5h-0.3v-0.2h0.3V75.5z M129.1,75.2h-0.3V75h0.3V75.2z M129.1,74.9h-0.3v-0.2h0.3
		V74.9z M129.1,74.6h-0.3v-0.2h0.3V74.6z M129.1,74.3h-0.3v-0.2h0.3V74.3z M129.1,73.7h-0.3v-0.2h0.3V73.7z M129.1,73.5h-0.3v-0.2
		h0.3V73.5z M129.1,73.2h-0.3v-0.2h0.3V73.2z M129.1,72.5h-0.3v-0.2h0.3V72.5z M129.1,72.3h-0.3V72h0.3V72.3z M129.1,72h-0.3v-0.2
		h0.3V72z M129.1,71.7h-0.3v-0.2h0.3V71.7z M129.1,71.4h-0.3v-0.2h0.3V71.4z M129.1,71.1h-0.3v-0.2h0.3V71.1z M129.1,70.8h-0.3v-0.2
		h0.3V70.8z M129.1,70.5h-0.3v-0.2h0.3V70.5z M129.1,70.2h-0.3V70h0.3V70.2z M129.1,69.9h-0.3v-0.2h0.3V69.9z M129.1,69.6h-0.3v-0.2
		h0.3V69.6z M129.1,69.3h-0.3v-0.2h0.3V69.3z M129.1,69h-0.3v-0.2h0.3V69z M129.1,68.7h-0.3v-0.2h0.3V68.7z M129.1,68.4h-0.3v-0.2
		h0.3V68.4z M129.1,68.1h-0.3v-0.2h0.3V68.1z M129.1,67.9h-0.3v-0.2h0.3V67.9z M129.1,67.6h-0.3v-0.2h0.3V67.6z M129.1,67.3h-0.3V67
		h0.3V67.3z M129.1,67h-0.3v-0.2h0.3V67z M129.1,66.7h-0.3v-0.2h0.3V66.7z M129.1,66.4h-0.3v-0.2h0.3V66.4z M129.1,66.1h-0.3v-0.2
		h0.3V66.1z M129.1,65.8h-0.3v-0.2h0.3V65.8z M129.1,65.2h-0.3V65h0.3V65.2z M129.1,64.9h-0.3v-0.2h0.3V64.9z M129.1,64.6h-0.3v-0.2
		h0.3V64.6z M129.1,64.3h-0.3v0L129.1,64.3L129.1,64.3z M129.1,63.9h-0.3v-0.1h0.3V63.9z M129.1,63.7h-0.3v-0.2h0.3V63.7z
		 M129.1,63.4h-0.3v-0.2h0.3V63.4z M129.1,63.1h-0.3v-0.2h0.3V63.1z M129.1,62.8h-0.3v-0.2h0.3V62.8z M129.1,62.5h-0.3v-0.2h0.3
		V62.5z M129.1,62.2h-0.3V62h0.3V62.2z M129.1,62h-0.3v-0.2h0.3V62z M129.1,61.7h-0.3v-0.2h0.3V61.7z M129.1,61.4h-0.3v-0.2h0.3
		V61.4z M129.1,61.1h-0.3v-0.2h0.3V61.1z M129.1,60.8h-0.3v-0.2h0.3V60.8z M129.1,60.5h-0.3v-0.2h0.3V60.5z M129.1,60.2h-0.3V60h0.3
		V60.2z M129.1,59.9h-0.3v-0.2h0.3V59.9z M129.1,59.6h-0.3v-0.2h0.3V59.6z M129.1,59.3h-0.3v-0.2h0.3V59.3z M129.1,59h-0.3v-0.2h0.3
		V59z M129.1,58.7h-0.3v-0.2h0.3V58.7z M129.1,58.4h-0.3v-0.2h0.3V58.4z M129.1,58.1h-0.3v-0.2h0.3V58.1z M129.1,57.8h-0.3v-0.2h0.3
		V57.8z M129.1,57.5h-0.3v-0.2h0.3V57.5z M129.1,57.2h-0.3V57h0.3V57.2z M129.1,56.9h-0.3v0L129.1,56.9L129.1,56.9z M129.1,56.6
		h-0.3v-0.1h0.3V56.6z M129.1,56.4h-0.3v-0.2h0.3V56.4z M129.1,56.1h-0.3v-0.2h0.3V56.1z M129.1,55.8h-0.3v-0.1L129.1,55.8
		L129.1,55.8z M129.1,55.3h-0.3v-0.1L129.1,55.3L129.1,55.3z M129.1,55.2h-0.3V55h0.3V55.2z M129.1,54.9h-0.3v-0.2h0.3V54.9z
		 M129.1,54.6h-0.3v-0.2h0.3V54.6z M129.1,54.3h-0.3v-0.2h0.3V54.3z M129.1,54h-0.3v-0.2h0.3V54z M129.1,53.7h-0.3v-0.2h0.3V53.7z
		 M129.1,53.4h-0.3v-0.2h0.3V53.4z M129.1,53.1h-0.3v-0.2h0.3V53.1z M129.1,52.8h-0.3v-0.2h0.3V52.8z M129.1,52.5h-0.3v-0.2h0.3
		V52.5z M129.1,52.2h-0.3V52h0.3V52.2z M129.1,51.9h-0.3v-0.2h0.3V51.9z M129.1,51.6h-0.3v-0.2h0.3V51.6z M129.1,51.3h-0.3v-0.2h0.3
		V51.3z M129.1,51.1h-0.3v-0.2h0.3V51.1z M129.1,50.8h-0.3v-0.2h0.3V50.8z M129.1,50.5h-0.3v-0.2h0.3V50.5z M129.1,50.2h-0.3v-0.2
		h0.3V50.2z M129.1,49.9h-0.3v-0.2h0.3V49.9z M129.1,49.6h-0.3v-0.2h0.3V49.6z M129.1,49.3h-0.3v-0.2h0.3V49.3z M129.1,49h-0.3v-0.2
		h0.3V49z M129.1,48.7h-0.3v-0.2h0.3V48.7z M129.1,48.4h-0.3v-0.1L129.1,48.4L129.1,48.4z M129.1,48h-0.3v-0.1L129.1,48L129.1,48z
		 M129.1,47.8h-0.3v-0.2h0.3V47.8z M129.1,47.5h-0.3v-0.2h0.3V47.5z M129.1,47.2h-0.3v-0.1h0.3V47.2z M138.4,77.5h-0.3v-0.1h0.3
		V77.5z M138.4,77.3h-0.3v-0.2h0.3V77.3z M138.4,77h-0.3v-0.2h0.3V77z M138.4,76.7h-0.3v-0.2h0.3V76.7z M138.4,76.4h-0.3v-0.2h0.3
		V76.4z M138.4,76.1h-0.3v-0.2h0.3V76.1z M138.4,75.8h-0.3v-0.2h0.3V75.8z M138.4,75.5h-0.3v-0.2h0.3V75.5z M138.4,75.2h-0.3V75h0.3
		V75.2z M138.4,74.9h-0.3v-0.2h0.3V74.9z M138.4,74.6h-0.3v-0.2h0.3V74.6z M138.4,74.3h-0.3v-0.2h0.3V74.3z M138.4,73.7h-0.3v-0.2
		h0.3V73.7z M138.4,73.5h-0.3v-0.2h0.3V73.5z M138.4,73.2h-0.3v-0.2h0.3V73.2z M138.4,72.5h-0.3v-0.2h0.3V72.5z M138.4,72.3h-0.3V72
		h0.3V72.3z M138.4,72h-0.3v-0.2h0.3V72z M138.4,71.7h-0.3v-0.2h0.3V71.7z M138.4,71.4h-0.3v-0.2h0.3V71.4z M138.4,71.1h-0.3v-0.2
		h0.3V71.1z M138.4,70.8h-0.3v-0.2h0.3V70.8z M138.4,70.5h-0.3v-0.2h0.3V70.5z M138.4,70.2h-0.3V70h0.3V70.2z M138.4,69.9h-0.3v-0.2
		h0.3V69.9z M138.4,69.6h-0.3v-0.2h0.3V69.6z M138.4,69.3h-0.3v-0.2h0.3V69.3z M138.4,69h-0.3v-0.2h0.3V69z M138.4,68.7h-0.3v-0.2
		h0.3V68.7z M138.4,68.4h-0.3v-0.2h0.3V68.4z M138.4,68.1h-0.3v-0.2h0.3V68.1z M138.4,67.9h-0.3v-0.2h0.3V67.9z M138.4,67.6h-0.3
		v-0.2h0.3V67.6z M138.4,67.3h-0.3V67h0.3V67.3z M138.4,67h-0.3v-0.2h0.3V67z M138.4,66.7h-0.3v-0.2h0.3V66.7z M138.4,66.4h-0.3
		v-0.2h0.3V66.4z M138.4,66.1h-0.3v-0.2h0.3V66.1z M138.4,65.8h-0.3v-0.2h0.3V65.8z M138.4,65.2h-0.3V65h0.3V65.2z M138.4,64.9h-0.3
		v-0.2h0.3V64.9z M138.4,64.6h-0.3v-0.2h0.3V64.6z M138.4,64.3h-0.3v0L138.4,64.3L138.4,64.3z M138.4,63.9h-0.3v-0.1h0.3V63.9z
		 M138.4,63.7h-0.3v-0.2h0.3V63.7z M138.4,63.4h-0.3v-0.2h0.3V63.4z M138.4,63.1h-0.3v-0.2h0.3V63.1z M138.4,62.8h-0.3v-0.2h0.3
		V62.8z M138.4,62.5h-0.3v-0.2h0.3V62.5z M138.4,62.2h-0.3V62h0.3V62.2z M138.4,62h-0.3v-0.2h0.3V62z M138.4,61.7h-0.3v-0.2h0.3
		V61.7z M138.4,61.4h-0.3v-0.2h0.3V61.4z M138.4,61.1h-0.3v-0.2h0.3V61.1z M138.4,60.8h-0.3v-0.2h0.3V60.8z M138.4,60.5h-0.3v-0.2
		h0.3V60.5z M138.4,60.2h-0.3V60h0.3V60.2z M138.4,59.9h-0.3v-0.2h0.3V59.9z M138.4,59.6h-0.3v-0.2h0.3V59.6z M138.4,59.3h-0.3v-0.2
		h0.3V59.3z M138.4,59h-0.3v-0.2h0.3V59z M138.4,58.7h-0.3v-0.2h0.3V58.7z M138.4,58.4h-0.3v-0.2h0.3V58.4z M138.4,58.1h-0.3v-0.2
		h0.3V58.1z M138.4,57.8h-0.3v-0.2h0.3V57.8z M138.4,57.5h-0.3v-0.2h0.3V57.5z M138.4,57.2h-0.3V57h0.3V57.2z M138.4,56.9h-0.3v0
		L138.4,56.9L138.4,56.9z M138.4,56.6h-0.3v-0.1h0.3V56.6z M138.4,56.4h-0.3v-0.2h0.3V56.4z M138.4,56.1h-0.3v-0.2h0.3V56.1z
		 M138.4,55.8h-0.3v-0.1L138.4,55.8L138.4,55.8z M138.4,55.3h-0.3v-0.1L138.4,55.3L138.4,55.3z M138.4,55.2h-0.3V55h0.3V55.2z
		 M138.4,54.9h-0.3v-0.2h0.3V54.9z M138.4,54.6h-0.3v-0.2h0.3V54.6z M138.4,54.3h-0.3v-0.2h0.3V54.3z M138.4,54h-0.3v-0.2h0.3V54z
		 M138.4,53.7h-0.3v-0.2h0.3V53.7z M138.4,53.4h-0.3v-0.2h0.3V53.4z M138.4,53.1h-0.3v-0.2h0.3V53.1z M138.4,52.8h-0.3v-0.2h0.3
		V52.8z M138.4,52.5h-0.3v-0.2h0.3V52.5z M138.4,52.2h-0.3V52h0.3V52.2z M138.4,51.9h-0.3v-0.2h0.3V51.9z M138.4,51.6h-0.3v-0.2h0.3
		V51.6z M138.4,51.3h-0.3v-0.2h0.3V51.3z M138.4,51.1h-0.3v-0.2h0.3V51.1z M138.4,50.8h-0.3v-0.2h0.3V50.8z M138.4,50.5h-0.3v-0.2
		h0.3V50.5z M138.4,50.2h-0.3v-0.2h0.3V50.2z M138.4,49.9h-0.3v-0.2h0.3V49.9z M138.4,49.6h-0.3v-0.2h0.3V49.6z M138.4,49.3h-0.3
		v-0.2h0.3V49.3z M138.4,49h-0.3v-0.2h0.3V49z M138.4,48.7h-0.3v-0.2h0.3V48.7z M138.4,48.4h-0.3v-0.1L138.4,48.4L138.4,48.4z
		 M138.4,48h-0.3v-0.1L138.4,48L138.4,48z M138.4,47.8h-0.3v-0.2h0.3V47.8z M138.4,47.5h-0.3v-0.2h0.3V47.5z M138.4,47.2h-0.3v-0.1
		h0.3V47.2z M139,77.5h-0.5v-0.1h0.5V77.5z M139,77.3h-0.5v-0.2h0.5V77.3z M139,77h-0.5v-0.2h0.5V77z M139,76.7h-0.5v-0.2h0.5V76.7z
		 M139,76.4h-0.5v-0.2h0.5V76.4z M139,76.1h-0.5v-0.2h0.5V76.1z M139,75.8h-0.5v-0.2h0.5V75.8z M139,75.5h-0.5v-0.2h0.5V75.5z
		 M139,75.2h-0.5V75h0.5V75.2z M139,74.9h-0.5v-0.2h0.5V74.9z M139,74.6h-0.5v-0.2h0.5V74.6z M139,74.3h-0.5v-0.2h0.5V74.3z
		 M139,73.7h-0.5v-0.2h0.5V73.7z M139,73.5h-0.5v-0.2h0.5V73.5z M139,73.2h-0.5v-0.2h0.5V73.2z M139,72.5h-0.5v-0.2h0.5V72.5z
		 M139,72.3h-0.5V72h0.5V72.3z M139,72h-0.5v-0.2h0.5V72z M139,71.7h-0.5v-0.2h0.5V71.7z M139,71.4h-0.5v-0.2h0.5V71.4z M139,71.1
		h-0.5v-0.2h0.5V71.1z M139,70.8h-0.5v-0.2h0.5V70.8z M139,70.5h-0.5v-0.2h0.5V70.5z M139,70.2h-0.5V70h0.5V70.2z M139,69.9h-0.5
		v-0.2h0.5V69.9z M139,69.6h-0.5v-0.2h0.5V69.6z M139,69.3h-0.5v-0.2h0.5V69.3z M139,69h-0.5v-0.2h0.5V69z M139,68.7h-0.5v-0.2h0.5
		V68.7z M139,68.4h-0.5v-0.2h0.5V68.4z M139,68.1h-0.5v-0.2h0.5V68.1z M139,67.9h-0.5v-0.2h0.5V67.9z M139,67.6h-0.5v-0.2h0.5V67.6z
		 M139,67.3h-0.5V67h0.5V67.3z M139,67h-0.5v-0.2h0.5V67z M139,66.7h-0.5v-0.2h0.5V66.7z M139,66.4h-0.5v-0.2h0.5V66.4z M139,66.1
		h-0.5v-0.2h0.5V66.1z M139,65.8h-0.5v-0.2h0.5V65.8z M139,65.2h-0.5V65h0.5V65.2z M139,64.9h-0.5v-0.2h0.5V64.9z M139,64.6h-0.5
		v-0.2h0.5V64.6z M139,64.3h-0.5v0L139,64.3L139,64.3z M139,63.9h-0.5v-0.1h0.5V63.9z M139,63.7h-0.5v-0.2h0.5V63.7z M139,63.4h-0.5
		v-0.2h0.5V63.4z M139,63.1h-0.5v-0.2h0.5V63.1z M139,62.8h-0.5v-0.2h0.5V62.8z M139,62.5h-0.5v-0.2h0.5V62.5z M139,62.2h-0.5V62
		h0.5V62.2z M139,62h-0.5v-0.2h0.5V62z M139,61.7h-0.5v-0.2h0.5V61.7z M139,61.4h-0.5v-0.2h0.5V61.4z M139,61.1h-0.5v-0.2h0.5V61.1z
		 M139,60.8h-0.5v-0.2h0.5V60.8z M139,60.5h-0.5v-0.2h0.5V60.5z M139,60.2h-0.5V60h0.5V60.2z M139,59.9h-0.5v-0.2h0.5V59.9z
		 M139,59.6h-0.5v-0.2h0.5V59.6z M139,59.3h-0.5v-0.2h0.5V59.3z M139,59h-0.5v-0.2h0.5V59z M139,58.7h-0.5v-0.2h0.5V58.7z M139,58.4
		h-0.5v-0.2h0.5V58.4z M139,58.1h-0.5v-0.2h0.5V58.1z M139,57.8h-0.5v-0.2h0.5V57.8z M139,57.5h-0.5v-0.2h0.5V57.5z M139,57.2h-0.5
		V57h0.5V57.2z M139,56.9h-0.5v0L139,56.9L139,56.9z M139,56.6h-0.5v-0.1h0.5V56.6z M139,56.4h-0.5v-0.2h0.5V56.4z M139,56.1h-0.5
		v-0.2h0.5V56.1z M139,55.8h-0.5v-0.1L139,55.8L139,55.8z M139,55.3h-0.5v-0.1L139,55.3L139,55.3z M139,55.2h-0.5V55h0.5V55.2z
		 M139,54.9h-0.5v-0.2h0.5V54.9z M139,54.6h-0.5v-0.2h0.5V54.6z M139,54.3h-0.5v-0.2h0.5V54.3z M139,54h-0.5v-0.2h0.5V54z M139,53.7
		h-0.5v-0.2h0.5V53.7z M139,53.4h-0.5v-0.2h0.5V53.4z M139,53.1h-0.5v-0.2h0.5V53.1z M139,52.8h-0.5v-0.2h0.5V52.8z M139,52.5h-0.5
		v-0.2h0.5V52.5z M139,52.2h-0.5V52h0.5V52.2z M139,51.9h-0.5v-0.2h0.5V51.9z M139,51.6h-0.5v-0.2h0.5V51.6z M139,51.3h-0.5v-0.2
		h0.5V51.3z M139,51.1h-0.5v-0.2h0.5V51.1z M139,50.8h-0.5v-0.2h0.5V50.8z M139,50.5h-0.5v-0.2h0.5V50.5z M139,50.2h-0.5v-0.2h0.5
		V50.2z M139,49.9h-0.5v-0.2h0.5V49.9z M139,49.6h-0.5v-0.2h0.5V49.6z M139,49.3h-0.5v-0.2h0.5V49.3z M139,49h-0.5v-0.2h0.5V49z
		 M139,48.7h-0.5v-0.2h0.5V48.7z M139,48.4h-0.5v-0.1L139,48.4L139,48.4z M139,48h-0.5v-0.1L139,48L139,48z M139,47.8h-0.5v-0.2h0.5
		V47.8z M139,47.5h-0.5v-0.2h0.5V47.5z M139,47.2h-0.5v-0.1h0.5V47.2z"/>
	<path class="st0" d="M119.2,63.2h-1.8v-2.5l1-2.9h0.2c0.2,0,0.3-0.1,0.3-0.3v-0.2c0-0.2-0.1-0.3-0.3-0.3h0v-0.5h-1.4v-2.7h-1v-3.4
		c0.1,0,0.2-0.1,0.2-0.3v-0.2c0-0.1-0.1-0.2-0.2-0.3v-0.8h-0.6V48l-2.1-3h0v-0.4h-0.1v-0.1h-0.1v-0.3h-0.2v-0.1h0v-0.3h-0.1v-2h0
		v-1.6h0v-1.7h0v1.7h0v1.6h0v2h-0.1v0.3h0v0.1h-0.2v0.3h-0.1v0.1h-0.1v0.4h0l-2.1,3v0.8h-0.6v0.8c-0.1,0-0.2,0.1-0.2,0.3V50
		c0,0.1,0.1,0.2,0.2,0.3v3.4h-1v2.7h-1.4V57h0c-0.2,0-0.3,0.1-0.3,0.3v0.2c0,0.2,0.1,0.3,0.3,0.3h0.2l1,2.9v2.5h-1.8V71h-0.6v11.4
		h14V71h-0.6V63.2z M111.2,47.7h1.5V48h-1.6v0L111.2,47.7z M113.9,46.5h-0.9v-0.3h0.8L113.9,46.5z M114.2,47.1h-1.2v-0.2h1.1
		L114.2,47.1z M114.6,48.3h-1.6V48h1.6V48.3z M114.6,48L114.6,48l-1.6,0v-0.2h1.5L114.6,48z M112.9,48.3h1.6v0.2h-1.6V48.3z
		 M112.9,47.7v-0.2h1.4l0.1,0.2H112.9z M112.9,47.4v-0.3h1.2l0.1,0.3H112.9z M112.9,46.8v-0.2h1l0.1,0.2H112.9z M112.9,46.2v-0.2
		h0.7l0.1,0.2H112.9z M112.9,45.9v-0.3h0.5l0.1,0.3H112.9z M112.9,45.6v-0.2h0.4l0.1,0.2H112.9z M112.9,45.3v-0.2h0.2l0.1,0.2H112.9
		z M112.5,45.1h0.2v0.2h-0.4L112.5,45.1z M112.7,45.3v0.2h-0.5l0.1-0.2H112.7z M112.7,45.6v0.3h-0.6l0.1-0.3H112.7z M112.7,45.9v0.2
		H112l0.1-0.2H112.7z M112.7,46.2v0.3h-0.9l0.1-0.3H112.7z M112.7,46.5v0.2h-1.1l0.1-0.2H112.7z M112.7,46.8v0.2h-1.2l0.1-0.2H112.7
		z M112.7,47.1v0.3h-1.4l0.1-0.3H112.7z M112.7,47.4v0.2h-1.5l0.1-0.2H112.7z M112.7,48v0.2h-1.6V48H112.7z M112.7,48.3v0.2h-1.6
		v-0.2H112.7z M112.9,48.8v-0.2h1.6v0.2H112.9z M111.1,48.6h1.6v0.2h-1.6V48.6z"/>
	<path class="st0" d="M344.4,62.8L344.4,62.8L344.4,62.8l-0.2,0l0.1-0.1v-0.4h0.1v0c0,0,0.1,0,0.1-0.1c0-0.1,0-0.6,0-0.6h0v0h0
		c0-0.1-0.1-0.2-0.1-0.2c0,0,0,0.1-0.1,0.1c0,0-0.1,0-0.1-0.1c0,0,0-0.1,0.1-0.1h-0.1v0h0.1v-0.3h-0.1l0.3-1c0,0,0,0,0-0.1
		c0,0,0.1-0.1,0.1-0.1s0.1,0.1,0.1,0.1c0,0.1,0,0.1,0,0.1l0.4,0.8l1.2-4.9h-0.1l0-0.1h0.1l0-0.3h-0.1l0-0.1h0.1l0-0.2h-0.1l0-0.1h0
		l0-0.1v-0.2c0,0-0.1,0-0.1-0.1c0,0,0-0.1,0.1-0.1V54c0,0-0.1-0.1-0.1-0.1c0,0,0-0.1,0.1-0.1V53h-0.3V53h0.3v-0.4h0.1V53h0.3V53
		h-0.3v0.9c0,0,0.1,0,0.1,0.1c0,0,0,0.1-0.1,0.1v0.7c0,0,0.1,0,0.1,0.1c0,0,0,0.1-0.1,0.1v0.2l0,0.1h0l0,0.1h-0.1l0,0.2h0.1l0,0.1
		h-0.1l0,0.3h0.1l0,0.1h-0.1l1.2,4.9l0.4-0.8c0,0,0,0,0-0.1c0,0,0.1-0.1,0.1-0.1s0.1,0.1,0.1,0.1c0,0.1,0,0.1,0,0.1l0.3,1h-0.1v0.3
		h0.1v0h-0.1c0,0,0.1,0,0.1,0.1c0,0,0,0.1-0.1,0.1c0,0-0.1,0-0.1-0.1c0,0-0.1,0-0.1,0.2h0v0h0c0,0,0,0.5,0,0.6c0,0,0.1,0.1,0.1,0.1
		v0h0.1v0.4l0.1,0.1h-0.1v0h-0.1v2h0.1v1.4l4.3,1v0.3h0.2v0.1h-0.2v0.8l-0.1,0.1v13.9h-8.4V64.8h0.1V62.8z"/>
	<path class="st0" d="M311.2,79.4V63.3h0.7V41.8l1.4-0.3v-8.2h0.2v-0.3l1.2-0.7h0.1v-1.4c-0.3,0-0.4,0-0.4-0.1v-0.1c0,0,0,0,0.1,0
		v-0.3c0,0-0.1,0-0.1,0v-0.1c0,0,0,0,0.1,0v-0.3c0,0-0.1,0-0.1,0v-0.1c0,0,0,0,0.1,0v-0.3c0,0-0.1,0-0.1,0v-0.1c0,0,0.2-0.1,0.4-0.1
		v-0.6h0.9c0.4-0.1,1.2-0.1,2-0.1c0.8,0,1.6,0,2,0.1h0.9v0.6c0.3,0,0.4,0.1,0.4,0.1v0.1c0,0,0,0-0.1,0v0.3c0,0,0.1,0,0.1,0v0.1
		c0,0,0,0-0.1,0v0.3c0,0,0.1,0,0.1,0v0.1c0,0,0,0-0.1,0v0.3c0,0,0.1,0,0.1,0v0.1c0,0-0.2,0.1-0.4,0.1v1.4h0.1l1.2,0.7v0.3h0.2v8.2
		l1.4,0.3v21.5h0.7v16.1h0.4v3h-13.8v-3H311.2z"/>
	<path class="st0" d="M283.7,55.1V52h-0.2v-2h2.6v-1.7h0.2v-0.9h0.5v-0.4c-0.1,0-0.2,0-0.2-0.1c0,0,0.1-0.1,0.2-0.1V45h0.1v1.8
		c0.1,0,0.2,0,0.2,0.1c0,0-0.1,0.1-0.2,0.1v0.4h5.3v0.9h0.2v1.7h2.6v2h-0.2v3.2h1.1v5h-0.1v22.3h-13.1V60.2h-0.1v-5H283.7z"/>
	<path class="st0" d="M225.5,64.6v-4.5H225v-3.4h-0.8V43.4h-1.1v0h-0.6V43h0.1v-0.1h-0.1v-0.1h-0.1v-0.4h0v-0.3h-0.1v0L222,42v-0.9
		h-0.6v0h0.1c0,0,0,0,0,0c0,0,0,0,0,0h-0.1v0h0.1c0,0,0,0,0,0c0,0,0,0,0,0h-0.1v0h0.1c0,0,0,0,0,0c0,0,0,0,0,0h-7v-1.5l0.2-0.2h0
		c0,0,0.1,0,0.1-0.1c0,0,0-0.1-0.1-0.1v0h0c0,0,0,0,0,0c0,0,0,0,0,0h0v-0.1h0c0,0,0,0,0,0c0,0,0,0,0,0h0v-0.1h0c0,0,0,0,0,0
		c0,0,0,0,0,0h0V39h0c0,0,0,0,0,0c0,0,0,0,0,0h0v-0.1h0c0,0,0,0,0,0c0,0,0,0,0,0h0v-0.1h0c0,0,0,0,0,0c0,0,0,0,0,0h-0.3v-2.3
		l0.2-0.2h0c0,0,0.1,0,0.1-0.1c0,0,0-0.1-0.1-0.1v0h0c0,0,0,0,0,0c0,0,0,0,0,0h0v0h0c0,0,0,0,0,0c0,0,0,0,0,0h0v-0.1h0c0,0,0,0,0,0
		c0,0,0,0,0,0h0V36h0c0,0,0,0,0,0c0,0,0,0,0,0h0V36h0c0,0,0,0,0,0c0,0,0,0,0,0h0v-0.1h0c0,0,0,0,0,0c0,0,0,0,0,0h-0.3l0,0
		c0.1,0,0.1,0,0.1-0.1v-0.5c0-0.1-0.1-0.2-0.3-0.2c-0.1,0-0.2,0.1-0.2,0.2v0.5c0,0,0.1,0.1,0.2,0.1l0,0h-0.4c0,0,0,0,0,0
		c0,0,0,0,0,0h0V36h0c0,0,0,0,0,0c0,0,0,0,0,0h0V36h0c0,0,0,0,0,0c0,0,0,0,0,0h0v0.1h0c0,0,0,0,0,0c0,0,0,0,0,0h0v0.1h0c0,0,0,0,0,0
		c0,0,0,0,0,0h0v0h0c0,0,0,0,0,0c0,0,0,0,0,0h0v0c0,0-0.1,0-0.1,0.1c0,0,0,0.1,0.1,0.1h0l0.2,0.2v2.3h-0.3c0,0,0,0,0,0c0,0,0,0,0,0
		h0v0.1h0c0,0,0,0,0,0c0,0,0,0,0,0h0V39h0c0,0,0,0,0,0c0,0,0,0,0,0h0V39h0c0,0,0,0,0,0c0,0,0,0,0,0h0v0.1h0c0,0,0,0,0,0c0,0,0,0,0,0
		h0v0.1h0c0,0,0,0,0,0c0,0,0,0,0,0h0v0c0,0-0.1,0-0.1,0.1c0,0,0,0.1,0.1,0.1h0l0.2,0.2v1.9h-0.3v0.3c0,0-0.1,0-0.1,0.1
		c0,0,0,0.1,0.1,0.1h0.3v1.1h-0.3v0.3c0,0-0.1,0-0.1,0.1c0,0,0,0.1,0.1,0.1h0.3v16.8H214v-3.4l-0.7,0v3.3h-0.6v4.5l-1.5,1.7v16.1
		H227V66.4L225.5,64.6z M214.8,38.9L214.8,38.9L214.8,38.9L214.8,38.9L214.8,38.9z M214.8,38.9L214.8,38.9L214.8,38.9L214.8,38.9
		L214.8,38.9z M214.8,39L214.8,39L214.8,39L214.8,39L214.8,39z M214.8,39.1L214.8,39.1L214.8,39.1L214.8,39.1L214.8,39.1z
		 M214.8,39.1L214.8,39.1L214.8,39.1L214.8,39.1L214.8,39.1z M214.8,39.2L214.8,39.2L214.8,39.2L214.8,39.2L214.8,39.2z M214.7,38.9
		L214.7,38.9L214.7,38.9L214.7,38.9L214.7,38.9z M214.7,38.9L214.7,38.9L214.7,38.9L214.7,38.9L214.7,38.9z M214.7,39L214.7,39
		L214.7,39L214.7,39L214.7,39z M214.7,39.1L214.7,39.1L214.7,39.1L214.7,39.1L214.7,39.1z M214.7,39.1L214.7,39.1L214.7,39.1
		L214.7,39.1L214.7,39.1z M214.7,39.2L214.7,39.2L214.7,39.2L214.7,39.2L214.7,39.2z M214.5,38.9h0.1v0.1L214.5,38.9L214.5,38.9z
		 M214.5,38.9h0.1V39L214.5,38.9L214.5,38.9z M214.5,39h0.1V39L214.5,39L214.5,39z M214.5,39.1h0.1v0.1L214.5,39.1L214.5,39.1z
		 M214.5,39.1h0.1v0.1L214.5,39.1L214.5,39.1z M214.5,39.2h0.1v0L214.5,39.2L214.5,39.2z M214.6,36.3L214.6,36.3L214.6,36.3
		L214.6,36.3L214.6,36.3z M214.6,36.2L214.6,36.2L214.6,36.2L214.6,36.2L214.6,36.2z M214.6,36.2L214.6,36.2L214.6,36.2L214.6,36.2
		L214.6,36.2z M214.6,36.1L214.6,36.1L214.6,36.1L214.6,36.1L214.6,36.1z M214.6,36L214.6,36l-0.1-0.1L214.6,36L214.6,36z
		 M214.8,35.9L214.8,35.9L214.8,35.9L214.8,35.9L214.8,35.9z M214.8,36L214.8,36L214.8,36L214.8,36L214.8,36z M214.8,36L214.8,36
		L214.8,36L214.8,36L214.8,36z M214.8,36.1L214.8,36.1L214.8,36.1L214.8,36.1L214.8,36.1z M214.8,36.2L214.8,36.2L214.8,36.2
		L214.8,36.2L214.8,36.2z M214.8,36.2L214.8,36.2L214.8,36.2L214.8,36.2L214.8,36.2z M214.7,35.9L214.7,35.9L214.7,35.9L214.7,35.9
		L214.7,35.9z M214.7,36L214.7,36L214.7,36L214.7,36L214.7,36z M214.7,36L214.7,36L214.7,36L214.7,36L214.7,36z M214.7,36.1
		L214.7,36.1L214.7,36.1L214.7,36.1L214.7,36.1z M214.7,36.2L214.7,36.2L214.7,36.2L214.7,36.2L214.7,36.2z M214.7,36.2L214.7,36.2
		L214.7,36.2L214.7,36.2L214.7,36.2z M214.5,35.9h0.1V36L214.5,35.9L214.5,35.9L214.5,35.9z M214.5,36L214.5,36
		C214.5,36,214.5,36.1,214.5,36L214.5,36L214.5,36z M214.5,36.1L214.5,36.1C214.5,36.1,214.5,36.1,214.5,36.1L214.5,36.1L214.5,36.1
		z M214.5,36.2L214.5,36.2C214.5,36.2,214.5,36.2,214.5,36.2L214.5,36.2L214.5,36.2z M214.5,36.2L214.5,36.2
		C214.5,36.3,214.5,36.3,214.5,36.2L214.5,36.2L214.5,36.2z M214,36.3L214,36.3L214,36.3L214,36.3L214,36.3z M214,36.2L214,36.2
		L214,36.2L214,36.2L214,36.2z M214,36.2L214,36.2L214,36.2L214,36.2L214,36.2z M214,36.1L214,36.1L214,36.1L214,36.1L214,36.1z
		 M214,36L214,36L214,36L214,36L214,36z M214,36L214,36L214,36L214,36L214,36z M214.1,36.3L214.1,36.3L214.1,36.3L214.1,36.3
		L214.1,36.3z M214.1,36.2L214.1,36.2L214.1,36.2L214.1,36.2L214.1,36.2z M214.1,36.2L214.1,36.2L214.1,36.2L214.1,36.2L214.1,36.2z
		 M214.1,36.1L214.1,36.1L214.1,36.1L214.1,36.1L214.1,36.1z M214.1,36L214.1,36L214.1,36L214.1,36L214.1,36z M214.1,36L214.1,36
		L214.1,36L214.1,36L214.1,36z M214.1,36.3L214.1,36.3L214.1,36.3L214.1,36.3L214.1,36.3z M214.1,36.2L214.1,36.2L214.1,36.2
		L214.1,36.2L214.1,36.2z M214.1,36.2L214.1,36.2L214.1,36.2L214.1,36.2L214.1,36.2z M214.1,36.1L214.1,36.1L214.1,36.1L214.1,36.1
		L214.1,36.1z M214.2,36.3L214.2,36.3C214.2,36.3,214.2,36.3,214.2,36.3L214.2,36.3L214.2,36.3z M214.2,36.2L214.2,36.2
		C214.2,36.2,214.2,36.2,214.2,36.2L214.2,36.2L214.2,36.2z M214.2,36.2L214.2,36.2C214.2,36.1,214.2,36.1,214.2,36.2L214.2,36.2
		L214.2,36.2z M214.2,36.1L214.2,36.1C214.2,36.1,214.2,36,214.2,36.1L214.2,36.1L214.2,36.1z M214.2,36L214.2,36
		C214.2,36,214.2,36,214.2,36l-0.1,0V36L214.2,36L214.2,36z M214.2,36h-0.1v-0.1L214.2,36L214.2,36z M214,39.2L214,39.2L214,39.2
		L214,39.2L214,39.2z M214,39.2L214,39.2L214,39.2L214,39.2L214,39.2z M214,39.1L214,39.1L214,39.1L214,39.1L214,39.1z M214,39
		L214,39L214,39L214,39L214,39z M214,39L214,39L214,39L214,39L214,39z M214,38.9L214,38.9L214,38.9L214,38.9L214,38.9z M214.1,39.2
		L214.1,39.2L214.1,39.2L214.1,39.2L214.1,39.2z M214.1,39.2L214.1,39.2L214.1,39.2L214.1,39.2L214.1,39.2z M214.1,39.1L214.1,39.1
		L214.1,39.1L214.1,39.1L214.1,39.1z M214.1,39L214.1,39L214.1,39L214.1,39L214.1,39z M214.1,39L214.1,39L214.1,39L214.1,39
		L214.1,39z M214.1,38.9L214.1,38.9L214.1,38.9L214.1,38.9L214.1,38.9z M214.2,39.2h-0.1v0L214.2,39.2L214.2,39.2z M214.2,39.2h-0.1
		v-0.1L214.2,39.2L214.2,39.2z M214.2,39.1h-0.1v-0.1L214.2,39.1L214.2,39.1z M214.2,39h-0.1V39L214.2,39L214.2,39z M214.2,39h-0.1
		v-0.1L214.2,39L214.2,39z M214.2,38.9h-0.1v-0.1L214.2,38.9L214.2,38.9z M214.4,36L214.4,36L214.4,36C214.3,36.1,214.3,36,214.4,36
		L214.4,36z M214.3,36C214.3,36,214.3,36,214.3,36L214.3,36L214.3,36z M214.4,36.1L214.4,36.1L214.4,36.1
		C214.3,36.1,214.3,36.1,214.4,36.1L214.4,36.1z M214.4,36.2L214.4,36.2L214.4,36.2C214.3,36.2,214.3,36.2,214.4,36.2L214.4,36.2z
		 M214.4,36.2L214.4,36.2L214.4,36.2C214.3,36.3,214.3,36.3,214.4,36.2L214.4,36.2z M214.3,35.6L214.3,35.6
		C214.3,35.6,214.3,35.6,214.3,35.6L214.3,35.6C214.3,35.6,214.3,35.6,214.3,35.6z M214.3,35.6L214.3,35.6
		C214.3,35.7,214.3,35.7,214.3,35.6L214.3,35.6C214.3,35.6,214.3,35.6,214.3,35.6z M214.3,35.4L214.3,35.4
		C214.3,35.4,214.3,35.4,214.3,35.4C214.3,35.4,214.3,35.4,214.3,35.4z M214.3,35.3L214.3,35.3C214.3,35.3,214.3,35.3,214.3,35.3
		C214.3,35.3,214.3,35.3,214.3,35.3L214.3,35.3C214.4,35.3,214.4,35.3,214.3,35.3C214.3,35.3,214.3,35.3,214.3,35.3z M214.4,36
		L214.4,36L214.4,36L214.4,36L214.4,36z M214.4,36C214.4,35.9,214.4,35.9,214.4,36L214.4,36L214.4,36L214.4,36z M214.4,36L214.4,36
		L214.4,36L214.4,36L214.4,36z M214.4,36.1L214.4,36.1L214.4,36.1L214.4,36.1L214.4,36.1z M214.4,36.2L214.4,36.2L214.4,36.2
		L214.4,36.2L214.4,36.2z M214.4,36.2L214.4,36.2L214.4,36.2L214.4,36.2L214.4,36.2z M214.5,36.1L214.5,36.1L214.5,36.1L214.5,36.1
		L214.5,36.1z M214.5,36.1L214.5,36.1L214.5,36.1L214.5,36.1L214.5,36.1z M214.5,36.2L214.5,36.2L214.5,36.2L214.5,36.2L214.5,36.2z
		 M214.5,36.2L214.5,36.2L214.5,36.2L214.5,36.2L214.5,36.2z M222,42.1c0.1,0,0.2,0.1,0.3,0.1c0,0-0.2,0-0.3,0.1V42.1z M222,42.2
		c0.1,0,0.2,0,0.3-0.1v0.3h0v0.4c-0.1-0.1-0.2-0.3-0.3-0.4V42.2z M222,42.4l0.3,0.4H222V42.4z M221.3,41h0.2v0L221.3,41L221.3,41z
		 M221.3,41.1h0.2v0L221.3,41.1L221.3,41.1z M221.3,41.2h0.2v0L221.3,41.2L221.3,41.2z M221,41h0.2v0L221,41L221,41z M221,41.1h0.2
		v0L221,41.1L221,41.1z M221,41.2h0.2v0L221,41.2L221,41.2z M220.8,41h0.2v0L220.8,41L220.8,41z M220.8,41.1h0.2v0L220.8,41.1
		L220.8,41.1z M220.8,41.2h0.2v0L220.8,41.2L220.8,41.2z M220.5,41h0.2v0L220.5,41L220.5,41z M220.5,41.1h0.2v0L220.5,41.1
		L220.5,41.1z M220.5,41.2h0.2v0L220.5,41.2L220.5,41.2z M220.3,41h0.2v0L220.3,41L220.3,41z M220.3,41.1h0.2v0L220.3,41.1
		L220.3,41.1z M220.3,41.2h0.2v0L220.3,41.2L220.3,41.2z M220.1,41h0.2v0L220.1,41L220.1,41z M220.1,41.1h0.2v0L220.1,41.1
		L220.1,41.1z M220.1,41.2h0.2v0L220.1,41.2L220.1,41.2z M219.8,41h0.2v0L219.8,41L219.8,41z M219.8,41.1h0.2v0L219.8,41.1
		L219.8,41.1z M219.8,41.2h0.2v0L219.8,41.2L219.8,41.2z M219.6,41h0.2v0L219.6,41L219.6,41z M219.6,41.1h0.2v0L219.6,41.1
		L219.6,41.1z M219.6,41.2h0.2v0L219.6,41.2L219.6,41.2z M219.4,41h0.2v0L219.4,41L219.4,41z M219.4,41.1h0.2v0L219.4,41.1
		L219.4,41.1z M219.4,41.2h0.2v0L219.4,41.2L219.4,41.2z M219.1,41h0.2v0L219.1,41L219.1,41z M219.1,41.1h0.2v0L219.1,41.1
		L219.1,41.1z M219.1,41.2h0.2v0L219.1,41.2L219.1,41.2z M218.9,41h0.2v0L218.9,41L218.9,41z M218.9,41.1h0.2v0L218.9,41.1
		L218.9,41.1z M218.9,41.2h0.2v0L218.9,41.2L218.9,41.2z M218.7,41h0.2v0L218.7,41L218.7,41z M218.7,41.1h0.2v0L218.7,41.1
		L218.7,41.1z M218.7,41.2h0.2v0L218.7,41.2L218.7,41.2z M218.4,41h0.2v0L218.4,41L218.4,41z M218.4,41.1h0.2v0L218.4,41.1
		L218.4,41.1z M218.4,41.2h0.2v0L218.4,41.2L218.4,41.2z M218.2,41h0.2v0L218.2,41L218.2,41z M218.2,41.1h0.2v0L218.2,41.1
		L218.2,41.1z M218.2,41.2h0.2v0L218.2,41.2L218.2,41.2z M217.9,41h0.2v0L217.9,41L217.9,41z M217.9,41.1h0.2v0L217.9,41.1
		L217.9,41.1z M217.9,41.2h0.2v0L217.9,41.2L217.9,41.2z M217.7,41h0.2v0L217.7,41L217.7,41z M217.7,41.1h0.2v0L217.7,41.1
		L217.7,41.1z M217.7,41.2h0.2v0L217.7,41.2L217.7,41.2z M217.5,41h0.2v0L217.5,41L217.5,41z M217.5,41.1h0.2v0L217.5,41.1
		L217.5,41.1z M217.5,41.2h0.2v0L217.5,41.2L217.5,41.2z M217.2,41h0.2v0L217.2,41L217.2,41z M217.2,41.1h0.2v0L217.2,41.1
		L217.2,41.1z M217.2,41.2h0.2v0L217.2,41.2L217.2,41.2z M217,41h0.2v0L217,41L217,41z M217,41.1h0.2v0L217,41.1L217,41.1z
		 M217,41.2h0.2v0L217,41.2L217,41.2z M216.8,41h0.2v0L216.8,41L216.8,41z M216.8,41.1h0.2v0L216.8,41.1L216.8,41.1z M216.8,41.2
		h0.2v0L216.8,41.2L216.8,41.2z M216.5,41h0.2v0L216.5,41L216.5,41z M216.5,41.1h0.2v0L216.5,41.1L216.5,41.1z M216.5,41.2h0.2v0
		L216.5,41.2L216.5,41.2z M216.3,41h0.2v0L216.3,41L216.3,41z M216.3,41.1h0.2v0L216.3,41.1L216.3,41.1z M216.3,41.2h0.2v0
		L216.3,41.2L216.3,41.2z M216.1,41h0.2v0L216.1,41L216.1,41z M216.1,41.1h0.2v0L216.1,41.1L216.1,41.1z M216.1,41.2h0.2v0
		L216.1,41.2L216.1,41.2z M215.8,41h0.2v0L215.8,41L215.8,41z M215.8,41.1h0.2v0L215.8,41.1L215.8,41.1z M215.8,41.2h0.2v0
		L215.8,41.2L215.8,41.2z M215.6,41h0.2v0L215.6,41L215.6,41z M215.6,41.1h0.2v0L215.6,41.1L215.6,41.1z M215.6,41.2h0.2v0
		L215.6,41.2L215.6,41.2z M215.3,41h0.2v0L215.3,41L215.3,41z M215.3,41.1h0.2v0L215.3,41.1L215.3,41.1z M215.3,41.2h0.2v0
		L215.3,41.2L215.3,41.2z M215.1,41h0.2v0L215.1,41L215.1,41z M215.1,41.1h0.2v0L215.1,41.1L215.1,41.1z M215.1,41.2h0.2v0
		L215.1,41.2L215.1,41.2z M214.9,41h0.2v0L214.9,41L214.9,41z M214.9,41.1h0.2v0L214.9,41.1L214.9,41.1z M214.9,41.2h0.2v0
		L214.9,41.2L214.9,41.2z M214.6,41h0.2v0L214.6,41L214.6,41z M214.6,41.1h0.2v0L214.6,41.1L214.6,41.1z M214.6,41.2h0.2v0
		L214.6,41.2L214.6,41.2z M214.5,41L214.5,41L214.5,41L214.5,41L214.5,41z M214.5,41.1L214.5,41.1L214.5,41.1L214.5,41.1L214.5,41.1
		z M214.5,41.2L214.5,41.2L214.5,41.2L214.5,41.2L214.5,41.2z M214.5,35.9L214.5,35.9L214.5,35.9L214.5,35.9z M214.5,36
		C214.5,36,214.5,36,214.5,36L214.5,36L214.5,36L214.5,36L214.5,36z M214.5,36L214.5,36L214.5,36L214.5,36
		C214.5,35.9,214.5,35.9,214.5,36z M214.4,35.9L214.4,35.9C214.4,35.9,214.4,35.9,214.4,35.9L214.4,35.9L214.4,35.9z M214.6,35.3
		c0,0-0.1,0-0.1,0c0-0.1,0-0.1-0.1-0.2C214.5,35.1,214.6,35.2,214.6,35.3z M214.4,35.1c0,0,0.1,0.1,0.1,0.2c0,0-0.1,0-0.1,0
		c0,0-0.1,0-0.1,0C214.3,35.1,214.3,35.1,214.4,35.1z M214.2,35.5C214.2,35.5,214.1,35.5,214.2,35.5
		C214.1,35.5,214.2,35.4,214.2,35.5C214.2,35.4,214.2,35.5,214.2,35.5C214.2,35.5,214.2,35.5,214.2,35.5z M214.3,35.8
		c-0.1,0-0.1,0-0.1,0v-0.1C214.2,35.7,214.2,35.7,214.3,35.8L214.3,35.8z M214.3,35.7c-0.1,0-0.1,0-0.1,0
		C214.1,35.6,214.2,35.6,214.3,35.7L214.3,35.7z M214.3,35.6c-0.1,0-0.1,0-0.1,0v-0.1C214.2,35.5,214.2,35.5,214.3,35.6
		C214.2,35.5,214.2,35.5,214.3,35.6L214.3,35.6z M214.3,35.4C214.2,35.4,214.2,35.4,214.3,35.4c-0.1,0-0.1,0-0.1,0.1v-0.1
		C214.2,35.3,214.2,35.3,214.3,35.4L214.3,35.4z M214.3,35.3L214.3,35.3c-0.1,0-0.1,0-0.1,0C214.1,35.3,214.2,35.3,214.3,35.3
		C214.3,35.3,214.3,35.3,214.3,35.3z M214.1,35.3c0-0.1,0.1-0.2,0.2-0.2c0,0-0.1,0.1-0.1,0.2C214.2,35.2,214.2,35.3,214.1,35.3z
		 M214.3,35.8L214.3,35.8C214.3,35.7,214.3,35.7,214.3,35.8L214.3,35.8C214.3,35.8,214.3,35.8,214.3,35.8z M214.3,35.9L214.3,35.9
		L214.3,35.9L214.3,35.9L214.3,35.9C214.3,35.9,214.3,35.9,214.3,35.9z M214.2,35.9L214.2,35.9L214.2,35.9L214.2,35.9L214.2,35.9z
		 M214.2,36C214.2,36,214.2,36,214.2,36l0.1,0L214.2,36L214.2,36L214.2,36z M214.2,36L214.2,36L214.2,36L214.2,36L214.2,36z
		 M214.2,36.1L214.2,36.1L214.2,36.1L214.2,36.1L214.2,36.1z M214.2,36.2L214.2,36.2L214.2,36.2L214.2,36.2L214.2,36.2z M214.2,36.2
		L214.2,36.2L214.2,36.2L214.2,36.2L214.2,36.2z"/>
</g>
<g id="statue_of_liberty">
</g>
</svg>
