<?xml version="1.0" encoding="utf-8"?>
<!-- Generator: Adobe Illustrator 19.0.0, SVG Export Plug-In . SVG Version: 6.00 Build 0)  -->
<svg version="1.1" id="Layer_1" xmlns="http://www.w3.org/2000/svg" xmlns:xlink="http://www.w3.org/1999/xlink" x="0px" y="0px"
	 viewBox="-123 351.5 363.8 91.5" style="enable-background:new -123 351.5 363.8 91.5;" xml:space="preserve">
<style type="text/css">
	.st0{fill:#BDCCAC;}
</style>
<g id="ground">
</g>
<g id="new_york">
	<polygon class="st0" points="61,430 61,428.3 60.8,428.3 60.8,426.8 61,426.8 61,426.6 60.8,426.6 60.8,425.7 61,425.7 61,425.5 
		60.8,425.5 60.8,424.5 61,424.5 61,424.4 60.8,424.4 60.8,423.4 61,423.4 61,423.3 60.8,423.3 60.8,422.3 61,422.3 61,422.2 
		60.8,422.2 60.8,421.2 61,421.2 61,421.1 60.8,421.1 60.8,420.1 61,420.1 61,419.9 60.8,419.9 60.8,419 61,419 61,418.8 
		60.8,418.8 60.8,417.9 61,417.9 61,417.7 60.8,417.7 60.8,416.8 61,416.8 61,416.6 60.8,416.6 60.8,415.6 61,415.6 61,415.5 
		60.8,415.5 60.8,414.5 61,414.5 61,414.4 60.8,414.4 60.8,413.4 61,413.4 61,413.3 60.8,413.3 60.8,412.3 61,412.3 61,412.2 
		60.8,412.2 60.8,411.2 61,411.2 61,411 60.8,411 60.8,410.1 61,410.1 61,409.9 60.8,409.9 60.8,409 61,409 61,408.8 60.8,408.8 
		60.8,407.9 61,407.9 61,407.7 60.8,407.7 60.8,406.8 61,406.8 61,406.6 60.8,406.6 60.8,405.6 61,405.6 61,405.5 60.8,405.5 
		60.8,404.5 61,404.5 61,404.4 60.8,404.4 60.8,403.4 61,403.4 61,403.3 60.8,403.3 60.8,401.6 69,401.6 69,403.3 68.9,403.3 
		68.9,403.4 69,403.4 69,404.4 68.9,404.4 68.9,404.5 69,404.5 69,405.5 68.9,405.5 68.9,405.6 69,405.6 69,406.6 68.9,406.6 
		68.9,406.8 69,406.8 69,407.7 68.9,407.7 68.9,407.9 69,407.9 69,408.8 68.9,408.8 68.9,409 69,409 69,409.9 68.9,409.9 
		68.9,410.1 69,410.1 69,411 68.9,411 68.9,411.2 69,411.2 69,412.2 68.9,412.2 68.9,412.3 69,412.3 69,413.3 68.9,413.3 
		68.9,413.4 69,413.4 69,414.4 68.9,414.4 68.9,414.5 69,414.5 69,415.5 68.9,415.5 68.9,415.6 69,415.6 69,416.6 68.9,416.6 
		68.9,416.8 69,416.8 69,417.7 68.9,417.7 68.9,417.9 69,417.9 69,418.8 68.9,418.8 68.9,419 69,419 69,419.9 68.9,419.9 
		68.9,420.1 69,420.1 69,421.1 68.9,421.1 68.9,421.2 69,421.2 69,422.2 68.9,422.2 68.9,422.3 69,422.3 69,423.3 68.9,423.3 
		68.9,423.4 69,423.4 69,424.4 68.9,424.4 68.9,424.5 69,424.5 69,425.5 68.9,425.5 68.9,425.7 69,425.7 69,426.6 68.9,426.6 
		68.9,426.8 69,426.8 69,428.3 68.9,428.3 68.9,430 73.7,430 73.7,433.9 56.1,433.9 56.1,430 	"/>
	<polygon class="st0" points="23.8,418.3 23.3,398.3 23,398.3 22.6,394.7 22.3,394.7 21.9,392.6 21.6,392.5 21.4,391.6 20.9,390.3 
		20.8,390.2 20.1,389.2 19.4,388.6 19.3,388.8 19.8,389.3 20.3,390.4 20.3,390.4 20.7,392.1 20.7,392.3 20.6,392.3 20.6,391.7 
		20.5,391.7 20.5,391.6 20.4,391.7 20.4,391.5 20.3,391.4 20.1,391.4 20.1,391.3 20,391.3 20,390.1 19.9,390 19.8,390 19.8,390.1 
		19.7,391 19.6,391 19.4,390.9 19.3,390.9 19.3,390.1 19.3,390.1 19.2,388.7 19.1,388.7 19.1,390.1 19.1,390.1 19.1,390.9 
		18.9,390.8 18.9,390.8 18.7,390.8 18.7,390.7 18.6,390.6 18.6,390.1 18.6,390.1 18.5,388.7 18.4,388.7 18.4,390.1 18.4,390.1 
		18.4,390.5 17.9,390.5 17.9,390.1 17.9,390.1 17.9,388.7 17.7,388.7 17.7,390.1 17.7,390.1 17.7,390.5 17.2,390.5 17.2,390.1 
		17.2,390.1 17.2,388.7 17,388.7 17,390.1 17,390.1 17,390.5 16.5,390.5 16.5,390.1 16.5,390.1 16.4,388.7 16.3,388.7 16.3,390.1 
		16.3,390.1 16.3,390.5 15.8,390.5 15.8,390.1 15.8,390.1 15.8,388.7 15.6,388.7 15.6,390.1 15.6,390.1 15.6,390.6 15.5,390.7 
		15.5,390.8 15.3,390.8 15.3,390.8 15.1,390.9 15.1,390.1 15.1,390.1 15.1,388.7 14.9,388.7 14.9,390.1 14.9,390.1 14.9,390.9 
		14.8,390.9 14.6,391 14.4,391 14.4,390.1 14.3,390 14.2,390 14.2,390.1 14.1,391.3 14.1,391.3 14.1,391.4 13.9,391.4 13.8,391.5 
		13.8,391.7 13.7,391.6 13.7,391.7 13.6,391.7 13.6,392.3 13.5,392.3 13.5,392.1 13.9,390.4 13.8,390.4 14.4,389.3 14.8,388.8 
		14.7,388.6 14,389.2 13.4,390.2 13.3,390.3 12.8,391.6 12.5,392.5 12.3,392.6 11.9,394.7 11.6,394.7 11.2,398.3 10.9,398.3 
		10.4,418.3 3.4,418.3 3.4,433.9 30.8,433.9 30.8,418.3 	"/>
	<path class="st0" d="M-18.2,399.7v34.2h7v-34.2h-0.1v-4.6h-0.1v-3.6h-0.1v-3.3H-12v-0.1l0,0v-0.2h-0.6v0.2h-0.2V388h-0.4v0.1h-0.3
		v0.5h-0.7v-0.1l0,0l0,0l0,0l0,0l0,0l0,0c0,0,0,0,0-0.1c0,0,0-0.1-0.1-0.1c0,0-0.1,0-0.1,0.1v0.1l0,0l0,0l0,0h-0.1l0,0l0,0l0,0
		c0,0,0,0,0-0.1c0,0,0-0.1-0.1-0.1c0,0-0.1,0-0.1,0.1v0.1l0,0l0,0l0,0l0,0l0,0l0,0V388h0.3l0,0l0,0l0,0h-0.3v-0.7h0.3l0,0l0,0l0,0
		h-0.1v-0.4v0.4l0,0v-0.4v0.4h-0.6v-0.1l0,0v0.1l0,0v-0.1l0,0l0,0l0,0l0,0l0,0v0.2l0,0v-0.2c0.1,0,0.1-0.1,0.1-0.1
		c0-0.1-0.1-0.1-0.2-0.1s-0.2,0-0.2,0.1c0,0,0,0,0,0.1l0,0l0,0l0,0l0,0h-0.1l0,0l0,0l0,0l0,0c0-0.1,0.1-0.1,0-0.2c0,0-0.1,0-0.2,0
		c0,0-0.1-0.1-0.2,0c-0.1,0-0.2,0.1-0.2,0.1s0.1,0.1,0.2,0.1l0,0l0,0l0,0l0,0v0.2h-0.2l0,0l0,0l0,0h0.3v0.7h-0.3l0,0l0,0l0,0h0.3
		v0.1h-0.7v0.1c0,0-0.1,0-0.1,0.1c0,0,0,0.1,0.1,0.1v0.1h-1.6l0,0h-0.1v0.1v0.1h0.2v2.7l0,0v3.6h-0.1L-18.2,399.7L-18.2,399.7z
		 M-15,387.2L-15,387.2L-15,387.2L-15,387.2L-15,387.2z M-15.1,387.2L-15.1,387.2L-15.1,387.2L-15.1,387.2L-15.1,387.2z
		 M-15.5,387.1v0.2l0,0V387.1L-15.5,387.1z M-15.3,387.1L-15.3,387.1L-15.3,387.1L-15.3,387.1l-0.1,0.2h-0.1v-0.2l0,0l0,0
		C-15.4,387.1-15.4,387.1-15.3,387.1L-15.3,387.1L-15.3,387.1L-15.3,387.1z M-15,388.6L-15,388.6v-0.3l0,0l0,0V388.6z M-15.3,388.1
		L-15.3,388.1l0.3-0.1v0.1l0,0l0,0V388h-0.3V388.1z M-15.3,388v-0.7h0.3v0.7H-15.3z M-15.3,387.2L-15.3,387.2L-15.3,387.2
		L-15.3,387.2L-15.3,387.2z M-15.3,387.1L-15.3,387.1L-15.3,387.1L-15.3,387.1L-15.3,387.1z M-15.1,387.2L-15.1,387.2L-15.1,387.2
		L-15.1,387.2L-15.1,387.2z M-14.6,387.3v0.7h-0.3v-0.7H-14.6z M-14.6,388.1v0.5h-0.1l0,0h-0.2v-0.5H-14.6z M-15.4,388.1
		L-15.4,388.1L-15.4,388.1L-15.4,388.1L-15.4,388.1z M-15.4,387.3L-15.4,387.3l0.1,0.7h-0.1V387.3z M-15.1,387L-15.1,387l-0.1,0.1
		l0,0l0,0h0.1V387z M-15,387L-15,387L-15,387L-15,387L-15,387L-15,387z M-15,387.3L-15,387.3L-15,387.3L-15,387.3L-15,387.3z
		 M-14.5,388L-14.5,388l-0.1-0.7h0.1V388z M-14.5,388.6L-14.5,388.6l-0.1-0.5h0.1V388.6z"/>
	<path class="st0" d="M110.3,414.9H110V434h13.8v-19.1h-0.3v-17.8H122v-2.8h0.2v-4.2c0-0.1-1.2-0.2-3-0.3l-1.6-2.5v-0.2l0,0v-2.2
		h-0.1v2.2l0,0v0.2h-1.1v-0.2l0,0v-2.2h-0.1v2.2l0,0v0.2l-1.6,2.5c-1.8,0-3,0.1-3,0.3v4.2h0.2v2.8h-1.5L110.3,414.9L110.3,414.9z
		 M116.2,387.5c-0.2,0.4-0.8,1.7-1,2.3c-0.1,0-0.3,0-0.4,0C115.1,389.1,116,387.8,116.2,387.5z M116,389.8c0.1-0.3,0.2-0.8,0.2-1.2
		v0.8L116,389.8C116.1,389.8,116,389.8,116,389.8z M116.4,387.3l0.5,0.9l-0.5,0.8l-0.1-0.9v-0.8H116.4z M116.4,389.2L116.4,389.2
		v-0.3C116.4,388.9,116.4,389,116.4,389.2z M116.4,389.2c0,0.2,0,0.4,0,0.5c0,0,0,0-0.1,0L116.4,389.2L116.4,389.2z M116.3,389.8
		h-0.1l0.1-0.3V389.8z M116.3,387.4v1c-0.1,0.4-0.2,1.1-0.3,1.4c-0.3,0-0.5,0-0.8,0C115.4,389.2,116.1,387.9,116.3,387.4z
		 M117.5,387.2L117.5,387.2l-0.5,1l-0.5-1l0,0H117.5z M117.6,388.6c0.1,0.4,0.2,0.9,0.2,1.2l0,0l-0.2-0.4V388.6z M117.7,389.8
		c-0.1,0-0.1,0-0.2,0v-0.3L117.7,389.8z M117.5,389.8C117.4,389.8,117.4,389.8,117.5,389.8c-0.1-0.1,0-0.3,0-0.5l0,0V389.8z
		 M117.4,389.2c0-0.1,0-0.2,0-0.3V389.2L117.4,389.2z M117.4,389.1l-0.5-0.8l0.5-0.9v0.8V389.1z M117.6,387.4
		c0.2,0.5,0.8,1.9,1.1,2.4c-0.3,0-0.5,0-0.8,0c-0.1-0.4-0.2-1-0.3-1.4V387.4z M119.1,389.8c-0.1,0-0.3,0-0.4,0
		c-0.3-0.6-0.9-1.9-1-2.3C117.9,387.8,118.7,389.1,119.1,389.8z M116.9,389.8c-0.2,0-0.3,0-0.4,0v-0.6l0.5-0.9l0.5,0.8v0.6
		C117.2,389.8,117.1,389.8,116.9,389.8z"/>
	<path class="st0" d="M45.5,430h-0.2v3.9h10.1V430h-0.2v-33.5h-0.5v-0.1h-1.9v-0.1h-0.1V396l0,0v-0.2h0.2v-0.3l0,0v-0.2l0,0H52v-0.1
		h0.3l0,0h0.2v-0.1h-0.1v-0.9h0.1V394l0,0v-0.2l0,0H52v-0.9h0.3l0,0h0.2v-0.4l0,0v-0.2l0,0h-0.2l0,0h0.1v-0.1c0.1,0,0.1,0.1,0.1,0.1
		c0.1,0,0.1-0.2,0-0.4c-0.1-0.2-0.2-0.4-0.3-0.3c0,0-0.1,0.2,0,0.4c0,0,0,0,0,0.1v0.1l0,0v0.1h-0.9v-0.6H51l0,0h-0.4v-0.4l0,0V391
		l0,0v0.3l0,0v0.4h-0.3l0,0h-0.7v-0.2h-0.3v0.1h-0.1v0.6H48l0,0l0,0v0.3l0,0v0.2h0.2l0,0h0.3v0.9H48l0,0l0,0v0.2l0,0v0.2h0.1v0.9H48
		v0.1h0.2l0,0h0.3v0.1h-0.9l0,0l0,0v0.4l0,0v0.2h0.2v0.2l0,0v0.3h-0.1v0.1h-1.9v0.2h-0.4L45.5,430L45.5,430z M51.9,393.7L51.9,393.7
		l-0.3,0.1v-0.1C51.6,393.7,51.8,393.7,51.9,393.7z M49.1,393.9v-0.1h0.1L49.1,393.9L49.1,393.9z M51.4,393.8L51.4,393.8l0.1,0.1
		h-0.1V393.8z M48.6,393.9v-0.1h0.1L48.6,393.9L48.6,393.9z M48.8,393.8h0.3v0.1h-0.3V393.8z M48.8,393.7L48.8,393.7
		c0.1-0.1,0.2-0.1,0.3-0.1v0.1H48.8z M49.1,393.7C49.1,393.7,49.2,393.7,49.1,393.7L49.1,393.7L49.1,393.7L49.1,393.7z M51.4,393.7
		C51.4,393.7,51.5,393.7,51.4,393.7L51.4,393.7L51.4,393.7L51.4,393.7z M51.9,393.8v0.1h-0.3v-0.1H51.9z M51.9,393.8L51.9,393.8
		l0.1,0.1h-0.1V393.8z M48.4,393.9v-0.1h0.1v0.1H48.4z M48.6,393.8L48.6,393.8v0.1l0,0V393.8z M48.6,393.7L48.6,393.7L48.6,393.7
		L48.6,393.7L48.6,393.7z M48.6,393.7C48.7,393.7,48.7,393.7,48.6,393.7L48.6,393.7L48.6,393.7L48.6,393.7z M48.6,393.6v-0.9h0.6
		v0.9H48.6z M48.4,392.5L48.4,392.5l0.3-0.1v0.1H48.4z M48.4,392.3L48.4,392.3c0.1-0.1,0.2-0.1,0.3-0.1v0.1H48.4z M48.8,392.3
		c0.1,0,0.2,0,0.3,0v0.1L48.8,392.3L48.8,392.3z M49.1,392.4L49.1,392.4l-0.3,0.1v-0.1H49.1z M49.1,392.4L49.1,392.4L49.1,392.4
		L49.1,392.4L49.1,392.4z M51.4,392.4L51.4,392.4L51.4,392.4L51.4,392.4L51.4,392.4z M51.5,392.4h0.3v0.1L51.5,392.4L51.5,392.4z
		 M51.5,392.3L51.5,392.3c0.1-0.1,0.2-0.1,0.3-0.1v0.1H51.5z M51.9,392.3c0.1,0,0.2,0,0.3,0v0.1L51.9,392.3L51.9,392.3z M52.2,392.4
		L52.2,392.4l-0.3,0.1v-0.1H52.2z M52.2,392.4L52.2,392.4L52.2,392.4L52.2,392.4L52.2,392.4z M52,392.8v0.9h-0.6v-0.9H52z M52,393.7
		L52,393.7L52,393.7L52,393.7C51.9,393.7,51.9,393.7,52,393.7z M52,393.7L52,393.7L52,393.7L52,393.7L52,393.7z M52,393.8v0.1l0,0
		V393.8L52,393.8z M52.1,393.8h0.1v0.1h-0.1V393.8z M48.1,393.9v-0.1h0.3v0.1H48.1z M48.1,393.7c0,0,0.1,0,0.3,0v0.1L48.1,393.7
		L48.1,393.7z M48.5,393.7L48.5,393.7l-0.1,0.1v-0.1C48.5,393.7,48.5,393.7,48.5,393.7z M48.6,392.8L48.6,392.8v0.9l0,0V392.8z
		 M48.1,392.5C48.1,392.5,48.1,392.4,48.1,392.5l0.3-0.1v0.1H48.1z M48.1,392.3c0,0,0.1,0,0.3,0v0.1L48.1,392.3L48.1,392.3z
		 M49.2,392.3L49.2,392.3L49.2,392.3L49.2,392.3C49.1,392.3,49.2,392.3,49.2,392.3z M51.4,392.3C51.4,392.3,51.5,392.3,51.4,392.3
		L51.4,392.3L51.4,392.3L51.4,392.3z M52.3,392.3L52.3,392.3L52.3,392.3L52.3,392.3L52.3,392.3z M52.4,392.3c0.1,0,0.1,0,0.2,0
		c0,0,0,0,0,0.1L52.4,392.3L52.4,392.3L52.4,392.3z M52.6,392.5h-0.1v-0.1L52.6,392.5C52.6,392.4,52.6,392.5,52.6,392.5z M52,393.6
		L52,393.6v-0.9l0,0V393.6z M52.1,393.7h0.1v0.1L52.1,393.7L52.1,393.7z M52.2,393.7c0.2,0,0.3,0,0.3,0s0,0,0,0.1L52.2,393.7
		L52.2,393.7z M52.6,393.9h-0.3v-0.1h0.3C52.6,393.8,52.6,393.8,52.6,393.9z M47.9,396L47.9,396v-0.1h0.6v0.4h-0.6V396z M52.6,395.4
		h-0.3v-0.1C52.4,395.3,52.5,395.3,52.6,395.4L52.6,395.4z M52.6,395.3c0.2,0,0.3,0,0.3,0s0,0,0,0.1L52.6,395.3L52.6,395.3z
		 M52.6,395.4v0.1h-0.3v-0.1H52.6z M48.3,395.4v0.1H48v-0.1H48.3z M48,395.4L48,395.4c0.1-0.1,0.2-0.1,0.3-0.1v0.1H48z M48.4,395.4
		h0.2v0.1h-0.2V395.4z M52.1,395.4h0.2v0.1h-0.2V395.4z M47.7,395.5v-0.1H48v0.1H47.7z M47.7,395.3c0,0,0.1,0,0.3,0v0.1L47.7,395.3
		C47.7,395.4,47.7,395.3,47.7,395.3z M48.5,395.3L48.5,395.3l-0.2,0.1v-0.1C48.4,395.3,48.5,395.3,48.5,395.3z M52.1,395.3
		c0.1,0,0.1,0,0.2,0v0.1L52.1,395.3L52.1,395.3z M53,395.5h-0.3v-0.1H53C53,395.5,53,395.5,53,395.5z M52.7,396.3h-0.6v-0.4h0.6v0.1
		l0,0V396.3z"/>
	<path class="st0" d="M-75.4,419.7v14.2h7.8v-14.2h-0.2v-0.8h-0.1V418l0,0v-0.1h-1.7l0.3-0.6h0.2l0.5-0.4c0,0,0.1,0,0.2,0
		s0.2-0.1,0.2-0.1v-0.1l0.2-0.2c0,0,0.1-0.1,0.1-0.2c0-0.1-0.1-0.2-0.2-0.2l0,0l0,0l0,0c-0.4-0.1-1.4-0.4-3.5-0.4
		c-2,0-3.1,0.3-3.5,0.4l0,0l0,0c-0.1,0-0.2,0.1-0.2,0.2c0,0.1,0.1,0.2,0.1,0.2l0.2,0.2c0,0,0,0,0,0.1l0.2,0.1c0.1,0,0.2,0,0.2,0
		l0.5,0.4h0.2l0.3,0.6H-75v0.1l0,0v0.9h-0.1v0.8H-75.4z M-71.8,415.7c-0.1,0-0.1,0-0.2,0l0,0C-71.9,415.7-71.8,415.7-71.8,415.7
		L-71.8,415.7z M-71.7,415.7c0.1,0,0.1,0,0.2,0l0,0C-71.6,415.7-71.7,415.7-71.7,415.7L-71.7,415.7z M-71.9,415.7
		c-0.1,0-0.1,0-0.2,0l0,0C-72.1,415.7-72,415.7-71.9,415.7L-71.9,415.7z M-73.6,415.8c0.1,0,0.1,0,0.2,0l0,0
		C-73.5,415.8-73.6,415.8-73.6,415.8L-73.6,415.8z M-73.6,415.8c-0.1,0-0.1,0-0.2,0l0,0C-73.8,415.8-73.7,415.8-73.6,415.8
		L-73.6,415.8z M-73.4,415.8c0.1,0,0.1,0,0.2,0l0,0C-73.3,415.8-73.4,415.8-73.4,415.8L-73.4,415.8z M-73.2,415.8c0.1,0,0.1,0,0.2,0
		l0,0C-73.1,415.8-73.2,415.8-73.2,415.8L-73.2,415.8z M-73.1,415.7c0.1,0,0.1,0,0.2,0l0,0C-72.9,415.8-73,415.8-73.1,415.7
		L-73.1,415.7z M-72.9,415.7c0.1,0,0.1,0,0.2,0l0,0C-72.8,415.7-72.8,415.7-72.9,415.7L-72.9,415.7z M-72.7,415.7c0.1,0,0.1,0,0.2,0
		l0,0C-72.6,415.7-72.6,415.7-72.7,415.7L-72.7,415.7z M-72.5,415.7c0.1,0,0.1,0,0.2,0l0,0C-72.4,415.7-72.4,415.7-72.5,415.7
		L-72.5,415.7z M-72.3,415.7c0.1,0,0.1,0,0.2,0l0,0C-72.2,415.7-72.3,415.7-72.3,415.7L-72.3,415.7z M-72.1,417.5v0.2l-0.6-0.3
		L-72.1,417.5z M-73,417.4L-73,417.4h-0.2H-73z M-73,417.5l-0.1,0.2l-0.1-0.1c0-0.1,0-0.2,0-0.2S-73.1,417.5-73,417.5z M-73.2,417.7
		l-0.1,0.1C-73.2,417.8-73.2,417.8-73.2,417.7L-73.2,417.7z M-73,417.6c0.2,0.1,0.4,0.3,0.5,0.4h-0.3l-0.3-0.2
		C-73.1,417.7-73,417.6-73,417.6z M-72.9,417.9h-0.3c0,0,0.1-0.1,0.1-0.2C-73,417.8-73,417.9-72.9,417.9z M-73.5,417.4
		c0.1,0,0.2,0.1,0.3,0.2v0.2C-73.4,417.8-73.5,417.5-73.5,417.4z M-73.5,417.3h0.3v0.2L-73.5,417.3z M-74,415.9L-74,415.9
		c0.1,0,0.1-0.1,0.2-0.1l0,0C-73.9,415.9-73.9,415.9-74,415.9z M-74,415.9c-0.1,0-0.1,0-0.2,0l0,0C-74.1,415.9-74.1,415.9-74,415.9
		L-74,415.9z M-74.4,416L-74.4,416c0.1,0,0.1-0.1,0.2-0.1l0,0C-74.3,415.9-74.3,416-74.4,416z M-74.6,416L-74.6,416
		c0.1-0.1,0.1-0.1,0.2-0.1l0,0C-74.5,416-74.5,416-74.6,416z M-74.6,416c-0.1,0-0.1,0-0.2,0l0,0C-74.7,416-74.6,416-74.6,416
		L-74.6,416z M-74.9,416.1c0,0,0.1,0,0.2-0.1l0,0C-74.9,416.1-74.9,416.1-74.9,416.1L-74.9,416.1L-74.9,416.1z M-70.8,417.5l0.6-0.1
		l-0.6,0.3V417.5z M-69.7,417.9H-70c0,0,0.1-0.1,0.2-0.2C-69.8,417.8-69.8,417.9-69.7,417.9z M-69.8,417.7
		C-69.8,417.7-69.7,417.7-69.8,417.7c0.1,0,0.1,0.1,0.1,0.1L-69.8,417.7z M-70.1,417.9h-0.3c0.1-0.1,0.3-0.2,0.5-0.4
		c0,0,0.1,0.1,0.1,0.2L-70.1,417.9z M-69.9,417.5c0.1-0.1,0.1-0.1,0.2-0.1c0,0,0,0.1,0,0.2l-0.1,0.1L-69.9,417.5z M-69.3,415.8
		L-69.3,415.8c0.1,0,0.1,0,0.2,0l0,0C-69.2,415.9-69.2,415.8-69.3,415.8z M-69.3,415.8c-0.1,0-0.1,0-0.2,0l0,0
		C-69.4,415.8-69.4,415.8-69.3,415.8L-69.3,415.8z M-69.5,415.8c-0.1,0-0.1,0-0.2,0l0,0C-69.6,415.8-69.6,415.8-69.5,415.8
		L-69.5,415.8z M-70.8,415.7L-70.8,415.7c0.1,0,0.1,0,0.2,0l0,0C-70.7,415.7-70.7,415.7-70.8,415.7z M-70.6,415.7c0.1,0,0.1,0,0.2,0
		l0,0C-70.5,415.7-70.6,415.7-70.6,415.7L-70.6,415.7z M-70.4,415.7c0.1,0,0.1,0,0.2,0l0,0C-70.3,415.7-70.4,415.7-70.4,415.7
		L-70.4,415.7z M-70.2,415.7c0.1,0,0.1,0,0.2,0l0,0C-70.1,415.7-70.2,415.7-70.2,415.7L-70.2,415.7z M-70.1,415.7c0.1,0,0.1,0,0.2,0
		l0,0C-69.9,415.8-70,415.8-70.1,415.7L-70.1,415.7z M-69.9,415.7c0.1,0,0.1,0,0.2,0l0,0C-69.7,415.8-69.8,415.8-69.9,415.7
		L-69.9,415.7z M-69.9,417.5L-69.9,417.5l0.1-0.1L-69.9,417.5z M-71,415.7L-71,415.7c0.1,0,0.1,0,0.2,0l0,0
		C-70.9,415.7-70.9,415.7-71,415.7z M-71,415.7c-0.1,0-0.1,0-0.2,0l0,0C-71.1,415.7-71.1,415.7-71,415.7L-71,415.7z M-71.2,415.7
		c-0.1,0-0.1,0-0.2,0l0,0C-71.3,415.7-71.3,415.7-71.2,415.7L-71.2,415.7z M-68.7,415.9L-68.7,415.9c-0.1,0-0.1,0-0.2,0l0,0
		C-68.9,415.9-68.8,415.9-68.7,415.9z M-68.2,416L-68.2,416c0,0-0.1,0-0.2,0l0,0C-68.3,416-68.2,416-68.2,416z M-68.2,416.1
		L-68.2,416.1c0.1,0,0.1,0,0.2,0l0,0l0,0C-68,416.1-68.1,416.1-68.2,416.1z M-68.5,416L-68.5,416c0.1,0,0.1,0,0.2,0l0,0
		C-68.4,416-68.5,416-68.5,416z M-68.7,415.9L-68.7,415.9c0.1,0,0.1,0,0.2,0l0,0C-68.6,416-68.7,415.9-68.7,415.9z M-69.1,415.9
		L-69.1,415.9c0.1,0,0.1,0,0.2,0l0,0C-69,415.9-69.1,415.9-69.1,415.9z M-69.4,417.3l-0.3,0.2v-0.2H-69.4z M-69.4,417.4
		c-0.1,0.1-0.2,0.4-0.3,0.5v-0.2C-69.6,417.6-69.5,417.5-69.4,417.4z M-70.8,417.9v-0.2c0.2-0.1,0.7-0.3,0.8-0.3c0,0,0,0.1,0.1,0.1
		l-0.6,0.4H-70.8z M-71.5,415.7L-71.5,415.7L-71.5,415.7L-71.5,415.7C-71.4,415.7-71.4,415.7-71.5,415.7L-71.5,415.7
		C-71.4,415.7-71.4,415.7-71.5,415.7z M-72.1,417.9h-0.3l-0.6-0.4c0-0.1,0.1-0.1,0.1-0.1s0.5,0.2,0.8,0.3
		C-72.1,417.7-72.1,417.9-72.1,417.9z"/>
	<path class="st0" d="M-55.3,433.9v-4.1l1-1.7h2v-1c-0.3,0-0.5-0.1-0.6-0.2v-0.2c0.5,0.3,2.4,0.3,3.3,0.4v-0.9h0.4v-2
		c-0.8,0-2.6-0.1-3.1-0.4v-0.2c0.5,0.3,1.9,0.4,2.7,0.4v-0.8h0.4v-1.9c-0.8,0-2.3-0.1-2.8-0.4v-0.2c0.5,0.3,1.5,0.4,2.4,0.4v-0.8
		h0.4v-1.8c-0.8,0-2.1-0.1-2.6-0.4v-0.2c0.5,0.3,1.4,0.4,2.2,0.4v-0.8h0.4v-1.7c-0.8,0-1.8-0.1-2.3-0.4v-0.3l3,0.4v-0.2h0.5v-0.1
		h0.3V415c-0.3,0-0.4,0-0.4-0.1c0,0,0.1-0.1,0.4-0.1v-0.1c-0.3,0-0.4,0-0.4-0.1c0,0,0.1-0.1,0.4-0.1v-0.1c-0.3,0-0.4,0-0.4-0.1
		c0,0,0.1-0.1,0.4-0.1v-0.1c-0.3,0-0.4,0-0.4-0.1c0,0,0.1-0.1,0.4-0.1v-0.1c-0.3,0-0.4,0-0.4-0.1c0,0,0.1-0.1,0.4-0.1v-0.1
		c-0.3,0-0.4-0.1-0.4-0.1s0.1-0.1,0.4-0.1v-0.1c-0.3,0-0.4,0-0.4-0.1c0,0,0.1-0.1,0.4-0.1v-0.1c-0.3,0-0.4,0-0.4-0.1
		c0,0,0.1-0.1,0.4-0.1v-0.1c-0.3,0-0.4,0-0.4-0.1c0,0,0.1-0.1,0.4-0.1v0.1c-0.3,0-0.4,0-0.4-0.1c0,0,0.1-0.1,0.4-0.1V410
		c-0.1,0-0.1-0.1-0.1-0.2c0-0.1,0.1-0.2,0.2-0.2s0.2,0.1,0.2,0.2c0,0.1,0,0.1-0.1,0.2v2.3c0.3,0,0.4,0,0.4,0.1c0,0-0.1,0.1-0.4,0.1
		v0.1c0.3,0,0.4,0,0.4,0.1c0,0-0.1,0.1-0.4,0.1v0.1c0.3,0,0.4,0,0.4,0.1c0,0-0.1,0.1-0.4,0.1v0.1c0.3,0,0.4,0,0.4,0.1
		c0,0-0.1,0.1-0.4,0.1v0.1c0.3,0,0.4,0,0.4,0.1c0,0-0.1,0.1-0.4,0.1v0.1c0.3,0,0.4,0,0.4,0.1c0,0-0.1,0.1-0.4,0.1v0.1
		c0.3,0,0.4,0,0.4,0.1c0,0-0.1,0.1-0.4,0.1v0.1c0.3,0,0.4,0,0.4,0.1c0,0-0.1,0.1-0.4,0.1v0.1c0.3,0,0.4,0,0.4,0.1
		c0,0-0.1,0.1-0.4,0.1v0.1c0.3,0,0.4,0,0.4,0.1c0,0-0.1,0.1-0.4,0.1v0.2h0.3v0.1h0.6v0.2c0,0,2.1,0.1,3-0.4v0.3
		c-0.5,0.3-1.5,0.4-2.3,0.4v1.7h0.4v0.8c0.8,0,1.7-0.1,2.2-0.4v0.2c-0.5,0.3-1.8,0.4-2.6,0.4v1.8h0.4v0.8c0.9,0,2-0.1,2.4-0.4v0.2
		c-0.5,0.3-2,0.4-2.8,0.4v1.9h0.4v0.8c0.8,0,2.2-0.1,2.7-0.4v0.2c-0.5,0.3-2.3,0.4-3.1,0.4v2h0.4v0.9c0.8,0,2.8-0.1,3.3-0.4v0.2
		c-0.1,0.1-0.3,0.1-0.6,0.2v1h2l1.1,1.7v4.1h-15.6V433.9z"/>
	<path class="st0" d="M-83.7,427.6v-1.8h-0.4l-2-3.1l-1.5,2.4H-92v0.1h0.1v0.7H-92v1.8h-0.7v6.3h9.7v-6.3h-0.7V427.6z M-87.8,425.1
		h0.2l-0.2,0.3V425.1z M-88.3,425.1h0.3v0.4l-0.1,0.2h-0.2V425.1z M-88.7,425.1h0.3v0.7h-0.3V425.1z M-89.1,425.1h0.3v0.7h-0.3
		V425.1z M-89.6,425.1h0.3v0.7h-0.3V425.1z M-90,425.1h0.3v0.7H-90V425.1z M-90.5,425.1h0.3v0.7h-0.3V425.1z M-90.9,425.1h0.3v0.7
		h-0.3V425.1z M-91.3,425.1h0.3v0.7h-0.3V425.1z M-91.8,425.1h0.3v0.7h-0.3V425.1z"/>
	<path class="st0" d="M193,419.3V419h-0.1v-0.2l-0.1-0.1v-0.1h-0.1v-0.1l4.2-1.9l4.2,1.9v0.1H201v0.1l-0.1,0.1v0.2h0.1v0.3h5.3v-7.8
		h0.1v-0.3l0,0v-0.1l0,0v-0.5h0.1v-1.4l0,0v-0.1l0,0V409l0,0v-0.1l0,0v-0.1v-0.1l0,0l0,0l0,0v-0.1h0.1v-0.1h0.1c0,0-0.1-0.1,0-0.2
		c0-0.1,0.1-0.1,0.1-0.1v-0.1h0.1c0,0-0.1,0-0.1-0.1s0.1-0.1,0.1-0.1v-5l0,0v-0.2l0,0l0,0l0,0v-0.1l0,0l0,0l0,0v-0.1l0,0v-0.1
		c0,0-0.1-0.1-0.1-0.2c0-0.1,0-0.2,0-0.2h-0.1v-0.1l-0.1-0.1l0,0l0,0h0.2l0.1-0.2h0.1l0,0l0,0v-0.3l0,0v-0.1l0,0l0,0h0.1v-0.1l0,0
		V401l0,0v-0.2l0,0v-0.1l0,0v-0.2l0,0v-0.1l0,0v-0.2l0,0V400l0,0l0,0l0,0l0,0h0.1l0,0l0,0l0,0l0,0v-0.5l0,0v-0.1l0,0l0,0v-0.1
		l-0.1-0.1l0,0v-0.1l0,0l0,0l0,0h0.3v-0.2h0.1v-0.1l0,0l0,0h0.2c0,0-0.1-0.1,0-0.2s0.2-0.1,0.2-0.1s0,0,0.1-0.1
		c0.1-0.1,0.1-0.2,0.1-0.2s-0.1,0-0.1-0.1s0.1-0.1,0.1-0.1s-0.1,0-0.1-0.1l0,0l0,0c0,0,0,0,0-0.1v-0.1l0,0l0.2-0.2c0,0,0-0.6,0.3-1
		c0.3-0.4,0.6-0.5,0.9-0.5c0.2,0,0.5,0.1,0.9,0.5c0.3,0.4,0.3,0.9,0.3,1l0.2,0.2l0,0c0,0,0,0,0,0.1v0.1l0,0l0,0
		c0,0.1-0.1,0.1-0.1,0.1s0.1,0,0.1,0.1s-0.1,0.1-0.1,0.1s0,0.1,0.1,0.2c0,0.1,0.1,0.1,0.1,0.1s0.1,0,0.2,0.1s0,0.2,0,0.2h0.2l0,0
		l0,0v0.1h0.1v0.2h0.3l0,0l0,0l0,0v0.1l0,0l-0.1,0.1v0.1l0,0l0,0v0.1l0,0v0.1l0,0l0,0l0,0l0,0h0.1l0,0l0,0l0,0l0,0v0.2l0,0v0.2l0,0
		v0.1l0,0v0.2l0,0v0.1l0,0v0.2l0,0v0.1l0,0v0.1h0.1l0,0l0,0v0.1l0,0v0.3l0,0l0,0h0.1l0.1,0.2h0.2l0,0l0,0l-0.1,0.1v0.1H212
		c0,0,0,0.1,0,0.2s-0.1,0.2-0.1,0.2v0.5l0,0v0.1l0,0l0,0l0,0v0.1l0,0l0,0l0,0v0.2l0,0v5c0,0,0.1,0,0.1,0.1s-0.1,0.1-0.1,0.1h0.1v0.1
		c0,0,0.1,0,0.1,0.1s0,0.2,0,0.2h0.1v0.2h0.1v0.1l0,0l0,0l0,0v0.1v0.1l0,0v0.1l0,0v0.1l0,0v0.1l0,0v1.4h0.1v0.5l0,0v0.1l0,0v0.2h0.1
		v7.8h5.3V419h-0.1v-0.2l-0.1-0.1v-0.1h-0.1v-0.1l4.3-1.9l4.3,1.9v0.1H226v0.1l-0.1,0.1v0.2h-0.1v0.3h0.8l-0.1,0.2v0.1h-0.2v0.1
		h-0.1v5.2h0.1v0.8h0.1v0.1h-0.1v3.1h0.1v5h-32.6v-5h0.1v-3.1h-0.1v-0.1h0.1v-0.8h0.1v-5.2h-0.1v-0.1h-0.2v-0.1l-0.1-0.2H193z"/>
	<polygon class="st0" points="-13.4,433.9 -13.4,430 -13.8,430 -13.8,429.6 -14.2,429.6 -14.2,429.4 -13.4,428.9 -13.4,426.4 
		-13.8,426.4 -13.8,426 -14.2,426 -14.2,425.8 -13.4,425.3 -13.4,422.7 -13.8,422.7 -13.8,422.4 -14.2,422.4 -14.2,422.1 
		-13.4,421.7 -13.4,419.1 -13.8,419.1 -13.8,418.7 -14.2,418.7 -14.2,418.5 -13.4,418 -13.4,415.5 -13.8,415.5 -13.8,415.1 
		-14.2,415.1 -14.2,414.8 -13.4,414.4 -13.4,411.8 -13.8,411.8 -13.8,411.4 -14.2,411.4 -14.2,411.2 -13.4,410.7 -13.4,408.2 
		-11.6,408.2 -11.6,407.8 -10.6,407.8 -10.6,406.7 -10.1,406.7 -10.1,405.8 -10.6,405.8 -10.6,403.6 -10.1,403.6 -10.1,402.7 
		-7.1,402.7 -7.1,402.2 -6.7,402.2 -6.7,402.7 -3.7,402.7 -3.7,403.6 -3.2,403.6 -3.2,405.8 -3.7,405.8 -3.7,406.7 -3.2,406.7 
		-3.2,407.8 -2.2,407.8 -2.2,408.2 -0.4,408.2 -0.4,410.7 0.4,411.2 0.4,411.4 0,411.4 0,411.8 -0.4,411.8 -0.4,414.4 0.4,414.8 
		0.4,415.1 0,415.1 0,415.5 -0.4,415.5 -0.4,418 0.4,418.5 0.4,418.7 0,418.7 0,419.1 -0.4,419.1 -0.4,421.7 0.4,422.1 0.4,422.4 
		0,422.4 0,422.7 -0.4,422.7 -0.4,425.3 0.4,425.8 0.4,426 0,426 0,426.4 -0.4,426.4 -0.4,428.9 0.4,429.4 0.4,429.6 0,429.6 0,430 
		-0.4,430 -0.4,433.9 	"/>
	<polygon class="st0" points="111.3,406.6 111.3,402.3 110.7,402.3 110.7,395.2 110.1,395.2 110.1,384.9 109.6,384.9 109.5,383.6 
		109.4,383.6 109.4,382.4 108.9,382.4 108.9,380.5 108.1,379.9 108.1,378.8 107.6,378.8 107.6,377.6 107,377 107,376.3 106.7,376.3 
		106.4,371.8 106.2,376.3 105.9,376.3 105.9,377 105.3,377.6 105.3,378.8 104.7,378.8 104.7,379.9 103.9,380.5 103.9,382.4 
		103.4,382.4 103.4,383.6 103.4,383.6 103.3,384.9 102.8,384.9 102.8,395.2 102.2,395.2 102.2,402.3 101.5,402.3 101.5,406.6 
		99.4,406.6 99.4,433.9 113.4,433.9 113.4,406.6 	"/>
	<path class="st0" d="M153.5,432.1v-1.4h-0.3v-0.8h-0.3c-0.1-0.3-0.2-0.7-0.3-1.2v-0.1h-0.1c-0.1-0.5-0.2-1-0.3-1.5V427l0,0
		c-0.1-0.5-0.2-1-0.3-1.5l0,0v-0.1h-0.1c-0.1-0.5-0.1-1-0.2-1.4h0.1v-0.1h-0.1v-0.1h-0.1l0,0l0,0l0,0c0-0.4-0.1-0.8-0.1-1.1h0.1
		v-0.1h-0.1c0-0.3,0-0.5,0-0.7c0-0.2,0-0.4,0-0.5h0.1v-0.1h-0.1c0-0.4,0-0.8,0-1.2h0.1V420h-0.1c0-0.4,0-0.8,0.1-1.2h0.1v-0.1h-0.1
		c0-0.4,0.1-0.8,0.1-1.2h0.1v-0.1l-0.2-0.1c0-0.4,0.1-0.7,0.2-1h0.4v-0.8v-0.1h-0.3c-0.1-0.3-0.1-0.7-0.2-1.1v-0.1h-0.1
		c-0.1-0.5-0.2-1-0.3-1.5v-0.1l0,0c-0.1-0.5-0.2-1-0.3-1.5l0,0V411h-0.1c-0.1-0.5-0.1-1-0.2-1.5h0.1v-0.1h-0.1v-0.1h-0.1l0,0l0,0
		l0,0c0-0.4-0.1-0.8-0.1-1.1h0.1v-0.1h-0.1c0-0.3,0-0.5,0-0.7c0-0.2,0-0.4,0-0.5h0.1v-0.1h-0.1c0-0.4,0-0.8,0-1.2h0.1v-0.1h-0.1
		c0-0.4,0-0.8,0.1-1.2h0.1v-0.1h-0.1c0-0.4,0.1-0.8,0.1-1.2h0.1v-0.1l-0.2-0.1c0-0.4,0.1-0.7,0.2-1h0.4v-0.5v-0.1h-0.3
		c-0.1-0.3-0.1-0.7-0.2-1.1V400h-0.1c-0.1-0.5-0.2-1-0.3-1.5v-0.1l0,0c-0.1-0.5-0.2-1-0.3-1.5l0,0v-0.1h-0.1c-0.1-0.5-0.2-1-0.2-1.4
		h0.1v-0.1h-0.1v-0.1h-0.1l0,0l0,0l0,0c0-0.4-0.1-0.8-0.1-1.1h0.1V394h-0.1c0-0.3,0-0.5,0-0.7c0-0.2,0-0.4,0-0.5h0.1v-0.1h-0.1
		c0-0.4,0-0.8,0-1.2h0.1v-0.1h-0.1c0-0.4,0-0.8,0.1-1.2h0.1v-0.1h-0.1c0-0.4,0.1-0.8,0.1-1.2h0.1v-0.1h-0.2c0.1-0.4,0.1-0.7,0.2-1
		h0.4v-0.5h-2.9v-0.6h1.7v-1.4h0.3V385h-0.3v-0.5h-0.7v-1h-3.1v-0.4h-0.6v0.4h-3.1v0.3h-0.7v0.5h-0.3v0.3h0.3v1.4h1.7v0.6h-2.9v0.5
		h0.4c0.1,0.3,0.1,0.7,0.2,1h-0.2v0.1h0.1c0.1,0.4,0.1,0.8,0.1,1.2H140v0.1h0.1c0,0.4,0.1,0.8,0.1,1.2h-0.1v0.1h0.1
		c0,0.4,0,0.8,0,1.2h-0.1v0.1h0.1c0,0.2,0,0.3,0,0.5c0,0.2,0,0.5,0,0.7h-0.1v0.1h0.1c0,0.3-0.1,0.7-0.1,1.1l0,0l0,0l0,0H140v0.1
		h-0.1v0.1h0.1c-0.1,0.5-0.1,1-0.2,1.4h-0.1v0.1l0,0c-0.1,0.5-0.2,1-0.3,1.5l0,0v0.1c-0.1,0.6-0.2,1.1-0.3,1.5H139v0.1
		c-0.1,0.5-0.2,0.8-0.2,1.1h-0.3v0.1v0.5h0.4c0.1,0.3,0.1,0.7,0.2,1l-0.2,0.1v0.1h0.1c0.1,0.4,0.1,0.8,0.1,1.2H139v0.1h0.1
		c0,0.4,0.1,0.8,0.1,1.2h-0.1v0.1h0.1c0,0.4,0,0.8,0,1.2h-0.1v0.1h0.1c0,0.2,0,0.3,0,0.5c0,0.2,0,0.5,0,0.7h-0.1v0.1h0.1
		c0,0.3-0.1,0.7-0.1,1.1l0,0l0,0l0,0H139v0.1h-0.1v0.1h0.1c-0.1,0.5-0.1,1-0.2,1.5h-0.1v0.1l0,0c-0.1,0.5-0.2,1-0.3,1.5l0,0v0.1
		c-0.1,0.6-0.2,1.1-0.3,1.5H138v0.1c-0.1,0.5-0.2,0.8-0.2,1.1h-0.3v0.8v0.5h0.4c0.1,0.3,0.1,0.7,0.2,1l-0.2,0.1v0.1h0.1
		c0.1,0.4,0.1,0.8,0.1,1.2H138v0.1h0.1c0,0.4,0.1,0.8,0.1,1.2h-0.1v0.1h0.1c0,0.4,0,0.8,0,1.2h-0.1v0.1h0.1c0,0.2,0,0.3,0,0.5
		c0,0.2,0,0.5,0,0.7h-0.1v0.1h0.1c0,0.3-0.1,0.7-0.1,1.1l0,0l0,0l0,0H138v0.1h-0.1v0.1h0.1c-0.1,0.5-0.1,1-0.2,1.4h-0.1v0.1l0,0
		c-0.1,0.5-0.2,1-0.3,1.5l0,0v0.1c-0.1,0.6-0.2,1.1-0.3,1.5H137v0.1c-0.1,0.5-0.2,0.9-0.3,1.2h-0.3v0.8h-0.3v1.4h-0.2v1.9h15.8v-1.9
		h1.8V432.1z M152.6,429.5l-0.1-0.3c0-0.1-0.1-0.3-0.1-0.4l0,0C152.6,429.1,152.6,429.3,152.6,429.5z M152.5,428.7
		C152.5,428.8,152.5,428.8,152.5,428.7L152.5,428.7C152.5,428.8,152.5,428.8,152.5,428.7L152.5,428.7z M149.9,390.1
		c0.1,0.1,0.1,0.3,0.1,0.4s0,0.1,0,0.2l-0.2-0.1C149.8,390.5,149.9,390.3,149.9,390.1z M149.7,389.5l0.2,0.1c0,0.1,0,0.2,0,0.3
		C149.8,389.7,149.7,389.6,149.7,389.5z M150.6,397.9c-0.1-0.1-0.1-0.2-0.2-0.3c-0.1-0.3-0.1-0.5-0.1-0.8c0.1-0.1,0.1-0.1,0.2-0.2
		C150.5,397.1,150.6,397.5,150.6,397.9z M150.4,396.5L150.4,396.5L150.4,396.5L150.4,396.5z M151,399.9L151,399.9L151,399.9
		C151,399.8,151,399.8,151,399.9C151,399.8,151,399.8,151,399.9z M151,399.9L151,399.9c0,0.1,0,0.1,0.1,0.2L151,399.9L151,399.9z
		 M150.9,399.6l-0.1-0.2C150.9,399.5,150.9,399.6,150.9,399.6C151,399.6,151,399.6,150.9,399.6L150.9,399.6z M151.3,412.3
		c-0.1-0.1-0.1-0.2-0.2-0.3c-0.1-0.3-0.1-0.5-0.2-0.8c0.1-0.1,0.1-0.1,0.2-0.2C151.2,411.5,151.3,411.9,151.3,412.3z M151.1,411
		L151.1,411L151.1,411L151.1,411z M151.7,414.3L151.7,414.3L151.7,414.3L151.7,414.3L151.7,414.3z M151.7,414.4L151.7,414.4
		c0,0.1,0,0.1,0,0.2V414.4L151.7,414.4z M151.6,414l-0.1-0.2C151.6,413.9,151.6,414,151.6,414C151.7,414.1,151.7,414.1,151.6,414
		L151.6,414z M152,426.8c-0.1-0.1-0.1-0.2-0.2-0.3c0-0.3-0.1-0.5-0.1-0.8c0.1-0.1,0.1-0.1,0.2-0.2C151.9,426,152,426.4,152,426.8z
		 M151.8,425.4L151.8,425.4L151.8,425.4L151.8,425.4z M151.6,426.9L151.6,426.9L151.6,426.9L151.6,426.9L151.6,426.9z M151.4,426.7
		l-0.1-0.3L151.4,426.7L151.4,426.7z M151.6,426.7l-0.3-0.7l0,0c0.1,0.2,0.3,0.3,0.4,0.5c0,0.1,0,0.2,0.1,0.3L151.6,426.7z
		 M151.5,423.5L151.5,423.5h-0.2l0,0H151.5z M151.3,423.4C151.3,423.3,151.3,423.3,151.3,423.4L151.3,423.4L151.3,423.4z
		 M151.6,423.9L151.6,423.9l-0.2,0.1c0-0.1,0-0.1,0-0.2L151.6,423.9z M151.4,424.7l-0.3-0.4c0.1,0,0.2-0.1,0.2-0.1
		C151.3,424.3,151.4,424.5,151.4,424.7z M151.4,424.8c0,0.1,0,0.2,0.1,0.3l-0.3-0.1l-0.1-0.6C151.2,424.6,151.3,424.7,151.4,424.8z
		 M151.5,425.3L151.5,425.3h-0.3v-0.1L151.5,425.3z M151.5,425.4c0,0.1,0,0.2,0,0.3c-0.1,0.1-0.2,0.2-0.2,0.2l0,0l-0.1-0.6
		L151.5,425.4z M151.7,426.4c-0.1-0.1-0.2-0.3-0.3-0.4c0.1-0.1,0.1-0.1,0.2-0.2C151.6,426,151.7,426.2,151.7,426.4z M151.6,425.4
		l0.2,0.1l-0.1,0.1C151.6,425.6,151.6,425.5,151.6,425.4z M151.8,427L151.8,427h-0.1v-0.1L151.8,427z M151.8,427.1
		c0,0.1,0,0.1,0,0.2c0,0,0,0-0.1,0.1l-0.1-0.3L151.8,427.1z M152,427.9c-0.1-0.1-0.2-0.2-0.3-0.4l0.1-0.1L152,427.9z M151.8,427.4
		C151.9,427.4,151.9,427.4,151.8,427.4c0.1,0.1,0.1,0.3,0.2,0.4L151.8,427.4z M151.9,427.1L151.9,427.1
		C152,427.2,152,427.2,151.9,427.1C151.9,427.2,151.9,427.1,151.9,427.1z M152,427.3c0.1,0,0.1-0.1,0.1-0.1l0,0
		c0.1,0.4,0.2,0.8,0.2,1.2c-0.1-0.1-0.1-0.1-0.2-0.2C152.1,427.9,152,427.6,152,427.3z M152,427.1h-0.1c0,0,0,0,0-0.1L152,427.1
		C152.1,427.1,152.1,427.1,152,427.1C152.1,427.1,152.1,427.1,152,427.1z M151.9,426.8c0-0.1,0-0.1,0-0.2c0.1,0.1,0.2,0.2,0.2,0.2
		H151.9z M151.8,425.5l-0.2-0.1v-0.1L151.8,425.5C151.8,425.4,151.8,425.4,151.8,425.5L151.8,425.5z M151.6,425.2c0-0.1,0-0.2,0-0.2
		c0.1,0.1,0.2,0.2,0.3,0.3L151.6,425.2z M151.5,424.8c0-0.2-0.1-0.4-0.1-0.7c0.1,0,0.1-0.1,0.2-0.1c0,0.4,0.1,0.7,0.2,1.1
		L151.5,424.8z M151.6,423.6L151.6,423.6L151.6,423.6L151.6,423.6L151.6,423.6z M151.6,423.5c0-0.3-0.1-0.6-0.1-0.9h0.1
		C151.6,422.9,151.6,423.2,151.6,423.5L151.6,423.5z M151,421.5c-0.1-0.2-0.2-0.4-0.3-0.5l0.4,0.1
		C151.1,421.2,151.1,421.3,151,421.5C151,421.4,151,421.4,151,421.5z M151.1,421.5L151.1,421.5c0,0.1,0,0.1,0,0.1
		C151,421.6,151,421.5,151.1,421.5C151,421.5,151,421.5,151.1,421.5z M151.5,421L151.5,421c-0.1,0-0.1-0.1-0.1-0.1
		C151.5,420.9,151.5,421,151.5,421L151.5,421z M151.5,421.2L151.5,421.2L151.5,421.2L151.5,421.2z M151.5,420.9c0,0,0-0.1-0.1-0.1
		c0-0.3,0-0.6,0-0.9l0,0l0,0C151.5,420.2,151.5,420.5,151.5,420.9z M151.5,419.8L151.5,419.8L151.5,419.8L151.5,419.8z M151.5,419.8
		L151.5,419.8L151.5,419.8L151.5,419.8z M151.5,419.6v-0.1V419.6L151.5,419.6L151.5,419.6z M151.5,419.4c0-0.3,0-0.5,0-0.8l0,0l0,0
		c0,0.3,0,0.6,0,0.9V419.4z M150.7,414.4v-0.1l0.5,0.5c-0.1,0.1-0.2,0.1-0.2,0.2C150.8,414.8,150.8,414.6,150.7,414.4z M150.8,419.7
		c0.1,0.1,0.2,0.3,0.3,0.5c-0.1,0.1-0.3,0.2-0.4,0.3C150.7,420.2,150.8,419.9,150.8,419.7z M151.4,417.3c0,0.1,0,0.2,0.1,0.3l0,0
		c-0.1,0.1-0.2,0.2-0.3,0.4l0,0L151.4,417.3z M151.3,417.4c0-0.1,0-0.1,0.1-0.2l0,0L151.3,417.4z M151.4,417.1
		C151.4,417.1,151.4,417,151.4,417.1L151.4,417.1L151.4,417.1L151.4,417.1z M151.2,415.4l-0.2-0.1c0-0.1-0.1-0.2-0.1-0.3l0.3-0.2
		L151.2,415.4L151.2,415.4z M150.9,418.8c0-0.1,0.1-0.3,0.1-0.4c0,0.1,0.1,0.3,0.2,0.5c-0.1,0.1-0.2,0.3-0.3,0.4
		C150.9,419.1,150.9,418.9,150.9,418.8z M151.1,418.4l0.2,0.1c0,0.1,0,0.2,0,0.3C151.2,418.6,151.1,418.5,151.1,418.4z M151.1,418.4
		C151.1,418.3,151.1,418.3,151.1,418.4C151.1,418.3,151.1,418.3,151.1,418.4h0.2v0.1L151.1,418.4z M151.1,418.2
		C151.1,418.1,151.1,418.1,151.1,418.2c0.1-0.2,0.2-0.3,0.3-0.5c0,0.2-0.1,0.3-0.1,0.5H151.1z M151.4,418.4h0.1v0.1L151.4,418.4
		L151.4,418.4z M151.3,418.5h0.1l0,0c0,0-0.1,0.1-0.2,0.2C151.3,418.7,151.3,418.6,151.3,418.5z M151.5,418.5L151.5,418.5
		L151.5,418.5L151.5,418.5C151.6,418.4,151.6,418.5,151.5,418.5C151.6,418.5,151.5,418.5,151.5,418.5z M151.5,418.3h-0.1
		c0-0.2,0.1-0.3,0.1-0.5c0,0.1,0,0.2,0.1,0.2C151.5,418.1,151.5,418.2,151.5,418.3z M151.4,417.4c0-0.1,0-0.2-0.1-0.2v-0.1h0.1
		C151.5,417.2,151.5,417.3,151.4,417.4z M151.6,416.3l-0.1,0.2l-0.1,0.1C151.5,416.5,151.5,416.4,151.6,416.3L151.6,416.3z
		 M151.6,416.3c0-0.1,0-0.2,0.1-0.2l0,0c0,0,0,0.1,0,0.2H151.6L151.6,416.3z M151.5,416.7l-0.1,0.3l0,0v-0.1
		C151.5,416.8,151.5,416.7,151.5,416.7z M151.5,416.9l0.1-0.4l0.1-0.1C151.6,416.6,151.6,416.8,151.5,416.9L151.5,416.9z
		 M151.6,416.4L151.6,416.4L151.6,416.4L151.6,416.4z M151.7,416.3L151.7,416.3L151.7,416.3L151.7,416.3z M151.3,415.4l-0.1-0.6
		l0.5,0.6H151.3z M151.2,414.7l-0.1-0.5l0.4,0.1v0.1C151.4,414.5,151.3,414.6,151.2,414.7z M151.1,414.1L151.1,414.1l0.4,0.1
		c0,0,0,0,0,0.1L151.1,414.1z M151.1,414.6c-0.2-0.2-0.4-0.4-0.5-0.6v-0.1l0.4,0.1L151.1,414.6z M150.6,420.9L150.6,420.9l0.4,0.1
		c0,0,0,0,0,0.1L150.6,420.9z M150.7,420.7c0-0.1,0-0.1,0-0.2c0.1-0.1,0.3-0.2,0.4-0.3l0,0c0,0.2,0,0.4,0,0.6L150.7,420.7z
		 M151.1,420.1c-0.1-0.2-0.2-0.3-0.2-0.5l0.3,0.1C151.1,419.9,151.1,420,151.1,420.1L151.1,420.1z M150.8,419.6L150.8,419.6
		L150.8,419.6h0.3v0.1L150.8,419.6z M150.8,419.4v-0.1c0.1-0.1,0.2-0.2,0.4-0.4c0,0.2,0,0.4-0.1,0.6L150.8,419.4z M151.1,421.1
		C151.1,421.1,151.1,421,151.1,421.1h0.3c0,0,0,0,0,0.1L151.1,421.1z M151.4,421.2c-0.1,0-0.1,0.1-0.2,0.2c0-0.1,0-0.2,0-0.2H151.4z
		 M151.1,420.9c0-0.2,0-0.3,0-0.5c0.1,0.2,0.2,0.3,0.2,0.4c0,0,0,0.1,0,0.2L151.1,420.9z M151.2,420.3c0-0.1,0-0.1,0-0.2
		c0.1-0.1,0.2-0.1,0.2-0.2c0,0.3,0,0.5,0,0.8C151.3,420.6,151.2,420.4,151.2,420.3z M151.2,420c0-0.1,0-0.2,0-0.3l0.2,0.1
		C151.3,419.9,151.3,420,151.2,420z M151.1,421.4c0.1-0.1,0.2-0.1,0.3-0.2c0,0.1,0,0.3,0,0.4c0,0.2,0,0.3,0,0.5
		c-0.1-0.1-0.2-0.3-0.3-0.4c0-0.1,0-0.1,0-0.2C151.1,421.5,151.1,421.5,151.1,421.4z M151.4,419.8l-0.2-0.1c0,0,0,0,0-0.1
		L151.4,419.8L151.4,419.8z M151.2,419.6c0-0.2,0-0.4,0.1-0.5c0.1,0.1,0.1,0.3,0.1,0.4s0,0.1,0,0.2L151.2,419.6z M151.3,418.9
		L151.3,418.9c0.1-0.1,0.1-0.2,0.2-0.3c0,0.2,0,0.4,0,0.6C151.4,419.2,151.3,419,151.3,418.9z M151.5,421.1L151.5,421.1
		C151.4,421.1,151.4,421.1,151.5,421.1L151.5,421.1z M151.5,421.2c0,0.2,0,0.3,0,0.5c0,0.2,0,0.4,0,0.6c0,0,0-0.1-0.1-0.1
		c0-0.2,0-0.4,0-0.5C151.4,421.5,151.4,421.4,151.5,421.2L151.5,421.2z M151.5,422.4L151.5,422.4
		C151.5,422.3,151.5,422.3,151.5,422.4C151.5,422.3,151.5,422.3,151.5,422.4z M151.5,422.5L151.5,422.5L151.5,422.5L151.5,422.5z
		 M151.5,422.5L151.5,422.5L151.5,422.5L151.5,422.5L151.5,422.5z M151.6,418.3L151.6,418.3c0-0.1,0-0.2,0-0.2
		C151.6,418.2,151.6,418.2,151.6,418.3L151.6,418.3z M151.5,417.8c0-0.1,0-0.1-0.1-0.2c0,0,0,0,0-0.1l0.1-0.1
		C151.6,417.6,151.6,417.7,151.5,417.8z M151.5,417.5c0-0.1,0-0.2,0.1-0.4l0,0c0,0.1,0,0.2,0,0.3
		C151.6,417.4,151.5,417.4,151.5,417.5z M151.6,417c0-0.1,0.1-0.3,0.1-0.4l0,0C151.7,416.7,151.7,416.9,151.6,417L151.6,417z
		 M151.7,416L151.7,416L151.7,416L151.7,416z M151.7,416.2v-0.1l0,0C151.8,416.1,151.7,416.2,151.7,416.2L151.7,416.2z M151.2,414.8
		l0.3-0.3c0.1,0.4,0.2,0.7,0.2,0.9C151.6,415.2,151.4,415,151.2,414.8z M151.5,413.7c-0.1-0.3-0.1-0.6-0.2-0.9l0.1-0.1l0,0
		c0.1,0.4,0.2,0.8,0.2,1.2C151.6,413.9,151.5,413.8,151.5,413.7z M150.9,412.4L150.9,412.4L150.9,412.4L150.9,412.4L150.9,412.4z
		 M150.7,412.2l-0.1-0.3L150.7,412.2L150.7,412.2z M150.9,412.3l-0.3-0.7l0,0c0.2,0.2,0.3,0.3,0.4,0.5c0,0.1,0,0.2,0.1,0.3
		L150.9,412.3z M150.8,409.1L150.8,409.1h-0.2l0,0H150.8z M150.6,408.9L150.6,408.9L150.6,408.9L150.6,408.9z M150.9,409.5l-0.2,0.1
		c0-0.1,0-0.1,0-0.2L150.9,409.5z M150.7,410.2l-0.3-0.4c0.1,0,0.2-0.1,0.2-0.1C150.6,409.9,150.7,410.1,150.7,410.2z M150.7,410.4
		c0,0.1,0,0.2,0.1,0.3l-0.3-0.1l-0.1-0.6C150.5,410.1,150.6,410.3,150.7,410.4z M150.8,410.8C150.8,410.9,150.8,410.9,150.8,410.8
		h-0.3v-0.1L150.8,410.8z M150.8,411c0,0.1,0,0.2,0.1,0.3c-0.1,0.1-0.2,0.2-0.3,0.2c0,0,0,0,0-0.1l-0.1-0.6L150.8,411z M151,411.9
		c-0.1-0.1-0.2-0.2-0.3-0.4c0.1-0.1,0.1-0.1,0.2-0.2C150.9,411.5,151,411.7,151,411.9z M150.9,411l0.2,0.1l-0.1,0.1
		C150.9,411.1,150.9,411.1,150.9,411z M151.1,412.5C151.1,412.5,151.1,412.6,151.1,412.5H151v-0.1L151.1,412.5z M151.1,412.6
		c0,0.1,0,0.1,0,0.2c0,0,0,0-0.1,0.1l-0.1-0.3H151.1z M151.3,413.5c-0.1-0.1-0.2-0.2-0.3-0.3l0.1-0.1L151.3,413.5z M151.1,413
		C151.2,412.9,151.2,412.9,151.1,413c0.1,0.1,0.1,0.3,0.2,0.4L151.1,413z M151.2,412.7L151.2,412.7
		C151.3,412.7,151.3,412.7,151.2,412.7L151.2,412.7z M151.3,412.7h-0.1c0,0,0,0,0-0.1L151.3,412.7
		C151.4,412.6,151.4,412.6,151.3,412.7C151.4,412.6,151.4,412.6,151.3,412.7z M151.2,412.4c0-0.1,0-0.1,0-0.2
		c0.1,0.1,0.2,0.2,0.2,0.2H151.2z M151.1,411l-0.2-0.1v-0.1L151.1,411L151.1,411L151.1,411z M150.9,410.7c0-0.1,0-0.2,0-0.2
		c0.1,0.1,0.2,0.2,0.3,0.3L150.9,410.7z M150.8,410.3c0-0.2-0.1-0.4-0.1-0.7c0.1,0,0.1-0.1,0.2-0.1c0,0.4,0.1,0.7,0.2,1.1
		L150.8,410.3z M150.9,409.1L150.9,409.1L150.9,409.1L150.9,409.1L150.9,409.1z M150.9,409c0-0.3-0.1-0.6-0.1-0.9h0.1
		C150.9,408.4,150.9,408.7,150.9,409L150.9,409z M150.3,407c-0.1-0.2-0.2-0.4-0.3-0.5l0.4,0.1C150.4,406.8,150.4,406.9,150.3,407
		L150.3,407z M150.4,407C150.4,407,150.4,407.1,150.4,407c0,0.1,0,0.1,0,0.1C150.3,407.1,150.3,407.1,150.4,407
		C150.3,407,150.3,407,150.4,407z M150.8,406.7L150.8,406.7L150.8,406.7L150.8,406.7z M150.7,406.7L150.7,406.7L150.7,406.7
		C150.8,406.7,150.7,406.7,150.7,406.7z M150.7,406.5L150.7,406.5C150.8,406.5,150.8,406.5,150.7,406.5
		C150.8,406.5,150.8,406.5,150.7,406.5L150.7,406.5z M150.7,406.3c0-0.3,0-0.6,0-0.9l0,0l0,0c0,0.3,0,0.6,0,1
		C150.8,406.4,150.7,406.4,150.7,406.3z M150.7,405.4C150.7,405.4,150.7,405.3,150.7,405.4L150.7,405.4
		C150.8,405.3,150.8,405.4,150.7,405.4z M150.8,405.4L150.8,405.4L150.8,405.4L150.8,405.4z M150.8,405.2c0-0.1,0-0.1,0-0.1
		S150.8,405.1,150.8,405.2L150.8,405.2L150.8,405.2z M150.8,404.9c0-0.3,0-0.5,0-0.8c0,0,0,0,0-0.1l0,0c0,0.3,0,0.6-0.1,0.9
		C150.8,405,150.8,405,150.8,404.9z M150.4,406.6L150.4,406.6h0.2v0.1L150.4,406.6z M150.7,406.8c-0.1,0-0.1,0.1-0.2,0.1
		c0-0.1,0-0.1,0-0.2L150.7,406.8z M150.4,406.4c0-0.2,0-0.3,0-0.5c0.1,0.2,0.2,0.3,0.2,0.4c0,0.1,0,0.1,0,0.2L150.4,406.4z
		 M150.5,405.8c0-0.1,0-0.1,0-0.2c0.1-0.1,0.2-0.1,0.2-0.2c0,0.2,0,0.5,0,0.8C150.6,406.1,150.5,406,150.5,405.8z M150.5,405.6
		c0-0.1,0-0.2,0-0.3l0.2,0.1C150.6,405.5,150.6,405.5,150.5,405.6z M150.5,405.3L150.5,405.3h0.2v0.1L150.5,405.3z M150.2,404.8
		c0-0.2,0.1-0.3,0.1-0.5c0-0.1,0.1-0.3,0.1-0.4c0,0.1,0.1,0.3,0.2,0.5C150.4,404.5,150.3,404.7,150.2,404.8z M150,399.9v-0.2
		l0.5,0.5c-0.1,0.1-0.2,0.1-0.2,0.2C150.1,400.3,150.1,400.1,150,399.9z M150.1,405.2c0.1,0.1,0.2,0.3,0.3,0.5
		c-0.1,0.1-0.2,0.2-0.4,0.3C150,405.8,150,405.5,150.1,405.2z M150.7,402.8c0,0.1,0,0.2,0.1,0.3l0,0c-0.1,0.1-0.2,0.2-0.3,0.3l0,0
		L150.7,402.8z M150.6,403c0-0.1,0-0.1,0.1-0.2l0,0L150.6,403z M150.7,402.6L150.7,402.6L150.7,402.6L150.7,402.6
		C150.7,402.7,150.7,402.7,150.7,402.6z M150.5,400.9l-0.2-0.1c0-0.1-0.1-0.2-0.1-0.3l0.3-0.2L150.5,400.9L150.5,400.9z M150.4,404
		l0.2,0.1c0,0.1,0,0.2,0,0.3C150.5,404.2,150.4,404.1,150.4,404z M150.4,403.9L150.4,403.9C150.4,403.8,150.4,403.8,150.4,403.9h0.2
		v0.1L150.4,403.9z M150.4,403.7L150.4,403.7c0.1-0.2,0.2-0.3,0.3-0.5c0,0.2-0.1,0.4-0.1,0.5H150.4z M150.7,403.9h0.1c0,0,0,0,0,0.1
		L150.7,403.9C150.7,404,150.7,404,150.7,403.9z M150.6,404h0.1l0,0c0,0.1-0.1,0.1-0.2,0.2C150.6,404.2,150.6,404.1,150.6,404z
		 M150.8,404.1L150.8,404.1C150.8,404,150.8,404,150.8,404.1L150.8,404.1C150.9,404,150.9,404,150.8,404.1
		C150.9,404,150.9,404,150.8,404.1z M150.8,403.9h-0.1c0-0.2,0.1-0.3,0.1-0.5c0,0.1,0,0.2,0.1,0.2
		C150.8,403.6,150.8,403.7,150.8,403.9z M150.7,403c0-0.1,0-0.2-0.1-0.3v-0.1h0.1C150.8,402.8,150.8,402.9,150.7,403z M150.9,401.9
		l-0.1,0.2l-0.1,0.1C150.8,402.1,150.8,402,150.9,401.9L150.9,401.9z M150.9,401.8c0-0.1,0-0.2,0.1-0.3l0,0c0,0.1,0,0.1,0,0.2
		L150.9,401.8L150.9,401.8z M150.8,402.2l-0.1,0.2l0,0v-0.1C150.8,402.3,150.8,402.3,150.8,402.2z M150.8,402.5l0.1-0.4l0.1-0.1
		C150.9,402.2,150.9,402.3,150.8,402.5L150.8,402.5z M150.9,402L150.9,402L150.9,402L150.9,402z M151,401.9L151,401.9
		C151,401.8,151,401.9,151,401.9L151,401.9z M150.6,400.9l-0.1-0.6l0.5,0.6H150.6z M150.5,400.2l-0.1-0.5l0.4,0.1v0.1
		C150.7,400,150.6,400.1,150.5,400.2z M150.4,399.7L150.4,399.7l0.4,0.1c0,0,0,0,0,0.1L150.4,399.7z M150.4,400.2
		c-0.2-0.2-0.4-0.4-0.5-0.6v-0.1l0.4,0.1L150.4,400.2z M149.9,406.5C149.9,406.4,149.9,406.4,149.9,406.5l0.4,0.1v0.1L149.9,406.5z
		 M150,406.3c0-0.1,0-0.1,0-0.2c0.1-0.1,0.3-0.2,0.4-0.3l0,0c0,0.2,0,0.4,0,0.6L150,406.3z M150.4,405.7c-0.1-0.2-0.2-0.3-0.2-0.5
		l0.3,0.1C150.4,405.4,150.4,405.6,150.4,405.7L150.4,405.7z M150.1,405.2L150.1,405.2C150.1,405.1,150.1,405.1,150.1,405.2h0.3
		c0,0,0,0,0,0.1L150.1,405.2z M150.1,405v-0.1c0.1-0.1,0.2-0.2,0.4-0.4c0,0.2,0,0.4-0.1,0.6L150.1,405z M150.4,407
		c0.1-0.1,0.2-0.1,0.2-0.2c0,0.1,0,0.3,0,0.4c0,0.2,0,0.3,0,0.5c-0.1-0.1-0.2-0.3-0.3-0.4c0-0.1,0-0.1,0-0.2
		C150.4,407.1,150.4,407,150.4,407z M150.5,405.1c0-0.2,0-0.4,0.1-0.5c0.1,0.1,0.1,0.3,0.1,0.4s0,0.1,0,0.2L150.5,405.1z
		 M150.6,404.5C150.6,404.4,150.6,404.4,150.6,404.5c0.1-0.1,0.1-0.2,0.2-0.3c0,0.2,0,0.4,0,0.6
		C150.7,404.7,150.6,404.6,150.6,404.5z M150.8,406.8c0,0.1,0,0.3,0,0.5c0,0.2,0,0.4,0,0.6c0,0,0-0.1-0.1-0.1c0-0.2,0-0.4,0-0.5
		C150.7,407.1,150.7,406.9,150.8,406.8L150.8,406.8z M150.8,407.9L150.8,407.9L150.8,407.9L150.8,407.9z M150.8,408L150.8,408
		L150.8,408L150.8,408z M150.8,408.1L150.8,408.1L150.8,408.1L150.8,408.1L150.8,408.1z M150.9,403.9L150.9,403.9
		c-0.1-0.1,0-0.2,0-0.2S150.9,403.8,150.9,403.9C150.9,403.8,150.9,403.9,150.9,403.9z M150.8,403.4c0-0.1,0-0.1,0-0.2
		c0,0,0,0,0-0.1l0.1-0.1C150.9,403.1,150.9,403.3,150.8,403.4z M150.8,403c0-0.1,0.1-0.2,0.1-0.4l0,0c0,0.1,0,0.2,0,0.2
		C150.9,403,150.8,403,150.8,403z M150.9,402.5c0-0.1,0.1-0.3,0.1-0.4l0,0C151,402.3,151,402.4,150.9,402.5L150.9,402.5z M151,401.6
		L151,401.6L151,401.6L151,401.6z M151,401.7v-0.1l0,0C151.1,401.7,151,401.7,151,401.7L151,401.7z M150.5,400.3l0.3-0.3
		c0.1,0.4,0.2,0.7,0.2,0.9C150.9,400.7,150.7,400.5,150.5,400.3z M150.8,399.3c-0.1-0.3-0.1-0.6-0.2-0.9l0.1-0.1l0,0
		c0.1,0.4,0.2,0.8,0.2,1.2C150.9,399.4,150.8,399.3,150.8,399.3z M150.2,398L150.2,398L150.2,398L150.2,398L150.2,398z M150,397.8
		v-0.3V397.8L150,397.8z M150.2,397.8l-0.3-0.7l0,0c0.1,0.2,0.3,0.3,0.4,0.5c0,0.1,0,0.2,0.1,0.3L150.2,397.8z M150.1,394.6
		L150.1,394.6h-0.2l0,0H150.1z M149.9,394.5C149.9,394.4,149.9,394.4,149.9,394.5L149.9,394.5L149.9,394.5z M150.2,395L150.2,395
		l-0.2,0.1c0-0.1,0-0.1,0-0.2L150.2,395z M150,395.8l-0.3-0.4c0.1,0,0.2-0.1,0.2-0.1C149.9,395.5,150,395.6,150,395.8z M150,395.9
		c0,0.1,0,0.2,0.1,0.3l-0.3-0.1l-0.1-0.6C149.8,395.7,149.9,395.8,150,395.9z M150.1,396.4L150.1,396.4h-0.3v-0.1L150.1,396.4z
		 M150.1,396.5c0,0.1,0,0.2,0,0.3c-0.1,0.1-0.2,0.2-0.2,0.2s0,0,0-0.1l-0.1-0.6L150.1,396.5z M150.3,397.5c-0.1-0.1-0.2-0.3-0.3-0.4
		c0.1-0.1,0.1-0.1,0.2-0.2C150.2,397.1,150.3,397.3,150.3,397.5z M150.2,396.6l0.2,0.1l-0.1,0.1
		C150.2,396.7,150.2,396.6,150.2,396.6z M150.4,398.1L150.4,398.1h-0.1V398L150.4,398.1z M150.4,398.2c0,0.1,0,0.1,0,0.2
		c0,0,0,0-0.1,0.1l-0.1-0.3H150.4z M150.6,399c-0.1-0.1-0.2-0.2-0.3-0.4l0.1-0.1L150.6,399z M150.4,398.5
		C150.5,398.5,150.5,398.5,150.4,398.5c0.1,0.1,0.1,0.3,0.2,0.4L150.4,398.5z M150.5,398.2L150.5,398.2
		C150.6,398.3,150.6,398.3,150.5,398.2C150.5,398.3,150.5,398.2,150.5,398.2z M150.6,398.2h-0.1c0,0,0,0,0-0.1L150.6,398.2
		C150.7,398.2,150.7,398.2,150.6,398.2C150.7,398.2,150.7,398.2,150.6,398.2z M150.5,397.9c0-0.1,0-0.1,0-0.2
		c0.1,0.1,0.1,0.2,0.2,0.2H150.5z M150.4,396.6l-0.2-0.1v-0.1L150.4,396.6C150.4,396.5,150.4,396.5,150.4,396.6L150.4,396.6z
		 M150.2,396.3c0-0.1,0-0.2,0-0.2c0.1,0.1,0.2,0.2,0.3,0.3L150.2,396.3z M150.1,395.9c0-0.2-0.1-0.4-0.1-0.7c0.1,0,0.1-0.1,0.2-0.1
		c0,0.4,0.1,0.7,0.2,1.1L150.1,395.9z M150.2,394.7L150.2,394.7L150.2,394.7L150.2,394.7L150.2,394.7z M150.2,394.6
		c0-0.3-0.1-0.6-0.1-0.9h0.1C150.2,394,150.2,394.3,150.2,394.6L150.2,394.6z M150.2,389.7L150.2,389.7c0,0.3,0,0.6,0,0.9
		c0,0,0-0.1-0.1-0.1C150.1,390.2,150.1,390,150.2,389.7C150.1,389.7,150.1,389.7,150.2,389.7z M150.1,389.6L150.1,389.6L150.1,389.6
		C150.2,389.6,150.2,389.6,150.1,389.6C150.2,389.6,150.2,389.6,150.1,389.6L150.1,389.6z M150.1,390.7
		C150.1,390.7,150.1,390.8,150.1,390.7L150.1,390.7c-0.1,0-0.1-0.1-0.1-0.1C150.1,390.7,150.1,390.7,150.1,390.7z M150.1,390.9
		L150.1,390.9C150,390.9,150,390.9,150.1,390.9L150.1,390.9z M150.1,390.9C150.1,390.9,150.1,391,150.1,390.9L150.1,390.9
		L150.1,390.9z M150.1,391L150.1,391c0,0.3,0,0.7,0,1c0,0,0-0.1-0.1-0.1C150,391.6,150,391.3,150.1,391C150,391,150,391,150.1,391z
		 M150.1,392.1L150.1,392.1L150.1,392.1c-0.1,0-0.1-0.1-0.1-0.1L150.1,392.1z M150.1,392.3L150.1,392.3L150.1,392.3L150.1,392.3z
		 M150.1,392.2C150.1,392.2,150,392.2,150.1,392.2C150,392.2,150,392.2,150.1,392.2L150.1,392.2z M150.1,392.3c0,0.2,0,0.3,0,0.5
		c0,0.2,0,0.4,0,0.6c0,0,0-0.1-0.1-0.1c0-0.2,0-0.4,0-0.5C150,392.6,150,392.5,150.1,392.3L150.1,392.3z M150.1,393.5L150.1,393.5
		C150.1,393.4,150.1,393.4,150.1,393.5C150.1,393.4,150.1,393.4,150.1,393.5z M150.1,393.6L150.1,393.6L150.1,393.6L150.1,393.6z
		 M150.1,393.6L150.1,393.6L150.1,393.6L150.1,393.6L150.1,393.6z M150.2,389.4L150.2,389.4c-0.1-0.1,0-0.2,0-0.2
		C150.2,389.3,150.2,389.3,150.2,389.4L150.2,389.4z M150.1,388.9c0-0.1,0-0.1-0.1-0.2c0,0,0,0,0-0.1l0.1-0.1
		C150.2,388.7,150.2,388.8,150.1,388.9z M150.1,388.6c0-0.1,0-0.2,0.1-0.4l0,0c0,0.1,0,0.2,0,0.2
		C150.2,388.5,150.1,388.5,150.1,388.6z M150.2,388.1c0-0.1,0.1-0.3,0.1-0.4l0,0C150.3,387.8,150.3,388,150.2,388.1L150.2,388.1z
		 M150.3,387.6c0,0.2-0.1,0.3-0.1,0.5h-0.1l0.1-0.4C150.2,387.6,150.2,387.6,150.3,387.6z M150.2,387.5L150.2,387.5L150.2,387.5
		L150.2,387.5z M150.1,388.2c0,0.1-0.1,0.2-0.1,0.4c0-0.1,0-0.2-0.1-0.3L150.1,388.2L150.1,388.2z M150.1,388.8c0,0.1,0,0.2,0.1,0.2
		c0,0.1,0,0.2,0,0.3h-0.1C150,389.2,150,389,150.1,388.8z M150.1,389.5C150.1,389.5,150.1,389.6,150.1,389.5H150v-0.1L150.1,389.5z
		 M150.1,389.6C150.1,389.7,150.1,389.7,150.1,389.6c-0.1,0.1-0.1,0.2-0.2,0.2c0-0.1,0-0.2,0-0.3L150.1,389.6z M150.1,389.8
		c0,0.2,0,0.4,0,0.6c0-0.1-0.1-0.2-0.1-0.4v-0.1C150,389.9,150,389.8,150.1,389.8z M150,390.8C150,390.9,150,390.9,150,390.8h-0.2
		v-0.1L150,390.8z M150,391c-0.1,0.1-0.1,0.1-0.2,0.2c0-0.1,0-0.2,0-0.3L150,391z M150,391c0,0.3,0,0.5,0,0.8
		c-0.1-0.1-0.1-0.3-0.2-0.4c0-0.1,0-0.1,0-0.2C149.9,391.2,149.9,391.1,150,391z M150,391.9c0,0.1,0,0.1,0,0.2l-0.2-0.1
		c0-0.2,0-0.3,0-0.5C149.8,391.6,149.9,391.8,150,391.9z M150,392.2L150,392.2h-0.2v-0.1L150,392.2z M150,392.3
		c-0.1,0-0.1,0.1-0.2,0.2c0-0.1,0-0.1,0-0.2H150z M150,392.3c0,0.1,0,0.3,0,0.4c0,0.2,0,0.3,0,0.5c-0.1-0.1-0.2-0.3-0.3-0.4
		c0-0.1,0-0.1,0-0.2v-0.1C149.8,392.4,149.9,392.4,150,392.3z M149.8,394.2c-0.1-0.1-0.1-0.1-0.2-0.2l0.1-0.1
		C149.7,394,149.8,394.1,149.8,394.2z M149.7,392.9c0.1,0.2,0.2,0.3,0.3,0.4v0.1l-0.3-0.1C149.8,393.2,149.7,393.1,149.7,392.9z
		 M150,393.6L150,393.6L150,393.6h-0.2v-0.1L150,393.6z M150,393.7c-0.1,0-0.1,0.1-0.2,0.1c0-0.1,0-0.1,0-0.2L150,393.7z M150,393.7
		L150,393.7c0,0.3,0.1,0.6,0.1,0.9H150c-0.1-0.1-0.1-0.2-0.2-0.2c0-0.2,0-0.3,0-0.5L150,393.7z M149.9,394.9c0,0.1,0,0.2,0,0.3
		l-0.2,0.1l-0.1-0.5L149.9,394.9z M149.6,395.5l0.1,0.7l-0.2-0.1l-0.2-0.4C149.4,395.6,149.5,395.5,149.6,395.5L149.6,395.5z
		 M149.7,396.3L149.7,396.3h-0.2v-0.1L149.7,396.3z M149.8,396.4l0.1,0.5l-0.2-0.6L149.8,396.4z M149.8,397.1
		c-0.1,0.1-0.2,0.2-0.3,0.3l-0.2-1c0.1,0.2,0.3,0.3,0.4,0.5L149.8,397.1z M149.9,397.2L149.9,397.2l0.1,0.6l-0.4-0.1v-0.1
		C149.6,397.4,149.7,397.3,149.9,397.2z M150,398L150,398l-0.4-0.1v-0.1L150,398z M149.6,397.9l0.4,0.1l0.1,0.5
		C150,398.3,149.8,398.1,149.6,397.9z M150.2,398.7c-0.1,0.1-0.2,0.2-0.3,0.3l-0.2-0.9C149.8,398.2,150,398.4,150.2,398.7z
		 M150.1,398.1h0.1l0.1,0.4l-0.1,0.1L150.1,398.1z M150.6,399.2l0.1,0.2c0,0.1,0,0.1,0,0.1l-0.4-0.1l-0.1-0.7
		C150.4,398.9,150.5,399.1,150.6,399.2z M150.4,399.7l-0.4-0.1v-0.1L150.4,399.7L150.4,399.7z M149.9,406.6c0.1,0.1,0.2,0.3,0.3,0.5
		c-0.1,0.1-0.2,0.2-0.4,0.3C149.9,407.1,149.9,406.8,149.9,406.6z M149.9,399.4L149.9,399.4L149.9,399.4
		C149.9,399.5,149.9,399.5,149.9,399.4z M149.9,407.4c0.1-0.1,0.3-0.2,0.4-0.3c0,0.1,0.1,0.1,0.1,0.2c0,0.2,0,0.3,0,0.5l-0.5-0.2
		C149.9,407.5,149.9,407.4,149.9,407.4z M150.4,407.9L150.4,407.9l-0.5-0.1v-0.1L150.4,407.9z M150.4,408c0,0.1,0,0.2,0,0.2
		c-0.1,0-0.1,0.1-0.2,0.1c-0.1-0.2-0.3-0.3-0.4-0.5l0,0L150.4,408z M150.4,408.3c0,0.1,0,0.2,0,0.3c-0.1-0.1-0.1-0.1-0.2-0.2
		L150.4,408.3z M150.4,407.4c0.1,0.2,0.2,0.3,0.3,0.4v0.1l-0.3-0.1C150.5,407.7,150.5,407.5,150.4,407.4z M150.7,408L150.7,408
		C150.7,408.1,150.7,408.1,150.7,408h-0.3v-0.1L150.7,408z M150.7,408.1c-0.1,0-0.1,0.1-0.2,0.1c0-0.1,0-0.1,0-0.2L150.7,408.1z
		 M150.7,408.1L150.7,408.1c0,0.3,0.1,0.6,0.1,0.9h-0.1c-0.1-0.1-0.1-0.2-0.2-0.3c0-0.2,0-0.3-0.1-0.5L150.7,408.1z M150.6,409.4
		c0,0.1,0,0.2,0,0.3l-0.2,0.1l-0.1-0.5L150.6,409.4z M150.3,409.9l0.1,0.7l-0.2-0.1l-0.2-0.4C150.1,410,150.2,410,150.3,409.9
		L150.3,409.9z M150.4,410.7L150.4,410.7h-0.2v-0.1L150.4,410.7z M150.5,410.8l0.1,0.5l-0.2-0.6L150.5,410.8z M150.5,411.6
		c-0.1,0.1-0.2,0.2-0.3,0.3l-0.2-1c0.1,0.2,0.3,0.3,0.4,0.5L150.5,411.6z M150.6,411.7L150.6,411.7l0.1,0.6l-0.4-0.1v-0.1
		C150.3,411.9,150.4,411.8,150.6,411.7z M150.7,412.4L150.7,412.4l-0.4-0.1v-0.1L150.7,412.4z M150.3,412.4l0.4,0.1l0.1,0.5
		C150.7,412.8,150.5,412.5,150.3,412.4z M150.9,413.1c-0.1,0.1-0.2,0.2-0.3,0.3l-0.2-0.9C150.5,412.7,150.7,412.9,150.9,413.1z
		 M150.8,412.5h0.1l0.1,0.4l-0.1,0.1L150.8,412.5z M151.3,413.7l0.1,0.2c0,0.1,0,0.1,0,0.1l-0.4-0.1l-0.1-0.7
		C151.1,413.4,151.2,413.6,151.3,413.7z M151.1,414.1l-0.4-0.1v-0.1L151.1,414.1L151.1,414.1z M150.6,421c0.1,0.1,0.2,0.3,0.3,0.5
		c-0.1,0.1-0.2,0.2-0.4,0.3C150.6,421.5,150.6,421.3,150.6,421z M150.6,413.9L150.6,413.9L150.6,413.9L150.6,413.9z M150.6,421.8
		c0.1-0.1,0.2-0.2,0.4-0.3c0,0.1,0.1,0.1,0.1,0.2c0,0.2,0,0.3,0,0.5l-0.5-0.2C150.6,422,150.6,421.9,150.6,421.8z M151.1,422.3
		C151.1,422.4,151.1,422.4,151.1,422.3l-0.5-0.1v-0.1L151.1,422.3z M151.1,422.5c0,0.1,0,0.2,0,0.2c-0.1,0-0.1,0.1-0.2,0.1
		c-0.1-0.2-0.3-0.3-0.4-0.5l0,0L151.1,422.5z M151.1,422.8c0,0.1,0,0.2,0,0.3c-0.1-0.1-0.1-0.2-0.2-0.2L151.1,422.8z M151.1,421.8
		c0.1,0.2,0.2,0.3,0.3,0.4v0.1l-0.3-0.1C151.2,422.1,151.1,422,151.1,421.8z M151.4,422.4C151.4,422.5,151.4,422.5,151.4,422.4
		C151.4,422.5,151.4,422.5,151.4,422.4h-0.2v-0.1L151.4,422.4z M151.4,422.5c0,0-0.1,0.1-0.2,0.1c0-0.1,0-0.1,0-0.2L151.4,422.5z
		 M151.4,422.6L151.4,422.6c0,0.3,0.1,0.6,0.1,0.9h-0.1c-0.1-0.1-0.1-0.2-0.2-0.2c0-0.2,0-0.3,0-0.5L151.4,422.6z M151.3,423.8
		c0,0.1,0,0.2,0,0.3l-0.2,0.1l-0.1-0.5L151.3,423.8z M151,424.4l0.1,0.7l-0.2-0.1l-0.2-0.4C150.8,424.5,150.9,424.4,151,424.4
		L151,424.4z M151.1,425.2L151.1,425.2h-0.2v-0.1L151.1,425.2z M151.2,425.3l0.1,0.5l-0.2-0.6L151.2,425.3z M151.2,426
		c-0.1,0.1-0.2,0.2-0.3,0.3l-0.2-1c0.1,0.2,0.3,0.3,0.4,0.5L151.2,426z M151.3,426.1L151.3,426.1l0.1,0.6l-0.4-0.2v-0.1
		C151,426.3,151.1,426.2,151.3,426.1z M151.4,426.8L151.4,426.8l-0.4-0.1v-0.1L151.4,426.8z M151,426.8l0.4,0.1l0.1,0.5
		C151.4,427.2,151.2,427,151,426.8z M151.6,427.6c-0.1,0.1-0.2,0.2-0.3,0.3l-0.2-0.9C151.2,427.1,151.4,427.3,151.6,427.6z
		 M151.5,427h0.1l0.1,0.4l-0.1,0.1L151.5,427z M152,428.1l0.1,0.2v0.1l-0.4-0.1l-0.1-0.7C151.8,427.8,151.9,428,152,428.1z
		 M152.2,428.6C152.2,428.6,152.2,428.7,152.2,428.6l-0.4-0.1v-0.1L152.2,428.6z M152.2,428.7L152.2,428.7c-0.1,0.2-0.2,0.3-0.3,0.4
		l-0.1-0.5L152.2,428.7z M152.3,428.9c0.1,0.4,0.2,0.7,0.2,0.9c-0.2-0.2-0.4-0.4-0.5-0.6L152.3,428.9z M152.2,428.3
		c0.1,0.1,0.1,0.1,0.2,0.2l0,0h-0.1L152.2,428.3z M152.4,428.7L152.4,428.7L152.4,428.7L152.4,428.7L152.4,428.7z M152.4,428.8
		L152.4,428.8c0,0.1,0,0.1,0,0.2V428.8L152.4,428.8z M152.4,428.5C152.4,428.5,152.4,428.4,152.4,428.5c-0.1-0.4-0.2-0.9-0.3-1.3
		h0.1C152.3,427.7,152.4,428.1,152.4,428.5z M152.2,427.2L152.2,427.2L152.2,427.2C152.1,427.1,152.2,427.1,152.2,427.2
		C152.2,427.1,152.2,427.1,152.2,427.2z M152.1,426.9C152.1,426.9,152.1,426.8,152.1,426.9c-0.1-0.5-0.2-0.9-0.3-1.3l0,0
		C152,426,152.1,426.4,152.1,426.9z M151.9,425.5L151.9,425.5L151.9,425.5L151.9,425.5z M151.7,424c0.1,0.4,0.1,0.9,0.2,1.3
		l-0.1-0.1C151.7,424.8,151.7,424.4,151.7,424C151.6,424,151.7,424,151.7,424z M151.6,418.1c0-0.1,0-0.1,0-0.2c0-0.2,0-0.4,0.1-0.5
		c0,0,0-0.1,0.1-0.1C151.7,417.6,151.6,417.8,151.6,418.1z M151.7,417.2C151.7,417.2,151.7,417.3,151.7,417.2L151.7,417.2
		L151.7,417.2L151.7,417.2z M151.7,417L151.7,417c0-0.1,0-0.2,0-0.3c0,0.1,0,0.1,0,0.2C151.8,416.9,151.8,417,151.7,417z
		 M151.8,416.7v-0.2v-0.1h0.1C151.8,416.5,151.8,416.6,151.8,416.7z M151.9,416.4L151.9,416.4c-0.1-0.1,0-0.1,0-0.1l0.1-0.1
		C151.9,416.2,151.9,416.3,151.9,416.4z M151.8,416.1C151.9,416.1,151.9,416.1,151.8,416.1L151.8,416.1L151.8,416.1z M151.9,415.4
		c-0.1-0.2-0.1-0.6-0.2-1l0,0l0.2,0.6C151.9,415.2,151.9,415.3,151.9,415.4L151.9,415.4z M152,415.4L152,415.4
		c0-0.1-0.1-0.1-0.1-0.2L152,415.4z M151.9,415l-0.1-0.3c0-0.1,0-0.3-0.1-0.4l0,0C151.9,414.6,151.9,414.8,151.9,415z M151.8,414.3
		L151.8,414.3L151.8,414.3L151.8,414.3L151.8,414.3z M151.7,414L151.7,414c-0.1-0.5-0.2-0.9-0.3-1.3h0.1
		C151.6,413.2,151.7,413.6,151.7,414z M151.5,412.7L151.5,412.7L151.5,412.7L151.5,412.7L151.5,412.7z M151.4,412.4L151.4,412.4
		c-0.1-0.5-0.2-0.9-0.3-1.3h0.1C151.3,411.6,151.4,412,151.4,412.4z M151.2,411C151.2,411,151.2,411.1,151.2,411L151.2,411
		L151.2,411z M151,409.5c0.1,0.4,0.1,0.9,0.2,1.3l-0.1-0.1C151,410.3,151,409.9,151,409.5C150.9,409.5,151,409.5,151,409.5z
		 M150.9,403.7c0-0.1,0-0.1,0-0.2c0-0.2,0-0.4,0.1-0.5l0.1-0.1C151,403.1,150.9,403.4,150.9,403.7z M151,402.8L151,402.8
		C151,402.8,151,402.7,151,402.8L151,402.8C151,402.7,151,402.7,151,402.8z M151,402.6L151,402.6c0-0.1,0-0.2,0-0.3
		c0,0.1,0,0.1,0,0.2C151.1,402.5,151.1,402.5,151,402.6z M151.1,402.3v-0.2V402h0.1C151.1,402.1,151.1,402.2,151.1,402.3z
		 M151.2,401.9L151.2,401.9c0-0.1,0-0.1,0-0.1l0.1-0.1C151.2,401.8,151.2,401.8,151.2,401.9z M151.1,401.7
		C151.1,401.6,151.2,401.6,151.1,401.7L151.1,401.7L151.1,401.7z M151.2,400.9c-0.1-0.2-0.1-0.6-0.2-1l0,0l0.2,0.6
		C151.2,400.7,151.2,400.8,151.2,400.9L151.2,400.9z M151.3,400.9L151.3,400.9c0-0.1-0.1-0.1-0.1-0.2L151.3,400.9z M151.2,400.6
		l-0.1-0.3c0-0.1-0.1-0.3-0.1-0.4l0,0C151.2,400.2,151.2,400.4,151.2,400.6z M151.1,399.8C151.1,399.9,151.1,399.9,151.1,399.8
		L151.1,399.8C151.1,399.9,151.1,399.9,151.1,399.8L151.1,399.8z M151,399.6L151,399.6c-0.1-0.5-0.2-0.9-0.3-1.3h0.1
		C150.9,398.8,151,399.2,151,399.6z M150.8,398.3L150.8,398.3L150.8,398.3C150.7,398.2,150.8,398.2,150.8,398.3
		C150.8,398.2,150.8,398.2,150.8,398.3z M150.7,398C150.7,398,150.7,397.9,150.7,398c-0.1-0.5-0.2-0.9-0.3-1.3l0,0
		C150.6,397.1,150.7,397.6,150.7,398z M150.5,396.6L150.5,396.6L150.5,396.6L150.5,396.6z M150.3,395.1c0.1,0.4,0.1,0.9,0.2,1.3
		l-0.1-0.1C150.3,395.9,150.3,395.5,150.3,395.1C150.2,395.1,150.3,395.1,150.3,395.1z M150.2,389.2c0-0.1,0-0.1,0-0.2
		c0-0.2,0-0.4,0.1-0.5l0.1-0.1C150.3,388.7,150.2,388.9,150.2,389.2z M150.3,388.3C150.3,388.3,150.3,388.4,150.3,388.3L150.3,388.3
		L150.3,388.3L150.3,388.3z M150.3,388.1L150.3,388.1c0-0.1,0-0.2,0-0.3c0,0.1,0,0.2,0,0.2C150.4,388.1,150.4,388.1,150.3,388.1z
		 M150.5,387.1L150.5,387.1L150.5,387.1C150.4,387.2,150.5,387.2,150.5,387.1z M150.4,387.3l0.1-0.1c0,0.1,0,0.2-0.1,0.3h-0.1
		C150.4,387.4,150.4,387.4,150.4,387.3z M150.5,387.5c0,0.1,0,0.2-0.1,0.3v-0.2C150.4,387.6,150.4,387.5,150.5,387.5L150.5,387.5z
		 M150.4,387.1c0,0.1,0,0.1-0.1,0.2v-0.1L150.4,387.1L150.4,387.1z M150.3,387.1L150.3,387.1L150.3,387.1L150.3,387.1z M150.3,387.4
		L150.3,387.4L150.3,387.4L150.3,387.4z M150.2,387.1L150.2,387.1c0,0,0,0.1,0,0.2v0.1h-0.1C150.2,387.3,150.2,387.2,150.2,387.1z
		 M150.2,387.4L150.2,387.4v0.2l-0.1,0.1C150.1,387.6,150.1,387.5,150.2,387.4z M150,387.9l0.1-0.1L150,388l0,0
		C150,388,150,387.9,150,387.9z M150,388.1L150,388.1L150,388.1C150,388.2,150,388.2,150,388.1C150,388.2,150,388.2,150,388.1z
		 M149.9,388.3L149.9,388.3l-0.1,0.2C149.9,388.4,149.9,388.4,149.9,388.3z M149.7,389l0.2-0.6c0,0.1,0,0.2,0.1,0.3l0,0
		C149.9,388.8,149.8,389,149.7,389C149.7,389.1,149.7,389,149.7,389z M149.7,389.2c0.1-0.1,0.2-0.2,0.3-0.4c0,0.2-0.1,0.4-0.1,0.5
		L149.7,389.2L149.7,389.2z M149.7,389.4l0.2,0.1c0,0,0,0,0,0.1L149.7,389.4L149.7,389.4L149.7,389.4z M149.5,389.9
		c0-0.1,0.1-0.3,0.1-0.4c0.1,0.1,0.1,0.3,0.2,0.5c-0.1,0.1-0.3,0.3-0.4,0.4C149.5,390.2,149.5,390,149.5,389.9z M149.4,390.4
		c0.1-0.1,0.2-0.2,0.4-0.4c0,0.2,0,0.4-0.1,0.6l-0.3-0.1C149.4,390.5,149.4,390.5,149.4,390.4z M149.4,390.7l0.3,0.1v0.1
		L149.4,390.7L149.4,390.7L149.4,390.7z M149.7,390.9c0,0.1,0,0.2,0,0.3l0,0c-0.1-0.2-0.2-0.3-0.2-0.5L149.7,390.9z M149.4,390.8
		c0.1,0.1,0.2,0.3,0.3,0.5c-0.1,0.1-0.3,0.2-0.4,0.3C149.3,391.3,149.3,391,149.4,390.8z M149.3,391.7c0.1-0.1,0.3-0.2,0.4-0.3l0,0
		c0,0.2,0,0.4,0,0.6l-0.4-0.1C149.3,391.8,149.3,391.7,149.3,391.7z M149.2,391.9l0.4,0.1v0.1L149.2,391.9
		C149.2,392,149.2,392,149.2,391.9z M149.7,392.2c0,0.1,0,0.2,0,0.3c0,0-0.1,0-0.1,0.1c-0.1-0.2-0.2-0.4-0.3-0.5L149.7,392.2z
		 M149.7,392.6L149.7,392.6c0,0.1,0,0.1,0,0.1C149.6,392.7,149.6,392.6,149.7,392.6C149.6,392.6,149.6,392.6,149.7,392.6z
		 M149.2,392.1c0.1,0.1,0.2,0.3,0.3,0.5c-0.1,0.1-0.2,0.2-0.4,0.3C149.2,392.6,149.2,392.4,149.2,392.1z M149.2,392.9
		c0.1-0.1,0.3-0.2,0.4-0.3c0,0.1,0.1,0.1,0.1,0.2c0,0.2,0,0.3,0,0.5l-0.5-0.2C149.2,393.1,149.2,393,149.2,392.9z M149.2,393.3
		l0.5,0.2v0.1L149.2,393.3L149.2,393.3z M149.2,393.4l0.6,0.2c0,0.1,0,0.2,0,0.2c-0.1,0-0.1,0.1-0.2,0.1
		C149.4,393.7,149.3,393.6,149.2,393.4L149.2,393.4z M139.2,428.7L139.2,428.7L139.2,428.7L139.2,428.7L139.2,428.7z M139.2,428.8
		l-0.1,0.2C139.1,428.9,139.1,428.9,139.2,428.8L139.2,428.8L139.2,428.8z M139.2,428.5L139.2,428.5c0-0.1,0.1-0.1,0.2-0.2
		L139.2,428.5L139.2,428.5z M139.7,425.5c0,0,0.1,0.1,0.2,0.2c0,0.3-0.1,0.5-0.2,0.8c-0.1,0.1-0.2,0.2-0.2,0.3
		C139.6,426.4,139.7,426,139.7,425.5z M139.7,425.4L139.7,425.4L139.7,425.4L139.7,425.4z M139.9,414.3L139.9,414.3L139.9,414.3
		L139.9,414.3L139.9,414.3z M139.9,414.4l-0.1,0.2C139.8,414.5,139.8,414.4,139.9,414.4L139.9,414.4L139.9,414.4z M139.9,414.1
		L139.9,414.1c0-0.1,0.1-0.1,0.2-0.2L139.9,414.1L139.9,414.1z M140.4,411.1c0,0,0.1,0.1,0.2,0.2c0,0.3-0.1,0.5-0.2,0.8
		c-0.1,0.1-0.2,0.2-0.2,0.3C140.3,411.9,140.4,411.5,140.4,411.1z M140.4,411L140.4,411L140.4,411L140.4,411z M140.6,399.8
		L140.6,399.8L140.6,399.8L140.6,399.8L140.6,399.8z M140.6,399.9l-0.1,0.2C140.5,400,140.5,400,140.6,399.9L140.6,399.9
		L140.6,399.9z M140.6,399.6L140.6,399.6c0-0.1,0.1-0.1,0.2-0.2L140.6,399.6L140.6,399.6z M141.1,396.7c0,0,0.1,0.1,0.2,0.2
		c0,0.3-0.1,0.5-0.2,0.8c-0.1,0.1-0.2,0.2-0.2,0.3C141,397.5,141.1,397.1,141.1,396.7z M141.1,396.5L141.1,396.5L141.1,396.5
		L141.1,396.5z M141.7,390.7l-0.2,0.1c0-0.1,0-0.1,0-0.2s0.1-0.2,0.1-0.4C141.7,390.3,141.7,390.5,141.7,390.7z M141.7,389.6
		l0.2-0.1c0,0.1-0.1,0.2-0.1,0.4C141.7,389.8,141.7,389.7,141.7,389.6z M141.8,392.5c-0.1-0.1-0.1-0.1-0.2-0.2l0.2-0.1
		C141.8,392.3,141.8,392.4,141.8,392.5z M141.8,392.5v0.1c0,0.1,0,0.1,0,0.2c-0.1,0.1-0.2,0.3-0.3,0.4c0-0.2,0-0.3,0-0.5
		c0-0.1,0-0.3,0-0.4C141.6,392.4,141.7,392.4,141.8,392.5z M141.6,392.3C141.6,392.2,141.6,392.2,141.6,392.3l0.2-0.2v0.1
		L141.6,392.3z M141.6,392.1c0-0.1,0-0.1,0-0.2c0.1-0.1,0.1-0.3,0.2-0.4c0,0.2,0,0.3,0,0.5L141.6,392.1z M141.6,391.8
		c0-0.3,0-0.5,0-0.8c0.1,0.1,0.1,0.1,0.2,0.2c0,0.1,0,0.1,0,0.2C141.7,391.5,141.6,391.7,141.6,391.8z M141.6,391l0.2-0.1
		c0,0.1,0,0.2,0,0.3C141.7,391.1,141.6,391,141.6,391z M141.6,390.9L141.6,390.9l0.2-0.1v0.1H141.6z M141.5,390.4c0-0.2,0-0.4,0-0.6
		c0.1,0.1,0.1,0.1,0.2,0.2v0.1C141.6,390.1,141.6,390.3,141.5,390.4z M141.4,389.7L141.4,389.7c0.1,0.3,0.1,0.5,0.1,0.8
		c0,0.1,0,0.1-0.1,0.1C141.4,390.3,141.4,390,141.4,389.7L141.4,389.7z M141.4,389.6L141.4,389.6L141.4,389.6L141.4,389.6
		L141.4,389.6L141.4,389.6z M141.5,390.9L141.5,390.9L141.5,390.9L141.5,390.9z M141.5,391L141.5,391
		C141.5,391,141.5,390.9,141.5,391C141.5,390.9,141.5,390.9,141.5,391z M141.5,390.8C141.5,390.8,141.5,390.7,141.5,390.8
		c0-0.1,0-0.1,0.1-0.2C141.5,390.6,141.5,390.7,141.5,390.8L141.5,390.8z M141.4,393.6L141.4,393.6
		C141.5,393.6,141.5,393.6,141.4,393.6L141.4,393.6L141.4,393.6z M141.5,393.6L141.5,393.6L141.5,393.6L141.5,393.6z M141.5,393.5
		C141.5,393.4,141.5,393.4,141.5,393.5C141.5,393.4,141.5,393.4,141.5,393.5L141.5,393.5z M141.5,393.4c0-0.2,0-0.4,0-0.6
		c0-0.2,0-0.3,0-0.5h0.1c0,0.1,0,0.3,0,0.4C141.5,392.9,141.5,393.1,141.5,393.4C141.5,393.3,141.5,393.4,141.5,393.4z M141.5,392.3
		L141.5,392.3L141.5,392.3L141.5,392.3z M141.5,392.2L141.5,392.2L141.5,392.2L141.5,392.2z M141.5,392.1L141.5,392.1
		c0,0,0-0.1,0.1-0.1C141.5,392,141.5,392.1,141.5,392.1L141.5,392.1z M141.5,392c0-0.3,0-0.7,0-1l0,0l0,0c0,0.3,0,0.6,0,0.9V392z
		 M141.5,389.7L141.5,389.7l0.1-0.1c0,0.1,0,0.2,0,0.3C141.6,389.8,141.5,389.7,141.5,389.7z M141.5,389.6
		C141.5,389.6,141.5,389.5,141.5,389.6l0.1-0.1c0,0,0,0,0,0.1H141.5z M141.5,389.4c0-0.1,0-0.2,0-0.3s0-0.2,0.1-0.2
		c0,0.2,0.1,0.3,0.1,0.5H141.5z M141.4,388.2L141.4,388.2l0.1,0.1c0,0.1,0,0.2-0.1,0.3C141.5,388.4,141.5,388.3,141.4,388.2z
		 M141.4,388.1c0-0.2-0.1-0.3-0.1-0.5l0.1,0.1V388.1L141.4,388.1z M141.3,387.5L141.3,387.5L141.3,387.5L141.3,387.5z M141.3,388.1
		L141.3,388.1c-0.1-0.1-0.1-0.3-0.1-0.4l0,0C141.3,387.8,141.3,388,141.3,388.1z M141.4,388.2c0,0.1,0.1,0.2,0.1,0.4
		c0,0,0-0.1-0.1-0.1C141.3,388.4,141.3,388.3,141.4,388.2L141.4,388.2z M141.5,388.7L141.5,388.7c0,0.1,0,0.2,0,0.3
		c0-0.1,0-0.3,0-0.4C141.4,388.6,141.4,388.6,141.5,388.7z M141.4,389.4L141.4,389.4L141.4,389.4c-0.1-0.1,0-0.2,0-0.2
		C141.4,389.3,141.4,389.3,141.4,389.4z M141.4,393.7L141.4,393.7c0,0.3,0,0.6,0,0.9h-0.1C141.4,394.3,141.4,394,141.4,393.7z
		 M141.7,394.6L141.7,394.6l-0.2,0.1l0,0L141.7,394.6z M141.6,394.5l0.1-0.1C141.7,394.4,141.7,394.4,141.6,394.5L141.6,394.5z
		 M141.5,397.8l0.1-0.3L141.5,397.8L141.5,397.8z M141.5,398L141.5,398l-0.1,0.1L141.5,398L141.5,398z M141.4,397.8l-0.2,0.1
		c0-0.1,0-0.2,0.1-0.3s0.3-0.3,0.4-0.5l0,0L141.4,397.8z M141.1,398.5L141.1,398.5L141,399C141,398.8,141,398.6,141.1,398.5z
		 M141,398.3L141,398.3L141,398.3C141,398.2,141,398.3,141,398.3z M141.2,398.6l0.1,0.1c-0.1,0.1-0.2,0.2-0.3,0.4L141.2,398.6z
		 M141.1,398.4L141.1,398.4c-0.1-0.1,0-0.2,0-0.2h0.1L141.1,398.4z M141.1,398.1L141.1,398.1l0.2-0.1v0.1H141.1z M141.4,396.9
		c0.1,0.1,0.1,0.1,0.2,0.2c-0.1,0.1-0.2,0.3-0.3,0.4C141.3,397.3,141.3,397.1,141.4,396.9z M141.3,396.7l-0.1-0.1l0.2-0.1
		C141.3,396.6,141.3,396.7,141.3,396.7z M141.6,397c-0.1-0.1-0.2-0.2-0.2-0.2c0-0.1,0-0.2,0-0.3l0.3-0.1L141.6,397
		C141.7,397,141.7,397,141.6,397z M141.5,396.5C141.5,396.4,141.5,396.4,141.5,396.5l0.3-0.2v0.1L141.5,396.5z M141.5,396.3
		c0-0.1,0-0.2,0.1-0.3s0.2-0.3,0.3-0.4l-0.1,0.6L141.5,396.3z M141.6,395.8c0-0.2,0.1-0.3,0.1-0.5c0.1,0,0.1,0.1,0.2,0.1
		L141.6,395.8z M141.6,395c0,0.1,0,0.1,0,0.2l-0.2-0.1l0,0L141.6,395z M141.4,394.7L141.4,394.7L141.4,394.7
		C141.3,394.7,141.3,394.7,141.4,394.7L141.4,394.7z M141.6,395.2c0,0.2-0.1,0.4-0.1,0.7l-0.3,0.3c0.1-0.4,0.1-0.7,0.2-1.1
		C141.4,395.2,141.5,395.2,141.6,395.2z M141.4,396.1c0,0.1,0,0.2,0,0.2l-0.2,0.1C141.3,396.3,141.3,396.2,141.4,396.1z
		 M141.4,396.4C141.4,396.5,141.4,396.5,141.4,396.4l-0.2,0.2l0,0c0,0,0,0,0-0.1L141.4,396.4z M141.1,397.8c0,0.1,0,0.1,0,0.2
		l-0.2,0.1C141,397.9,141,397.8,141.1,397.8z M141.1,398.1C141.1,398.1,141,398.2,141.1,398.1l-0.1,0.1l0,0l0,0L141.1,398.1z
		 M141,398.4c-0.1,0.3-0.1,0.6-0.2,0.9c-0.1,0.1-0.1,0.1-0.2,0.2c0.1-0.4,0.2-0.8,0.2-1.2l0,0C140.9,398.3,140.9,398.3,141,398.4z
		 M141.2,407c0-0.1,0-0.2,0-0.3l0.4-0.1C141.5,406.7,141.4,406.8,141.2,407C141.3,407,141.2,407,141.2,407z M141.3,407.1
		c0,0,0,0.1-0.1,0.1C141.2,407.1,141.2,407.1,141.3,407.1C141.2,407.1,141.2,407,141.3,407.1C141.2,407,141.2,407,141.3,407.1z
		 M141.6,399.9c-0.1,0.2-0.1,0.4-0.2,0.6c-0.1-0.1-0.2-0.1-0.2-0.2l0.5-0.5L141.6,399.9z M141.6,406c-0.1-0.1-0.2-0.2-0.4-0.3
		c0.1-0.2,0.2-0.4,0.3-0.5C141.5,405.5,141.5,405.8,141.6,406z M140.9,406.5c0-0.1,0-0.1,0-0.2c0.1-0.1,0.1-0.3,0.2-0.4
		c0,0.2,0,0.3,0,0.5L140.9,406.5z M141.1,406.6L141.1,406.6l-0.2,0.2v-0.1L141.1,406.6z M140.9,406.3c0-0.3,0-0.5,0-0.8
		c0.1,0.1,0.1,0.1,0.2,0.2c0,0.1,0,0.1,0,0.2C141,406,140.9,406.1,140.9,406.3z M140.9,405.4l0.2-0.1c0,0.1,0,0.2,0,0.3
		C141,405.5,140.9,405.5,140.9,405.4z M140.9,405.4C140.9,405.3,140.9,405.3,140.9,405.4l0.2-0.1v0.1H140.9z M141,404.4
		c0.1-0.2,0.1-0.3,0.2-0.5c0,0.1,0.1,0.3,0.1,0.4c0,0.1,0.1,0.3,0.1,0.5C141.3,404.7,141.2,404.5,141,404.4z M140.9,404
		c0,0.1,0,0.2,0,0.3c-0.1-0.1-0.1-0.1-0.2-0.2l0,0L140.9,404z M140.8,404L140.8,404l0.1-0.1c0,0,0,0,0,0.1H140.8z M140.9,403.3
		c0.1,0.1,0.2,0.3,0.3,0.4v0.1l-0.2,0.1C140.9,403.6,140.9,403.4,140.9,403.3z M140.9,402.8l0.2,0.6l0,0c-0.1-0.1-0.2-0.2-0.3-0.3
		l0,0C140.9,403,140.9,402.9,140.9,402.8z M140.9,402.7L140.9,402.7L140.9,402.7C140.9,402.6,140.9,402.6,140.9,402.7L140.9,402.7z
		 M140.9,402.8L140.9,402.8c0,0,0,0.1,0.1,0.2L140.9,402.8z M141.2,403.8L141.2,403.8C141.2,403.9,141.2,403.9,141.2,403.8l-0.2,0.1
		v-0.1H141.2z M141.2,404c0,0.1-0.1,0.2-0.1,0.4c0-0.1,0-0.2,0-0.3L141.2,404z M141.4,400.6c0,0.1-0.1,0.2-0.1,0.3l-0.2,0.1l0,0
		l0.1-0.6L141.4,400.6z M141.1,400.2c-0.1-0.1-0.2-0.2-0.3-0.3v-0.1l0.4-0.1L141.1,400.2z M141,400.9h-0.4l0.5-0.6L141,400.9z
		 M140.7,401.9c0,0.1,0.1,0.2,0.1,0.3l-0.1-0.1V401.9L140.7,401.9z M140.6,401.9v-0.1c0-0.1,0-0.1,0-0.2l0,0
		C140.6,401.7,140.7,401.7,140.6,401.9L140.6,401.9z M140.8,402.3v0.1l0,0l-0.1-0.2C140.8,402.3,140.8,402.3,140.8,402.3z
		 M140.6,401.8L140.6,401.8L140.6,401.8C140.6,401.9,140.6,401.8,140.6,401.8z M140.6,401.9L140.6,401.9L140.6,401.9L140.6,401.9z
		 M140.7,402.1l0.1,0.4h-0.1c0-0.2-0.1-0.3-0.1-0.5C140.6,402,140.6,402.1,140.7,402.1z M140.8,402.6v0.1c0,0.1,0,0.2-0.1,0.3
		C140.8,402.9,140.8,402.8,140.8,402.6L140.8,402.6z M140.9,403.8h-0.1c0-0.1,0-0.2,0-0.3s0-0.2,0.1-0.2
		C140.8,403.5,140.9,403.6,140.9,403.8z M140.7,404L140.7,404L140.7,404L140.7,404L140.7,404L140.7,404z M140.7,404.1L140.7,404.1
		c0.1,0.3,0.1,0.5,0.1,0.8c0,0.1,0,0.1-0.1,0.1C140.7,404.7,140.7,404.4,140.7,404.1L140.7,404.1z M140.8,405.3L140.8,405.3
		C140.8,405.3,140.8,405.4,140.8,405.3C140.8,405.4,140.8,405.3,140.8,405.3z M140.8,405.4L140.8,405.4L140.8,405.4L140.8,405.4z
		 M140.8,405.2L140.8,405.2c0-0.1,0-0.1,0.1-0.2C140.8,405.1,140.8,405.1,140.8,405.2L140.8,405.2z M140.7,408.1L140.7,408.1
		L140.7,408.1L140.7,408.1L140.7,408.1z M140.8,408L140.8,408L140.8,408L140.8,408z M140.8,407.9L140.8,407.9L140.8,407.9
		L140.8,407.9z M140.8,407.8c0-0.2,0-0.4,0-0.6c0-0.2,0-0.3,0-0.5h0.1c0,0.1,0,0.3,0,0.4C140.8,407.4,140.8,407.6,140.8,407.8
		L140.8,407.8z M140.8,406.8C140.8,406.7,140.8,406.7,140.8,406.8C140.8,406.7,140.8,406.7,140.8,406.8L140.8,406.8z M140.8,406.7
		L140.8,406.7L140.8,406.7L140.8,406.7z M140.8,406.5L140.8,406.5c0,0,0-0.1,0.1-0.1C140.8,406.5,140.8,406.5,140.8,406.5
		L140.8,406.5z M140.8,406.4c0-0.3,0-0.7,0-1l0,0l0,0c0,0.3,0,0.6,0,0.9C140.8,406.4,140.8,406.4,140.8,406.4z M140.8,404.8
		c0-0.2,0-0.4,0-0.6c0.1,0.1,0.1,0.1,0.2,0.2c0,0,0,0,0,0.1C140.9,404.6,140.9,404.7,140.8,404.8z M141,404.6c0,0.2,0,0.4,0.1,0.5
		l-0.2,0.1c0-0.1,0-0.1,0-0.2C140.9,404.8,140.9,404.7,141,404.6z M140.9,407.2c0-0.1,0-0.3,0-0.4c0.1,0.1,0.2,0.1,0.2,0.2v0.1
		c0,0.1,0,0.1,0,0.2c-0.1,0.1-0.2,0.3-0.3,0.4C140.9,407.5,140.9,407.4,140.9,407.2z M140.9,406.8l0.2-0.1c0,0.1,0,0.1,0,0.2
		C141,406.8,141,406.8,140.9,406.8z M141.1,405.1c0-0.2,0-0.4-0.1-0.6c0.1,0.1,0.3,0.3,0.4,0.4v0.1L141.1,405.1z M141.5,405.1
		L141.5,405.1C141.5,405.2,141.5,405.2,141.5,405.1l-0.3,0.2v-0.1L141.5,405.1z M141.4,405.2c-0.1,0.1-0.2,0.3-0.2,0.5l0,0
		c0-0.1,0-0.2,0-0.3L141.4,405.2z M141.2,405.8c0.1,0.1,0.3,0.2,0.4,0.3c0,0.1,0,0.1,0,0.2l-0.4,0.1
		C141.2,406.2,141.2,406,141.2,405.8L141.2,405.8z M141.2,406.5l0.4-0.1v0.1H141.2C141.2,406.6,141.2,406.6,141.2,406.5z
		 M141.6,399.6c-0.1,0.2-0.3,0.4-0.5,0.6l0.1-0.5L141.6,399.6L141.6,399.6z M141.2,399.7l-0.4,0.1c0,0,0,0,0-0.1H141.2L141.2,399.7z
		 M140.7,400l0.3,0.3c-0.2,0.2-0.4,0.4-0.5,0.6C140.5,400.7,140.6,400.4,140.7,400z M140.6,401.6L140.6,401.6L140.6,401.6
		L140.6,401.6z M140.5,401.6v0.1v0.1C140.5,401.7,140.5,401.7,140.5,401.6L140.5,401.6z M140.5,402.1c0,0.1,0.1,0.3,0.1,0.4l0,0
		C140.6,402.4,140.6,402.3,140.5,402.1L140.5,402.1z M140.7,402.7c0,0.1,0.1,0.2,0.1,0.4l-0.1-0.1
		C140.6,402.8,140.6,402.8,140.7,402.7L140.7,402.7z M140.8,403.1C140.8,403.1,140.8,403.2,140.8,403.1c0,0.1,0,0.2,0,0.3
		c0-0.1,0-0.3,0-0.4C140.7,403,140.7,403.1,140.8,403.1z M140.7,403.9L140.7,403.9C140.7,403.9,140.7,403.8,140.7,403.9
		c-0.1-0.1,0-0.2,0-0.2S140.7,403.8,140.7,403.9z M140.7,408.2L140.7,408.2c0,0.3,0,0.6,0,0.9h-0.1
		C140.7,408.7,140.7,408.4,140.7,408.2z M141,409L141,409l-0.2,0.1l0,0L141,409z M140.9,409l0.1-0.1C141,408.9,141,408.9,140.9,409
		L140.9,409z M140.8,412.3l0.1-0.3L140.8,412.3L140.8,412.3z M140.8,412.4L140.8,412.4l-0.1,0.1L140.8,412.4L140.8,412.4z
		 M140.7,412.3l-0.2,0.1c0-0.1,0-0.2,0.1-0.3s0.3-0.3,0.4-0.5l0,0L140.7,412.3z M140.4,412.9L140.4,412.9l-0.1,0.5
		C140.3,413.2,140.3,413.1,140.4,412.9z M140.3,412.8C140.3,412.7,140.3,412.7,140.3,412.8L140.3,412.8
		C140.3,412.7,140.3,412.7,140.3,412.8z M140.5,413l0.1,0.1c-0.1,0.1-0.2,0.2-0.3,0.3L140.5,413z M140.4,412.9
		C140.4,412.9,140.4,412.8,140.4,412.9c-0.1-0.1,0-0.2,0-0.2h0.1L140.4,412.9z M140.4,412.6C140.4,412.6,140.4,412.5,140.4,412.6
		l0.2-0.1v0.1H140.4z M140.7,411.3c0.1,0.1,0.1,0.1,0.2,0.2c-0.1,0.1-0.2,0.3-0.3,0.4C140.6,411.7,140.6,411.5,140.7,411.3z
		 M140.6,411.2l-0.1-0.1l0.1-0.1C140.6,411.1,140.6,411.1,140.6,411.2z M140.9,411.5c-0.1-0.1-0.2-0.2-0.2-0.2c0-0.1,0-0.2,0-0.3
		l0.3-0.1L140.9,411.5C141,411.5,141,411.5,140.9,411.5z M140.8,410.9L140.8,410.9l0.3-0.2v0.1L140.8,410.9z M140.8,410.7
		c0-0.1,0-0.2,0.1-0.3s0.2-0.3,0.3-0.4l-0.1,0.6L140.8,410.7z M140.9,410.2c0-0.2,0.1-0.3,0.1-0.5c0.1,0,0.1,0.1,0.2,0.1
		L140.9,410.2z M140.9,409.4c0,0.1,0,0.1,0,0.2l-0.2-0.1L140.9,409.4z M140.7,409.1L140.7,409.1L140.7,409.1
		C140.6,409.1,140.6,409.1,140.7,409.1L140.7,409.1z M140.7,409.6c0.1,0,0.1,0.1,0.2,0.1c0,0.2-0.1,0.4-0.1,0.7l-0.3,0.3
		C140.6,410.3,140.6,409.9,140.7,409.6z M140.7,410.5c0,0.1,0,0.2,0,0.2l-0.2,0.1C140.6,410.7,140.6,410.6,140.7,410.5z
		 M140.7,410.9L140.7,410.9l-0.2,0.2l0,0c0,0,0,0,0-0.1L140.7,410.9z M140.4,412.2c0,0.1,0,0.1,0,0.2l-0.2,0.1
		C140.3,412.4,140.3,412.3,140.4,412.2z M140.4,412.6C140.4,412.6,140.3,412.6,140.4,412.6l-0.1,0.1l0,0l0,0L140.4,412.6z
		 M140.3,412.8c-0.1,0.3-0.1,0.6-0.2,0.9c-0.1,0.1-0.1,0.1-0.2,0.2c0.1-0.4,0.1-0.8,0.2-1.2l0,0
		C140.2,412.8,140.2,412.8,140.3,412.8z M140.5,421.4c0-0.1,0-0.2,0-0.3l0.4-0.1C140.8,421.1,140.7,421.3,140.5,421.4
		C140.6,421.4,140.5,421.4,140.5,421.4z M140.6,421.5C140.5,421.5,140.5,421.6,140.6,421.5C140.5,421.6,140.5,421.6,140.6,421.5
		C140.5,421.5,140.5,421.5,140.6,421.5C140.5,421.5,140.5,421.5,140.6,421.5z M140.5,421.1C140.5,421,140.5,421,140.5,421.1l0.4-0.2
		v0.1L140.5,421.1z M140.9,414.4c-0.1,0.2-0.1,0.4-0.2,0.6c-0.1-0.1-0.2-0.1-0.2-0.2l0.5-0.5L140.9,414.4z M140.9,420.5
		c-0.1-0.1-0.2-0.2-0.4-0.3c0.1-0.2,0.2-0.4,0.3-0.5C140.8,419.9,140.8,420.2,140.9,420.5z M140.2,421c0-0.1,0-0.1,0-0.2
		c0.1-0.1,0.1-0.3,0.2-0.4c0,0.2,0,0.3,0,0.5L140.2,421z M140.4,421C140.4,421,140.4,421.1,140.4,421l-0.2,0.2v-0.1L140.4,421z
		 M140.2,420.7c0-0.3,0-0.5,0-0.8c0.1,0.1,0.1,0.1,0.2,0.2c0,0.1,0,0.1,0,0.2C140.3,420.4,140.2,420.6,140.2,420.7z M140.2,419.9
		l0.2-0.1c0,0.1,0,0.2,0,0.3C140.3,420,140.2,419.9,140.2,419.9z M140.2,419.8L140.2,419.8l0.2-0.1v0.1H140.2z M140.2,418.5
		c0,0.1,0,0.2,0,0.3c-0.1-0.1-0.1-0.1-0.2-0.2l0,0L140.2,418.5z M140.1,418.5C140.1,418.5,140.1,418.4,140.1,418.5l0.1-0.1
		c0,0,0,0,0,0.1H140.1z M140.2,417.7c0.1,0.1,0.2,0.3,0.3,0.4v0.1l-0.2,0.1C140.2,418.1,140.2,417.9,140.2,417.7z M140.2,417.3
		l0.2,0.6l0,0c-0.1-0.1-0.2-0.2-0.3-0.4l0,0C140.2,417.5,140.2,417.4,140.2,417.3z M140.2,417.1L140.2,417.1L140.2,417.1
		C140.2,417,140.2,417.1,140.2,417.1L140.2,417.1z M140.2,417.2L140.2,417.2c0,0,0,0.1,0.1,0.2L140.2,417.2z M140.5,418.3
		L140.5,418.3L140.5,418.3l-0.2,0.2v-0.1L140.5,418.3z M140.5,418.4c0,0.1-0.1,0.2-0.1,0.4c0-0.1,0-0.2,0-0.3L140.5,418.4z
		 M140.5,418.4c0,0.1,0.1,0.3,0.1,0.4c0,0.1,0.1,0.3,0.1,0.5c-0.1-0.1-0.2-0.2-0.3-0.4C140.4,418.7,140.5,418.5,140.5,418.4z
		 M140.7,415c0,0.1-0.1,0.2-0.1,0.3l-0.2,0.1l0,0l0.1-0.6L140.7,415z M140.4,414.7c-0.1-0.1-0.2-0.2-0.4-0.3v-0.1l0.4-0.1V414.7z
		 M140.3,415.4h-0.4l0.5-0.6L140.3,415.4z M140,416.3c0,0.1,0.1,0.2,0.1,0.3l-0.1-0.1V416.3L140,416.3z M139.9,416.3L139.9,416.3
		c0-0.2,0-0.2,0-0.3l0,0C140,416.1,140,416.2,139.9,416.3L139.9,416.3z M140.1,416.8v0.1l0,0l-0.1-0.3
		C140.1,416.7,140.1,416.8,140.1,416.8z M139.9,416.3L139.9,416.3L139.9,416.3L139.9,416.3z M139.9,416.4L139.9,416.4L139.9,416.4
		L139.9,416.4z M140,416.6l0.1,0.4H140c0-0.2-0.1-0.3-0.1-0.5C139.9,416.5,140,416.5,140,416.6z M140.1,417v0.1c0,0.1,0,0.2-0.1,0.2
		C140.1,417.3,140.1,417.2,140.1,417L140.1,417z M140.2,418.3h-0.1c0-0.1,0-0.2,0-0.3s0-0.2,0.1-0.2
		C140.1,417.9,140.2,418.1,140.2,418.3z M140,418.4C140,418.5,140,418.5,140,418.4L140,418.4C140,418.5,140,418.5,140,418.4
		C140,418.5,140,418.4,140,418.4L140,418.4z M140,418.6L140,418.6c0.1,0.3,0.1,0.5,0.1,0.8c0,0.1,0,0.1-0.1,0.1
		C140,419.2,140,418.9,140,418.6L140,418.6z M140.1,419.9L140.1,419.9L140.1,419.9c0.1,0.3,0.1,0.6,0.1,0.9c0,0,0,0.1-0.1,0.1
		C140.1,420.5,140.1,420.2,140.1,419.9z M140.1,421.2L140.1,421.2L140.1,421.2L140.1,421.2z M140.1,419.8L140.1,419.8L140.1,419.8
		L140.1,419.8z M140.1,419.8L140.1,419.8L140.1,419.8L140.1,419.8z M140.1,419.7C140.1,419.6,140.1,419.6,140.1,419.7
		c0-0.1,0-0.1,0.1-0.2C140.1,419.5,140.1,419.6,140.1,419.7L140.1,419.7z M140,422.5L140,422.5C140.1,422.5,140.1,422.5,140,422.5
		L140,422.5L140,422.5z M140.1,422.5L140.1,422.5L140.1,422.5L140.1,422.5z M140.1,422.4C140.1,422.3,140.1,422.3,140.1,422.4
		C140.1,422.3,140.1,422.3,140.1,422.4L140.1,422.4z M140.1,422.3c0-0.2,0-0.4,0-0.6c0-0.2,0-0.3,0-0.5h0.1c0,0.1,0,0.3,0,0.4
		C140.1,421.8,140.1,422,140.1,422.3C140.1,422.2,140.1,422.3,140.1,422.3z M140.1,421.1L140.1,421.1L140.1,421.1L140.1,421.1z
		 M140.1,421L140.1,421c0,0,0-0.1,0.1-0.1C140.1,420.9,140.1,420.9,140.1,421L140.1,421z M140.1,419.3c0-0.2,0-0.4,0-0.6
		c0,0.1,0.1,0.1,0.2,0.2v0.1C140.2,419,140.2,419.2,140.1,419.3z M140.3,419c0,0.2,0,0.4,0.1,0.5l-0.2,0.1c0-0.1,0-0.1,0-0.2
		C140.2,419.3,140.2,419.2,140.3,419z M140.2,421.6c0-0.1,0-0.3,0-0.4c0.1,0,0.2,0.1,0.3,0.2v0.1c0,0.1,0,0.1,0,0.2
		c-0.1,0.1-0.2,0.3-0.3,0.4C140.2,422,140.2,421.8,140.2,421.6z M140.2,421.2l0.2-0.1c0,0.1,0,0.1,0,0.2
		C140.3,421.3,140.3,421.2,140.2,421.2z M140.4,419.5c0-0.2,0-0.4-0.1-0.6c0.1,0.1,0.3,0.3,0.4,0.4v0.1L140.4,419.5z M140.8,419.5
		C140.8,419.6,140.8,419.6,140.8,419.5C140.8,419.6,140.8,419.6,140.8,419.5l-0.3,0.2v-0.1L140.8,419.5z M140.7,419.7
		c-0.1,0.1-0.2,0.3-0.2,0.5l0,0c0-0.1,0-0.2,0-0.3L140.7,419.7z M140.5,420.2c0.1,0.1,0.3,0.2,0.4,0.3c0,0.1,0,0.1,0,0.2l-0.4,0.1
		C140.5,420.7,140.5,420.5,140.5,420.2L140.5,420.2z M140.9,414.1c-0.1,0.2-0.3,0.4-0.5,0.6l0.1-0.5L140.9,414.1L140.9,414.1z
		 M140.5,414.1l-0.4,0.1c0,0,0,0,0-0.1H140.5L140.5,414.1z M140,414.5l0.3,0.3c-0.2,0.2-0.4,0.4-0.5,0.6
		C139.8,415.1,139.9,414.8,140,414.5z M139.9,416L139.9,416L139.9,416L139.9,416z M139.8,416v0.1v0.1
		C139.8,416.2,139.8,416.1,139.8,416L139.8,416z M139.8,416.6c0,0.1,0.1,0.3,0.1,0.4l0,0C139.9,416.9,139.9,416.7,139.8,416.6
		L139.8,416.6z M140,417.1c0,0.1,0.1,0.2,0.1,0.4l-0.1-0.1C140,417.3,139.9,417.2,140,417.1L140,417.1z M140.1,417.6L140.1,417.6
		c0,0.1,0,0.2,0,0.3c0-0.1,0-0.3,0-0.4C140,417.5,140,417.5,140.1,417.6z M140,418.3L140,418.3L140,418.3c-0.1-0.1,0-0.2,0-0.2
		C140,418.2,140,418.2,140,418.3z M140,422.6L140,422.6c0,0.3,0,0.6,0,0.9h-0.1C140,423.2,140,422.9,140,422.6z M140.3,423.5
		L140.3,423.5l-0.2,0.1l0,0L140.3,423.5z M140.2,423.4l0.1-0.1C140.3,423.3,140.3,423.3,140.2,423.4L140.2,423.4z M140.1,426.7
		l0.1-0.3L140.1,426.7L140.1,426.7z M140.1,426.9L140.1,426.9L140,427L140.1,426.9L140.1,426.9z M140,426.7l-0.2,0.1
		c0-0.1,0-0.2,0.1-0.3s0.3-0.3,0.4-0.5l0,0L140,426.7z M139.7,427.4L139.7,427.4l-0.1,0.5C139.6,427.7,139.6,427.5,139.7,427.4z
		 M139.6,427.2L139.6,427.2L139.6,427.2C139.6,427.1,139.6,427.2,139.6,427.2z M139.8,427.5l0.1,0.1c-0.1,0.1-0.2,0.2-0.3,0.4
		L139.8,427.5z M139.7,427.3L139.7,427.3c-0.1-0.1,0-0.2,0-0.2h0.1L139.7,427.3z M139.7,427L139.7,427l0.2-0.1v0.1H139.7z
		 M140,425.8c0.1,0.1,0.1,0.1,0.2,0.2c-0.1,0.1-0.2,0.3-0.3,0.4C139.9,426.2,139.9,426,140,425.8z M139.9,425.6l-0.1-0.1l0.2-0.1
		C140,425.5,139.9,425.6,139.9,425.6z M140.2,425.9c-0.1-0.1-0.2-0.2-0.2-0.2c0-0.1,0-0.2,0-0.3l0.3-0.1L140.2,425.9
		C140.3,425.9,140.3,425.9,140.2,425.9z M140.1,425.4C140.1,425.3,140.1,425.3,140.1,425.4l0.3-0.2v0.1L140.1,425.4z M140.1,425.2
		c0-0.1,0-0.2,0.1-0.3s0.2-0.3,0.3-0.4l-0.1,0.6L140.1,425.2z M140.2,424.7c0-0.2,0.1-0.3,0.1-0.5c0.1,0,0.1,0.1,0.2,0.1
		L140.2,424.7z M140.2,423.9c0,0.1,0,0.1,0,0.2L140,424l0,0L140.2,423.9z M140,423.5C140,423.6,140,423.6,140,423.5L140,423.5
		C139.9,423.6,139.9,423.6,140,423.5L140,423.5z M140.2,424.1c0,0.2-0.1,0.4-0.1,0.7l-0.3,0.3c0.1-0.4,0.1-0.7,0.2-1.1
		C140,424,140.1,424.1,140.2,424.1z M140,425c0,0.1,0,0.2,0,0.2l-0.2,0.1C139.9,425.2,139.9,425.1,140,425z M140,425.3
		C140,425.3,140,425.4,140,425.3l-0.2,0.2l0,0c0,0,0,0,0-0.1L140,425.3z M139.7,426.6c0,0.1,0,0.1,0,0.2l-0.2,0.1
		C139.6,426.8,139.6,426.7,139.7,426.6z M139.7,427C139.7,427,139.6,427,139.7,427l-0.1,0.1l0,0l0,0L139.7,427z M139.6,427.3
		c-0.1,0.3-0.1,0.6-0.2,0.9c-0.1,0.1-0.1,0.1-0.2,0.2c0.1-0.4,0.2-0.8,0.2-1.2l0,0C139.5,427.2,139.5,427.2,139.6,427.3z
		 M139.3,428.9l0.3,0.3c-0.2,0.2-0.4,0.4-0.5,0.6C139.1,429.6,139.2,429.3,139.3,428.9z M139.3,428.8L139.3,428.8l0.4-0.2l-0.1,0.5
		C139.5,429,139.4,428.9,139.3,428.8z M139.4,428.7C139.4,428.7,139.4,428.6,139.4,428.7l0.4-0.2v0.1L139.4,428.7z M139.4,428.5
		c0-0.1,0-0.1,0-0.1l0.1-0.2c0.1-0.1,0.3-0.3,0.4-0.5l-0.1,0.7L139.4,428.5z M139.8,427.4l0.1-0.4h0.1l-0.1,0.5
		C139.9,427.5,139.9,427.4,139.8,427.4z M140.1,427l0.4-0.1c-0.1,0.2-0.3,0.4-0.5,0.6L140.1,427z M140.5,426.9l-0.2,0.9
		c-0.1-0.1-0.2-0.2-0.3-0.3C140.2,427.3,140.4,427.1,140.5,426.9z M140.1,426.9L140.1,426.9l0.5-0.2v0.1L140.1,426.9z M140.2,426.7
		l0.1-0.5v-0.1c0.1,0.1,0.2,0.2,0.3,0.3v0.1L140.2,426.7z M140.3,426l0.1-0.2c0.1-0.2,0.3-0.3,0.4-0.5l-0.2,1
		C140.6,426.2,140.4,426.1,140.3,426z M140.3,425.8l0.1-0.5l0.2-0.1L140.3,425.8z M140.4,425.2L140.4,425.2l0.2-0.2v0.1L140.4,425.2
		z M140.4,425l0.1-0.7l0,0c0.1,0.1,0.2,0.1,0.3,0.2l-0.2,0.4L140.4,425z M140.5,424.2l-0.2-0.1c0-0.1,0-0.2,0-0.3l0.3-0.1
		L140.5,424.2z M140.1,423.4L140.1,423.4c0-0.3,0-0.6,0-0.9l0,0l0.2,0.1c0,0.2,0,0.3,0,0.5C140.2,423.3,140.2,423.3,140.1,423.4z
		 M140.2,422.5l0.2-0.1c0,0.1,0,0.1,0,0.2C140.3,422.6,140.2,422.6,140.2,422.5z M140.2,422.5C140.1,422.5,140.1,422.5,140.2,422.5
		C140.1,422.5,140.1,422.5,140.2,422.5l0.2-0.2v0.1L140.2,422.5z M140.1,422.3L140.1,422.3c0.1-0.2,0.2-0.4,0.3-0.5
		c0,0.1,0,0.3,0,0.4L140.1,422.3z M140.4,422.8l0.2,0.1c-0.1,0.1-0.1,0.1-0.2,0.2C140.4,423,140.4,422.9,140.4,422.8z M140.4,422.7
		c0-0.1,0-0.2,0-0.2l0.6-0.2l0,0c-0.1,0.1-0.3,0.3-0.4,0.5C140.6,422.8,140.5,422.7,140.4,422.7z M140.5,422.4L140.5,422.4l0.6-0.3
		c0,0,0,0,0,0.1L140.5,422.4z M140.5,422.2c0-0.2,0-0.4,0-0.5c0-0.1,0.1-0.1,0.1-0.2c0.1,0.1,0.3,0.2,0.4,0.3c0,0.1,0,0.2,0,0.2
		L140.5,422.2z M141,413.9L141,413.9L141,413.9L141,413.9z M141,421.7c-0.1-0.1-0.2-0.2-0.4-0.3c0.1-0.2,0.2-0.3,0.3-0.5
		C141,421.3,141,421.5,141,421.7z M140.9,414l-0.4,0.1V414H140.9L140.9,414z M140.5,413.9l-0.4,0.1v-0.1l0.1-0.2
		c0.1-0.1,0.3-0.3,0.4-0.5L140.5,413.9z M140.5,412.9l0.1-0.4h0.1l-0.1,0.5C140.6,413,140.6,413,140.5,412.9z M140.8,412.5l0.4-0.1
		c-0.1,0.2-0.3,0.4-0.5,0.6L140.8,412.5z M141.2,412.5l-0.2,0.9c-0.1-0.1-0.2-0.2-0.3-0.3C140.9,412.9,141.1,412.7,141.2,412.5z
		 M140.8,412.5L140.8,412.5l0.5-0.2v0.1L140.8,412.5z M140.9,412.2l0.1-0.5v-0.1c0.1,0.1,0.2,0.2,0.3,0.3v0.1L140.9,412.2z
		 M141,411.6l0.1-0.2c0.2-0.2,0.3-0.3,0.4-0.5l-0.2,1C141.3,411.8,141.1,411.7,141,411.6z M141,411.4l0.1-0.5l0.2-0.1L141,411.4z
		 M141.1,410.8L141.1,410.8l0.2-0.2v0.1L141.1,410.8z M141.1,410.6l0.1-0.7l0,0c0.1,0.1,0.2,0.1,0.3,0.2l-0.2,0.4L141.1,410.6z
		 M141.2,409.8l-0.2-0.1c0-0.1,0-0.2,0-0.3l0.3-0.1L141.2,409.8z M140.8,409L140.8,409c0-0.3,0-0.6,0-0.9l0,0l0.2,0.1
		c0,0.2,0,0.3,0,0.5C140.9,408.8,140.9,408.9,140.8,409z M140.9,408.1l0.2-0.1c0,0.1,0,0.1,0,0.2C141,408.2,140.9,408.1,140.9,408.1
		z M140.9,408.1C140.8,408.1,140.8,408.1,140.9,408.1C140.8,408,140.8,408,140.9,408.1l0.2-0.2v0.1L140.9,408.1z M140.8,407.9v-0.1
		c0.1-0.1,0.2-0.3,0.3-0.4c0,0.1,0,0.3,0,0.4L140.8,407.9z M141.1,408.3l0.2,0.1c-0.1,0.1-0.1,0.1-0.2,0.2
		C141.1,408.5,141.1,408.4,141.1,408.3z M141.1,408.3c0-0.1,0-0.2,0-0.2l0.6-0.2l0,0c-0.1,0.1-0.3,0.3-0.4,0.5
		C141.3,408.3,141.2,408.3,141.1,408.3z M141.2,408C141.2,407.9,141.2,407.9,141.2,408l0.6-0.3v0.1L141.2,408z M141.2,407.8
		c0-0.2,0-0.4,0-0.5c0-0.1,0.1-0.1,0.1-0.2c0.1,0.1,0.3,0.2,0.4,0.3c0,0.1,0,0.2,0,0.2L141.2,407.8z M141.7,399.5L141.7,399.5
		L141.7,399.5L141.7,399.5z M141.7,407.3c-0.1-0.1-0.2-0.2-0.4-0.3c0.1-0.2,0.2-0.3,0.3-0.5C141.7,406.8,141.7,407.1,141.7,407.3z
		 M141.6,399.5l-0.4,0.1v-0.1H141.6L141.6,399.5z M141.2,399.4l-0.4,0.1v-0.1l0.1-0.2c0.1-0.1,0.3-0.3,0.4-0.5L141.2,399.4z
		 M141.2,398.5l0.1-0.4h0.1l-0.1,0.5C141.3,398.6,141.3,398.5,141.2,398.5z M141.5,398.1l0.4-0.1c-0.1,0.2-0.3,0.4-0.5,0.6
		L141.5,398.1z M141.9,398l-0.2,0.9c-0.1-0.1-0.2-0.2-0.3-0.3C141.6,398.4,141.8,398.2,141.9,398z M141.5,398L141.5,398l0.5-0.2v0.1
		L141.5,398z M141.6,397.8l0.1-0.5v-0.1c0.1,0.1,0.2,0.2,0.3,0.3v0.1L141.6,397.8z M141.7,397.1l0.1-0.2c0.1-0.2,0.3-0.3,0.4-0.5
		l-0.2,1C142,397.3,141.8,397.2,141.7,397.1z M141.7,396.9l0.1-0.5l0.2-0.1L141.7,396.9z M141.8,396.3L141.8,396.3l0.2-0.2v0.1
		L141.8,396.3z M141.8,396.1l0.1-0.7l0,0c0.1,0.1,0.2,0.1,0.3,0.2L142,396L141.8,396.1z M141.9,395.4l-0.2-0.1c0-0.1,0-0.2,0-0.3
		l0.3-0.1L141.9,395.4z M141.5,394.5L141.5,394.5c0-0.3,0-0.6,0-0.9l0,0l0.2,0.1c0,0.2,0,0.3-0.1,0.5
		C141.6,394.4,141.6,394.5,141.5,394.5z M141.6,393.7l0.2-0.1c0,0.1,0,0.1,0,0.2C141.7,393.7,141.6,393.7,141.6,393.7z M141.5,393.6
		L141.5,393.6L141.5,393.6l0.2-0.2v0.1L141.5,393.6z M141.5,393.4L141.5,393.4c0.1-0.2,0.2-0.4,0.3-0.5c0,0.1,0,0.3,0,0.4
		L141.5,393.4z M141.8,393.9l0.1,0.1c-0.1,0.1-0.1,0.1-0.2,0.2C141.8,394.1,141.8,394,141.8,393.9z M141.8,393.8c0-0.1,0-0.2,0-0.2
		l0.6-0.2l0,0c-0.1,0.1-0.3,0.3-0.4,0.5C142,393.9,141.9,393.8,141.8,393.8z M141.8,390.9l0.3-0.1c-0.1,0.1-0.2,0.3-0.2,0.5l0,0
		C141.9,391.1,141.8,391,141.8,390.9z M142.4,393.3l-0.6,0.2v-0.1L142.4,393.3L142.4,393.3z M142.4,393.2l-0.5,0.2
		c0-0.2,0-0.4,0-0.5s0.1-0.1,0.1-0.2c0.1,0.1,0.3,0.2,0.4,0.3C142.4,393,142.4,393.1,142.4,393.2z M141.9,392.7L141.9,392.7
		c0-0.1,0-0.1,0-0.1s0,0,0.1,0C141.9,392.6,141.9,392.7,141.9,392.7z M142.4,392.9c-0.1-0.1-0.2-0.2-0.4-0.3
		c0.1-0.2,0.2-0.3,0.3-0.5C142.4,392.4,142.4,392.6,142.4,392.9z M142,392.6C142,392.5,141.9,392.5,142,392.6
		c-0.1-0.2-0.1-0.3-0.1-0.4l0.4-0.1C142.2,392.2,142.1,392.4,142,392.6z M142.3,392l-0.4,0.1V392H142.3L142.3,392z M142.3,391.8
		l-0.4,0.1c0-0.2,0-0.4,0-0.6l0,0c0.1,0.1,0.3,0.2,0.4,0.3C142.3,391.7,142.3,391.8,142.3,391.8z M142.3,391.6
		c-0.1-0.1-0.2-0.2-0.4-0.3c0.1-0.2,0.2-0.3,0.3-0.5C142.2,391,142.2,391.3,142.3,391.6z M142.2,390.7L142.2,390.7l-0.3,0.1
		c0,0,0,0,0-0.1H142.2L142.2,390.7z M142.1,390.5l-0.3,0.1c0-0.2,0-0.4-0.1-0.6c0.1,0.1,0.3,0.3,0.4,0.4
		C142.1,390.5,142.1,390.5,142.1,390.5z M142,389.9c0,0.1,0.1,0.3,0.1,0.5c-0.1-0.1-0.2-0.2-0.4-0.4c0.1-0.2,0.1-0.3,0.2-0.5
		C142,389.6,142,389.8,142,389.9z M141.9,389.4L141.9,389.4l-0.2,0.1v-0.1H141.9L141.9,389.4z M141.9,389.3l-0.2,0.1
		c0-0.2-0.1-0.4-0.1-0.5C141.7,388.9,141.8,389.1,141.9,389.3C141.9,389.2,141.9,389.2,141.9,389.3z M141.6,388.3
		c0,0.1,0,0.1,0.1,0.2L141.6,388.3L141.6,388.3z M141.8,389C141.8,389,141.8,389.1,141.8,389c-0.1-0.1-0.2-0.2-0.3-0.3l0,0
		c0-0.1,0-0.2,0.1-0.3L141.8,389z M141.6,388.1C141.6,388.2,141.6,388.2,141.6,388.1C141.6,388.2,141.6,388.2,141.6,388.1
		L141.6,388.1L141.6,388.1z M141.6,388L141.6,388l-0.1-0.2l0.1,0.1C141.5,387.9,141.6,388,141.6,388z M141.5,387.8l-0.1-0.1
		l-0.1-0.2h0.1C141.4,387.5,141.5,387.6,141.5,387.8z M141.3,387.1L141.3,387.1c0,0.1,0.1,0.2,0.1,0.2h-0.1v-0.1
		C141.3,387.2,141.3,387.2,141.3,387.1z M141.3,387.4L141.3,387.4L141.3,387.4L141.3,387.4z M141.3,387.1L141.3,387.1L141.3,387.1
		L141.3,387.1z M141.2,387.1v0.1v0.1C141.2,387.3,141.2,387.2,141.2,387.1L141.2,387.1z M141.1,387.1
		C141.1,387.2,141.1,387.2,141.1,387.1L141.1,387.1L141.1,387.1z M141.1,387.2l0.1,0.1v0.1h-0.1
		C141.1,387.4,141.1,387.3,141.1,387.2z M141.1,387.5L141.1,387.5c0.1,0,0.1,0.1,0.1,0.1v0.2C141.1,387.7,141.1,387.6,141.1,387.5z
		 M141.2,388.1V388c0-0.1,0-0.1,0-0.2C141.2,387.9,141.3,388,141.2,388.1L141.2,388.1z M141.2,388.3L141.2,388.3
		c0.1,0,0.1,0.1,0.1,0.2C141.3,388.4,141.3,388.3,141.2,388.3L141.2,388.3z M141.3,388.4C141.3,388.4,141.3,388.5,141.3,388.4
		c0.1,0.3,0.1,0.5,0.1,0.6s0,0.1,0,0.2C141.3,388.9,141.3,388.7,141.3,388.4z M141.3,395.1L141.3,395.1c0,0.4-0.1,0.8-0.1,1.2
		l-0.1,0.1C141.2,395.9,141.2,395.5,141.3,395.1z M141.1,396.6L141.1,396.6L141.1,396.6L141.1,396.6z M141.1,396.7L141.1,396.7
		c0,0.4-0.1,0.8-0.2,1.2c0,0,0,0-0.1,0.1C140.9,397.6,141,397.1,141.1,396.7z M140.8,398.2L140.8,398.2L140.8,398.2L140.8,398.2
		L140.8,398.2z M140.8,398.3L140.8,398.3c0,0.4-0.1,0.8-0.2,1.2c0,0,0,0-0.1,0.1C140.6,399.2,140.7,398.8,140.8,398.3z M140.5,399.8
		L140.5,399.8C140.5,399.9,140.5,399.9,140.5,399.8L140.5,399.8C140.5,399.9,140.5,399.9,140.5,399.8z M140.3,400.9L140.3,400.9
		v-0.2C140.3,400.8,140.3,400.9,140.3,400.9z M140.4,399.9L140.4,399.9c0,0.1,0,0.3,0,0.4l-0.1,0.3
		C140.4,400.4,140.4,400.2,140.4,399.9z M140.4,400.6l0.2-0.6l0,0c-0.1,0.4-0.2,0.7-0.2,1h-0.1C140.3,400.8,140.4,400.7,140.4,400.6
		z M140.4,401.7L140.4,401.7L140.4,401.7C140.4,401.6,140.4,401.6,140.4,401.7z M140.4,401.7l0.1,0.1v0.1h-0.1
		C140.4,401.8,140.4,401.8,140.4,401.7z M140.4,402L140.4,402c0.1,0,0.1,0.1,0.1,0.1v0.2C140.4,402.2,140.4,402.1,140.4,402z
		 M140.5,402.6v-0.1c0-0.1,0-0.1,0-0.2C140.5,402.4,140.6,402.5,140.5,402.6L140.5,402.6z M140.5,402.7L140.5,402.7
		c0.1,0,0.1,0.1,0.1,0.2C140.6,402.8,140.6,402.8,140.5,402.7L140.5,402.7z M140.6,402.9L140.6,402.9c0.1,0.3,0.1,0.5,0.1,0.6
		s0,0.1,0,0.2C140.6,403.4,140.6,403.1,140.6,402.9z M140.6,409.5L140.6,409.5c0,0.4-0.1,0.8-0.1,1.2l-0.1,0.1
		C140.5,410.4,140.5,409.9,140.6,409.5z M140.4,411L140.4,411L140.4,411C140.4,411.1,140.4,411,140.4,411z M140.4,411.1L140.4,411.1
		c0,0.4-0.1,0.8-0.2,1.3c0,0,0,0-0.1,0.1C140.2,412,140.3,411.6,140.4,411.1z M140.1,412.6C140.1,412.7,140.1,412.7,140.1,412.6
		L140.1,412.6L140.1,412.6C140.1,412.7,140.1,412.7,140.1,412.6z M140.1,412.7L140.1,412.7c0,0.4-0.1,0.8-0.2,1.2c0,0,0,0-0.1,0.1
		C139.9,413.6,140,413.2,140.1,412.7z M139.8,414.3L139.8,414.3L139.8,414.3L139.8,414.3L139.8,414.3z M139.6,415.4L139.6,415.4
		v-0.2C139.6,415.3,139.6,415.3,139.6,415.4z M139.8,414.4L139.8,414.4c0,0.1,0,0.2,0,0.4l-0.1,0.3
		C139.7,414.8,139.7,414.6,139.8,414.4z M139.7,415l0.2-0.6l0,0c-0.1,0.4-0.2,0.7-0.2,1h-0.1C139.6,415.3,139.7,415.2,139.7,415z
		 M139.7,416.1L139.7,416.1L139.7,416.1L139.7,416.1z M139.7,416.1l0.1,0.1v0.1h-0.1C139.7,416.3,139.7,416.2,139.7,416.1z
		 M139.7,416.4L139.7,416.4c0.1,0,0.1,0.1,0.1,0.1v0.2C139.8,416.6,139.7,416.5,139.7,416.4z M139.8,417v-0.1c0-0.1,0-0.1,0-0.2
		C139.8,416.8,139.9,416.9,139.8,417L139.8,417z M139.8,417.1L139.8,417.1c0.1,0,0.1,0.1,0.1,0.2
		C139.9,417.3,139.9,417.2,139.8,417.1C139.8,417.2,139.8,417.2,139.8,417.1z M139.9,417.3C139.9,417.3,139.9,417.4,139.9,417.3
		c0.1,0.3,0.1,0.5,0.1,0.6s0,0.1,0,0.2C139.9,417.8,139.9,417.6,139.9,417.3z M139.9,424L139.9,424c0,0.4-0.1,0.8-0.1,1.2l-0.1,0.1
		C139.8,424.8,139.8,424.4,139.9,424z M139.7,425.5L139.7,425.5L139.7,425.5L139.7,425.5z M139.7,425.6L139.7,425.6
		c0,0.4-0.1,0.8-0.2,1.2c0,0,0,0-0.1,0.1C139.5,426.4,139.6,426,139.7,425.6z M139.4,427.1L139.4,427.1L139.4,427.1L139.4,427.1
		L139.4,427.1z M139.4,427.2L139.4,427.2c0,0.4-0.1,0.8-0.2,1.2c0,0,0,0-0.1,0.1C139.2,428.1,139.3,427.7,139.4,427.2z M139.1,428.7
		L139.1,428.7C139.1,428.8,139.1,428.8,139.1,428.7L139.1,428.7C139.1,428.8,139.1,428.8,139.1,428.7z M139,428.8L139,428.8
		c0,0.1,0,0.2,0,0.4l-0.1,0.3C139,429.3,139,429.1,139,428.8z M138.8,430C138.8,430,138.8,429.9,138.8,430l0.1-0.3
		C138.9,429.8,138.9,429.9,138.8,430L138.8,430z M139,430L139,430c0-0.1,0-0.3,0-0.5l0.2-0.6l0,0C139.1,429.3,139,429.7,139,430
		L139,430z M139.3,430h-0.2l0.6-0.7l-0.1,0.6L139.3,430z M139.8,429.8l-0.2,0.1l0.1-0.6l0.3,0.2
		C139.9,429.6,139.9,429.7,139.8,429.8z M140.2,428.8c-0.1,0.2-0.1,0.4-0.2,0.6c-0.1-0.1-0.2-0.1-0.2-0.2L140.2,428.8L140.2,428.8z
		 M140.2,428.5c-0.1,0.2-0.3,0.4-0.5,0.6l0.1-0.5L140.2,428.5L140.2,428.5z M140.2,428.4l-0.4,0.1v-0.1H140.2L140.2,428.4z
		 M140.3,428.4L140.3,428.4L140.3,428.4C140.3,428.3,140.3,428.4,140.3,428.4z M140.3,428.2l-0.4,0.1l0.1-0.7
		c0.1,0.1,0.3,0.2,0.4,0.3L140.3,428.2z M140.3,428.2L140.3,428.2V428l0,0C140.4,428.1,140.4,428.1,140.3,428.2z M140.4,427.9
		L140.4,427.9l0.2-1.1c0,0,0-0.1,0.1-0.1C140.6,427.2,140.5,427.6,140.4,427.9z M140.6,426.7L140.6,426.7L140.6,426.7L140.6,426.7z
		 M140.7,426.5L140.7,426.5L140.7,426.5L140.7,426.5L140.7,426.5z M140.7,426.4L140.7,426.4l0.1-0.9
		C140.8,425.8,140.8,426.1,140.7,426.4z M140.9,425.2c-0.1,0.1-0.2,0.3-0.4,0.4l0.2-0.5l0.2-0.1L140.9,425.2z M140.9,425L140.9,425
		l-0.2,0.1V425H140.9L140.9,425z M140.9,424.8h-0.1l0.1-0.3l0,0C140.9,424.7,140.9,424.8,140.9,424.8z M140.9,424.5L140.9,424.5
		L140.9,424.5L140.9,424.5z M141,424.2l-0.1,0.3l-0.3-0.2c0.1-0.2,0.3-0.3,0.4-0.5C141,423.9,141,424.1,141,424.2z M141,423.7
		l-0.5,0.6l0.1-0.5L141,423.7C141,423.6,141,423.6,141,423.7z M141,423.2l-0.7,0.2l0,0L141,423.2L141,423.2z M141,423.1l-0.6,0.2
		c0-0.1,0-0.1,0-0.2l0.2-0.3L141,423.1L141,423.1z M141,423.1c-0.1-0.1-0.2-0.1-0.4-0.2l0.4-0.4c0,0.2,0,0.3,0,0.5
		C141,422.9,141,423,141,423.1z M141,413.7l-0.4,0.1l0.1-0.7c0.1,0.1,0.3,0.3,0.4,0.3L141,413.7z M141,413.7L141,413.7v-0.1l0,0
		C141.1,413.6,141.1,413.7,141,413.7z M141.1,413.5L141.1,413.5l0.2-1.1c0,0,0-0.1,0.1-0.1C141.3,412.8,141.2,413.1,141.1,413.5z
		 M141.3,412.3L141.3,412.3L141.3,412.3C141.3,412.2,141.3,412.3,141.3,412.3z M141.4,412.1L141.4,412.1L141.4,412.1
		C141.4,412,141.4,412,141.4,412.1C141.4,412,141.4,412.1,141.4,412.1z M141.4,412C141.4,411.9,141.4,411.9,141.4,412l0.1-0.9
		C141.5,411.4,141.5,411.7,141.4,412z M141.6,410.8c-0.1,0.1-0.2,0.3-0.4,0.4l0.2-0.5l0.2-0.1L141.6,410.8z M141.6,410.6
		L141.6,410.6l-0.2,0.1v-0.1H141.6C141.6,410.5,141.6,410.6,141.6,410.6z M141.6,410.4l-0.1,0.1l0.1-0.3l0,0
		C141.6,410.2,141.6,410.3,141.6,410.4z M141.6,410.1L141.6,410.1L141.6,410.1C141.6,410,141.6,410,141.6,410.1z M141.7,409.7
		l-0.1,0.3l-0.3-0.2c0.1-0.2,0.3-0.3,0.4-0.5C141.7,409.5,141.7,409.6,141.7,409.7z M141.7,409.2l-0.5,0.6l0.1-0.5L141.7,409.2
		L141.7,409.2z M141.7,408.8L141,409l0,0L141.7,408.8L141.7,408.8z M141.7,408.7l-0.6,0.2c0-0.1,0-0.1,0-0.2l0.2-0.3L141.7,408.7
		L141.7,408.7z M141.7,408.6c-0.1-0.1-0.2-0.1-0.4-0.2l0.4-0.4c0,0.2,0,0.3,0,0.5C141.7,408.5,141.7,408.6,141.7,408.6z
		 M141.7,399.3l-0.4,0.1l0.1-0.7c0.1,0.1,0.3,0.3,0.4,0.3L141.7,399.3z M141.7,399.3L141.7,399.3L141.7,399.3L141.7,399.3
		C141.8,399.2,141.8,399.2,141.7,399.3z M141.8,399L141.8,399l0.2-1.1c0,0,0-0.1,0.1-0.1C142,398.3,141.9,398.7,141.8,399z
		 M142,397.8L142,397.8L142,397.8L142,397.8z M142.1,397.6L142.1,397.6L142.1,397.6L142.1,397.6L142.1,397.6z M142.1,397.5
		L142.1,397.5l0.1-0.9C142.2,396.9,142.2,397.2,142.1,397.5z M142.3,396.3c-0.1,0.1-0.2,0.3-0.4,0.4l0.2-0.5l0.2-0.1L142.3,396.3z
		 M142.3,396.1L142.3,396.1l-0.2,0.1v-0.1H142.3L142.3,396.1z M142.3,396l-0.1,0.1l0.1-0.3l0,0C142.3,395.8,142.3,395.9,142.3,396z
		 M142.3,395.6L142.3,395.6L142.3,395.6L142.3,395.6z M142.4,395.3l-0.1,0.3l-0.3-0.2c0.1-0.2,0.3-0.3,0.4-0.5
		C142.4,395,142.4,395.2,142.4,395.3z M142.4,394.8l-0.5,0.6l0.1-0.5L142.4,394.8C142.4,394.7,142.4,394.8,142.4,394.8z
		 M142.4,394.3l-0.7,0.2l0,0L142.4,394.3L142.4,394.3z M142.4,394.2l-0.6,0.2c0-0.1,0-0.1,0-0.2l0.2-0.3L142.4,394.2L142.4,394.2z
		 M142.4,394.2c-0.1-0.1-0.2-0.1-0.4-0.2l0.4-0.4c0,0.2,0,0.3,0,0.5C142.4,394,142.4,394.1,142.4,394.2z M149.1,394
		c0-0.2,0-0.3,0-0.5l0.4,0.4c-0.1,0.1-0.2,0.2-0.4,0.2C149.2,394.1,149.1,394,149.1,394z M149.2,394.2l0.4-0.2l0.2,0.3
		c0,0.1,0,0.1,0,0.2L149.2,394.2L149.2,394.2z M149.2,394.3l0.7,0.2l0,0L149.2,394.3L149.2,394.3z M149.2,394.7l0.4,0.1l0.1,0.5
		L149.2,394.7C149.2,394.8,149.2,394.7,149.2,394.7z M149.2,394.9c0.1,0.1,0.3,0.3,0.4,0.5l-0.3,0.2l-0.1-0.3
		C149.2,395.2,149.2,395,149.2,394.9z M149.2,395.5L149.2,395.5L149.2,395.5C149.2,395.6,149.2,395.6,149.2,395.5z M149.2,395.7
		C149.2,395.7,149.3,395.7,149.2,395.7l0.2,0.3l-0.1-0.1C149.2,395.9,149.2,395.8,149.2,395.7z M149.3,396.1L149.3,396.1h0.2v0.1
		L149.3,396.1L149.3,396.1z M149.3,396.2l0.2,0.1l0.2,0.5c-0.1-0.2-0.3-0.3-0.4-0.4L149.3,396.2z M149.3,396.6l0.2,0.9l0,0
		C149.4,397.2,149.4,396.9,149.3,396.6z M149.5,397.6L149.5,397.6L149.5,397.6L149.5,397.6L149.5,397.6z M149.5,397.8L149.5,397.8
		L149.5,397.8L149.5,397.8z M149.5,397.9C149.5,397.9,149.6,398,149.5,397.9l0.3,1.1l0,0C149.7,398.7,149.6,398.3,149.5,397.9z
		 M149.8,399.3L149.8,399.3L149.8,399.3L149.8,399.3L149.8,399.3z M150.2,398.7l0.1,0.7l-0.4-0.1v-0.2
		C149.9,399,150.1,398.9,150.2,398.7z M149.8,408.4c0-0.2,0-0.3,0-0.5l0.4,0.4c-0.1,0.1-0.2,0.2-0.4,0.2
		C149.8,408.6,149.8,408.5,149.8,408.4z M149.9,408.7l0.4-0.2l0.2,0.3c0,0.1,0,0.1,0,0.2L149.9,408.7L149.9,408.7z M149.9,408.8
		l0.7,0.2l0,0L149.9,408.8L149.9,408.8z M149.9,409.2l0.4,0.1l0.1,0.5L149.9,409.2L149.9,409.2z M149.9,409.4
		c0.1,0.1,0.3,0.3,0.4,0.5l-0.3,0.2l-0.1-0.3C149.9,409.6,149.9,409.5,149.9,409.4z M149.9,410L149.9,410L149.9,410L149.9,410z
		 M149.9,410.2C149.9,410.1,149.9,410.1,149.9,410.2l0.2,0.3l-0.1-0.1C149.9,410.3,149.9,410.2,149.9,410.2z M150,410.6
		C150,410.6,150,410.5,150,410.6h0.2v0.1L150,410.6L150,410.6z M150,410.7l0.2,0.1l0.2,0.5c-0.1-0.2-0.3-0.3-0.4-0.4L150,410.7z
		 M150,411.1l0.2,0.9l0,0C150.1,411.7,150.1,411.4,150,411.1z M150.2,412.1C150.2,412.1,150.2,412,150.2,412.1
		C150.2,412,150.2,412,150.2,412.1L150.2,412.1L150.2,412.1z M150.2,412.2L150.2,412.2C150.2,412.3,150.2,412.2,150.2,412.2
		L150.2,412.2z M150.2,412.4C150.2,412.4,150.3,412.4,150.2,412.4l0.3,1.1l0,0C150.4,413.1,150.3,412.8,150.2,412.4z M150.5,413.7
		v-0.1l0,0V413.7L150.5,413.7z M150.9,413.2l0.1,0.7l-0.4-0.1v-0.2C150.6,413.4,150.8,413.3,150.9,413.2z M150.5,422.9
		c0-0.2,0-0.3,0-0.5l0.4,0.4c-0.1,0.1-0.3,0.2-0.4,0.2V422.9z M150.5,423.1l0.4-0.2l0.2,0.3c0,0.1,0,0.1,0,0.2L150.5,423.1
		L150.5,423.1z M150.6,423.2l0.7,0.2l0,0L150.6,423.2L150.6,423.2z M150.6,423.6l0.4,0.1l0.1,0.5L150.6,423.6L150.6,423.6z
		 M150.6,423.8c0.1,0.1,0.3,0.3,0.4,0.5l-0.3,0.2l-0.1-0.3C150.6,424.1,150.6,423.9,150.6,423.8z M150.6,424.4L150.6,424.4
		L150.6,424.4C150.6,424.5,150.6,424.5,150.6,424.4z M150.6,424.6L150.6,424.6l0.2,0.3h-0.1C150.6,424.8,150.6,424.7,150.6,424.6z
		 M150.7,425L150.7,425h0.2v0.1L150.7,425L150.7,425z M150.7,425.1l0.2,0.1l0.2,0.5c-0.1-0.2-0.3-0.3-0.4-0.4L150.7,425.1z
		 M150.7,425.5l0.2,0.9l0,0C150.8,426.1,150.8,425.8,150.7,425.5z M150.9,426.5L150.9,426.5L150.9,426.5L150.9,426.5L150.9,426.5z
		 M150.9,426.7L150.9,426.7L150.9,426.7L150.9,426.7z M150.9,426.8C150.9,426.8,151,426.9,150.9,426.8l0.3,1.1l0,0
		C151.1,427.6,151,427.2,150.9,426.8z M151.2,428.2v-0.1l0,0V428.2L151.2,428.2z M151.6,427.6l0.1,0.7l-0.4-0.1V428
		C151.3,427.9,151.5,427.8,151.6,427.6z M151.3,428.3L151.3,428.3L151.3,428.3C151.3,428.4,151.3,428.3,151.3,428.3z M151.3,428.3
		l0.4,0.1v0.1L151.3,428.3L151.3,428.3z M151.3,428.5l0.4,0.1l0.1,0.5C151.7,428.9,151.5,428.7,151.3,428.5L151.3,428.5z
		 M151.4,428.8L151.4,428.8l0.5,0.4c-0.1,0.1-0.2,0.1-0.2,0.2C151.5,429.2,151.5,429,151.4,428.8z M151.7,429.8
		c0-0.1-0.1-0.2-0.1-0.3l0.3-0.2l0.1,0.6L151.7,429.8z M152.3,430l-0.3-0.1l-0.1-0.6l0.6,0.7H152.3z M152.6,430L152.6,430
		c-0.1-0.3-0.2-0.6-0.3-1.1l0,0l0.2,0.6C152.6,429.7,152.6,429.8,152.6,430L152.6,430z M152.7,430c0-0.1,0-0.2-0.1-0.3L152.7,430
		C152.7,429.9,152.7,430,152.7,430L152.7,430z"/>
	<polygon class="st0" points="130,433.9 130,405.6 130.4,405.6 130.4,404.2 130.8,403.9 130.8,402.4 131.1,402.4 131.1,401.2 
		131.4,401.2 131.4,400.1 131.9,400.1 133.4,398.1 134.4,393.1 133.9,392.6 134.5,392 134.9,389 134.9,389 135.3,392 135.9,392.6 
		135.3,393.1 136.4,398.1 137.8,400.1 138.3,400.1 138.3,401.2 138.6,401.2 138.6,402.4 138.9,402.4 138.9,403.9 139.3,404.2 
		139.3,405.6 139.7,405.6 139.7,433.9 	"/>
	<path class="st0" d="M77,433.4v0.5h20v-0.5h-0.2v-14.3l-3.9-2v-22.6H93v-5.9l-0.4-0.1h-3.5V388l-0.2-0.1h-0.1l-0.2,0.1v0.5h-3.2
		V388l-0.2-0.1h-0.1l-0.2,0.1v0.5h-3.5l-0.4,0.1v5.9h0.1v22.6l-3.9,2v14.3H77z M88.6,389.8v0.5h-3.2v-0.5H88.6z M92,390.3h-3v-0.5h3
		V390.3z M81.9,389.8h3v0.5h-3V389.8z"/>
	<polygon class="st0" points="-22.6,430.1 -22.6,428.6 -22.9,428.6 -22.9,428.2 -23.1,428.2 -23.1,427.5 -23,427.5 -23,427.1 
		-23.1,427.1 -23.1,427 -23,427 -23,426 -23.1,426 -23.1,425.9 -23,425.9 -23,424.9 -23.1,424.9 -23.1,424.8 -23,424.8 -23,423.8 
		-23.1,423.8 -23.1,423.7 -23,423.7 -23,422.7 -23.1,422.7 -23.1,422.6 -23,422.6 -23,421.7 -23.1,421.7 -23.1,421.5 -23,421.5 
		-23,420.6 -23.1,420.6 -23.1,420.4 -23,420.4 -23,419.5 -23.1,419.5 -23.1,419.3 -23,419.3 -23,418.4 -24.6,418.4 -24.6,418.2 
		-24.5,418.2 -24.5,417.3 -24.6,417.3 -24.6,417.1 -24.5,417.1 -24.5,416.2 -24.6,416.2 -24.6,416.1 -24.5,416.1 -24.5,415.1 
		-24.6,415.1 -24.6,415 -24.5,415 -24.5,414 -24.6,414 -24.6,413.9 -24.5,413.9 -24.5,412.9 -24.6,412.9 -24.6,412.8 -24.5,412.8 
		-24.5,411.8 -24.6,411.8 -24.6,411.7 -24.5,411.7 -24.5,410.8 -24.6,410.8 -24.6,410.6 -24.5,410.6 -24.5,409.7 -24.6,409.7 
		-24.6,409.5 -24.5,409.5 -24.5,408.6 -24.6,408.6 -24.6,408.4 -24.5,408.4 -24.6,407.5 -26.3,407.5 -26.3,407.3 -27.8,407.3 
		-27.8,404.9 -27.5,404.9 -27.5,404.6 -28.7,404.6 -28.7,404.5 -30.5,404.5 -30.5,404.6 -31.6,404.6 -31.6,404.9 -31.3,404.9 
		-31.3,407.3 -32.8,407.3 -32.8,407.5 -34.5,407.5 -34.7,408.4 -34.5,408.4 -34.5,408.6 -34.7,408.6 -34.7,409.5 -34.5,409.5 
		-34.5,409.7 -34.7,409.7 -34.7,410.6 -34.5,410.6 -34.5,410.8 -34.7,410.8 -34.7,411.7 -34.5,411.7 -34.5,411.8 -34.7,411.8 
		-34.7,412.8 -34.5,412.8 -34.5,412.9 -34.7,412.9 -34.7,413.9 -34.5,413.9 -34.5,414 -34.7,414 -34.7,415 -34.5,415 -34.5,415.1 
		-34.7,415.1 -34.7,416.1 -34.5,416.1 -34.5,416.2 -34.7,416.2 -34.7,417.1 -34.5,417.1 -34.5,417.3 -34.7,417.3 -34.7,418.2 
		-34.5,418.2 -34.5,418.4 -36.2,418.4 -36.2,419.3 -36.1,419.3 -36.1,419.5 -36.2,419.5 -36.2,420.4 -36.1,420.4 -36.1,420.6 
		-36.2,420.6 -36.2,421.5 -36.1,421.5 -36.1,421.7 -36.2,421.7 -36.2,422.6 -36.1,422.6 -36.1,422.7 -36.2,422.7 -36.2,423.7 
		-36.1,423.7 -36.1,423.8 -36.2,423.8 -36.2,424.8 -36.1,424.8 -36.1,424.9 -36.2,424.9 -36.2,425.9 -36.1,425.9 -36.1,426 
		-36.2,426 -36.2,427 -36.1,427 -36.1,427.1 -36.2,427.1 -36.2,427.5 -36.1,427.5 -36.1,428.2 -36.2,428.2 -36.2,428.6 -36.6,428.6 
		-36.6,430.1 -39,430.1 -39,433.9 -20.2,433.9 -20.2,430.1 	"/>
</g>
<g id="statue_of_liberty">
</g>
</svg>
