<?xml version="1.0" encoding="utf-8"?>
<!-- Generator: Adobe Illustrator 19.0.0, SVG Export Plug-In . SVG Version: 6.00 Build 0)  -->
<svg version="1.1" id="Layer_1" xmlns="http://www.w3.org/2000/svg" xmlns:xlink="http://www.w3.org/1999/xlink" x="0px" y="0px"
	 viewBox="-123 351.5 181.9 82.5" style="enable-background:new -123 351.5 181.9 82.5;" xml:space="preserve">
<style type="text/css">
	.st0{fill:#CCCCCC;}
</style>
<g id="ground">
</g>
<g id="new_york">
	<path class="st0" d="M22.4,394.9v38.3H31v-38.3h-0.5v-12.5h-0.2v-18.9H30v-0.2l-0.7-0.7v-1.2h-0.1v-0.1l-1-0.9H28V360l-0.6-0.7l0,0
		l-0.5-0.6l0,0l0,0v-0.1l0.3-1.5h0.1l0,0V357l0,0h-0.1l-0.3-1.4v-0.1l0,0l0,0H27v-0.1h-0.1v-0.1l0,0l0,0l0,0l0,0l0,0l0,0H27
		c0,0,0.1,0.2,0.2,0.2c0.1,0,0.1-0.2,0.1-0.3s0-0.3-0.1-0.3S27,355,27,355h-0.1v-0.1l0,0v-0.8l0,0v-2.4l0,0v-0.1h-0.1v0.1l0,0v2.4
		l0,0v0.8l0,0v0.1h-0.1c0,0-0.1-0.2-0.2-0.2c-0.1,0-0.1,0.2-0.1,0.3s0,0.3,0.1,0.3s0.2-0.2,0.2-0.2h0.1l0,0l0,0l0,0l0,0l0,0l0,0v0.1
		h-0.1v0.1h0.1l0,0l0,0v0.1l-0.3,1.4h-0.1l0,0v0.1l0,0h0.1l0.3,1.5v0.1l0,0l0,0l-0.5,0.6l0,0l-0.6,0.7v0.3h-0.2l-1,0.9v0.1h-0.1v1.2
		l-0.7,0.7v0.2h-0.3v18.9h-0.2v12.4h-0.8V394.9z M26.7,351.6L26.7,351.6v2.4l0,0V351.6z M26.7,354.1L26.7,354.1v-2.4l0,0V354.1z
		 M26.9,356.1L26.9,356.1C26.9,356.1,26.8,356,26.9,356.1L26.9,356.1C26.8,356,26.9,356,26.9,356.1z M26.9,356.1v0.1V356.1
		C26.9,356.3,26.9,356.3,26.9,356.1L26.9,356.1z M26.9,356.4L26.9,356.4C26.9,356.5,26.9,356.4,26.9,356.4L26.9,356.4L26.9,356.4z
		 M26.9,356.5c0,0.1,0,0.1,0,0.2l-0.1-0.1C26.9,356.6,26.9,356.6,26.9,356.5L26.9,356.5z M27,356.7L27,356.7L27,356.7L27,356.7
		L27,356.7z M27,356.7c0,0.1,0,0.1,0,0.2l-0.1-0.1C27,356.8,27,356.8,27,356.7L27,356.7z M27.1,357.1L27.1,357.1L27.1,357.1
		L27.1,357.1C27,357,27,357,27.1,357.1L27.1,357.1z M26.5,356.8L26.5,356.8c-0.1,0,0,0,0-0.1V356.8L26.5,356.8z M26.5,356.6
		L26.5,356.6c0,0,0,0,0-0.1V356.6L26.5,356.6z M26.6,356.3L26.6,356.3L26.6,356.3L26.6,356.3L26.6,356.3z M26.6,356
		C26.6,356,26.6,356.1,26.6,356L26.6,356L26.6,356L26.6,356z M26.6,356.3c0,0.1,0,0.1,0,0.2V356.3C26.5,356.4,26.5,356.4,26.6,356.3
		L26.6,356.3z M26.5,356.6c0,0.1,0,0.1,0,0.2V356.6C26.5,356.7,26.5,356.7,26.5,356.6L26.5,356.6z M26.5,357L26.5,357L26.5,357
		C26.4,357.1,26.4,357.1,26.5,357L26.5,357L26.5,357z M26.6,359.3c0-0.1,0.1-0.1,0.1-0.2L26.6,359.3L26.6,359.3z M26.7,357.8
		l-0.1-0.6l0,0v0.1l0,0v0.5H26.7z M26.5,357l0.2-0.2v0.1l0,0v0.1H26.5z M26.8,356.7L27,357h-0.1v-0.1l0,0L26.8,356.7L26.8,356.7z
		 M26.8,357.2l-0.1,0.6L26.8,357.2L26.8,357.2L26.8,357.2L26.8,357.2z M26.8,359c0,0.1,0,0.1,0.1,0.2h-0.1V359z M26.3,359.3
		c0.1-0.1,0.2-0.2,0.3-0.3l-0.1,0.3H26.3z M26.4,357.2h0.2l0.1,0.8v0.5C26.6,358.1,26.5,357.3,26.4,357.2z M26.7,355.9v0.7l-0.2,0.2
		L26.7,355.9z M26.8,355.9l0.2,1l-0.2-0.2V355.9z M26.8,358.5v-0.6l0.1-0.8h0.2C27,357.3,26.9,358.1,26.8,358.5z M27.2,359.3H27
		l-0.1-0.3C27,359,27.1,359.2,27.2,359.3z"/>
	<path class="st0" d="M-37.6,384.7l-1,1.2v47.5h8.8v-56.2l-1-1V363l-2.2-2.6V360l0,0c0,0,0.1,0,0.1-0.1c0,0,0-0.1-0.1-0.1l0,0v-2.1
		l0,0v-1.3h0.2l0,0h-0.1l0,0H-33v-0.2l0,0v-0.8h-0.1v0.8l0,0v1.6l0,0c0,0,0,0.2,0,0.6h-2.1l0,0c0-0.3,0-0.6,0-0.6l0,0v-1.6l0,0v-0.8
		h-0.1v0.8l0,0v0.2h-0.2l0,0h-0.1l0,0h0.2v1.3l0,0v2.1c0,0,0,0,0,0.1c0,0,0,0,0,0.1v0.6l-2.2,2.6V384.7z M-34.4,360.6h-0.1v-0.1
		C-34.5,360.4-34.5,360.4-34.4,360.6C-34.5,360.4-34.5,360.4-34.4,360.6C-34.4,360.4-34.4,360.6-34.4,360.6z M-34.7,360.6h-0.1v-0.1
		C-34.8,360.4-34.8,360.4-34.7,360.6C-34.7,360.4-34.7,360.4-34.7,360.6C-34.7,360.4-34.7,360.6-34.7,360.6z M-35,360.6
		c0.2-0.2,0.5-0.6,0.7-0.8v0.8l0,0v-0.1l0,0c0,0,0-0.1-0.1-0.1c0,0-0.1,0-0.1,0.1l0,0l0,0v0.1h-0.1v-0.1l0,0c0,0,0-0.1-0.1-0.1
		c0,0-0.1,0-0.1,0.1l0,0l0,0v0.1H-35z M-34.1,359.7c0.2,0.2,0.5,0.6,0.7,0.8h-0.2v-0.1l0,0c0,0,0-0.1-0.1-0.1c0,0-0.1,0-0.1,0.1l0,0
		l0,0v0.1h-0.1v-0.1l0,0c0,0,0-0.1-0.1-0.1c0,0-0.1,0-0.1,0.1l0,0l0,0v0.1h-0.1v-0.8H-34.1z M-34,360.6C-34,360.6-34,360.4-34,360.6
		C-34,360.4-34,360.4-34,360.6c0.1-0.1,0.1-0.1,0.1-0.1s0,0,0,0.1H-34z M-33.7,360.6C-33.7,360.6-33.7,360.4-33.7,360.6
		C-33.7,360.4-33.7,360.4-33.7,360.6C-33.7,360.4-33.6,360.4-33.7,360.6C-33.6,360.4-33.6,360.6-33.7,360.6L-33.7,360.6z
		 M-35.2,360.6c0.4-0.5,0.7-0.8,0.9-1v0.1L-35.2,360.6L-35.2,360.6L-35.2,360.6z M-34.1,359.5c0.2,0.2,0.5,0.6,0.9,1l0,0h-0.1
		L-34.1,359.5L-34.1,359.5z M-34.4,359.4l-0.9,1c0-0.7,0-1.5,0-2L-34.4,359.4z M-33.3,358.4c-0.1,0.1-0.6,0.7-0.8,0.9l-0.1-0.1l0,0
		l-0.1,0.1c-0.2-0.2-0.7-0.8-0.8-0.9C-34.9,358.4-33.5,358.4-33.3,358.4z M-33.2,358.5c0,0.6,0,1.3,0,2l-0.8-0.9L-33.2,358.5z"/>
	<path class="st0" d="M46.2,409.3h-0.6v-24.9h-0.1v-0.6h-0.1v-0.5h-0.5v-10.1H45v-3.8h-0.1v-0.9h-0.1v-0.3h-0.7v-2.6H44h-0.7v-0.2
		h0.1v-0.1h-0.1v-0.1h0.3v-0.1h-0.3v-0.5h0.1v-0.1h-0.1v-0.2h0.1v-0.1h-0.1v-0.3h0.3v-0.1h-0.3v-0.2v-0.2h-0.8v-2.7v2.7h-1.4v-0.6
		h0.1l0,0l0,0v-0.1c0.3,0,0.5-0.1,0.6-0.3c0-0.2-0.3-0.5-0.7-0.6c-0.4-0.1-0.7,0-0.8,0.2c0,0.1,0.1,0.5,0.4,0.6v0.1h0.1l0,0h0.1v0.6
		h-1v-1.6v1.6h-1v0.2v0.2h-0.4v0.1h0.3v0.3h-0.1v0.2h0.1v0.2h-0.1v0.1h0.1v0.5h-0.3v0.1h0.3v0.1h-0.1v0.1h0.1v0.1H38v2.6h-0.7v0.3
		h-0.2v0.9H37v3.8h0.1v10.1h-0.5v0.5h-0.1v0.6h-0.1v24.9h-0.5V422h-2.4v11.2h15.1V422h-2.4L46.2,409.3L46.2,409.3z M40.9,362.7
		L40.9,362.7v0.6l0,0V362.7z M43.8,365.8c0,0.1,0,1.3,0,2.2h-0.5v-0.5h-0.1v-0.2h0.2h-0.2v-0.2h0.2h-0.2v-0.2h0.2h-0.2v-0.2h0.2
		h-0.2v-0.2h0.2h-0.2v-0.2h0.2h-0.2v-0.3C43.6,365.8,43.7,365.8,43.8,365.8z M38.2,365.8c0,0,0.2,0,0.5,0v0.3h-0.2h0.2v0.2h-0.2h0.2
		v0.2h-0.2h0.2v0.2h-0.2h0.2v0.2h-0.2h0.2v0.2h-0.2h0.2v0.2h-0.1v0.5h-0.5C38.2,367.1,38.2,366,38.2,365.8z"/>
	<path class="st0" d="M-95.4,410.2h-0.5v-9.5l0,0h-0.5v-0.3l0,0l0,0h-4.5l0,0v0.3h-0.6v9.5h-0.5v13.2h-0.2v10.5h6.9v-10.5h-0.1
		V410.2z M-101.3,400.9h0.2l0,0H-101.3L-101.3,400.9z M-101.3,400.9h-0.2v-0.1L-101.3,400.9L-101.3,400.9z M-101.3,400.8
		L-101.3,400.8c0-0.1,0.1-0.1,0.2-0.1v0.1H-101.3z M-101.1,400.9h0.2l0,0H-101.1L-101.1,400.9z M-96.5,400.5h-0.2v-0.1L-96.5,400.5
		L-96.5,400.5z M-96.7,400.5h-0.2v-0.1L-96.7,400.5L-96.7,400.5z M-96.7,400.8h-0.2v-0.1C-96.8,400.6-96.8,400.6-96.7,400.8
		L-96.7,400.8z M-96.7,400.6c0.1,0,0.1,0,0.2,0c0,0,0,0,0,0.1L-96.7,400.6L-96.7,400.6z M-100,400.6c0.1,0,0.1,0,0.2,0v0.1
		L-100,400.6L-100,400.6z M-100,400.8h-0.2v-0.1C-100.1,400.6-100.1,400.6-100,400.8L-100,400.8z M-99.8,400.6c0.1,0,0.1,0,0.2,0
		v0.1L-99.8,400.6L-99.8,400.6z M-99.6,400.6c0.1,0,0.1,0,0.2,0v0.1L-99.6,400.6L-99.6,400.6z M-99.5,400.6c0.1,0,0.1,0,0.2,0v0.1
		L-99.5,400.6L-99.5,400.6z M-99.3,400.6c0.1,0,0.1,0,0.2,0v0.1L-99.3,400.6L-99.3,400.6z M-99.1,400.6c0.1,0,0.1,0,0.2,0v0.1
		L-99.1,400.6L-99.1,400.6z M-98.9,400.6c0.1,0,0.1,0,0.2,0v0.1L-98.9,400.6L-98.9,400.6z M-98.7,400.6c0.1,0,0.1,0,0.2,0v0.1
		L-98.7,400.6L-98.7,400.6z M-98.5,400.6c0.1,0,0.1,0,0.2,0v0.1L-98.5,400.6L-98.5,400.6z M-98.4,400.6c0.1,0,0.1,0,0.2,0v0.1
		L-98.4,400.6L-98.4,400.6z M-98.2,400.6c0.1,0,0.1,0,0.2,0v0.1L-98.2,400.6L-98.2,400.6z M-98,400.6c0.1,0,0.1,0,0.2,0v0.1
		L-98,400.6L-98,400.6z M-97.8,400.6H-98v-0.1L-97.8,400.6L-97.8,400.6z M-98,400.6h-0.2v-0.1L-98,400.6L-98,400.6z M-98.2,400.6
		h-0.2v-0.1L-98.2,400.6L-98.2,400.6z M-98.4,400.6h-0.2v-0.1L-98.4,400.6L-98.4,400.6z M-98.6,400.6h-0.2v-0.1L-98.6,400.6
		L-98.6,400.6z M-98.7,400.6h-0.2v-0.1L-98.7,400.6L-98.7,400.6z M-98.9,400.6h-0.2v-0.1L-98.9,400.6L-98.9,400.6z M-99.1,400.6
		h-0.2v-0.1L-99.1,400.6L-99.1,400.6z M-99.3,400.6h-0.2v-0.1L-99.3,400.6L-99.3,400.6z M-99.5,400.6h-0.2v-0.1L-99.5,400.6
		L-99.5,400.6z M-99.7,400.6h-0.2v-0.1L-99.7,400.6L-99.7,400.6z M-99.9,400.6h-0.2v-0.1L-99.9,400.6L-99.9,400.6z M-100,400.6h-0.2
		v-0.1L-100,400.6L-100,400.6z M-100.2,400.6h-0.2v-0.1L-100.2,400.6L-100.2,400.6z M-100.2,400.6L-100.2,400.6l-0.2,0.1v-0.1
		C-100.3,400.6-100.3,400.6-100.2,400.6z M-100.2,400.9L-100.2,400.9h-0.2l0,0H-100.2z M-100.2,400.9h0.2l0,0H-100.2L-100.2,400.9z
		 M-100,400.9h0.2l0,0H-100L-100,400.9z M-99.8,400.9h0.2l0,0H-99.8L-99.8,400.9z M-99.6,400.9h0.2l0,0H-99.6L-99.6,400.9z
		 M-99.5,400.9h0.2l0,0H-99.5L-99.5,400.9z M-99.3,400.9h0.2l0,0H-99.3L-99.3,400.9z M-99.1,400.9h0.2l0,0H-99.1L-99.1,400.9z
		 M-98.9,400.9h0.2l0,0H-98.9L-98.9,400.9z M-98.7,400.9h0.2l0,0H-98.7L-98.7,400.9z M-98.5,400.9L-98.5,400.9L-98.5,400.9
		L-98.5,400.9L-98.5,400.9z M-98.4,400.9h0.2l0,0H-98.4L-98.4,400.9z M-98.2,400.9h0.2l0,0H-98.2L-98.2,400.9z M-98,400.9h0.2l0,0
		H-98L-98,400.9z M-97.8,400.5H-98v-0.1L-97.8,400.5L-97.8,400.5z M-98,400.5h-0.2v-0.1L-98,400.5L-98,400.5z M-98.2,400.5h-0.2
		v-0.1L-98.2,400.5L-98.2,400.5z M-98.4,400.5h-0.2v-0.1L-98.4,400.5L-98.4,400.5z M-98.6,400.5h-0.2v-0.1L-98.6,400.5L-98.6,400.5z
		 M-98.7,400.5h-0.2v-0.1L-98.7,400.5L-98.7,400.5z M-98.9,400.5h-0.2v-0.1L-98.9,400.5L-98.9,400.5z M-99.1,400.5h-0.2v-0.1
		L-99.1,400.5L-99.1,400.5z M-99.3,400.5h-0.2v-0.1L-99.3,400.5L-99.3,400.5z M-99.5,400.5h-0.2v-0.1L-99.5,400.5L-99.5,400.5z
		 M-99.7,400.5h-0.2v-0.1L-99.7,400.5L-99.7,400.5z M-99.9,400.5h-0.2v-0.1L-99.9,400.5L-99.9,400.5z M-100,400.5h-0.2v-0.1
		L-100,400.5L-100,400.5z M-100.2,400.5h-0.2v-0.1L-100.2,400.5L-100.2,400.5z M-100.4,400.5h-0.2v-0.1L-100.4,400.5L-100.4,400.5z
		 M-100.4,400.5L-100.4,400.5l-0.2,0.1v-0.1H-100.4z M-100.4,400.6L-100.4,400.6l-0.2,0.1v-0.1
		C-100.5,400.6-100.5,400.6-100.4,400.6z M-100.4,400.9L-100.4,400.9h-0.2l0,0H-100.4z M-100.6,400.9h-0.2l0,0H-100.6L-100.6,400.9z
		 M-96.9,400.9L-96.9,400.9l0.2-0.1v0.1H-96.9z M-96.9,400.6L-96.9,400.6l0.2-0.1v0.1H-96.9z M-96.9,400.4L-96.9,400.4
		c0.1-0.1,0.1-0.1,0.2-0.1v0.1H-96.9z M-96.9,400.4h-0.2v-0.1C-97,400.3-96.9,400.3-96.9,400.4L-96.9,400.4z M-97.1,400.4h-0.2v-0.1
		C-97.2,400.3-97.1,400.3-97.1,400.4L-97.1,400.4z M-97.3,400.4L-97.3,400.4l-0.1-0.1C-97.4,400.3-97.3,400.3-97.3,400.4
		L-97.3,400.4z M-97.4,400.4h-0.2v-0.1C-97.6,400.3-97.5,400.3-97.4,400.4L-97.4,400.4z M-97.6,400.4h-0.2v-0.1
		C-97.7,400.3-97.7,400.3-97.6,400.4L-97.6,400.4z M-97.8,400.4H-98v-0.1C-97.9,400.3-97.9,400.3-97.8,400.4L-97.8,400.4z
		 M-98,400.4h-0.2v-0.1C-98.1,400.3-98.1,400.3-98,400.4L-98,400.4z M-98.2,400.4h-0.2v-0.1C-98.3,400.3-98.2,400.3-98.2,400.4
		L-98.2,400.4z M-98.4,400.4h-0.2v-0.1C-98.5,400.3-98.4,400.3-98.4,400.4L-98.4,400.4z M-98.6,400.4h-0.2v-0.1
		C-98.7,400.3-98.6,400.3-98.6,400.4L-98.6,400.4z M-98.7,400.4h-0.2v-0.1C-98.9,400.3-98.8,400.3-98.7,400.4L-98.7,400.4z
		 M-98.9,400.4h-0.2v-0.1C-99,400.3-99,400.3-98.9,400.4L-98.9,400.4z M-99.1,400.4h-0.2v-0.1C-99.2,400.3-99.2,400.3-99.1,400.4
		L-99.1,400.4z M-99.3,400.4h-0.2v-0.1C-99.4,400.3-99.4,400.3-99.3,400.4L-99.3,400.4z M-99.5,400.4h-0.2v-0.1
		C-99.6,400.3-99.5,400.3-99.5,400.4L-99.5,400.4z M-99.7,400.4h-0.2v-0.1C-99.8,400.3-99.7,400.3-99.7,400.4L-99.7,400.4z
		 M-99.9,400.4h-0.2v-0.1C-100,400.3-99.9,400.3-99.9,400.4L-99.9,400.4z M-100,400.4h-0.2v-0.1C-100.1,400.3-100.1,400.3-100,400.4
		L-100,400.4z M-100.2,400.4h-0.2v-0.1C-100.3,400.3-100.3,400.3-100.2,400.4L-100.2,400.4z M-100.4,400.4h-0.2v-0.1
		C-100.5,400.3-100.5,400.3-100.4,400.4L-100.4,400.4z M-100.6,400.4h-0.2v-0.1C-100.7,400.3-100.7,400.3-100.6,400.4L-100.6,400.4z
		 M-100.8,400.4h-0.2v-0.1C-100.9,400.3-100.9,400.3-100.8,400.4L-100.8,400.4z M-100.9,400.4h0.2v0.1L-100.9,400.4
		C-100.9,400.5-100.9,400.5-100.9,400.4z M-100.8,400.4h0.2v0.1L-100.8,400.4L-100.8,400.4z M-100.6,400.5L-100.6,400.5l-0.2,0.1
		v-0.1H-100.6z M-100.6,400.6L-100.6,400.6l-0.2,0.1v-0.1C-100.7,400.6-100.6,400.6-100.6,400.6z M-100.8,400.8h-0.2v-0.1
		C-100.9,400.6-100.8,400.6-100.8,400.8L-100.8,400.8z M-100.8,400.9L-100.8,400.9L-100.8,400.9l-0.1-0.1h0.1V400.9z M-96.7,400.9
		L-96.7,400.9l0.2-0.1v0.1H-96.7z M-96.5,400.9h0.2l0,0H-96.5L-96.5,400.9z M-96.3,400.9h0.2l0,0H-96.3L-96.3,400.9z M-96.3,400.8
		L-96.3,400.8c0.1-0.1,0.1-0.1,0.2-0.1v0.1H-96.3z M-96.1,400.9h0.2v0.1L-96.1,400.9L-96.1,400.9z M-96,400.8h-0.2v-0.1
		C-96,400.6-96,400.6-96,400.8C-96,400.6-96,400.8-96,400.8z M-96.3,400.6L-96.3,400.6l-0.2,0.1v-0.1
		C-96.4,400.6-96.4,400.6-96.3,400.6z M-96.7,400.6L-96.7,400.6l0.2-0.1v0.1H-96.7z M-96.5,400.4h-0.2v-0.1
		C-96.6,400.3-96.5,400.3-96.5,400.4C-96.5,400.3-96.5,400.4-96.5,400.4z M-100.9,400.5h0.2v0.1L-100.9,400.5
		C-100.9,400.6-100.9,400.6-100.9,400.5z M-101,400.8h-0.2v-0.1C-101.1,400.6-101,400.6-101,400.8L-101,400.8z M-101.3,400.6
		L-101.3,400.6l-0.2,0.1v-0.1C-101.5,400.6-101.4,400.6-101.3,400.6z"/>
	<path class="st0" d="M-118.5,433.9v-13.1h-0.1v-0.3h0.1v-0.2h-0.1v-0.3h0.1v-0.3h-0.1v-0.3h0.1v-0.2h-0.1v-0.3h0.1v-0.2h-0.1V418
		h0.1v-0.2h-0.1v-0.3h0.1v-0.2h-0.1v-0.3h0.1v-0.2h-0.1v-0.3h0.1V416h-0.1v-0.3h0.1v-0.2h-0.1v-0.3h0.1v-0.2h-0.1v-0.3h0.1v-0.2
		h-0.1v-0.6h0.1v-0.2h-0.1v-0.3h0.1v-0.2h-0.1v-0.3h0.1v-0.2h-0.1v-0.3h0.1v-0.2h-0.1v-0.3h0.1v-0.2h-0.1v-0.3h0.1v-0.2h-0.1v-0.3
		h0.1v-0.2h-0.1v-0.3h0.1v-0.2h-0.1V409h0.1v-0.2h-0.1v-0.3h0.1v-0.6h-0.1v-0.3h0.1v-0.2h-0.1v-0.3h0.1v-0.2h-0.1v-0.9h0.1v-1.3
		h-1.3v-0.2l0,0l0,0h-0.3v0.2h-0.5v-0.2h-0.1v0.1h-0.2l-0.3,0.1h-0.1v-0.1l0,0v-0.1l0,0V404l0,0v0.2h-0.3l0,0l0,0v0.2h-0.8v-0.1l0,0
		l0,0h-0.1v-0.2h0.2v-0.3h-0.2v-0.1c0,0,0.1,0,0.1-0.1h-0.1c-0.1,0-0.1,0-0.1,0s0,0.1,0.1,0.1v0.1h-0.2v0.3h0.2v0.2h-0.1l0,0l0,0
		v0.1h-0.4v1.3h0.1v0.9h-0.1v0.2h0.1v0.3h-0.1v0.2h0.1v0.3h-0.1v0.2h0.1v0.3h-0.1v0.2h0.1v0.3h-0.1v0.2h0.1v0.3h-0.1v0.2h0.1v0.3
		h-0.1v0.2h0.1v0.3h-0.1v0.2h0.1v0.3h-0.1v0.2h0.1v0.3h-0.1v0.6h0.1v0.3h-0.1v0.2h0.1v0.3h-0.1v0.2h0.1v0.3h-0.1v0.2h0.1v0.3h-0.1
		v0.2h0.1v0.3h-0.1v0.2h0.1v0.3h-0.1v0.2h0.1v0.3h-0.1v0.2h0.1v0.3h-0.1v0.2h0.1v0.3h-0.1v0.2h0.1v0.6h-0.1v0.2h0.1v0.3h-0.1v0.2
		h0.1v0.3h-0.1v0.2h0.1v0.3h-0.1v0.2h0.1v0.3h-0.1v13.2H-118.5z M-122.7,403.7L-122.7,403.7L-122.7,403.7L-122.7,403.7L-122.7,403.7
		L-122.7,403.7z"/>
	<path class="st0" d="M-5.1,409.1v-1.4h-0.2v-2.9h-0.2v-1.5h-0.1v-3.6h-0.1v-16.8c0,0-0.4-0.1-2.8-0.1c-0.1,0-0.2,0-0.3,0v-0.1h-1
		l2.8-1l0,0l0,0l0,0l0,0l0,0l0,0v0.1h-0.1l0,0l0,0l0,0l0,0l0,0l0,0v0.1l0,0l0,0l0,0l0,0l0,0v0.3l0,0v0.1l0,0l0,0l0,0v0.1h0.3v-0.1
		l0,0l0,0l0,0v-0.1l0,0v-0.3l0,0l0,0l0,0l0,0l0,0v-0.1l0,0l0,0l0,0l0,0l0,0l0,0h-0.1l0,0l0,0l0,0l0,0v-0.1l0,0l0,0l0,0l0,0H-7l0,0
		l0,0l0,0l0,0l0,0l-3.2,1h-0.4v-0.1h-0.3v-0.2c0.2,0,0.4-0.2,0.4-0.3s-0.2-0.2-0.5-0.2s-0.5,0.1-0.5,0.2s0.2,0.2,0.4,0.3v0.2l0,0
		l-0.7-0.3c0-0.1,0.1-0.1,0.1-0.2s-0.2-0.1-0.5-0.1h-0.1l-0.5-0.2l0,0l0,0l0,0l0,0l0,0h-0.1l0,0l0,0l0,0l0,0v0.1l0,0l0,0l0,0v0.1
		H-13l0,0l0,0l0,0l0,0l0,0l0,0v0.1l0,0l0,0l0,0l0,0l0,0v0.2l0,0v0.1l0,0l0,0l0,0v0.1h0.3v-0.1l0,0l0,0l0,0v-0.1l0,0v-0.2l0,0l0,0
		l0,0l0,0l0,0v-0.1l0,0l0,0l0,0l0,0l0,0l0,0h-0.1v-0.1l0,0l0,0l0,0l0,0l0,0l0,0l0.4,0.2c-0.1,0-0.2,0.1-0.2,0.2
		c0,0.1,0.2,0.2,0.4,0.2v0.2h-1.6v1.3h0.1v15.8h-0.1v3.6h-0.1v1.5h-0.5v-0.6l0,0V404l0,0v-0.5l0,0v-0.2l0,0v-0.5l0,0v-0.2l0,0v-0.5
		l0,0v-0.2l0,0v-0.5l0,0l0,0l0,0V401l0,0v-0.2l0,0v-0.5l0,0V400l0,0v-0.5l0,0v-0.2l0,0v-0.5l0,0v-0.2l0,0v-0.5l0,0V398l0,0v-0.5l0,0
		v-0.2l0,0v-0.5l0,0v0l0,0v-0.5l0,0v-0.2l0,0v-0.5l0,0v-0.2l0,0v-0.5l0,0v-0.2l0,0v-0.5l0,0V394l0,0v-0.5l0,0v-0.2l0,0v-0.5l0,0
		v-0.2l0,0v-0.5l0,0v-0.2l0,0v-0.5l0,0v-0.2l0,0v-0.5l0,0v-0.2l0,0v-0.5l0,0v-0.2l0,0v-0.5l0,0v-0.2l0,0v-0.5l0,0v-5.3l0,0v-0.5l0,0
		v0l0,0v-0.5l0,0v-0.2l0,0v-0.5l0,0v-0.2l0,0V381l0,0v-0.2l0,0v-0.5l0,0v-0.2l0,0v-0.5l0,0v-0.2l0,0v-0.5l0,0v-0.2l0,0v-0.5l0,0l0,0
		l0,0v-0.5l0,0v-0.2l0,0v-0.5l0,0v-0.2l0,0v-0.5l0,0v-0.2l0,0v-0.5l0,0v-0.2l0,0V375l0,0v-0.2l0,0v-0.5l0,0v-0.5l0,0v-0.5l0,0v-0.5
		l0,0v-0.5l0,0v-0.6h-0.1v-0.2h-0.1v0.2h-0.1v-3.5h-0.2v0.1h-0.6v-0.1h-0.3v-0.1h-0.4v0.1h-0.9l-0.2-0.2h-0.5V368l0,0l0,0h-0.1l0,0
		h-0.3l0,0h-0.1v-0.2c0.2,0,0.4-0.2,0.4-0.3s-0.2-0.2-0.5-0.1c-0.3,0-0.5,0.1-0.4,0.2c0,0.1,0.2,0.2,0.4,0.2v0.2h-0.2l0,0h-0.1v3.6
		l0,0l0,0h-3v0.8h-0.2v32.4h-0.5v2.9h-0.2v1.4h-0.3v24.2h18.2v-24.2H-5.1z M-6.8,382.2L-6.8,382.2L-6.8,382.2l-0.2,0.1v-0.1l0,0
		c0-0.1,0-0.2,0-0.3l0,0l0,0h0.2l0,0l0,0C-6.8,381.9-6.8,382-6.8,382.2z M-12.7,382.3L-12.7,382.3L-12.7,382.3l-0.2,0.1v-0.1l0,0
		c0-0.1,0-0.2,0-0.2l0,0l0,0h0.2l0,0l0,0C-12.7,382-12.7,382.2-12.7,382.3z M-12.1,382.4L-12.1,382.4L-12.1,382.4L-12.1,382.4
		L-12.1,382.4z M-11,382.3L-11,382.3L-11,382.3L-11,382.3L-11,382.3z M-11,382.3L-11,382.3L-11,382.3L-11,382.3L-11,382.3
		C-11,382.2-11,382.3-11,382.3z M-11.5,382.5h-0.4v0.1h-0.2v-0.2c0.1,0,0.1,0,0.2-0.1L-11.5,382.5z M-12.1,382.4L-12.1,382.4
		L-12.1,382.4L-12.1,382.4L-12.1,382.4L-12.1,382.4z M-19,371.7L-19,371.7L-19,371.7L-19,371.7L-19,371.7z M-19,371.7L-19,371.7
		L-19,371.7L-19,371.7L-19,371.7z M-21.4,371.7L-21.4,371.7L-21.4,371.7L-21.4,371.7L-21.4,371.7z M-21.4,371.7L-21.4,371.7
		L-21.4,371.7L-21.4,371.7L-21.4,371.7z M-21.3,371.7L-21.3,371.7L-21.3,371.7L-21.3,371.7L-21.3,371.7z M-21.2,371.7L-21.2,371.7
		L-21.2,371.7L-21.2,371.7L-21.2,371.7z M-21.1,371.7L-21.1,371.7L-21.1,371.7L-21.1,371.7L-21.1,371.7z M-21,371.7L-21,371.7
		L-21,371.7L-21,371.7L-21,371.7z M-20.9,371.7L-20.9,371.7L-20.9,371.7L-20.9,371.7L-20.9,371.7z M-20.8,371.7L-20.8,371.7
		L-20.8,371.7L-20.8,371.7L-20.8,371.7z M-20.7,371.7L-20.7,371.7L-20.7,371.7L-20.7,371.7L-20.7,371.7z M-20.5,371.7L-20.5,371.7
		L-20.5,371.7L-20.5,371.7L-20.5,371.7z M-20.4,371.7L-20.4,371.7L-20.4,371.7L-20.4,371.7L-20.4,371.7z M-20.3,371.7L-20.3,371.7
		L-20.3,371.7L-20.3,371.7L-20.3,371.7z M-20.2,371.7L-20.2,371.7L-20.2,371.7L-20.2,371.7L-20.2,371.7z M-20.1,371.7L-20.1,371.7
		L-20.1,371.7L-20.1,371.7L-20.1,371.7z M-20,371.7L-20,371.7L-20,371.7L-20,371.7L-20,371.7z M-19.9,371.7L-19.9,371.7L-19.9,371.7
		L-19.9,371.7L-19.9,371.7z M-19.8,371.7L-19.8,371.7L-19.8,371.7L-19.8,371.7L-19.8,371.7z M-19.7,371.7L-19.7,371.7L-19.7,371.7
		L-19.7,371.7L-19.7,371.7z M-19.4,371.8L-19.4,371.8L-19.4,371.8L-19.4,371.8L-19.4,371.8z M-19.5,371.8L-19.5,371.8L-19.5,371.8
		L-19.5,371.8L-19.5,371.8z M-19.3,371.8L-19.3,371.8L-19.3,371.8L-19.3,371.8L-19.3,371.8z M-19.3,371.7L-19.3,371.7L-19.3,371.7
		L-19.3,371.7L-19.3,371.7z M-19.4,371.7L-19.4,371.7L-19.4,371.7L-19.4,371.7L-19.4,371.7z M-19.5,371.7L-19.5,371.7L-19.5,371.7
		L-19.5,371.7L-19.5,371.7z M-19.6,371.8L-19.6,371.8L-19.6,371.8L-19.6,371.8L-19.6,371.8z M-19.2,371.8L-19.2,371.8L-19.2,371.8
		L-19.2,371.8L-19.2,371.8z M-19.2,371.7L-19.2,371.7L-19.2,371.7L-19.2,371.7L-19.2,371.7z M-19.1,371.7L-19.1,371.7L-19.1,371.7
		L-19.1,371.7L-19.1,371.7z M-19.1,371.7L-19.1,371.7L-19.1,371.7L-19.1,371.7L-19.1,371.7z M-19.2,371.7L-19.2,371.7L-19.2,371.7
		L-19.2,371.7L-19.2,371.7z M-19.4,371.7L-19.4,371.7L-19.4,371.7L-19.4,371.7L-19.4,371.7z M-19.5,371.7L-19.5,371.7L-19.5,371.7
		L-19.5,371.7L-19.5,371.7z M-19.6,371.7L-19.6,371.7L-19.6,371.7L-19.6,371.7L-19.6,371.7z M-19.7,371.7L-19.7,371.7L-19.7,371.7
		L-19.7,371.7L-19.7,371.7z M-19.8,371.7L-19.8,371.7L-19.8,371.7L-19.8,371.7L-19.8,371.7z M-19.9,371.7L-19.9,371.7L-19.9,371.7
		L-19.9,371.7L-19.9,371.7z M-20,371.7L-20,371.7L-20,371.7L-20,371.7L-20,371.7z M-20.1,371.7L-20.1,371.7L-20.1,371.7L-20.1,371.7
		L-20.1,371.7z M-20.2,371.7L-20.2,371.7L-20.2,371.7L-20.2,371.7L-20.2,371.7z M-20.3,371.7L-20.3,371.7L-20.3,371.7L-20.3,371.7
		L-20.3,371.7z M-20.5,371.7L-20.5,371.7L-20.5,371.7L-20.5,371.7L-20.5,371.7z M-20.6,371.7L-20.6,371.7L-20.6,371.7L-20.6,371.7
		L-20.6,371.7z M-20.7,371.7L-20.7,371.7L-20.7,371.7L-20.7,371.7L-20.7,371.7z M-20.8,371.7L-20.8,371.7L-20.8,371.7L-20.8,371.7
		L-20.8,371.7z M-20.9,371.7L-20.9,371.7L-20.9,371.7L-20.9,371.7L-20.9,371.7z M-21,371.7L-21,371.7L-21,371.7L-21,371.7L-21,371.7
		z M-21.1,371.7L-21.1,371.7L-21.1,371.7L-21.1,371.7L-21.1,371.7z M-21.2,371.7L-21.2,371.7L-21.2,371.7L-21.2,371.7L-21.2,371.7z
		 M-21.3,371.7L-21.3,371.7L-21.3,371.7L-21.3,371.7L-21.3,371.7z M-21.4,371.7L-21.4,371.7L-21.4,371.7L-21.4,371.7L-21.4,371.7z
		 M-21.6,371.7L-21.6,371.7L-21.6,371.7L-21.6,371.7L-21.6,371.7z M-21.6,371.7L-21.6,371.7L-21.6,371.7L-21.6,371.7L-21.6,371.7z
		 M-21.7,371.7L-21.7,371.7L-21.7,371.7L-21.7,371.7L-21.7,371.7z M-21.7,371.8L-21.7,371.8L-21.7,371.8L-21.7,371.8L-21.7,371.8z
		 M-21.6,371.8L-21.6,371.8L-21.6,371.8L-21.6,371.8L-21.6,371.8z M-21.5,371.8L-21.5,371.8L-21.5,371.8L-21.5,371.8L-21.5,371.8z
		 M-21.4,371.8L-21.4,371.8L-21.4,371.8L-21.4,371.8L-21.4,371.8z M-21.3,371.8L-21.3,371.8L-21.3,371.8L-21.3,371.8L-21.3,371.8z
		 M-21.2,371.8L-21.2,371.8L-21.2,371.8L-21.2,371.8L-21.2,371.8z M-21.1,371.8L-21.1,371.8L-21.1,371.8L-21.1,371.8L-21.1,371.8z
		 M-21,371.8L-21,371.8L-21,371.8L-21,371.8L-21,371.8z M-20.9,371.8L-20.9,371.8L-20.9,371.8L-20.9,371.8L-20.9,371.8z
		 M-20.8,371.8L-20.8,371.8L-20.8,371.8L-20.8,371.8L-20.8,371.8z M-20.7,371.8L-20.7,371.8L-20.7,371.8L-20.7,371.8L-20.7,371.8z
		 M-20.5,371.8L-20.5,371.8L-20.5,371.8L-20.5,371.8L-20.5,371.8z M-20.4,371.8L-20.4,371.8L-20.4,371.8L-20.4,371.8L-20.4,371.8z
		 M-20.3,371.8L-20.3,371.8L-20.3,371.8L-20.3,371.8L-20.3,371.8z M-20.2,371.8L-20.2,371.8L-20.2,371.8L-20.2,371.8L-20.2,371.8z
		 M-20.1,371.8L-20.1,371.8L-20.1,371.8L-20.1,371.8L-20.1,371.8z M-20,371.8L-20,371.8L-20,371.8L-20,371.8L-20,371.8z
		 M-19.9,371.8L-19.9,371.8L-19.9,371.8L-19.9,371.8L-19.9,371.8z M-19.8,371.8L-19.8,371.8L-19.8,371.8L-19.8,371.8L-19.8,371.8
		L-19.8,371.8L-19.8,371.8z M-19.1,371.8L-19.1,371.8L-19.1,371.8L-19.1,371.8L-19.1,371.8L-19.1,371.8L-19.1,371.8z M-19,371.8
		L-19,371.8L-19,371.8L-19,371.8L-19,371.8z M-18.9,371.7L-18.9,371.7L-18.9,371.7L-18.9,371.7L-18.9,371.7z M-18.9,371.7
		L-18.9,371.7L-18.9,371.7L-18.9,371.7L-18.9,371.7z M-18.9,371.7L-18.9,371.7L-18.9,371.7L-18.9,371.7L-18.9,371.7z M-19,371.6
		L-19,371.6C-19,371.6-18.9,371.6-19,371.6L-19,371.6L-19,371.6z M-19,371.6L-19,371.6L-19,371.6C-19.1,371.6-19.1,371.6-19,371.6
		L-19,371.6z M-19.1,371.6L-19.1,371.6L-19.1,371.6C-19.2,371.6-19.2,371.6-19.1,371.6L-19.1,371.6z M-19.2,371.6L-19.2,371.6
		L-19.2,371.6C-19.3,371.6-19.3,371.6-19.2,371.6L-19.2,371.6z M-19.4,371.6L-19.4,371.6L-19.4,371.6L-19.4,371.6L-19.4,371.6z
		 M-19.5,371.6L-19.5,371.6L-19.5,371.6L-19.5,371.6L-19.5,371.6z M-19.6,371.6L-19.6,371.6L-19.6,371.6L-19.6,371.6L-19.6,371.6z
		 M-19.7,371.6L-19.7,371.6L-19.7,371.6L-19.7,371.6L-19.7,371.6z M-19.8,371.6L-19.8,371.6L-19.8,371.6
		C-19.9,371.6-19.8,371.6-19.8,371.6L-19.8,371.6z M-19.9,371.6L-19.9,371.6L-19.9,371.6C-20,371.6-19.9,371.6-19.9,371.6
		L-19.9,371.6z M-20,371.6L-20,371.6L-20,371.6C-20.1,371.6-20,371.6-20,371.6L-20,371.6z M-20.1,371.6L-20.1,371.6L-20.1,371.6
		C-20.2,371.6-20.2,371.6-20.1,371.6L-20.1,371.6z M-20.2,371.6L-20.2,371.6L-20.2,371.6C-20.3,371.6-20.3,371.6-20.2,371.6
		L-20.2,371.6z M-20.3,371.6L-20.3,371.6L-20.3,371.6C-20.4,371.6-20.4,371.6-20.3,371.6L-20.3,371.6z M-20.5,371.6L-20.5,371.6
		L-20.5,371.6L-20.5,371.6L-20.5,371.6z M-20.6,371.6L-20.6,371.6L-20.6,371.6L-20.6,371.6L-20.6,371.6z M-20.7,371.6L-20.7,371.6
		L-20.7,371.6L-20.7,371.6L-20.7,371.6z M-20.8,371.6L-20.8,371.6L-20.8,371.6L-20.8,371.6L-20.8,371.6z M-20.9,371.6L-20.9,371.6
		L-20.9,371.6C-21,371.6-20.9,371.6-20.9,371.6L-20.9,371.6z M-21,371.6L-21,371.6L-21,371.6C-21.1,371.6-21,371.6-21,371.6
		L-21,371.6z M-21.1,371.6L-21.1,371.6L-21.1,371.6C-21.2,371.6-21.1,371.6-21.1,371.6L-21.1,371.6z M-21.2,371.6L-21.2,371.6
		L-21.2,371.6C-21.3,371.6-21.3,371.6-21.2,371.6L-21.2,371.6z M-21.3,371.6L-21.3,371.6L-21.3,371.6
		C-21.4,371.6-21.4,371.6-21.3,371.6L-21.3,371.6z M-21.4,371.6L-21.4,371.6L-21.4,371.6C-21.5,371.6-21.5,371.6-21.4,371.6
		L-21.4,371.6z M-21.6,371.6L-21.6,371.6L-21.6,371.6L-21.6,371.6L-21.6,371.6z M-21.7,371.6L-21.7,371.6L-21.7,371.6L-21.7,371.6
		L-21.7,371.6z M-21.7,371.6L-21.7,371.6L-21.7,371.6L-21.7,371.6L-21.7,371.6z M-21.8,371.7L-21.8,371.7
		C-21.9,371.7-21.9,371.7-21.8,371.7L-21.8,371.7L-21.8,371.7z M-21.8,371.7L-21.8,371.7L-21.8,371.7
		C-21.9,371.7-21.9,371.7-21.8,371.7L-21.8,371.7z M-21.8,371.8L-21.8,371.8L-21.8,371.8C-21.9,371.8-21.9,371.8-21.8,371.8
		L-21.8,371.8z M-18.4,367.6L-18.4,367.6L-18.4,367.6L-18.4,367.6L-18.4,367.6z M-18.4,367.6L-18.4,367.6L-18.4,367.6L-18.4,367.6
		L-18.4,367.6L-18.4,367.6z M-18.9,371.6L-18.9,371.6L-18.9,371.6L-18.9,371.6L-18.9,371.6z M-21.8,371.6L-21.8,371.6L-21.8,371.6
		C-21.9,371.6-21.9,371.6-21.8,371.6C-21.9,371.6-21.8,371.6-21.8,371.6z"/>
	<path class="st0" d="M-48.4,378.6L-48.4,378.6l-0.1,5.8l0.5,1.2v30h-0.1v18.4h7v-18.2h-0.1v-30l0.5-1.2v-5.8h-0.7V378h-0.1v-0.1
		h-0.1v0.1h-0.2v-0.2l0,0l0,0l0,0l0,0c0.1-0.1,0.1-0.1,0.1-0.2s-0.2,0-0.3,0.1c-0.2,0.1-0.3,0.1-0.3,0.2s0.1,0.1,0.2,0l0,0l0,0l0,0
		l0,0l0,0v0.1h-0.1v0.2h-0.1v-0.1h-0.1v0.6h-0.4v-0.2H-43v-0.8h-0.5l0,0h-0.3l0,0h-0.9l0,0h-0.2l0,0H-45l0,0h-0.2l0,0h-0.2v0.8h-0.2
		v0.1h-1.3l0,0h-0.4v-0.2h-0.6v-0.2l0,0l0,0l0,0l0,0c0.1,0.1,0.2,0.1,0.2,0.1c0.1,0,0-0.2-0.1-0.5s-0.2-0.3-0.3-0.2
		c-0.1,0,0,0.1,0,0.2l0,0l0,0l0,0l0,0l0,0l0,0l-0.1,0.2l0,0l-0.2,0.3l0,0V378.6L-48.4,378.6L-48.4,378.6z M-47.9,378.2L-47.9,378.2
		V378l0,0V378.2z M-48,378L-48,378v0.2l0,0V378z M-47.9,378.2L-47.9,378.2V378l0,0V378.2z M-42.2,378.2v0.2h-0.1L-42.2,378.2
		L-42.2,378.2z M-42,377.8v0.1h-0.1L-42,377.8L-42,377.8z M-42,377.9L-42,377.9L-42,377.9L-42,377.9L-42,377.9z M-41.9,377.9
		L-41.9,377.9l-0.1-0.1l0,0l0,0l0,0L-41.9,377.9z M-42.2,378.6L-42.2,378.6l-0.1-0.1h0.1V378.6z"/>
	<polygon class="st0" points="54,371.1 54.1,371.1 54.1,371.8 54.4,371.8 54.4,371.1 54.5,371.1 54.5,371.8 58.3,371.8 58.3,375.1 
		57.5,375.1 57.5,375.1 56.8,375.1 56.8,382.3 57,382.9 57,391.6 57.1,391.6 57.1,395.6 58.9,395.6 58.9,433.3 50.1,433.3 
		50.1,395.6 51.9,395.6 51.9,391.6 52,391.6 52,385.6 52.2,385 52.2,375.1 51.5,375.1 51.5,375.1 50.8,375.1 50.8,371.8 54,371.8 	
		"/>
	<path class="st0" d="M-92.8,397.5L-92.8,397.5l-0.4,0.1v9.8h-0.4v17.1h0.2v9.5h8.3v-9.5h0.2v-17.1h-0.4v-9.8h-0.4v-0.1H-86v-2.8
		h-6.4v2.8H-92.8z M-91.8,396.8L-92,397l-0.2-0.2C-92.2,396.8-92.1,396.8-91.8,396.8z M-91.2,396.8l-0.2,0.3l-0.2-0.2
		C-91.5,396.8-91.4,396.8-91.2,396.8z M-90.6,396.8l-0.2,0.2l-0.2-0.2C-90.9,396.8-90.7,396.8-90.6,396.8z M-89.9,396.8l-0.2,0.2
		l-0.3-0.2C-90.2,396.8-90.1,396.8-89.9,396.8z M-89.3,396.8l-0.2,0.2l-0.2-0.2C-89.5,396.8-89.4,396.8-89.3,396.8z M-88.7,396.8
		l-0.2,0.2l-0.2-0.2C-89.1,396.8-88.9,396.8-88.7,396.8z M-88,396.8l-0.2,0.2l-0.2-0.2C-88.4,396.8-88.2,396.8-88,396.8z
		 M-87.4,396.8l-0.2,0.2l-0.2-0.2C-87.7,396.8-87.6,396.8-87.4,396.8z M-86.8,396.8L-87,397l-0.2-0.2
		C-87.1,396.8-86.9,396.8-86.8,396.8z M-86.1,396.8l-0.3,0.3l-0.2-0.2C-86.4,396.8-86.2,396.8-86.1,396.8z M-86.1,397.4l-0.3-0.2
		l0.3-0.2C-86.1,396.9-86.1,397.2-86.1,397.4z M-86.6,397.5l0.2-0.2l0.2,0.2H-86.6z M-86.7,396.9l0.2,0.2l-0.2,0.2V396.9z
		 M-86.7,397.4l-0.2-0.2l0.2-0.2V397.4z M-87.3,397.5l0.2-0.2l0.2,0.2H-87.3z M-87.3,396.9l0.2,0.2l-0.2,0.2V396.9z M-87.4,397.4
		l-0.2-0.2l0.2-0.2V397.4z M-87.9,397.5l0.2-0.2l0.2,0.2H-87.9z M-87.9,396.9l0.2,0.2l-0.2,0.2V396.9z M-88,397.4l-0.2-0.2l0.2-0.2
		V397.4z M-88.5,397.5l0.2-0.2l0.2,0.2H-88.5z M-88.6,396.9l0.2,0.2l-0.2,0.2V396.9z M-88.6,397.4l-0.2-0.2l0.2-0.2V397.4z
		 M-89.1,397.5l0.2-0.2l0.2,0.2H-89.1z M-89.2,396.9l0.2,0.2l-0.2,0.2C-89.2,397.2-89.2,396.9-89.2,396.9z M-89.2,397.4l-0.2-0.2
		l0.2-0.2V397.4z M-89.8,397.5l0.2-0.2l0.2,0.2H-89.8z M-89.8,396.9l0.2,0.2l-0.2,0.2V396.9z M-89.9,397.4l-0.2-0.2l0.2-0.2V397.4z
		 M-90.4,397.5l0.2-0.2l0.2,0.2H-90.4z M-90.5,396.9l0.2,0.2l-0.2,0.2V396.9z M-90.5,397.4l-0.2-0.2l0.2-0.2V397.4z M-91,397.5
		l0.2-0.2l0.2,0.2H-91z M-91.1,396.9l0.2,0.2l-0.2,0.2V396.9z M-91.1,397.4l-0.3-0.2l0.2-0.2v0.5H-91.1z M-91.7,397.5l0.2-0.2
		l0.2,0.2H-91.7z M-91.7,396.9l0.2,0.2l-0.2,0.2V396.9z M-91.8,397.4l-0.2-0.2l0.2-0.2V397.4z M-92.3,397.5l0.2-0.2l0.2,0.2H-92.3z
		 M-92.4,396.9l0.2,0.2l-0.2,0.2C-92.4,397.2-92.4,396.9-92.4,396.9z"/>
	<path class="st0" d="M21.8,406.9v-1.2h-0.2v-16.4h-0.8v-9.9h-0.3v-2.1h0.2v-0.8h-0.2v-1.4h-0.2v-0.8h-0.4v-0.5c0,0-0.4-0.3-0.7-0.3
		h-0.1c0,0,0-0.2-0.4-0.2c-0.1,0-0.1,0-0.2,0c0-0.2-0.2-0.5-0.4-0.5s-0.4,0.2-0.4,0.5c-0.2,0-0.4,0-0.6,0v-0.2H17v0.2
		c-0.1,0-0.2,0-0.3,0v-0.2h-0.2v0.2c-0.2,0-0.3,0-0.3,0v1.2h-0.5v-0.3h-0.5v0.3l-0.6-0.2h-0.3v-0.5h-0.4v-0.1h-0.5v0.1h-0.7v0.6
		l-0.2,0.2c0,0-0.2-0.7-1-0.7v-0.3h-0.7l0,0H10v0.5c-0.1,0-0.2,0-0.3,0v-0.2H9.4v0.1H9v0.1c-0.1,0-0.1,0-0.1,0v0.3H8.5v0.9H8.3v1.4
		H8.1v0.8h0.2v2.1H8v9.9H7.2v16.4H7v1.2l-0.2,0.2v26.2h15.3v-26.4L21.8,406.9z"/>
	<path class="st0" d="M-76,404.6v0.1h0.1v29h4.4v-29h0.1v-0.1h-0.3v-3.8l0,0l0,0l0,0h-0.9v-0.2h0.7l0,0l0,0l0,0l-1.7-2.6l0,0l0,0
		l0,0l0,0l0,0l0,0l0,0l0,0l0,0l0,0l-1.7,2.6l0,0l0,0l0,0h0.7v0.2h-0.9l0,0l0,0l0,0v3.8C-75.5,404.6-76,404.6-76,404.6z M-73.5,398.3
		C-73.5,398.3-73.5,398.4-73.5,398.3L-73.5,398.3C-73.5,398.4-73.5,398.3-73.5,398.3z M-73.3,398.7L-73.3,398.7
		c-0.1-0.1-0.1-0.1-0.2-0.2l0,0L-73.3,398.7z M-74,398.4L-74,398.4C-74,398.4-74,398.3-74,398.4C-74,398.3-74,398.4-74,398.4z
		 M-74,398.4c0,0.1-0.1,0.1-0.1,0.2h-0.1L-74,398.4L-74,398.4z M-73.4,398.8c0,0.1,0.1,0.1,0.1,0.2h-0.1V398.8L-73.4,398.8z
		 M-73.5,398.7L-73.5,398.7L-73.5,398.7L-73.5,398.7z M-74,398.7L-74,398.7L-74,398.7L-74,398.7z M-74,398.8v0.2h-0.1
		C-74.1,398.9-74.1,398.8-74,398.8L-74,398.8z M-73.2,399.3L-73.2,399.3h-0.2V399h0.1C-73.3,399.1-73.3,399.1-73.2,399.3z
		 M-74,399.8v-0.2h0.2v0.2H-74z M-73.8,400L-73.8,400H-74l0,0H-73.8z M-73.7,399.6h0.2v0.2h-0.2V399.6z M-73.5,400L-73.5,400h-0.2
		l0,0H-73.5z M-74.2,400L-74.2,400h0.2l0,0H-74.2z M-74.2,399.8v-0.2h0.2v0.2H-74.2z M-74.3,399.8h-0.2c0-0.1,0.1-0.1,0.1-0.2h0.1
		V399.8z M-74.3,399.6c0-0.1,0.1-0.1,0.1-0.2L-74.3,399.6L-74.3,399.6z M-74.2,399.4h0.2v0.2h-0.2V399.4z M-74,399.4h0.2v0.2H-74
		V399.4z M-73.7,399.4h0.2v0.2h-0.2V399.4z M-73.5,399.4h0.2v0.2h-0.2V399.4z M-73.2,399.4c0,0.1,0.1,0.1,0.1,0.2h-0.1V399.4z
		 M-73.1,399.6c0,0.1,0.1,0.1,0.1,0.2h-0.2L-73.1,399.6L-73.1,399.6z M-73.2,399.8h-0.2v-0.2h0.2V399.8z M-73.2,400L-73.2,400h-0.2
		l0,0H-73.2z M-74.5,400L-74.5,400h0.2l0,0H-74.5z M-74.1,399L-74.1,399l0.1,0.2h-0.2l0,0C-74.2,399.1-74.2,399.1-74.1,399z
		 M-74,399h0.2v0.2H-74V399z M-73.7,399h0.2v0.2h-0.2V399z M-73,400h-0.2l0,0H-73L-73,400z M-74.6,400L-74.6,400L-74.6,400
		L-74.6,400L-74.6,400z M-74.6,399.8l0.1-0.2C-74.5,399.7-74.5,399.8-74.6,399.8L-74.6,399.8z M-74.6,399.8L-74.6,399.8v-0.2h0.1
		L-74.6,399.8z M-74,398.8h0.2v0.2H-74V398.8z M-73.7,398.8h0.2v0.2h-0.2V398.8z M-72.9,399.8L-72.9,399.8c-0.1-0.1-0.1-0.1-0.1-0.2
		L-72.9,399.8z M-73,399.6L-73,399.6l0.2,0.2h-0.1L-73,399.6z M-72.9,400L-72.9,400L-72.9,400L-72.9,400L-72.9,400z M-74.7,400
		L-74.7,400L-74.7,400L-74.7,400L-74.7,400z M-74.9,400L-74.9,400L-74.9,400L-74.9,400L-74.9,400z M-74.9,399.8l0.1-0.2h0.1
		L-74.9,399.8L-74.9,399.8z M-74.8,399.6c0.1-0.1,0.1-0.1,0.2-0.2h0.1l-0.1,0.2H-74.8z M-74.5,399.4L-74.5,399.4v0.2h-0.1
		L-74.5,399.4z M-74.5,399.3l0.1-0.2h0.1C-74.3,399.1-74.4,399.1-74.5,399.3L-74.5,399.3L-74.5,399.3z M-74.3,399l0.1-0.2h0.1
		C-74.2,398.8-74.2,398.9-74.3,399L-74.3,399z M-73.9,398.4h0.2v0.2h-0.2v-0.1C-74,398.6-73.9,398.6-73.9,398.4z M-73.7,398.4h0.2
		c0,0,0,0.1,0.1,0.1v0.1h-0.2L-73.7,398.4L-73.7,398.4z M-73.3,398.8l0.1,0.2h-0.1C-73.3,398.9-73.3,398.8-73.3,398.8L-73.3,398.8z
		 M-73.1,399l0.1,0.2h-0.1l0,0C-73.1,399.1-73.2,399.1-73.1,399L-73.1,399z M-73,399.4l0.1,0.2H-73V399.4L-73,399.4z M-72.9,399.4
		L-72.9,399.4c0.1,0.1,0.2,0.1,0.3,0.2h-0.1L-72.9,399.4z M-72.5,399.8L-72.5,399.8l-0.2-0.2h0.1L-72.5,399.8z M-72.5,400L-72.5,400
		L-72.5,400L-72.5,400L-72.5,400z M-72.7,400L-72.7,400L-72.7,400L-72.7,400L-72.7,400z M-74.7,400.2L-74.7,400.2L-74.7,400.2
		L-74.7,400.2L-74.7,400.2z M-74.8,400.2L-74.8,400.2L-74.8,400.2L-74.8,400.2L-74.8,400.2z M-74.8,400.2l-0.1,0.2H-75L-74.8,400.2
		L-74.8,400.2z M-75.1,400.4L-75.1,400.4v-0.2h0.1L-75.1,400.4z M-75.1,400.2L-75.1,400.2L-75.1,400.2L-75.1,400.2L-75.1,400.2z
		 M-75.1,400.2L-75.1,400.2C-75.2,400.2-75.2,400.2-75.1,400.2L-75.1,400.2L-75.1,400.2z M-75,400L-75,400L-75,400L-75,400L-75,400z
		 M-74.6,399.3c0.1-0.1,0.1-0.1,0.2-0.2l0,0L-74.6,399.3L-74.6,399.3z M-74.4,399c0.1-0.1,0.1-0.1,0.2-0.2l0,0L-74.4,399L-74.4,399z
		 M-73.8,398.2L-73.8,398.2v0.2h-0.1C-73.9,398.3-73.8,398.2-73.8,398.2z M-73.7,398.2L-73.7,398.2c0.1,0.1,0.1,0.1,0.1,0.2h-0.1
		V398.2z M-73.2,398.8c0.1,0.1,0.1,0.1,0.2,0.2l0,0L-73.2,398.8L-73.2,398.8z M-73,399c0.1,0.1,0.1,0.1,0.2,0.2h-0.1L-73,399
		L-73,399z M-72.5,400C-72.5,400-72.4,400-72.5,400L-72.5,400L-72.5,400L-72.5,400z M-72.3,400.1C-72.3,400.2-72.3,400.2-72.3,400.1
		L-72.3,400.1L-72.3,400.1L-72.3,400.1z M-72.4,400.2L-72.4,400.2L-72.4,400.2L-72.4,400.2L-72.4,400.2z M-72.4,400.2l0.1,0.2h-0.1
		V400.2L-72.4,400.2z M-72.4,400.4L-72.4,400.4l-0.2-0.2h0.1L-72.4,400.4z M-72.7,400.2L-72.7,400.2L-72.7,400.2L-72.7,400.2
		L-72.7,400.2z M-72.7,400.2L-72.7,400.2L-72.7,400.2L-72.7,400.2L-72.7,400.2z M-74.8,400.4L-74.8,400.4v-0.2l0,0v0.1
		C-74.8,400.3-74.8,400.4-74.8,400.4z M-75.3,400.4c0,0,0.1-0.1,0.1-0.2l0,0L-75.3,400.4L-75.3,400.4z M-73.8,398.1L-73.8,398.1
		L-73.8,398.1L-73.8,398.1z M-73.7,398.1L-73.7,398.1L-73.7,398.1L-73.7,398.1z M-72.1,400.4C-72.1,400.4-72.2,400.4-72.1,400.4
		l-0.2-0.2l0,0C-72.2,400.3-72.2,400.4-72.1,400.4z M-72.7,400.3L-72.7,400.3L-72.7,400.3l0.1,0.1h-0.1V400.3z"/>
	<path class="st0" d="M-62.4,383.8V434h6v-51.3h-1.5v0.1H-58v0.3h-2.1l0,0h-0.5v0.6h-0.5v-0.1h-0.6v0.1h-0.7V383.8z M-56.8,382.8
		c0,0,0.2,0,0.3,0c0,0,0,0.8,0,2.1h-0.3V382.8z M-60.5,384.3H-61v-0.5c0.2,0,0.4,0,0.5,0V384.3z M-62.3,383.9c0,0,0.4,0,0.7,0v0.5
		h-0.3v1.3h-0.4C-62.3,384.5-62.3,383.9-62.3,383.9z"/>
</g>
<g id="statue_of_liberty">
</g>
</svg>
