<svg width="776" height="402" xmlns="http://www.w3.org/2000/svg">

 <g>
  <title>background</title>
  <rect fill="none" id="canvas_background" height="402" width="582" y="-1" x="-1"/>
 </g>
 <g>
  <title>Layer 1</title>
  <path id="svg_7" fill="#939393" d="m177.5,235.1l100.5,0l0,56.2l-100.5,0l0,-56.2z"/>
  <path id="svg_8" fill="none" stroke-miterlimit="10" stroke-linejoin="round" stroke-linecap="round" stroke-width="3" stroke="#939393" d="m177.5,235.1l100.5,0l0,56.2l-100.5,0l0,-56.2z"/>
  <path id="svg_25" fill="#939393" d="m674.2,155l0,42.3l-3.2,0l0,-3l-11.2,0l0,8.3l-3.2,0l0,-79.1l-0.4,0l0,-0.7l0.4,0l0,-3.8l-0.4,0l0,-0.7l0.4,0l0,-11.3l-0.4,0l0,-0.7l0.4,0l0,-2.8l0.5,0l0,-0.8l-0.5,0l0,-0.8l0.5,0l0,-0.4l-0.5,0l0,-1.2l-3.1,0l0,-9l0.3,0l0,-2.3l-1.5,0l-5.7,-21.2l0.2,0l0,-2.6l-1.2,0l0,-6.3l0.2,0l0,-0.4l-0.4,0c-0.2,-0.7 -0.6,-1.2 -1.2,-1.6l0.1,0c0.3,0 0.5,-0.2 0.5,-0.6c0,-0.3 -0.2,-0.6 -0.5,-0.6l-0.9,0l0,-0.5c0.2,-0.1 0.3,-0.3 0.3,-0.6c0,-0.2 -0.1,-0.4 -0.3,-0.6c0.5,-0.2 0.9,-0.6 0.9,-1.2s-0.4,-1 -0.9,-1.2l0,-2.8l-0.8,0l0,2.8c-0.5,0.2 -0.9,0.6 -0.9,1.2s0.4,1 0.9,1.2c-0.2,0.1 -0.3,0.3 -0.3,0.6s0.1,0.5 0.3,0.6l0,0.5l-0.9,0c-0.3,0 -0.5,0.2 -0.5,0.6c0,0.3 0.2,0.6 0.5,0.6l0.1,0c-0.6,0.3 -1,0.9 -1.2,1.6l-0.4,0l0,0.4l0.2,0l0,6.3l-1.2,0l0,2.6l0.2,0l-5.5,21.2l-1.5,0l0,2.3l0.4,0l0,9l-3.1,0l0,1.2l-0.5,0l0,0.4l0.5,0l0,0.8l-0.5,0l0,0.8l0.5,0l0,2.8l0.4,0l0,0.7l-0.4,0l0,11.4l0.4,0l0,0.7l-0.4,0l0,3.8l0.4,0l0,0.7l-0.4,0l0,168.5l67.9,0l0,-137.1l-23.4,0z"/>
  <path id="svg_26" fill="none" stroke-miterlimit="10" stroke-linejoin="round" stroke-linecap="round" stroke-width="3" stroke="#939393" d="m674.2,155l0,42.3l-3.2,0l0,-3l-11.2,0l0,8.3l-3.2,0l0,-79.1l-0.4,0l0,-0.7l0.4,0l0,-3.8l-0.4,0l0,-0.7l0.4,0l0,-11.3l-0.4,0l0,-0.7l0.4,0l0,-2.8l0.5,0l0,-0.8l-0.5,0l0,-0.8l0.5,0l0,-0.4l-0.5,0l0,-1.2l-3.1,0l0,-9l0.3,0l0,-2.3l-1.5,0l-5.7,-21.2l0.2,0l0,-2.6l-1.2,0l0,-6.3l0.2,0l0,-0.4l-0.4,0c-0.2,-0.7 -0.6,-1.2 -1.2,-1.6l0.1,0c0.3,0 0.5,-0.2 0.5,-0.6c0,-0.3 -0.2,-0.6 -0.5,-0.6l-0.9,0l0,-0.5c0.2,-0.1 0.3,-0.3 0.3,-0.6c0,-0.2 -0.1,-0.4 -0.3,-0.6c0.5,-0.2 0.9,-0.6 0.9,-1.2s-0.4,-1 -0.9,-1.2l0,-2.8l-0.8,0l0,2.8c-0.5,0.2 -0.9,0.6 -0.9,1.2s0.4,1 0.9,1.2c-0.2,0.1 -0.3,0.3 -0.3,0.6s0.1,0.5 0.3,0.6l0,0.5l-0.9,0c-0.3,0 -0.5,0.2 -0.5,0.6c0,0.3 0.2,0.6 0.5,0.6l0.1,0c-0.6,0.3 -1,0.9 -1.2,1.6l-0.4,0l0,0.4l0.2,0l0,6.3l-1.2,0l0,2.6l0.2,0l-5.5,21.2l-1.5,0l0,2.3l0.4,0l0,9l-3.1,0l0,1.2l-0.5,0l0,0.4l0.5,0l0,0.8l-0.5,0l0,0.8l0.5,0l0,2.8l0.4,0l0,0.7l-0.4,0l0,11.4l0.4,0l0,0.7l-0.4,0l0,3.8l0.4,0l0,0.7l-0.4,0l0,168.5l67.9,0l0,-137.1l-23.4,0z"/>
  <path id="svg_27" fill="#939393" d="m616.9,198.8l0,-32l-3.5,0l0,-32.5l-43.8,0l0,32.5l-3.4,0l0,32l-7.4,0l0,93.3l65.4,0l0,-93.3l-7.3,0z"/>
  <path id="svg_28" fill="none" stroke-miterlimit="10" stroke-linejoin="round" stroke-linecap="round" stroke-width="3" stroke="#939393" d="m616.9,198.8l0,-32l-3.5,0l0,-32.5l-43.8,0l0,32.5l-3.4,0l0,32l-7.4,0l0,93.3l65.4,0l0,-93.3l-7.3,0z"/>
  <path id="svg_29" fill="#939393" d="m485.3,158.3l0,-2.5l-2.3,0c-0.5,-3.7 -3.9,-6.6 -8.1,-6.6c-4.2,0 -7.6,2.9 -8.1,6.6l-2.3,0l0,2.5l-2,0l0,136.3l24.9,0l0,-136.3l-2.1,0z"/>
  <path id="svg_30" fill="none" stroke-miterlimit="10" stroke-linejoin="round" stroke-linecap="round" stroke-width="3" stroke="#939393" d="m485.3,158.3l0,-2.5l-2.3,0c-0.5,-3.7 -3.9,-6.6 -8.1,-6.6c-4.2,0 -7.6,2.9 -8.1,6.6l-2.3,0l0,2.5l-2,0l0,136.3l24.9,0l0,-136.3l-2.1,0z"/>
  <path id="svg_31" fill="#939393" d="m440.3,151.6l0,-2.1l-6.5,0l0,2.1l-2.7,0l0,-3.7l-7.2,0l0,3.7l-9.2,0l0,-2.1l-7,0l0,2.1l-13.2,0l0,142.4l49.4,0l0,-142.4l-3.6,0z"/>
  <path id="svg_32" fill="none" stroke-miterlimit="10" stroke-linejoin="round" stroke-linecap="round" stroke-width="3" stroke="#939393" d="m440.3,151.6l0,-2.1l-6.5,0l0,2.1l-2.7,0l0,-3.7l-7.2,0l0,3.7l-9.2,0l0,-2.1l-7,0l0,2.1l-13.2,0l0,142.4l49.4,0l0,-142.4l-3.6,0z"/>
  <path id="svg_33" fill="#939393" d="m526.8,192.7l0,-10.4l-1.1,0l0,-60.9l-1.6,0l0,-7.7l1.3,0c0.2,0 0.3,-0.3 0.3,-0.6s-0.1,-0.6 -0.3,-0.6l-1.7,0c0.1,-0.2 0.1,-0.4 0.1,-0.6l0,-16.7c0,-1 -0.7,-1.8 -1.7,-2c0.1,-0.5 0.1,-1 0.1,-1.6c0,-2.6 -0.6,-5 -1.7,-6.9c0.1,-2.4 -0.5,-4.3 -1.4,-5.9c0,-0.4 0.1,-0.8 0.1,-1.2c-0.3,-2.6 -1.1,-4.5 -2.3,-6.2l0,-0.6c0,-1.4 -0.4,-2.7 -1.1,-3.6l0,-0.6c0,-2.6 -0.4,-4.9 -1,-6.3c0,-2.8 -0.4,-5.2 -0.9,-6.2c0,-9.6 -0.2,-17.1 -0.5,-17.1s-0.5,7.6 -0.5,17.1c-0.5,1 -0.8,3.3 -0.9,6.2c-0.6,1.4 -1,3.7 -1,6.3l0,0.6c-0.7,0.9 -1.1,2.2 -1.1,3.6l0,0.6c-1.1,1.6 -2,3.5 -2.3,6.2c-0.1,0.4 0,0.8 0.1,1.2c-0.8,1.7 -1.6,3.7 -1.4,5.9c-1.1,1.9 -1.7,4.3 -1.7,6.9c0,0.5 0,1.1 0.1,1.6c-0.9,0.2 -1.7,1 -1.7,2l0,16.8c0,0.2 0,0.4 0.1,0.6l-1.7,0c-0.2,0 -0.3,0.3 -0.3,0.6s0.1,0.6 0.3,0.6l1.3,0l0,7.7l-1.6,0l0,60.9l-1.1,0l0,10.4l-3.3,0l0,98.8l33.4,0l0,-98.8l-3.3,0l0,-0.1z"/>
  <path id="svg_34" fill="none" stroke-miterlimit="10" stroke-linejoin="round" stroke-linecap="round" stroke-width="3" stroke="#939393" d="m526.8,192.7l0,-10.4l-1.1,0l0,-60.9l-1.6,0l0,-7.7l1.3,0c0.2,0 0.3,-0.3 0.3,-0.6s-0.1,-0.6 -0.3,-0.6l-1.7,0c0.1,-0.2 0.1,-0.4 0.1,-0.6l0,-16.7c0,-1 -0.7,-1.8 -1.7,-2c0.1,-0.5 0.1,-1 0.1,-1.6c0,-2.6 -0.6,-5 -1.7,-6.9c0.1,-2.4 -0.5,-4.3 -1.4,-5.9c0,-0.4 0.1,-0.8 0.1,-1.2c-0.3,-2.6 -1.1,-4.5 -2.3,-6.2l0,-0.6c0,-1.4 -0.4,-2.7 -1.1,-3.6l0,-0.6c0,-2.6 -0.4,-4.9 -1,-6.3c0,-2.8 -0.4,-5.2 -0.9,-6.2c0,-9.6 -0.2,-17.1 -0.5,-17.1s-0.5,7.6 -0.5,17.1c-0.5,1 -0.8,3.3 -0.9,6.2c-0.6,1.4 -1,3.7 -1,6.3l0,0.6c-0.7,0.9 -1.1,2.2 -1.1,3.6l0,0.6c-1.1,1.6 -2,3.5 -2.3,6.2c-0.1,0.4 0,0.8 0.1,1.2c-0.8,1.7 -1.6,3.7 -1.4,5.9c-1.1,1.9 -1.7,4.3 -1.7,6.9c0,0.5 0,1.1 0.1,1.6c-0.9,0.2 -1.7,1 -1.7,2l0,16.8c0,0.2 0,0.4 0.1,0.6l-1.7,0c-0.2,0 -0.3,0.3 -0.3,0.6s0.1,0.6 0.3,0.6l1.3,0l0,7.7l-1.6,0l0,60.9l-1.1,0l0,10.4l-3.3,0l0,98.8l33.4,0l0,-98.8l-3.3,0l0,-0.1z"/>
  <path id="svg_43" d="m576.4,152.4l0,1.1m1.8,-1.1l0,-0.8"/>
 </g>
</svg>