<?xml version="1.0" encoding="utf-8"?>
<!-- Generator: Adobe Illustrator 19.0.0, SVG Export Plug-In . SVG Version: 6.00 Build 0)  -->
<svg version="1.1" id="Layer_1" xmlns="http://www.w3.org/2000/svg" xmlns:xlink="http://www.w3.org/1999/xlink" x="0px" y="0px"
	 viewBox="-123 351.5 363.8 91.5" style="enable-background:new -123 351.5 363.8 91.5;" xml:space="preserve">
<style type="text/css">
	.st0{fill:#9BB382;}
</style>
<g id="ground">
</g>
<g id="new_york">
	<path class="st0" d="M201.7,423.1h0.2l0.1-17.8h-0.2v-1h1.6l0.1-0.1l-0.5-1l0.1-0.1v0.1l0.1-0.1l0.5,0.9c0,0,0,0,0.1,0
		c0.2,0,0.3,0.1,0.4,0.3h1v-0.8h-0.5l-0.1-0.5h6.5l-0.1,0.5h-0.5v0.8h0.5c0.1-0.3,0.4-0.6,0.8-0.6s0.8,0.2,0.8,0.6h1.1v1h-0.2
		l-0.1,17.8h0.2v2.5h1.1v8.4h-14.4v-8.4h1.1v-2.5H201.7z"/>
	<path class="st0" d="M117.7,420.6v-22.7h-1v-4.3l-9.8-3l-0.3-1.6l-0.7-0.2c-0.9,8.6-1,17.6-1,26.6c0,9.1,0,12.6,0.6,18.5h16.4
		v-13.3H117.7z"/>
	<path class="st0" d="M52.3,417.6v-16.8h-0.9v-1.4l-3.3-3.9v-0.4l-0.7-0.4V394l0,0v-0.8l0,0v0.8l0,0v0.7l-0.7,0.4l0,0v0.4l-3.3,3.9
		v1.4h-0.9v16.8h-1.9v16.3h13.6v-16.3H52.3z M48,395.2c0,0,0,0.2,0,0.3h-0.1L48,395.2c-0.1,0-0.2-0.1-0.2-0.1
		C47.9,395.1,48,395.2,48,395.2z M47.4,394.8c0.1,0.1,0.5,0.4,0.5,0.4s0,0.2,0,0.4h-1c0-0.1,0-0.3,0-0.4
		C46.9,395.2,47.3,394.9,47.4,394.8z M46.9,395.1l-0.1,0.1v0.3h-0.1c0-0.1,0-0.3,0-0.3C46.7,395.2,46.8,395.1,46.9,395.1z"/>
	<polygon class="st0" points="76,398.8 75.8,398.8 75.8,398.5 75.8,398.5 75.8,398.4 75.8,398.4 75.8,398 75.8,398 75.8,398 
		75.8,398 75.8,397.6 75.8,397.6 75.8,397.5 75.8,397.5 75.8,397.2 75.8,397.2 75.8,397.1 75.8,397.1 75.8,397 75.7,397 75.7,396.7 
		75.8,396.7 75.8,396.7 75.7,396.7 75.7,396.3 75.8,396.3 75.8,396.2 75.7,396.2 75.7,396.2 76,396.2 76,396 75.7,396 75.7,395.9 
		75.8,395.9 75.8,395.8 75.7,395.8 75.7,395.4 75.8,395.4 75.8,395.4 75.7,395.4 75.7,395 75.8,395 75.8,394.9 75.7,394.9 
		75.7,394.7 76,394.7 76,394.4 75.7,394.4 75.7,394.1 75.8,394.1 75.8,394.1 75.7,394.1 75.7,393.7 75.8,393.7 75.8,393.6 
		75.7,393.6 75.7,393.3 75.8,393.3 75.8,393.2 75.7,393.2 75.7,393.1 76,393.1 76,392.9 75.7,392.9 75.7,392.9 75.8,392.9 
		75.8,392.8 75.7,392.8 75.7,392.4 75.8,392.4 75.8,392.3 75.7,392.3 75.7,392.3 75.8,392.3 75.8,392 75.8,392 75.8,391.9 
		75.8,391.9 75.8,391.6 75.8,391.6 75.8,391.5 75.8,391.5 75.8,391.1 75.8,391.1 75.8,391 75.8,391 75.8,390.7 75.7,390.7 
		75.7,390.7 75.8,390.7 75.8,390.6 75.7,390.6 75.7,390.3 75.8,390.3 75.8,390.2 75.7,390.2 75.7,389.8 75.8,389.8 75.8,389.8 
		75.7,389.8 75.7,389.6 75.8,389.6 75.8,389.4 75.8,389.4 75.8,389.3 75.8,389.3 75.8,389 75.8,389 75.8,388.9 75.8,388.9 
		75.8,388.5 75.8,388.5 75.8,388.4 75.8,388.4 75.8,388.1 75.8,388.1 75.8,388 75.7,388 75.7,387.7 75.8,387.7 75.8,387.6 
		75.7,387.6 75.7,387.2 75.8,387.2 75.8,387.2 75.7,387.2 75.7,386.8 75.8,386.8 75.8,386.7 75.7,386.7 75.7,386.4 75.8,386.4 
		75.8,386.3 75.7,386.3 75.7,385.9 75.8,385.9 75.8,385.9 75.7,385.9 75.7,385.1 75.7,385.1 75.7,385.9 75.6,385.9 75.6,385.9 
		75.7,385.9 75.7,386.3 75.6,386.3 75.6,386.4 75.7,386.4 75.7,386.7 75.6,386.7 75.6,386.8 75.7,386.8 75.7,387.2 75.6,387.2 
		75.6,387.2 75.7,387.2 75.7,387.6 75.6,387.6 75.6,387.7 75.7,387.7 75.7,388 75.6,388 75.6,388.1 75.7,388.1 75.7,388.4 
		75.6,388.4 75.6,388.5 75.7,388.5 75.7,388.9 75.6,388.9 75.6,389 75.7,389 75.7,389.3 75.6,389.3 75.6,389.4 75.7,389.4 
		75.7,389.6 75.7,389.6 75.7,389.8 75.6,389.8 75.6,389.8 75.7,389.8 75.7,390.2 75.6,390.2 75.6,390.3 75.7,390.3 75.7,390.6 
		75.6,390.6 75.6,390.7 75.7,390.7 75.7,390.7 75.7,390.7 75.7,391 75.6,391 75.6,391.1 75.7,391.1 75.7,391.4 71.2,391.2 
		70.7,390.8 69.9,391.1 69.9,391 69.8,391 69.8,391.1 69.8,391.1 68,391.1 66.6,391.7 66.6,433.9 76,433.9 76,425.9 76.1,425.9 
		76.1,425.4 76,425.4 76,425.1 76.1,425.1 76.1,424.7 76,424.7 76,424.4 76.1,424.4 76.1,424 76,424 76,423.7 76.1,423.7 
		76.1,423.2 76,423.2 76,422.9 76.1,422.9 76.1,422.5 76,422.5 76,422.2 76.1,422.2 76.1,421.8 76,421.8 76,421.5 76.1,421.5 
		76.1,421 76,421 76,420.8 76.1,420.8 76.1,420.3 76,420.3 76,420 76.1,420 76.1,419.6 76,419.6 76,419.3 76.1,419.3 76.1,418.9 
		76,418.9 76,418.6 76.1,418.6 76.1,418.1 76,418.1 76,417.8 76.1,417.8 76.1,417.4 76,417.4 76,417.1 76.1,417.1 76.1,416.7 
		76,416.7 76,416.4 76.1,416.4 76.1,415.9 76,415.9 76,415.7 76.1,415.7 76.1,415.2 76,415.2 76,414.9 76.1,414.9 76.1,414.5 
		76,414.5 76,414.2 76.1,414.2 76.1,413.7 76,413.7 76,413.5 76.1,413.5 76.1,413 76,413 76,412.7 76.1,412.7 76.1,412.3 76,412.3 
		76,412 76.1,412 76.1,411.6 76,411.6 76,411.3 76.1,411.3 76.1,410.8 76,410.8 76,410.5 76.1,410.5 76.1,410.1 76,410.1 76,409.8 
		76.1,409.8 76.1,409.4 76,409.4 76,409.1 76.1,409.1 76.1,408.6 76,408.6 76,408.4 76.1,408.4 76.1,407.9 76,407.9 76,407.6 
		76.1,407.6 76.1,407.2 76,407.2 76,406.9 76.1,406.9 76.1,406.4 76,406.4 76,406.2 76.1,406.2 76.1,405.7 76,405.7 76,405.4 
		76.1,405.4 76.1,405 76,405 76,404.7 76.1,404.7 76.1,404.3 76,404.3 76,404 76.1,404 76.1,403.5 76,403.5 76,403.3 76.1,403.3 
		76.1,402.8 76,402.8 76,402.5 76.1,402.5 76.1,402.1 76,402.1 76,401.8 76.1,401.8 76.1,401.3 76,401.3 76,401.1 76.1,401.1 
		76.1,400.6 76,400.6 76,400.3 76.1,400.3 76.1,399.9 76,399.9 76,399.6 76.1,399.6 76.1,399.2 76,399.2 	"/>
	<polygon class="st0" points="-17.1,410.8 -18.6,410.7 -19.6,410.8 -22.5,410.8 -22.5,410.7 -22.8,410.7 -22.8,410.8 -23.2,410.8 
		-23.5,410.8 -23.5,410.2 -23.6,410.2 -23.6,410.7 -24.1,410.7 -24.1,410.2 -24.2,410.2 -24.2,410.7 -25.7,410.8 -25.7,411.2 
		-25.9,411.2 -25.9,412.6 -25.7,412.6 -25.7,412.9 -25.9,412.9 -25.9,413 -25.7,413 -25.7,413.4 -25.9,413.4 -25.9,413.5 
		-25.7,413.5 -25.7,413.8 -25.9,413.8 -25.9,414 -25.7,414 -25.7,414.3 -25.9,414.3 -25.9,414.5 -25.7,414.5 -25.7,414.8 
		-25.9,414.8 -25.9,414.9 -25.7,414.9 -25.7,415.2 -25.9,415.2 -25.9,415.4 -25.7,415.4 -25.7,415.7 -25.9,415.7 -25.9,415.9 
		-25.7,415.9 -25.7,416.2 -25.9,416.2 -25.9,416.3 -25.7,416.3 -25.7,416.7 -25.9,416.7 -25.9,416.8 -25.7,416.8 -25.7,417.1 
		-25.9,417.1 -25.9,417.3 -25.7,417.3 -25.7,417.6 -25.9,417.6 -25.9,417.8 -25.7,417.8 -25.7,418.1 -25.9,418.1 -25.9,418.2 
		-25.7,418.2 -25.7,418.6 -25.9,418.6 -25.9,418.7 -25.7,418.7 -25.7,419 -25.9,419 -25.9,419.2 -25.7,419.2 -25.7,419.5 
		-25.9,419.5 -25.9,419.7 -25.7,419.7 -25.7,420 -25.9,420 -25.9,420.1 -25.7,420.1 -25.7,420.4 -25.9,420.4 -25.9,420.6 
		-25.7,420.6 -25.7,420.9 -25.9,420.9 -25.9,421.1 -25.7,421.1 -25.7,421.4 -25.9,421.4 -25.9,421.5 -25.7,421.5 -25.7,421.9 
		-25.9,421.9 -25.9,422 -25.7,422 -25.7,422.3 -25.9,422.3 -25.9,422.5 -25.7,422.5 -25.7,422.8 -25.9,422.8 -25.9,423 -25.7,423 
		-25.7,423.3 -25.9,423.3 -25.9,423.4 -25.7,423.4 -25.7,423.8 -25.9,423.8 -25.9,423.9 -25.7,423.9 -25.7,425.6 -25.9,425.6 
		-25.9,433.9 -16.9,433.9 -16.9,425.6 -17,425.6 -17,423.9 -16.9,423.9 -16.9,423.8 -17,423.8 -17,423.4 -16.9,423.4 -16.9,423.3 
		-17,423.3 -17,423 -16.9,423 -16.9,422.8 -17,422.8 -17,422.5 -16.9,422.5 -16.9,422.3 -17,422.3 -17,422 -16.9,422 -16.9,421.9 
		-17,421.9 -17,421.5 -16.9,421.5 -16.9,421.4 -17,421.4 -17,421.1 -16.9,421.1 -16.9,420.9 -17,420.9 -17,420.6 -16.9,420.6 
		-16.9,420.4 -17,420.4 -17,420.1 -16.9,420.1 -16.9,420 -17,420 -17,419.7 -16.9,419.7 -16.9,419.5 -17,419.5 -17,419.2 
		-16.9,419.2 -16.9,419 -17,419 -17,418.7 -16.9,418.7 -16.9,418.6 -17,418.6 -17,418.2 -16.9,418.2 -16.9,418.1 -17,418.1 
		-17,417.8 -16.9,417.8 -16.9,417.6 -17,417.6 -17,417.3 -16.9,417.3 -16.9,417.1 -17,417.1 -17,416.8 -16.9,416.8 -16.9,416.7 
		-17,416.7 -17,416.3 -16.9,416.3 -16.9,416.2 -17,416.2 -17,415.9 -16.9,415.9 -16.9,415.7 -17,415.7 -17,415.4 -16.9,415.4 
		-16.9,415.2 -17,415.2 -17,414.9 -16.9,414.9 -16.9,414.8 -17,414.8 -17,414.5 -16.9,414.5 -16.9,414.3 -17,414.3 -17,414 
		-16.9,414 -16.9,413.8 -17,413.8 -17,413.5 -16.9,413.5 -16.9,413.4 -17,413.4 -17,413 -16.9,413 -16.9,412.9 -17,412.9 -17,412.6 
		-16.9,412.6 -16.9,411.2 -17.1,411.2 	"/>
	<path class="st0" d="M-57.2,418.1l-0.1-0.3h0.2v-0.9l0,0l-0.1-0.1h0.2v-0.2l0,0l-0.1-0.3h0.1l0,0l0.1-0.6l-0.1-0.1
		c0-0.1,0.1-0.2,0.2-0.2s0.2,0.1,0.2,0.2c0,0,0,0.1-0.1,0.1l0.1,0.5l1.9-10.8v-0.5H-55v-0.1h0.2v-0.2h0.1v0.2h0.2v0.1h-0.2v0.5
		l1.9,10.8l0.1-0.5l-0.1-0.1c0-0.1,0.1-0.2,0.2-0.2s0.2,0.1,0.2,0.2c0,0,0,0.1-0.1,0.1l0.1,0.6l0,0h0.1l-0.1,0.3l0,0v0.2h0.2
		l-0.1,0.1l0,0v0.9h0.2l-0.1,0.3l0,0v8.4l0,0l0.1,0.1v7.3h-5v-7.3l0.1-0.1l0,0L-57.2,418.1L-57.2,418.1z"/>
	<path class="st0" d="M-74.3,428.7v-1.1h-0.4V427h-0.1v-0.9h-0.1v0.1h-0.2v-0.1h-0.1v0.1h-0.2v-0.1h-0.1v0.1h-0.2v-0.1h-0.1v0.1H-76
		v-0.1h-0.1v0.1h-0.2v-0.1h-0.1v0.1h-0.2v-0.1h-0.1v0.1h-0.2v-0.1H-77v0.1h-0.2v-0.1h-0.1v0.1h-0.2v-0.1h-0.1v0.1h-0.2v-0.1h-0.1
		v0.1h-0.2v-0.1h-0.1v0.1h-0.1h-0.1l0,0h-0.1l-1.6-1.1l-3.8,2.5h-0.3v2.3l-0.8,0.5v3.5h11.2v-4.7L-74.3,428.7z M-77.1,426.4h0.2v0.7
		h-0.2V426.4z M-77.4,426.4h0.2v0.7h-0.2V426.4z M-77.5,426.4v0.6l-0.2-0.1v-0.5H-77.5z M-77.9,426.4v0.4l-0.2-0.1v-0.3H-77.9z
		 M-78.4,426.4h0.2v0.1L-78.4,426.4L-78.4,426.4z M-76.6,427h-0.2v-0.7h0.2V427z M-76.2,427h-0.2v-0.7h0.2V427z M-75.9,427h-0.2
		v-0.7h0.2V427z M-75.6,427h-0.2v-0.7h0.2V427z M-75.2,427h-0.2v-0.7h0.2V427z M-74.9,427h-0.2v-0.7h0.2V427z"/>
	<path class="st0" d="M17.7,432.2v-1H17v-1h0.4v-0.5h-0.3l-0.5-0.4V429H16v-0.1h0.4v-0.1H16v-0.2h0.4v-0.1H16v-0.2h0.4v-0.1H16V428
		h0.4v-0.1H16v-0.2h0.4v-0.1H16v-0.2h0.4v-0.1H16v-0.2h0.4V427H16v-0.2h0.4v-0.1H16v-0.2h0.4v-0.1H16v-0.2h0.4v-0.1H16v-0.2h0.4
		v-0.1H16v-0.2h0.4l0,0l0,0v-0.4H16V425h0.4v-0.1H16v-0.2h0.4v-0.1H16v-0.2h0.4v-0.1l0,0v-0.4H16v-0.2h0.4v-0.1H16v-0.1h0.4l0,0H16
		v-0.2h0.4v-0.1H16V423h0.4v-0.1H16v-0.2h0.4v-0.1H16v-0.2h0.4v-0.1H16v-0.2h0.4V422H16v-0.2h0.4v-0.1H16v-0.2h0.4v-0.1H16v-0.2h0.4
		v-0.1H16v-0.2h0.4v-0.1H16v-0.2h0.4v-0.1H16v-0.2h0.4v-0.1H16V420h0.4v-0.1H16v-0.2h0.4v-0.1H16v-0.2h0.4v-0.1H16v-0.2h0.4V419H16
		v-0.2h0.4v-0.1H16v-0.2h0.4l0,0H16v-0.2h0.4v-0.1H16V418h0.4v-0.1H16v-0.2h0.4v-0.1H16v-0.2h0.4v-0.1H16v-0.2h0.4l0,0l0,0v-0.4H16
		v-0.2h0.4v-0.1H16v-0.2h0.4v-0.1H16v-0.2h0.4v-0.1H16l0,0h0.4v-0.4H16v-0.1h0.4v-0.1H16V415h0.4v-0.1H16v-0.2h0.4v-0.1H16v-0.2h0.4
		v-0.1H16v-0.2h0.4V414H16v-0.2h0.4v-0.1H16v-0.2h0.4l0,0H16v-0.2h0.4v-0.1H16V413h0.4v-0.1H16v-0.2h0.4v-0.1H16v-0.2h0.4v-0.1H16
		v-0.2h0.4V412H16v-0.2h0.4v-0.1H16v-0.2h0.4v-0.1H16v-0.2h0.4v-0.1H16v-0.2h0.4v-0.1H16v-0.2h0.4v-0.1H16v-0.2h0.4v-0.1H16V410h0.4
		v-0.1H16v-0.2h0.4v-0.1H16v-0.2h0.4v-0.1H16v-0.2h0.4V409H16v-0.2h0.4v-0.1H16v-0.2h0.4v-0.1H16l0,0h0.4V408H16v-0.1h0.4v-0.1H16
		v-0.2h0.4v-0.1H16v-0.2h0.4v-0.1H16v-0.1h0.4v-0.4H16v-0.1h0.4v-0.1H16l0,0h0.4v-0.1H16v-0.2h0.4v-0.1H16v-0.2h0.4v-0.1H16v-0.2
		h0.4v-0.1H16v-0.2h0.4v-0.1H16V405h0.4v-0.1H16v-0.2h0.4v-0.1H16v-0.2h0.4v-0.1H16v-0.2h0.4V404H16v-0.2h0.4v-0.1H16v-0.2h0.4v-0.1
		H16v-0.2h0.4v-0.1H16v-0.2h0.4v-0.1H16v-0.2h0.4v-0.1H16v-0.2h0.4v-0.1H16V402h0.4v-0.1H16v-0.2h0.4v-0.1H16v-0.2h0.4v-0.1H16v-0.2
		h0.4V401H16v-0.2h0.4v-0.1H16v-0.2h0.4l0,0H16v-0.2h0.4v-0.1H16V400h0.4v-0.1H16v-0.1h0.4v-0.3H16v-0.1h0.4v-0.1H16v-0.2h0.4V399
		H16v-0.2h0.4v-0.1H16v-0.1h0.4v-0.4h-1.3v-0.7h0.3V397h-0.2v-0.4c0.1,0,0.1-0.2,0.1-0.4c0-0.2-0.1-0.4-0.1-0.4v-0.3H15v-1l-0.3-0.3
		h-0.6V394H14v-1.1h0v-0.3l0,0v0.3h-0.1v-0.3l0,0v0.3h-0.8v-0.1h-0.4v0.1h-0.1v1.1h-0.1v0.2h-0.2v-0.3h-0.2v0.1H12v0.2h-0.5v-0.4
		h-0.1c0-0.1,0-0.1-0.1-0.1h-4c-0.1,0-0.1,0-0.1,0.1H7.1v0.4H6.4l-0.3,0.3v1H5.9v0.3c-0.1,0-0.1,0.2-0.1,0.4c0,0.2,0.1,0.4,0.1,0.4
		v0.4H5.7v0.5H6v0.7H4.7v0.4h0.4v0.1H4.7v0.1h0.4v0.2H4.7v0.1h0.4v0.2H4.7v0.1h0.4v0.1H4.7v0.4h0.4v0.1H4.7v0.1h0.4v0.2H4.7v0.1h0.4
		v0.1H4.7v0.1h0.4v0.2H4.7v0.1h0.4v0.2H4.7v0.1h0.4v0.2H4.7v0.1h0.4v0.2H4.7v0.1h0.4v0.2H4.7v0.1h0.4v0.2H4.7v0.1h0.4v0.2H4.7v0.1
		h0.4v0.2H4.7v0.1h0.4v0.2H4.7v0.1h0.4v0.2H4.7l0,0h0.4v0.2H4.7v0.1h0.4v0.2H4.7v0.1h0.4v0.2H4.7v0.1h0.4v0.2H4.7v0.1h0.4v0.2H4.7
		v0.1h0.4v0.2H4.7v0.1h0.4v0.2H4.7v0.1h0.4v0.2H4.7v0.1h0.4v0.2H4.7v0.1h0.4v0.2H4.7v0.1h0.4v0.2H4.7v0.1h0.4v0.1H4.7v0.4h0.4v0.1
		H4.7v0.1h0.4v0.2H4.7v0.1h0.4v0.2H4.7v0.1h0.4v0.1H4.7v0.4h0.4l0,0H4.7v-0.1h0.4v0.2H4.7v0.1h0.4v0.2H4.7v0.1h0.4v0.2H4.7v0.1h0.4
		v0.2H4.7v0.1h0.4v0.2H4.7v0.1h0.4v0.2H4.7v0.1h0.4v0.2H4.7v0.1h0.4v0.2H4.7v0.1h0.4v0.2H4.7v0.1h0.4v0.2H4.7v0.1h0.4v0.2H4.7v0.1
		h0.4v0.2H4.7v0.1h0.4v0.2H4.7v0.1h0.4v0.2H4.7v0.1h0.4v0.2H4.7v0.1h0.4v0.2H4.7v0.1h0.4v0.2H4.7l0,0h0.4v0.2H4.7v0.1h0.4v0.2H4.7
		v0.1h0.4v0.2H4.7v0.1h0.4v0.2H4.7v0.1h0.4v0.2H4.7v0.1h0.4v0.2H4.7v0.1h0.4v0.1H4.7v0.4h0.4l0,0H4.7v0.1h0.4v0.2H4.7v0.1h0.4v0.2
		H4.7v0.1h0.4v0.2H4.7v0.4l0,0l0,0h0.4v0.2H4.7v0.1h0.4v0.2H4.7v0.1h0.4v0.2H4.7v0.1h0.4v0.2H4.7v0.1h0.4v0.2H4.7l0,0h0.4v0.2H4.7
		v0.1h0.4v0.2H4.7v0.1h0.4v0.2H4.7v0.1h0.4v0.2H4.7v0.1h0.4v0.2H4.7v0.1h0.4v0.2H4.7v0.1h0.4v0.2H4.7v0.1h0.4v0.2H4.7v0.1h0.4v0.2
		H4.7v0.1h0.4v0.2H4.7v0.1h0.4v0.2H4.7v0.1h0.4v0.2H4.7v0.1h0.4v0.2H4.7v0.1h0.4v0.2H4.7v0.1h0.4v0.2H4.7v0.1h0.4v0.2H4.7v0.1h0.4
		v0.2H4.7l0,0h0.4v0.2H4.7v0.1h0.4v0.2H4.7v0.4l0,0v0.1h0.4v0.2H4.7v0.1h0.4v0.2H4.7v0.1h0.4v0.2H4.7v0.4l0,0l0,0h0.4v0.2H4.7v0.1
		h0.4v0.2H4.7v0.1h0.4v0.2H4.7v0h0.4v0.2H4.7v0.1h0.4v0.2H4.7v0.1h0.4v0.2H4.7v0.1h0.4v0.2H4.7v0.1h0.4v0.2H4.7v0.1h0.4v0.2H4.7v0.1
		h0.4v0.2H4.7v0.1h0.4v0.2H4.7v0.1h0.4v0.1H4.6v0.3l-0.5,0.4H4v0.5h0.3v1H3.7v1H3.3v1.7H18v-1.7H17.7z M5.7,429H5.2v-0.1h0.5V429z
		 M5.7,428.8H5.2v-0.2h0.5V428.8z M5.7,428.5H5.2v-0.2h0.5V428.5z M5.7,428.2H5.2V428h0.5V428.2z M5.7,427.9H5.2v-0.2h0.5V427.9z
		 M5.7,427.6H5.2v-0.2h0.5V427.6z M5.7,427.3H5.2v-0.2h0.5V427.3z M5.7,427H5.2v-0.2h0.5V427z M5.7,426.7H5.2v-0.2h0.5V426.7z
		 M5.7,426.4H5.2v-0.2h0.5V426.4z M5.7,426.1H5.2v-0.2h0.5V426.1z M5.7,425.8H5.2v-0.2h0.5V425.8z M5.7,425.2H5.2V425h0.5V425.2z
		 M5.7,425H5.2v-0.2h0.5V425z M5.7,424.7H5.2v-0.2h0.5V424.7z M5.7,424H5.2v-0.2h0.5V424z M5.7,423.8H5.2v-0.3h0.5V423.8z
		 M5.7,423.5H5.2v-0.2h0.5V423.5z M5.7,423.2H5.2V423h0.5V423.2z M5.7,422.9H5.2v-0.2h0.5V422.9z M5.7,422.6H5.2v-0.2h0.5V422.6z
		 M5.7,422.3H5.2v-0.2h0.5V422.3z M5.7,422H5.2v-0.2h0.5V422z M5.7,421.7H5.2v-0.2h0.5V421.7z M5.7,421.4H5.2v-0.2h0.5V421.4z
		 M5.7,421.1H5.2v-0.2h0.5V421.1z M5.7,420.8H5.2v-0.2h0.5V420.8z M5.7,420.5H5.2v-0.2h0.5V420.5z M5.7,420.2H5.2V420h0.5V420.2z
		 M5.7,419.9H5.2v-0.2h0.5V419.9z M5.7,419.6H5.2v-0.2h0.5V419.6z M5.7,419.4H5.2v-0.2h0.5V419.4z M5.7,419.1H5.2v-0.2h0.5V419.1z
		 M5.7,418.8H5.2v-0.3h0.5V418.8z M5.7,418.5H5.2v-0.2h0.5V418.5z M5.7,418.2H5.2V418h0.5V418.2z M5.7,417.9H5.2v-0.2h0.5V417.9z
		 M5.7,417.6H5.2v-0.2h0.5V417.6z M5.7,417.3H5.2v-0.2h0.5V417.3z M5.7,416.7H5.2v-0.2h0.5V416.7z M5.7,416.4H5.2v-0.2h0.5V416.4z
		 M5.7,416.1H5.2v-0.2h0.5V416.1z M5.7,415.8H5.2l0,0H5.7L5.7,415.8z M5.7,415.4H5.2v-0.1h0.5V415.4z M5.7,415.2H5.2V415h0.5V415.2z
		 M5.7,414.9H5.2v-0.2h0.5V414.9z M5.7,414.6H5.2v-0.2h0.5V414.6z M5.7,414.3H5.2v-0.2h0.5V414.3z M5.7,414H5.2v-0.2h0.5V414z
		 M5.7,413.7H5.2v-0.2h0.5V413.7z M5.7,413.5H5.2v-0.2h0.5V413.5z M5.7,413.2H5.2V413h0.5V413.2z M5.7,412.9H5.2v-0.2h0.5V412.9z
		 M5.7,412.6H5.2v-0.2h0.5V412.6z M5.7,412.3H5.2v-0.2h0.5V412.3z M5.7,412H5.2v-0.2h0.5V412z M5.7,411.7H5.2v-0.2h0.5V411.7z
		 M5.7,411.4H5.2v-0.2h0.5V411.4z M5.7,411.1H5.2v-0.2h0.5V411.1z M5.7,410.8H5.2v-0.2h0.5V410.8z M5.7,410.5H5.2v-0.2h0.5V410.5z
		 M5.7,410.2H5.2V410h0.5V410.2z M5.7,409.9H5.2v-0.2h0.5V409.9z M5.7,409.6H5.2v-0.2h0.5V409.6z M5.7,409.3H5.2v-0.2h0.5V409.3z
		 M5.7,409H5.2v-0.2h0.5V409z M5.7,408.7H5.2v-0.2h0.5V408.7z M5.7,408.4H5.2l0,0H5.7L5.7,408.4z M5.7,408.1H5.2V408h0.5V408.1z
		 M5.7,407.9H5.2v-0.2h0.5V407.9z M5.7,407.6H5.2v-0.2h0.5V407.6z M5.7,407.3H5.2v-0.1L5.7,407.3L5.7,407.3z M5.7,406.8H5.2v-0.1
		L5.7,406.8L5.7,406.8z M5.7,406.7H5.2v-0.2h0.5V406.7z M5.7,406.4H5.2v-0.2h0.5V406.4z M5.7,406.1H5.2v-0.2h0.5V406.1z M5.7,405.8
		H5.2v-0.2h0.5V405.8z M5.7,405.5H5.2v-0.2h0.5V405.5z M5.7,405.2H5.2V405h0.5V405.2z M5.7,404.9H5.2v-0.2h0.5V404.9z M5.7,404.6
		H5.2v-0.2h0.5V404.6z M5.7,404.3H5.2v-0.2h0.5V404.3z M5.7,404H5.2v-0.2h0.5V404z M5.7,403.7H5.2v-0.2h0.5V403.7z M5.7,403.4H5.2
		v-0.2h0.5V403.4z M5.7,403.1H5.2v-0.2h0.5V403.1z M5.7,402.8H5.2v-0.2h0.5V402.8z M5.7,402.6H5.2v-0.2h0.5V402.6z M5.7,402.3H5.2
		v-0.2h0.5V402.3z M5.7,402H5.2v-0.2h0.5V402z M5.7,401.7H5.2v-0.2h0.5V401.7z M5.7,401.4H5.2v-0.2h0.5V401.4z M5.7,401.1H5.2v-0.2
		h0.5V401.1z M5.7,400.8H5.2v-0.2h0.5V400.8z M5.7,400.5H5.2v-0.2h0.5V400.5z M5.7,400.2H5.2V400h0.5V400.2z M5.7,399.9H5.2v-0.1
		L5.7,399.9L5.7,399.9z M5.7,399.5H5.2v-0.1L5.7,399.5L5.7,399.5z M5.7,399.3H5.2v-0.2h0.5V399.3z M5.7,399H5.2v-0.2h0.5V399z
		 M5.7,398.7H5.2v-0.1h0.5V398.7z M6.1,429H5.8v-0.1h0.3V429z M6.1,428.8H5.8v-0.2h0.3V428.8z M6.1,428.5H5.8v-0.2h0.3V428.5z
		 M6.1,428.2H5.8V428h0.3V428.2z M6.1,427.9H5.8v-0.2h0.3V427.9z M6.1,427.6H5.8v-0.2h0.3V427.6z M6.1,427.3H5.8v-0.2h0.3V427.3z
		 M6.1,427H5.8v-0.2h0.3V427z M6.1,426.7H5.8v-0.2h0.3V426.7z M6.1,426.4H5.8v-0.2h0.3V426.4z M6.1,426.1H5.8v-0.2h0.3V426.1z
		 M6.1,425.8H5.8v-0.2h0.3V425.8z M6.1,425.2H5.8V425h0.3V425.2z M6.1,425H5.8v-0.2h0.3V425z M6.1,424.7H5.8v-0.2h0.3V424.7z
		 M6.1,424H5.8v-0.2h0.3V424z M6.1,423.8H5.8v-0.3h0.3V423.8z M6.1,423.5H5.8v-0.2h0.3V423.5z M6.1,423.2H5.8V423h0.3V423.2z
		 M6.1,422.9H5.8v-0.2h0.3V422.9z M6.1,422.6H5.8v-0.2h0.3V422.6z M6.1,422.3H5.8v-0.2h0.3V422.3z M6.1,422H5.8v-0.2h0.3V422z
		 M6.1,421.7H5.8v-0.2h0.3V421.7z M6.1,421.4H5.8v-0.2h0.3V421.4z M6.1,421.1H5.8v-0.2h0.3V421.1z M6.1,420.8H5.8v-0.2h0.3V420.8z
		 M6.1,420.5H5.8v-0.2h0.3V420.5z M6.1,420.2H5.8V420h0.3V420.2z M6.1,419.9H5.8v-0.2h0.3V419.9z M6.1,419.6H5.8v-0.2h0.3V419.6z
		 M6.1,419.4H5.8v-0.2h0.3V419.4z M6.1,419.1H5.8v-0.2h0.3V419.1z M6.1,418.8H5.8v-0.3h0.3V418.8z M6.1,418.5H5.8v-0.2h0.3V418.5z
		 M6.1,418.2H5.8V418h0.3V418.2z M6.1,417.9H5.8v-0.2h0.3V417.9z M6.1,417.6H5.8v-0.2h0.3V417.6z M6.1,417.3H5.8v-0.2h0.3V417.3z
		 M6.1,416.7H5.8v-0.2h0.3V416.7z M6.1,416.4H5.8v-0.2h0.3V416.4z M6.1,416.1H5.8v-0.2h0.3V416.1z M6.1,415.8H5.8l0,0H6.1L6.1,415.8
		z M6.1,415.4H5.8v-0.1h0.3V415.4z M6.1,415.2H5.8V415h0.3V415.2z M6.1,414.9H5.8v-0.2h0.3V414.9z M6.1,414.6H5.8v-0.2h0.3V414.6z
		 M6.1,414.3H5.8v-0.2h0.3V414.3z M6.1,414H5.8v-0.2h0.3V414z M6.1,413.7H5.8v-0.2h0.3V413.7z M6.1,413.5H5.8v-0.2h0.3V413.5z
		 M6.1,413.2H5.8V413h0.3V413.2z M6.1,412.9H5.8v-0.2h0.3V412.9z M6.1,412.6H5.8v-0.2h0.3V412.6z M6.1,412.3H5.8v-0.2h0.3V412.3z
		 M6.1,412H5.8v-0.2h0.3V412z M6.1,411.7H5.8v-0.2h0.3V411.7z M6.1,411.4H5.8v-0.2h0.3V411.4z M6.1,411.1H5.8v-0.2h0.3V411.1z
		 M6.1,410.8H5.8v-0.2h0.3V410.8z M6.1,410.5H5.8v-0.2h0.3V410.5z M6.1,410.2H5.8V410h0.3V410.2z M6.1,409.9H5.8v-0.2h0.3V409.9z
		 M6.1,409.6H5.8v-0.2h0.3V409.6z M6.1,409.3H5.8v-0.2h0.3V409.3z M6.1,409H5.8v-0.2h0.3V409z M6.1,408.7H5.8v-0.2h0.3V408.7z
		 M6.1,408.4H5.8l0,0H6.1L6.1,408.4z M6.1,408.1H5.8V408h0.3V408.1z M6.1,407.9H5.8v-0.2h0.3V407.9z M6.1,407.6H5.8v-0.2h0.3V407.6z
		 M6.1,407.3H5.8v-0.1L6.1,407.3L6.1,407.3z M6.1,406.8H5.8v-0.1L6.1,406.8L6.1,406.8z M6.1,406.7H5.8v-0.2h0.3V406.7z M6.1,406.4
		H5.8v-0.2h0.3V406.4z M6.1,406.1H5.8v-0.2h0.3V406.1z M6.1,405.8H5.8v-0.2h0.3V405.8z M6.1,405.5H5.8v-0.2h0.3V405.5z M6.1,405.2
		H5.8V405h0.3V405.2z M6.1,404.9H5.8v-0.2h0.3V404.9z M6.1,404.6H5.8v-0.2h0.3V404.6z M6.1,404.3H5.8v-0.2h0.3V404.3z M6.1,404H5.8
		v-0.2h0.3V404z M6.1,403.7H5.8v-0.2h0.3V403.7z M6.1,403.4H5.8v-0.2h0.3V403.4z M6.1,403.1H5.8v-0.2h0.3V403.1z M6.1,402.8H5.8
		v-0.2h0.3V402.8z M6.1,402.6H5.8v-0.2h0.3V402.6z M6.1,402.3H5.8v-0.2h0.3V402.3z M6.1,402H5.8v-0.2h0.3V402z M6.1,401.7H5.8v-0.2
		h0.3V401.7z M6.1,401.4H5.8v-0.2h0.3V401.4z M6.1,401.1H5.8v-0.2h0.3V401.1z M6.1,400.8H5.8v-0.2h0.3V400.8z M6.1,400.5H5.8v-0.2
		h0.3V400.5z M6.1,400.2H5.8V400h0.3V400.2z M6.1,399.9H5.8v-0.1L6.1,399.9L6.1,399.9z M6.1,399.5H5.8v-0.1L6.1,399.5L6.1,399.5z
		 M6.1,399.3H5.8v-0.2h0.3V399.3z M6.1,399H5.8v-0.2h0.3V399z M6.1,398.7H5.8v-0.1h0.3V398.7z M15.4,429h-0.3v-0.1h0.3V429z
		 M15.4,428.8h-0.3v-0.2h0.3V428.8z M15.4,428.5h-0.3v-0.2h0.3V428.5z M15.4,428.2h-0.3V428h0.3V428.2z M15.4,427.9h-0.3v-0.2h0.3
		V427.9z M15.4,427.6h-0.3v-0.2h0.3V427.6z M15.4,427.3h-0.3v-0.2h0.3V427.3z M15.4,427h-0.3v-0.2h0.3V427z M15.4,426.7h-0.3v-0.2
		h0.3V426.7z M15.4,426.4h-0.3v-0.2h0.3V426.4z M15.4,426.1h-0.3v-0.2h0.3V426.1z M15.4,425.8h-0.3v-0.2h0.3V425.8z M15.4,425.2
		h-0.3V425h0.3V425.2z M15.4,425h-0.3v-0.2h0.3V425z M15.4,424.7h-0.3v-0.2h0.3V424.7z M15.4,424h-0.3v-0.2h0.3V424z M15.4,423.8
		h-0.3v-0.3h0.3V423.8z M15.4,423.5h-0.3v-0.2h0.3V423.5z M15.4,423.2h-0.3V423h0.3V423.2z M15.4,422.9h-0.3v-0.2h0.3V422.9z
		 M15.4,422.6h-0.3v-0.2h0.3V422.6z M15.4,422.3h-0.3v-0.2h0.3V422.3z M15.4,422h-0.3v-0.2h0.3V422z M15.4,421.7h-0.3v-0.2h0.3
		V421.7z M15.4,421.4h-0.3v-0.2h0.3V421.4z M15.4,421.1h-0.3v-0.2h0.3V421.1z M15.4,420.8h-0.3v-0.2h0.3V420.8z M15.4,420.5h-0.3
		v-0.2h0.3V420.5z M15.4,420.2h-0.3V420h0.3V420.2z M15.4,419.9h-0.3v-0.2h0.3V419.9z M15.4,419.6h-0.3v-0.2h0.3V419.6z M15.4,419.4
		h-0.3v-0.2h0.3V419.4z M15.4,419.1h-0.3v-0.2h0.3V419.1z M15.4,418.8h-0.3v-0.3h0.3V418.8z M15.4,418.5h-0.3v-0.2h0.3V418.5z
		 M15.4,418.2h-0.3V418h0.3V418.2z M15.4,417.9h-0.3v-0.2h0.3V417.9z M15.4,417.6h-0.3v-0.2h0.3V417.6z M15.4,417.3h-0.3v-0.2h0.3
		V417.3z M15.4,416.7h-0.3v-0.2h0.3V416.7z M15.4,416.4h-0.3v-0.2h0.3V416.4z M15.4,416.1h-0.3v-0.2h0.3V416.1z M15.4,415.8h-0.3
		l0,0H15.4L15.4,415.8z M15.4,415.4h-0.3v-0.1h0.3V415.4z M15.4,415.2h-0.3V415h0.3V415.2z M15.4,414.9h-0.3v-0.2h0.3V414.9z
		 M15.4,414.6h-0.3v-0.2h0.3V414.6z M15.4,414.3h-0.3v-0.2h0.3V414.3z M15.4,414h-0.3v-0.2h0.3V414z M15.4,413.7h-0.3v-0.2h0.3
		V413.7z M15.4,413.5h-0.3v-0.2h0.3V413.5z M15.4,413.2h-0.3V413h0.3V413.2z M15.4,412.9h-0.3v-0.2h0.3V412.9z M15.4,412.6h-0.3
		v-0.2h0.3V412.6z M15.4,412.3h-0.3v-0.2h0.3V412.3z M15.4,412h-0.3v-0.2h0.3V412z M15.4,411.7h-0.3v-0.2h0.3V411.7z M15.4,411.4
		h-0.3v-0.2h0.3V411.4z M15.4,411.1h-0.3v-0.2h0.3V411.1z M15.4,410.8h-0.3v-0.2h0.3V410.8z M15.4,410.5h-0.3v-0.2h0.3V410.5z
		 M15.4,410.2h-0.3V410h0.3V410.2z M15.4,409.9h-0.3v-0.2h0.3V409.9z M15.4,409.6h-0.3v-0.2h0.3V409.6z M15.4,409.3h-0.3v-0.2h0.3
		V409.3z M15.4,409h-0.3v-0.2h0.3V409z M15.4,408.7h-0.3v-0.2h0.3V408.7z M15.4,408.4h-0.3l0,0H15.4L15.4,408.4z M15.4,408.1h-0.3
		V408h0.3V408.1z M15.4,407.9h-0.3v-0.2h0.3V407.9z M15.4,407.6h-0.3v-0.2h0.3V407.6z M15.4,407.3h-0.3v-0.1L15.4,407.3L15.4,407.3z
		 M15.4,406.8h-0.3v-0.1L15.4,406.8L15.4,406.8z M15.4,406.7h-0.3v-0.2h0.3V406.7z M15.4,406.4h-0.3v-0.2h0.3V406.4z M15.4,406.1
		h-0.3v-0.2h0.3V406.1z M15.4,405.8h-0.3v-0.2h0.3V405.8z M15.4,405.5h-0.3v-0.2h0.3V405.5z M15.4,405.2h-0.3V405h0.3V405.2z
		 M15.4,404.9h-0.3v-0.2h0.3V404.9z M15.4,404.6h-0.3v-0.2h0.3V404.6z M15.4,404.3h-0.3v-0.2h0.3V404.3z M15.4,404h-0.3v-0.2h0.3
		V404z M15.4,403.7h-0.3v-0.2h0.3V403.7z M15.4,403.4h-0.3v-0.2h0.3V403.4z M15.4,403.1h-0.3v-0.2h0.3V403.1z M15.4,402.8h-0.3v-0.2
		h0.3V402.8z M15.4,402.6h-0.3v-0.2h0.3V402.6z M15.4,402.3h-0.3v-0.2h0.3V402.3z M15.4,402h-0.3v-0.2h0.3V402z M15.4,401.7h-0.3
		v-0.2h0.3V401.7z M15.4,401.4h-0.3v-0.2h0.3V401.4z M15.4,401.1h-0.3v-0.2h0.3V401.1z M15.4,400.8h-0.3v-0.2h0.3V400.8z
		 M15.4,400.5h-0.3v-0.2h0.3V400.5z M15.4,400.2h-0.3V400h0.3V400.2z M15.4,399.9h-0.3v-0.1L15.4,399.9L15.4,399.9z M15.4,399.5
		h-0.3v-0.1L15.4,399.5L15.4,399.5z M15.4,399.3h-0.3v-0.2h0.3V399.3z M15.4,399h-0.3v-0.2h0.3V399z M15.4,398.7h-0.3v-0.1h0.3
		V398.7z M16,429h-0.5v-0.1H16V429z M16,428.8h-0.5v-0.2H16V428.8z M16,428.5h-0.5v-0.2H16V428.5z M16,428.2h-0.5V428H16V428.2z
		 M16,427.9h-0.5v-0.2H16V427.9z M16,427.6h-0.5v-0.2H16V427.6z M16,427.3h-0.5v-0.2H16V427.3z M16,427h-0.5v-0.2H16V427z M16,426.7
		h-0.5v-0.2H16V426.7z M16,426.4h-0.5v-0.2H16V426.4z M16,426.1h-0.5v-0.2H16V426.1z M16,425.8h-0.5v-0.2H16V425.8z M16,425.2h-0.5
		V425H16V425.2z M16,425h-0.5v-0.2H16V425z M16,424.7h-0.5v-0.2H16V424.7z M16,424h-0.5v-0.2H16V424z M16,423.8h-0.5v-0.3H16V423.8z
		 M16,423.5h-0.5v-0.2H16V423.5z M16,423.2h-0.5V423H16V423.2z M16,422.9h-0.5v-0.2H16V422.9z M16,422.6h-0.5v-0.2H16V422.6z
		 M16,422.3h-0.5v-0.2H16V422.3z M16,422h-0.5v-0.2H16V422z M16,421.7h-0.5v-0.2H16V421.7z M16,421.4h-0.5v-0.2H16V421.4z M16,421.1
		h-0.5v-0.2H16V421.1z M16,420.8h-0.5v-0.2H16V420.8z M16,420.5h-0.5v-0.2H16V420.5z M16,420.2h-0.5V420H16V420.2z M16,419.9h-0.5
		v-0.2H16V419.9z M16,419.6h-0.5v-0.2H16V419.6z M16,419.4h-0.5v-0.2H16V419.4z M16,419.1h-0.5v-0.2H16V419.1z M16,418.8h-0.5v-0.3
		H16V418.8z M16,418.5h-0.5v-0.2H16V418.5z M16,418.2h-0.5V418H16V418.2z M16,417.9h-0.5v-0.2H16V417.9z M16,417.6h-0.5v-0.2H16
		V417.6z M16,417.3h-0.5v-0.2H16V417.3z M16,416.7h-0.5v-0.2H16V416.7z M16,416.4h-0.5v-0.2H16V416.4z M16,416.1h-0.5v-0.2H16V416.1
		z M16,415.8h-0.5l0,0H16L16,415.8z M16,415.4h-0.5v-0.1H16V415.4z M16,415.2h-0.5V415H16V415.2z M16,414.9h-0.5v-0.2H16V414.9z
		 M16,414.6h-0.5v-0.2H16V414.6z M16,414.3h-0.5v-0.2H16V414.3z M16,414h-0.5v-0.2H16V414z M16,413.7h-0.5v-0.2H16V413.7z M16,413.5
		h-0.5v-0.2H16V413.5z M16,413.2h-0.5V413H16V413.2z M16,412.9h-0.5v-0.2H16V412.9z M16,412.6h-0.5v-0.2H16V412.6z M16,412.3h-0.5
		v-0.2H16V412.3z M16,412h-0.5v-0.2H16V412z M16,411.7h-0.5v-0.2H16V411.7z M16,411.4h-0.5v-0.2H16V411.4z M16,411.1h-0.5v-0.2H16
		V411.1z M16,410.8h-0.5v-0.2H16V410.8z M16,410.5h-0.5v-0.2H16V410.5z M16,410.2h-0.5V410H16V410.2z M16,409.9h-0.5v-0.2H16V409.9z
		 M16,409.6h-0.5v-0.2H16V409.6z M16,409.3h-0.5v-0.2H16V409.3z M16,409h-0.5v-0.2H16V409z M16,408.7h-0.5v-0.2H16V408.7z M16,408.4
		h-0.5l0,0H16L16,408.4z M16,408.1h-0.5V408H16V408.1z M16,407.9h-0.5v-0.2H16V407.9z M16,407.6h-0.5v-0.2H16V407.6z M16,407.3h-0.5
		v-0.1L16,407.3L16,407.3z M16,406.8h-0.5v-0.1L16,406.8L16,406.8z M16,406.7h-0.5v-0.2H16V406.7z M16,406.4h-0.5v-0.2H16V406.4z
		 M16,406.1h-0.5v-0.2H16V406.1z M16,405.8h-0.5v-0.2H16V405.8z M16,405.5h-0.5v-0.2H16V405.5z M16,405.2h-0.5V405H16V405.2z
		 M16,404.9h-0.5v-0.2H16V404.9z M16,404.6h-0.5v-0.2H16V404.6z M16,404.3h-0.5v-0.2H16V404.3z M16,404h-0.5v-0.2H16V404z M16,403.7
		h-0.5v-0.2H16V403.7z M16,403.4h-0.5v-0.2H16V403.4z M16,403.1h-0.5v-0.2H16V403.1z M16,402.8h-0.5v-0.2H16V402.8z M16,402.6h-0.5
		v-0.2H16V402.6z M16,402.3h-0.5v-0.2H16V402.3z M16,402h-0.5v-0.2H16V402z M16,401.7h-0.5v-0.2H16V401.7z M16,401.4h-0.5v-0.2H16
		V401.4z M16,401.1h-0.5v-0.2H16V401.1z M16,400.8h-0.5v-0.2H16V400.8z M16,400.5h-0.5v-0.2H16V400.5z M16,400.2h-0.5V400H16V400.2z
		 M16,399.9h-0.5v-0.1L16,399.9L16,399.9z M16,399.5h-0.5v-0.1L16,399.5L16,399.5z M16,399.3h-0.5v-0.2H16V399.3z M16,399h-0.5v-0.2
		H16V399z M16,398.7h-0.5v-0.1H16V398.7z"/>
	<path class="st0" d="M-3.8,414.7h-1.8v-2.5l1-2.9h0.2c0.2,0,0.3-0.1,0.3-0.3v-0.2c0-0.2-0.1-0.3-0.3-0.3l0,0V408h-1.4v-2.7h-1v-3.4
		c0.1,0,0.2-0.1,0.2-0.3v-0.2c0-0.1-0.1-0.2-0.2-0.3v-0.8h-0.6v-0.8l-2.1-3l0,0v-0.4h-0.1V396h-0.1v-0.3h-0.2v-0.1l0,0v-0.3H-10v-2
		l0,0v-1.6l0,0V390l0,0v1.7l0,0v1.6l0,0v2h-0.1v0.3l0,0v0.1h-0.2v0.3h-0.1v0.1h-0.1v0.4l0,0l-2.1,3v0.8h-0.6v0.8
		c-0.1,0-0.2,0.1-0.2,0.3v0.1c0,0.1,0.1,0.2,0.2,0.3v3.4h-1v2.7h-1.4v0.6l0,0c-0.2,0-0.3,0.1-0.3,0.3v0.2c0,0.2,0.1,0.3,0.3,0.3h0.2
		l1,2.9v2.5h-1.8v7.8h-0.6v11.4h14v-11.4h-0.6v-7.8H-3.8z M-11.8,399.2h1.5v0.3h-1.6l0,0L-11.8,399.2z M-9.1,398H-10v-0.3h0.8
		L-9.1,398z M-8.8,398.6H-10v-0.2h1.1L-8.8,398.6z M-8.4,399.8H-10v-0.3h1.6V399.8z M-8.4,399.5L-8.4,399.5H-10v-0.2h1.5L-8.4,399.5
		z M-10.1,399.8h1.6v0.2h-1.6V399.8z M-10.1,399.2V399h1.4l0.1,0.2H-10.1z M-10.1,398.9v-0.3h1.2l0.1,0.3H-10.1z M-10.1,398.3v-0.2
		h1l0.1,0.2H-10.1z M-10.1,397.7v-0.2h0.7l0.1,0.2H-10.1z M-10.1,397.4v-0.3h0.5l0.1,0.3H-10.1z M-10.1,397.1v-0.2h0.4l0.1,0.2
		H-10.1z M-10.1,396.8v-0.2h0.2l0.1,0.2H-10.1z M-10.5,396.6h0.2v0.2h-0.4L-10.5,396.6z M-10.3,396.8v0.2h-0.5l0.1-0.2H-10.3z
		 M-10.3,397.1v0.3h-0.6l0.1-0.3H-10.3z M-10.3,397.4v0.2H-11l0.1-0.2H-10.3z M-10.3,397.7v0.3h-0.9l0.1-0.3H-10.3z M-10.3,398v0.2
		h-1.1l0.1-0.2H-10.3z M-10.3,398.3v0.2h-1.2l0.1-0.2H-10.3z M-10.3,398.6v0.3h-1.4l0.1-0.3H-10.3z M-10.3,398.9v0.2h-1.5l0.1-0.2
		H-10.3z M-10.3,399.5v0.2h-1.6v-0.2H-10.3z M-10.3,399.8v0.2h-1.6v-0.2H-10.3z M-10.1,400.3v-0.2h1.6v0.2H-10.1z M-11.9,400.1h1.6
		v0.2h-1.6V400.1z"/>
	<path class="st0" d="M221.4,414.3L221.4,414.3L221.4,414.3h-0.2l0.1-0.1v-0.4h0.1l0,0c0,0,0.1,0,0.1-0.1c0-0.1,0-0.6,0-0.6l0,0l0,0
		l0,0c0-0.1-0.1-0.2-0.1-0.2s0,0.1-0.1,0.1c0,0-0.1,0-0.1-0.1c0,0,0-0.1,0.1-0.1h-0.1l0,0h0.1v-0.3h-0.1l0.3-1c0,0,0,0,0-0.1
		l0.1-0.1l0.1,0.1c0,0.1,0,0.1,0,0.1l0.4,0.8l1.2-4.9h-0.1v-0.1h0.1V407h-0.1v-0.1h0.1v-0.2h-0.1v-0.1l0,0v-0.1v-0.2
		c0,0-0.1,0-0.1-0.1c0,0,0-0.1,0.1-0.1v-0.6l-0.1-0.1c0,0,0-0.1,0.1-0.1v-0.8h-0.3l0,0h0.3v-0.4h0.1v0.4h0.3l0,0h-0.3v0.9
		c0,0,0.1,0,0.1,0.1c0,0,0,0.1-0.1,0.1v0.7c0,0,0.1,0,0.1,0.1c0,0,0,0.1-0.1,0.1v0.2v0.1l0,0v0.1h-0.1v0.2h0.1v0.1h-0.1v0.3h0.1v0.1
		h-0.1l1.2,4.9l0.4-0.8c0,0,0,0,0-0.1l0.1-0.1l0.1,0.1c0,0.1,0,0.1,0,0.1l0.3,1h-0.1v0.3h0.1l0,0h-0.1c0,0,0.1,0,0.1,0.1
		c0,0,0,0.1-0.1,0.1c0,0-0.1,0-0.1-0.1c0,0-0.1,0-0.1,0.2l0,0l0,0l0,0c0,0,0,0.5,0,0.6l0.1,0.1l0,0h0.1v0.4l0.1,0.1h-0.1l0,0h-0.1v2
		h0.1v1.4l4.3,1v0.3h0.2v0.1h-0.2v0.8l-0.1,0.1v13.9H221v-17.8h0.1v-2H221.4z"/>
	<path class="st0" d="M188.2,430.9v-16.1h0.7v-21.5l1.4-0.3v-8.2h0.2v-0.3l1.2-0.7h0.1v-1.4c-0.3,0-0.4,0-0.4-0.1v-0.1
		c0,0,0,0,0.1,0v-0.3h-0.1v-0.1c0,0,0,0,0.1,0v-0.3h-0.1v-0.1c0,0,0,0,0.1,0v-0.3h-0.1V381c0,0,0.2-0.1,0.4-0.1v-0.6h0.9
		c0.4-0.1,1.2-0.1,2-0.1s1.6,0,2,0.1h0.9v0.6c0.3,0,0.4,0.1,0.4,0.1v0.1c0,0,0,0-0.1,0v0.3h0.1v0.1c0,0,0,0-0.1,0v0.3h0.1v0.1
		c0,0,0,0-0.1,0v0.3h0.1v0.1c0,0-0.2,0.1-0.4,0.1v1.4h0.1l1.2,0.7v0.3h0.2v8.2l1.4,0.3v21.5h0.7v16.1h0.4v3h-13.8v-3H188.2z"/>
	<path class="st0" d="M160.7,406.6v-3.1h-0.2v-2h2.6v-1.7h0.2v-0.9h0.5v-0.4c-0.1,0-0.2,0-0.2-0.1c0,0,0.1-0.1,0.2-0.1v-1.8h0.1v1.8
		c0.1,0,0.2,0,0.2,0.1c0,0-0.1,0.1-0.2,0.1v0.4h5.3v0.9h0.2v1.7h2.6v2h-0.2v3.2h1.1v5h-0.1V434h-13.1v-22.3h-0.1v-5h1.1V406.6z"/>
	<path class="st0" d="M102.5,416.1v-4.5H102v-3.4h-0.8v-13.3h-1.1l0,0h-0.6v-0.4h0.1v-0.1h-0.1v-0.1h-0.1v-0.4l0,0v-0.3h-0.1l0,0
		l-0.3-0.1v-0.9h-0.6l0,0h0.1l0,0l0,0h-0.1l0,0h0.1l0,0l0,0h-0.1l0,0h0.1l0,0l0,0h-7v-1.5l0.2-0.2l0,0c0,0,0.1,0,0.1-0.1
		c0,0,0-0.1-0.1-0.1l0,0l0,0l0,0l0,0l0,0v-0.1l0,0l0,0l0,0l0,0v-0.1l0,0l0,0l0,0l0,0l0,0l0,0l0,0l0,0l0,0v-0.1l0,0l0,0l0,0l0,0v-0.1
		l0,0l0,0l0,0h-0.3V388l0.2-0.2l0,0c0,0,0.1,0,0.1-0.1c0,0,0-0.1-0.1-0.1l0,0l0,0l0,0l0,0l0,0l0,0l0,0l0,0l0,0l0,0v-0.1l0,0l0,0l0,0
		l0,0l0,0l0,0l0,0l0,0l0,0l0,0l0,0l0,0l0,0l0,0v-0.1l0,0l0,0l0,0h-0.3l0,0c0.1,0,0.1,0,0.1-0.1v-0.5c0-0.1-0.1-0.2-0.3-0.2
		c-0.1,0-0.2,0.1-0.2,0.2v0.5c0,0,0.1,0.1,0.2,0.1l0,0h-0.4l0,0l0,0l0,0v0.1l0,0l0,0l0,0l0,0l0,0l0,0l0,0l0,0l0,0v0.1l0,0l0,0l0,0
		l0,0v0.1l0,0l0,0l0,0l0,0l0,0l0,0l0,0l0,0l0,0l0,0c0,0-0.1,0-0.1,0.1c0,0,0,0.1,0.1,0.1l0,0l0.2,0.2v2.3h-0.3l0,0l0,0l0,0v0.1l0,0
		l0,0l0,0l0,0l0,0l0,0l0,0l0,0l0,0l0,0l0,0l0,0l0,0l0,0v0.1l0,0l0,0l0,0l0,0v0.1l0,0l0,0l0,0l0,0l0,0c0,0-0.1,0-0.1,0.1
		c0,0,0,0.1,0.1,0.1l0,0l0.2,0.2v1.9h-0.3v0.3c0,0-0.1,0-0.1,0.1c0,0,0,0.1,0.1,0.1h0.3v1.1h-0.3v0.3c0,0-0.1,0-0.1,0.1
		c0,0,0,0.1,0.1,0.1h0.3v16.8H91v-3.4h-0.7v3.3h-0.6v4.5l-1.5,1.7v16.1H104v-16.2L102.5,416.1z M91.8,390.4L91.8,390.4L91.8,390.4
		L91.8,390.4L91.8,390.4z M91.8,390.4L91.8,390.4L91.8,390.4L91.8,390.4L91.8,390.4z M91.8,390.5L91.8,390.5L91.8,390.5L91.8,390.5
		L91.8,390.5z M91.8,390.6L91.8,390.6L91.8,390.6L91.8,390.6L91.8,390.6z M91.8,390.6L91.8,390.6L91.8,390.6L91.8,390.6L91.8,390.6z
		 M91.8,390.7L91.8,390.7L91.8,390.7L91.8,390.7L91.8,390.7z M91.7,390.4L91.7,390.4L91.7,390.4L91.7,390.4L91.7,390.4z M91.7,390.4
		L91.7,390.4L91.7,390.4L91.7,390.4L91.7,390.4z M91.7,390.5L91.7,390.5L91.7,390.5L91.7,390.5L91.7,390.5z M91.7,390.6L91.7,390.6
		L91.7,390.6L91.7,390.6L91.7,390.6z M91.7,390.6L91.7,390.6L91.7,390.6L91.7,390.6L91.7,390.6z M91.7,390.7L91.7,390.7L91.7,390.7
		L91.7,390.7L91.7,390.7z M91.5,390.4h0.1v0.1L91.5,390.4L91.5,390.4z M91.5,390.4h0.1v0.1L91.5,390.4L91.5,390.4z M91.5,390.5h0.1
		l0,0H91.5L91.5,390.5z M91.5,390.6h0.1v0.1L91.5,390.6L91.5,390.6z M91.5,390.6h0.1v0.1L91.5,390.6L91.5,390.6z M91.5,390.7h0.1
		l0,0H91.5L91.5,390.7z M91.6,387.8L91.6,387.8L91.6,387.8L91.6,387.8L91.6,387.8z M91.6,387.7L91.6,387.7L91.6,387.7L91.6,387.7
		L91.6,387.7z M91.6,387.7L91.6,387.7L91.6,387.7L91.6,387.7L91.6,387.7z M91.6,387.6L91.6,387.6L91.6,387.6L91.6,387.6L91.6,387.6z
		 M91.6,387.5L91.6,387.5l-0.1-0.1L91.6,387.5L91.6,387.5z M91.8,387.4L91.8,387.4L91.8,387.4L91.8,387.4L91.8,387.4z M91.8,387.5
		L91.8,387.5L91.8,387.5L91.8,387.5L91.8,387.5z M91.8,387.5L91.8,387.5L91.8,387.5L91.8,387.5L91.8,387.5z M91.8,387.6L91.8,387.6
		L91.8,387.6L91.8,387.6L91.8,387.6z M91.8,387.7L91.8,387.7L91.8,387.7L91.8,387.7L91.8,387.7z M91.8,387.7L91.8,387.7L91.8,387.7
		L91.8,387.7L91.8,387.7z M91.7,387.4L91.7,387.4L91.7,387.4L91.7,387.4L91.7,387.4z M91.7,387.5L91.7,387.5L91.7,387.5L91.7,387.5
		L91.7,387.5z M91.7,387.5L91.7,387.5L91.7,387.5L91.7,387.5L91.7,387.5z M91.7,387.6L91.7,387.6L91.7,387.6L91.7,387.6L91.7,387.6z
		 M91.7,387.7L91.7,387.7L91.7,387.7L91.7,387.7L91.7,387.7z M91.7,387.7L91.7,387.7L91.7,387.7L91.7,387.7L91.7,387.7z M91.5,387.4
		h0.1v0.1L91.5,387.4L91.5,387.4L91.5,387.4z M91.5,387.5L91.5,387.5C91.5,387.5,91.5,387.6,91.5,387.5L91.5,387.5L91.5,387.5z
		 M91.5,387.6L91.5,387.6L91.5,387.6L91.5,387.6L91.5,387.6z M91.5,387.7L91.5,387.7L91.5,387.7L91.5,387.7L91.5,387.7z M91.5,387.7
		L91.5,387.7C91.5,387.8,91.5,387.8,91.5,387.7L91.5,387.7L91.5,387.7z M91,387.8L91,387.8L91,387.8L91,387.8L91,387.8z M91,387.7
		L91,387.7L91,387.7L91,387.7L91,387.7z M91,387.7L91,387.7L91,387.7L91,387.7L91,387.7z M91,387.6L91,387.6L91,387.6L91,387.6
		L91,387.6z M91,387.5L91,387.5L91,387.5L91,387.5L91,387.5z M91,387.5L91,387.5L91,387.5L91,387.5L91,387.5z M91.1,387.8
		L91.1,387.8L91.1,387.8L91.1,387.8L91.1,387.8z M91.1,387.7L91.1,387.7L91.1,387.7L91.1,387.7L91.1,387.7z M91.1,387.7L91.1,387.7
		L91.1,387.7L91.1,387.7L91.1,387.7z M91.1,387.6L91.1,387.6L91.1,387.6L91.1,387.6L91.1,387.6z M91.1,387.5L91.1,387.5L91.1,387.5
		L91.1,387.5L91.1,387.5z M91.1,387.5L91.1,387.5L91.1,387.5L91.1,387.5L91.1,387.5z M91.1,387.8L91.1,387.8L91.1,387.8L91.1,387.8
		L91.1,387.8z M91.1,387.7L91.1,387.7L91.1,387.7L91.1,387.7L91.1,387.7z M91.1,387.7L91.1,387.7L91.1,387.7L91.1,387.7L91.1,387.7z
		 M91.1,387.6L91.1,387.6L91.1,387.6L91.1,387.6L91.1,387.6z M91.2,387.8L91.2,387.8L91.2,387.8L91.2,387.8L91.2,387.8z M91.2,387.7
		L91.2,387.7L91.2,387.7L91.2,387.7L91.2,387.7z M91.2,387.7L91.2,387.7C91.2,387.6,91.2,387.6,91.2,387.7L91.2,387.7L91.2,387.7z
		 M91.2,387.6L91.2,387.6C91.2,387.6,91.2,387.5,91.2,387.6L91.2,387.6L91.2,387.6z M91.2,387.5L91.2,387.5L91.2,387.5h-0.1l0,0
		H91.2L91.2,387.5z M91.2,387.5h-0.1v-0.1L91.2,387.5L91.2,387.5z M91,390.7L91,390.7L91,390.7L91,390.7L91,390.7z M91,390.7
		L91,390.7L91,390.7L91,390.7L91,390.7z M91,390.6L91,390.6L91,390.6L91,390.6L91,390.6z M91,390.5L91,390.5L91,390.5L91,390.5
		L91,390.5z M91,390.5L91,390.5L91,390.5L91,390.5L91,390.5z M91,390.4L91,390.4L91,390.4L91,390.4L91,390.4z M91.1,390.7
		L91.1,390.7L91.1,390.7L91.1,390.7L91.1,390.7z M91.1,390.7L91.1,390.7L91.1,390.7L91.1,390.7L91.1,390.7z M91.1,390.6L91.1,390.6
		L91.1,390.6L91.1,390.6L91.1,390.6z M91.1,390.5L91.1,390.5L91.1,390.5L91.1,390.5L91.1,390.5z M91.1,390.5L91.1,390.5L91.1,390.5
		L91.1,390.5L91.1,390.5z M91.1,390.4L91.1,390.4L91.1,390.4L91.1,390.4L91.1,390.4z M91.2,390.7h-0.1l0,0H91.2L91.2,390.7z
		 M91.2,390.7h-0.1v-0.1L91.2,390.7L91.2,390.7z M91.2,390.6h-0.1v-0.1L91.2,390.6L91.2,390.6z M91.2,390.5h-0.1l0,0H91.2
		L91.2,390.5z M91.2,390.5h-0.1v-0.1L91.2,390.5L91.2,390.5z M91.2,390.4h-0.1v-0.1L91.2,390.4L91.2,390.4z M91.4,387.5L91.4,387.5
		L91.4,387.5C91.3,387.6,91.3,387.5,91.4,387.5L91.4,387.5z M91.3,387.5L91.3,387.5L91.3,387.5L91.3,387.5z M91.4,387.6L91.4,387.6
		L91.4,387.6C91.3,387.6,91.3,387.6,91.4,387.6L91.4,387.6z M91.4,387.7L91.4,387.7L91.4,387.7C91.3,387.7,91.3,387.7,91.4,387.7
		L91.4,387.7z M91.4,387.7L91.4,387.7L91.4,387.7C91.3,387.8,91.3,387.8,91.4,387.7L91.4,387.7z M91.3,387.1L91.3,387.1L91.3,387.1
		L91.3,387.1L91.3,387.1z M91.3,387.1L91.3,387.1C91.3,387.2,91.3,387.2,91.3,387.1L91.3,387.1L91.3,387.1z M91.3,386.9L91.3,386.9
		L91.3,386.9L91.3,386.9z M91.3,386.8L91.3,386.8L91.3,386.8L91.3,386.8L91.3,386.8C91.4,386.8,91.4,386.8,91.3,386.8L91.3,386.8z
		 M91.4,387.5L91.4,387.5L91.4,387.5L91.4,387.5L91.4,387.5z M91.4,387.5C91.4,387.4,91.4,387.4,91.4,387.5L91.4,387.5L91.4,387.5
		L91.4,387.5z M91.4,387.5L91.4,387.5L91.4,387.5L91.4,387.5L91.4,387.5z M91.4,387.6L91.4,387.6L91.4,387.6L91.4,387.6L91.4,387.6z
		 M91.4,387.7L91.4,387.7L91.4,387.7L91.4,387.7L91.4,387.7z M91.4,387.7L91.4,387.7L91.4,387.7L91.4,387.7L91.4,387.7z M91.5,387.6
		L91.5,387.6L91.5,387.6L91.5,387.6L91.5,387.6z M91.5,387.6L91.5,387.6L91.5,387.6L91.5,387.6L91.5,387.6z M91.5,387.7L91.5,387.7
		L91.5,387.7L91.5,387.7L91.5,387.7z M91.5,387.7L91.5,387.7L91.5,387.7L91.5,387.7L91.5,387.7z M99,393.6c0.1,0,0.2,0.1,0.3,0.1
		c0,0-0.2,0-0.3,0.1V393.6z M99,393.7c0.1,0,0.2,0,0.3-0.1v0.3l0,0v0.4c-0.1-0.1-0.2-0.3-0.3-0.4V393.7z M99,393.9l0.3,0.4H99V393.9
		z M98.3,392.5h0.2l0,0H98.3L98.3,392.5z M98.3,392.6h0.2l0,0H98.3L98.3,392.6z M98.3,392.7h0.2l0,0H98.3L98.3,392.7z M98,392.5h0.2
		l0,0H98L98,392.5z M98,392.6h0.2l0,0H98L98,392.6z M98,392.7h0.2l0,0H98L98,392.7z M97.8,392.5H98l0,0H97.8L97.8,392.5z
		 M97.8,392.6H98l0,0H97.8L97.8,392.6z M97.8,392.7H98l0,0H97.8L97.8,392.7z M97.5,392.5h0.2l0,0H97.5L97.5,392.5z M97.5,392.6h0.2
		l0,0H97.5L97.5,392.6z M97.5,392.7h0.2l0,0H97.5L97.5,392.7z M97.3,392.5h0.2l0,0H97.3L97.3,392.5z M97.3,392.6h0.2l0,0H97.3
		L97.3,392.6z M97.3,392.7h0.2l0,0H97.3L97.3,392.7z M97.1,392.5h0.2l0,0H97.1L97.1,392.5z M97.1,392.6h0.2l0,0H97.1L97.1,392.6z
		 M97.1,392.7h0.2l0,0H97.1L97.1,392.7z M96.8,392.5H97l0,0H96.8L96.8,392.5z M96.8,392.6H97l0,0H96.8L96.8,392.6z M96.8,392.7H97
		l0,0H96.8L96.8,392.7z M96.6,392.5h0.2l0,0H96.6L96.6,392.5z M96.6,392.6h0.2l0,0H96.6L96.6,392.6z M96.6,392.7h0.2l0,0H96.6
		L96.6,392.7z M96.4,392.5h0.2l0,0H96.4L96.4,392.5z M96.4,392.6h0.2l0,0H96.4L96.4,392.6z M96.4,392.7h0.2l0,0H96.4L96.4,392.7z
		 M96.1,392.5h0.2l0,0H96.1L96.1,392.5z M96.1,392.6h0.2l0,0H96.1L96.1,392.6z M96.1,392.7h0.2l0,0H96.1L96.1,392.7z M95.9,392.5
		h0.2l0,0H95.9L95.9,392.5z M95.9,392.6h0.2l0,0H95.9L95.9,392.6z M95.9,392.7h0.2l0,0H95.9L95.9,392.7z M95.7,392.5h0.2l0,0H95.7
		L95.7,392.5z M95.7,392.6h0.2l0,0H95.7L95.7,392.6z M95.7,392.7h0.2l0,0H95.7L95.7,392.7z M95.4,392.5h0.2l0,0H95.4L95.4,392.5z
		 M95.4,392.6h0.2l0,0H95.4L95.4,392.6z M95.4,392.7h0.2l0,0H95.4L95.4,392.7z M95.2,392.5h0.2l0,0H95.2L95.2,392.5z M95.2,392.6
		h0.2l0,0H95.2L95.2,392.6z M95.2,392.7h0.2l0,0H95.2L95.2,392.7z M94.9,392.5h0.2l0,0H94.9L94.9,392.5z M94.9,392.6h0.2l0,0H94.9
		L94.9,392.6z M94.9,392.7h0.2l0,0H94.9L94.9,392.7z M94.7,392.5h0.2l0,0H94.7L94.7,392.5z M94.7,392.6h0.2l0,0H94.7L94.7,392.6z
		 M94.7,392.7h0.2l0,0H94.7L94.7,392.7z M94.5,392.5h0.2l0,0H94.5L94.5,392.5z M94.5,392.6h0.2l0,0H94.5L94.5,392.6z M94.5,392.7
		h0.2l0,0H94.5L94.5,392.7z M94.2,392.5h0.2l0,0H94.2L94.2,392.5z M94.2,392.6h0.2l0,0H94.2L94.2,392.6z M94.2,392.7h0.2l0,0H94.2
		L94.2,392.7z M94,392.5h0.2l0,0H94L94,392.5z M94,392.6h0.2l0,0H94L94,392.6z M94,392.7h0.2l0,0H94L94,392.7z M93.8,392.5H94l0,0
		H93.8L93.8,392.5z M93.8,392.6H94l0,0H93.8L93.8,392.6z M93.8,392.7H94l0,0H93.8L93.8,392.7z M93.5,392.5h0.2l0,0H93.5L93.5,392.5z
		 M93.5,392.6h0.2l0,0H93.5L93.5,392.6z M93.5,392.7h0.2l0,0H93.5L93.5,392.7z M93.3,392.5h0.2l0,0H93.3L93.3,392.5z M93.3,392.6
		h0.2l0,0H93.3L93.3,392.6z M93.3,392.7h0.2l0,0H93.3L93.3,392.7z M93.1,392.5h0.2l0,0H93.1L93.1,392.5z M93.1,392.6h0.2l0,0H93.1
		L93.1,392.6z M93.1,392.7h0.2l0,0H93.1L93.1,392.7z M92.8,392.5H93l0,0H92.8L92.8,392.5z M92.8,392.6H93l0,0H92.8L92.8,392.6z
		 M92.8,392.7H93l0,0H92.8L92.8,392.7z M92.6,392.5h0.2l0,0H92.6L92.6,392.5z M92.6,392.6h0.2l0,0H92.6L92.6,392.6z M92.6,392.7h0.2
		l0,0H92.6L92.6,392.7z M92.3,392.5h0.2l0,0H92.3L92.3,392.5z M92.3,392.6h0.2l0,0H92.3L92.3,392.6z M92.3,392.7h0.2l0,0H92.3
		L92.3,392.7z M92.1,392.5h0.2l0,0H92.1L92.1,392.5z M92.1,392.6h0.2l0,0H92.1L92.1,392.6z M92.1,392.7h0.2l0,0H92.1L92.1,392.7z
		 M91.9,392.5h0.2l0,0H91.9L91.9,392.5z M91.9,392.6h0.2l0,0H91.9L91.9,392.6z M91.9,392.7h0.2l0,0H91.9L91.9,392.7z M91.6,392.5
		h0.2l0,0H91.6L91.6,392.5z M91.6,392.6h0.2l0,0H91.6L91.6,392.6z M91.6,392.7h0.2l0,0H91.6L91.6,392.7z M91.5,392.5L91.5,392.5
		L91.5,392.5L91.5,392.5L91.5,392.5z M91.5,392.6L91.5,392.6L91.5,392.6L91.5,392.6L91.5,392.6z M91.5,392.7L91.5,392.7L91.5,392.7
		L91.5,392.7L91.5,392.7z M91.5,387.4L91.5,387.4L91.5,387.4L91.5,387.4z M91.5,387.5L91.5,387.5L91.5,387.5L91.5,387.5L91.5,387.5
		L91.5,387.5z M91.5,387.5L91.5,387.5L91.5,387.5L91.5,387.5C91.5,387.4,91.5,387.4,91.5,387.5z M91.4,387.4L91.4,387.4L91.4,387.4
		L91.4,387.4L91.4,387.4z M91.6,386.8h-0.1c0-0.1,0-0.1-0.1-0.2C91.5,386.6,91.6,386.7,91.6,386.8z M91.4,386.6c0,0,0.1,0.1,0.1,0.2
		h-0.1h-0.1C91.3,386.6,91.3,386.6,91.4,386.6z M91.2,387C91.2,387,91.1,387,91.2,387C91.1,387,91.2,386.9,91.2,387
		C91.2,386.9,91.2,387,91.2,387L91.2,387z M91.3,387.3c-0.1,0-0.1,0-0.1,0v-0.1C91.2,387.2,91.2,387.2,91.3,387.3L91.3,387.3z
		 M91.3,387.2c-0.1,0-0.1,0-0.1,0C91.1,387.1,91.2,387.1,91.3,387.2L91.3,387.2z M91.3,387.1c-0.1,0-0.1,0-0.1,0V387
		C91.2,387,91.2,387,91.3,387.1C91.2,387,91.2,387,91.3,387.1L91.3,387.1z M91.3,386.9C91.2,386.9,91.2,386.9,91.3,386.9
		c-0.1,0-0.1,0-0.1,0.1v-0.1C91.2,386.8,91.2,386.8,91.3,386.9L91.3,386.9z M91.3,386.8L91.3,386.8c-0.1,0-0.1,0-0.1,0
		C91.1,386.8,91.2,386.8,91.3,386.8L91.3,386.8z M91.1,386.8c0-0.1,0.1-0.2,0.2-0.2C91.3,386.6,91.2,386.7,91.1,386.8
		C91.2,386.7,91.2,386.8,91.1,386.8z M91.3,387.3L91.3,387.3C91.3,387.2,91.3,387.2,91.3,387.3L91.3,387.3L91.3,387.3z M91.3,387.4
		L91.3,387.4L91.3,387.4L91.3,387.4L91.3,387.4L91.3,387.4z M91.2,387.4L91.2,387.4L91.2,387.4L91.2,387.4L91.2,387.4z M91.2,387.5
		L91.2,387.5h0.1H91.2L91.2,387.5L91.2,387.5z M91.2,387.5L91.2,387.5L91.2,387.5L91.2,387.5L91.2,387.5z M91.2,387.6L91.2,387.6
		L91.2,387.6L91.2,387.6L91.2,387.6z M91.2,387.7L91.2,387.7L91.2,387.7L91.2,387.7L91.2,387.7z M91.2,387.7L91.2,387.7L91.2,387.7
		L91.2,387.7L91.2,387.7z"/>
</g>
<g id="statue_of_liberty">
</g>
</svg>
