<?xml version="1.0" encoding="utf-8"?>
<!-- Generator: Adobe Illustrator 19.0.0, SVG Export Plug-In . SVG Version: 6.00 Build 0)  -->
<svg version="1.1" xmlns="http://www.w3.org/2000/svg" xmlns:xlink="http://www.w3.org/1999/xlink" x="0px" y="0px"
	 viewBox="0 0 363.8 91.5" style="enable-background:new 0 0 363.8 91.5;" xml:space="preserve">
<style type="text/css">
	.st0{fill:#CCCCCC;}
</style>
<g id="ground">
</g>
<g id="new_york">
	<path class="st0" d="M218.9,49.4v33h8.6v-33H227V38.6h-0.2V22.3h-0.3v-0.2l-0.7-0.6v-1h-0.1v-0.1l-1-0.8h-0.2v-0.3l-0.6-0.6h0
		l-0.5-0.5v0l0,0v-0.1l0.3-1.3h0.1l0,0v-0.1l0,0h-0.1l-0.3-1.2v-0.1h0v0h0.1v-0.1h-0.1v-0.1h0v0h0v0h0v0h0.1c0,0,0.1,0.2,0.2,0.2
		c0.1,0,0.1-0.2,0.1-0.3s0-0.3-0.1-0.3c-0.1,0-0.2,0.2-0.2,0.2h-0.1v-0.1h0v-0.7h0v-2.1h0V12h-0.1v0.1h0v2.1h0v0.7h0V15h-0.1
		c0,0-0.1-0.2-0.2-0.2c-0.1,0-0.1,0.2-0.1,0.3s0,0.3,0.1,0.3c0.1,0,0.2-0.2,0.2-0.2h0.1v0h0v0h0v0h0v0.1h-0.1v0.1h0.1v0h0v0.1
		l-0.3,1.2h-0.1l0,0v0.1l0,0h0.1l0.3,1.3v0.1h0v0l-0.5,0.5h0l-0.6,0.6v0.3h-0.2l-1,0.8v0.1h-0.1v1l-0.7,0.6v0.2h-0.3v16.3h-0.2v10.7
		H218.9z M223.2,12.1L223.2,12.1l0,2.1h0V12.1z M223.2,14.2L223.2,14.2l0-2.1h0V14.2z M223.4,16L223.4,16
		C223.4,16,223.3,15.9,223.4,16L223.4,16C223.3,15.9,223.4,15.9,223.4,16z M223.4,16c0,0,0,0.1,0,0.1L223.4,16
		C223.4,16.1,223.4,16.1,223.4,16L223.4,16z M223.4,16.2L223.4,16.2C223.4,16.3,223.4,16.2,223.4,16.2L223.4,16.2
		C223.4,16.2,223.4,16.2,223.4,16.2z M223.4,16.3c0,0.1,0,0.1,0,0.2l-0.1-0.1C223.4,16.4,223.4,16.4,223.4,16.3L223.4,16.3z
		 M223.5,16.5L223.5,16.5C223.5,16.5,223.5,16.5,223.5,16.5L223.5,16.5C223.5,16.5,223.5,16.5,223.5,16.5z M223.5,16.5
		c0,0.1,0,0.1,0,0.2l-0.1-0.1C223.5,16.6,223.5,16.6,223.5,16.5L223.5,16.5z M223.6,16.8C223.6,16.8,223.6,16.8,223.6,16.8
		L223.6,16.8L223.6,16.8C223.5,16.7,223.5,16.7,223.6,16.8L223.6,16.8z M223,16.6L223,16.6c-0.1,0,0,0,0-0.1L223,16.6
		C223,16.6,223,16.6,223,16.6z M223,16.4L223,16.4c0,0,0,0,0-0.1L223,16.4C223,16.4,223,16.4,223,16.4z M223.1,16.1L223.1,16.1
		C223.1,16.1,223.1,16.1,223.1,16.1L223.1,16.1C223.1,16.1,223.1,16.1,223.1,16.1z M223.1,15.9C223.1,15.9,223.1,16,223.1,15.9
		L223.1,15.9C223.1,15.9,223.1,15.9,223.1,15.9L223.1,15.9z M223.1,16.1c0,0.1,0,0.1,0,0.2L223.1,16.1C223,16.2,223,16.2,223.1,16.1
		L223.1,16.1z M223,16.4c0,0.1,0,0.1,0,0.2L223,16.4C223,16.5,223,16.5,223,16.4L223,16.4z M223,16.7L223,16.7L223,16.7
		C222.9,16.8,222.9,16.8,223,16.7L223,16.7C223,16.7,223,16.7,223,16.7z M223.1,18.7c0-0.1,0.1-0.1,0.1-0.2L223.1,18.7L223.1,18.7z
		 M223.2,17.4l-0.1-0.5h0V17h0V17.4z M223,16.7l0.2-0.2v0.1h0v0.1H223z M223.3,16.5l0.2,0.2h-0.1v-0.1h0V16.5z M223.3,16.9l-0.1,0.5
		L223.3,16.9L223.3,16.9L223.3,16.9L223.3,16.9z M223.3,18.5c0,0.1,0,0.1,0.1,0.2h-0.1V18.5z M222.8,18.7c0.1-0.1,0.2-0.2,0.3-0.3
		l-0.1,0.3H222.8z M222.9,16.9h0.2l0.1,0.7V18C223.1,17.7,223,17,222.9,16.9z M223.2,15.8v0.6l-0.2,0.2L223.2,15.8z M223.3,15.8
		l0.2,0.9l-0.2-0.2V15.8z M223.3,18v-0.5l0.1-0.7h0.2C223.5,17,223.4,17.7,223.3,18z M223.7,18.7h-0.2l-0.1-0.3
		C223.5,18.5,223.6,18.6,223.7,18.7z"/>
	<path class="st0" d="M158.9,40.6l-1,1v40.9h8.8V34.1l-1-0.9V21.9l-2.2-2.2v-0.4c0,0,0,0,0,0c0,0,0.1,0,0.1-0.1c0,0,0-0.1-0.1-0.1
		c0,0,0,0,0,0v-1.8h0v-1.1h0.2v0h-0.1v0h-0.1v-0.2h0v-0.7h-0.1v0.7h0v1.4h0c0,0,0,0.2,0,0.5h-2.1h0c0-0.3,0-0.5,0-0.5h0v-1.4h0v-0.7
		h-0.1v0.7h0v0.2H161v0h-0.1v0h0.2v1.1h0v1.8c0,0,0,0,0,0.1c0,0,0,0,0,0.1v0.5l-2.2,2.2V40.6z M162.1,19.8H162c0,0,0-0.1,0-0.1
		C162,19.7,162,19.7,162.1,19.8C162,19.7,162,19.7,162.1,19.8C162.1,19.7,162.1,19.8,162.1,19.8z M161.8,19.8h-0.1c0,0,0-0.1,0-0.1
		C161.7,19.7,161.7,19.7,161.8,19.8C161.8,19.7,161.8,19.7,161.8,19.8C161.8,19.7,161.8,19.8,161.8,19.8z M161.5,19.8
		c0.2-0.2,0.5-0.5,0.7-0.7v0.7h0v-0.1h0c0,0,0-0.1-0.1-0.1c0,0-0.1,0-0.1,0.1h0h0v0.1h-0.1v-0.1h0c0,0,0-0.1-0.1-0.1
		c0,0-0.1,0-0.1,0.1h0h0v0.1H161.5z M162.4,19.1c0.2,0.2,0.5,0.5,0.7,0.7h-0.2v-0.1h0c0,0,0-0.1-0.1-0.1c0,0-0.1,0-0.1,0.1h0h0v0.1
		h-0.1v-0.1h0c0,0,0-0.1-0.1-0.1c0,0-0.1,0-0.1,0.1h0h0v0.1h-0.1V19.1z M162.5,19.8C162.5,19.8,162.5,19.7,162.5,19.8
		C162.5,19.7,162.5,19.7,162.5,19.8c0.1-0.1,0.1-0.1,0.1-0.1c0,0,0,0,0,0.1H162.5z M162.8,19.8C162.8,19.8,162.8,19.7,162.8,19.8
		C162.8,19.7,162.8,19.7,162.8,19.8C162.8,19.7,162.9,19.7,162.8,19.8C162.9,19.7,162.9,19.8,162.8,19.8L162.8,19.8z M161.3,19.8
		c0.4-0.4,0.7-0.7,0.9-0.9V19L161.3,19.8L161.3,19.8L161.3,19.8z M162.4,18.9c0.2,0.2,0.5,0.5,0.9,0.9l0,0h-0.1L162.4,18.9
		L162.4,18.9z M162.1,18.8l-0.9,0.9c0-0.6,0-1.3,0-1.7L162.1,18.8z M163.2,17.9c-0.1,0.1-0.6,0.6-0.8,0.8l-0.1-0.1l0,0l-0.1,0.1
		c-0.2-0.2-0.7-0.7-0.8-0.8C161.6,17.9,163,17.9,163.2,17.9z M163.3,18c0,0.5,0,1.1,0,1.7l-0.8-0.8L163.3,18z"/>
	<path class="st0" d="M242.7,61.8h-0.6V40.4H242v-0.5h-0.1v-0.4h-0.5v-8.7h0.1v-3.3h-0.1v-0.8h-0.1v-0.3h-0.7v-2.2h-0.1h-0.7V24h0.1
		v-0.1h-0.1v-0.1h0.3v-0.1h-0.3v-0.4h0.1v-0.1h-0.1V23h0.1v-0.1h-0.1v-0.3h0.3v-0.1h-0.3v-0.2v-0.2h-0.8l0-2.3l0,2.3h-1.4v-0.5
		l0.1,0l0,0l0,0l0-0.1c0.3,0,0.5-0.1,0.6-0.3c0-0.2-0.3-0.4-0.7-0.5c-0.4-0.1-0.7,0-0.8,0.2c0,0.1,0.1,0.4,0.4,0.5l0,0.1l0.1,0l0,0
		l0.1,0v0.5h-1l0-1.4l0,1.4h-1v0.2v0.2H235v0.1h0.3v0.3h-0.1V23h0.1v0.2h-0.1v0.1h0.1v0.4H235v0.1h0.3v0.1h-0.1V24h0.1v0.1h-0.8v2.2
		h-0.7v0.3h-0.2v0.8h-0.1v3.3h0.1v8.7h-0.5v0.4h-0.1v0.5h-0.1v21.4h-0.5v11H230v9.6h15.1v-9.6h-2.4V61.8z M237.4,21.6L237.4,21.6
		l0,0.5h0V21.6z M240.3,24.3c0,0.1,0,1.1,0,1.9h-0.5v-0.4h-0.1v-0.2h0.2l-0.2,0v-0.2h0.2l-0.2,0v-0.2h0.2l-0.2,0v-0.2h0.2l-0.2,0
		v-0.2h0.2l-0.2,0v-0.2h0.2l-0.2,0v-0.3C240.1,24.3,240.2,24.3,240.3,24.3z M234.7,24.3c0,0,0.2,0,0.5,0v0.3l-0.2,0h0.2v0.2l-0.2,0
		h0.2V25l-0.2,0h0.2v0.2l-0.2,0h0.2v0.2l-0.2,0h0.2v0.2l-0.2,0h0.2v0.2h-0.1v0.4h-0.5C234.7,25.4,234.7,24.5,234.7,24.3z"/>
	<path class="st0" d="M349.1,41.5l-1.8,0.8v-0.5c0.1,0,0.1-0.1,0.1-0.1c0-0.1-0.1-0.2-0.2-0.2c-0.1,0-0.2,0.1-0.2,0.2
		c0,0.1,0.1,0.1,0.1,0.1v0.6l-4.4,1.9v0.4c0,0-0.1,0-0.1,0c0,0,0,0,0.1,0v0.2c0,0-0.1,0-0.1,0c0,0,0,0,0.1,0v0.2c0,0-0.1,0-0.1,0
		c0,0,0,0,0.1,0v0.2c0,0-0.1,0-0.1,0c0,0,0,0,0.1,0v0.2c0,0-0.1,0-0.1,0c0,0,0,0,0.1,0v0.2c0,0-0.1,0-0.1,0c0,0,0,0,0.1,0v0h0.3v1
		h-0.3v0.4c0,0-0.1,0-0.1,0c0,0,0,0,0.1,0v0.2c0,0-0.1,0-0.1,0c0,0,0,0,0.1,0v0.2c0,0-0.1,0-0.1,0c0,0,0,0,0.1,0v0.2
		c0,0-0.1,0-0.1,0c0,0,0,0,0.1,0v0.2c0,0-0.1,0-0.1,0c0,0,0,0,0.1,0v0.2c0,0-0.1,0-0.1,0c0,0,0,0,0.1,0v0.2c0,0-0.1,0-0.1,0
		c0,0,0,0,0.1,0V51l-1.2,1.8v29.6h8.5v-38L349.1,41.5z"/>
	<path class="st0" d="M83,62h-0.5v-8.2h0h-0.5v-0.3v0h0h-4.5v0v0.3h-0.6V62h-0.5v11.4h-0.2v9h6.9v-9H83V62z M77.1,54h0.2V54L77.1,54
		L77.1,54z M77.1,54h-0.2c0,0,0-0.1,0-0.1L77.1,54L77.1,54z M77.1,53.9L77.1,53.9c0-0.1,0.1-0.1,0.2-0.1v0.1H77.1z M77.3,54h0.2V54
		L77.3,54L77.3,54z M81.9,53.7h-0.2v-0.1L81.9,53.7C81.9,53.7,81.9,53.7,81.9,53.7z M81.7,53.7h-0.2v-0.1L81.7,53.7L81.7,53.7z
		 M81.7,53.9h-0.2v-0.1C81.6,53.8,81.6,53.8,81.7,53.9L81.7,53.9z M81.7,53.8c0.1,0,0.1,0,0.2,0c0,0,0,0,0,0.1L81.7,53.8L81.7,53.8z
		 M78.4,53.8c0.1,0,0.1,0,0.2,0v0.1L78.4,53.8L78.4,53.8z M78.4,53.9h-0.2v-0.1C78.3,53.8,78.3,53.8,78.4,53.9L78.4,53.9z
		 M78.6,53.8c0.1,0,0.1,0,0.2,0v0.1L78.6,53.8L78.6,53.8z M78.8,53.8c0.1,0,0.1,0,0.2,0v0.1L78.8,53.8L78.8,53.8z M78.9,53.8
		c0.1,0,0.1,0,0.2,0v0.1L78.9,53.8L78.9,53.8z M79.1,53.8c0.1,0,0.1,0,0.2,0v0.1L79.1,53.8L79.1,53.8z M79.3,53.8c0.1,0,0.1,0,0.2,0
		v0.1L79.3,53.8L79.3,53.8z M79.5,53.8c0.1,0,0.1,0,0.2,0v0.1L79.5,53.8L79.5,53.8z M79.7,53.8c0.1,0,0.1,0,0.2,0v0.1L79.7,53.8
		L79.7,53.8z M79.9,53.8c0.1,0,0.1,0,0.2,0v0.1L79.9,53.8L79.9,53.8z M80,53.8c0.1,0,0.1,0,0.2,0v0.1L80,53.8L80,53.8z M80.2,53.8
		c0.1,0,0.1,0,0.2,0v0.1L80.2,53.8L80.2,53.8z M80.4,53.8c0.1,0,0.1,0,0.2,0v0.1L80.4,53.8L80.4,53.8z M80.6,53.8h-0.2v-0.1
		L80.6,53.8L80.6,53.8z M80.4,53.8h-0.2v-0.1L80.4,53.8L80.4,53.8z M80.2,53.8H80v-0.1L80.2,53.8L80.2,53.8z M80,53.8h-0.2v-0.1
		L80,53.8L80,53.8z M79.8,53.8h-0.2v-0.1L79.8,53.8L79.8,53.8z M79.7,53.8h-0.2v-0.1L79.7,53.8L79.7,53.8z M79.5,53.8h-0.2v-0.1
		L79.5,53.8L79.5,53.8z M79.3,53.8h-0.2v-0.1L79.3,53.8L79.3,53.8z M79.1,53.8h-0.2v-0.1L79.1,53.8L79.1,53.8z M78.9,53.8h-0.2v-0.1
		L78.9,53.8L78.9,53.8z M78.7,53.8h-0.2v-0.1L78.7,53.8L78.7,53.8z M78.5,53.8h-0.2v-0.1L78.5,53.8L78.5,53.8z M78.4,53.8h-0.2v-0.1
		L78.4,53.8L78.4,53.8z M78.2,53.8H78v-0.1L78.2,53.8L78.2,53.8z M78.2,53.8L78.2,53.8L78,53.9v-0.1C78.1,53.8,78.1,53.8,78.2,53.8z
		 M78.2,54L78.2,54L78,54V54H78.2z M78.2,54h0.2V54L78.2,54L78.2,54z M78.4,54h0.2V54L78.4,54L78.4,54z M78.6,54h0.2V54L78.6,54
		L78.6,54z M78.8,54h0.2V54L78.8,54L78.8,54z M78.9,54h0.2V54L78.9,54L78.9,54z M79.1,54h0.2V54L79.1,54L79.1,54z M79.3,54h0.2V54
		L79.3,54L79.3,54z M79.5,54h0.2V54L79.5,54L79.5,54z M79.7,54h0.2V54L79.7,54L79.7,54z M79.9,54H80V54L79.9,54L79.9,54z M80,54h0.2
		V54L80,54L80,54z M80.2,54h0.2V54L80.2,54L80.2,54z M80.4,54h0.2V54L80.4,54L80.4,54z M80.6,53.7h-0.2v-0.1L80.6,53.7L80.6,53.7z
		 M80.4,53.7h-0.2v-0.1L80.4,53.7L80.4,53.7z M80.2,53.7H80v-0.1L80.2,53.7L80.2,53.7z M80,53.7h-0.2v-0.1L80,53.7L80,53.7z
		 M79.8,53.7h-0.2v-0.1L79.8,53.7L79.8,53.7z M79.7,53.7h-0.2v-0.1L79.7,53.7L79.7,53.7z M79.5,53.7h-0.2v-0.1L79.5,53.7L79.5,53.7z
		 M79.3,53.7h-0.2v-0.1L79.3,53.7L79.3,53.7z M79.1,53.7h-0.2v-0.1L79.1,53.7L79.1,53.7z M78.9,53.7h-0.2v-0.1L78.9,53.7L78.9,53.7z
		 M78.7,53.7h-0.2v-0.1L78.7,53.7L78.7,53.7z M78.5,53.7h-0.2v-0.1L78.5,53.7L78.5,53.7z M78.4,53.7h-0.2v-0.1L78.4,53.7L78.4,53.7z
		 M78.2,53.7H78v-0.1L78.2,53.7L78.2,53.7z M78,53.7h-0.2v-0.1L78,53.7L78,53.7z M78,53.7L78,53.7l-0.2,0.1v-0.1H78z M78,53.8
		L78,53.8l-0.2,0.1v-0.1C77.9,53.8,77.9,53.8,78,53.8z M78,54L78,54L77.8,54V54H78z M77.8,54h-0.2V54L77.8,54L77.8,54z M81.5,54
		L81.5,54l0.2-0.1V54H81.5z M81.5,53.8L81.5,53.8l0.2-0.1v0.1H81.5z M81.5,53.6L81.5,53.6c0.1-0.1,0.1-0.1,0.2-0.1v0.1H81.5z
		 M81.5,53.6h-0.2v-0.1C81.4,53.5,81.5,53.5,81.5,53.6L81.5,53.6z M81.3,53.6h-0.2v-0.1C81.2,53.5,81.3,53.5,81.3,53.6L81.3,53.6z
		 M81.1,53.6H81v-0.1C81,53.5,81.1,53.5,81.1,53.6L81.1,53.6z M81,53.6h-0.2v-0.1C80.8,53.5,80.9,53.5,81,53.6L81,53.6z M80.8,53.6
		h-0.2v-0.1C80.7,53.5,80.7,53.5,80.8,53.6L80.8,53.6z M80.6,53.6h-0.2v-0.1C80.5,53.5,80.5,53.5,80.6,53.6L80.6,53.6z M80.4,53.6
		h-0.2v-0.1C80.3,53.5,80.3,53.5,80.4,53.6L80.4,53.6z M80.2,53.6H80v-0.1C80.1,53.5,80.2,53.5,80.2,53.6L80.2,53.6z M80,53.6h-0.2
		v-0.1C79.9,53.5,80,53.5,80,53.6L80,53.6z M79.8,53.6h-0.2v-0.1C79.7,53.5,79.8,53.5,79.8,53.6L79.8,53.6z M79.7,53.6h-0.2v-0.1
		C79.5,53.5,79.6,53.5,79.7,53.6L79.7,53.6z M79.5,53.6h-0.2v-0.1C79.4,53.5,79.4,53.5,79.5,53.6L79.5,53.6z M79.3,53.6h-0.2v-0.1
		C79.2,53.5,79.2,53.5,79.3,53.6L79.3,53.6z M79.1,53.6h-0.2v-0.1C79,53.5,79,53.5,79.1,53.6L79.1,53.6z M78.9,53.6h-0.2v-0.1
		C78.8,53.5,78.9,53.5,78.9,53.6L78.9,53.6z M78.7,53.6h-0.2v-0.1C78.6,53.5,78.7,53.5,78.7,53.6L78.7,53.6z M78.5,53.6h-0.2v-0.1
		C78.4,53.5,78.5,53.5,78.5,53.6L78.5,53.6z M78.4,53.6h-0.2v-0.1C78.3,53.5,78.3,53.5,78.4,53.6L78.4,53.6z M78.2,53.6H78v-0.1
		C78.1,53.5,78.1,53.5,78.2,53.6L78.2,53.6z M78,53.6h-0.2v-0.1C77.9,53.5,77.9,53.5,78,53.6L78,53.6z M77.8,53.6h-0.2v-0.1
		C77.7,53.5,77.7,53.5,77.8,53.6L77.8,53.6z M77.6,53.6h-0.2c0,0,0-0.1,0-0.1C77.5,53.5,77.5,53.5,77.6,53.6L77.6,53.6z M77.5,53.6
		h0.2v0.1L77.5,53.6C77.5,53.7,77.5,53.7,77.5,53.6z M77.6,53.6h0.2v0.1L77.6,53.6L77.6,53.6z M77.8,53.7L77.8,53.7l-0.2,0.1v-0.1
		H77.8z M77.8,53.8L77.8,53.8l-0.2,0.1v-0.1C77.7,53.8,77.8,53.8,77.8,53.8z M77.6,53.9h-0.2c0,0,0-0.1,0-0.1
		C77.5,53.8,77.6,53.8,77.6,53.9L77.6,53.9z M77.6,54L77.6,54L77.5,54c0,0,0-0.1,0-0.1H77.6z M81.7,54L81.7,54l0.2-0.1
		c0,0,0,0.1,0,0.1H81.7z M81.9,54h0.2V54L81.9,54L81.9,54z M82.1,54h0.2V54L82.1,54L82.1,54z M82.1,53.9L82.1,53.9
		c0.1-0.1,0.1-0.1,0.2-0.1v0.1H82.1z M82.3,54h0.2c0,0,0,0.1,0,0.1L82.3,54L82.3,54z M82.4,53.9h-0.2v-0.1
		C82.4,53.8,82.4,53.8,82.4,53.9C82.4,53.8,82.4,53.9,82.4,53.9z M82.1,53.8L82.1,53.8l-0.2,0.1v-0.1C82,53.8,82,53.8,82.1,53.8z
		 M81.7,53.8L81.7,53.8l0.2-0.1c0,0,0,0.1,0,0.1H81.7z M81.9,53.6h-0.2v-0.1C81.8,53.5,81.9,53.5,81.9,53.6
		C81.9,53.5,81.9,53.6,81.9,53.6z M77.5,53.7h0.2v0.1L77.5,53.7C77.5,53.8,77.5,53.8,77.5,53.7z M77.4,53.9h-0.2v-0.1
		C77.3,53.8,77.4,53.8,77.4,53.9L77.4,53.9z M77.1,53.8L77.1,53.8l-0.2,0.1c0,0,0-0.1,0-0.1C76.9,53.8,77,53.8,77.1,53.8z"/>
	<path class="st0" d="M59.9,82.4V71.1h-0.1v-0.3h0.1v-0.2h-0.1v-0.3h0.1V70h-0.1v-0.3h0.1v-0.2h-0.1v-0.3h0.1V69h-0.1v-0.3h0.1v-0.2
		h-0.1v-0.3h0.1v-0.2h-0.1v-0.3h0.1v-0.2h-0.1v-0.3h0.1v-0.2h-0.1v-0.3h0.1v-0.2h-0.1v-0.3h0.1v-0.2h-0.1v-0.3h0.1v-0.2h-0.1V65h0.1
		v-0.2h-0.1v-0.3h0.1v-0.2h-0.1V64h0.1v-0.2h-0.1v-0.3h0.1v-0.2h-0.1v-0.3h0.1v-0.2h-0.1v-0.3h0.1v-0.2h-0.1v-0.3h0.1v-0.2h-0.1
		v-0.3h0.1v-0.2h-0.1v-0.3h0.1v-0.2h-0.1v-0.3h0.1V60h-0.1v-0.3h0.1v-0.2h-0.1v-0.3h0.1V59h-0.1v-0.8h0.1v-1.1h-1.3v-0.2h0v0h-0.3
		v0.2h-0.5v-0.2h-0.1V57h-0.2l-0.3,0.1h-0.1V57h0v-0.1h0v-0.2h0v0.2h-0.3v0h0v0.2h-0.8V57h0v0h-0.1v-0.2h0.2v-0.3h-0.2v-0.1
		c0,0,0.1,0,0.1-0.1c0,0-0.1,0-0.1,0c-0.1,0-0.1,0-0.1,0c0,0,0,0.1,0.1,0.1v0.1h-0.2v0.3h0.2V57h-0.1v0h0v0.1h-0.4v1.1h0.1V59h-0.1
		v0.2h0.1v0.3h-0.1v0.2h0.1V60h-0.1v0.2h0.1v0.3h-0.1v0.2h0.1v0.3h-0.1v0.2h0.1v0.3h-0.1v0.2h0.1v0.3h-0.1v0.2h0.1v0.3h-0.1v0.2h0.1
		v0.3h-0.1v0.2h0.1v0.3h-0.1V64h0.1v0.3h-0.1v0.2h0.1v0.3h-0.1V65h0.1v0.3h-0.1v0.2h0.1v0.3h-0.1v0.2h0.1v0.3h-0.1v0.2h0.1v0.3h-0.1
		v0.2h0.1v0.3h-0.1v0.2h0.1v0.3h-0.1v0.2h0.1v0.3h-0.1v0.2h0.1V69h-0.1v0.2h0.1v0.3h-0.1v0.2h0.1V70h-0.1v0.2h0.1v0.3h-0.1v0.2h0.1
		v0.3h-0.1v11.4H59.9z M55.7,56.4C55.7,56.4,55.7,56.4,55.7,56.4C55.7,56.4,55.7,56.4,55.7,56.4L55.7,56.4L55.7,56.4L55.7,56.4z"/>
	<path class="st0" d="M323.1,77.3v-1.4h0.3v-0.7h0.1v-0.5h-0.1v-0.5h0.1v-0.5h-0.1v-0.5h0.1v-0.5h-0.1v-0.5h0.1v-0.5h-0.1v-0.5h0.1
		v-0.5h-0.1v-0.5h0.1v-0.5h-0.1v-0.5h0.1v-0.5h-0.1v-0.5h0.1v-0.5h-0.1v-0.5h0.1v-0.5h-0.1V66h0.1v-0.5h-0.1V65h0.1v-0.5h-0.1V64
		h0.1v-0.5h-0.1V63h0.1v-0.5h-0.1V62h0.1v-0.5h-0.1v-0.5h0.1v-0.5h-0.1v-0.5h0.1v-0.5h-0.1v-0.5h0.1v-0.5h-0.1v-0.5h0.1v-0.5h-0.1
		v-0.5h0.1v-0.5h-0.1v-0.5h0.1v-0.5h-0.1v-0.5h0.1v-0.5h-0.1v-0.5h0.1v-0.5h-0.1v-0.5h0.1v-0.5h-0.1v-0.5h0.1v-0.5h-0.1v-0.5h0.1
		v-0.5h-0.1v-0.5h0.1v-0.5h-0.1v-0.5h0.1v-0.5h-0.1v-0.5h0.1v-0.5h-0.1v-0.5h0.1v-0.6h-0.1v-0.5h0.4v-2.1h0.3V43h0.1c0-0.5,0-1,0-1
		h0.2l1.7-3.1v-1.2h0.2l0.1,0.2V38h1.2v-0.1l0.1-0.2h0.2v1.2l1.7,3.1h0.2c0,0,0,0.5,0,1h0.1v0.5h0.3v2.1h0.4v0.5h-0.1v0.6h0.1v0.5
		h-0.1v0.5h0.1v0.5h-0.1v0.5h0.1v0.5h-0.1v0.5h0.1v0.5h-0.1v0.5h0.1v0.5h-0.1v0.5h0.1v0.5h-0.1v0.5h0.1v0.5h-0.1v0.5h0.1v0.5h-0.1
		v0.5h0.1v0.5h-0.1v0.5h0.1v0.5h-0.1v0.5h0.1v0.5h-0.1v0.5h0.1v0.5h-0.1v0.5h0.1v0.5h-0.1v0.5h0.1v0.5h-0.1v0.5h0.1v0.5h-0.1V62h0.1
		v0.5h-0.1V63h0.1v0.5h-0.1V64h0.1v0.5h-0.1V65h0.1v0.5h-0.1V66h0.1v0.5h-0.1v0.5h0.1v0.5h-0.1v0.5h0.1v0.5h-0.1v0.5h0.1v0.5h-0.1
		v0.5h0.1v0.5h-0.1v0.5h0.1v0.5h-0.1v0.5h0.1v0.5h-0.1v0.5h0.1v0.5h-0.1v0.5h0.1v0.5h-0.1v0.5h0.1v0.7h0.3v1.4h0.2v1.3l-0.2,3.8
		h-7.7l-0.2-3.8v-1.3H323.1z"/>
	<path class="st0" d="M191.4,61.6v-1.2h-0.2v-2.5H191v-1.3h-0.1v-3.1h-0.1V39c0,0-0.4-0.1-2.8-0.1c-0.1,0-0.2,0-0.3,0v-0.1h-1
		l2.8-0.9c0,0,0,0,0,0c0,0,0,0,0,0v0h0v0h0v0.1h-0.1v0h0v0h0v0h0v0.1h0v0h0v0h0v0.3h0v0.1h0v0h0v0.1h0.3v-0.1h0v0h0v-0.1h0v-0.3h0v0
		h0v0h0v-0.1h0v0h0v0h0v0h-0.1V38h0v0h0v-0.1h0v0h0v0h-0.1c0,0,0,0,0,0v0h0v0c0,0,0,0,0,0l-3.2,0.9h-0.4v-0.1h-0.3v-0.2
		c0.2,0,0.4-0.2,0.4-0.3c0-0.1-0.2-0.2-0.5-0.2c-0.3,0-0.5,0.1-0.5,0.2c0,0.1,0.2,0.2,0.4,0.3v0.2l0,0l-0.7-0.3
		c0-0.1,0.1-0.1,0.1-0.2c0-0.1-0.2-0.1-0.5-0.1c0,0-0.1,0-0.1,0l-0.5-0.2c0,0,0,0,0,0v0h0v0c0,0,0,0,0,0h-0.1v0h0v0h0V38h0v0h0v0.1
		h-0.1v0h0v0h0v0h0v0.1h0v0h0v0h0v0.2h0v0.1h0v0h0v0.1h0.3v-0.1h0v0h0v-0.1h0v-0.2h0v0h0v0h0v-0.1h0v0h0v0h0v0h-0.1V38h0v0h0v0
		c0,0,0,0,0,0c0,0,0,0,0,0l0.4,0.2c-0.1,0-0.2,0.1-0.2,0.2c0,0.1,0.2,0.2,0.4,0.2v0.2h-1.6v1.1h0.1v13.6h-0.1v3.1h-0.1v1.3h-0.5
		l0-0.5h0v-0.2h0v-0.4h0v-0.2h0v-0.4h0v-0.2h0v-0.4h0v-0.2h0v-0.4h0V55h0v-0.4h0v-0.2h0V54h0v-0.2h0v-0.4h0v-0.2h0v-0.4h0v-0.2h0
		v-0.4h0v-0.2h0v-0.4h0v-0.2h0v-0.4h0V51h0v-0.4h0v-0.2h0V50h0v-0.2h0v-0.4h0v-0.2h0v-0.4h0v-0.2h0v-0.4h0v-0.2h0v-0.4h0v-0.2h0
		v-0.4h0v-0.2h0v-0.4h0v-0.2h0v-0.4h0v-0.2h0v-0.4h0v-0.2h0v-0.4h0v-0.2h0v-0.4h0v-4.6h0v-0.4h0V39h0v-0.4h0v-0.2h0V38h0v-0.2h0
		v-0.4h0v-0.2h0v-0.4h0v-0.2h0v-0.4h0v-0.2h0v-0.4h0v-0.2h0v-0.4h0V35h0v-0.4h0v-0.2h0V34h0v-0.2h0v-0.4h0v-0.2h0v-0.4h0v-0.2h0
		v-0.4h0v-0.2h0v-0.4h0v-0.4h0v-0.4h0v-0.4h0V30h0v-0.5H182v-0.2h-0.1v0.2h-0.1v-3h-0.2v0.1h-0.6v-0.1h-0.3v-0.1h-0.4v0.1h-0.9
		l-0.2-0.2h-0.5v-0.1h0v0h-0.1v0h-0.3v0h-0.1v-0.2c0.2,0,0.4-0.2,0.4-0.3c0-0.1-0.2-0.2-0.5-0.1c-0.3,0-0.5,0.1-0.4,0.2
		c0,0.1,0.2,0.2,0.4,0.2v0.2h-0.2v0h-0.1v3.1h0v0h-3V30h-0.2v27.9h-0.5v2.5h-0.2v1.2h-0.3v20.8h18.2V61.6H191.4z M189.7,38.4
		L189.7,38.4L189.7,38.4l-0.2,0.1v-0.1h0c0-0.1,0-0.2,0-0.3h0v0h0.2v0h0C189.7,38.2,189.7,38.3,189.7,38.4z M183.8,38.5L183.8,38.5
		L183.8,38.5l-0.2,0.1v-0.1h0c0-0.1,0-0.2,0-0.2h0v0h0.2v0h0C183.8,38.3,183.8,38.4,183.8,38.5z M184.4,38.6L184.4,38.6L184.4,38.6
		L184.4,38.6L184.4,38.6z M185.5,38.5L185.5,38.5L185.5,38.5L185.5,38.5L185.5,38.5z M185.5,38.5C185.5,38.5,185.5,38.5,185.5,38.5
		L185.5,38.5L185.5,38.5L185.5,38.5C185.5,38.4,185.5,38.5,185.5,38.5z M185,38.7h-0.4v0.1h-0.2v-0.2c0.1,0,0.1,0,0.2-0.1L185,38.7z
		 M184.4,38.6C184.4,38.6,184.4,38.6,184.4,38.6L184.4,38.6L184.4,38.6L184.4,38.6C184.4,38.6,184.4,38.6,184.4,38.6z M177.5,29.4
		L177.5,29.4L177.5,29.4L177.5,29.4L177.5,29.4z M177.5,29.4L177.5,29.4L177.5,29.4L177.5,29.4L177.5,29.4z M175.1,29.4L175.1,29.4
		L175.1,29.4L175.1,29.4L175.1,29.4z M175.1,29.4L175.1,29.4L175.1,29.4L175.1,29.4L175.1,29.4z M175.2,29.4L175.2,29.4L175.2,29.4
		L175.2,29.4L175.2,29.4z M175.3,29.4L175.3,29.4L175.3,29.4L175.3,29.4L175.3,29.4z M175.4,29.4L175.4,29.4L175.4,29.4L175.4,29.4
		L175.4,29.4z M175.5,29.4L175.5,29.4L175.5,29.4L175.5,29.4L175.5,29.4z M175.6,29.4L175.6,29.4L175.6,29.4L175.6,29.4L175.6,29.4z
		 M175.7,29.4L175.7,29.4L175.7,29.4L175.7,29.4L175.7,29.4z M175.8,29.4L175.8,29.4L175.8,29.4L175.8,29.4L175.8,29.4z M176,29.4
		L176,29.4L176,29.4L176,29.4L176,29.4z M176.1,29.4L176.1,29.4L176.1,29.4L176.1,29.4L176.1,29.4z M176.2,29.4L176.2,29.4
		L176.2,29.4L176.2,29.4L176.2,29.4z M176.3,29.4L176.3,29.4L176.3,29.4L176.3,29.4L176.3,29.4z M176.4,29.4L176.4,29.4L176.4,29.4
		L176.4,29.4L176.4,29.4z M176.5,29.4L176.5,29.4L176.5,29.4L176.5,29.4L176.5,29.4z M176.6,29.4L176.6,29.4L176.6,29.4L176.6,29.4
		L176.6,29.4z M176.7,29.4L176.7,29.4L176.7,29.4L176.7,29.4L176.7,29.4z M176.8,29.4L176.8,29.4L176.8,29.4L176.8,29.4L176.8,29.4z
		 M177.1,29.5L177.1,29.5L177.1,29.5L177.1,29.5L177.1,29.5z M177,29.5L177,29.5L177,29.5L177,29.5L177,29.5z M177.2,29.5
		L177.2,29.5L177.2,29.5L177.2,29.5L177.2,29.5z M177.2,29.4L177.2,29.4L177.2,29.4L177.2,29.4L177.2,29.4z M177.1,29.4L177.1,29.4
		L177.1,29.4L177.1,29.4L177.1,29.4z M177,29.4L177,29.4L177,29.4L177,29.4L177,29.4z M176.9,29.5L176.9,29.5L176.9,29.5L176.9,29.5
		L176.9,29.5z M177.3,29.5L177.3,29.5L177.3,29.5L177.3,29.5L177.3,29.5z M177.3,29.4L177.3,29.4L177.3,29.4L177.3,29.4L177.3,29.4z
		 M177.4,29.4L177.4,29.4L177.4,29.4L177.4,29.4L177.4,29.4z M177.4,29.4L177.4,29.4L177.4,29.4L177.4,29.4L177.4,29.4z M177.3,29.4
		L177.3,29.4L177.3,29.4L177.3,29.4L177.3,29.4z M177.1,29.4L177.1,29.4L177.1,29.4L177.1,29.4L177.1,29.4z M177,29.4L177,29.4
		L177,29.4L177,29.4L177,29.4z M176.9,29.4L176.9,29.4L176.9,29.4L176.9,29.4L176.9,29.4z M176.8,29.4L176.8,29.4L176.8,29.4
		L176.8,29.4L176.8,29.4z M176.7,29.4L176.7,29.4L176.7,29.4L176.7,29.4L176.7,29.4z M176.6,29.4L176.6,29.4L176.6,29.4L176.6,29.4
		L176.6,29.4z M176.5,29.4L176.5,29.4L176.5,29.4L176.5,29.4L176.5,29.4z M176.4,29.4L176.4,29.4L176.4,29.4L176.4,29.4L176.4,29.4z
		 M176.3,29.4L176.3,29.4L176.3,29.4L176.3,29.4L176.3,29.4z M176.2,29.4L176.2,29.4L176.2,29.4L176.2,29.4L176.2,29.4z M176,29.4
		L176,29.4L176,29.4L176,29.4L176,29.4z M175.9,29.4L175.9,29.4L175.9,29.4L175.9,29.4L175.9,29.4z M175.8,29.4L175.8,29.4
		L175.8,29.4L175.8,29.4L175.8,29.4z M175.7,29.4L175.7,29.4L175.7,29.4L175.7,29.4L175.7,29.4z M175.6,29.4L175.6,29.4L175.6,29.4
		L175.6,29.4L175.6,29.4z M175.5,29.4L175.5,29.4L175.5,29.4L175.5,29.4L175.5,29.4z M175.4,29.4L175.4,29.4L175.4,29.4L175.4,29.4
		L175.4,29.4z M175.3,29.4L175.3,29.4L175.3,29.4L175.3,29.4L175.3,29.4z M175.2,29.4L175.2,29.4L175.2,29.4L175.2,29.4L175.2,29.4z
		 M175.1,29.4L175.1,29.4L175.1,29.4L175.1,29.4L175.1,29.4z M174.9,29.4L174.9,29.4L174.9,29.4L174.9,29.4L174.9,29.4z M174.9,29.4
		L174.9,29.4L174.9,29.4L174.9,29.4L174.9,29.4z M174.8,29.4L174.8,29.4L174.8,29.4L174.8,29.4L174.8,29.4z M174.8,29.5L174.8,29.5
		L174.8,29.5L174.8,29.5L174.8,29.5z M174.9,29.5L174.9,29.5L174.9,29.5L174.9,29.5L174.9,29.5z M175,29.5L175,29.5L175,29.5
		L175,29.5L175,29.5z M175.1,29.5L175.1,29.5L175.1,29.5L175.1,29.5L175.1,29.5z M175.2,29.5L175.2,29.5L175.2,29.5L175.2,29.5
		L175.2,29.5z M175.3,29.5L175.3,29.5L175.3,29.5L175.3,29.5L175.3,29.5z M175.4,29.5L175.4,29.5L175.4,29.5L175.4,29.5L175.4,29.5z
		 M175.5,29.5L175.5,29.5L175.5,29.5L175.5,29.5L175.5,29.5z M175.6,29.5L175.6,29.5L175.6,29.5L175.6,29.5L175.6,29.5z M175.7,29.5
		L175.7,29.5L175.7,29.5L175.7,29.5L175.7,29.5z M175.8,29.5L175.8,29.5L175.8,29.5L175.8,29.5L175.8,29.5z M176,29.5L176,29.5
		L176,29.5L176,29.5L176,29.5z M176.1,29.5L176.1,29.5L176.1,29.5L176.1,29.5L176.1,29.5z M176.2,29.5L176.2,29.5L176.2,29.5
		L176.2,29.5L176.2,29.5z M176.3,29.5L176.3,29.5L176.3,29.5L176.3,29.5L176.3,29.5z M176.4,29.5L176.4,29.5L176.4,29.5L176.4,29.5
		L176.4,29.5z M176.5,29.5L176.5,29.5L176.5,29.5L176.5,29.5L176.5,29.5z M176.6,29.5L176.6,29.5L176.6,29.5L176.6,29.5L176.6,29.5z
		 M176.7,29.5L176.7,29.5L176.7,29.5L176.7,29.5L176.7,29.5L176.7,29.5L176.7,29.5z M177.4,29.5L177.4,29.5L177.4,29.5L177.4,29.5
		L177.4,29.5L177.4,29.5L177.4,29.5z M177.5,29.5L177.5,29.5L177.5,29.5L177.5,29.5L177.5,29.5z M177.6,29.4L177.6,29.4L177.6,29.4
		L177.6,29.4L177.6,29.4z M177.6,29.4L177.6,29.4L177.6,29.4L177.6,29.4L177.6,29.4z M177.6,29.4L177.6,29.4L177.6,29.4L177.6,29.4
		L177.6,29.4z M177.5,29.3L177.5,29.3C177.5,29.3,177.6,29.3,177.5,29.3L177.5,29.3L177.5,29.3z M177.5,29.3L177.5,29.3L177.5,29.3
		C177.4,29.3,177.4,29.3,177.5,29.3L177.5,29.3z M177.4,29.3L177.4,29.3L177.4,29.3C177.3,29.3,177.3,29.3,177.4,29.3L177.4,29.3z
		 M177.3,29.3L177.3,29.3L177.3,29.3C177.2,29.3,177.2,29.3,177.3,29.3L177.3,29.3z M177.1,29.3L177.1,29.3L177.1,29.3
		C177.1,29.3,177.1,29.3,177.1,29.3L177.1,29.3z M177,29.3L177,29.3L177,29.3C177,29.3,177,29.3,177,29.3L177,29.3z M176.9,29.3
		L176.9,29.3L176.9,29.3C176.9,29.3,176.9,29.3,176.9,29.3L176.9,29.3z M176.8,29.3L176.8,29.3L176.8,29.3
		C176.8,29.3,176.8,29.3,176.8,29.3L176.8,29.3z M176.7,29.3L176.7,29.3L176.7,29.3C176.6,29.3,176.7,29.3,176.7,29.3L176.7,29.3z
		 M176.6,29.3L176.6,29.3L176.6,29.3C176.5,29.3,176.6,29.3,176.6,29.3L176.6,29.3z M176.5,29.3L176.5,29.3L176.5,29.3
		C176.4,29.3,176.5,29.3,176.5,29.3L176.5,29.3z M176.4,29.3L176.4,29.3L176.4,29.3C176.3,29.3,176.3,29.3,176.4,29.3L176.4,29.3z
		 M176.3,29.3L176.3,29.3L176.3,29.3C176.2,29.3,176.2,29.3,176.3,29.3L176.3,29.3z M176.2,29.3L176.2,29.3L176.2,29.3
		C176.1,29.3,176.1,29.3,176.2,29.3L176.2,29.3z M176,29.3L176,29.3L176,29.3C176,29.3,176,29.3,176,29.3L176,29.3z M175.9,29.3
		L175.9,29.3L175.9,29.3C175.9,29.3,175.9,29.3,175.9,29.3L175.9,29.3z M175.8,29.3L175.8,29.3L175.8,29.3
		C175.8,29.3,175.8,29.3,175.8,29.3L175.8,29.3z M175.7,29.3L175.7,29.3L175.7,29.3C175.7,29.3,175.7,29.3,175.7,29.3L175.7,29.3z
		 M175.6,29.3L175.6,29.3L175.6,29.3C175.5,29.3,175.6,29.3,175.6,29.3L175.6,29.3z M175.5,29.3L175.5,29.3L175.5,29.3
		C175.4,29.3,175.5,29.3,175.5,29.3L175.5,29.3z M175.4,29.3L175.4,29.3L175.4,29.3C175.3,29.3,175.4,29.3,175.4,29.3L175.4,29.3z
		 M175.3,29.3L175.3,29.3L175.3,29.3C175.2,29.3,175.2,29.3,175.3,29.3L175.3,29.3z M175.2,29.3L175.2,29.3L175.2,29.3
		C175.1,29.3,175.1,29.3,175.2,29.3L175.2,29.3z M175.1,29.3L175.1,29.3L175.1,29.3C175,29.3,175,29.3,175.1,29.3L175.1,29.3z
		 M174.9,29.3L174.9,29.3L174.9,29.3C174.9,29.3,174.9,29.3,174.9,29.3L174.9,29.3z M174.8,29.3L174.8,29.3L174.8,29.3
		C174.8,29.3,174.8,29.3,174.8,29.3L174.8,29.3z M174.8,29.3L174.8,29.3L174.8,29.3L174.8,29.3L174.8,29.3z M174.7,29.4L174.7,29.4
		C174.6,29.4,174.6,29.4,174.7,29.4L174.7,29.4L174.7,29.4z M174.7,29.4L174.7,29.4L174.7,29.4C174.6,29.4,174.6,29.4,174.7,29.4
		L174.7,29.4z M174.7,29.5L174.7,29.5L174.7,29.5C174.6,29.5,174.6,29.5,174.7,29.5L174.7,29.5z M178.1,25.9L178.1,25.9L178.1,25.9
		L178.1,25.9L178.1,25.9z M178.1,25.9C178.1,25.9,178.1,25.9,178.1,25.9L178.1,25.9L178.1,25.9L178.1,25.9
		C178.1,25.9,178.1,25.9,178.1,25.9z M177.6,29.3L177.6,29.3L177.6,29.3C177.6,29.3,177.6,29.3,177.6,29.3L177.6,29.3z M174.7,29.3
		L174.7,29.3L174.7,29.3C174.6,29.3,174.6,29.3,174.7,29.3C174.6,29.3,174.7,29.3,174.7,29.3z"/>
	<path class="st0" d="M130,34.8L130,34.8l-0.1,5l0.5,1v25.8h-0.1v15.8h7V66.7h-0.1V40.9l0.5-1v-5H137v-0.6h-0.1v-0.1h-0.1v0.1h-0.2
		l0-0.2l0,0l0,0l0,0l0,0c0.1-0.1,0.1-0.1,0.1-0.2c0-0.1-0.2,0-0.3,0.1c-0.2,0.1-0.3,0.1-0.3,0.2c0,0.1,0.1,0.1,0.2,0l0,0l0,0l0,0
		l0,0l0,0l0,0.1h-0.1v0.2h-0.1v-0.1H136v0.5h-0.4v-0.2h-0.2V34h-0.5V34h-0.3V34h-0.9V34h-0.2V34h-0.1V34h-0.2V34h-0.2v0.7h-0.2v0.1
		h-1.3v0h-0.4v-0.2h-0.6l0-0.2l0,0l0,0l0,0l0,0c0.1,0.1,0.2,0.1,0.2,0.1c0.1,0,0-0.2-0.1-0.4c-0.1-0.2-0.2-0.3-0.3-0.2
		c-0.1,0,0,0.1,0,0.2l0,0l0,0l0,0l0,0l0,0l0,0l-0.1,0.2h0l-0.2,0.3H130L130,34.8L130,34.8L130,34.8z M130.5,34.5L130.5,34.5l0-0.2
		l0,0V34.5z M130.4,34.3L130.4,34.3l0,0.2h0L130.4,34.3z M130.5,34.5L130.5,34.5l0-0.2l0,0L130.5,34.5z M136.2,34.5v0.2h-0.1
		L136.2,34.5L136.2,34.5z M136.4,34.1l0,0.1h-0.1L136.4,34.1L136.4,34.1z M136.4,34.2L136.4,34.2L136.4,34.2L136.4,34.2L136.4,34.2z
		 M136.5,34.2L136.5,34.2l-0.1-0.1l0,0l0,0l0,0L136.5,34.2z M136.2,34.8L136.2,34.8l-0.1-0.1h0.1V34.8z"/>
	<polygon class="st0" points="250.5,28.9 250.6,28.9 250.6,29.5 250.9,29.5 250.9,28.9 251,28.9 251,29.5 254.8,29.5 254.8,32.3 
		254,32.3 254,32.3 253.3,32.3 253.3,38.5 253.5,39 253.5,46.5 253.6,46.5 253.6,50 255.4,50 255.4,82.4 246.6,82.4 246.6,50 
		248.4,50 248.4,46.5 248.5,46.5 248.5,41.4 248.7,40.8 248.7,32.3 248,32.3 248,32.3 247.3,32.3 247.3,29.5 250.5,29.5 	"/>
	<polygon class="st0" points="300.5,51.1 300.9,51.1 300.9,45.1 301.6,45.1 301.6,42.4 301.3,42.4 301.3,34.2 301.9,34.2 
		301.9,30.6 302.1,30.6 302.1,25 302.4,25 302.4,23 302.6,23 302.6,22.6 302.8,22.6 302.8,22.7 303.2,22.7 303.2,22.6 303.4,22.6 
		305.2,20.8 305.2,19.8 305.3,19.8 305.3,19.1 305.3,19.1 305.3,18.4 305.3,18.4 305.3,17.8 305.4,17.8 305.4,18.4 305.4,18.4 
		305.4,19.1 305.4,19.1 305.4,19.8 305.5,19.8 305.5,20.8 307.3,22.6 307.5,22.6 307.5,22.7 307.9,22.7 307.9,22.6 308.1,22.6 
		308.1,23 308.3,23 308.3,25 308.6,25 308.6,30.6 308.8,30.6 308.8,34.2 309.4,34.2 309.4,42.4 309.1,42.4 309.1,45.1 309.8,45.1 
		309.8,51.1 310.2,51.1 310.2,55.7 310.6,55.7 310.6,82.4 300.1,82.4 300.1,55.7 300.5,55.7 	"/>
	<path class="st0" d="M85.6,51.1L85.6,51.1l-0.4,0.1v8.4h-0.4v14.7h0.2v8.2h8.3v-8.2h0.2V59.6h-0.4v-8.4h-0.4v-0.1h-0.3v-2.4H86v2.4
		H85.6z M86.6,50.5l-0.2,0.2l-0.2-0.2C86.2,50.5,86.3,50.5,86.6,50.5z M87.2,50.5L87,50.8l-0.2-0.2C86.9,50.5,87,50.5,87.2,50.5z
		 M87.8,50.5l-0.2,0.2l-0.2-0.2C87.5,50.5,87.7,50.5,87.8,50.5z M88.5,50.5l-0.2,0.2L88,50.5C88.2,50.5,88.3,50.5,88.5,50.5z
		 M89.1,50.5l-0.2,0.2l-0.2-0.2C88.9,50.5,89,50.5,89.1,50.5z M89.7,50.5l-0.2,0.2l-0.2-0.2C89.3,50.5,89.5,50.5,89.7,50.5z
		 M90.4,50.5l-0.2,0.2l-0.2-0.2C90,50.5,90.2,50.5,90.4,50.5z M91,50.5l-0.2,0.2l-0.2-0.2C90.7,50.5,90.8,50.5,91,50.5z M91.6,50.5
		l-0.2,0.2l-0.2-0.2C91.3,50.5,91.5,50.5,91.6,50.5z M92.3,50.5L92,50.8l-0.2-0.2C92,50.5,92.2,50.5,92.3,50.5z M92.3,51l-0.3-0.2
		l0.3-0.2C92.3,50.6,92.3,50.8,92.3,51z M91.8,51.1l0.2-0.2l0.2,0.2H91.8z M91.7,50.6l0.2,0.2L91.7,51V50.6z M91.7,51l-0.2-0.2
		l0.2-0.2V51z M91.1,51.1l0.2-0.2l0.2,0.2H91.1z M91.1,50.6l0.2,0.2L91.1,51V50.6z M91,51l-0.2-0.2l0.2-0.2V51z M90.5,51.1l0.2-0.2
		l0.2,0.2H90.5z M90.5,50.6l0.2,0.2L90.5,51V50.6z M90.4,51l-0.2-0.2l0.2-0.2V51z M89.9,51.1l0.2-0.2l0.2,0.2H89.9z M89.8,50.6
		l0.2,0.2L89.8,51V50.6z M89.8,51l-0.2-0.2l0.2-0.2V51z M89.3,51.1l0.2-0.2l0.2,0.2H89.3z M89.2,50.6l0.2,0.2L89.2,51
		C89.2,50.8,89.2,50.6,89.2,50.6z M89.2,51l-0.2-0.2l0.2-0.2V51z M88.6,51.1l0.2-0.2l0.2,0.2H88.6z M88.6,50.6l0.2,0.2L88.6,51V50.6
		z M88.5,51l-0.2-0.2l0.2-0.2V51z M88,51.1l0.2-0.2l0.2,0.2H88z M87.9,50.6l0.2,0.2L87.9,51V50.6z M87.9,51l-0.2-0.2l0.2-0.2V51z
		 M87.4,51.1l0.2-0.2l0.2,0.2H87.4z M87.3,50.6l0.2,0.2L87.3,51V50.6z M87.3,51L87,50.8l0.2-0.2V51z M86.7,51.1l0.2-0.2l0.2,0.2
		H86.7z M86.7,50.6l0.2,0.2L86.7,51V50.6z M86.6,51l-0.2-0.2l0.2-0.2V51z M86.1,51.1l0.2-0.2l0.2,0.2H86.1z M86,50.6l0.2,0.2L86,51
		C86,50.8,86,50.6,86,50.6z"/>
	<path class="st0" d="M218.3,59.7v-1h-0.2V44.6h-0.8v-8.5H217v-1.8h0.2v-0.7H217v-1.2h-0.2v-0.7h-0.4v-0.4c0,0-0.4-0.3-0.7-0.3h-0.1
		c0,0,0-0.2-0.4-0.2c-0.1,0-0.1,0-0.2,0c0-0.2-0.2-0.4-0.4-0.4c-0.2,0-0.4,0.2-0.4,0.4c-0.2,0-0.4,0-0.6,0v-0.2h-0.1v0.2
		c-0.1,0-0.2,0-0.3,0v-0.2h-0.2v0.2c-0.2,0-0.3,0-0.3,0v1h-0.5v-0.3h-0.5v0.3l-0.6-0.2h-0.3v-0.4h-0.4v-0.1h-0.5v0.1h-0.7v0.5
		l-0.2,0.2c0,0-0.2-0.6-1-0.6v-0.3h-0.7V31h-0.8v0.4c-0.1,0-0.2,0-0.3,0v-0.2h-0.3v0.1h-0.4v0.1c-0.1,0-0.1,0-0.1,0v0.3h-0.4v0.8
		h-0.2v1.2h-0.2v0.7h0.2v1.8h-0.3v8.5h-0.8v14.1h-0.2v1l-0.2,0.2v22.6h15.3V59.9L218.3,59.7z"/>
	<path class="st0" d="M281.9,31.9v50.6h8V61.8h-0.5v-1.7h0.5v-0.3h-0.5v-1.7h0.5v-0.3h-0.5v-1.7h0.5v-0.3h-0.5v-1.7h0.5v-0.3h-0.5
		v-1.7h0.5v-0.3h-0.5v-1.7h0.5v-0.3h-0.5v-1.7h0.5v-0.3h-0.5v-1.7h0.5v-0.3h-0.5v-1.7h0.5v-0.3h-0.5v-1.7h0.5v-0.3h-0.5v-1.7h0.5
		v-0.3h-1.2h-0.5v-1.7h0.5v-0.3h-0.5v-1.7h0.5v-0.3h-0.5v-1.7h0.5v-0.3h-0.5v-1.7h0.5v-0.3h-2.5v-0.6h-0.7v0.6h-0.9v-0.8h-0.5v-0.3
		h-0.2v-0.4h-1.3v1.4H281.9z M287.2,33.9L287.2,33.9l-0.1-1.7h0.1V33.9z M287.2,35.9L287.2,35.9l-0.1-1.7h0.1V35.9z M287.2,37.9
		L287.2,37.9l-0.1-1.7h0.1V37.9z M287.2,38.2v0.5h-0.1L287.2,38.2L287.2,38.2z M287.6,39.5l0.1,0.1l-0.1,0.1V39.5z M287.6,39
		l0.1,0.1l-0.1,0.1V39z M287.6,38.4l0.1,0.1l-0.1,0.1V38.4z M287.6,37.4l0.1,0.1l-0.1,0.1V37.4z M287.6,36.8l0.1,0.1l-0.1,0.1V36.8z
		 M287.6,36.3l0.1,0.1l-0.1,0.1V36.3z M287.6,35.8L287.6,35.8L287.6,35.8L287.6,35.8z M287.6,35.3l0.1,0.1l-0.1,0.1V35.3z
		 M287.6,34.7l0.1,0.1l-0.1,0.1V34.7z M287.9,34.2l-0.1,0.1l-0.1-0.1H287.9z M287.8,33.9L287.8,33.9L287.8,33.9L287.8,33.9z
		 M287.7,33.9L287.7,33.9l-0.1-0.2L287.7,33.9L287.7,33.9z M287.7,34.3l-0.1,0.1v-0.3L287.7,34.3z M287.6,33.2l0.1,0.1l-0.1,0.1
		V33.2z M287.6,32.6l0.1,0.1l-0.1,0.1V32.6z M287.3,39.9v-0.1l0.1,0.1H287.3z M287.4,37.9h-0.1v-0.3L287.4,37.9L287.4,37.9z
		 M287.5,37.8L287.5,37.8L287.5,37.8L287.5,37.8z M287.5,36.2L287.5,36.2l-0.2,0.2v-0.2H287.5z M287.3,35.9v-0.4l0.2,0.2L287.3,35.9
		L287.3,35.9z M287.5,38.3l-0.2,0.2v-0.3h0.1L287.5,38.3z M287.3,38.6L287.3,38.6L287.3,38.6L287.3,38.6z M287.3,37.5V37l0.2,0.2
		L287.3,37.5z M287.3,36.9v-0.4l0.2,0.2L287.3,36.9z M287.3,35.4v-0.4l0.2,0.2L287.3,35.4z M287.3,34.8v-0.4l0.2,0.2L287.3,34.8z
		 M287.3,34.3v-0.1h0.1L287.3,34.3z M287.3,33.8v-0.4l0.2,0.2L287.3,33.8z M287.3,33.3v-0.4l0.2,0.2L287.3,33.3z M287.3,32.7v-0.4
		l0.2,0.2L287.3,32.7z M287.3,32.2L287.3,32.2L287.3,32.2L287.3,32.2z M287.6,32.4L287.6,32.4l-0.3-0.2l0.1-0.1h0.2V32.4z
		 M287.6,32.5L287.6,32.5L287.6,32.5L287.6,32.5z M287.6,32.9L287.6,32.9l-0.3-0.2l0.2-0.2l0.1,0.1V32.9z M287.6,33.1L287.6,33.1
		L287.6,33.1L287.6,33.1z M287.6,33.5L287.6,33.5l-0.3-0.2l0.2-0.2l0.1,0.1V33.5z M287.6,33.6L287.6,33.6L287.6,33.6L287.6,33.6z
		 M287.6,33.9h-0.3l0,0l0.2-0.2l0.1,0.1V33.9z M287.6,34.5L287.6,34.5l-0.3-0.2l0.2-0.2h0.1v0V34.5z M287.6,34.6L287.6,34.6
		L287.6,34.6L287.6,34.6z M287.6,35L287.6,35l-0.3-0.2l0.2-0.2l0.1,0.1V35z M287.6,35.2L287.6,35.2L287.6,35.2L287.6,35.2z
		 M287.6,35.6L287.6,35.6l-0.3-0.2l0.2-0.2l0.1,0.1V35.6z M287.6,35.7L287.6,35.7L287.6,35.7L287.6,35.7z M287.6,35.9h-0.2l0.2-0.2
		L287.6,35.9L287.6,35.9z M287.6,36.2L287.6,36.2L287.6,36.2L287.6,36.2L287.6,36.2z M287.6,36.6L287.6,36.6l-0.3-0.2l0.2-0.2
		l0.1,0.1V36.6z M287.6,36.7L287.6,36.7L287.6,36.7L287.6,36.7z M287.6,37.1L287.6,37.1l-0.3-0.2l0.2-0.2l0.1,0.1V37.1z M287.6,37.3
		L287.6,37.3L287.6,37.3L287.6,37.3z M287.6,37.7L287.6,37.7l-0.3-0.2l0.2-0.2l0.1,0.1V37.7z M287.6,37.8L287.6,37.8L287.6,37.8
		L287.6,37.8z M287.6,38.2L287.6,38.2l-0.1,0L287.6,38.2L287.6,38.2z M287.6,38.3L287.6,38.3L287.6,38.3L287.6,38.3z M287.6,38.7
		L287.6,38.7l-0.3-0.2l0.2-0.2l0.1,0.1V38.7z M287.5,38.8l-0.2,0.2v-0.3L287.5,38.8z M287.6,38.8L287.6,38.8L287.6,38.8L287.6,38.8z
		 M287.6,39.2L287.6,39.2l-0.3-0.1V39l0.2-0.2l0.1,0.1V39.2z M287.5,39.3l-0.2,0.2v-0.3L287.5,39.3z M287.6,39.4L287.6,39.4
		L287.6,39.4L287.6,39.4z M287.6,39.8L287.6,39.8l-0.3-0.1v-0.1l0.2-0.2l0.1,0.1V39.8z M287.6,39.9L287.6,39.9L287.6,39.9
		L287.6,39.9z M287.7,32.2L287.7,32.2l-0.1,0.2L287.7,32.2L287.7,32.2z M287.8,32.2L287.8,32.2L287.8,32.2L287.8,32.2z M287.9,32.4
		l-0.1-0.1l0.1-0.1h0.1V32.4z M287.9,32.6l-0.2,0.2l-0.2-0.2v-0.2l0.2-0.2l0.2,0.2V32.6z M287.9,32.9l-0.1-0.1l0.1-0.1V32.9z
		 M287.9,33.1l-0.2,0.2l-0.2-0.2v-0.2l0.2-0.2l0.2,0.2V33.1z M287.9,33.4l-0.1-0.1l0.1-0.1V33.4z M287.9,33.6l-0.2,0.2l-0.2-0.2
		v-0.2l0.2-0.2l0.2,0.2V33.6z M287.9,33.9L287.9,33.9l-0.1,0l0.1-0.1V33.9z M287.9,34.5l-0.1-0.1l0.1-0.1V34.5z M287.9,34.7
		l-0.2,0.2l-0.2-0.2v-0.2l0.2-0.2l0.2,0.2V34.7z M287.9,35l-0.1-0.1l0.1-0.1V35z M287.9,35.2l-0.2,0.2l-0.2-0.2v-0.2l0.2-0.2
		l0.2,0.2V35.2z M287.9,35.5l-0.1-0.1l0.1-0.1V35.5z M287.9,35.7l-0.1,0.1h-0.1l-0.1-0.1v-0.2l0.2-0.2l0.2,0.2V35.7z M287.9,35.9
		L287.9,35.9L287.9,35.9L287.9,35.9z M287.9,36.3l-0.2,0.2l-0.2-0.2v-0.1L287.9,36.3L287.9,36.3z M287.9,36.6l-0.1-0.1l0.1-0.1V36.6
		z M287.9,36.8l-0.2,0.2l-0.2-0.2v-0.2l0.2-0.2l0.2,0.2V36.8z M287.9,37.1l-0.1-0.1l0.1-0.1V37.1z M287.9,37.3l-0.2,0.2l-0.2-0.2
		v-0.2l0.2-0.2l0.2,0.2V37.3z M287.9,37.6l-0.1-0.1l0.1-0.1V37.6z M287.9,37.8L287.9,37.8l-0.3,0l0,0v-0.2l0.2-0.2l0.2,0.2V37.8z
		 M287.9,38.4l-0.2,0.2l-0.2-0.2v-0.2l0,0h0.2l0,0V38.4z M287.9,38.7l-0.1-0.1l0.1-0.1V38.7z M287.9,38.9l-0.2,0.2l-0.2-0.2v-0.2
		l0.2-0.2l0.2,0.2V38.9z M287.9,39.2l-0.1-0.1l0.1-0.1V39.2z M287.9,39.4l-0.2,0.2l-0.2-0.2v-0.2l0.2-0.2l0.2,0.2V39.4z M287.9,39.7
		l-0.1-0.1l0.1-0.1V39.7z M288.2,32.2L288.2,32.2l-0.2,0.3l-0.1-0.1v-0.2H288.2z M288,32.5l0.2,0.2L288,33l-0.1-0.1L288,32.5
		L288,32.5z M288,32.5L288,32.5L288,32.5L288,32.5z M288,33L288,33L288,33L288,33z M288,33.1l0.2,0.2l-0.2,0.2l-0.1-0.1L288,33.1
		L288,33.1z M288,33.6L288,33.6L288,33.6L288,33.6z M288,33.6l0.2,0.2l0,0H288L288,33.6L288,33.6z M288.1,34.2l0.2,0.2l-0.2,0.2
		l-0.1-0.1v-0.3H288.1z M288,34.6L288,34.6L288,34.6L288,34.6z M288,34.6l0.2,0.2l-0.2,0.2L288,35L288,34.6L288,34.6z M288,35.1
		L288,35.1L288,35.1L288,35.1z M288,35.2l0.2,0.2l-0.2,0.2l-0.1-0.1L288,35.2L288,35.2z M288,35.7L288,35.7L288,35.7L288,35.7z
		 M288,35.7l0.2,0.2H288L288,35.7L288,35.7z M288,36.2L288,36.2L288,36.2L288,36.2L288,36.2z M288,36.2l0.2,0.2l-0.2,0.2l-0.1-0.1
		L288,36.2L288,36.2z M288,36.7L288,36.7L288,36.7L288,36.7z M288,36.7l0.2,0.2l-0.2,0.2l-0.1-0.1L288,36.7L288,36.7z M288,37.2
		L288,37.2L288,37.2L288,37.2z M288,37.3l0.2,0.2l-0.2,0.2l-0.1-0.1L288,37.3L288,37.3z M288,37.8L288,37.8L288,37.8L288,37.8z
		 M288,37.8L288,37.8L288,37.8L288,37.8z M288.1,38.2L288.1,38.2l-0.1,0v0H288.1z M288,38.3L288,38.3L288,38.3L288,38.3z M288,38.3
		l0.2,0.2l-0.2,0.2l-0.1-0.1L288,38.3L288,38.3z M288,38.8L288,38.8L288,38.8L288,38.8z M288,38.8l0.2,0.2l-0.2,0.2l-0.1-0.1
		L288,38.8L288,38.8z M288,39.3L288,39.3L288,39.3L288,39.3z M288,39.4l0.2,0.2l-0.2,0.2l-0.1-0.1L288,39.4L288,39.4z M288.3,32.2
		L288.3,32.2L288.3,32.2L288.3,32.2z M288.3,32.7l-0.2-0.2l0.2-0.2V32.7z M288.3,33.3l-0.2-0.2l0.2-0.2V33.3z M288.3,33.8l-0.2-0.2
		l0.2-0.2V33.8z M288.3,33.9L288.3,33.9L288.3,33.9L288.3,33.9z M288.3,34.3l-0.1-0.1h0.1V34.3z M288.3,34.8l-0.2-0.2l0.2-0.2V34.8z
		 M288.3,35.4l-0.2-0.2l0.2-0.2V35.4z M288.3,35.9L288.3,35.9l-0.2-0.2l0.2-0.2V35.9z M288.3,36.4l-0.2-0.2l0,0h0.2V36.4z
		 M288.3,36.9l-0.2-0.2l0.2-0.2V36.9z M288.3,37.5l-0.2-0.2l0.2-0.2V37.5z M288.3,37.9h-0.1l-0.1-0.1l0.2-0.2V37.9z M288.3,38.5
		l-0.2-0.2l0.1-0.1h0.1V38.5z M288.3,39l-0.2-0.2l0.2-0.2V39z M288.3,39.6l-0.2-0.2l0.2-0.2V39.6z M288.3,39.9h-0.2l0.2-0.2V39.9z
		 M288,39.9L288,39.9L288,39.9L288,39.9z M287.6,39.9L287.6,39.9l0.2-0.2l0.2,0.2v0.1H287.6z"/>
	<path class="st0" d="M296.3,26.9L296.3,26.9l-0.1-0.1h0v0.1l-1.5-0.1v-0.1h-0.1v0h0v-0.1h0v-0.1h0v0h0.1v0h0.2v0l0,0v-0.1h-0.1l0,0
		l-1.1,0v0l0.1,0v0h-0.1v0l0.1,0v0h0v0l0.9,0v0h0v0.1h0v0.1h-0.1v0h-0.1v0l-1.1-0.1l-0.2,0.2l-0.2-0.1l-0.8-0.5v-0.2h0V26h0v-0.1h0
		v0l0.9,0v0h0v0l0.1,0v0h-0.1v0l0.1,0v0l-1.1,0l0,0h-0.1v0.1h0v0h0.2v0h0.1v0h0V26h0v0.1h-0.1l-0.7-0.4v-0.1h0v0.1l-0.1-0.1
		c0,0-0.6,4.2-0.7,6.6c0,2.4,0.1,19,0.1,19v31.2h6.3V27.2L296.3,26.9z"/>
	<path class="st0" d="M102.4,57.2v0.1h0.1v25h4.4v-25h0.1v-0.1h-0.3v-3.3h0l0,0v0h-0.9v-0.2h0.7c0,0,0,0,0,0c0,0,0,0,0,0
		c0,0,0,0,0,0l-1.7-2.2c0,0,0,0,0,0c0,0,0,0,0,0c0,0,0,0,0,0c0,0,0,0,0,0l0,0l0,0c0,0,0,0,0,0v0c0,0,0,0,0,0c0,0,0,0,0,0l-1.7,2.2
		c0,0,0,0,0,0c0,0,0,0,0,0c0,0,0,0,0,0h0.7v0.2h-0.9v0l0,0h0v3.3H102.4z M104.9,51.8C104.9,51.8,104.9,51.9,104.9,51.8L104.9,51.8
		C104.9,51.9,104.9,51.8,104.9,51.8z M105.1,52.1L105.1,52.1c-0.1-0.1-0.1-0.1-0.2-0.2h0L105.1,52.1z M104.4,51.9L104.4,51.9
		C104.4,51.9,104.4,51.8,104.4,51.9C104.4,51.8,104.4,51.9,104.4,51.9z M104.4,51.9c0,0.1-0.1,0.1-0.1,0.2h-0.1L104.4,51.9
		L104.4,51.9z M105,52.2c0,0.1,0.1,0.1,0.1,0.2h-0.1L105,52.2L105,52.2z M104.9,52.1L104.9,52.1C104.9,52.1,104.9,52.1,104.9,52.1
		L104.9,52.1z M104.4,52.1L104.4,52.1L104.4,52.1C104.4,52.1,104.4,52.1,104.4,52.1z M104.4,52.2v0.2h-0.1
		C104.3,52.3,104.3,52.2,104.4,52.2L104.4,52.2z M105.2,52.6L105.2,52.6l-0.2,0v-0.2h0.1C105.1,52.5,105.1,52.5,105.2,52.6z
		 M104.4,53.1v-0.2h0.2v0.2H104.4z M104.6,53.2L104.6,53.2l-0.2,0v0H104.6z M104.7,52.9h0.2v0.2h-0.2V52.9z M104.9,53.2L104.9,53.2
		l-0.2,0v0H104.9z M104.2,53.2L104.2,53.2l0.2,0v0H104.2z M104.2,53.1v-0.2h0.2v0.2H104.2z M104.1,53.1h-0.2c0-0.1,0.1-0.1,0.1-0.2
		h0.1V53.1z M104.1,52.9c0-0.1,0.1-0.1,0.1-0.2L104.1,52.9L104.1,52.9z M104.2,52.7h0.2v0.2h-0.2V52.7z M104.4,52.7h0.2v0.2h-0.2
		V52.7z M104.7,52.7h0.2v0.2h-0.2V52.7z M104.9,52.7h0.2v0.2h-0.2V52.7z M105.2,52.7c0,0.1,0.1,0.1,0.1,0.2h-0.1V52.7z M105.3,52.9
		c0,0.1,0.1,0.1,0.1,0.2h-0.2v-0.2H105.3z M105.2,53.1h-0.2v-0.2h0.2V53.1z M105.2,53.2L105.2,53.2l-0.2,0v0H105.2z M103.9,53.2
		L103.9,53.2l0.2,0v0H103.9z M104.3,52.4h0.1v0.2h-0.2v0C104.2,52.5,104.2,52.5,104.3,52.4z M104.4,52.4h0.2v0.2h-0.2V52.4z
		 M104.7,52.4h0.2v0.2h-0.2V52.4z M105.4,53.2h-0.2v0L105.4,53.2L105.4,53.2z M103.8,53.2L103.8,53.2L103.8,53.2L103.8,53.2
		C103.8,53.2,103.8,53.2,103.8,53.2z M103.8,53.1l0.1-0.2C103.9,53,103.9,53.1,103.8,53.1L103.8,53.1z M103.8,53.1h-0.1l0.1-0.2h0.1
		L103.8,53.1z M104.4,52.2h0.2v0.2h-0.2V52.2z M104.7,52.2h0.2v0.2h-0.2V52.2z M105.5,53.1L105.5,53.1c-0.1-0.1-0.1-0.1-0.1-0.2
		L105.5,53.1z M105.4,52.9h0.1l0.1,0.2h-0.1L105.4,52.9z M105.5,53.2L105.5,53.2L105.5,53.2C105.5,53.2,105.5,53.2,105.5,53.2
		L105.5,53.2z M103.7,53.2h-0.1l0,0L103.7,53.2L103.7,53.2z M103.5,53.2h-0.1l0,0L103.5,53.2L103.5,53.2z M103.5,53.1l0.1-0.2h0.1
		l-0.1,0.2H103.5z M103.6,52.9c0.1-0.1,0.1-0.1,0.2-0.2h0.1l-0.1,0.2H103.6z M103.9,52.7h0.1l-0.1,0.2h-0.1L103.9,52.7z M103.9,52.6
		l0.1-0.2h0.1c0,0.1-0.1,0.1-0.1,0.2l0,0H103.9z M104.1,52.4l0.1-0.2h0.1C104.2,52.2,104.2,52.3,104.1,52.4L104.1,52.4z M104.5,51.9
		h0.2v0.2h-0.2v-0.1C104.4,52,104.5,52,104.5,51.9z M104.7,51.9h0.2c0,0,0,0.1,0.1,0.1v0.1h-0.2V51.9z M105.1,52.2l0.1,0.2h-0.1
		C105.1,52.3,105.1,52.2,105.1,52.2L105.1,52.2z M105.3,52.4l0.1,0.2h-0.1l0,0c0-0.1-0.1-0.1-0.1-0.2H105.3z M105.4,52.7l0.1,0.2
		h-0.1l-0.1-0.2H105.4z M105.5,52.7L105.5,52.7c0.1,0.1,0.2,0.1,0.3,0.2h-0.1L105.5,52.7z M105.9,53.1h-0.1l-0.1-0.2h0.1L105.9,53.1
		z M105.9,53.2L105.9,53.2l-0.1,0l0,0H105.9z M105.7,53.2h-0.1l0,0L105.7,53.2L105.7,53.2z M103.7,53.4L103.7,53.4L103.7,53.4
		L103.7,53.4L103.7,53.4z M103.6,53.4h-0.1l0,0L103.6,53.4L103.6,53.4z M103.6,53.4l-0.1,0.2c0,0-0.1,0-0.1,0l0.1-0.2H103.6z
		 M103.3,53.6c0,0-0.1,0-0.1,0l0.1-0.2h0.1L103.3,53.6z M103.3,53.4L103.3,53.4l0.1,0l0,0H103.3z M103.3,53.4L103.3,53.4
		C103.2,53.4,103.2,53.4,103.3,53.4L103.3,53.4L103.3,53.4z M103.4,53.2C103.4,53.2,103.4,53.2,103.4,53.2L103.4,53.2L103.4,53.2
		L103.4,53.2z M103.8,52.6c0.1-0.1,0.1-0.1,0.2-0.2h0L103.8,52.6L103.8,52.6z M104,52.4c0.1-0.1,0.1-0.1,0.2-0.2h0L104,52.4
		L104,52.4z M104.6,51.7L104.6,51.7l0,0.2h-0.1C104.5,51.8,104.6,51.7,104.6,51.7z M104.7,51.7L104.7,51.7c0.1,0.1,0.1,0.1,0.1,0.2
		h-0.1V51.7z M105.2,52.2c0.1,0.1,0.1,0.1,0.2,0.2h0L105.2,52.2L105.2,52.2z M105.4,52.4c0.1,0.1,0.1,0.1,0.2,0.2h-0.1L105.4,52.4
		L105.4,52.4z M105.9,53.2C105.9,53.2,106,53.2,105.9,53.2L105.9,53.2L105.9,53.2L105.9,53.2z M106.1,53.3
		C106.1,53.4,106.1,53.4,106.1,53.3L106.1,53.3L106.1,53.3L106.1,53.3z M106,53.4h-0.1l0,0L106,53.4L106,53.4z M106,53.4l0.1,0.2
		c0,0-0.1,0-0.1,0l-0.1-0.2H106z M106,53.6c0,0-0.1,0-0.1,0l-0.1-0.2h0.1L106,53.6z M105.7,53.4L105.7,53.4l0.1,0l0,0H105.7z
		 M105.7,53.4L105.7,53.4L105.7,53.4L105.7,53.4L105.7,53.4z M103.6,53.6C103.6,53.6,103.6,53.6,103.6,53.6l0-0.2h0v0.1
		C103.6,53.5,103.6,53.6,103.6,53.6z M103.1,53.6c0,0,0.1-0.1,0.1-0.2h0L103.1,53.6C103.1,53.6,103.1,53.6,103.1,53.6z M104.6,51.6
		L104.6,51.6L104.6,51.6C104.6,51.6,104.6,51.6,104.6,51.6z M104.7,51.6L104.7,51.6L104.7,51.6C104.7,51.6,104.7,51.6,104.7,51.6z
		 M106.3,53.6C106.3,53.6,106.2,53.6,106.3,53.6l-0.2-0.2h0C106.2,53.5,106.2,53.6,106.3,53.6z M105.7,53.5L105.7,53.5L105.7,53.5
		l0.1,0.1c0,0-0.1,0-0.1,0C105.7,53.6,105.7,53.5,105.7,53.5z"/>
	<path class="st0" d="M116,39.3v43.2h6V38.3h-1.5v0.1h-0.1v0.3h-2.1v0h-0.5v0.5h-0.5v-0.1h-0.6v0.1H116z M121.6,38.4
		c0,0,0.2,0,0.3,0c0,0,0,0.7,0,1.8h-0.3V38.4z M117.9,39.7h-0.5v-0.4c0.2,0,0.4,0,0.5,0V39.7z M116.1,39.4c0,0,0.4,0,0.7,0v0.4h-0.3
		v1.1h-0.4C116.1,39.9,116.1,39.4,116.1,39.4z"/>
</g>
<g id="statue_of_liberty">
</g>
</svg>
