<?xml version="1.0" encoding="utf-8"?>
<!-- Generator: Adobe Illustrator 19.0.0, SVG Export Plug-In . SVG Version: 6.00 Build 0)  -->
<svg version="1.1" id="Layer_1" xmlns="http://www.w3.org/2000/svg" xmlns:xlink="http://www.w3.org/1999/xlink" x="0px" y="0px"
	 viewBox="-123 351.5 363.8 91.5" style="enable-background:new -123 351.5 363.8 91.5;" xml:space="preserve">
<style type="text/css">
	.st0{fill:#DEE6D5;}
</style>
<g id="ground">
</g>
<g id="new_york">
	<path class="st0" d="M83.6,431.4h0.2v-0.6h-0.2v-15.2h0.2V415h-0.2v-15.3h0.2v-1.6h-0.6v-0.2h-0.3v-0.1h-0.1v-0.1h-0.1v-0.2h-0.1
		v0.2h-0.1v0.1h-0.4v0.1h-0.3v-0.2h-0.3v0.2h-1v-0.3h0.1v-0.1h1.2v-2.6h-0.4v-0.2h-0.1v0.2h-0.8v-0.2h-0.1v0.2h-0.2v-1.1h-0.1v1.1
		h-0.5v-0.2h-0.1v0.2h-0.8v-0.2h-0.1v0.2h-0.8v-0.2h-0.1v0.2H77v-0.2h-0.1v0.2h-0.8v-0.2H76v0.2h-0.8v-0.2H75v0.2h-0.4v2.4h-0.4v0.5
		H74v0.2h-0.6v0.2h-0.6v1.6H73v15.3h-0.2v0.6H73V431h-0.2v0.6H73v1.6h-9.4v0.9H86v-0.9h-2.3L83.6,431.4L83.6,431.4z M77.9,397.9
		v-0.3h0.8v0.3H77.9z M77.8,397.6v0.3H77v-0.3H77.8z M78.8,397.9v-0.3h0.8v0.3H78.8z M76.9,397.6v0.3h-0.8v-0.3H76.9z M80.5,397.9
		h-0.8v-0.3h0.8V397.9z M74.8,397.4h1v0.1h0.1v0.3h-1v-0.2h-0.1V397.4z"/>
	<path class="st0" d="M-35.9,431.1v-15.7H-37v0.1h-0.5l-0.1-0.1h-0.3v-0.3h-0.3v-1.3h0.3v-1.7h-4v1.7h0.3v1.3h-0.3v0.3h-0.3l0,0.1
		h-0.5v-0.1h-1.1v15.7h-1.8v2.8h11.4v-2.8H-35.9z M-38.9,414.5h-0.5l0.3-0.3L-38.9,414.5z M-39.2,414.2l0.3-0.3v0.5L-39.2,414.2z
		 M-39.5,414.4v-0.5l0.3,0.3L-39.5,414.4z M-39.6,414.4l-0.3-0.3l0.3-0.3V414.4z M-39.6,414.5h-0.5l0.3-0.3L-39.6,414.5z
		 M-40.2,414.4v-0.5l0.3,0.3L-40.2,414.4z M-40.2,414.4l-0.3-0.3l0.3-0.3V414.4z M-40.3,414.5h-0.5l0.3-0.3L-40.3,414.5z
		 M-40.8,414.4v-0.5l0.3,0.3L-40.8,414.4z M-40.8,414.5h0.5l-0.3,0.3L-40.8,414.5z M-40.6,414.8l-0.3,0.3v-0.5L-40.6,414.8z
		 M-40.2,414.6v0.5l-0.3-0.3L-40.2,414.6z M-40.2,414.6l0.3,0.3l-0.3,0.3V414.6z M-40.1,414.5h0.5l-0.3,0.3L-40.1,414.5z
		 M-39.6,414.6v0.5l-0.3-0.3L-39.6,414.6z M-39.5,414.6l0.3,0.3l-0.3,0.3V414.6z M-39.5,414.5h0.5l-0.3,0.3L-39.5,414.5z
		 M-38.9,414.6v0.5l-0.3-0.3L-38.9,414.6z M-38.8,414.6l0.3,0.3l-0.3,0.3V414.6z M-38.8,414.5h0.5l-0.3,0.3L-38.8,414.5z
		 M-38.8,414.5l0.3-0.3l0.3,0.3H-38.8z M-38.8,414.4v-0.5l0.3,0.3L-38.8,414.4z M-38.8,413.9c0.2,0,0.4,0,0.5,0l-0.3,0.3
		L-38.8,413.9z M-39.2,414.1l-0.3-0.3c0.2,0,0.4,0,0.5,0L-39.2,414.1z M-39.9,414.1l-0.3-0.3c0.2,0,0.3,0,0.5,0L-39.9,414.1z
		 M-40.5,414.1l-0.3-0.3c0.2,0,0.3,0,0.5,0L-40.5,414.1z M-40.9,413.9v0.5l-0.3-0.3L-40.9,413.9z M-41.2,414.1l-0.3-0.3
		c0.1,0,0.3,0,0.5,0L-41.2,414.1z M-40.9,414.5h-0.5l0.3-0.3L-40.9,414.5z M-40.9,414.5l-0.3,0.3l-0.2-0.3H-40.9z M-40.9,414.6v0.5
		l-0.3-0.3L-40.9,414.6z M-40.9,415.1c-0.2,0-0.4,0-0.5,0l0.3-0.3L-40.9,415.1z M-40.5,414.9l0.3,0.3c-0.2,0-0.4,0-0.5,0
		L-40.5,414.9z M-39.9,414.9l0.3,0.3c-0.2,0-0.3,0-0.5,0L-39.9,414.9z M-39.2,414.9l0.3,0.3c-0.2,0-0.3,0-0.5,0L-39.2,414.9z
		 M-38.5,414.9l0.3,0.3c-0.1,0-0.3,0-0.5,0L-38.5,414.9z M-38.5,414.8l0.3-0.3c0,0.2,0,0.4,0,0.5L-38.5,414.8z M-38.5,414.2l0.3-0.3
		c0,0.1,0,0.3,0,0.5L-38.5,414.2z M-41.2,414.2l-0.3,0.3c0-0.2,0-0.4,0-0.5L-41.2,414.2z M-41.2,414.8l-0.3,0.3c0-0.1,0-0.3,0-0.5
		L-41.2,414.8z"/>
	<path class="st0" d="M187.1,401L187.1,401l-0.1-0.2h-1.4v-1.7h-0.1v-1H185v-0.5h0.5v-0.5H185V396l0,0v-2l0,0v-0.7h-0.2v-0.1
		c0-0.1-0.1-0.2-0.2-0.2h-0.4v-0.5h-0.3v-1.4h0.2v-0.2h0.8v-0.1h0.1v-1.1h-0.1v-0.1h-3.4v-0.3H179v-0.2h-0.2v-0.2l0,0v-0.2
		c0.4-0.1,0.7-0.5,0.7-0.7c0-0.1-0.4-0.2-0.8-0.2c-0.5,0-0.9,0.1-0.9,0.2c0,0.2,0.3,0.6,0.7,0.7v0.2l0,0v0.2h-0.9v-0.9h-0.4v-0.1
		h-0.8v0.1H176v0.4h-0.5v0.1h-0.1v-0.4H175v0.5h0.2v0.3h-0.6v0.4h-0.2v0.1h-0.8v0.1h-0.1v1.1h0.1v0.1h0.8v0.2h0.2v1h-0.3v0.2h-0.2
		v0.2h0.2v0.4h-0.2v0.2h0.2v0.4h-0.2v0.2h0.2v0.4h-0.2v0.2h0.2v0.1h-0.1l-2.9-1.6l-0.5-0.4v-0.2h0.2v-0.3h-0.2v-1h0.3v-0.2l0,0v-0.6
		h-3.9v0.6h0.1v0.2h0.3v0.1h-0.1v0.3h-0.2v1.2h0.2v1l-0.3,0.2H166v0.7l-0.4,0.2l0.1,0.1v3.3h-0.1v1h-0.1v1.7H164v0.2h-0.1v26.3h-0.1
		v6.6h23.4v-6.6h-0.1L187.1,401L187.1,401z M169.7,394.1l0.3-0.2h0.3l0.3,0.2v0.7l-0.3,0.2H170l-0.3-0.2V394.1z M170.1,392.7
		l0.4,0.1v0.8l-0.3,0.2H170l-0.3-0.2v-0.8L170.1,392.7z M169.3,394.8L169,395h-0.2v-1.8l0.2-0.1l0.3-0.1V394.8z M166,396.8h-0.2
		v-0.7h0.2V396.8z M166,396h-0.2v-0.6h0.2V396z M165.8,396.9h0.2v0.6h-0.2V396.9z M171.2,393l2.9,1.6l0.2,0.2L174,395h-2.9l-0.3-0.2
		V393H171.2z M169.7,391.8v-0.3h0.9v0.3H169.7z M168.7,391.3V391h-0.1v-0.1h0.5v0.4h0.1v0.2h0.1v0.3h-0.2v0.3h0.2v0.2l-0.5,0.4l0,0
		v-1.5L168.7,391.3L168.7,391.3z M166,395.3h-0.2v-0.5l0.2-0.1V395.3z M165.8,397.6h0.2v0.4h-0.2V397.6z"/>
	<path class="st0" d="M27.9,417.6h-0.8v16.3h11.2v-16.3h-0.8v-21.8h-0.2v-1.4h-0.8V392c0,0-2.8-3.3-3.3-3.8v-0.3h-0.1
		c0-0.6,0-2.3,0-2.3l-0.5-0.5v-5.7l0,0v-0.6h-0.3v0.6l0,0v5.7l-0.5,0.5c0,0,0,1.7,0,2.3h-0.1v0.3c-0.5,0.6-3.3,3.8-3.3,3.8v2.4h-0.8
		v1.4h-0.2v21.8H27.9z M33.1,385.9c0,0.1,0,0.2,0,0.4h-0.3v-0.4H33.1z M32.4,387.2h0.3v0.3h-0.3C32.4,387.4,32.4,387.3,32.4,387.2z
		 M32.4,386.5h0.3v0.4h-0.3C32.4,386.8,32.4,386.6,32.4,386.5z M32.4,385.9h0.3v0.4h-0.3C32.4,386.1,32.4,386,32.4,385.9z
		 M33.1,386.5c0,0.1,0,0.2,0,0.4h-0.3v-0.4H33.1z M33.1,387.2c0,0.1,0,0.3,0,0.4h-0.3v-0.4H33.1z M29,393.4c0-0.5,0-1.1,0-1.2
		l0.7-0.1v1h-0.2v0.2L29,393.4z M29.2,391.9c0.2-0.2,0.6-0.7,1-1.2v0.7h-0.1v0.5H29.2z M35.2,390.7c0.5,0.5,0.9,1,1.1,1.2l-1-0.1
		v-0.5h-0.1V390.7z M36.4,392.2c0,0.2,0,0.7,0,1.2l-0.6-0.1v-0.2h-0.2v-1L36.4,392.2z M29,394.4c0-0.2,0-0.5,0-0.9l0.3-0.1v0.9H29
		V394.4z M32.4,387.9v-0.1h0.3v0.1H32.4z M32.6,385.4v0.3h-0.2C32.5,385.6,32.6,385.5,32.6,385.4z M32.8,385.4
		c0.1,0.1,0.2,0.2,0.2,0.3h-0.2V385.4z M33.1,387.9h-0.3v-0.1h0.3C33.1,387.8,33.1,387.9,33.1,387.9z M36.4,394.4h-0.3v-0.9l0.3,0.1
		C36.4,393.9,36.4,394.2,36.4,394.4z"/>
	<path class="st0" d="M-92.5,426.7v-1.3l0,0h-0.6V424l0,0h-0.1c-0.1-1-0.9-1.8-1.9-1.9V422h-0.5v0.1c-1,0.1-1.8,0.9-1.9,1.9h-0.1
		l0,0v1.4h-0.6l0,0v1.3l-1.1,0.5v6.8h7.9v-6.8L-92.5,426.7z"/>
	<polygon class="st0" points="-67.4,433.9 -67.4,421.3 -67.1,421.2 -67.1,420.6 -65.9,420.6 -64.2,419.8 -64.2,419 -64.6,419 
		-61.9,414.2 -59.3,419 -59.7,419 -59.7,419.8 -58,420.6 -56.7,420.6 -56.7,421.2 -56.4,421.3 -56.4,433.9 	"/>
	<polygon class="st0" points="-27.2,426.8 -26.8,426.8 -26.8,411.2 -26.7,411.2 -26.7,410.9 -26.6,410.9 -26.6,398 -26.2,398 
		-26.2,397.7 -27.1,397.7 -27.1,395.7 -25.4,395.7 -25.4,394.3 -24.9,394.3 -24.9,392.9 -24.3,392.9 -24.3,391.5 -23.8,391.5 
		-23.8,390.1 -23.4,390.1 -23.4,387.8 -23.2,387.8 -23.2,390.1 -22.9,390.1 -22.9,391.5 -22.3,391.5 -22.3,392.9 -21.8,392.9 
		-21.8,394.3 -21.3,394.3 -21.3,395.7 -19.5,395.7 -19.5,397.7 -20.4,397.7 -20.4,398 -20,398 -20,410.9 -20,410.9 -20,411.2 
		-19.8,411.2 -19.8,426.8 -19.5,426.8 -19.5,427.9 -18.8,427.9 -18.8,433.9 -27.9,433.9 -27.9,427.9 -27.2,427.9 	"/>
	<path class="st0" d="M192.6,425.1H192v8.8h11.8v-8.8h-0.6V394h-0.6l-0.2-0.1l0,0v-0.8h0.1v-3.8h-5.3l0,0h-3.7l0,0h-0.1v3.8h0.1v1.5
		h-0.8L192.6,425.1L192.6,425.1z M196.4,393.3l-0.5,0.5v-0.7h0.2L196.4,393.3z M196.3,393.1h0.3l-0.2,0.2L196.3,393.1z M194.9,393.1
		l0.2,0.2l-0.5,0.5v-0.7H194.9z M194.7,394.6v-0.5l0.5,0.5l-0.1,0.1h-0.4V394.6z M195.4,394.6L195.4,394.6l0.4-0.5v0.5H195.4z
		 M194.8,393.9l0.5-0.5l0.5,0.5H194.8z M195.7,394l-0.5,0.5l-0.5-0.5H195.7z M195.1,393.1h0.3l-0.2,0.2L195.1,393.1z M195.6,393.1
		h0.2v0.7l-0.5-0.5L195.6,393.1z M196.4,393.4l0.5,0.5H196L196.4,393.4z M196.9,394l-0.5,0.5l-0.5-0.5H196.9z M196.4,394.5
		L196.4,394.5l-0.5,0.1v-0.5L196.4,394.5z M194.1,394.5l0.5-0.5v0.5H194.1L194.1,394.5z M194.1,394.4l-0.5-0.5h0.9L194.1,394.4z
		 M193.6,393.9l0.5-0.5l0.5,0.5H193.6z M194.1,393.3l0.2-0.2h0.2v0.7L194.1,393.3z M194.1,393.3l-0.2-0.2h0.3L194.1,393.3z
		 M197,393.1c0,0.2,0,0.4,0,0.7l-0.5-0.5l0.2-0.2H197z M197,394.6h-0.4l-0.1-0.1l0.5-0.5C197,394.3,197,394.4,197,394.6z
		 M193.5,394.6c0-0.2,0-0.3,0-0.5l0.5,0.4l-0.1,0.1H193.5z M193.5,393.1h0.2l0.2,0.2l-0.5,0.5C193.5,393.5,193.5,393.3,193.5,393.1z
		 M201.4,394.1l-0.2-0.2l0.5-0.5l0.5,0.5l0,0L201.4,394.1z M201.1,394.3V394l0.1,0.1h-0.1V394.3L201.1,394.3z M201.1,393.1h0.2
		l0.2,0.2l-0.5,0.5L201.1,393.1L201.1,393.1z M201.5,393.1h0.3l-0.2,0.2L201.5,393.1z M202.2,393.1v0.7l-0.5-0.5l0.2-0.2H202.2z
		 M198.7,394.6h-1.6v-1.5h3.9v1.2h-0.4v0.1h-1.7L198.7,394.6z"/>
	<path class="st0" d="M150.1,423.9h-0.2v10H160v-10h-0.2v-25.3h0.3v-3.9H160v-0.2h-1.3V394h0.9v-0.3h-0.2v-0.1h0.2v-0.1h-0.2l0,0
		h0.2v-0.1h-0.2v-0.1h0.2v-0.1h-0.2v-0.1h0.2V393h-0.2v-0.1h0.2v-0.1h-0.2v-0.1h0.2v-0.1h-0.2v-0.1h0.2l0,0h-0.2v-0.1h0.2v-0.1h-0.2
		v-0.1h0.2v-0.3h-1l-1.2-1.6v-0.1h0.1v-0.1h-0.1V390h0.1v-0.1h-0.1v-0.1h0.1v-0.1h-0.1v-0.1h0.1v-0.1h-0.1v-0.1h0.1v-0.1h-0.1v0.2
		h0.1v-0.1h-0.1v-0.1h0.1v-0.1h-0.1v-0.1h0.1V389h-0.1v-0.1h0.1v-0.1h-0.1v-0.1h0.1v-0.1h-0.1v-0.1h0.1v-0.1h-0.1v0.1h0.1v-0.1h-0.1
		v-0.1l0,0v-1.4l0,0V386h-0.1v0.9l0,0v1.4l0,0v0.1h-0.1v0.1h0.1v0.1h-0.1v0.1h0.1v0.1h-0.1v0.1h0.1v0.1h-0.1v0.1h0.1v0.1h-0.1v0.1
		h0.1v0.1h-0.1v0.1h0.1v0.1h-0.1v-0.1h0.1v0.1h-0.1v0.1h0.1v0.1h-0.1v0.1h0.1v0.1h-0.1v0.1h0.1v0.1h-0.1v0.1h0.1v0.1h-0.1v0.1h0.1
		v0.1l-1.2,1.6h-1v0.3h0.2v0.1H155v0.1h0.2v-0.2H155v0.1h0.2v0.1H155v0.1h0.2v0.1H155v0.1h0.2v0.1H155v0.1h0.2v0.1H155v0.1h0.2v0.1
		H155l0,0h0.2v0.1H155v0.1h0.2v0.1H155v0.3h0.9v0.4h-3.7v-0.6H152v0.6h-0.9v-0.3l-0.6,0.1v0.2H150v29.4H150.1z M158.3,392.2
		L158.3,392.2l-0.7,0.1v-0.1H158.3z M156.3,393.7L156.3,393.7l0.7-0.1v0.1H156.3z M157.1,391.9L157.1,391.9h0.2l0,0H157.1z
		 M157.1,391.8L157.1,391.8l0.1-0.1v0.1H157.1z M157.1,391.6L157.1,391.6l0.1-0.1v0.1H157.1z M157.2,391.1
		C157.2,391.1,157.2,391,157.2,391.1L157.2,391.1L157.2,391.1L157.2,391.1z M157.2,391.2L157.2,391.2L157.2,391.2L157.2,391.2
		L157.2,391.2z M157.2,390.9L157.2,390.9L157.2,390.9L157.2,390.9z M157.3,390.8C157.3,390.9,157.3,390.9,157.3,390.8L157.3,390.8
		L157.3,390.8z M157.4,391C157.4,391,157.4,391.1,157.4,391L157.4,391L157.4,391L157.4,391z M157.4,391.2L157.4,391.2L157.4,391.2
		L157.4,391.2L157.4,391.2z M157.4,391.4L157.4,391.4L157.4,391.4L157.4,391.4L157.4,391.4z M157.2,391.5L157.2,391.5
		C157.2,391.4,157.2,391.4,157.2,391.5L157.2,391.5L157.2,391.5z M157.1,391.6h-0.2v-0.1L157.1,391.6L157.1,391.6z M157,391.5
		C157,391.4,157,391.4,157,391.5l0.1-0.1v0.1H157z M157.1,391.3C157.1,391.2,157.1,391.2,157.1,391.3l0.1-0.1L157.1,391.3
		L157.1,391.3z M157.1,391.1C157.1,391.1,157.1,391,157.1,391.1L157.1,391.1L157.1,391.1L157.1,391.1z M157.2,390.9
		C157.2,390.9,157.2,390.8,157.2,390.9L157.2,390.9L157.2,390.9L157.2,390.9z M157.4,390.8C157.4,390.8,157.4,390.9,157.4,390.8
		L157.4,390.8L157.4,390.8L157.4,390.8z M157.4,391C157.4,391,157.5,391.1,157.4,391L157.4,391L157.4,391L157.4,391z M157.5,391.2
		L157.5,391.2L157.5,391.2L157.5,391.2L157.5,391.2z M157.6,391.4L157.6,391.4L157.6,391.4h-0.1H157.6z M157.6,391.5
		C157.6,391.6,157.6,391.6,157.6,391.5l-0.1,0.1v-0.1H157.6z M157.4,391.6h-0.1v-0.1L157.4,391.6L157.4,391.6z M157.5,391.7
		C157.5,391.8,157.5,391.8,157.5,391.7l-0.1,0.1v-0.1H157.5z M157.5,391.9L157.5,391.9h-0.2l0,0H157.5z M157.5,392.2L157.5,392.2
		l-0.4,0.1v-0.1H157.5z M157.5,392.4L157.5,392.4l-0.4,0.1v-0.1H157.5z M157.5,392.6L157.5,392.6l-0.4,0.1v-0.1H157.5z M157.5,392.7
		L157.5,392.7l-0.4,0.1v-0.1H157.5z M157.5,392.9L157.5,392.9l-0.4,0.1v-0.1H157.5z M157.5,393.1L157.5,393.1l-0.4,0.1v-0.1H157.5z
		 M157.5,393.3L157.5,393.3l-0.4,0.1v-0.1H157.5z M157.5,393.5L157.5,393.5l-0.4,0.1v-0.1H157.5z M157.5,393.7L157.5,393.7l-0.4,0.1
		v-0.1H157.5z M156.3,393.6L156.3,393.6l0.7-0.1v0.1H156.3z M156.3,393.4L156.3,393.4l0.7-0.1v0.1H156.3z M156.3,393.2L156.3,393.2
		l0.7-0.1v0.1H156.3z M156.3,393L156.3,393l0.7-0.1v0.1H156.3z M156.3,392.8L156.3,392.8l0.7-0.1v0.1H156.3z M156.3,392.7
		L156.3,392.7l0.7-0.1v0.1H156.3z M156.3,392.5L156.3,392.5l0.7-0.1v0.1H156.3z M156.3,392.3L156.3,392.3l0.7-0.1v0.1H156.3z
		 M156.8,391.9L156.8,391.9h0.2l0,0H156.8z M156.9,391.8L156.9,391.8l0.2-0.1v0.1H156.9z M156.8,391.8h-0.5c0,0,0-0.1,0.1-0.1
		L156.8,391.8L156.8,391.8z M156.4,391.6C156.5,391.6,156.5,391.6,156.4,391.6l0.4-0.1v0.1H156.4z M156.6,391.5
		C156.6,391.4,156.6,391.4,156.6,391.5l0.3-0.1v0.1H156.6z M156.7,391.3C156.7,391.2,156.8,391.2,156.7,391.3l0.2-0.1v0.1H156.7z
		 M156.9,391.1C156.9,391.1,156.9,391,156.9,391.1l0.2-0.1v0.1H156.9z M157,390.9C157,390.9,157.1,390.8,157,390.9L157,390.9
		L157,390.9L157,390.9z M157.5,390.8C157.5,390.8,157.5,390.9,157.5,390.8L157.5,390.8L157.5,390.8L157.5,390.8z M157.6,391
		C157.7,391,157.7,391.1,157.6,391L157.6,391h-0.1H157.6z M157.8,391.2L157.8,391.2l-0.2,0.1v-0.1H157.8z M157.9,391.4
		C157.9,391.4,158,391.4,157.9,391.4l-0.2,0.1v-0.1H157.9z M158.1,391.5C158.1,391.6,158.1,391.6,158.1,391.5l-0.3,0.1v-0.1H158.1z
		 M158.2,391.7C158.2,391.8,158.3,391.8,158.2,391.7l-0.4,0.1v-0.1H158.2z M157.7,391.8h-0.2v-0.1L157.7,391.8L157.7,391.8z
		 M157.7,391.9L157.7,391.9h-0.2l0,0H157.7z M158.3,392.4L158.3,392.4l-0.7,0.1v-0.1H158.3z M158.3,392.6L158.3,392.6l-0.7,0.1v-0.1
		H158.3z M158.3,392.7L158.3,392.7l-0.7,0.1v-0.1H158.3z M158.3,392.9L158.3,392.9l-0.7,0.1v-0.1H158.3z M158.3,393.1L158.3,393.1
		l-0.7,0.1v-0.1H158.3z M158.3,393.3L158.3,393.3l-0.7,0.1v-0.1H158.3z M158.3,393.5L158.3,393.5l-0.7,0.1v-0.1H158.3z M158.3,393.7
		L158.3,393.7l-0.7,0.1v-0.1H158.3z M157.5,394v0.5h-0.4V394H157.5z M156.1,394h0.8v0.5h-0.8V394z M155.3,393.7h0.4v0.1L155.3,393.7
		L155.3,393.7z M155.3,393.5h0.4v0.1L155.3,393.5L155.3,393.5z M155.3,393.3h0.4v0.1L155.3,393.3L155.3,393.3z M155.3,393.1h0.4v0.1
		L155.3,393.1L155.3,393.1z M155.3,392.9h0.4v0.1L155.3,392.9L155.3,392.9z M155.3,392.7h0.4v0.1L155.3,392.7L155.3,392.7z
		 M155.3,392.6h0.4v0.1L155.3,392.6L155.3,392.6z M155.3,392.4h0.4v0.1L155.3,392.4L155.3,392.4z M155.3,392.2h0.4v0.1L155.3,392.2
		L155.3,392.2z M156.2,391.9L156.2,391.9h0.5l0,0H156.2z M158.4,391.9h-0.5l0,0H158.4L158.4,391.9z M159.3,392.3h-0.4v-0.1
		L159.3,392.3L159.3,392.3z M159.3,392.5h-0.4v-0.1L159.3,392.5L159.3,392.5z M159.3,392.7h-0.4v-0.1L159.3,392.7L159.3,392.7z
		 M159.3,392.8h-0.4v-0.1L159.3,392.8L159.3,392.8z M159.3,393h-0.4v-0.1L159.3,393L159.3,393z M159.3,393.2h-0.4v-0.1L159.3,393.2
		L159.3,393.2z M159.3,393.4h-0.4v-0.1L159.3,393.4L159.3,393.4z M159.3,393.6h-0.4v-0.1L159.3,393.6L159.3,393.6z M159.3,393.7
		h-0.4v-0.1L159.3,393.7L159.3,393.7z M158.5,394.5h-0.8V394h0.8V394.5z"/>
	<path class="st0" d="M212.2,420.8v-10.4h0.1v-4.5h0.3v-4.1h0.3v-1.5h1.5v-1.6c-0.5-0.4-0.9-1.1-0.9-1.8c0-1.2,1-2.3,2.3-2.3
		c1.2,0,2.3,1,2.3,2.3c0,0.7-0.4,1.4-0.9,1.8v1.6h1.5v1.5h0.3v4.1h0.3v4.5h0.1v10.4h0.4v13.1h-8.1v-13.1H212.2z"/>
	<path class="st0" d="M41.5,415.3V414h0.4v-13.3l0.4-0.6v-8.3l0.3-0.5v-3.7c-0.4,0-0.7-0.1-0.7-0.2s0.3-0.1,0.7-0.2v-0.5
		c-0.4,0-0.7-0.1-0.7-0.2s0.3-0.1,0.7-0.2v-0.8h0.9v-1.7l2.9-4.2v-0.5c-0.2,0-0.4-0.1-0.4-0.1s0.2-0.1,0.4-0.1v-0.4
		c-0.2,0-0.4-0.1-0.4-0.1s0.2-0.1,0.4-0.1v-0.4c-0.2,0-0.4-0.1-0.4-0.1s0.2-0.1,0.4-0.1v-0.5c0-0.3,0.1-0.6,0.4-0.6l0.1-5.7l0.1,5.7
		c0.3,0,0.4,0.2,0.4,0.6v0.5c0.2,0,0.4,0.1,0.4,0.1s-0.2,0.1-0.4,0.1v0.4c0.2,0,0.4,0.1,0.4,0.1s-0.2,0.1-0.4,0.1v0.4
		c0.2,0,0.4,0.1,0.4,0.1s-0.2,0.1-0.4,0.1v0.5l2.9,4.2v1.7h0.9v1c0.4,0,0.7,0.1,0.7,0.2c0,0.1-0.3,0.1-0.7,0.2v0.5
		c0.4,0,0.7,0.1,0.7,0.2s-0.3,0.1-0.7,0.2v3.7l0.3,0.5v8.3l0.4,0.6v13.2h0.4v1.3h0.6v18.7h-12v-18.8H41.5z"/>
	<polygon class="st0" points="233.2,418.7 233.2,418.2 232.9,418.2 232.9,417.4 233,417.4 233,416.6 232.9,416.6 232.9,416.3 
		231.1,416.3 231.1,412.9 231.2,412.9 231.2,412.7 231.1,412.7 231.1,412.2 231,412.2 231,411.6 230.7,411.6 230.7,410.8 
		230.9,410.8 230.9,410.7 230.7,410.7 230.7,410.6 230.6,410.6 230.6,410.3 230.3,410.3 230.3,409.9 230.2,409.9 230.2,409.4 
		230.2,409.4 230.2,408.2 230.1,408.2 230.1,407.8 230,407.8 230,408.2 230,408.2 230,409.4 230,409.4 230,409.9 228.2,409.9 
		228.2,409.4 228.2,409.4 228.2,408.2 228.2,408.2 228.2,407.8 228,407.8 228,408.2 228,408.2 228,409.4 228,409.4 228,409.9 
		227.9,409.9 227.9,410.3 227.6,410.3 227.6,410.6 227.4,410.6 227.4,410.7 227.3,410.7 227.3,410.8 227.4,410.8 227.4,411.6 
		227.2,411.6 227.2,412.2 227.1,412.2 227.1,412.7 227,412.7 227,412.9 227.1,412.9 227.1,416.3 225.2,416.3 225.2,416.6 
		225.1,416.6 225.1,417.4 225.2,417.4 225.2,418.2 224.9,418.2 224.9,418.7 224.8,418.7 224.8,433.9 233.4,433.9 233.4,418.7 	"/>
	<polygon class="st0" points="125.3,433.9 125.3,428.8 128.5,428.8 128.5,384.9 129,384.9 129,379.3 129.5,379.3 129.5,376.8 
		137.2,379.5 137.2,406.4 137.7,406.4 137.7,428.8 138.1,428.8 138.1,433.9 	"/>
</g>
<g id="statue_of_liberty">
</g>
</svg>
