<?xml version="1.0" encoding="utf-8"?>
<!-- Generator: Adobe Illustrator 19.0.0, SVG Export Plug-In . SVG Version: 6.00 Build 0)  -->
<svg version="1.1" id="Layer_1" xmlns="http://www.w3.org/2000/svg" xmlns:xlink="http://www.w3.org/1999/xlink" x="0px" y="0px"
	 viewBox="-123 368.9 169.3 74.4" style="enable-background:new -123 368.9 169.3 74.4;" xml:space="preserve">
<style type="text/css">
	.st0{fill:#DEE6D5;}
</style>
<g id="ground">
</g>
<g id="new_york">
	<path class="st0" d="M42.9,440h0.2v-0.6h-0.2v-15.2h0.2v-0.6h-0.2v-15.3h0.2v-1.6h-0.6v-0.2h-0.3v-0.1h-0.1v-0.1H42v-0.2h-0.1v0.2
		h-0.1v0.1h-0.4v0.1h-0.3v-0.2h-0.3v0.2h-1v-0.3h0.1v-0.1h1.2v-2.6h-0.4v-0.2h-0.1v0.2h-0.8v-0.2h-0.1v0.2h-0.2v-1.1h-0.1v1.1h-0.5
		v-0.2h-0.1v0.2H38v-0.2h-0.1v0.2h-0.8v-0.2H37v0.2h-0.7v-0.2h-0.1v0.2h-0.8v-0.2h-0.1v0.2h-0.8v-0.2h-0.2v0.2h-0.4v2.4h-0.4v0.5
		h-0.2v0.2h-0.6v0.2h-0.6v1.6h0.2v15.3h-0.2v0.6h0.2v15.3h-0.2v0.6h0.2v1.6h-9.4v0.9h22.4v-0.9H43L42.9,440L42.9,440z M37.2,406.5
		v-0.3H38v0.3H37.2z M37.1,406.2v0.3h-0.8v-0.3H37.1z M38.1,406.5v-0.3h0.8v0.3H38.1z M36.2,406.2v0.3h-0.8v-0.3H36.2z M39.8,406.5
		H39v-0.3h0.8V406.5z M34.1,406h1v0.1h0.1v0.3h-1v-0.2h-0.1V406z"/>
	<path class="st0" d="M-59.6,440v-15.7h-1.1v0.1h-0.5l-0.1-0.1h-0.3V424h-0.3v-1.3h0.3V421h-4v1.7h0.3v1.3h-0.3v0.3h-0.3l0,0.1h-0.5
		v-0.1h-1.1V440h-1.8v2.8h11.4V440H-59.6z M-62.6,423.4h-0.5l0.3-0.3L-62.6,423.4z M-62.9,423.1l0.3-0.3v0.5L-62.9,423.1z
		 M-63.2,423.3v-0.5l0.3,0.3L-63.2,423.3z M-63.3,423.3l-0.3-0.3l0.3-0.3V423.3z M-63.3,423.4h-0.5l0.3-0.3L-63.3,423.4z
		 M-63.9,423.3v-0.5l0.3,0.3L-63.9,423.3z M-63.9,423.3l-0.3-0.3l0.3-0.3V423.3z M-64,423.4h-0.5l0.3-0.3L-64,423.4z M-64.5,423.3
		v-0.5l0.3,0.3L-64.5,423.3z M-64.5,423.4h0.5l-0.3,0.3L-64.5,423.4z M-64.3,423.7l-0.3,0.3v-0.5L-64.3,423.7z M-63.9,423.5v0.5
		l-0.3-0.3L-63.9,423.5z M-63.9,423.5l0.3,0.3l-0.3,0.3V423.5z M-63.8,423.4h0.5l-0.3,0.3L-63.8,423.4z M-63.3,423.5v0.5l-0.3-0.3
		L-63.3,423.5z M-63.2,423.5l0.3,0.3l-0.3,0.3V423.5z M-63.2,423.4h0.5l-0.3,0.3L-63.2,423.4z M-62.6,423.5v0.5l-0.3-0.3
		L-62.6,423.5z M-62.5,423.5l0.3,0.3l-0.3,0.3V423.5z M-62.5,423.4h0.5l-0.3,0.3L-62.5,423.4z M-62.5,423.4l0.3-0.3l0.3,0.3H-62.5z
		 M-62.5,423.3v-0.5l0.3,0.3L-62.5,423.3z M-62.5,422.8c0.2,0,0.4,0,0.5,0l-0.3,0.3L-62.5,422.8z M-62.9,423l-0.3-0.3
		c0.2,0,0.4,0,0.5,0L-62.9,423z M-63.6,423l-0.3-0.3c0.2,0,0.3,0,0.5,0L-63.6,423z M-64.2,423l-0.3-0.3c0.2,0,0.3,0,0.5,0L-64.2,423
		z M-64.6,422.8v0.5l-0.3-0.3L-64.6,422.8z M-64.9,423l-0.3-0.3c0.1,0,0.3,0,0.5,0L-64.9,423z M-64.6,423.4h-0.5l0.3-0.3
		L-64.6,423.4z M-64.6,423.4l-0.3,0.3l-0.2-0.3H-64.6z M-64.6,423.5v0.5l-0.3-0.3L-64.6,423.5z M-64.6,424c-0.2,0-0.4,0-0.5,0
		l0.3-0.3L-64.6,424z M-64.2,423.8l0.3,0.3c-0.2,0-0.4,0-0.5,0L-64.2,423.8z M-63.6,423.8l0.3,0.3c-0.2,0-0.3,0-0.5,0L-63.6,423.8z
		 M-62.9,423.8l0.3,0.3c-0.2,0-0.3,0-0.5,0L-62.9,423.8z M-62.2,423.8l0.3,0.3c-0.1,0-0.3,0-0.5,0L-62.2,423.8z M-62.2,423.7
		l0.3-0.3c0,0.2,0,0.4,0,0.5L-62.2,423.7z M-62.2,423.1l0.3-0.3c0,0.1,0,0.3,0,0.5L-62.2,423.1z M-64.9,423.1l-0.3,0.3
		c0-0.2,0-0.4,0-0.5L-64.9,423.1z M-64.9,423.7l-0.3,0.3c0-0.1,0-0.3,0-0.5L-64.9,423.7z"/>
	<path class="st0" d="M4.9,399.9L4.9,399.9l-0.1-0.3H3.1v-2.2H3v-1.3H2.4v-0.6H3v-0.6H2.4v-1.4l0,0v-2.6l0,0V390H2.2v-0.1
		c0-0.1-0.1-0.3-0.2-0.3H1.4v-0.6H1.1v-1.8h0.2v-0.3h1v-0.1h0.1v-1.4H2.3v-0.1h-4v-0.4h-3v-0.3H-5v-0.3l0,0V384
		c0.5-0.1,0.8-0.6,0.8-0.9c0-0.1-0.5-0.3-1-0.3c-0.6,0-1.1,0.1-1.1,0.3c0,0.3,0.4,0.8,0.8,0.9v0.3l0,0v0.3h-1.1v-1.2h-0.5v-0.1h-1
		v0.1h-0.5v0.5h-0.6v0.1H-9v-0.5h-0.5v0.6h0.2v0.4H-10v0.5h-0.2v0.1h-1v0.1h-0.1v1.4h0.1v0.1h1v0.3h0.2v1.3h-0.4v0.3h-0.2v0.3h0.2
		v0.5h-0.2v0.3h0.2v0.5h-0.2v0.3h0.2v0.5h-0.2v0.3h0.2v0.1h-0.1l-3.5-2.1l-0.6-0.5v-0.3h0.2v-0.4h-0.2v-1.3h0.4v-0.3l0,0v-0.8h-4.6
		v0.8h0.1v0.3h0.4v0.1h-0.1v0.4h-0.2v1.6h0.2v1.3l-0.4,0.3h-1.4v0.9l-0.5,0.3l0.1,0.1v4.3h-0.1v1.3h-0.1v2.2h-1.8v0.3h-0.1v34h-0.1
		v8.5H5v-8.5H4.9L4.9,399.9L4.9,399.9z M-15.8,391l0.4-0.3h0.4l0.4,0.3v0.9l-0.4,0.3h-0.4l-0.4-0.3V391z M-15.3,389.2l0.5,0.1v1
		l-0.4,0.3h-0.2l-0.4-0.3v-1L-15.3,389.2z M-16.3,391.9l-0.4,0.3h-0.2v-2.3l0.2-0.1l0.4-0.1V391.9z M-20.2,394.5h-0.2v-0.9h0.2
		V394.5z M-20.2,393.5h-0.2v-0.8h0.2V393.5z M-20.5,394.6h0.2v0.8h-0.2V394.6z M-14,389.6l3.5,2.1l0.2,0.3l-0.4,0.3h-3.5l-0.4-0.3
		v-2.3H-14z M-15.8,388v-0.4h1.1v0.4H-15.8z M-17,387.4V387h-0.1v-0.1h0.6v0.5h0.1v0.3h0.1v0.4h-0.2v0.4h0.2v0.3l-0.6,0.5l0,0v-1.9
		H-17V387.4z M-20.2,392.5h-0.2v-0.6l0.2-0.1V392.5z M-20.5,395.5h0.2v0.5h-0.2V395.5z"/>
	<path class="st0" d="M-12.8,426.2h-0.8v16.3h11.2v-16.3h-0.8v-21.8h-0.2V403h-0.8v-2.4c0,0-2.8-3.3-3.3-3.8v-0.3h-0.1
		c0-0.6,0-2.3,0-2.3l-0.5-0.5V388l0,0v-0.6h-0.3v0.6l0,0v5.7l-0.5,0.5c0,0,0,1.7,0,2.3H-9v0.3c-0.5,0.6-3.3,3.8-3.3,3.8v2.4h-0.8
		v1.4h-0.2v21.8H-12.8z M-7.6,394.5c0,0.1,0,0.2,0,0.4h-0.3v-0.4H-7.6z M-8.3,395.8H-8v0.3h-0.3C-8.3,396-8.3,395.9-8.3,395.8z
		 M-8.3,395.1H-8v0.4h-0.3C-8.3,395.4-8.3,395.2-8.3,395.1z M-8.3,394.5H-8v0.4h-0.3C-8.3,394.7-8.3,394.6-8.3,394.5z M-7.6,395.1
		c0,0.1,0,0.2,0,0.4h-0.3v-0.4H-7.6z M-7.6,395.8c0,0.1,0,0.3,0,0.4h-0.3v-0.4H-7.6z M-11.7,402c0-0.5,0-1.1,0-1.2l0.7-0.1v1h-0.2
		v0.2L-11.7,402z M-11.5,400.5c0.2-0.2,0.6-0.7,1-1.2v0.7h-0.1v0.5H-11.5z M-5.5,399.3c0.5,0.5,0.9,1,1.1,1.2l-1-0.1v-0.5h-0.1
		V399.3z M-4.3,400.8c0,0.2,0,0.7,0,1.2l-0.6-0.1v-0.2h-0.2v-1L-4.3,400.8z M-11.7,403c0-0.2,0-0.5,0-0.9l0.3-0.1v0.9h-0.3V403z
		 M-8.3,396.5v-0.1H-8v0.1H-8.3z M-8.1,394v0.3h-0.2C-8.2,394.2-8.1,394.1-8.1,394z M-7.9,394c0.1,0.1,0.2,0.2,0.2,0.3h-0.2V394z
		 M-7.6,396.5h-0.3v-0.1h0.3C-7.6,396.4-7.6,396.5-7.6,396.5z M-4.3,403h-0.3v-0.9l0.3,0.1C-4.3,402.5-4.3,402.8-4.3,403z"/>
	<path class="st0" d="M-116.2,435.6v-1.3l0,0h-0.6v-1.4l0,0h-0.1c-0.1-1-0.9-1.8-1.9-1.9v-0.1h-0.5v0.1c-1,0.1-1.8,0.9-1.9,1.9h-0.1
		l0,0v1.4h-0.6l0,0v1.3l-1.1,0.5v6.8h7.9v-6.8L-116.2,435.6z"/>
	<polygon class="st0" points="-91.1,442.8 -91.1,430.2 -90.8,430.1 -90.8,429.5 -89.6,429.5 -87.9,428.7 -87.9,427.9 -88.3,427.9 
		-85.6,423.1 -83,427.9 -83.4,427.9 -83.4,428.7 -81.7,429.5 -80.4,429.5 -80.4,430.1 -80.1,430.2 -80.1,442.8 	"/>
	<polygon class="st0" points="-47,436.3 -46.6,436.3 -46.6,420.6 -46.5,420.6 -46.5,420.3 -46.4,420.3 -46.4,407.4 -46,407.4 
		-46,407.1 -46.9,407.1 -46.9,405.1 -45.2,405.1 -45.2,403.8 -44.7,403.8 -44.7,402.3 -44.1,402.3 -44.1,400.9 -43.6,400.9 
		-43.6,399.5 -43.2,399.5 -43.2,397.3 -43,397.3 -43,399.5 -42.7,399.5 -42.7,400.9 -42.1,400.9 -42.1,402.3 -41.6,402.3 
		-41.6,403.8 -41.1,403.8 -41.1,405.1 -39.3,405.1 -39.3,407.1 -40.2,407.1 -40.2,407.4 -39.8,407.4 -39.8,420.3 -39.8,420.3 
		-39.8,420.6 -39.6,420.6 -39.6,436.3 -39.3,436.3 -39.3,437.3 -38.6,437.3 -38.6,443.3 -47.7,443.3 -47.7,437.3 -47,437.3 	"/>
	<path class="st0" d="M11.4,431.1h-0.7v11.4h14v-11.4h-0.7v-40.2h-0.7l-0.2-0.1l0,0v-1h0.1v-4.9h-6.3l0,0h-4.4l0,0h-0.1v4.9h0.1v1.9
		h-1v39.4H11.4z M16,390l-0.6,0.6v-0.9h0.2L16,390z M15.9,389.7h0.4L16,390L15.9,389.7z M14.2,389.7l0.2,0.3l-0.6,0.6v-0.9H14.2z
		 M14,391.6V391l0.6,0.6l-0.1,0.1H14V391.6z M14.8,391.6L14.8,391.6l0.5-0.6v0.6H14.8z M14.1,390.7l0.6-0.6l0.6,0.6H14.1z
		 M15.1,390.9l-0.6,0.6l-0.6-0.6H15.1z M14.4,389.7h0.4l-0.2,0.3L14.4,389.7z M15,389.7h0.2v0.9l-0.6-0.6L15,389.7z M16,390.1
		l0.6,0.6h-1.1L16,390.1z M16.6,390.9l-0.6,0.6l-0.6-0.6H16.6z M16,391.5L16,391.5l-0.6,0.1V391L16,391.5z M13.2,391.5l0.6-0.6v0.6
		H13.2L13.2,391.5z M13.2,391.4l-0.6-0.6h1.1L13.2,391.4z M12.6,390.7l0.6-0.6l0.6,0.6H12.6z M13.2,390l0.2-0.3h0.2v0.9L13.2,390z
		 M13.2,390l-0.2-0.3h0.4L13.2,390z M16.7,389.7c0,0.3,0,0.5,0,0.9l-0.6-0.6l0.2-0.3H16.7z M16.7,391.6h-0.5l-0.1-0.1l0.6-0.6
		C16.7,391.3,16.7,391.4,16.7,391.6z M12.5,391.6c0-0.3,0-0.4,0-0.6l0.6,0.5l-0.1,0.1H12.5z M12.5,389.7h0.2L13,390l-0.6,0.6
		C12.5,390.2,12.5,390,12.5,389.7z M21.9,391l-0.2-0.3l0.6-0.6l0.6,0.6l0,0L21.9,391z M21.6,391.3v-0.4l0.1,0.1h-0.1V391.3
		L21.6,391.3z M21.6,389.7h0.2L22,390l-0.6,0.6v-0.9H21.6z M22,389.7h0.4l-0.2,0.3L22,389.7z M22.9,389.7v0.9l-0.6-0.6l0.2-0.3H22.9
		z M18.7,391.6h-1.9v-1.9h4.6v1.6H21v0.1h-2L18.7,391.6z"/>
	<path class="st0" d="M-35.7,429.9h-0.2v12.9h12v-12.9h-0.2v-32.7h0.4v-5h-0.1v-0.3h-1.5v-0.6h1.1v-0.4h-0.2v-0.1h0.2v-0.1h-0.2l0,0
		h0.2v-0.1h-0.2v-0.1h0.2v-0.1h-0.2V390h0.2v-0.1h-0.2v-0.1h0.2v-0.1h-0.2v-0.1h0.2v-0.1h-0.2v-0.1h0.2v0h-0.2v-0.1h0.2V389h-0.2
		v-0.1h0.2v-0.4h-1.2l-1.4-2.1v-0.1h0.1v-0.1H-27V386h0.1v-0.1H-27v-0.1h0.1v-0.1H-27v-0.1h0.1v-0.1H-27v-0.1h0.1v-0.1H-27v0.3h0.1
		v-0.1H-27v-0.1h0.1V385H-27v-0.1h0.1v-0.1H-27v-0.1h0.1v-0.1H-27v-0.1h0.1v-0.1H-27v-0.1h0.1V384H-27v0.1h0.1V384H-27v-0.1l0,0V382
		l0,0v-1.2h-0.1v1.2l0,0v1.8l0,0v0.1h-0.1v0.1h0.1v0.1h-0.1v0.1h0.1v0.1h-0.1v0.1h0.1v0.1h-0.1v0.1h0.1v0.1h-0.1v0.1h0.1v0.1h-0.1
		v0.1h0.1v0.1h-0.1v-0.1h0.1v0.1h-0.1v0.1h0.1v0.1h-0.1v0.1h0.1v0.1h-0.1v0.1h0.1v0.1h-0.1v0.1h0.1v0.1h-0.1v0.1h0.1v0.1l-1.4,2.1
		h-1.2v0.4h0.2v0.1h-0.4v0.1h0.2v-0.3h-0.2v0.1h0.2v0.1h-0.2v0.1h0.2v0.1h-0.2v0.1h0.2v0.1h-0.2v0.1h0.2v0.1h-0.2v0.1h0.2v0.1h-0.2
		l0,0h0.2v0.1h-0.2v0.1h0.2v0.1h-0.2v0.4h1.1v0.5h-4.4v-0.8h-0.2v0.8h-1.1v-0.4l-0.7,0.1v0.3h-0.6v38H-35.7z M-25.9,388.9
		L-25.9,388.9l-0.8,0.1v-0.1H-25.9z M-28.3,390.8L-28.3,390.8l0.8-0.1v0.1H-28.3z M-27.4,388.5L-27.4,388.5h0.2l0,0H-27.4z
		 M-27.4,388.4L-27.4,388.4l0.1-0.1v0.1H-27.4z M-27.4,388.1L-27.4,388.1l0.1-0.1v0.1H-27.4z M-27.2,387.4
		C-27.2,387.4-27.2,387.3-27.2,387.4L-27.2,387.4L-27.2,387.4L-27.2,387.4z M-27.2,387.6L-27.2,387.6L-27.2,387.6L-27.2,387.6
		L-27.2,387.6z M-27.2,387.2L-27.2,387.2L-27.2,387.2L-27.2,387.2z M-27.1,387.1C-27.1,387.2-27.1,387.2-27.1,387.1L-27.1,387.1
		L-27.1,387.1z M-27,387.3C-27,387.3-27,387.4-27,387.3L-27,387.3L-27,387.3L-27,387.3z M-27,387.6L-27,387.6L-27,387.6L-27,387.6
		L-27,387.6z M-27,387.8L-27,387.8L-27,387.8L-27,387.8L-27,387.8z M-27.2,388L-27.2,388C-27.2,387.8-27.2,387.8-27.2,388L-27.2,388
		L-27.2,388z M-27.4,388.1h-0.2V388L-27.4,388.1L-27.4,388.1z M-27.5,388C-27.5,387.8-27.5,387.8-27.5,388l0.1-0.1v0.1H-27.5z
		 M-27.4,387.7C-27.4,387.6-27.4,387.6-27.4,387.7l0.1-0.1L-27.4,387.7L-27.4,387.7z M-27.4,387.4
		C-27.4,387.4-27.4,387.3-27.4,387.4L-27.4,387.4L-27.4,387.4L-27.4,387.4z M-27.2,387.2C-27.2,387.2-27.2,387.1-27.2,387.2
		L-27.2,387.2L-27.2,387.2L-27.2,387.2z M-27,387.1C-27,387.1-27,387.2-27,387.1L-27,387.1L-27,387.1L-27,387.1z M-27,387.3
		C-27,387.3-26.9,387.4-27,387.3L-27,387.3L-27,387.3L-27,387.3z M-26.9,387.6L-26.9,387.6L-26.9,387.6L-26.9,387.6L-26.9,387.6z
		 M-26.8,387.8L-26.8,387.8L-26.8,387.8h-0.1H-26.8z M-26.8,388C-26.8,388.1-26.8,388.1-26.8,388l-0.1,0.1V388H-26.8z M-27,388.1
		h-0.1V388L-27,388.1L-27,388.1z M-26.9,388.2C-26.9,388.4-26.9,388.4-26.9,388.2l-0.1,0.1v-0.1H-26.9z M-26.9,388.5L-26.9,388.5
		h-0.2l0,0H-26.9z M-26.9,388.9L-26.9,388.9l-0.5,0.1v-0.1H-26.9z M-26.9,389.1L-26.9,389.1l-0.5,0.1v-0.1H-26.9z M-26.9,389.4
		L-26.9,389.4l-0.5,0.1v-0.1H-26.9z M-26.9,389.5L-26.9,389.5l-0.5,0.1v-0.1H-26.9z M-26.9,389.8L-26.9,389.8l-0.5,0.1v-0.1H-26.9z
		 M-26.9,390L-26.9,390l-0.5,0.1V390H-26.9z M-26.9,390.3L-26.9,390.3l-0.5,0.1v-0.1H-26.9z M-26.9,390.5L-26.9,390.5l-0.5,0.1v-0.1
		H-26.9z M-26.9,390.8L-26.9,390.8l-0.5,0.1v-0.1H-26.9z M-28.3,390.7L-28.3,390.7l0.8-0.1v0.1H-28.3z M-28.3,390.4L-28.3,390.4
		l0.8-0.1v0.1H-28.3z M-28.3,390.2L-28.3,390.2l0.8-0.1v0.1H-28.3z M-28.3,389.9L-28.3,389.9l0.8-0.1v0.1H-28.3z M-28.3,389.6
		L-28.3,389.6l0.8-0.1v0.1H-28.3z M-28.3,389.5L-28.3,389.5l0.8-0.1v0.1H-28.3z M-28.3,389.3L-28.3,389.3l0.8-0.1v0.1H-28.3z
		 M-28.3,389L-28.3,389l0.8-0.1v0.1H-28.3z M-27.7,388.5L-27.7,388.5h0.2l0,0H-27.7z M-27.6,388.4L-27.6,388.4l0.2-0.1v0.1H-27.6z
		 M-27.7,388.4h-0.6c0,0,0-0.1,0.1-0.1L-27.7,388.4L-27.7,388.4z M-28.2,388.1C-28.1,388.1-28.1,388.1-28.2,388.1l0.5-0.1v0.1H-28.2
		z M-28,388C-28,387.8-28,387.8-28,388l0.4-0.1v0.1H-28z M-27.8,387.7C-27.8,387.6-27.7,387.6-27.8,387.7l0.2-0.1v0.1H-27.8z
		 M-27.6,387.4C-27.6,387.4-27.6,387.3-27.6,387.4l0.2-0.1v0.1H-27.6z M-27.5,387.2C-27.5,387.2-27.4,387.1-27.5,387.2L-27.5,387.2
		L-27.5,387.2L-27.5,387.2z M-26.9,387.1C-26.9,387.1-26.9,387.2-26.9,387.1L-26.9,387.1L-26.9,387.1L-26.9,387.1z M-26.8,387.3
		C-26.6,387.3-26.6,387.4-26.8,387.3L-26.8,387.3h-0.1H-26.8z M-26.5,387.6L-26.5,387.6l-0.2,0.1v-0.1H-26.5z M-26.4,387.8
		C-26.4,387.8-26.3,387.8-26.4,387.8l-0.2,0.1v-0.1H-26.4z M-26.2,388C-26.2,388.1-26.2,388.1-26.2,388l-0.4,0.1V388H-26.2z
		 M-26.1,388.2C-26.1,388.4-25.9,388.4-26.1,388.2l-0.5,0.1v-0.1H-26.1z M-26.6,388.4h-0.2v-0.1L-26.6,388.4L-26.6,388.4z
		 M-26.6,388.5L-26.6,388.5h-0.2l0,0H-26.6z M-25.9,389.1L-25.9,389.1l-0.8,0.1v-0.1H-25.9z M-25.9,389.4L-25.9,389.4l-0.8,0.1v-0.1
		H-25.9z M-25.9,389.5L-25.9,389.5l-0.8,0.1v-0.1H-25.9z M-25.9,389.8L-25.9,389.8l-0.8,0.1v-0.1H-25.9z M-25.9,390L-25.9,390
		l-0.8,0.1V390H-25.9z M-25.9,390.3L-25.9,390.3l-0.8,0.1v-0.1H-25.9z M-25.9,390.5L-25.9,390.5l-0.8,0.1v-0.1H-25.9z M-25.9,390.8
		L-25.9,390.8l-0.8,0.1v-0.1H-25.9z M-26.9,391.2v0.6h-0.5v-0.6H-26.9z M-28.6,391.2h1v0.6h-1V391.2z M-29.5,390.8h0.5v0.1
		L-29.5,390.8L-29.5,390.8z M-29.5,390.5h0.5v0.1L-29.5,390.5L-29.5,390.5z M-29.5,390.3h0.5v0.1L-29.5,390.3L-29.5,390.3z
		 M-29.5,390h0.5v0.1L-29.5,390L-29.5,390z M-29.5,389.8h0.5v0.1L-29.5,389.8L-29.5,389.8z M-29.5,389.5h0.5v0.1L-29.5,389.5
		L-29.5,389.5z M-29.5,389.4h0.5v0.1L-29.5,389.4L-29.5,389.4z M-29.5,389.1h0.5v0.1L-29.5,389.1L-29.5,389.1z M-29.5,388.9h0.5v0.1
		L-29.5,388.9L-29.5,388.9z M-28.4,388.5L-28.4,388.5h0.6l0,0H-28.4z M-25.8,388.5h-0.6l0,0H-25.8L-25.8,388.5z M-24.7,389h-0.5
		v-0.1L-24.7,389L-24.7,389z M-24.7,389.3h-0.5v-0.1L-24.7,389.3L-24.7,389.3z M-24.7,389.5h-0.5v-0.1L-24.7,389.5L-24.7,389.5z
		 M-24.7,389.6h-0.5v-0.1L-24.7,389.6L-24.7,389.6z M-24.7,389.9h-0.5v-0.1L-24.7,389.9L-24.7,389.9z M-24.7,390.2h-0.5V390
		L-24.7,390.2L-24.7,390.2z M-24.7,390.4h-0.5v-0.1L-24.7,390.4L-24.7,390.4z M-24.7,390.7h-0.5v-0.1L-24.7,390.7L-24.7,390.7z
		 M-24.7,390.8h-0.5v-0.1L-24.7,390.8L-24.7,390.8z M-25.7,391.8h-1v-0.6h1V391.8z"/>
	<path class="st0" d="M37.3,425.5v-13.5h0.1v-5.8h0.4V401h0.4V399h1.8v-2.1c-0.6-0.5-1.1-1.4-1.1-2.3c0-1.6,1.2-3,2.7-3
		c1.4,0,2.7,1.3,2.7,3c0,0.9-0.5,1.8-1.1,2.3v2.1H45v1.9h0.4v5.3h0.4v5.8h0.1v13.5h0.5v16.9h-9.6v-16.9H37.3z"/>
	<path class="st0" d="M-82.4,424.2v-1.3h0.4v-13.3l0.4-0.6v-8.3l0.3-0.5v-3.7c-0.4,0-0.7-0.1-0.7-0.2s0.3-0.1,0.7-0.2v-0.5
		c-0.4,0-0.7-0.1-0.7-0.2s0.3-0.1,0.7-0.2v-0.8h0.9v-1.7l2.9-4.2V388c-0.2,0-0.4-0.1-0.4-0.1s0.2-0.1,0.4-0.1v-0.4
		c-0.2,0-0.4-0.1-0.4-0.1s0.2-0.1,0.4-0.1v-0.4c-0.2,0-0.4-0.1-0.4-0.1s0.2-0.1,0.4-0.1v-0.5c0-0.3,0.1-0.6,0.4-0.6l0.1-5.7l0.1,5.7
		c0.3,0,0.4,0.2,0.4,0.6v0.5c0.2,0,0.4,0.1,0.4,0.1s-0.2,0.1-0.4,0.1v0.4c0.2,0,0.4,0.1,0.4,0.1s-0.2,0.1-0.4,0.1v0.4
		c0.2,0,0.4,0.1,0.4,0.1s-0.2,0.1-0.4,0.1v0.5l2.9,4.2v1.7h0.9v1c0.4,0,0.7,0.1,0.7,0.2s-0.3,0.1-0.7,0.2v0.5c0.4,0,0.7,0.1,0.7,0.2
		c0,0.1-0.3,0.1-0.7,0.2v3.7l0.3,0.5v8.3l0.4,0.6V423h0.4v1.3h0.6V443h-12v-18.8H-82.4z"/>
	<polygon class="st0" points="-47.9,422.8 -47.9,422.2 -48.3,422.2 -48.3,421.1 -48.1,421.1 -48.1,420.1 -48.3,420.1 -48.3,419.7 
		-50.4,419.7 -50.4,415.3 -50.3,415.3 -50.3,415.1 -50.4,415.1 -50.4,414.4 -50.5,414.4 -50.5,413.6 -50.9,413.6 -50.9,412.6 
		-50.6,412.6 -50.6,412.5 -50.9,412.5 -50.9,412.3 -51,412.3 -51,411.9 -51.4,411.9 -51.4,411.4 -51.5,411.4 -51.5,410.8 
		-51.5,410.8 -51.5,409.2 -51.6,409.2 -51.6,408.7 -51.7,408.7 -51.7,409.2 -51.7,409.2 -51.7,410.8 -51.7,410.8 -51.7,411.4 
		-53.9,411.4 -53.9,410.8 -53.9,410.8 -53.9,409.2 -53.9,409.2 -53.9,408.7 -54.1,408.7 -54.1,409.2 -54.1,409.2 -54.1,410.8 
		-54.1,410.8 -54.1,411.4 -54.2,411.4 -54.2,411.9 -54.6,411.9 -54.6,412.3 -54.8,412.3 -54.8,412.5 -54.9,412.5 -54.9,412.6 
		-54.8,412.6 -54.8,413.6 -55,413.6 -55,414.4 -55.2,414.4 -55.2,415.1 -55.3,415.1 -55.3,415.3 -55.2,415.3 -55.2,419.7 
		-57.4,419.7 -57.4,420.1 -57.5,420.1 -57.5,421.1 -57.4,421.1 -57.4,422.2 -57.8,422.2 -57.8,422.8 -57.9,422.8 -57.9,442.5 
		-47.7,442.5 -47.7,422.8 	"/>
	<polygon class="st0" points="22.9,442.8 22.9,436.2 26.7,436.2 26.7,379.4 27.3,379.4 27.3,372.2 27.9,372.2 27.9,368.9 37,372.4 
		37,407.2 37.6,407.2 37.6,436.2 38.1,436.2 38.1,442.8 	"/>
</g>
<g id="statue_of_liberty">
</g>
</svg>
