<?xml version="1.0" encoding="utf-8"?>
<!-- Generator: Adobe Illustrator 19.0.0, SVG Export Plug-In . SVG Version: 6.00 Build 0)  -->
<svg version="1.1" xmlns="http://www.w3.org/2000/svg" xmlns:xlink="http://www.w3.org/1999/xlink" x="0px" y="0px"
	 viewBox="0 0 363.8 91.5" style="enable-background:new 0 0 363.8 91.5;" xml:space="preserve">
<g id="ground">
	<rect y="82.4" width="363.8" height="9.1"/>
</g>
<g id="new_york">
	<polygon points="273.7,81.8 273.7,81.3 274.1,81.3 274.1,80.3 274.3,80.3 274.3,79.5 274.1,79.2 274.3,78.9 274.3,76.7 274.1,76.5 
		275.6,74.4 276.8,74.4 278.7,76.5 278.7,72.4 279.8,71 281,71 281.8,72 283,70.4 284.7,70.4 286.3,72.5 286.3,73.5 287,74.4 
		287,70 286.6,69.7 288.1,68.2 289.6,68.2 291,69.7 291,70.1 291.8,69.1 292.9,69.1 294.4,71.1 294.2,71.4 294.2,72.3 296.8,72.3 
		296.8,72 297.1,72 297.1,70.7 296.8,70.7 296.8,70.3 297.1,70.3 297.1,69.1 296.8,69.1 296.8,68.6 297.1,68.6 297.1,67.4 
		296.8,67.4 296.8,67 297.1,67 297.1,65.7 296.8,65.7 296.8,65.3 297.1,65.3 297.1,64 296.8,64 296.8,63.6 297.1,63.6 297.1,63.2 
		298.1,63.2 299.3,61.6 299.3,61.3 300.5,61.3 300.5,60.9 301.7,59.4 301.7,58.4 302.5,58.4 302.5,58.3 305.5,58.3 305.5,58.8 
		307,60.9 309.2,60.9 309.2,61.5 310.5,63.2 312,63.2 312,63.6 312.3,63.6 312.3,64 312,64 312,65.3 312.3,65.3 312.3,65.7 
		312,65.7 312,67 312.3,67 312.3,67.4 312,67.4 312,68.6 312.3,68.6 312.3,69.1 312,69.1 312,70.3 312.3,70.3 312.3,70.7 312,70.7 
		312,72 312.3,72 312.3,72.3 313.3,72.3 314,73.5 314.9,73.5 315.7,72.3 317.6,72.3 317.6,68.4 317.4,68.2 319,66.1 320.7,66.1 
		321.1,66.6 321.5,66.1 323.2,66.1 323.4,66.4 323.6,66.1 325.3,66.1 326.1,67.1 326.1,66.8 327.5,65.2 329.1,65.2 330.5,66.8 
		330.1,67.1 330.1,69.2 330.9,68.3 330.9,67.3 332.4,65.2 334.2,65.2 335.4,66.8 336.1,65.8 337.4,65.8 338.5,67.2 339.3,66.7 
		340.8,64.7 342,64.7 343.5,66.7 343.3,67 343.3,69.2 343.5,69.5 343.3,69.8 343.3,76.4 348.5,76.4 348.5,79.9 352.9,79.9 
		352.9,81.6 354.6,81.6 354.6,82.4 273,82.4 273,81.8 	"/>
	<polygon points="155.5,72.4 155.5,66.8 154,66.8 154,62.2 153.3,62.2 153.3,28 153.1,28 153.1,27.8 152.3,27.8 152.3,27.7 
		153.1,27.7 152.9,27.5 152.7,27.5 152.7,27.4 152.6,27.4 152.6,27.5 152,27.5 152,27.4 152,27.4 152,27.2 151.7,26.8 151.7,26.5 
		150.8,26.5 150.8,26.8 150.5,27.2 150.5,27.5 149.9,27.5 149.9,27.4 149.8,27.4 149.8,27.5 149.2,27.5 149.2,27.4 149.1,27.4 
		149.1,27.5 148.5,27.5 148.5,27.4 148.4,27.4 148.4,27.5 147.8,27.5 147.8,27.4 147.7,27.4 147.7,27.5 147.1,27.5 147.1,27.4 
		147,27.4 147,27.5 146.4,27.5 146.4,27.4 146.3,27.4 146.3,27.5 145.7,27.5 145.7,27.4 145.6,27.4 145.6,27.5 145,27.5 145,27.4 
		144.9,27.4 144.9,27.5 144.3,27.5 144.3,27.4 144.2,27.4 144.2,27.5 143.6,27.5 143.6,27.4 143.5,27.4 143.5,27.5 142.9,27.5 
		142.9,27.4 142.8,27.4 142.8,27.5 142.2,27.5 142.2,27.4 142.1,27.4 142.1,27.5 141.9,27.5 141.7,27.7 142.4,27.7 142.4,27.8 
		141.7,27.8 141.7,28 141.5,28 141.5,62.2 140.8,62.2 140.8,66.8 139.3,66.8 139.3,72.4 138.1,72.4 138.1,82.4 156.6,82.4 
		156.6,72.4 	"/>
	<polygon points="112.9,68.7 112.9,67.1 113.1,67.1 113.1,65.7 113.4,65.7 113.4,64.3 114.9,64.3 114.9,65.7 115.1,65.7 115.1,67.1 
		124.5,67.1 124.5,70.7 128.2,70.7 128.2,65.4 135.2,65.4 135.2,65.7 135.8,65.7 135.8,67.6 135.3,67.6 135.1,68.8 135.5,68.8 
		135.5,70.1 135,70.1 134.9,71.3 135.2,71.3 135.2,72.7 134.7,72.7 134.6,73.9 134.9,73.9 134.9,75.2 134.5,75.2 134.4,76.4 
		134.6,76.4 134.6,77.7 134.2,77.7 134.1,78.9 134.3,78.9 134.3,82.4 112.3,82.4 112.3,68.7 	"/>
	<path d="M192.2,78.3v-0.1h-1.6v-2.1h-0.2v-0.1h-1.2v-9.8L189,66h-1.4v-2.1h-0.3v-3h-0.2v-0.2h-0.8V27h-0.3v-5.1h-0.8v-3.1h-0.6V17
		l-0.5-0.1v-0.8H184V16h-0.6l-0.6-2.6h-0.4l-0.2-3.3l-0.1-2.3h0c0.1,0,0.3-0.1,0.3-0.3c0-0.1-0.1-0.3-0.3-0.3h0l0-0.9
		c0.1,0,0.1-0.1,0.1-0.2c0-0.1-0.1-0.2-0.1-0.2l-0.2-6h-0.3l-0.2,6c-0.1,0-0.1,0.1-0.1,0.2c0,0.1,0.1,0.2,0.1,0.2l0,0.9h0
		c-0.1,0-0.3,0.1-0.3,0.3c0,0.1,0.1,0.3,0.3,0.3h0l-0.1,2.3l-0.2,3.3h-0.4L180,16h-0.6v0.1h-0.2v0.8l-0.5,0.1v1.8H178v3.1h-0.8V27
		H177v33.7h-0.8v0.2H176v3h-0.3V66h-1.4l-0.3,0.2v9.8h-1.2v0.1h-0.2v2.1h-1.6v0.1H171v4.1h21.4v-4.1H192.2z"/>
	<path d="M284,82.4V81h-0.2V69h-0.3v0.1h-1.3v-4.7h-0.6v-0.3h-0.1v-0.3h0.1v-0.2h-0.4v-0.8h0.2V62h-0.9v-1.4h0.2c0,0,0-0.8,0-1
		c0-0.3-0.1-0.9-0.1-0.9h-0.1l0.2-0.9l-0.1-0.1l-0.6,0.8V41h-0.1v-0.8c0,0,0.1-0.6,0.1-0.7c0-0.1,0.1-0.3,0.1-0.3s0.2,0.1,0.3,0
		c0.1-0.1,0-0.4,0-0.4l0.2,0.1c0,0,0.1-0.1,0.1-0.2c0-0.1-0.2-0.3-0.5-0.3c-0.3,0-0.6,0-0.6,0v-4.7h-0.2v-0.1h-0.6l0-2.4l-0.2,0
		c0,0-0.1-1-0.1-1.4c0-0.4,0-1,0-1l-0.2,0l0-1.9l-0.2,0l-0.1,0.1c0-1.1,0-2.1,0-2.1s-0.3-0.1-0.3,0c0-0.9,0.1-2.6,0.1-2.6
		s-0.3-0.1-0.3,0c0-1,0-2.8,0-2.8h-0.3l0-1.9c0,0-0.3-0.1-0.4,0c-0.2-1.1-0.6-2-0.6-2V8h-0.3v7.5c0,0-0.4,1-0.6,2
		c-0.1-0.1-0.4,0-0.4,0l0,1.9h-0.3c0,0,0,1.8,0,2.8c0,0-0.3,0-0.3,0s0,1.6,0.1,2.6c0-0.1-0.3,0-0.3,0s0,0.9,0,2.1l-0.1-0.1l-0.2,0
		l0,1.9l-0.2,0c0,0,0,0.6,0,1c0,0.4-0.1,1.4-0.1,1.4l-0.2,0l0,2.4h-0.6v0.1h-0.2v4.7c0,0-0.3-0.1-0.6,0c-0.3,0-0.5,0.2-0.5,0.3
		c0,0.1,0.1,0.2,0.1,0.2l0.2-0.1c0,0-0.1,0.3,0,0.4c0.1,0.1,0.3,0,0.3,0s0.1,0.2,0.1,0.3c0,0.1,0.1,0.7,0.1,0.7V41h-0.1v17.5
		l-0.6-0.8l-0.1,0.1l0.2,0.9h-0.1c0,0-0.1,0.6-0.1,0.9c0,0.3,0,1,0,1h0.2V62H270v0.7h0.2v0.8h-0.4v0.2h0.1v0.3h-0.1v0.3h-0.6v4.7
		h-1.3V69h-0.3v12h-0.2v1.4H284z"/>
	<path d="M246.1,69.3v-0.1l-0.5-0.2l-0.1,0.1h-0.2V69l-4.8-1.6h-1.7v-0.3l0-0.2h-0.1v-0.7l0-0.2h-1.4v-0.6l0.1-0.1V65l0.1-0.1h-0.2
		v-0.4h-0.1v-0.1h-0.1v-3.3h0.1l0-0.1v-0.1H237v-0.2h0.1v-0.1h0v-0.1H237v-0.2h0.2v-0.1l0.1-0.2v-0.1H237v-0.1H237v-0.6h0.1V59h-0.9
		v-1.1h0.1l0,0v-0.1h-0.1v-0.1l0,0v-0.1h0v-0.2h0.2v-0.1h0v-0.1h0.1v-0.1h-0.2v0H236v-0.5h0v-0.1h-0.2v-0.2l0-0.1h0v-0.1h-0.1v-0.1
		l-0.1-0.1c0,0,0.1-2.2-1.2-3.4c-1-1-2-1.4-2-1.4s0-0.1,0.1-0.1c0,0,0.1-0.2,0.1-0.2h0v-0.6h0v-0.1h-0.1v-0.5h0c0,0,0,0,0,0
		c0,0,0,0,0,0h-0.5v-0.3h0v-0.1l0,0v0h-0.1v-0.1H232v-1.3h0v-0.1h0v-0.1h0v-0.1h0.1v0l0,0v0H232v0c0,0,0,0,0-0.1c0,0,0-0.1,0-0.1h0
		v0h0v-0.1c0,0-0.2-0.1-0.3-0.2c-0.1-0.1-0.1-0.3-0.1-0.3h0v-0.1h0c0,0,0-0.1,0-0.2c-0.1-0.1-0.2-0.1-0.2-0.1v0c0,0,0,0-0.1,0
		c0,0,0-0.1,0-0.1v0c0,0,0.1,0,0.1-0.1c0-0.1-0.1-0.1-0.1-0.1v-0.3c0,0,0,0,0,0c0,0,0,0,0,0v-0.1h-0.1v-0.2h0.1c0,0,0,0,0,0v0
		c0,0,0,0,0-0.1c0,0,0-0.1-0.1-0.1c0,0-0.1,0-0.1,0.1c0,0,0,0.1,0,0.1c0,0,0,0,0,0c0,0,0,0-0.1,0v-0.3h0v-0.1h0v0.1h0v0.3
		c0,0-0.1,0-0.1,0c0,0,0,0,0,0c0,0,0,0,0-0.1c0,0,0-0.1,0-0.1c0,0-0.1,0-0.1,0.1c0,0,0,0.1,0,0.1v0c0,0,0,0,0,0h0.1v0.2h-0.1v0.1
		c0,0,0,0,0,0c0,0,0,0,0,0v0.3c0,0-0.1,0.1-0.1,0.1c0,0.1,0.1,0.1,0.1,0.1v0c0,0,0,0.1,0,0.1c0,0-0.1,0-0.1,0v0c0,0-0.1,0-0.2,0.1
		c-0.1,0.1,0,0.2,0,0.2h0v0.1h0c0,0,0,0.1-0.1,0.3c-0.1,0.2-0.3,0.2-0.3,0.2v0.1h0v0h0c0,0,0,0.1,0,0.1c0,0.1,0,0.1,0,0.1v0h-0.1v0
		l0,0v0h0.1v0.1h0v0.1h0v0.1h0v1.3h-0.1v0.1h-0.1v0l0,0v0.1h0v0.3h-0.5c0,0,0,0,0,0c0,0,0,0,0,0h0v0.5h-0.1v0.1h0v0.6h0
		c0,0,0,0.1,0.1,0.2c0,0,0.1,0.1,0.1,0.1s-1,0.4-2,1.4c-1.3,1.2-1.2,3.4-1.2,3.4l-0.1,0.1v0.1h-0.1v0.1h0l0,0.1v0.2h-0.2v0.1h0v0.5
		h-0.2v0h-0.2v0.1h0.1v0.1h0v0.1h0.2v0.2h0v0.1l0,0v0.1h-0.1v0.1l0,0h0.1V59h-0.9v0.1h0.1v0.6h0v0.1h-0.4V60l0.1,0.2v0.1h0.2v0.2
		h-0.1v0.1h0v0.1h0.1v0.2h-0.2V61l0,0.1h0.1v3.3h-0.1v0.1h-0.1v0.4H225l0,0.1v0.2l0.1,0.1v0.6h-1.4l0,0.2v0.7h-0.1l0,0.2v0.3H222
		l-4.8,1.6v0.1H217l-0.1-0.1l-0.5,0.2v0.1h-0.1v0.1h0l0,0.1h0c0,0,0,0,0,0.1c0,0,0.1,0,0.1,0v0h0v0.3h0.2V70h0.2v0.3h0v0.1h0v0.7h0
		v0.1h0v0.6h0V72h0v5.2h-0.2v2.7h-0.2v2.6h29.3v-2.6h-0.2v-2.7h-0.2V72h0v-0.1h0v-0.6h0v-0.1h0v-0.7h0v-0.1h0V70h0.2v-0.1h0.2v-0.3
		h0v0c0,0,0.1,0,0.1,0c0,0,0-0.1,0-0.1h0L246.1,69.3L246.1,69.3L246.1,69.3L246.1,69.3z M232.5,49.7L232.5,49.7l0,0.5h0V49.7z
		 M232.4,49.7L232.4,49.7l0,0.5h0V49.7z M230,50.2L230,50.2l0-0.5h0V50.2z M230,50.2L230,50.2l0-0.5h0V50.2z M230.1,50.2L230.1,50.2
		l0-0.5h0V50.2z M230.2,50.2L230.2,50.2l0-0.5h0V50.2z M230.2,50.2L230.2,50.2l0-0.5h0V50.2z M230.3,50.2L230.3,50.2l0-0.5h0V50.2z
		 M230.3,50.2L230.3,50.2l0-0.5h0V50.2z M231.5,48.3v0.9h0v0h-0.6v0h0v-0.9l0,0v-0.2h0c0-0.2,0.1-0.3,0.3-0.3c0.2,0,0.3,0.1,0.3,0.3
		h0L231.5,48.3L231.5,48.3z M232.1,50.2L232.1,50.2l0-0.5h0V50.2z M232.2,50.2L232.2,50.2l0-0.5h0V50.2z M232.3,50.2L232.3,50.2
		l0-0.5h0V50.2z M232.3,50.2L232.3,50.2l0-0.5h0V50.2z M232.4,50.2L232.4,50.2l0-0.5h0V50.2z"/>
	<path d="M345.6,74.5v-1.8h-0.3v-0.3h0.3v-0.8h-0.2v-0.3h0.2V71h0.2v-0.3h1.9V71h0.2v0.2h0.2v0.3h-0.2v0.8h0.3v0.3h-0.3v1.8h0.4v0.2
		h0.3c0,0,0-0.4,0.5-0.9c0.5-0.5,1.7-0.3,1.7-0.3s0.1-0.1,0.1-0.3c0-0.2-0.3-0.7-0.3-0.7s0.5,0,0.5-0.4c0-0.4-0.4-1-0.4-1.2
		c0-0.2,0.1-0.4,0.4-0.4c0.3,0,0.3,0.2,0.3,0.2s0.1,0,0.2,0v-0.1c0,0,0.8,0,1.2-0.5c0.3-0.3,0.4-0.6,0.5-0.8c-0.1,0-0.2-0.1-0.2-0.2
		c0-0.1,0.1-0.2,0.2-0.2c0,0,0.1,0,0.1,0v-0.2h-0.1v-0.4h0.1v-0.4h0.2V67h-0.4v-0.2l0.4,0v-0.5h0.2v0.5l0.4,0V67h-0.4v0.9h0.2v0.4
		h0.1v0.4H354v0.2c0,0,0.1,0,0.1,0c0.1,0,0.2,0.1,0.2,0.2c0,0.1-0.1,0.2-0.2,0.2c0.1,0.2,0.2,0.5,0.5,0.8c0.5,0.5,1.2,0.5,1.2,0.5
		v0.1c0.1,0,0.2,0,0.2,0s0.1-0.2,0.3-0.2c0.3,0,0.4,0.2,0.4,0.4c0,0.2-0.4,0.8-0.4,1.2c0,0.4,0.5,0.4,0.5,0.4s-0.3,0.5-0.3,0.7
		c0,0.2,0.1,0.3,0.1,0.3s1.2-0.2,1.7,0.3c0.5,0.5,0.5,0.9,0.5,0.9h0.3v-0.2h0.4v-1.8h-0.3v-0.3h0.3v-0.8h-0.2v-0.3h0.2V71h0.2v-0.3
		h1.9V71h0.2v0.2h0.2v0.3h-0.2v0.8h0.3v0.3h-0.3v1.8h0.4V75h-0.4v7.4h-16.2V75h-0.4v-0.5H345.6z"/>
	<path d="M32.4,78.7v3.7h10.3v-3.7L42,78.2v-9.8l-0.2,1.5h-1l-0.1-0.5l-0.1,0.5h-1l-0.2-1.5v6.1l-2-1.5v-0.2c0,0,0.1,0,0.1-0.1h0.1
		v0h-0.1c0,0,0-0.1-0.1-0.1v-0.1h-0.1v0.1c0,0-0.1,0-0.1,0.1h-0.1v0h0.1c0,0,0,0.1,0.1,0.1V73l-1.9,1.5v-6.1l-0.2,1.5h-1l-0.1-0.5
		l-0.1,0.5h-1l-0.2-1.5v9.8L32.4,78.7z M37.5,72.7L37.5,72.7C37.5,72.7,37.5,72.7,37.5,72.7L37.5,72.7z M37.5,72.8
		C37.5,72.8,37.5,72.7,37.5,72.8L37.5,72.8L37.5,72.8z M34.5,71.8h-0.3c0,0,0,0,0-0.3c0-0.3,0.1-0.3,0.1-0.3s0.1,0,0.1,0.3
		C34.5,71.8,34.5,71.8,34.5,71.8z M37.6,72.7L37.6,72.7L37.6,72.7C37.6,72.7,37.6,72.7,37.6,72.7z M37.6,72.8L37.6,72.8L37.6,72.8
		C37.6,72.7,37.6,72.8,37.6,72.8z M40.9,71.8h-0.3c0,0,0,0,0-0.3c0-0.3,0.1-0.3,0.1-0.3s0.1,0,0.1,0.3
		C40.9,71.8,40.9,71.8,40.9,71.8z"/>
	<polygon points="57.4,79.1 56.9,79.1 59.8,76.4 59.8,74.2 62.3,70.6 62.8,70.6 62.8,68.7 62.6,68.7 62.6,68 62.8,68 62.8,67.5 
		63,67.5 63,68 63.2,68 63.2,67.5 63.4,67.5 63.4,68 63.6,68 63.6,67.5 63.8,67.5 63.8,68 64,68 64,68.7 63.8,68.7 63.8,70.6 
		69.6,70.6 72.2,74.2 72.2,82.1 72.6,82.1 72.6,82.4 56.9,82.4 56.9,82.1 57.4,82.1 	"/>
	<path d="M105.6,81.8v-1.1h0.6v-4h1l-7.1-5.6l-7.1,5.6h1v4h0.6v1.1c-0.5,0.1-0.9,0.3-1.2,0.6h13.5C106.5,82.1,106.1,81.9,105.6,81.8
		z"/>
	<polygon points="170.9,77.5 171.2,77.5 171.2,76.2 172.1,76.2 169.8,73.5 170.5,73.5 164.9,66.8 159.3,73.5 159.9,73.5 157.6,76.2 
		158.5,76.2 158.5,77.5 158.8,77.5 158.8,81.9 158.1,81.9 158.1,82.4 171.6,82.4 171.6,81.9 170.9,81.9 	"/>
	<path d="M134.5,78.4h0.5v0.3h-0.5v3.8h-6.9v-3.8h-0.5v-0.3h0.5v-3.3h-1.5l4.4-4.4v-1.2h0.1v-0.2h0.2v0.2h0.1v-0.2h0.2v0.2h0.1v-0.2
		h0.2v0.2h0.1v1.2l4.4,4.4h-1.5V78.4z M131.3,73.1c0-0.6-0.3-0.6-0.3-0.6s-0.3,0-0.3,0.6c0,0.6,0,0.6,0,0.6h0.5
		C131.3,73.6,131.3,73.6,131.3,73.1z"/>
	<path d="M84.5,76.2v6.2H73.8v-6.2l2.7-0.8V75h0.3v-0.8h0.4c0-1,0.9-1.4,1.9-1.4c1,0,1.9,0.4,1.9,1.4h0.4V75h0.3v0.4L84.5,76.2z"/>
	<polygon points="258.2,77.9 258.2,77 253.9,74.6 253.9,68.5 242.8,71.5 242.8,72.2 242.4,72.2 242.4,72.8 242.8,72.8 242.8,82 
		242.1,82 242.1,82.4 258.2,82.4 258.2,82 257.8,82 257.8,77.9 	"/>
	<polygon points="52.3,76.3 49,76.3 47.9,72.7 47.4,72.7 47.4,68.4 45.7,61.3 45.7,60.6 45.8,60.6 45.8,60.6 45.7,60.6 45.7,60.4 
		45.6,60.4 45.6,60.6 45.5,60.6 45.5,60.6 45.6,60.6 45.6,61.3 43.9,68.4 43.9,72.7 43.4,72.7 42.3,76.3 39,76.3 39,82.4 52.3,82.4 
			"/>
	<polygon points="212.2,50.8 212,50.8 212,42.1 211.6,42.1 211.6,33.7 211.2,33.7 211.2,25.2 209.7,24.8 204.4,24.8 202.8,25.2 
		202.8,33.7 202.4,33.7 202.4,42.1 202,42.1 202,50.8 201.8,50.8 201.8,59.6 201.5,59.6 201.5,82.4 212.5,82.4 212.5,59.6 
		212.2,59.6 	"/>
	<path d="M117,76.2v-8.8h-0.3v0.3h-0.3v-0.3h-0.3v0.3h-0.1l-1.1-2.5l-1.1,2.5h-0.1v-0.3h-0.3v0.3h-0.3v-0.3h-0.3V72h-0.3v-0.3h-0.3
		V72h-0.3v-0.3h-0.3V72h-0.3v-0.3h-0.3V72H110v-0.3h-0.3V72h-0.3v-0.3H109V72h-0.3v-4.5h-0.3v0.3H108v-0.3h-0.3v0.3h-0.1l-1.1-2.5
		l-1.1,2.5h-0.1v-0.3h-0.3v0.3h-0.3v-0.3h-0.3v8.8l-1.6,0.6v5.6h16.1v-5.6L117,76.2z M106.5,73.9h-0.2v-1.1h0.2V73.9z M106.5,69.7
		h-0.2v-1.1h0.2V69.7z M114.8,73.9h-0.2v-1.1h0.2V73.9z M114.8,69.7h-0.2v-1.1h0.2V69.7z"/>
</g>
<g id="statue_of_liberty">
	<path d="M54.6,82.4v-0.9H36v-2.3h-4.9v-0.8h-2.8v-0.6h-2.1v-3.3h-0.5v-1.7h-0.4l-0.2-9.1h0.3v-1.2h0.7v-1h0.5v-1h-3.9
		c0,0-1.5-1.6-1.5-8.3c0.5-0.5,0.9-0.8,1.2-1.5c0.2-0.7-0.2-4.2-0.3-5.4c0.4-1.2,0.7-3.9,0.3-5.3c0,0,1.6-2.3,0.2-4.7l-0.1-0.9
		c0,0,0.8-0.6,0.9-3.1c0.1-0.1,0.3-0.5,0.2-0.8c0,0,0.2-0.4,0.7-0.1c0.5,0.3,0-2.4-0.6-3.2c0,0,0.3-1.2,0.3-1.4c0,0,0.8-0.9,0.6-4.6
		l0.2,0.2c0,0-0.4,0.5,0.3,0.5c0.7,0,0.3-0.5,0.3-0.5s0.3-0.2,0.1-0.5c0.2-0.1,0.3-0.4,0.3-0.7h-0.2v-1c0,0,0.2,0,0.2-0.2
		c0-0.2-0.1-0.2-0.2-0.2c0.1,0,0.3,0,0.3-0.2c0-0.2-0.3-0.3-0.3-0.3v-0.1c0,0,0.3,0,0.3-0.3c0-0.2-0.3-0.2-0.3-0.2v-0.4
		c0,0,0.3,0,0.3-0.2c0-0.2-0.3-0.2-0.3-0.2v-0.2c0,0,0.9-0.2,0.9-0.6c0-0.2-0.2-0.2-0.2-0.2v-0.5c0,0-0.3-0.1-0.7-0.1V15
		c0,0,0.1,0,0.1-0.1c0-0.1-0.1-0.1-0.1-0.1s0.3-0.1,0.3-0.3c0-0.2-0.1-0.2-0.1-0.4c0-0.1,0.2-0.5,0.2-0.7c0-0.2-0.3-0.7-0.3-0.9
		c-0.1,0-0.1,0.3-0.2,0.3c-0.1,0-0.1-0.3-0.1-0.3s-0.3,0.1-0.2,0.3c-0.1,0-0.1-0.2-0.2-0.4c-0.1-0.2-0.3-0.3-0.3-0.3
		s-0.3,0.2-0.3,0.4c0,0.3,0.1,0.6,0.1,0.8c0,0.2-0.3,0.5-0.3,0.8c0,0.3,0.2,0.5,0.2,0.5s-0.1,0.1-0.1,0.2c0,0.1,0.1,0.1,0.1,0.1v0.3
		c-0.4,0-0.6,0.1-0.6,0.1V16c0,0-0.2,0-0.2,0.2c0,0.4,0.9,0.5,0.9,0.5v0.2c0,0-0.3,0.1-0.3,0.2c0,0.2,0.3,0.3,0.3,0.3v0.4
		c0,0-0.6,0.5-0.8,1.6c-0.5,1.2-0.6,2.4-0.6,2.4s-0.8,2.1-0.9,3.2l-1.4,0.2c0,0,0-0.1-0.1-0.2c-0.1-0.1-0.1-0.2-0.1-0.2l1.8-1.8
		l-2.1,1.5c0,0-0.1-0.1-0.2-0.1c-0.2,0-0.3,0-0.3,0l0.7-2.1l-1.2,2.1c0,0-0.2,0-0.4,0c-0.2,0-0.4,0.2-0.4,0.2L18,22.8l0,1.9
		c0,0-0.3,0-0.4,0.1c-0.2,0.1-0.3,0.2-0.3,0.2l-1.7-0.7l1.3,1.1c0,0-0.1,0.1-0.2,0.2c-0.1,0.1-0.1,0.2-0.1,0.2l-2.1,0.1l1.8,0.3
		c0,0,0,0.3,0,0.5c0,0.2,0,0.5,0,0.5l0.2,0v0.2c0,0-0.2,0.2-0.3,0.4c-0.1,0.3,0.1,0.5,0.1,0.8c0,0.3-0.3,0.4-0.2,0.5
		c0,0.2,0.2,0.3,0.2,0.3s-0.4,0.8-0.7,1c0,0-0.1,0-0.2,0c-0.1,0-0.1,0.1-0.1,0.1s-0.5,0.1-1.1,0.8c-0.6,0.7-0.9,2.2-1.1,2.6
		c-0.2,0.3-0.8,0.5-0.8,0.5l-0.3-0.6L12.1,34l-0.2-0.5l-0.8,0.3L10.1,35l0.2,0.4l-0.2,0.1l0.5,1.1c0,0-0.4,0.2-0.4,0.5
		c0,0.3,0.2,0.6,0.2,0.6s-0.1,0.5,0,0.7c0.1,0.3,0.5,0.6,0.5,0.6s0,0.2,0.1,0.5c0.1,0.3,0,1.6,0.4,2.2c0.4,0.6,0.9,1,1.4,1
		c0.5,0,1-0.4,1-0.4s-1,4.2-1.2,7.8c-0.2,0.1-0.3,0.3-0.3,0.5c0,0.2,0.3,0.3,0.3,0.3s-0.3,0.8-0.3,1.2c0,0.4,0.3,0.5,0.3,0.5
		s-0.2,1.1-0.1,1.5c0,0.4,0.3,0.5,0.3,0.5s-0.7,2-0.8,2.6c0,0.5,0.2,0.8,0.2,0.8s-0.6,2.3-1.3,2.6H6.6v1h0.5v1h0.7v1.2h0.3L8,72.8
		H7.6v1.7H7.1v3.3H5.8v0.6H2.9v0.8H2.4L2,82.4H54.6z M20.7,25.7c0-0.1,0.1-0.3,0.1-0.3l1.4-0.4c0,0,0,0.2-0.1,0.3
		c0,0.1-0.1,0.1-0.2,0.2c-0.1,0.1-0.3,0.3-0.3,0.3h-1.1C20.6,25.9,20.7,25.8,20.7,25.7z M20.2,27.4c0,0,0.3,0.2,0.4,0.1
		c0.1-0.1,0-0.7,0-0.7l0.1-0.2l0-0.3l1,0c0,0-0.1,0.1-0.2,0.3c-0.1,0.2,0,0.4-0.1,0.5c0,0.1-0.1-0.1-0.2,0.1c0,0.2,0.1,0.2,0,0.4
		c-0.1,0.2-0.3,0.5-0.4,0.7C20.7,28.2,20.1,27.4,20.2,27.4L20.2,27.4z M20.2,29.1c0.1-0.1,0.2-0.3,0.2-0.5c0-0.1-0.1-0.4-0.1-0.4
		s0.1,0.1,0.1,0.2c0.1,0.1,0.1,0.1,0.1,0.1s0,0.1,0,0.2c0,0.1-0.1,0.1-0.2,0.2c-0.1,0.1-0.1,0.2-0.2,0.4c-0.1,0.1-0.4,0.3-0.4,0.3
		l0-0.2C19.7,29.5,20.1,29.2,20.2,29.1z M16.9,29.8c0.1-0.3,0.2-0.6,0.2-0.6h0.1c0,0,0.1,0.3,0,0.6c0,0.3-0.2,0.5-0.3,0.6
		c-0.1,0.1-0.3,0-0.3,0S16.8,30.1,16.9,29.8z"/>
</g>
</svg>
