<?xml version="1.0" encoding="utf-8"?>
<!-- Generator: Adobe Illustrator 19.0.0, SVG Export Plug-In . SVG Version: 6.00 Build 0)  -->
<svg version="1.1" id="Layer_1" xmlns="http://www.w3.org/2000/svg" xmlns:xlink="http://www.w3.org/1999/xlink" x="0px" y="0px"
	 viewBox="-123 351.5 363.8 91.5" style="enable-background:new -123 351.5 363.8 91.5;" xml:space="preserve">
<style type="text/css">
	.st0{fill:#515C46;}
</style>
<g id="ground">
</g>
<g id="new_york">
	<polygon class="st0" points="134.3,433.2 134.3,433.9 118.5,433.9 118.5,433.2 119.1,433.2 119.1,432.4 120.1,432.4 120.1,376.7 
		120.6,376.7 121,369.2 121.3,376.7 121.9,376.7 121.9,381.9 130.2,386.3 130.2,387.1 131.7,387.1 131.7,387.6 132.6,387.8 
		132.6,432.4 133.6,432.4 133.6,433.2 	"/>
	<path class="st0" d="M32.9,433.9V430H33v-0.4h-0.1v-1.1H33v-0.4h-0.1v-0.4h0.7v-0.5h-2.1V419h0.1v-0.3h-4v-3.3H7.4v3.3h-4v0.3h0.1
		v8.2H1.4v0.5h0.7v0.4H2v0.4h0.1v1.1H2v0.4h0.1v3.9H32.9z M10.7,418.5L10.7,418.5v-0.2C10.7,418.4,10.7,418.4,10.7,418.5z
		 M10.7,418.5h-0.2H10.7L10.7,418.5z M10.4,418.5L10.4,418.5l-0.1-0.1l0.1-0.1l0.1,0.1L10.4,418.5z M10.3,418.5h-0.2H10.3
		L10.3,418.5z M10.1,418.5v-0.2V418.5L10.1,418.5z M10.1,418.5L10.1,418.5v-0.2V418.5z M10,418.5H9.8H10L10,418.5z M8.1,418.6h0.2
		l-0.1,0.1L8.1,418.6z M8.2,418.7L8.2,418.7L8.2,418.7L8.2,418.7z M8.4,418.6l0.1,0.1l-0.1,0.1l-0.1-0.1L8.4,418.6z M8.5,418.6h0.2
		H8.5L8.5,418.6z M8.7,418.6v0.2V418.6L8.7,418.6z M8.8,418.6L8.8,418.6v0.2V418.6z M8.8,418.6H9l-0.1,0.1L8.8,418.6z M9.1,418.6
		l0.1,0.1l-0.1,0.1L9,418.7L9.1,418.6z M9.2,418.6h0.2H9.2L9.2,418.6z M9.4,418.6v0.2V418.6L9.4,418.6z M9.5,418.6L9.5,418.6v0.2
		V418.6z M9.5,418.6h0.2l-0.1,0.1L9.5,418.6z M9.8,418.5L9.8,418.5l-0.1-0.1l0.1-0.1l0.1,0.1L9.8,418.5z M9.7,418.5H9.5H9.7
		L9.7,418.5z M9.5,418.5v-0.2V418.5L9.5,418.5z M9.4,418.5L9.4,418.5v-0.2V418.5z M9.3,418.5H9.1H9.3L9.3,418.5z M9.1,418.5
		L9.1,418.5L9,418.4l0.1-0.1l0.1,0.1L9.1,418.5z M9,418.5H8.8H9L9,418.5z M8.8,418.5v-0.2V418.5L8.8,418.5z M8.7,418.5L8.7,418.5
		v-0.2V418.5z M8.7,418.5H8.5H8.7L8.7,418.5z M8.4,418.5L8.4,418.5l-0.1-0.1l0.1-0.1l0.1,0.1L8.4,418.5z M8.3,418.5H8.1H8.3
		L8.3,418.5z M8.1,418.5v-0.2V418.5L8.1,418.5z M8.3,418.8L8.3,418.8L8.3,418.8L8.3,418.8z M8.6,418.8l0.1,0.1H8.5L8.6,418.8z
		 M8.9,418.8L8.9,418.8L8.9,418.8L8.9,418.8z M9.2,418.8l0.1,0.1H9.1L9.2,418.8z M9.6,418.8L9.6,418.8L9.6,418.8L9.6,418.8z
		 M9.6,418.7l0.1-0.1l0.1,0.1l-0.1,0.1L9.6,418.7z M9.8,418.6H10H9.8L9.8,418.6z M10.1,418.6v0.2V418.6L10.1,418.6z M10.1,418.6
		L10.1,418.6v0.2V418.6z M10.2,418.6h0.2l-0.1,0.1L10.2,418.6z M10.4,418.6l0.1,0.1l-0.1,0.1l-0.1-0.1L10.4,418.6z M10.5,418.6h0.2
		H10.5L10.5,418.6z M10.7,418.6c0,0.1,0,0.1,0,0.2V418.6L10.7,418.6z M10.8,418.3L10.8,418.3v0.2V418.3z M10.8,418.3H11H10.8
		L10.8,418.3z M10.6,418.4L10.6,418.4L10.6,418.4L10.6,418.4z M10.3,418.3L10.3,418.3L10.3,418.3L10.3,418.3z M9.9,418.4L9.9,418.4
		L9.9,418.4L9.9,418.4z M9.6,418.3L9.6,418.3L9.6,418.3L9.6,418.3z M9.3,418.4L9.3,418.4L9.3,418.4L9.3,418.4z M8.9,418.3L8.9,418.3
		L8.9,418.3L8.9,418.3z M8.6,418.4L8.6,418.4L8.6,418.4L8.6,418.4z M8.2,418.3L8.2,418.3L8.2,418.3L8.2,418.3z M9.9,418.8l0.1,0.1
		H9.8L9.9,418.8z M10.3,418.8L10.3,418.8L10.3,418.8L10.3,418.8z M10.6,418.8l0.1,0.1h-0.2L10.6,418.8z M10.9,418.4L10.9,418.4
		L10.9,418.4L10.9,418.4z M11.1,418.5l-0.1-0.1l0.1-0.1l0.1,0.1L11.1,418.5L11.1,418.5z M11.2,418.3h0.2H11.2L11.2,418.3z
		 M23.2,418.5l-0.1-0.1l0.1-0.1l0.1,0.1L23.2,418.5L23.2,418.5z M22.5,418.5l-0.1-0.1l0.1-0.1l0.1,0.1L22.5,418.5L22.5,418.5z
		 M21.8,418.5l-0.1-0.1l0.1-0.1l0.1,0.1L21.8,418.5L21.8,418.5z M21.5,418.5L21.5,418.5v-0.2V418.5z M21.5,418.3L21.5,418.3v0.2
		V418.3z M21.6,418.3h0.2H21.6L21.6,418.3z M21.9,418.3h0.2H21.9L21.9,418.3z M22.1,418.3v0.2V418.3L22.1,418.3z M22.2,418.3
		L22.2,418.3v0.2V418.3z M22.2,418.3h0.2H22.2L22.2,418.3z M22.6,418.3h0.2H22.6L22.6,418.3z M22.8,418.3v0.2V418.3L22.8,418.3z
		 M22.9,418.3L22.9,418.3v0.2V418.3z M22.9,418.3h0.2H22.9L22.9,418.3z M23.3,418.3h0.2H23.3L23.3,418.3z M23.5,418.3v0.2V418.3
		L23.5,418.3z M23.5,418.1L23.5,418.1v-0.2V418.1z M23.4,418.2h-0.2l0.1-0.1L23.4,418.2z M23.2,418.2l-0.1-0.1l0.1-0.1l0.1,0.1
		L23.2,418.2z M23.1,418.2h-0.2l0.1-0.1L23.1,418.2z M22.9,418.2V418V418.2L22.9,418.2z M22.8,418.1L22.8,418.1v-0.2V418.1z
		 M22.8,418.2h-0.2l0.1-0.1L22.8,418.2z M22.5,418.2l-0.1-0.1l0.1-0.1l0.1,0.1L22.5,418.2z M22.4,418.2h-0.2l0.1-0.1L22.4,418.2z
		 M22.2,418.2V418V418.2L22.2,418.2z M22.1,418.1L22.1,418.1v-0.2V418.1z M22.1,418.2h-0.2l0.1-0.1L22.1,418.2z M21.8,418.2
		l-0.1-0.1l0.1-0.1l0.1,0.1L21.8,418.2z M21.8,418.2h-0.2l0.1-0.1L21.8,418.2z M21.5,418.2V418V418.2L21.5,418.2z M21.3,418.4
		L21.3,418.4L21.3,418.4L21.3,418.4z M21.2,418.5l-0.1-0.1l0.1-0.1l0.1,0.1L21.2,418.5L21.2,418.5z M21,418.3L21,418.3L21,418.3
		L21,418.3z M20.8,418.5L20.8,418.5v-0.2V418.5z M20.9,418.3L20.9,418.3v0.2V418.3z M20.7,418.4L20.7,418.4L20.7,418.4L20.7,418.4z
		 M20.5,418.5l-0.1-0.1l0.1-0.1l0.1,0.1L20.5,418.5L20.5,418.5z M20.3,418.3L20.3,418.3L20.3,418.3L20.3,418.3z M19.8,418.5
		l-0.1-0.1l0.1-0.1l0.1,0.1L19.8,418.5L19.8,418.5z M19.2,418.5l-0.1-0.1l0.1-0.1l0.1,0.1L19.2,418.5L19.2,418.5z M18.5,418.5
		l-0.1-0.1l0.1-0.1l0.1,0.1L18.5,418.5L18.5,418.5z M18.1,418.5L18.1,418.5v-0.2V418.5z M18.2,418.3L18.2,418.3v0.2V418.3z
		 M18.2,418.3h0.2H18.2L18.2,418.3z M18.6,418.3h0.2H18.6L18.6,418.3z M18.8,418.3v0.2V418.3L18.8,418.3z M18.9,418.3L18.9,418.3
		v0.2V418.3z M18.9,418.3h0.2H18.9L18.9,418.3z M19.2,418.3h0.2H19.2L19.2,418.3z M19.5,418.3v0.2V418.3L19.5,418.3z M19.5,418.3
		L19.5,418.3v0.2V418.3z M19.6,418.3h0.2H19.6L19.6,418.3z M19.9,418.3h0.2H19.9L19.9,418.3z M20.1,418.3v0.2V418.3L20.1,418.3z
		 M20.2,418.3L20.2,418.3v0.2V418.3z M20.1,418.1L20.1,418.1v-0.2V418.1z M20.1,418.2h-0.2l0.1-0.1L20.1,418.2z M19.8,418.2
		l-0.1-0.1l0.1-0.1l0.1,0.1L19.8,418.2z M19.8,418.2h-0.2l0.1-0.1L19.8,418.2z M19.5,418.2V418V418.2L19.5,418.2z M19.5,418.1
		L19.5,418.1v-0.2V418.1z M19.4,418.2h-0.2l0.1-0.1L19.4,418.2z M19.2,418.2l-0.1-0.1l0.1-0.1l0.1,0.1L19.2,418.2z M19.1,418.2h-0.2
		l0.1-0.1L19.1,418.2z M18.9,418.2V418V418.2L18.9,418.2z M18.8,418.1L18.8,418.1v-0.2V418.1z M18.7,418.2h-0.2l0.1-0.1L18.7,418.2z
		 M18.5,418.2l-0.1-0.1l0.1-0.1l0.1,0.1L18.5,418.2z M18.4,418.2h-0.2l0.1-0.1L18.4,418.2z M18.2,418.2V418V418.2L18.2,418.2z
		 M18,418.4L18,418.4L18,418.4L18,418.4z M17.8,418.5l-0.1-0.1l0.1-0.1l0.1,0.1L17.8,418.5L17.8,418.5z M17.6,418.3L17.6,418.3
		L17.6,418.3L17.6,418.3z M17.4,418.5L17.4,418.5v-0.2C17.4,418.4,17.4,418.4,17.4,418.5z M17.5,418.3L17.5,418.3v0.2V418.3z
		 M17.3,418.4L17.3,418.4L17.3,418.4L17.3,418.4z M17.1,418.5l-0.1-0.1l0.1-0.1l0.1,0.1L17.1,418.5L17.1,418.5z M17,418.3L17,418.3
		L17,418.3L17,418.3z M16.5,418.5l-0.1-0.1l0.1-0.1l0.1,0.1L16.5,418.5L16.5,418.5z M15.8,418.5l-0.1-0.1l0.1-0.1l0.1,0.1
		L15.8,418.5L15.8,418.5z M15.1,418.5l-0.1-0.1l0.1-0.1l0.1,0.1L15.1,418.5L15.1,418.5z M14.8,418.5L14.8,418.5v-0.2V418.5z
		 M14.8,418.3L14.8,418.3v0.2V418.3z M14.9,418.3h0.2H14.9L14.9,418.3z M15.2,418.3h0.2H15.2L15.2,418.3z M15.4,418.3v0.2V418.3
		L15.4,418.3z M15.5,418.3L15.5,418.3v0.2V418.3z M15.5,418.3h0.2H15.5L15.5,418.3z M15.9,418.3h0.2H15.9L15.9,418.3z M16.1,418.3
		v0.2V418.3L16.1,418.3z M16.2,418.3L16.2,418.3v0.2V418.3z M16.2,418.3h0.2H16.2L16.2,418.3z M16.5,418.3h0.2H16.5L16.5,418.3z
		 M16.8,418.3v0.2V418.3L16.8,418.3z M16.8,418.3L16.8,418.3v0.2V418.3z M16.8,418.1L16.8,418.1v-0.2V418.1z M16.7,418.2h-0.2
		l0.1-0.1L16.7,418.2z M16.5,418.2l-0.1-0.1l0.1-0.1l0.1,0.1L16.5,418.2z M16.4,418.2h-0.2l0.1-0.1L16.4,418.2z M16.2,418.2V418
		V418.2L16.2,418.2z M16.1,418.1L16.1,418.1v-0.2V418.1z M16.1,418.2h-0.2l0.1-0.1L16.1,418.2z M15.8,418.2l-0.1-0.1l0.1-0.1
		l0.1,0.1L15.8,418.2z M15.7,418.2h-0.2l0.1-0.1L15.7,418.2z M15.5,418.2V418V418.2L15.5,418.2z M15.4,418.1L15.4,418.1v-0.2V418.1z
		 M15.4,418.2h-0.2l0.1-0.1L15.4,418.2z M15.1,418.2l-0.1-0.1l0.1-0.1l0.1,0.1L15.1,418.2z M15.1,418.2h-0.2l0.1-0.1L15.1,418.2z
		 M14.8,418.2V418V418.2L14.8,418.2z M14.6,418.4L14.6,418.4L14.6,418.4L14.6,418.4z M14.5,418.5l-0.1-0.1l0.1-0.1l0.1,0.1
		L14.5,418.5L14.5,418.5z M14.3,418.3L14.3,418.3L14.3,418.3L14.3,418.3z M14.1,418.5L14.1,418.5v-0.2V418.5z M14.2,418.3
		L14.2,418.3v0.2V418.3z M14,418.4L14,418.4L14,418.4L14,418.4z M13.8,418.5l-0.1-0.1l0.1-0.1l0.1,0.1L13.8,418.5L13.8,418.5z
		 M13.6,418.3L13.6,418.3L13.6,418.3L13.6,418.3z M13.1,418.5l-0.1-0.1l0.1-0.1l0.1,0.1L13.1,418.5L13.1,418.5z M12.5,418.5
		l-0.1-0.1l0.1-0.1l0.1,0.1L12.5,418.5L12.5,418.5z M11.8,418.5l-0.1-0.1l0.1-0.1l0.1,0.1L11.8,418.5L11.8,418.5z M11.5,418.3
		L11.5,418.3v0.2V418.3z M11.5,418.3h0.2H11.5L11.5,418.3z M11.9,418.3h0.2H11.9L11.9,418.3z M12.1,418.3v0.2V418.3L12.1,418.3z
		 M12.1,418.3L12.1,418.3v0.2V418.3z M12.2,418.3h0.2H12.2L12.2,418.3z M12.5,418.3h0.2H12.5L12.5,418.3z M12.7,418.3v0.2V418.3
		L12.7,418.3z M12.8,418.3L12.8,418.3v0.2V418.3z M12.9,418.3h0.2H12.9L12.9,418.3z M13.2,418.3h0.2H13.2L13.2,418.3z M13.4,418.3
		v0.2V418.3L13.4,418.3z M13.5,418.3L13.5,418.3v0.2V418.3z M13.4,418.1L13.4,418.1v-0.2V418.1z M13.4,418.2h-0.2l0.1-0.1
		L13.4,418.2z M13.1,418.2l-0.1-0.1l0.1-0.1l0.1,0.1L13.1,418.2z M13.1,418.2h-0.2l0.1-0.1L13.1,418.2z M12.8,418.2V418V418.2
		L12.8,418.2z M12.7,418.1L12.7,418.1v-0.2V418.1z M12.7,418.2h-0.2l0.1-0.1L12.7,418.2z M12.4,418.2l-0.1-0.1l0.1-0.1l0.1,0.1
		L12.4,418.2z M12.4,418.2h-0.2l0.1-0.1L12.4,418.2z M12.1,418.2V418V418.2L12.1,418.2z M12.1,418.1L12.1,418.1v-0.2V418.1z
		 M12,418.2h-0.2l0.1-0.1L12,418.2z M11.8,418.2l-0.1-0.1l0.1-0.1l0.1,0.1L11.8,418.2z M11.7,418.2h-0.2l0.1-0.1L11.7,418.2z
		 M11.5,418.2V418V418.2L11.5,418.2z M11.4,418.3v0.2V418.3L11.4,418.3z M11.6,418.4L11.6,418.4L11.6,418.4L11.6,418.4z M11.9,418.4
		L11.9,418.4L11.9,418.4L11.9,418.4z M12.3,418.4L12.3,418.4L12.3,418.4L12.3,418.4z M12.6,418.4L12.6,418.4L12.6,418.4L12.6,418.4z
		 M12.9,418.4L12.9,418.4L12.9,418.4L12.9,418.4z M13.3,418.4L13.3,418.4L13.3,418.4L13.3,418.4z M13.6,418.4L13.6,418.4L13.6,418.4
		L13.6,418.4z M14,418.4L14,418.4L14,418.4L14,418.4z M14.3,418.4L14.3,418.4L14.3,418.4L14.3,418.4z M14.6,418.4L14.6,418.4
		L14.6,418.4L14.6,418.4z M14.9,418.4L14.9,418.4L14.9,418.4L14.9,418.4z M15.3,418.4L15.3,418.4L15.3,418.4L15.3,418.4z
		 M15.6,418.4L15.6,418.4L15.6,418.4L15.6,418.4z M16,418.4L16,418.4L16,418.4L16,418.4z M16.3,418.4L16.3,418.4L16.3,418.4
		L16.3,418.4z M16.6,418.4L16.6,418.4L16.6,418.4L16.6,418.4z M17,418.4L17,418.4L17,418.4L17,418.4z M17.3,418.4L17.3,418.4
		L17.3,418.4L17.3,418.4z M17.6,418.4L17.6,418.4L17.6,418.4L17.6,418.4z M18,418.4L18,418.4L18,418.4L18,418.4z M18.3,418.4
		L18.3,418.4L18.3,418.4L18.3,418.4z M18.7,418.4L18.7,418.4L18.7,418.4L18.7,418.4z M19,418.4L19,418.4L19,418.4L19,418.4z
		 M19.3,418.4L19.3,418.4L19.3,418.4L19.3,418.4z M19.7,418.4L19.7,418.4L19.7,418.4L19.7,418.4z M20,418.4L20,418.4L20,418.4
		L20,418.4z M20.3,418.4L20.3,418.4L20.3,418.4L20.3,418.4z M20.7,418.4L20.7,418.4L20.7,418.4L20.7,418.4z M21,418.4L21,418.4
		L21,418.4L21,418.4z M21.3,418.4L21.3,418.4L21.3,418.4L21.3,418.4z M21.7,418.4L21.7,418.4L21.7,418.4L21.7,418.4z M22,418.4
		L22,418.4L22,418.4L22,418.4z M22.3,418.4L22.3,418.4L22.3,418.4L22.3,418.4z M22.7,418.4L22.7,418.4L22.7,418.4L22.7,418.4z
		 M23,418.4L23,418.4L23,418.4L23,418.4z M23.4,418.4L23.4,418.4L23.4,418.4L23.4,418.4z M23.5,418.3L23.5,418.3v0.2V418.3z
		 M23.6,418.3h0.2H23.6L23.6,418.3z M24.5,418.8l-0.1-0.1l0.1-0.1l0.1,0.1L24.5,418.8z M26.8,418.5L26.8,418.5v-0.2V418.5z
		 M26.8,418.5h-0.2H26.8L26.8,418.5z M26.5,418.5L26.5,418.5l-0.1-0.1l0.1-0.1l0.1,0.1L26.5,418.5z M26.5,418.5h-0.2H26.5
		L26.5,418.5z M26.2,418.5v-0.2V418.5L26.2,418.5z M26.2,418.5L26.2,418.5v-0.2V418.5z M26.1,418.5H26H26.1L26.1,418.5z M25.9,418.5
		L25.9,418.5l-0.1-0.1l0.1-0.1l0.1,0.1L25.9,418.5z M25.8,418.5h-0.2H25.8L25.8,418.5z M25.6,418.5v-0.2V418.5L25.6,418.5z
		 M25.5,418.5L25.5,418.5v-0.2V418.5z M25.4,418.5h-0.2H25.4L25.4,418.5z M25.2,418.5L25.2,418.5l-0.1-0.1l0.1-0.1l0.1,0.1
		L25.2,418.5z M25.1,418.5h-0.2H25.1L25.1,418.5z M24.9,418.5v-0.2V418.5L24.9,418.5z M24.9,418.6L24.9,418.6v0.2V418.6z
		 M24.9,418.6h0.2l-0.1,0.1L24.9,418.6z M25.2,418.6l0.1,0.1l-0.1,0.1l-0.1-0.1L25.2,418.6z M25.3,418.6h0.2H25.3L25.3,418.6z
		 M25.5,418.6v0.2V418.6L25.5,418.6z M25.6,418.6L25.6,418.6v0.2V418.6z M25.6,418.6h0.2l-0.1,0.1L25.6,418.6z M25.9,418.6l0.1,0.1
		l-0.1,0.1l-0.1-0.1L25.9,418.6z M25.9,418.6h0.2H25.9L25.9,418.6z M26.2,418.6v0.2V418.6L26.2,418.6z M26.2,418.6L26.2,418.6v0.2
		V418.6z M26.3,418.6h0.2l-0.1,0.1L26.3,418.6z M26.5,418.6l0.1,0.1l-0.1,0.1l-0.1-0.1L26.5,418.6z M26.6,418.6h0.2H26.6L26.6,418.6
		z M26.8,418.6v0.2V418.6L26.8,418.6z M26.7,418.4L26.7,418.4L26.7,418.4L26.7,418.4z M26.4,418.3L26.4,418.3L26.4,418.3L26.4,418.3
		z M26,418.4L26,418.4L26,418.4L26,418.4z M25.7,418.3L25.7,418.3L25.7,418.3L25.7,418.3z M25.4,418.4L25.4,418.4L25.4,418.4
		L25.4,418.4z M25,418.3L25,418.3L25,418.3L25,418.3z M24.8,418.5L24.8,418.5v-0.2V418.5z M24.8,418.5h-0.2H24.8L24.8,418.5z
		 M24.5,418.5L24.5,418.5l-0.1-0.1l0.1-0.1l0.1,0.1L24.5,418.5z M24.4,418.5h-0.2H24.4L24.4,418.5z M24.2,418.5v-0.2V418.5
		L24.2,418.5z M24.1,418.5L24.1,418.5v-0.2C24.1,418.4,24.1,418.4,24.1,418.5z M24.2,418.6L24.2,418.6v0.2V418.6z M24.3,418.6h0.2
		l-0.1,0.1L24.3,418.6z M24.6,418.6h0.2H24.6L24.6,418.6z M24.8,418.6v0.2V418.6L24.8,418.6z M25,418.8L25,418.8L25,418.8L25,418.8z
		 M25.4,418.8l0.1,0.1h-0.2L25.4,418.8z M25.7,418.8L25.7,418.8L25.7,418.8L25.7,418.8z M26,418.8l0.1,0.1h-0.2L26,418.8z
		 M26.4,418.8L26.4,418.8L26.4,418.8L26.4,418.8z M26.7,418.8l0.1,0.1h-0.2L26.7,418.8z M26.9,418.5v-0.2V418.5L26.9,418.5z
		 M27,418.4L27,418.4L27,418.4L27,418.4z M26.9,418.3h0.2H26.9L26.9,418.3z M27.2,418.2l-0.1-0.1l0.1-0.1l0.1,0.1L27.2,418.2z
		 M27.4,418.1l0.1,0.1h-0.2L27.4,418.1z M27.1,418.2h-0.2l0.1-0.1L27.1,418.2z M26.9,418.2V418V418.2L26.9,418.2z M26.8,418.1
		L26.8,418.1v-0.2V418.1z M26.8,418.2h-0.2l0.1-0.1L26.8,418.2z M26.5,418.2l-0.1-0.1l0.1-0.1l0.1,0.1L26.5,418.2z M26.5,418.2h-0.2
		l0.1-0.1L26.5,418.2z M26.2,418.2V418V418.2L26.2,418.2z M26.2,418.1L26.2,418.1v-0.2V418.1z M26.1,418.2h-0.2l0.1-0.1L26.1,418.2z
		 M25.9,418.2l-0.1-0.1l0.1-0.1l0.1,0.1L25.9,418.2z M25.8,418.2h-0.2l0.1-0.1L25.8,418.2z M25.6,418.2V418V418.2L25.6,418.2z
		 M25.5,418.1L25.5,418.1v-0.2V418.1z M25.5,418.2h-0.2l0.1-0.1L25.5,418.2z M25.2,418.2l-0.1-0.1l0.1-0.1l0.1,0.1L25.2,418.2z
		 M25.1,418.2h-0.2l0.1-0.1L25.1,418.2z M24.9,418.2V418V418.2L24.9,418.2z M24.7,418.4L24.7,418.4L24.7,418.4L24.7,418.4z
		 M24.3,418.3L24.3,418.3L24.3,418.3L24.3,418.3z M24,418.4L24,418.4L24,418.4L24,418.4z M23.8,418.3l0.1,0.1l-0.1,0.1l0,0l-0.1-0.1
		L23.8,418.3z M24,418.4L24,418.4L24,418.4L24,418.4z M24.4,418.8L24.4,418.8L24.4,418.8L24.4,418.8z M24.7,418.8l0.1,0.1h-0.2
		L24.7,418.8z M26.9,418.8v-0.2V418.8L26.9,418.8z M27,418.8L27,418.8L27,418.8L27,418.8z M26.9,418.6h0.2l-0.1,0.1L26.9,418.6z
		 M27.2,418.5L27.2,418.5l-0.1-0.1l0.1-0.1l0.1,0.1L27.2,418.5z M27.4,418.4L27.4,418.4L27.4,418.4L27.4,418.4z M27.3,418.3h0.2
		H27.3L27.3,418.3z M27.4,418L27.4,418C27.5,418,27.5,418.1,27.4,418L27.4,418z M27.4,418L27.4,418C27.4,417.9,27.4,417.9,27.4,418
		L27.4,418z M27,418l-0.1-0.1c0.1,0,0.1,0,0.2,0L27,418z M26.7,418L26.7,418C26.7,417.9,26.7,417.9,26.7,418L26.7,418z M26.4,418
		l-0.1-0.1c0.1,0,0.1,0,0.2,0L26.4,418z M26,418L26,418C26,417.9,26.1,417.9,26,418L26,418z M25.7,418l-0.1-0.1c0.1,0,0.1,0,0.2,0
		L25.7,418z M25.4,418L25.4,418C25.3,417.9,25.4,417.9,25.4,418L25.4,418z M25,418l-0.1-0.1c0.1,0,0.1,0,0.2,0L25,418z M24.8,418.1
		L24.8,418.1v-0.2V418.1z M24.8,418.2h-0.2l0.1-0.1L24.8,418.2z M24.5,418.2l-0.1-0.1l0.1-0.1l0.1,0.1L24.5,418.2z M24.5,418.2h-0.2
		l0.1-0.1L24.5,418.2z M24.2,418.2V418V418.2L24.2,418.2z M24.1,418.1L24.1,418.1v-0.2C24.1,418,24.1,418.1,24.1,418.1z M24.1,418.2
		h-0.2l0.1-0.1L24.1,418.2z M23.8,418.2l-0.1-0.1l0.1-0.1l0.1,0.1L23.8,418.2z M23.8,418.2h-0.2l0.1-0.1L23.8,418.2z M23.5,418.2
		V418V418.2L23.5,418.2z M23.3,418L23.3,418C23.3,417.9,23.4,417.9,23.3,418L23.3,418z M23,418l-0.1-0.1c0.1,0,0.1,0,0.2,0L23,418z
		 M22.7,418L22.7,418C22.6,417.9,22.7,417.9,22.7,418L22.7,418z M22.3,418l-0.1-0.1c0.1,0,0.1,0,0.2,0L22.3,418z M22,418L22,418
		C22,417.9,22,417.9,22,418L22,418z M21.7,418l-0.1-0.1c0.1,0,0.1,0,0.2,0L21.7,418z M21.5,418.1L21.5,418.1v-0.2V418.1z
		 M21.4,418.2h-0.2l0.1-0.1L21.4,418.2z M21.2,418.2l-0.1-0.1l0.1-0.1l0.1,0.1L21.2,418.2z M21.1,418.2h-0.2l0.1-0.1L21.1,418.2z
		 M20.9,418.1v-0.2V418.1L20.9,418.1z M20.8,418.1L20.8,418.1v-0.2V418.1z M20.8,418.2h-0.2l0.1-0.1L20.8,418.2z M20.5,418.2
		l-0.1-0.1l0.1-0.1l0.1,0.1L20.5,418.2z M20.4,418.2h-0.2l0.1-0.1L20.4,418.2z M20.2,418.2V418V418.2L20.2,418.2z M20,418L20,418
		C20,417.9,20,417.9,20,418L20,418z M19.7,418l-0.1-0.1c0.1,0,0.1,0,0.2,0L19.7,418z M19.3,418L19.3,418
		C19.3,417.9,19.3,417.9,19.3,418L19.3,418z M19,418l-0.1-0.1c0.1,0,0.1,0,0.2,0L19,418z M18.6,418L18.6,418
		C18.6,417.9,18.7,417.9,18.6,418L18.6,418z M18.3,418l-0.1-0.1c0.1,0,0.1,0,0.2,0L18.3,418z M18.1,418.1L18.1,418.1v-0.2V418.1z
		 M18.1,418.2h-0.2l0.1-0.1L18.1,418.2z M17.8,418.2l-0.1-0.1l0.1-0.1l0.1,0.1L17.8,418.2z M17.7,418.2h-0.2l0.1-0.1L17.7,418.2z
		 M17.5,418.2V418V418.2L17.5,418.2z M17.4,418.1L17.4,418.1v-0.2C17.4,418,17.4,418.1,17.4,418.1z M17.4,418.2h-0.2l0.1-0.1
		L17.4,418.2z M17.1,418.2l-0.1-0.1l0.1-0.1l0.1,0.1L17.1,418.2z M17.1,418.2h-0.2l0.1-0.1L17.1,418.2z M16.8,418.2V418V418.2
		L16.8,418.2z M16.6,418L16.6,418C16.6,417.9,16.7,417.9,16.6,418L16.6,418z M16.3,418l-0.1-0.1c0.1,0,0.1,0,0.2,0L16.3,418z
		 M16,418L16,418C15.9,417.9,16,417.9,16,418L16,418z M15.6,418l-0.1-0.1c0.1,0,0.1,0,0.2,0L15.6,418z M15.3,418L15.3,418
		C15.3,417.9,15.3,417.9,15.3,418L15.3,418z M15,418l-0.1-0.1c0.1,0,0.1,0,0.2,0L15,418z M14.8,418.1L14.8,418.1v-0.2V418.1z
		 M14.7,418.2h-0.2l0.1-0.1L14.7,418.2z M14.4,418.2l-0.1-0.1l0.1-0.1l0.1,0.1L14.4,418.2z M14.4,418.2h-0.2l0.1-0.1L14.4,418.2z
		 M14.2,418.1v-0.2V418.1L14.2,418.1z M14.1,418.1L14.1,418.1v-0.2V418.1z M14.1,418.2h-0.2l0.1-0.1L14.1,418.2z M13.8,418.2
		l-0.1-0.1l0.1-0.1l0.1,0.1L13.8,418.2z M13.7,418.2h-0.2l0.1-0.1L13.7,418.2z M13.5,418.2V418V418.2L13.5,418.2z M13.3,418
		L13.3,418C13.2,417.9,13.3,417.9,13.3,418L13.3,418z M13,418l-0.1-0.1c0.1,0,0.1,0,0.2,0L13,418z M12.6,418L12.6,418
		C12.6,417.9,12.6,417.9,12.6,418L12.6,418z M12.3,418l-0.1-0.1c0.1,0,0.1,0,0.2,0L12.3,418z M11.9,418L11.9,418
		C11.9,417.9,12,417.9,11.9,418L11.9,418z M11.6,418l-0.1-0.1c0.1,0,0.1,0,0.2,0L11.6,418z M11.4,418.1L11.4,418.1v-0.2V418.1z
		 M11.4,418.2h-0.2l0.1-0.1L11.4,418.2z M11.1,418.2l-0.1-0.1l0.1-0.1l0.1,0.1L11.1,418.2z M11,418.2h-0.2l0.1-0.1L11,418.2z
		 M10.8,418.2V418V418.2L10.8,418.2z M10.7,418.1L10.7,418.1v-0.2C10.7,418,10.7,418.1,10.7,418.1z M10.7,418.2h-0.2l0.1-0.1
		L10.7,418.2z M10.4,418.2l-0.1-0.1l0.1-0.1l0.1,0.1L10.4,418.2z M10.4,418.2h-0.2l0.1-0.1L10.4,418.2z M10.1,418.2V418V418.2
		L10.1,418.2z M10.1,418.1L10.1,418.1v-0.2V418.1z M10,418.2H9.8l0.1-0.1L10,418.2z M9.8,418.2l-0.1-0.1l0.1-0.1l0.1,0.1L9.8,418.2z
		 M9.7,418.2H9.5l0.1-0.1L9.7,418.2z M9.5,418.2V418V418.2L9.5,418.2z M9.4,418.1L9.4,418.1v-0.2V418.1z M9.4,418.2H9.2l0.1-0.1
		L9.4,418.2z M9.1,418.2L9,418.1l0.1-0.1l0.1,0.1L9.1,418.2z M9,418.2H8.8l0.1-0.1L9,418.2z M8.8,418.2V418V418.2L8.8,418.2z
		 M8.7,418.1L8.7,418.1v-0.2V418.1z M8.7,418.2H8.5l0.1-0.1L8.7,418.2z M8.4,418.2l-0.1-0.1l0.1-0.1l0.1,0.1L8.4,418.2z M8.4,418.2
		H8.2l0.1-0.1L8.4,418.2z M8.1,418.2V418V418.2L8.1,418.2z M8,418.1L8,418.1v-0.2V418.1z M8,418.2H7.8l0.1-0.1L8,418.2z M8,418.3
		L8,418.3H7.8H8z M8,418.3v0.2V418.3L8,418.3z M8,418.5H7.8H8L8,418.5z M8,418.6L8,418.6H7.8H8z M8,418.6v0.2V418.6L8,418.6z
		 M8,418.9H7.8l0.1-0.1L8,418.9z M10.8,418.6L10.8,418.6v0.2V418.6z M10.8,418.6H11l-0.1,0.1L10.8,418.6z M11.3,418.4L11.3,418.4
		L11.3,418.4L11.3,418.4z M11.5,418.6L11.5,418.6v0.2V418.6z M11.5,418.6h0.2l-0.1,0.1L11.5,418.6z M11.8,418.6l0.1,0.1l-0.1,0.1
		l-0.1-0.1L11.8,418.6z M11.8,418.6H12H11.8L11.8,418.6z M12.1,418.6v0.2V418.6L12.1,418.6z M12.1,418.6L12.1,418.6v0.2V418.6z
		 M12.2,418.6h0.2l-0.1,0.1L12.2,418.6z M12.5,418.6l0.1,0.1l-0.1,0.1l-0.1-0.1L12.5,418.6z M12.5,418.6h0.2H12.5L12.5,418.6z
		 M12.7,418.6v0.2V418.6L12.7,418.6z M12.8,418.6L12.8,418.6v0.2V418.6z M12.9,418.6h0.2l-0.1,0.1L12.9,418.6z M13.1,418.6l0.1,0.1
		l-0.1,0.1l-0.1-0.1L13.1,418.6z M13.2,418.6h0.2H13.2L13.2,418.6z M13.4,418.6v0.2V418.6L13.4,418.6z M13.5,418.6L13.5,418.6v0.2
		V418.6z M13.5,418.6h0.2l-0.1,0.1L13.5,418.6z M13.8,418.6l0.1,0.1l-0.1,0.1l-0.1-0.1L13.8,418.6z M13.9,418.6h0.2H13.9L13.9,418.6
		z M14.1,418.6v0.2V418.6L14.1,418.6z M14.2,418.6L14.2,418.6v0.2V418.6z M14.2,418.6h0.2l-0.1,0.1L14.2,418.6z M14.5,418.6l0.1,0.1
		l-0.1,0.1l-0.1-0.1L14.5,418.6z M14.5,418.6h0.2H14.5L14.5,418.6z M14.8,418.6v0.2V418.6L14.8,418.6z M14.8,418.6L14.8,418.6v0.2
		V418.6z M14.9,418.6h0.2l-0.1,0.1L14.9,418.6z M15.1,418.6l0.1,0.1l-0.1,0.1l-0.1-0.1L15.1,418.6z M15.2,418.6h0.2H15.2L15.2,418.6
		z M15.4,418.6v0.2V418.6L15.4,418.6z M15.5,418.6L15.5,418.6v0.2V418.6z M15.5,418.6h0.2l-0.1,0.1L15.5,418.6z M15.8,418.6l0.1,0.1
		l-0.1,0.1l-0.1-0.1L15.8,418.6z M15.9,418.6h0.2H15.9L15.9,418.6z M16.1,418.6v0.2V418.6L16.1,418.6z M16.2,418.6L16.2,418.6v0.2
		V418.6z M16.2,418.6h0.2l-0.1,0.1L16.2,418.6z M16.5,418.6l0.1,0.1l-0.1,0.1l-0.1-0.1L16.5,418.6z M16.5,418.6h0.2H16.5L16.5,418.6
		z M16.8,418.6v0.2V418.6L16.8,418.6z M16.8,418.6L16.8,418.6v0.2V418.6z M16.9,418.6h0.2l-0.1,0.1L16.9,418.6z M17.1,418.6l0.1,0.1
		l-0.1,0.1l-0.1-0.1L17.1,418.6z M17.2,418.6h0.2H17.2L17.2,418.6z M17.4,418.6c0,0.1,0,0.1,0,0.2V418.6L17.4,418.6z M17.5,418.6
		L17.5,418.6v0.2V418.6z M17.5,418.6h0.2l-0.1,0.1L17.5,418.6z M17.8,418.6l0.1,0.1l-0.1,0.1l-0.1-0.1L17.8,418.6z M17.9,418.6h0.2
		H17.9L17.9,418.6z M18.1,418.6v0.2V418.6L18.1,418.6z M18.2,418.6L18.2,418.6v0.2V418.6z M18.2,418.6h0.2l-0.1,0.1L18.2,418.6z
		 M18.5,418.6l0.1,0.1l-0.1,0.1l-0.1-0.1L18.5,418.6z M18.5,418.6h0.2H18.5L18.5,418.6z M18.8,418.6v0.2V418.6L18.8,418.6z
		 M18.9,418.6L18.9,418.6v0.2V418.6z M18.9,418.6h0.2l-0.1,0.1L18.9,418.6z M19.2,418.6l0.1,0.1l-0.1,0.1l-0.1-0.1L19.2,418.6z
		 M19.2,418.6h0.2H19.2L19.2,418.6z M19.5,418.6v0.2V418.6L19.5,418.6z M19.5,418.6L19.5,418.6v0.2V418.6z M19.6,418.6h0.2l-0.1,0.1
		L19.6,418.6z M19.8,418.6l0.1,0.1l-0.1,0.1l-0.1-0.1L19.8,418.6z M19.9,418.6h0.2H19.9L19.9,418.6z M20.1,418.6v0.2V418.6
		L20.1,418.6z M20.2,418.6L20.2,418.6v0.2V418.6z M20.2,418.6h0.2l-0.1,0.1L20.2,418.6z M20.5,418.6l0.1,0.1l-0.1,0.1l-0.1-0.1
		L20.5,418.6z M20.6,418.6h0.2H20.6L20.6,418.6z M20.8,418.6v0.2V418.6L20.8,418.6z M20.9,418.6L20.9,418.6v0.2V418.6z M20.9,418.6
		h0.2l-0.1,0.1L20.9,418.6z M21.2,418.6l0.1,0.1l-0.1,0.1l-0.1-0.1L21.2,418.6z M21.2,418.6h0.2H21.2L21.2,418.6z M21.5,418.6v0.2
		V418.6L21.5,418.6z M21.5,418.6L21.5,418.6v0.2V418.6z M21.6,418.6h0.2l-0.1,0.1L21.6,418.6z M21.8,418.6l0.1,0.1l-0.1,0.1
		l-0.1-0.1L21.8,418.6z M21.9,418.6h0.2H21.9L21.9,418.6z M22.1,418.6v0.2V418.6L22.1,418.6z M22.2,418.6L22.2,418.6v0.2V418.6z
		 M22.2,418.6h0.2l-0.1,0.1L22.2,418.6z M22.5,418.6l0.1,0.1l-0.1,0.1l-0.1-0.1L22.5,418.6z M22.6,418.6h0.2H22.6L22.6,418.6z
		 M22.8,418.6v0.2V418.6L22.8,418.6z M22.9,418.6L22.9,418.6v0.2V418.6z M22.9,418.6h0.2l-0.1,0.1L22.9,418.6z M23.2,418.6l0.1,0.1
		l-0.1,0.1l-0.1-0.1L23.2,418.6z M23.2,418.6h0.2H23.2L23.2,418.6z M23.5,418.6v0.2V418.6L23.5,418.6z M23.7,418.4L23.7,418.4
		L23.7,418.4L23.7,418.4z M24.1,418.6L24.1,418.6h-0.2H24.1z M24.1,418.6c0,0.1,0,0.1,0,0.2V418.6L24.1,418.6z M27.1,418.7l0.1-0.1
		l0.1,0.1l-0.1,0.1L27.1,418.7z M27.3,418.6h0.2H27.3L27.3,418.6z M27.5,418.6c0,0.1,0,0.1,0,0.2V418.6L27.5,418.6z M27.4,418.4
		L27.4,418.4C27.5,418.4,27.5,418.4,27.4,418.4L27.4,418.4z M24.7,418L24.7,418C24.6,417.9,24.7,417.9,24.7,418L24.7,418z M24.4,418
		l-0.1-0.1c0,0,0.1,0,0.2,0L24.4,418z M24,418l-0.1-0.1C24,417.9,24.1,417.9,24,418L24,418z M23.7,418l-0.1-0.1c0.1,0,0.1,0,0.2,0
		L23.7,418z M21.3,418L21.3,418C21.3,417.9,21.3,417.9,21.3,418L21.3,418z M21,418l-0.1-0.1c0,0,0.1,0,0.2,0L21,418z M20.7,418
		L20.7,418C20.6,417.9,20.7,417.9,20.7,418L20.7,418z M20.3,418l-0.1-0.1c0.1,0,0.1,0,0.2,0L20.3,418z M18,418L18,418
		C17.9,417.9,18,417.9,18,418L18,418z M17.7,418l-0.1-0.1c0,0,0.1,0,0.2,0L17.7,418z M17.3,418L17.3,418
		C17.3,417.9,17.4,417.9,17.3,418L17.3,418z M17,418l-0.1-0.1c0.1,0,0.1,0,0.2,0L17,418z M14.6,418L14.6,418
		C14.6,417.9,14.6,417.9,14.6,418L14.6,418z M14.3,418l-0.1-0.1c0,0,0.1,0,0.2,0L14.3,418z M14,418L14,418
		C13.9,417.9,14,417.9,14,418L14,418z M13.6,418l-0.1-0.1c0.1,0,0.1,0,0.2,0L13.6,418z M11.3,418L11.3,418
		C11.2,417.9,11.3,417.9,11.3,418L11.3,418z M10.9,418l-0.1-0.1c0,0,0.1,0,0.2,0L10.9,418z M10.6,418L10.6,418
		C10.6,417.9,10.7,417.9,10.6,418L10.6,418z M10.3,418l-0.1-0.1c0.1,0,0.1,0,0.2,0L10.3,418z M9.9,418L9.9,418
		C9.9,417.9,10,417.9,9.9,418L9.9,418z M9.6,418l-0.1-0.1c0.1,0,0.1,0,0.2,0L9.6,418z M9.2,418L9.2,418C9.2,417.9,9.3,417.9,9.2,418
		L9.2,418z M8.9,418l-0.1-0.1c0.1,0,0.1,0,0.2,0L8.9,418z M8.6,418L8.6,418C8.5,417.9,8.6,417.9,8.6,418L8.6,418z M8.3,418l-0.1-0.1
		c0.1,0,0.1,0,0.2,0L8.3,418z M7.9,418L7.9,418C7.9,417.9,7.9,417.9,7.9,418L7.9,418z M7.7,417.9l0.1,0.1l-0.1,0.1L7.6,418
		L7.7,417.9z M7.6,418l-0.1-0.1c0,0,0.1,0,0.2,0L7.6,418z M7.7,418.2H7.5l0.1-0.1L7.7,418.2z M7.7,418.3L7.7,418.3H7.5H7.7z
		 M7.7,418.3l0.1,0.1l-0.1,0.1l0,0l-0.1-0.1L7.7,418.3z M7.7,418.5H7.5H7.7L7.7,418.5z M7.7,418.6l-0.1,0.1l-0.1-0.1H7.7z
		 M7.7,418.6l0.1,0.1l-0.1,0.1l-0.1-0.1L7.7,418.6z M10.9,418.8L10.9,418.8L10.9,418.8L10.9,418.8z M11.1,418.8l-0.1-0.1l0.1-0.1
		l0.1,0.1L11.1,418.8z M11.2,418.6h0.2H11.2L11.2,418.6z M11.4,418.6v0.2V418.6L11.4,418.6z M11.6,418.8L11.6,418.8L11.6,418.8
		L11.6,418.8z M11.9,418.8l0.1,0.1h-0.2L11.9,418.8z M12.3,418.8L12.3,418.8L12.3,418.8L12.3,418.8z M12.6,418.8l0.1,0.1h-0.2
		L12.6,418.8z M13,418.8L13,418.8L13,418.8L13,418.8z M13.3,418.8l0.1,0.1h-0.2L13.3,418.8z M13.6,418.8L13.6,418.8L13.6,418.8
		L13.6,418.8z M14,418.8l0.1,0.1h-0.2L14,418.8z M14.3,418.8L14.3,418.8L14.3,418.8L14.3,418.8z M14.6,418.8l0.1,0.1h-0.2
		L14.6,418.8z M15,418.8L15,418.8L15,418.8L15,418.8z M15.3,418.8l0.1,0.1h-0.2L15.3,418.8z M15.6,418.8L15.6,418.8L15.6,418.8
		L15.6,418.8z M16,418.8l0.1,0.1h-0.2L16,418.8z M16.3,418.8L16.3,418.8L16.3,418.8L16.3,418.8z M16.6,418.8l0.1,0.1h-0.2
		L16.6,418.8z M17,418.8L17,418.8L17,418.8L17,418.8z M17.3,418.8l0.1,0.1h-0.2L17.3,418.8z M17.7,418.8L17.7,418.8L17.7,418.8
		L17.7,418.8z M18,418.8l0.1,0.1h-0.2L18,418.8z M18.3,418.8L18.3,418.8L18.3,418.8L18.3,418.8z M18.6,418.8l0.1,0.1h-0.2
		L18.6,418.8z M19,418.8L19,418.8l-0.1,0.1L19,418.8z M19.3,418.8l0.1,0.1h-0.2L19.3,418.8z M19.7,418.8L19.7,418.8L19.7,418.8
		L19.7,418.8z M20,418.8l0.1,0.1h-0.2L20,418.8z M20.3,418.8L20.3,418.8L20.3,418.8L20.3,418.8z M20.7,418.8l0.1,0.1h-0.2
		L20.7,418.8z M21,418.8L21,418.8L21,418.8L21,418.8z M21.3,418.8l0.1,0.1h-0.2L21.3,418.8z M21.7,418.8L21.7,418.8L21.7,418.8
		L21.7,418.8z M22,418.8l0.1,0.1h-0.2L22,418.8z M22.3,418.8L22.3,418.8L22.3,418.8L22.3,418.8z M22.7,418.8l0.1,0.1h-0.2
		L22.7,418.8z M23,418.8L23,418.8L23,418.8L23,418.8z M23.3,418.8l0.1,0.1h-0.2L23.3,418.8z M23.5,418.6L23.5,418.6v0.2V418.6z
		 M23.6,418.6h0.2l-0.1,0.1L23.6,418.6z M23.9,418.6l0.1,0.1l-0.1,0.1l-0.1-0.1L23.9,418.6z M24,418.8l0.1,0.1h-0.2L24,418.8z
		 M27.4,418.8l0.1,0.1h-0.2L27.4,418.8z M7.5,418.1L7.5,418.1C7.4,418.1,7.4,418,7.5,418.1L7.5,418.1z M7.5,418.4L7.5,418.4
		C7.4,418.4,7.4,418.4,7.5,418.4L7.5,418.4z M7.5,418.7L7.5,418.7C7.4,418.8,7.4,418.7,7.5,418.7L7.5,418.7z M7.6,418.8L7.6,418.8
		L7.6,418.8L7.6,418.8z M11.3,418.8l0.1,0.1h-0.2L11.3,418.8z M23.7,418.8L23.7,418.8L23.7,418.8L23.7,418.8z"/>
	<path class="st0" d="M-39.1,420.6v13.3h13.5v-13.3H-27v-6.1h-0.3v-0.7h-2.6v-0.6h0.7v-1.6h-6.2v1.6h0.7v0.6h-2.6v0.7h-0.3v2.6
		l-0.6,0.3v0.5h0.6v2.7H-39.1z M-30.5,413.8H-34v-0.6h3.5V413.8z"/>
	<path class="st0" d="M229.7,432.1v-8.6l-0.2-0.1v-0.9h-0.1v-0.4h-0.1v-0.2h-0.1l-0.1-0.8H229l-0.1,0.8h-0.1v0.2h-0.1v0.4h-0.1v-1.8
		c0,0-0.7,0-1-0.3c-0.6-0.6-0.4-1.1-0.4-1.1H227v-0.4h-0.1v-0.2h-0.1l-0.1-0.8h-0.1l-0.1,0.8h-0.1v0.2h-0.1v0.4h-0.1v-1.1
		c0,0-0.4,0-0.8-0.3c-0.3-0.3-0.4-0.6-0.4-0.6h-0.3v-1.2h0.4v-0.2h-0.4v-0.5h-0.2v0.5h-0.4v0.2h0.4v1.2h-0.4c0,0,0,0.3-0.4,0.6
		c-0.3,0.3-0.8,0.3-0.8,0.3v1.1h0.1v-0.4h-0.1v-0.2h-0.1l-0.1-0.8h-0.1l-0.1,0.8h-0.1v0.2h-0.1v0.4h-0.2c0,0,0.2,0.6-0.4,1.1
		c-0.3,0.3-1,0.3-1,0.3v1.8h-0.1v-0.4h-0.1v-0.2h-0.1l-0.1-0.8h-0.1l-0.1,0.8H220v0.2h-0.1v0.4h-0.1v0.9l-0.2,0.1v8.6h-0.9v1.8h11.7
		v-1.8H229.7z"/>
	<path class="st0" d="M171.9,426.4v7.6h16.8v-7.6h-1.4V421h-1v-18.3H186v-9.3h-1.6v1.3h-0.5v-0.2h-2.5v-0.7l0,0v0.7h-1V394h-0.1v0.5
		h-2.6V394c0.2,0,0.3-0.1,0.3-0.2c0-0.1-0.1-0.1-0.3-0.2V393c0,0,0.1,0,0.1-0.1c0,0,0,0-0.1-0.1v-0.7l0,0c0-0.1-0.2-0.1-0.5-0.1
		c-0.2,0-0.5,0.1-0.5,0.1l0,0v0.7c-0.1,0-0.1,0-0.1,0.1c0,0,0,0,0.1,0.1v0.6c-0.2,0-0.3,0.1-0.3,0.2c0,0.1,0.1,0.1,0.3,0.2v0.5h-0.1
		v0.1h-0.5v-1.3h-1.6v9.3h-0.3v18.3h-1v5.4h-1.3V426.4z M177.1,393.7c0-0.1,0-0.3,0-0.5l0,0V393.7L177.1,393.7z M176.9,392.9
		C176.9,392.9,176.8,392.9,176.9,392.9c-0.1-0.3-0.1-0.5-0.1-0.6c0,0,0,0,0.1,0V392.9z M176.9,393.7
		C176.9,393.7,176.8,393.7,176.9,393.7c-0.1-0.2-0.1-0.4-0.1-0.6c0,0,0,0,0.1,0V393.7z M176.9,394.5L176.9,394.5
		c-0.1-0.2-0.1-0.3-0.1-0.5c0,0,0,0,0.1,0V394.5z M176.9,392.9L176.9,392.9c0-0.3,0-0.5,0-0.6l0,0V392.9z M176.9,393.7L176.9,393.7
		c0-0.2,0-0.4,0-0.6l0,0V393.7z M177,392.9L177,392.9c0-0.2,0-0.4,0-0.6l0,0V392.9z M177,393.7L177,393.7c0-0.1,0-0.3,0-0.6l0,0
		V393.7z M177,394.5L177,394.5c-0.1-0.2-0.1-0.3-0.1-0.5h0.1V394.5z M177.1,392.9L177.1,392.9c0-0.2,0-0.4,0-0.5l0,0V392.9z
		 M177.1,393.7L177.1,393.7c0-0.2,0-0.4,0-0.5l0,0V393.7z M177.2,392.9C177.2,392.9,177.1,392.9,177.2,392.9
		c-0.1-0.2-0.1-0.4-0.1-0.5h0.1C177.2,392.5,177.2,392.7,177.2,392.9z M177.2,392.9L177.2,392.9L177.2,392.9v-0.5l0,0l0,0V392.9z
		 M177.3,392.9L177.3,392.9c-0.1-0.2-0.1-0.4-0.1-0.5h0.1C177.3,392.5,177.3,392.7,177.3,392.9z M177.3,393.7L177.3,393.7v-0.5l0,0
		C177.3,393.3,177.3,393.5,177.3,393.7z M177.4,392.9L177.4,392.9v-0.5l0,0C177.4,392.4,177.4,392.6,177.4,392.9z M177.4,393.7
		L177.4,393.7v-0.5l0,0C177.4,393.3,177.4,393.5,177.4,393.7z M177.5,392.9L177.5,392.9v-0.5l0,0
		C177.5,392.4,177.5,392.6,177.5,392.9z M177.5,393.7L177.5,393.7v-0.6l0,0C177.5,393.3,177.5,393.6,177.5,393.7z M177.5,392.9
		L177.5,392.9v-0.6l0,0C177.5,392.4,177.5,392.6,177.5,392.9z M177.5,393.7L177.5,393.7v-0.6l0,0
		C177.5,393.3,177.5,393.5,177.5,393.7z M177.5,394.5L177.5,394.5l-0.1-0.5h0.1C177.5,394.2,177.5,394.4,177.5,394.5z M177.6,392.9
		L177.6,392.9l-0.1-0.6c0,0,0,0,0.1,0C177.6,392.3,177.6,392.6,177.6,392.9z M177.6,393.7L177.6,393.7l-0.1-0.6c0,0,0,0,0.1,0
		C177.6,393.3,177.6,393.5,177.6,393.7z M177.6,394.5L177.6,394.5l-0.1-0.5c0,0,0,0,0.1,0C177.6,394.2,177.6,394.4,177.6,394.5z"/>
	<path class="st0" d="M131.4,433.9L131.4,433.9l-0.4-0.1v-0.1h-0.4v-0.1h-0.4v-0.1h-0.4l0,0h-0.4v-0.1H129v-0.1h-0.8v-0.1H128v-0.1
		h-0.1l0,0l0,0V433l0,0v-9.7l0,0v-0.1l0,0l0,0h0.1v-0.1l0,0l0,0l0,0l0,0h-0.1v-0.2l0,0v-0.4l0,0h0.1v-0.1h0.1v-0.1l0,0l0,0l0,0h-0.4
		v-0.2h-0.1V422h-0.1v-0.1h0.5v-0.1h0.2v-0.3h-0.1l0,0H128v-0.1h0v-0.1l0,0l0,0c0,0,0,0,0-0.1l-0.1-0.2c0,0-0.1,0.1-0.1,0.2
		c0,0,0,0,0,0.1l0,0l0,0v0.1h-0.1v0.1h-0.1l0,0h-0.1v0.1h0.2v0.1h-0.1v0.1h-0.4l0,0h-0.1v-0.5h0.1v-0.1h-0.1v-1.3h0.1v-0.1h-0.1
		v-0.3h0.3v-0.1l0,0v-0.1c0,0-0.1,0-0.2-0.1c-0.1-0.1-0.1-0.1-0.1-0.1l0,0v-0.2l0,0v-0.1l0,0l0,0h-0.2l0,0l0,0v-0.1h0.1v-0.2h-0.1
		v-0.1h0.1v-0.1h0.1v-0.1h0.1l-0.5-0.2h-1l-0.5,0.2h0.1v0.1h0.1v0.1h0.1v0.1h-0.1v0.3h0.1v0.1l0,0l0,0h-0.2l0,0h-1.7v-4.1l0,0v-0.9
		l0,0v-0.1h-0.1v-0.2l0,0v-0.1h-0.1v-0.2h0.1v-0.1h-0.1v-0.1V413v-0.1h-1.1v-0.1h-2v-1.5l0,0c0,0,0-0.1-0.1-0.1c0,0-0.1,0-0.1,0.1
		l0,0v0.1c-0.1,0-0.2,0.1-0.4,0.1c-0.3,0-0.3,0-0.6-0.1v0.5c0.3,0.1,0.3,0.1,0.6,0.1c0.2,0,0.3,0,0.4-0.1v0.8h-2.4v-1.2l0,0v-0.2
		h-0.2v-0.2h-0.1l0,0h-0.2l0,0h-0.5V411h-1.6v0.1h-0.8v0.2h-0.2v0.2l0,0v1.3h-4.5v0.1h-1.1v0.1v0.1v0.1h-0.1v0.1h0.1v0.2h-0.1v0.1
		l0,0v0.2h-0.1v0.1l0,0v0.9l0,0v4.1h-1.7l0,0h-0.2l0,0l0,0v-0.1l0,0v-0.3l0,0v-0.1l0,0v-0.1h0.1v-0.1h0.1l-0.5-0.2h-1l-0.5,0.2h0.1
		v0.1h0.1v0.1l0,0v0.1l0,0v0.3l0,0v0.1l0,0l0,0h-0.2l0,0l0,0v0.1l0,0v0.2l0,0c0,0,0,0.1-0.1,0.1s-0.2,0.1-0.2,0.1v0.1l0,0l0,0h0.3
		v0.3h-0.1v0.1h0.1v1.3h-0.1v0.1h0.1v0.5h-0.1l0,0h-0.4v-0.1H104v-0.1h0.2v-0.1h-0.1l0,0H104v-0.1h-0.1v-0.1l0,0l0,0c0,0,0,0,0-0.1
		l-0.1-0.2c0,0-0.1,0.1-0.1,0.2c0,0,0,0,0,0.1l0,0l0,0v0.1h-0.1v0.1h-0.1l0,0h-0.1v0.1h0.2v0.1h-0.1v0.1h-0.1v0.1h-0.1v0.2h-0.4l0,0
		l0,0l0,0v0.1h0.1v0.1h0.1l0,0v0.3l0,0v0.2H103l0,0l0,0l0,0l0,0v0.1h0.1l0,0l0,0v0.1l0,0v9.7l0,0v0.1l0,0l0,0H103v0.1h-0.2v0.1H102
		v0.1h-0.4v0.4h0.4v0.1h-0.4v0.1h-0.4v0.1h-0.4v0.1h-0.4v0.1H100v0.1h31.5V434h-0.1V433.9z M127.7,423.1L127.7,423.1L127.7,423.1
		v0.2l0,0v9.7l0,0v0.1l0,0l0,0h-0.1v0.1h-0.1v-0.1h-0.1l0,0l0,0V433l0,0v-9.7l0,0v-0.1l0,0l0,0h0.1v-0.1H127.7L127.7,423.1
		L127.7,423.1z M104.2,433.2L104.2,433.2L104.2,433.2V433l0,0v-9.7l0,0v-0.1l0,0l0,0h0.1v-0.1h0.1v0.1h0.1l0,0l0,0v0.1l0,0v9.7l0,0
		v0.1l0,0l0,0h-0.1v0.1H104.2L104.2,433.2L104.2,433.2z"/>
	<path class="st0" d="M-39.3,431.3V426h-1v-1.7h-0.2v-3.4h-1.3c-0.1-0.4-0.2-0.8-0.3-1.3c-0.3-0.3-0.6-0.3-0.6-0.3s-0.3-0.8-0.5-0.9
		c-0.1-0.1-0.5-0.2-0.9-0.2v-0.4h-0.2v-0.1c0.1,0,0.2,0,0.2,0s-0.1,0-0.2,0v-0.1c0.1,0,0.2,0,0.2,0s-0.1,0-0.2,0v-0.1
		c0.1,0,0.2,0,0.2,0s-0.1,0-0.2,0v-0.1c0.1,0,0.2,0,0.2,0s-0.1,0-0.2,0v-0.1c0.1,0,0.2,0,0.2,0s-0.1,0-0.2,0v-0.1c0.1,0,0.2,0,0.2,0
		s-0.1,0-0.2,0v-0.1c0.1,0,0.2,0,0.2,0s-0.1,0-0.2,0V417c0.1,0,0.2,0,0.2,0s-0.1,0-0.2,0v-0.1c0.1,0,0.2,0,0.2,0s-0.1,0-0.2,0
		l-0.1-2.1l-0.1,2.1c-0.1,0-0.2,0-0.2,0s0.1,0,0.2,0v0.1c-0.1,0-0.2,0-0.2,0s0.1,0,0.2,0v0.1c-0.1,0-0.2,0-0.2,0s0.1,0,0.2,0v0.1
		c-0.1,0-0.2,0-0.2,0s0.1,0,0.2,0v0.1c-0.1,0-0.2,0-0.2,0s0.1,0,0.2,0v0.1c-0.1,0-0.2,0-0.2,0s0.1,0,0.2,0v0.1c-0.1,0-0.2,0-0.2,0
		s0.1,0,0.2,0v0.1c-0.1,0-0.2,0-0.2,0s0.1,0,0.2,0v0.1c-0.1,0-0.2,0-0.2,0s0.1,0,0.2,0v0.1h-0.2v0.3c-0.4,0-0.7,0-0.7,0l-0.1-1.3
		l-0.2,1.3h-0.7v-1H-47v1h-0.3l-0.1-2l-0.2,2c0,0-1.2,0.2-1.4,0.3c-0.2,0.1-0.5,0.9-0.5,0.9s-0.3,0.1-0.6,0.3
		c-0.1,0.4-0.2,0.8-0.3,1.3h-1.3v3.4H-52v1.7h-1v5.3h-0.4v2.6h14.3v-2.6C-39.1,431.3-39.3,431.3-39.3,431.3z"/>
	<polygon class="st0" points="146.2,423.5 146.2,416.3 146.9,416.3 146.9,415.8 146.2,415.8 146.2,414.6 146.9,414.6 146.9,414.1 
		146.2,414.1 146.2,412.9 146.9,412.9 146.9,412.5 146.2,412.5 146.2,411.2 146.9,411.2 146.9,410.8 146.2,410.8 146.2,409.6 
		146.9,409.6 146.9,409.1 146.2,409.1 146.2,407.9 146.9,407.9 146.9,407.4 146.2,407.4 146.2,406.2 146.9,406.2 146.9,405.7 
		146.2,405.7 146.2,404.5 146.9,404.5 146.9,404.1 146.2,404.1 146.2,402.8 146.9,402.8 146.9,402.4 146.2,402.4 146.2,401.2 
		146.9,401.2 146.9,400.7 146.2,400.7 146.2,399.3 145.1,399.3 145.1,398.8 143.7,398.8 143.7,398.3 142.2,398.3 142.2,396.1 
		142.8,396.1 142.8,395.4 142.2,395.4 142.2,394.9 141.3,394.9 141.3,394.2 139.8,394.2 139.8,394.9 139,394.9 139,395.4 
		138.4,395.4 138.4,396.1 139,396.1 139,398.3 137.4,398.3 137.4,398.8 136.1,398.8 136.1,399.3 135,399.3 135,400.7 134.2,400.7 
		134.2,401.2 135,401.2 135,402.4 134.2,402.4 134.2,402.8 135,402.8 135,404.1 134.2,404.1 134.2,404.5 135,404.5 135,405.7 
		134.2,405.7 134.2,406.2 135,406.2 135,407.4 134.2,407.4 134.2,407.9 135,407.9 135,409.1 134.2,409.1 134.2,409.6 135,409.6 
		135,410.8 134.2,410.8 134.2,411.2 135,411.2 135,412.5 134.2,412.5 134.2,412.9 135,412.9 135,414.1 134.2,414.1 134.2,414.6 
		135,414.6 135,415.8 134.2,415.8 134.2,416.3 135,416.3 135,423.5 132.8,423.5 132.8,433.9 148.3,433.9 148.3,423.5 	"/>
	<path class="st0" d="M-60.3,433.6v-4h-0.8v-0.3l-2.1-1.6v-1.1h-0.2v0.2h-0.3v-0.2h-0.2v0.2h-0.4v-0.2h-0.2v0.2h-0.4v-0.2h-0.2v0.2
		h-0.2v-2.6h0.7l-5.2-4.7l-2.9,2.5v-1.9h-0.1V420h-0.9v0.1h-0.1v2.9l-1.3,1.1h0.7v5.5h-0.8v4h-0.5v0.4h15.8v-0.4H-60.3z
		 M-63.7,426.9h0.3v0.8h-0.3V426.9z M-64.2,426.9h0.4v0.8h-0.4V426.9z M-64.8,426.9h0.4v0.8h-0.4V426.9z M-65.2,426.9h0.2v0.8h-0.2
		V426.9z"/>
	<polygon class="st0" points="-95.5,427.6 -95.5,427.6 -95.5,425.6 -95.3,425.6 -95.3,425.1 -95,425.1 -95,425.6 -94.8,425.6 
		-94.8,426.5 -93.6,424.6 -91.8,427.6 -91.3,427.6 -91.3,430.5 -90.6,430.5 -90.6,430.2 -90.5,430.2 -90.5,430.1 -90.4,428.8 
		-90.4,429 -90.1,429 -90.1,429.2 -90.4,429.2 -90.4,430.1 -90.4,430.2 -90.3,430.2 -90.3,430.7 -89.9,430.7 -89.3,430.9 
		-89.3,432.7 -88.9,432.7 -88.9,433.9 -96,433.9 -96,427.6 	"/>
	<polygon class="st0" points="29,433.9 29,432.2 28.5,432.1 28.4,432.1 28.4,432 28.3,431.9 28.7,431.7 29,431.7 29,431.5 
		28.9,431.4 33.7,428.9 33.7,428.8 33.6,428.8 33.6,428.7 33.8,428.7 33.8,427.3 33.6,427.2 33.5,427.2 33.5,427.1 33.4,427.1 
		33.9,426.8 34,426.8 34,426.6 33.9,426.6 36.5,425.1 37.1,425.1 37.1,423.9 37,423.9 37,423.8 36.9,423.7 36.8,423.7 36.8,423.7 
		36.7,423.6 38.5,422.7 39.5,423.2 42.6,421.3 42.6,420.6 42.4,420.6 42.4,420.5 42.3,420.4 42.2,420.4 42.2,420.4 42.2,420.3 
		44.1,419.3 46,420.3 45.9,420.4 45.9,420.4 45.8,420.4 45.7,420.5 45.7,420.6 45.6,420.6 45.6,421.3 47.8,422.6 47.8,418.1 
		50.1,416.6 51.1,416.6 52.2,415.9 52.2,415.2 52.1,415.2 52.1,415.1 52,415 51.9,415 51.9,415 51.8,414.9 53.6,413.8 55.4,414.9 
		55.3,415 55.3,415 55.2,415 55.1,415.1 55.1,415.2 55,415.2 55,415.9 55.5,416.2 55.5,415.8 55.4,415.8 55.4,415.7 55.3,415.7 
		55.2,415.7 55.2,415.6 55.2,415.6 56.8,414.6 58.3,415.4 58.5,415.3 58.5,414.6 58.4,414.6 58.4,414.6 58.3,414.5 58.2,414.5 
		58.2,414.4 58.1,414.4 60,413.3 61.9,414.4 61.8,414.4 61.8,414.5 61.7,414.5 61.7,414.6 61.7,414.6 61.5,414.6 61.5,415.3 
		62.7,416 63.3,416 66,417.5 65.9,417.6 65.9,417.8 66.1,417.8 66.6,418.1 66.5,418.1 66.5,418.2 66.3,418.2 66.2,418.3 66.2,418.4 
		65.8,418.4 65.8,426 66.1,425.8 67.1,425.8 68.2,425.1 68.2,424.3 68,424.3 68,424.3 68,424.2 67.9,424.2 67.9,424.1 67.8,424.1 
		69.6,422.9 71.4,424.1 71.3,424.1 71.3,424.2 71.2,424.2 71.1,424.3 71.1,424.3 71,424.3 71,427.4 72.1,428.2 73.1,428.2 
		75.3,429.6 75.3,427.8 75.1,427.8 75.1,427.7 75.1,427.7 75,427.7 75,427.6 74.9,427.6 75.3,427.3 75.3,426 75.1,426 75.1,425.9 
		75.1,425.9 75,425.9 75,425.8 74.9,425.8 76.5,424.8 77.9,425.7 77.9,425.1 77.8,425.1 77.8,425 77.7,424.9 77.6,424.9 77.6,424.9 
		77.6,424.8 79.3,423.7 81,424.8 81,424.9 81,424.9 80.9,424.9 80.8,425 80.8,425.1 80.7,425.1 80.7,425.3 82.4,426.4 82.9,426.4 
		84.3,427.3 84.8,427 86.6,428.1 86.5,428.2 86.5,428.2 86.4,428.2 86.4,428.3 86.4,428.4 86.2,428.4 86.2,428.7 87.1,428.1 
		88.2,428.1 88.2,421.7 88,421.7 88,421.6 88,421.6 87.9,421.6 87.9,421.5 87.8,421.4 89.5,420.3 91.3,421.4 91.2,421.5 91.2,421.6 
		91.1,421.6 91.1,421.6 91.1,421.7 90.9,421.7 90.9,422.8 91.9,422.2 93.3,423.1 93.2,423.1 93.2,423.1 93.1,423.1 93.1,423.2 
		93.1,423.2 93,423.2 93,425.5 93,425.5 94.8,426.6 94.7,426.7 94.7,426.7 94.6,426.7 94.5,426.8 94.5,426.9 94.4,426.9 94.4,427.5 
		94.6,427.7 94.9,427.7 94.9,427.5 94.8,427.5 94.8,427.5 94.7,427.4 94.6,427.4 94.6,427.3 94.6,427.3 96.1,426.3 97.6,427.3 
		97.6,427.3 97.6,427.4 97.5,427.4 97.4,427.5 97.4,427.5 97.3,427.5 97.3,428.1 99.5,429.3 99.3,429.4 99.3,429.5 99.6,429.5 
		100.1,429.8 100,429.8 100,429.9 99.9,429.9 99.4,430 99.4,431.3 99.6,431.3 99.6,431.4 99.5,431.4 99.5,432.3 99.6,432.3 
		99.6,432.4 99.4,432.4 99.4,433.9 	"/>
	<polygon class="st0" points="44,399.3 43.2,399.3 43.2,393.2 43,393.2 43,391.9 41.8,391.9 41.8,390.9 40.5,389.8 40.5,389.7 
		39.7,389.1 39.7,388.9 39.1,388.4 39.1,388.2 38.2,387.5 38.2,386.7 38.2,387.5 37.3,388.2 37.3,388.4 36.7,388.9 36.7,389.1 
		35.9,389.7 35.9,389.8 34.6,390.9 34.6,391.9 33.4,391.9 33.4,393.2 33.2,393.2 33.2,399.3 32.4,399.3 32.4,433 31.7,433 
		31.7,433.9 44.7,433.9 44.7,433 44,433 	"/>
	<path class="st0" d="M7.5,431.7v-6.5h-1v-1.8h0.7v-8.7H6.5v-1.6h0.2v-5H6.6v-2.3H6.4v-5.9L2.3,402l-4.9,1.1v10h0.2v1.6h-0.7v8.7
		h0.7v1.8h-1v6.5h-0.2v2.3H7.6L7.5,431.7C7.6,431.7,7.5,431.7,7.5,431.7z M5.1,426.8H4.9v-1.5h0.2V426.8z M5.1,417v1.3H4.9V417H5.1z
		 M-1.1,417h0.2v1.3h-0.2V417z M-1.1,425.3h0.2v1.5h-0.2V425.3z"/>
	<path class="st0" d="M11.5,429.9H12v0.3h-0.5v3.8H4.6v-3.8H4.1v-0.3h0.5v-3.3H3.1l4.4-4.4V421h0.1v-0.2h0.2v0.2h0.1v-0.2h0.2v0.2
		h0.1v-0.2h0.2v0.2h0.1v1.2l4.4,4.4h-1.5L11.5,429.9L11.5,429.9z M8.3,424.6C8.3,424,8,424,8,424s-0.3,0-0.3,0.6s0,0.6,0,0.6h0.5
		C8.3,425.1,8.3,425.1,8.3,424.6z"/>
</g>
<g id="statue_of_liberty">
</g>
</svg>
