<?xml version="1.0" encoding="utf-8"?>
<!-- Generator: Adobe Illustrator 19.0.0, SVG Export Plug-In . SVG Version: 6.00 Build 0)  -->
<svg version="1.1" id="Layer_1" xmlns="http://www.w3.org/2000/svg" xmlns:xlink="http://www.w3.org/1999/xlink" x="0px" y="0px"
	 viewBox="-123 351.5 363.8 91.5" style="enable-background:new -123 351.5 363.8 91.5;" xml:space="preserve">
<g id="ground">
	<rect x="-123.2" y="432.9" width="364" height="10.2"/>
</g>
<g id="new_york">
	<polygon points="150.7,433.3 150.7,432.8 151.1,432.8 151.1,431.8 151.3,431.8 151.3,431 151.1,430.7 151.3,430.4 151.3,428.2 
		151.1,428 152.6,425.9 153.8,425.9 155.7,428 155.7,423.9 156.8,422.5 158,422.5 158.8,423.5 160,421.9 161.7,421.9 163.3,424 
		163.3,425 164,425.9 164,421.5 163.6,421.2 165.1,419.7 166.6,419.7 168,421.2 168,421.6 168.8,420.6 169.9,420.6 171.4,422.6 
		171.2,422.9 171.2,423.8 173.8,423.8 173.8,423.5 174.1,423.5 174.1,422.2 173.8,422.2 173.8,421.8 174.1,421.8 174.1,420.6 
		173.8,420.6 173.8,420.1 174.1,420.1 174.1,418.9 173.8,418.9 173.8,418.5 174.1,418.5 174.1,417.2 173.8,417.2 173.8,416.8 
		174.1,416.8 174.1,415.5 173.8,415.5 173.8,415.1 174.1,415.1 174.1,414.7 175.1,414.7 176.3,413.1 176.3,412.8 177.5,412.8 
		177.5,412.4 178.7,410.9 178.7,409.9 179.5,409.9 179.5,409.8 182.5,409.8 182.5,410.3 184,412.4 186.2,412.4 186.2,413 
		187.5,414.7 189,414.7 189,415.1 189.3,415.1 189.3,415.5 189,415.5 189,416.8 189.3,416.8 189.3,417.2 189,417.2 189,418.5 
		189.3,418.5 189.3,418.9 189,418.9 189,420.1 189.3,420.1 189.3,420.6 189,420.6 189,421.8 189.3,421.8 189.3,422.2 189,422.2 
		189,423.5 189.3,423.5 189.3,423.8 190.3,423.8 191,425 191.9,425 192.7,423.8 194.6,423.8 194.6,419.9 194.4,419.7 196,417.6 
		197.7,417.6 198.1,418.1 198.5,417.6 200.2,417.6 200.4,417.9 200.6,417.6 202.3,417.6 203.1,418.6 203.1,418.3 204.5,416.7 
		206.1,416.7 207.5,418.3 207.1,418.6 207.1,420.7 207.9,419.8 207.9,418.8 209.4,416.7 211.2,416.7 212.4,418.3 213.1,417.3 
		214.4,417.3 215.5,418.7 216.3,418.2 217.8,416.2 219,416.2 220.5,418.2 220.3,418.5 220.3,420.7 220.5,421 220.3,421.3 
		220.3,427.9 225.5,427.9 225.5,431.4 229.9,431.4 229.9,433.1 231.6,433.1 231.6,433.9 150,433.9 150,433.3 	"/>
	<polygon points="32.5,423.9 32.5,418.3 31,418.3 31,413.7 30.3,413.7 30.3,379.5 30.1,379.5 30.1,379.3 29.3,379.3 29.3,379.2 
		30.1,379.2 29.9,379 29.7,379 29.7,378.9 29.6,378.9 29.6,379 29,379 29,378.9 29,378.9 29,378.7 28.7,378.3 28.7,378 27.8,378 
		27.8,378.3 27.5,378.7 27.5,379 26.9,379 26.9,378.9 26.8,378.9 26.8,379 26.2,379 26.2,378.9 26.1,378.9 26.1,379 25.5,379 
		25.5,378.9 25.4,378.9 25.4,379 24.8,379 24.8,378.9 24.7,378.9 24.7,379 24.1,379 24.1,378.9 24,378.9 24,379 23.4,379 
		23.4,378.9 23.3,378.9 23.3,379 22.7,379 22.7,378.9 22.6,378.9 22.6,379 22,379 22,378.9 21.9,378.9 21.9,379 21.3,379 
		21.3,378.9 21.2,378.9 21.2,379 20.6,379 20.6,378.9 20.5,378.9 20.5,379 19.9,379 19.9,378.9 19.8,378.9 19.8,379 19.2,379 
		19.2,378.9 19.1,378.9 19.1,379 18.9,379 18.7,379.2 19.4,379.2 19.4,379.3 18.7,379.3 18.7,379.5 18.5,379.5 18.5,413.7 
		17.8,413.7 17.8,418.3 16.3,418.3 16.3,423.9 15.1,423.9 15.1,433.9 33.6,433.9 33.6,423.9 	"/>
	<polygon points="-10.1,420.2 -10.1,418.6 -9.9,418.6 -9.9,417.2 -9.6,417.2 -9.6,415.8 -8.1,415.8 -8.1,417.2 -7.9,417.2 
		-7.9,418.6 1.5,418.6 1.5,422.2 5.2,422.2 5.2,416.9 12.2,416.9 12.2,417.2 12.8,417.2 12.8,419.1 12.3,419.1 12.1,420.3 
		12.5,420.3 12.5,421.6 12,421.6 11.9,422.8 12.2,422.8 12.2,424.2 11.7,424.2 11.6,425.4 11.9,425.4 11.9,426.7 11.5,426.7 
		11.4,427.9 11.6,427.9 11.6,429.2 11.2,429.2 11.1,430.4 11.3,430.4 11.3,433.9 -10.7,433.9 -10.7,420.2 	"/>
	<path d="M69.2,429.8L69.2,429.8l-1.6-0.1v-2.1h-0.2v-0.1h-1.2v-9.8l-0.2-0.2h-1.4v-2.1h-0.3v-3h-0.2v-0.2h-0.8v-33.7H63v-5.1h-0.8
		v-3.1h-0.6v-1.8l-0.5-0.1v-0.8H61v-0.1h-0.6l-0.6-2.6h-0.4l-0.2-3.3l-0.1-2.3l0,0c0.1,0,0.3-0.1,0.3-0.3c0-0.1-0.1-0.3-0.3-0.3l0,0
		v-0.9c0.1,0,0.1-0.1,0.1-0.2s-0.1-0.2-0.1-0.2l-0.2-6h-0.3l-0.2,6c-0.1,0-0.1,0.1-0.1,0.2s0.1,0.2,0.1,0.2v0.9l0,0
		c-0.1,0-0.3,0.1-0.3,0.3c0,0.1,0.1,0.3,0.3,0.3l0,0l-0.1,2.3l-0.2,3.3h-0.4l-0.7,2.6h-0.6v0.1h-0.2v0.8l-0.5,0.1v1.8H55v3.1h-0.8
		v5.1H54v33.7h-0.8v0.2H53v3h-0.3v2.1h-1.4l-0.3,0.2v9.8h-1.2v0.1h-0.2v2.1H48v0.1l0,0v4.1h21.4v-4.1
		C69.4,429.8,69.2,429.8,69.2,429.8z"/>
	<path d="M161,433.9v-1.4h-0.2v-12h-0.3v0.1h-1.3v-4.7h-0.6v-0.3h-0.1v-0.3h0.1v-0.2h-0.4v-0.8h0.2v-0.8h-0.9v-1.4h0.2
		c0,0,0-0.8,0-1c0-0.3-0.1-0.9-0.1-0.9h-0.1l0.2-0.9l-0.1-0.1L157,410v-17.5h-0.1v-0.8c0,0,0.1-0.6,0.1-0.7s0.1-0.3,0.1-0.3
		s0.2,0.1,0.3,0c0.1-0.1,0-0.4,0-0.4l0.2,0.1c0,0,0.1-0.1,0.1-0.2c0-0.1-0.2-0.3-0.5-0.3s-0.6,0-0.6,0v-4.7h-0.2v-0.1h-0.6v-2.4
		h-0.2c0,0-0.1-1-0.1-1.4c0-0.4,0-1,0-1h-0.2v-1.9h-0.2l-0.1,0.1c0-1.1,0-2.1,0-2.1s-0.3-0.1-0.3,0c0-0.9,0.1-2.6,0.1-2.6
		s-0.3-0.1-0.3,0c0-1,0-2.8,0-2.8h-0.3v-1.9c0,0-0.3-0.1-0.4,0c-0.2-1.1-0.6-2-0.6-2v-7.6h-0.3v7.5c0,0-0.4,1-0.6,2
		c-0.1-0.1-0.4,0-0.4,0v1.9h-0.3c0,0,0,1.8,0,2.8h-0.3c0,0,0,1.6,0.1,2.6c0-0.1-0.3,0-0.3,0s0,0.9,0,2.1l-0.1-0.1h-0.2v1.9h-0.2
		c0,0,0,0.6,0,1c0,0.4-0.1,1.4-0.1,1.4h-0.2v2.4h-0.6v0.1h-0.2v4.7c0,0-0.3-0.1-0.6,0c-0.3,0-0.5,0.2-0.5,0.3s0.1,0.2,0.1,0.2
		l0.2-0.1c0,0-0.1,0.3,0,0.4s0.3,0,0.3,0s0.1,0.2,0.1,0.3s0.1,0.7,0.1,0.7v0.9h-0.1V410l-0.6-0.8l-0.1,0.1l0.2,0.9h-0.1
		c0,0-0.1,0.6-0.1,0.9c0,0.3,0,1,0,1h0.2v1.4H147v0.7h0.2v0.8h-0.4v0.2h0.1v0.3h-0.1v0.3h-0.6v4.7h-1.3l0,0h-0.3v12h-0.2v1.4H161z"
		/>
	<path d="M123.1,420.8L123.1,420.8l-0.5-0.3l-0.1,0.1h-0.2v-0.1l-4.8-1.6h-1.7v-0.3v-0.2h-0.1v-0.7v-0.2h-1.4v-0.6l0.1-0.1v-0.3
		l0.1-0.1h-0.2V416h-0.1v-0.1h-0.1v-3.3h0.1v-0.1v-0.1H114v-0.2h0.1v-0.1l0,0V412H114v-0.2h0.2v-0.1l0.1-0.2v-0.1H114v-0.1l0,0v-0.6
		h0.1v-0.2h-0.9v-1.1h0.1l0,0v-0.1h-0.1v-0.1l0,0v-0.1l0,0v-0.2h0.2v-0.1l0,0v-0.1h0.1v-0.1h-0.2l0,0H113v-0.5l0,0V408h-0.2v-0.2
		v-0.1l0,0v-0.1h-0.1v-0.1l-0.1-0.1c0,0,0.1-2.2-1.2-3.4c-1-1-2-1.4-2-1.4s0-0.1,0.1-0.1l0.1-0.2l0,0v-0.6l0,0v-0.1h-0.1v-0.5l0,0
		l0,0l0,0H109v-0.3l0,0v-0.1l0,0l0,0h-0.1v-0.1h0.1v-1.3l0,0v-0.1l0,0v-0.1l0,0V399h0.1l0,0l0,0l0,0H109l0,0c0,0,0,0,0-0.1v-0.1l0,0
		l0,0l0,0v-0.1c0,0-0.2-0.1-0.3-0.2s-0.1-0.3-0.1-0.3l0,0v-0.1l0,0c0,0,0-0.1,0-0.2c-0.1-0.1-0.2-0.1-0.2-0.1l0,0c0,0,0,0-0.1,0
		v-0.1l0,0c0,0,0.1,0,0.1-0.1s-0.1-0.1-0.1-0.1v-0.3l0,0l0,0v-0.1h-0.1v-0.2h0.1l0,0l0,0c0,0,0,0,0-0.1c0,0,0-0.1-0.1-0.1
		c0,0-0.1,0-0.1,0.1v0.1l0,0c0,0,0,0-0.1,0v-0.3l0,0v-0.1l0,0v0.1l0,0v0.3h-0.1l0,0c0,0,0,0,0-0.1v-0.1c0,0-0.1,0-0.1,0.1v0.1l0,0
		l0,0h0.1v0.2h-0.1v0.1l0,0l0,0v0.3l-0.1,0.1c0,0.1,0.1,0.1,0.1,0.1l0,0v0.1h-0.1l0,0c0,0-0.1,0-0.2,0.1c-0.1,0.1,0,0.2,0,0.2l0,0
		v0.1l0,0c0,0,0,0.1-0.1,0.3s-0.3,0.2-0.3,0.2v0.1l0,0l0,0l0,0v0.1c0,0.1,0,0.1,0,0.1l0,0H107l0,0l0,0l0,0h0.1v0.1l0,0v0.1l0,0v0.1
		l0,0v1.3H107v0.1h-0.1l0,0l0,0v0.1l0,0v0.3h-0.5l0,0l0,0l0,0v0.5h-0.1v0.1l0,0v0.6l0,0c0,0,0,0.1,0.1,0.2l0.1,0.1c0,0-1,0.4-2,1.4
		c-1.3,1.2-1.2,3.4-1.2,3.4l-0.1,0.1v0.1h-0.1v0.1l0,0v0.1v0.2h-0.2v0.1l0,0v0.5h-0.2l0,0h-0.2v0.1h0.1v0.1l0,0v0.1h0.2v0.2l0,0v0.1
		l0,0v0.1h-0.1v0.1l0,0h0.1v1.1h-0.9v0.1h0.1v0.6l0,0v0.1h-0.4v0.2l0.1,0.2v0.1h0.2v0.2h-0.1v0.1l0,0v0.1h0.1v0.2h-0.2v0.1v0.1h0.1
		v3.3h-0.1v0.1h-0.1v0.4h0.4v0.1v0.2l0.1,0.1v0.6h-1.4v0.2v0.7h-0.1v0.2v0.3H99l-4.8,1.6v0.1H94l-0.1-0.1l-0.5,0.2v0.1h-0.1v0.1l0,0
		v0.1l0,0c0,0,0,0,0,0.1h0.1l0,0l0,0v0.3h0.2v0.2h0.2v0.3l0,0v0.1l0,0v0.7l0,0v0.1l0,0v0.6l0,0v0.2l0,0v5.2h-0.2v2.7h-0.2v2.6h29.3
		v-2.6h-0.2v-2.7h-0.2v-5.2l0,0v-0.1l0,0v-0.6l0,0v-0.1l0,0V422l0,0v-0.1l0,0v-0.4h0.2v-0.1h0.2v-0.3l0,0l0,0h0.1V421l0,0
		L123.1,420.8L123.1,420.8L123.1,420.8L123.1,420.8z M109.5,401.2L109.5,401.2v0.5l0,0V401.2z M109.4,401.2L109.4,401.2v0.5l0,0
		V401.2z M107,401.7L107,401.7v-0.5l0,0V401.7z M107,401.7L107,401.7v-0.5l0,0V401.7z M107.1,401.7L107.1,401.7v-0.5l0,0V401.7z
		 M107.2,401.7L107.2,401.7v-0.5l0,0V401.7z M107.2,401.7L107.2,401.7v-0.5l0,0V401.7z M107.3,401.7L107.3,401.7v-0.5l0,0V401.7z
		 M107.3,401.7L107.3,401.7v-0.5l0,0V401.7z M108.5,399.8v0.9l0,0l0,0h-0.6l0,0l0,0v-0.9l0,0v-0.2l0,0c0-0.2,0.1-0.3,0.3-0.3
		s0.3,0.1,0.3,0.3l0,0V399.8L108.5,399.8z M109.1,401.7L109.1,401.7v-0.5l0,0V401.7z M109.2,401.7L109.2,401.7v-0.5l0,0V401.7z
		 M109.3,401.7L109.3,401.7v-0.5l0,0V401.7z M109.3,401.7L109.3,401.7v-0.5l0,0V401.7z M109.4,401.7L109.4,401.7v-0.5l0,0V401.7z"/>
	<path d="M222.6,426v-1.8h-0.3v-0.3h0.3v-0.8h-0.2v-0.3h0.2v-0.3h0.2v-0.3h1.9v0.3h0.2v0.2h0.2v0.3h-0.2v0.8h0.3v0.3h-0.3v1.8h0.4
		v0.2h0.3c0,0,0-0.4,0.5-0.9s1.7-0.3,1.7-0.3s0.1-0.1,0.1-0.3c0-0.2-0.3-0.7-0.3-0.7s0.5,0,0.5-0.4s-0.4-1-0.4-1.2
		c0-0.2,0.1-0.4,0.4-0.4s0.3,0.2,0.3,0.2s0.1,0,0.2,0V422c0,0,0.8,0,1.2-0.5c0.3-0.3,0.4-0.6,0.5-0.8c-0.1,0-0.2-0.1-0.2-0.2
		s0.1-0.2,0.2-0.2h0.1v-0.2h-0.1v-0.4h0.1v-0.4h0.2v-0.8h-0.4v-0.2h0.4v-0.5h0.2v0.5h0.4v0.2h-0.4v0.9h0.2v0.4h0.1v0.4H231v0.2h0.1
		c0.1,0,0.2,0.1,0.2,0.2s-0.1,0.2-0.2,0.2c0.1,0.2,0.2,0.5,0.5,0.8c0.5,0.5,1.2,0.5,1.2,0.5v0.1c0.1,0,0.2,0,0.2,0s0.1-0.2,0.3-0.2
		c0.3,0,0.4,0.2,0.4,0.4c0,0.2-0.4,0.8-0.4,1.2s0.5,0.4,0.5,0.4s-0.3,0.5-0.3,0.7c0,0.2,0.1,0.3,0.1,0.3s1.2-0.2,1.7,0.3
		s0.5,0.9,0.5,0.9h0.3V426h0.4v-1.8h-0.3v-0.3h0.3v-0.8h-0.2v-0.3h0.2v-0.3h0.2v-0.3h1.9v0.3h0.2v0.2h0.2v0.3h-0.2v0.8h0.3v0.3h-0.3
		v1.8h0.4v0.6h-0.4v7.4h-16.2v-7.4h-0.4V426H222.6z"/>
	<path d="M-90.6,430.2v3.7h10.3v-3.7l-0.7-0.5v-9.8l-0.2,1.5h-1l-0.1-0.5l-0.1,0.5h-1l-0.2-1.5v6.1l-2-1.5v-0.2c0,0,0.1,0,0.1-0.1
		h0.1l0,0h-0.1c0,0,0-0.1-0.1-0.1V424h-0.1v0.1c0,0-0.1,0-0.1,0.1h-0.1l0,0h0.1c0,0,0,0.1,0.1,0.1v0.2l-1.9,1.5v-6.1l-0.2,1.5h-1
		l-0.1-0.5l-0.1,0.5h-1l-0.2-1.5v9.8L-90.6,430.2z M-85.5,424.2L-85.5,424.2L-85.5,424.2L-85.5,424.2z M-85.5,424.3
		C-85.5,424.3-85.5,424.2-85.5,424.3L-85.5,424.3L-85.5,424.3z M-88.5,423.3h-0.3c0,0,0,0,0-0.3s0.1-0.3,0.1-0.3s0.1,0,0.1,0.3
		C-88.5,423.3-88.5,423.3-88.5,423.3z M-85.4,424.2L-85.4,424.2L-85.4,424.2L-85.4,424.2z M-85.4,424.3L-85.4,424.3L-85.4,424.3
		C-85.4,424.2-85.4,424.3-85.4,424.3z M-82.1,423.3h-0.3c0,0,0,0,0-0.3s0.1-0.3,0.1-0.3s0.1,0,0.1,0.3
		C-82.1,423.3-82.1,423.3-82.1,423.3z"/>
	<polygon points="-65.6,430.6 -66.1,430.6 -63.2,427.9 -63.2,425.7 -60.7,422.1 -60.2,422.1 -60.2,420.2 -60.4,420.2 -60.4,419.5 
		-60.2,419.5 -60.2,419 -60,419 -60,419.5 -59.8,419.5 -59.8,419 -59.6,419 -59.6,419.5 -59.4,419.5 -59.4,419 -59.2,419 
		-59.2,419.5 -59,419.5 -59,420.2 -59.2,420.2 -59.2,422.1 -53.4,422.1 -50.8,425.7 -50.8,433.6 -50.4,433.6 -50.4,433.9 
		-66.1,433.9 -66.1,433.6 -65.6,433.6 	"/>
	<path d="M-17.4,433.3v-1.1h0.6v-4h1l-7.1-5.6l-7.1,5.6h1v4h0.6v1.1c-0.5,0.1-0.9,0.3-1.2,0.6h13.5
		C-16.5,433.6-16.9,433.4-17.4,433.3z"/>
	<polygon points="47.9,429 48.2,429 48.2,427.7 49.1,427.7 46.8,425 47.5,425 41.9,418.3 36.3,425 36.9,425 34.6,427.7 35.5,427.7 
		35.5,429 35.8,429 35.8,433.4 35.1,433.4 35.1,433.9 48.6,433.9 48.6,433.4 47.9,433.4 	"/>
	<path d="M11.5,429.9H12v0.3h-0.5v3.8H4.6v-3.8H4.1v-0.3h0.5v-3.3H3.1l4.4-4.4V421h0.1v-0.2h0.2v0.2h0.1v-0.2h0.2v0.2h0.1v-0.2h0.2
		v0.2h0.1v1.2l4.4,4.4h-1.5L11.5,429.9L11.5,429.9z M8.3,424.6C8.3,424,8,424,8,424s-0.3,0-0.3,0.6s0,0.6,0,0.6h0.5
		C8.3,425.1,8.3,425.1,8.3,424.6z"/>
	<path d="M-38.5,427.7v6.2h-10.7v-6.2l2.7-0.8v-0.4h0.3v-0.8h0.4c0-1,0.9-1.4,1.9-1.4s1.9,0.4,1.9,1.4h0.4v0.8h0.3v0.4L-38.5,427.7z
		"/>
	<polygon points="135.2,429.4 135.2,428.5 130.9,426.1 130.9,420 119.8,423 119.8,423.7 119.4,423.7 119.4,424.3 119.8,424.3 
		119.8,433.5 119.1,433.5 119.1,433.9 135.2,433.9 135.2,433.5 134.8,433.5 134.8,429.4 	"/>
	<polygon points="-70.7,427.8 -74,427.8 -75.1,424.2 -75.6,424.2 -75.6,419.9 -77.3,412.8 -77.3,412.1 -77.2,412.1 -77.2,412.1 
		-77.3,412.1 -77.3,411.9 -77.4,411.9 -77.4,412.1 -77.5,412.1 -77.5,412.1 -77.4,412.1 -77.4,412.8 -79.1,419.9 -79.1,424.2 
		-79.6,424.2 -80.7,427.8 -84,427.8 -84,433.9 -70.7,433.9 	"/>
	<polygon points="89.2,402.3 89,402.3 89,393.6 88.6,393.6 88.6,385.2 88.2,385.2 88.2,376.7 86.7,376.3 81.4,376.3 79.8,376.7 
		79.8,385.2 79.4,385.2 79.4,393.6 79,393.6 79,402.3 78.8,402.3 78.8,411.1 78.5,411.1 78.5,433.9 89.5,433.9 89.5,411.1 
		89.2,411.1 	"/>
	<path d="M-6,427.7v-8.8h-0.3v0.3h-0.3v-0.3h-0.3v0.3H-7l-1.1-2.5l-1.1,2.5h-0.1v-0.3h-0.3v0.3h-0.3v-0.3h-0.3v4.6h-0.3v-0.3h-0.3
		v0.3h-0.3v-0.3h-0.3v0.3h-0.3v-0.3H-12v0.3h-1v-0.3h-0.3v0.3h-0.3v-0.3H-14v0.3h-0.3V419h-0.3v0.3H-15V419h-0.3v0.3h-0.1l-1.1-2.5
		l-1.1,2.5h-0.1V419H-18v0.3h-0.3V419h-0.3v8.8l-1.6,0.6v5.6h16.1v-5.6L-6,427.7z M-16.5,425.4h-0.2v-1.1h0.2V425.4z M-16.5,421.2
		h-0.2v-1.1h0.2V421.2z M-8.2,425.4h-0.2v-1.1h0.2V425.4z M-8.2,421.2h-0.2v-1.1h0.2V421.2z"/>
</g>
<g id="statue_of_liberty">
	<path d="M-68.4,433.9V433H-87v-2.3h-4.9v-0.8h-2.8v-0.6h-2.1V426h-0.5v-1.7h-0.4l-0.2-9.1h0.3V414h0.7v-1h0.5v-1h-3.9
		c0,0-1.5-1.6-1.5-8.3c0.5-0.5,0.9-0.8,1.2-1.5c0.2-0.7-0.2-4.2-0.3-5.4c0.4-1.2,0.7-3.9,0.3-5.3c0,0,1.6-2.3,0.2-4.7l-0.1-0.9
		c0,0,0.8-0.6,0.9-3.1c0.1-0.1,0.3-0.5,0.2-0.8c0,0,0.2-0.4,0.7-0.1s0-2.4-0.6-3.2c0,0,0.3-1.2,0.3-1.4c0,0,0.8-0.9,0.6-4.6l0.2,0.2
		c0,0-0.4,0.5,0.3,0.5c0.7,0,0.3-0.5,0.3-0.5s0.3-0.2,0.1-0.5c0.2-0.1,0.3-0.4,0.3-0.7h-0.2v-1c0,0,0.2,0,0.2-0.2
		c0-0.2-0.1-0.2-0.2-0.2c0.1,0,0.3,0,0.3-0.2c0-0.2-0.3-0.3-0.3-0.3v-0.1c0,0,0.3,0,0.3-0.3c0-0.2-0.3-0.2-0.3-0.2v-0.4
		c0,0,0.3,0,0.3-0.2c0-0.2-0.3-0.2-0.3-0.2v-0.2c0,0,0.9-0.2,0.9-0.6c0-0.2-0.2-0.2-0.2-0.2v-0.5c0,0-0.3-0.1-0.7-0.1v-0.3
		c0,0,0.1,0,0.1-0.1s-0.1-0.1-0.1-0.1s0.3-0.1,0.3-0.3s-0.1-0.2-0.1-0.4c0-0.1,0.2-0.5,0.2-0.7c0-0.2-0.3-0.7-0.3-0.9
		c-0.1,0-0.1,0.3-0.2,0.3c-0.1,0-0.1-0.3-0.1-0.3s-0.3,0.1-0.2,0.3c-0.1,0-0.1-0.2-0.2-0.4c-0.1-0.2-0.3-0.3-0.3-0.3
		s-0.3,0.2-0.3,0.4c0,0.3,0.1,0.6,0.1,0.8c0,0.2-0.3,0.5-0.3,0.8c0,0.3,0.2,0.5,0.2,0.5s-0.1,0.1-0.1,0.2c0,0.1,0.1,0.1,0.1,0.1v0.3
		c-0.4,0-0.6,0.1-0.6,0.1v0.7c0,0-0.2,0-0.2,0.2c0,0.4,0.9,0.5,0.9,0.5v0.2c0,0-0.3,0.1-0.3,0.2c0,0.2,0.3,0.3,0.3,0.3v0.4
		c0,0-0.6,0.5-0.8,1.6c-0.5,1.2-0.6,2.4-0.6,2.4s-0.8,2.1-0.9,3.2l-1.4,0.2c0,0,0-0.1-0.1-0.2c-0.1-0.1-0.1-0.2-0.1-0.2l1.8-1.8
		l-2.1,1.5c0,0-0.1-0.1-0.2-0.1c-0.2,0-0.3,0-0.3,0l0.7-2.1l-1.2,2.1c0,0-0.2,0-0.4,0c-0.2,0-0.4,0.2-0.4,0.2l-0.5-1.8v1.9
		c0,0-0.3,0-0.4,0.1c-0.2,0.1-0.3,0.2-0.3,0.2l-1.7-0.7l1.3,1.1c0,0-0.1,0.1-0.2,0.2c-0.1,0.1-0.1,0.2-0.1,0.2l-2.1,0.1l1.8,0.3
		c0,0,0,0.3,0,0.5c0,0.2,0,0.5,0,0.5h0.2v0.2c0,0-0.2,0.2-0.3,0.4c-0.1,0.3,0.1,0.5,0.1,0.8c0,0.3-0.3,0.4-0.2,0.5
		c0,0.2,0.2,0.3,0.2,0.3s-0.4,0.8-0.7,1c0,0-0.1,0-0.2,0s-0.1,0.1-0.1,0.1s-0.5,0.1-1.1,0.8c-0.6,0.7-0.9,2.2-1.1,2.6
		c-0.2,0.3-0.8,0.5-0.8,0.5l-0.3-0.6l0.1,0.2l-0.2-0.5l-0.8,0.3l-1,1.2l0.2,0.4l-0.2,0.1l0.5,1.1c0,0-0.4,0.2-0.4,0.5
		c0,0.3,0.2,0.6,0.2,0.6s-0.1,0.5,0,0.7c0.1,0.3,0.5,0.6,0.5,0.6s0,0.2,0.1,0.5s0,1.6,0.4,2.2c0.4,0.6,0.9,1,1.4,1s1-0.4,1-0.4
		s-1,4.2-1.2,7.8c-0.2,0.1-0.3,0.3-0.3,0.5c0,0.2,0.3,0.3,0.3,0.3s-0.3,0.8-0.3,1.2c0,0.4,0.3,0.5,0.3,0.5s-0.2,1.1-0.1,1.5
		c0,0.4,0.3,0.5,0.3,0.5s-0.7,2-0.8,2.6c0,0.5,0.2,0.8,0.2,0.8s-0.6,2.3-1.3,2.6h-4.3v1h0.5v1h0.7v1.2h0.3l-0.1,9h-0.4v1.7h-0.5v3.3
		h-1.3v0.6h-2.9v0.8h-0.5l-0.4,3.2H-68.4z M-102.3,377.2c0-0.1,0.1-0.3,0.1-0.3l1.4-0.4c0,0,0,0.2-0.1,0.3c0,0.1-0.1,0.1-0.2,0.2
		s-0.3,0.3-0.3,0.3h-1.1C-102.4,377.4-102.3,377.3-102.3,377.2z M-102.8,378.9c0,0,0.3,0.2,0.4,0.1s0-0.7,0-0.7l0.1-0.2v-0.3h1
		c0,0-0.1,0.1-0.2,0.3c-0.1,0.2,0,0.4-0.1,0.5c0,0.1-0.1-0.1-0.2,0.1c0,0.2,0.1,0.2,0,0.4c-0.1,0.2-0.3,0.5-0.4,0.7
		C-102.3,379.7-102.9,378.9-102.8,378.9L-102.8,378.9z M-102.8,380.6c0.1-0.1,0.2-0.3,0.2-0.5c0-0.1-0.1-0.4-0.1-0.4
		s0.1,0.1,0.1,0.2c0.1,0.1,0.1,0.1,0.1,0.1s0,0.1,0,0.2c0,0.1-0.1,0.1-0.2,0.2c-0.1,0.1-0.1,0.2-0.2,0.4c-0.1,0.1-0.4,0.3-0.4,0.3
		v-0.2C-103.3,381-102.9,380.7-102.8,380.6z M-106.1,381.3c0.1-0.3,0.2-0.6,0.2-0.6h0.1c0,0,0.1,0.3,0,0.6c0,0.3-0.2,0.5-0.3,0.6
		s-0.3,0-0.3,0S-106.2,381.6-106.1,381.3z"/>
</g>
</svg>
