<?xml version="1.0" encoding="utf-8"?>
<!-- Generator: Adobe Illustrator 19.0.0, SVG Export Plug-In . SVG Version: 6.00 Build 0)  -->
<svg version="1.1" id="Layer_1" xmlns="http://www.w3.org/2000/svg" xmlns:xlink="http://www.w3.org/1999/xlink" x="0px" y="0px"
	 viewBox="-123 351.5 172.1 91.2" style="enable-background:new -123 351.5 172.1 91.2;" xml:space="preserve">
<style type="text/css">
	.st0{fill:#515C46;}
</style>
<g id="ground">
</g>
<g id="new_york">
	<polygon class="st0" points="34.6,441.5 34.6,442.4 18.8,442.4 18.8,441.5 19.4,441.5 19.4,440.3 20.4,440.3 20.4,362 20.9,362 
		21.3,351.5 21.6,362 22.2,362 22.2,369.4 30.5,375.5 30.5,376.7 32,376.7 32,377.4 32.9,377.6 32.9,440.3 33.9,440.3 33.9,441.5 	
		"/>
	<path class="st0" d="M-3.1,442.4V437H-3v-0.6h-0.1v-1.5H-3v-0.6h-0.1v-0.6h0.7V433h-2.1v-11.5h0.1v-0.4h-4v-4.6h-20.2v4.6h-4v0.4
		h0.1V433h-2.1v0.7h0.7v0.6H-34v0.6h0.1v1.5H-34v0.6h0.1v5.5H-3.1z M-25.3,420.8L-25.3,420.8v-0.3
		C-25.3,420.7-25.3,420.7-25.3,420.8z M-25.3,420.8h-0.2H-25.3L-25.3,420.8z M-25.6,420.8L-25.6,420.8l-0.1-0.1l0.1-0.1l0.1,0.1
		L-25.6,420.8z M-25.7,420.8h-0.2H-25.7L-25.7,420.8z M-25.9,420.8v-0.3V420.8L-25.9,420.8z M-25.9,420.8L-25.9,420.8v-0.3V420.8z
		 M-26,420.8h-0.2H-26L-26,420.8z M-27.9,420.9h0.2l-0.1,0.1L-27.9,420.9z M-27.8,421.1L-27.8,421.1L-27.8,421.1L-27.8,421.1z
		 M-27.6,420.9l0.1,0.1l-0.1,0.1l-0.1-0.1L-27.6,420.9z M-27.5,420.9h0.2H-27.5L-27.5,420.9z M-27.3,420.9v0.3V420.9L-27.3,420.9z
		 M-27.2,420.9L-27.2,420.9v0.3V420.9z M-27.2,420.9h0.2l-0.1,0.1L-27.2,420.9z M-26.9,420.9l0.1,0.1l-0.1,0.1l-0.1-0.1L-26.9,420.9
		z M-26.8,420.9h0.2H-26.8L-26.8,420.9z M-26.6,420.9v0.3V420.9L-26.6,420.9z M-26.5,420.9L-26.5,420.9v0.3V420.9z M-26.5,420.9h0.2
		l-0.1,0.1L-26.5,420.9z M-26.2,420.8L-26.2,420.8l-0.1-0.1l0.1-0.1l0.1,0.1L-26.2,420.8z M-26.3,420.8h-0.2H-26.3L-26.3,420.8z
		 M-26.5,420.8v-0.3V420.8L-26.5,420.8z M-26.6,420.8L-26.6,420.8v-0.3V420.8z M-26.7,420.8h-0.2H-26.7L-26.7,420.8z M-26.9,420.8
		L-26.9,420.8l-0.1-0.1l0.1-0.1l0.1,0.1L-26.9,420.8z M-27,420.8h-0.2H-27L-27,420.8z M-27.2,420.8v-0.3V420.8L-27.2,420.8z
		 M-27.3,420.8L-27.3,420.8v-0.3V420.8z M-27.3,420.8h-0.2H-27.3L-27.3,420.8z M-27.6,420.8L-27.6,420.8l-0.1-0.1l0.1-0.1l0.1,0.1
		L-27.6,420.8z M-27.7,420.8h-0.2H-27.7L-27.7,420.8z M-27.9,420.8v-0.3V420.8L-27.9,420.8z M-27.7,421.2L-27.7,421.2L-27.7,421.2
		L-27.7,421.2z M-27.4,421.2l0.1,0.1h-0.2L-27.4,421.2z M-27.1,421.2L-27.1,421.2L-27.1,421.2L-27.1,421.2z M-26.8,421.2l0.1,0.1
		h-0.2L-26.8,421.2z M-26.4,421.2L-26.4,421.2L-26.4,421.2L-26.4,421.2z M-26.4,421.1l0.1-0.1l0.1,0.1l-0.1,0.1L-26.4,421.1z
		 M-26.2,420.9h0.2H-26.2L-26.2,420.9z M-25.9,420.9v0.3V420.9L-25.9,420.9z M-25.9,420.9L-25.9,420.9v0.3V420.9z M-25.8,420.9h0.2
		l-0.1,0.1L-25.8,420.9z M-25.6,420.9l0.1,0.1l-0.1,0.1l-0.1-0.1L-25.6,420.9z M-25.5,420.9h0.2H-25.5L-25.5,420.9z M-25.3,420.9
		c0,0.1,0,0.1,0,0.3V420.9L-25.3,420.9z M-25.2,420.5L-25.2,420.5v0.3V420.5z M-25.2,420.5h0.2H-25.2L-25.2,420.5z M-25.4,420.7
		L-25.4,420.7L-25.4,420.7L-25.4,420.7z M-25.7,420.5L-25.7,420.5L-25.7,420.5L-25.7,420.5z M-26.1,420.7L-26.1,420.7L-26.1,420.7
		L-26.1,420.7z M-26.4,420.5L-26.4,420.5L-26.4,420.5L-26.4,420.5z M-26.7,420.7L-26.7,420.7L-26.7,420.7L-26.7,420.7z M-27.1,420.5
		L-27.1,420.5L-27.1,420.5L-27.1,420.5z M-27.4,420.7L-27.4,420.7L-27.4,420.7L-27.4,420.7z M-27.8,420.5L-27.8,420.5L-27.8,420.5
		L-27.8,420.5z M-26.1,421.2l0.1,0.1h-0.2L-26.1,421.2z M-25.7,421.2L-25.7,421.2L-25.7,421.2L-25.7,421.2z M-25.4,421.2l0.1,0.1
		h-0.2L-25.4,421.2z M-25.1,420.7L-25.1,420.7L-25.1,420.7L-25.1,420.7z M-24.9,420.8l-0.1-0.1l0.1-0.1l0.1,0.1L-24.9,420.8
		L-24.9,420.8z M-24.8,420.5h0.2H-24.8L-24.8,420.5z M-12.8,420.8l-0.1-0.1l0.1-0.1l0.1,0.1L-12.8,420.8L-12.8,420.8z M-13.5,420.8
		l-0.1-0.1l0.1-0.1l0.1,0.1L-13.5,420.8L-13.5,420.8z M-14.2,420.8l-0.1-0.1l0.1-0.1l0.1,0.1L-14.2,420.8L-14.2,420.8z M-14.5,420.8
		L-14.5,420.8v-0.3V420.8z M-14.5,420.5L-14.5,420.5v0.3V420.5z M-14.4,420.5h0.2H-14.4L-14.4,420.5z M-14.1,420.5h0.2H-14.1
		L-14.1,420.5z M-13.9,420.5v0.3V420.5L-13.9,420.5z M-13.8,420.5L-13.8,420.5v0.3V420.5z M-13.8,420.5h0.2H-13.8L-13.8,420.5z
		 M-13.4,420.5h0.2H-13.4L-13.4,420.5z M-13.2,420.5v0.3V420.5L-13.2,420.5z M-13.1,420.5L-13.1,420.5v0.3V420.5z M-13.1,420.5h0.2
		H-13.1L-13.1,420.5z M-12.7,420.5h0.2H-12.7L-12.7,420.5z M-12.5,420.5v0.3V420.5L-12.5,420.5z M-12.5,420.2L-12.5,420.2v-0.3
		V420.2z M-12.6,420.4h-0.2l0.1-0.1L-12.6,420.4z M-12.8,420.4l-0.1-0.1l0.1-0.1l0.1,0.1L-12.8,420.4z M-12.9,420.4h-0.2l0.1-0.1
		L-12.9,420.4z M-13.1,420.4v-0.3V420.4L-13.1,420.4z M-13.2,420.2L-13.2,420.2v-0.3V420.2z M-13.2,420.4h-0.2l0.1-0.1L-13.2,420.4z
		 M-13.5,420.4l-0.1-0.1l0.1-0.1l0.1,0.1L-13.5,420.4z M-13.6,420.4h-0.2l0.1-0.1L-13.6,420.4z M-13.8,420.4v-0.3V420.4L-13.8,420.4
		z M-13.9,420.2L-13.9,420.2v-0.3V420.2z M-13.9,420.4h-0.2l0.1-0.1L-13.9,420.4z M-14.2,420.4l-0.1-0.1l0.1-0.1l0.1,0.1
		L-14.2,420.4z M-14.2,420.4h-0.2l0.1-0.1L-14.2,420.4z M-14.5,420.4v-0.3V420.4L-14.5,420.4z M-14.7,420.7L-14.7,420.7L-14.7,420.7
		L-14.7,420.7z M-14.8,420.8l-0.1-0.1l0.1-0.1l0.1,0.1L-14.8,420.8L-14.8,420.8z M-15,420.5L-15,420.5L-15,420.5L-15,420.5z
		 M-15.2,420.8L-15.2,420.8v-0.3V420.8z M-15.1,420.5L-15.1,420.5v0.3V420.5z M-15.3,420.7L-15.3,420.7L-15.3,420.7L-15.3,420.7z
		 M-15.5,420.8l-0.1-0.1l0.1-0.1l0.1,0.1L-15.5,420.8L-15.5,420.8z M-15.7,420.5L-15.7,420.5L-15.7,420.5L-15.7,420.5z M-16.2,420.8
		l-0.1-0.1l0.1-0.1l0.1,0.1L-16.2,420.8L-16.2,420.8z M-16.8,420.8l-0.1-0.1l0.1-0.1l0.1,0.1L-16.8,420.8L-16.8,420.8z M-17.5,420.8
		l-0.1-0.1l0.1-0.1l0.1,0.1L-17.5,420.8L-17.5,420.8z M-17.9,420.8L-17.9,420.8v-0.3V420.8z M-17.8,420.5L-17.8,420.5v0.3V420.5z
		 M-17.8,420.5h0.2H-17.8L-17.8,420.5z M-17.4,420.5h0.2H-17.4L-17.4,420.5z M-17.2,420.5v0.3V420.5L-17.2,420.5z M-17.1,420.5
		L-17.1,420.5v0.3V420.5z M-17.1,420.5h0.2H-17.1L-17.1,420.5z M-16.8,420.5h0.2H-16.8L-16.8,420.5z M-16.5,420.5v0.3V420.5
		L-16.5,420.5z M-16.5,420.5L-16.5,420.5v0.3V420.5z M-16.4,420.5h0.2H-16.4L-16.4,420.5z M-16.1,420.5h0.2H-16.1L-16.1,420.5z
		 M-15.9,420.5v0.3V420.5L-15.9,420.5z M-15.8,420.5L-15.8,420.5v0.3V420.5z M-15.9,420.2L-15.9,420.2v-0.3V420.2z M-15.9,420.4
		h-0.2l0.1-0.1L-15.9,420.4z M-16.2,420.4l-0.1-0.1l0.1-0.1l0.1,0.1L-16.2,420.4z M-16.2,420.4h-0.2l0.1-0.1L-16.2,420.4z
		 M-16.5,420.4v-0.3V420.4L-16.5,420.4z M-16.5,420.2L-16.5,420.2v-0.3V420.2z M-16.6,420.4h-0.2l0.1-0.1L-16.6,420.4z M-16.8,420.4
		l-0.1-0.1l0.1-0.1l0.1,0.1L-16.8,420.4z M-16.9,420.4h-0.2l0.1-0.1L-16.9,420.4z M-17.1,420.4v-0.3V420.4L-17.1,420.4z
		 M-17.2,420.2L-17.2,420.2v-0.3V420.2z M-17.3,420.4h-0.2l0.1-0.1L-17.3,420.4z M-17.5,420.4l-0.1-0.1l0.1-0.1l0.1,0.1L-17.5,420.4
		z M-17.6,420.4h-0.2l0.1-0.1L-17.6,420.4z M-17.8,420.4v-0.3V420.4L-17.8,420.4z M-18,420.7L-18,420.7L-18,420.7L-18,420.7z
		 M-18.2,420.8l-0.1-0.1l0.1-0.1l0.1,0.1L-18.2,420.8L-18.2,420.8z M-18.4,420.5L-18.4,420.5L-18.4,420.5L-18.4,420.5z M-18.6,420.8
		L-18.6,420.8v-0.3C-18.6,420.7-18.6,420.7-18.6,420.8z M-18.5,420.5L-18.5,420.5v0.3V420.5z M-18.7,420.7L-18.7,420.7L-18.7,420.7
		L-18.7,420.7z M-18.9,420.8l-0.1-0.1l0.1-0.1l0.1,0.1L-18.9,420.8L-18.9,420.8z M-19,420.5L-19,420.5L-19,420.5L-19,420.5z
		 M-19.5,420.8l-0.1-0.1l0.1-0.1l0.1,0.1L-19.5,420.8L-19.5,420.8z M-20.2,420.8l-0.1-0.1l0.1-0.1l0.1,0.1L-20.2,420.8L-20.2,420.8z
		 M-20.9,420.8l-0.1-0.1l0.1-0.1l0.1,0.1L-20.9,420.8L-20.9,420.8z M-21.2,420.8L-21.2,420.8v-0.3V420.8z M-21.2,420.5L-21.2,420.5
		v0.3V420.5z M-21.1,420.5h0.2H-21.1L-21.1,420.5z M-20.8,420.5h0.2H-20.8L-20.8,420.5z M-20.6,420.5v0.3V420.5L-20.6,420.5z
		 M-20.5,420.5L-20.5,420.5v0.3V420.5z M-20.5,420.5h0.2H-20.5L-20.5,420.5z M-20.1,420.5h0.2H-20.1L-20.1,420.5z M-19.9,420.5v0.3
		V420.5L-19.9,420.5z M-19.8,420.5L-19.8,420.5v0.3V420.5z M-19.8,420.5h0.2H-19.8L-19.8,420.5z M-19.5,420.5h0.2H-19.5L-19.5,420.5
		z M-19.2,420.5v0.3V420.5L-19.2,420.5z M-19.2,420.5L-19.2,420.5v0.3V420.5z M-19.2,420.2L-19.2,420.2v-0.3V420.2z M-19.3,420.4
		h-0.2l0.1-0.1L-19.3,420.4z M-19.5,420.4l-0.1-0.1l0.1-0.1l0.1,0.1L-19.5,420.4z M-19.6,420.4h-0.2l0.1-0.1L-19.6,420.4z
		 M-19.8,420.4v-0.3V420.4L-19.8,420.4z M-19.9,420.2L-19.9,420.2v-0.3V420.2z M-19.9,420.4h-0.2l0.1-0.1L-19.9,420.4z M-20.2,420.4
		l-0.1-0.1l0.1-0.1l0.1,0.1L-20.2,420.4z M-20.3,420.4h-0.2l0.1-0.1L-20.3,420.4z M-20.5,420.4v-0.3V420.4L-20.5,420.4z
		 M-20.6,420.2L-20.6,420.2v-0.3V420.2z M-20.6,420.4h-0.2l0.1-0.1L-20.6,420.4z M-20.9,420.4l-0.1-0.1l0.1-0.1l0.1,0.1L-20.9,420.4
		z M-20.9,420.4h-0.2l0.1-0.1L-20.9,420.4z M-21.2,420.4v-0.3V420.4L-21.2,420.4z M-21.4,420.7L-21.4,420.7L-21.4,420.7L-21.4,420.7
		z M-21.5,420.8l-0.1-0.1l0.1-0.1l0.1,0.1L-21.5,420.8L-21.5,420.8z M-21.7,420.5L-21.7,420.5L-21.7,420.5L-21.7,420.5z
		 M-21.9,420.8L-21.9,420.8v-0.3V420.8z M-21.8,420.5L-21.8,420.5v0.3V420.5z M-22,420.7L-22,420.7L-22,420.7L-22,420.7z
		 M-22.2,420.8l-0.1-0.1l0.1-0.1l0.1,0.1L-22.2,420.8L-22.2,420.8z M-22.4,420.5L-22.4,420.5L-22.4,420.5L-22.4,420.5z M-22.9,420.8
		l-0.1-0.1l0.1-0.1l0.1,0.1L-22.9,420.8L-22.9,420.8z M-23.5,420.8l-0.1-0.1l0.1-0.1l0.1,0.1L-23.5,420.8L-23.5,420.8z M-24.2,420.8
		l-0.1-0.1l0.1-0.1l0.1,0.1L-24.2,420.8L-24.2,420.8z M-24.5,420.5L-24.5,420.5v0.3V420.5z M-24.5,420.5h0.2H-24.5L-24.5,420.5z
		 M-24.1,420.5h0.2H-24.1L-24.1,420.5z M-23.9,420.5v0.3V420.5L-23.9,420.5z M-23.9,420.5L-23.9,420.5v0.3V420.5z M-23.8,420.5h0.2
		H-23.8L-23.8,420.5z M-23.5,420.5h0.2H-23.5L-23.5,420.5z M-23.3,420.5v0.3V420.5L-23.3,420.5z M-23.2,420.5L-23.2,420.5v0.3V420.5
		z M-23.1,420.5h0.2H-23.1L-23.1,420.5z M-22.8,420.5h0.2H-22.8L-22.8,420.5z M-22.6,420.5v0.3V420.5L-22.6,420.5z M-22.5,420.5
		L-22.5,420.5v0.3V420.5z M-22.6,420.2L-22.6,420.2v-0.3V420.2z M-22.6,420.4h-0.2l0.1-0.1L-22.6,420.4z M-22.9,420.4l-0.1-0.1
		l0.1-0.1l0.1,0.1L-22.9,420.4z M-22.9,420.4h-0.2l0.1-0.1L-22.9,420.4z M-23.2,420.4v-0.3V420.4L-23.2,420.4z M-23.3,420.2
		L-23.3,420.2v-0.3V420.2z M-23.3,420.4h-0.2l0.1-0.1L-23.3,420.4z M-23.6,420.4l-0.1-0.1l0.1-0.1l0.1,0.1L-23.6,420.4z
		 M-23.6,420.4h-0.2l0.1-0.1L-23.6,420.4z M-23.9,420.4v-0.3V420.4L-23.9,420.4z M-23.9,420.2L-23.9,420.2v-0.3V420.2z M-24,420.4
		h-0.2l0.1-0.1L-24,420.4z M-24.2,420.4l-0.1-0.1l0.1-0.1l0.1,0.1L-24.2,420.4z M-24.3,420.4h-0.2l0.1-0.1L-24.3,420.4z
		 M-24.5,420.4v-0.3V420.4L-24.5,420.4z M-24.6,420.5v0.3V420.5L-24.6,420.5z M-24.4,420.7L-24.4,420.7L-24.4,420.7L-24.4,420.7z
		 M-24.1,420.7L-24.1,420.7L-24.1,420.7L-24.1,420.7z M-23.7,420.7L-23.7,420.7L-23.7,420.7L-23.7,420.7z M-23.4,420.7L-23.4,420.7
		L-23.4,420.7L-23.4,420.7z M-23.1,420.7L-23.1,420.7L-23.1,420.7L-23.1,420.7z M-22.7,420.7L-22.7,420.7L-22.7,420.7L-22.7,420.7z
		 M-22.4,420.7L-22.4,420.7L-22.4,420.7L-22.4,420.7z M-22,420.7L-22,420.7L-22,420.7L-22,420.7z M-21.7,420.7L-21.7,420.7
		L-21.7,420.7L-21.7,420.7z M-21.4,420.7L-21.4,420.7L-21.4,420.7L-21.4,420.7z M-21.1,420.7L-21.1,420.7L-21.1,420.7L-21.1,420.7z
		 M-20.7,420.7L-20.7,420.7L-20.7,420.7L-20.7,420.7z M-20.4,420.7L-20.4,420.7L-20.4,420.7L-20.4,420.7z M-20,420.7L-20,420.7
		L-20,420.7L-20,420.7z M-19.7,420.7L-19.7,420.7L-19.7,420.7L-19.7,420.7z M-19.4,420.7L-19.4,420.7L-19.4,420.7L-19.4,420.7z
		 M-19,420.7L-19,420.7L-19,420.7L-19,420.7z M-18.7,420.7L-18.7,420.7L-18.7,420.7L-18.7,420.7z M-18.4,420.7L-18.4,420.7
		L-18.4,420.7L-18.4,420.7z M-18,420.7L-18,420.7L-18,420.7L-18,420.7z M-17.7,420.7L-17.7,420.7L-17.7,420.7L-17.7,420.7z
		 M-17.3,420.7L-17.3,420.7L-17.3,420.7L-17.3,420.7z M-17,420.7L-17,420.7L-17,420.7L-17,420.7z M-16.7,420.7L-16.7,420.7
		L-16.7,420.7L-16.7,420.7z M-16.3,420.7L-16.3,420.7L-16.3,420.7L-16.3,420.7z M-16,420.7L-16,420.7L-16,420.7L-16,420.7z
		 M-15.7,420.7L-15.7,420.7L-15.7,420.7L-15.7,420.7z M-15.3,420.7L-15.3,420.7L-15.3,420.7L-15.3,420.7z M-15,420.7L-15,420.7
		L-15,420.7L-15,420.7z M-14.7,420.7L-14.7,420.7L-14.7,420.7L-14.7,420.7z M-14.3,420.7L-14.3,420.7L-14.3,420.7L-14.3,420.7z
		 M-14,420.7L-14,420.7L-14,420.7L-14,420.7z M-13.7,420.7L-13.7,420.7L-13.7,420.7L-13.7,420.7z M-13.3,420.7L-13.3,420.7
		L-13.3,420.7L-13.3,420.7z M-13,420.7L-13,420.7L-13,420.7L-13,420.7z M-12.6,420.7L-12.6,420.7L-12.6,420.7L-12.6,420.7z
		 M-12.5,420.5L-12.5,420.5v0.3V420.5z M-12.4,420.5h0.2H-12.4L-12.4,420.5z M-11.5,421.2l-0.1-0.1l0.1-0.1l0.1,0.1L-11.5,421.2z
		 M-9.2,420.8L-9.2,420.8v-0.3V420.8z M-9.2,420.8h-0.2H-9.2L-9.2,420.8z M-9.5,420.8L-9.5,420.8l-0.1-0.1l0.1-0.1l0.1,0.1
		L-9.5,420.8z M-9.5,420.8h-0.2H-9.5L-9.5,420.8z M-9.8,420.8v-0.3V420.8L-9.8,420.8z M-9.8,420.8L-9.8,420.8v-0.3V420.8z
		 M-9.9,420.8H-10H-9.9L-9.9,420.8z M-10.1,420.8L-10.1,420.8l-0.1-0.1l0.1-0.1l0.1,0.1L-10.1,420.8z M-10.2,420.8h-0.2H-10.2
		L-10.2,420.8z M-10.4,420.8v-0.3V420.8L-10.4,420.8z M-10.5,420.8L-10.5,420.8v-0.3V420.8z M-10.6,420.8h-0.2H-10.6L-10.6,420.8z
		 M-10.8,420.8L-10.8,420.8l-0.1-0.1l0.1-0.1l0.1,0.1L-10.8,420.8z M-10.9,420.8h-0.2H-10.9L-10.9,420.8z M-11.1,420.8v-0.3V420.8
		L-11.1,420.8z M-11.1,420.9L-11.1,420.9v0.3V420.9z M-11.1,420.9h0.2l-0.1,0.1L-11.1,420.9z M-10.8,420.9l0.1,0.1l-0.1,0.1
		l-0.1-0.1L-10.8,420.9z M-10.7,420.9h0.2H-10.7L-10.7,420.9z M-10.5,420.9v0.3V420.9L-10.5,420.9z M-10.4,420.9L-10.4,420.9v0.3
		V420.9z M-10.4,420.9h0.2l-0.1,0.1L-10.4,420.9z M-10.1,420.9l0.1,0.1l-0.1,0.1l-0.1-0.1L-10.1,420.9z M-10.1,420.9h0.2H-10.1
		L-10.1,420.9z M-9.8,420.9v0.3V420.9L-9.8,420.9z M-9.8,420.9L-9.8,420.9v0.3V420.9z M-9.7,420.9h0.2l-0.1,0.1L-9.7,420.9z
		 M-9.5,420.9l0.1,0.1l-0.1,0.1l-0.1-0.1L-9.5,420.9z M-9.4,420.9h0.2H-9.4L-9.4,420.9z M-9.2,420.9v0.3V420.9L-9.2,420.9z
		 M-9.3,420.7L-9.3,420.7L-9.3,420.7L-9.3,420.7z M-9.6,420.5L-9.6,420.5L-9.6,420.5L-9.6,420.5z M-10,420.7L-10,420.7L-10,420.7
		L-10,420.7z M-10.3,420.5L-10.3,420.5L-10.3,420.5L-10.3,420.5z M-10.6,420.7L-10.6,420.7L-10.6,420.7L-10.6,420.7z M-11,420.5
		L-11,420.5L-11,420.5L-11,420.5z M-11.2,420.8L-11.2,420.8v-0.3V420.8z M-11.2,420.8h-0.2H-11.2L-11.2,420.8z M-11.5,420.8
		L-11.5,420.8l-0.1-0.1l0.1-0.1l0.1,0.1L-11.5,420.8z M-11.6,420.8h-0.2H-11.6L-11.6,420.8z M-11.8,420.8v-0.3V420.8L-11.8,420.8z
		 M-11.9,420.8L-11.9,420.8v-0.3C-11.9,420.7-11.9,420.7-11.9,420.8z M-11.8,420.9L-11.8,420.9v0.3V420.9z M-11.7,420.9h0.2
		l-0.1,0.1L-11.7,420.9z M-11.4,420.9h0.2H-11.4L-11.4,420.9z M-11.2,420.9v0.3V420.9L-11.2,420.9z M-11,421.2L-11,421.2L-11,421.2
		L-11,421.2z M-10.6,421.2l0.1,0.1h-0.2L-10.6,421.2z M-10.3,421.2L-10.3,421.2L-10.3,421.2L-10.3,421.2z M-10,421.2l0.1,0.1h-0.2
		L-10,421.2z M-9.6,421.2L-9.6,421.2L-9.6,421.2L-9.6,421.2z M-9.3,421.2l0.1,0.1h-0.2L-9.3,421.2z M-9.1,420.8v-0.3V420.8
		L-9.1,420.8z M-9,420.7L-9,420.7L-9,420.7L-9,420.7z M-9.1,420.5h0.2H-9.1L-9.1,420.5z M-8.8,420.4l-0.1-0.1l0.1-0.1l0.1,0.1
		L-8.8,420.4z M-8.6,420.2l0.1,0.1h-0.2L-8.6,420.2z M-8.9,420.4h-0.2l0.1-0.1L-8.9,420.4z M-9.1,420.4v-0.3V420.4L-9.1,420.4z
		 M-9.2,420.2L-9.2,420.2v-0.3V420.2z M-9.2,420.4h-0.2l0.1-0.1L-9.2,420.4z M-9.5,420.4l-0.1-0.1l0.1-0.1l0.1,0.1L-9.5,420.4z
		 M-9.5,420.4h-0.2l0.1-0.1L-9.5,420.4z M-9.8,420.4v-0.3V420.4L-9.8,420.4z M-9.8,420.2L-9.8,420.2v-0.3V420.2z M-9.9,420.4h-0.2
		l0.1-0.1L-9.9,420.4z M-10.1,420.4l-0.1-0.1l0.1-0.1l0.1,0.1L-10.1,420.4z M-10.2,420.4h-0.2l0.1-0.1L-10.2,420.4z M-10.4,420.4
		v-0.3V420.4L-10.4,420.4z M-10.5,420.2L-10.5,420.2v-0.3V420.2z M-10.5,420.4h-0.2l0.1-0.1L-10.5,420.4z M-10.8,420.4l-0.1-0.1
		l0.1-0.1l0.1,0.1L-10.8,420.4z M-10.9,420.4h-0.2l0.1-0.1L-10.9,420.4z M-11.1,420.4v-0.3V420.4L-11.1,420.4z M-11.3,420.7
		L-11.3,420.7L-11.3,420.7L-11.3,420.7z M-11.7,420.5L-11.7,420.5L-11.7,420.5L-11.7,420.5z M-12,420.7L-12,420.7L-12,420.7
		L-12,420.7z M-12.2,420.5l0.1,0.1l-0.1,0.1l0,0l-0.1-0.1L-12.2,420.5z M-12,420.7L-12,420.7L-12,420.7L-12,420.7z M-11.6,421.2
		L-11.6,421.2L-11.6,421.2L-11.6,421.2z M-11.3,421.2l0.1,0.1h-0.2L-11.3,421.2z M-9.1,421.2v-0.3V421.2L-9.1,421.2z M-9,421.2
		L-9,421.2L-9,421.2L-9,421.2z M-9.1,420.9h0.2l-0.1,0.1L-9.1,420.9z M-8.8,420.8L-8.8,420.8l-0.1-0.1l0.1-0.1l0.1,0.1L-8.8,420.8z
		 M-8.6,420.7L-8.6,420.7L-8.6,420.7L-8.6,420.7z M-8.7,420.5h0.2H-8.7L-8.7,420.5z M-8.6,420.1L-8.6,420.1
		C-8.5,420.1-8.5,420.2-8.6,420.1L-8.6,420.1z M-8.6,420.1L-8.6,420.1C-8.6,419.9-8.6,419.9-8.6,420.1L-8.6,420.1z M-9,420.1
		l-0.1-0.1c0.1,0,0.1,0,0.2,0L-9,420.1z M-9.3,420.1L-9.3,420.1C-9.3,419.9-9.3,419.9-9.3,420.1L-9.3,420.1z M-9.6,420.1l-0.1-0.1
		c0.1,0,0.1,0,0.2,0L-9.6,420.1z M-10,420.1L-10,420.1C-10,419.9-9.9,419.9-10,420.1L-10,420.1z M-10.3,420.1l-0.1-0.1
		c0.1,0,0.1,0,0.2,0L-10.3,420.1z M-10.6,420.1L-10.6,420.1C-10.7,419.9-10.6,419.9-10.6,420.1L-10.6,420.1z M-11,420.1l-0.1-0.1
		c0.1,0,0.1,0,0.2,0L-11,420.1z M-11.2,420.2L-11.2,420.2v-0.3V420.2z M-11.2,420.4h-0.2l0.1-0.1L-11.2,420.4z M-11.5,420.4
		l-0.1-0.1l0.1-0.1l0.1,0.1L-11.5,420.4z M-11.5,420.4h-0.2l0.1-0.1L-11.5,420.4z M-11.8,420.4v-0.3V420.4L-11.8,420.4z
		 M-11.9,420.2L-11.9,420.2v-0.3C-11.9,420.1-11.9,420.2-11.9,420.2z M-11.9,420.4h-0.2l0.1-0.1L-11.9,420.4z M-12.2,420.4l-0.1-0.1
		l0.1-0.1l0.1,0.1L-12.2,420.4z M-12.2,420.4h-0.2l0.1-0.1L-12.2,420.4z M-12.5,420.4v-0.3V420.4L-12.5,420.4z M-12.7,420.1
		L-12.7,420.1C-12.7,419.9-12.6,419.9-12.7,420.1L-12.7,420.1z M-13,420.1l-0.1-0.1c0.1,0,0.1,0,0.2,0L-13,420.1z M-13.3,420.1
		L-13.3,420.1C-13.4,419.9-13.3,419.9-13.3,420.1L-13.3,420.1z M-13.7,420.1l-0.1-0.1c0.1,0,0.1,0,0.2,0L-13.7,420.1z M-14,420.1
		L-14,420.1C-14,419.9-14,419.9-14,420.1L-14,420.1z M-14.3,420.1l-0.1-0.1c0.1,0,0.1,0,0.2,0L-14.3,420.1z M-14.5,420.2
		L-14.5,420.2v-0.3V420.2z M-14.6,420.4h-0.2l0.1-0.1L-14.6,420.4z M-14.8,420.4l-0.1-0.1l0.1-0.1l0.1,0.1L-14.8,420.4z
		 M-14.9,420.4h-0.2l0.1-0.1L-14.9,420.4z M-15.1,420.2v-0.3V420.2L-15.1,420.2z M-15.2,420.2L-15.2,420.2v-0.3V420.2z M-15.2,420.4
		h-0.2l0.1-0.1L-15.2,420.4z M-15.5,420.4l-0.1-0.1l0.1-0.1l0.1,0.1L-15.5,420.4z M-15.6,420.4h-0.2l0.1-0.1L-15.6,420.4z
		 M-15.8,420.4v-0.3V420.4L-15.8,420.4z M-16,420.1L-16,420.1C-16,419.9-16,419.9-16,420.1L-16,420.1z M-16.3,420.1l-0.1-0.1
		c0.1,0,0.1,0,0.2,0L-16.3,420.1z M-16.7,420.1L-16.7,420.1C-16.7,419.9-16.7,419.9-16.7,420.1L-16.7,420.1z M-17,420.1l-0.1-0.1
		c0.1,0,0.1,0,0.2,0L-17,420.1z M-17.4,420.1L-17.4,420.1C-17.4,419.9-17.3,419.9-17.4,420.1L-17.4,420.1z M-17.7,420.1l-0.1-0.1
		c0.1,0,0.1,0,0.2,0L-17.7,420.1z M-17.9,420.2L-17.9,420.2v-0.3V420.2z M-17.9,420.4h-0.2l0.1-0.1L-17.9,420.4z M-18.2,420.4
		l-0.1-0.1l0.1-0.1l0.1,0.1L-18.2,420.4z M-18.3,420.4h-0.2l0.1-0.1L-18.3,420.4z M-18.5,420.4v-0.3V420.4L-18.5,420.4z
		 M-18.6,420.2L-18.6,420.2v-0.3C-18.6,420.1-18.6,420.2-18.6,420.2z M-18.6,420.4h-0.2l0.1-0.1L-18.6,420.4z M-18.9,420.4l-0.1-0.1
		l0.1-0.1l0.1,0.1L-18.9,420.4z M-18.9,420.4h-0.2l0.1-0.1L-18.9,420.4z M-19.2,420.4v-0.3V420.4L-19.2,420.4z M-19.4,420.1
		L-19.4,420.1C-19.4,419.9-19.3,419.9-19.4,420.1L-19.4,420.1z M-19.7,420.1l-0.1-0.1c0.1,0,0.1,0,0.2,0L-19.7,420.1z M-20,420.1
		L-20,420.1C-20.1,419.9-20,419.9-20,420.1L-20,420.1z M-20.4,420.1l-0.1-0.1c0.1,0,0.1,0,0.2,0L-20.4,420.1z M-20.7,420.1
		L-20.7,420.1C-20.7,419.9-20.7,419.9-20.7,420.1L-20.7,420.1z M-21,420.1l-0.1-0.1c0.1,0,0.1,0,0.2,0L-21,420.1z M-21.2,420.2
		L-21.2,420.2v-0.3V420.2z M-21.3,420.4h-0.2l0.1-0.1L-21.3,420.4z M-21.6,420.4l-0.1-0.1l0.1-0.1l0.1,0.1L-21.6,420.4z
		 M-21.6,420.4h-0.2l0.1-0.1L-21.6,420.4z M-21.8,420.2v-0.3V420.2L-21.8,420.2z M-21.9,420.2L-21.9,420.2v-0.3V420.2z M-21.9,420.4
		h-0.2l0.1-0.1L-21.9,420.4z M-22.2,420.4l-0.1-0.1l0.1-0.1l0.1,0.1L-22.2,420.4z M-22.3,420.4h-0.2l0.1-0.1L-22.3,420.4z
		 M-22.5,420.4v-0.3V420.4L-22.5,420.4z M-22.7,420.1L-22.7,420.1C-22.8,419.9-22.7,419.9-22.7,420.1L-22.7,420.1z M-23,420.1
		l-0.1-0.1c0.1,0,0.1,0,0.2,0L-23,420.1z M-23.4,420.1L-23.4,420.1C-23.4,419.9-23.4,419.9-23.4,420.1L-23.4,420.1z M-23.7,420.1
		l-0.1-0.1c0.1,0,0.1,0,0.2,0L-23.7,420.1z M-24.1,420.1L-24.1,420.1C-24.1,419.9-24,419.9-24.1,420.1L-24.1,420.1z M-24.4,420.1
		l-0.1-0.1c0.1,0,0.1,0,0.2,0L-24.4,420.1z M-24.6,420.2L-24.6,420.2v-0.3V420.2z M-24.6,420.4h-0.2l0.1-0.1L-24.6,420.4z
		 M-24.9,420.4l-0.1-0.1l0.1-0.1l0.1,0.1L-24.9,420.4z M-25,420.4h-0.2l0.1-0.1L-25,420.4z M-25.2,420.4v-0.3V420.4L-25.2,420.4z
		 M-25.3,420.2L-25.3,420.2v-0.3C-25.3,420.1-25.3,420.2-25.3,420.2z M-25.3,420.4h-0.2l0.1-0.1L-25.3,420.4z M-25.6,420.4l-0.1-0.1
		l0.1-0.1l0.1,0.1L-25.6,420.4z M-25.6,420.4h-0.2l0.1-0.1L-25.6,420.4z M-25.9,420.4v-0.3V420.4L-25.9,420.4z M-25.9,420.2
		L-25.9,420.2v-0.3V420.2z M-26,420.4h-0.2l0.1-0.1L-26,420.4z M-26.2,420.4l-0.1-0.1l0.1-0.1l0.1,0.1L-26.2,420.4z M-26.3,420.4
		h-0.2l0.1-0.1L-26.3,420.4z M-26.5,420.4v-0.3V420.4L-26.5,420.4z M-26.6,420.2L-26.6,420.2v-0.3V420.2z M-26.6,420.4h-0.2l0.1-0.1
		L-26.6,420.4z M-26.9,420.4l-0.1-0.1l0.1-0.1l0.1,0.1L-26.9,420.4z M-27,420.4h-0.2l0.1-0.1L-27,420.4z M-27.2,420.4v-0.3V420.4
		L-27.2,420.4z M-27.3,420.2L-27.3,420.2v-0.3V420.2z M-27.3,420.4h-0.2l0.1-0.1L-27.3,420.4z M-27.6,420.4l-0.1-0.1l0.1-0.1
		l0.1,0.1L-27.6,420.4z M-27.6,420.4h-0.2l0.1-0.1L-27.6,420.4z M-27.9,420.4v-0.3V420.4L-27.9,420.4z M-28,420.2L-28,420.2v-0.3
		V420.2z M-28,420.4h-0.2l0.1-0.1L-28,420.4z M-28,420.5L-28,420.5h-0.2H-28z M-28,420.5v0.3V420.5L-28,420.5z M-28,420.8h-0.2H-28
		L-28,420.8z M-28,420.9L-28,420.9h-0.2H-28z M-28,420.9v0.3V420.9L-28,420.9z M-28,421.4h-0.2l0.1-0.1L-28,421.4z M-25.2,420.9
		L-25.2,420.9v0.3V420.9z M-25.2,420.9h0.2l-0.1,0.1L-25.2,420.9z M-24.7,420.7L-24.7,420.7L-24.7,420.7L-24.7,420.7z M-24.5,420.9
		L-24.5,420.9v0.3V420.9z M-24.5,420.9h0.2l-0.1,0.1L-24.5,420.9z M-24.2,420.9l0.1,0.1l-0.1,0.1l-0.1-0.1L-24.2,420.9z
		 M-24.2,420.9h0.2H-24.2L-24.2,420.9z M-23.9,420.9v0.3V420.9L-23.9,420.9z M-23.9,420.9L-23.9,420.9v0.3V420.9z M-23.8,420.9h0.2
		l-0.1,0.1L-23.8,420.9z M-23.5,420.9l0.1,0.1l-0.1,0.1l-0.1-0.1L-23.5,420.9z M-23.5,420.9h0.2H-23.5L-23.5,420.9z M-23.3,420.9
		v0.3V420.9L-23.3,420.9z M-23.2,420.9L-23.2,420.9v0.3V420.9z M-23.1,420.9h0.2l-0.1,0.1L-23.1,420.9z M-22.9,420.9l0.1,0.1
		l-0.1,0.1l-0.1-0.1L-22.9,420.9z M-22.8,420.9h0.2H-22.8L-22.8,420.9z M-22.6,420.9v0.3V420.9L-22.6,420.9z M-22.5,420.9
		L-22.5,420.9v0.3V420.9z M-22.5,420.9h0.2l-0.1,0.1L-22.5,420.9z M-22.2,420.9l0.1,0.1l-0.1,0.1l-0.1-0.1L-22.2,420.9z
		 M-22.1,420.9h0.2H-22.1L-22.1,420.9z M-21.9,420.9v0.3V420.9L-21.9,420.9z M-21.8,420.9L-21.8,420.9v0.3V420.9z M-21.8,420.9h0.2
		l-0.1,0.1L-21.8,420.9z M-21.5,420.9l0.1,0.1l-0.1,0.1l-0.1-0.1L-21.5,420.9z M-21.5,420.9h0.2H-21.5L-21.5,420.9z M-21.2,420.9
		v0.3V420.9L-21.2,420.9z M-21.2,420.9L-21.2,420.9v0.3V420.9z M-21.1,420.9h0.2l-0.1,0.1L-21.1,420.9z M-20.9,420.9l0.1,0.1
		l-0.1,0.1l-0.1-0.1L-20.9,420.9z M-20.8,420.9h0.2H-20.8L-20.8,420.9z M-20.6,420.9v0.3V420.9L-20.6,420.9z M-20.5,420.9
		L-20.5,420.9v0.3V420.9z M-20.5,420.9h0.2l-0.1,0.1L-20.5,420.9z M-20.2,420.9l0.1,0.1l-0.1,0.1l-0.1-0.1L-20.2,420.9z
		 M-20.1,420.9h0.2H-20.1L-20.1,420.9z M-19.9,420.9v0.3V420.9L-19.9,420.9z M-19.8,420.9L-19.8,420.9v0.3V420.9z M-19.8,420.9h0.2
		l-0.1,0.1L-19.8,420.9z M-19.5,420.9l0.1,0.1l-0.1,0.1l-0.1-0.1L-19.5,420.9z M-19.5,420.9h0.2H-19.5L-19.5,420.9z M-19.2,420.9
		v0.3V420.9L-19.2,420.9z M-19.2,420.9L-19.2,420.9v0.3V420.9z M-19.1,420.9h0.2l-0.1,0.1L-19.1,420.9z M-18.9,420.9l0.1,0.1
		l-0.1,0.1l-0.1-0.1L-18.9,420.9z M-18.8,420.9h0.2H-18.8L-18.8,420.9z M-18.6,420.9c0,0.1,0,0.1,0,0.3V420.9L-18.6,420.9z
		 M-18.5,420.9L-18.5,420.9v0.3V420.9z M-18.5,420.9h0.2l-0.1,0.1L-18.5,420.9z M-18.2,420.9l0.1,0.1l-0.1,0.1l-0.1-0.1L-18.2,420.9
		z M-18.1,420.9h0.2H-18.1L-18.1,420.9z M-17.9,420.9v0.3V420.9L-17.9,420.9z M-17.8,420.9L-17.8,420.9v0.3V420.9z M-17.8,420.9h0.2
		l-0.1,0.1L-17.8,420.9z M-17.5,420.9l0.1,0.1l-0.1,0.1l-0.1-0.1L-17.5,420.9z M-17.5,420.9h0.2H-17.5L-17.5,420.9z M-17.2,420.9
		v0.3V420.9L-17.2,420.9z M-17.1,420.9L-17.1,420.9v0.3V420.9z M-17.1,420.9h0.2l-0.1,0.1L-17.1,420.9z M-16.8,420.9l0.1,0.1
		l-0.1,0.1l-0.1-0.1L-16.8,420.9z M-16.8,420.9h0.2H-16.8L-16.8,420.9z M-16.5,420.9v0.3V420.9L-16.5,420.9z M-16.5,420.9
		L-16.5,420.9v0.3V420.9z M-16.4,420.9h0.2l-0.1,0.1L-16.4,420.9z M-16.2,420.9l0.1,0.1l-0.1,0.1l-0.1-0.1L-16.2,420.9z
		 M-16.1,420.9h0.2H-16.1L-16.1,420.9z M-15.9,420.9v0.3V420.9L-15.9,420.9z M-15.8,420.9L-15.8,420.9v0.3V420.9z M-15.8,420.9h0.2
		l-0.1,0.1L-15.8,420.9z M-15.5,420.9l0.1,0.1l-0.1,0.1l-0.1-0.1L-15.5,420.9z M-15.4,420.9h0.2H-15.4L-15.4,420.9z M-15.2,420.9
		v0.3V420.9L-15.2,420.9z M-15.1,420.9L-15.1,420.9v0.3V420.9z M-15.1,420.9h0.2l-0.1,0.1L-15.1,420.9z M-14.8,420.9l0.1,0.1
		l-0.1,0.1l-0.1-0.1L-14.8,420.9z M-14.8,420.9h0.2H-14.8L-14.8,420.9z M-14.5,420.9v0.3V420.9L-14.5,420.9z M-14.5,420.9
		L-14.5,420.9v0.3V420.9z M-14.4,420.9h0.2l-0.1,0.1L-14.4,420.9z M-14.2,420.9l0.1,0.1l-0.1,0.1l-0.1-0.1L-14.2,420.9z
		 M-14.1,420.9h0.2H-14.1L-14.1,420.9z M-13.9,420.9v0.3V420.9L-13.9,420.9z M-13.8,420.9L-13.8,420.9v0.3V420.9z M-13.8,420.9h0.2
		l-0.1,0.1L-13.8,420.9z M-13.5,420.9l0.1,0.1l-0.1,0.1l-0.1-0.1L-13.5,420.9z M-13.4,420.9h0.2H-13.4L-13.4,420.9z M-13.2,420.9
		v0.3V420.9L-13.2,420.9z M-13.1,420.9L-13.1,420.9v0.3V420.9z M-13.1,420.9h0.2l-0.1,0.1L-13.1,420.9z M-12.8,420.9l0.1,0.1
		l-0.1,0.1l-0.1-0.1L-12.8,420.9z M-12.8,420.9h0.2H-12.8L-12.8,420.9z M-12.5,420.9v0.3V420.9L-12.5,420.9z M-12.3,420.7
		L-12.3,420.7L-12.3,420.7L-12.3,420.7z M-11.9,420.9L-11.9,420.9h-0.2H-11.9z M-11.9,420.9c0,0.1,0,0.1,0,0.3V420.9L-11.9,420.9z
		 M-8.9,421.1l0.1-0.1l0.1,0.1l-0.1,0.1L-8.9,421.1z M-8.7,420.9h0.2H-8.7L-8.7,420.9z M-8.5,420.9c0,0.1,0,0.1,0,0.3V420.9
		L-8.5,420.9z M-8.6,420.7L-8.6,420.7C-8.5,420.7-8.5,420.7-8.6,420.7L-8.6,420.7z M-11.3,420.1L-11.3,420.1
		C-11.4,419.9-11.3,419.9-11.3,420.1L-11.3,420.1z M-11.6,420.1l-0.1-0.1c0,0,0.1,0,0.2,0L-11.6,420.1z M-12,420.1l-0.1-0.1
		C-12,419.9-11.9,419.9-12,420.1L-12,420.1z M-12.3,420.1l-0.1-0.1c0.1,0,0.1,0,0.2,0L-12.3,420.1z M-14.7,420.1L-14.7,420.1
		C-14.7,419.9-14.7,419.9-14.7,420.1L-14.7,420.1z M-15,420.1l-0.1-0.1c0,0,0.1,0,0.2,0L-15,420.1z M-15.3,420.1L-15.3,420.1
		C-15.4,419.9-15.3,419.9-15.3,420.1L-15.3,420.1z M-15.7,420.1l-0.1-0.1c0.1,0,0.1,0,0.2,0L-15.7,420.1z M-18,420.1L-18,420.1
		C-18.1,419.9-18,419.9-18,420.1L-18,420.1z M-18.3,420.1l-0.1-0.1c0,0,0.1,0,0.2,0L-18.3,420.1z M-18.7,420.1L-18.7,420.1
		C-18.7,419.9-18.6,419.9-18.7,420.1L-18.7,420.1z M-19,420.1l-0.1-0.1c0.1,0,0.1,0,0.2,0L-19,420.1z M-21.4,420.1L-21.4,420.1
		C-21.4,419.9-21.4,419.9-21.4,420.1L-21.4,420.1z M-21.7,420.1l-0.1-0.1c0,0,0.1,0,0.2,0L-21.7,420.1z M-22,420.1L-22,420.1
		C-22.1,419.9-22,419.9-22,420.1L-22,420.1z M-22.4,420.1l-0.1-0.1c0.1,0,0.1,0,0.2,0L-22.4,420.1z M-24.7,420.1L-24.7,420.1
		C-24.8,419.9-24.7,419.9-24.7,420.1L-24.7,420.1z M-25.1,420.1l-0.1-0.1c0,0,0.1,0,0.2,0L-25.1,420.1z M-25.4,420.1L-25.4,420.1
		C-25.4,419.9-25.3,419.9-25.4,420.1L-25.4,420.1z M-25.7,420.1l-0.1-0.1c0.1,0,0.1,0,0.2,0L-25.7,420.1z M-26.1,420.1L-26.1,420.1
		C-26.1,419.9-26,419.9-26.1,420.1L-26.1,420.1z M-26.4,420.1l-0.1-0.1c0.1,0,0.1,0,0.2,0L-26.4,420.1z M-26.8,420.1L-26.8,420.1
		C-26.8,419.9-26.7,419.9-26.8,420.1L-26.8,420.1z M-27.1,420.1l-0.1-0.1c0.1,0,0.1,0,0.2,0L-27.1,420.1z M-27.4,420.1L-27.4,420.1
		C-27.5,419.9-27.4,419.9-27.4,420.1L-27.4,420.1z M-27.7,420.1l-0.1-0.1c0.1,0,0.1,0,0.2,0L-27.7,420.1z M-28.1,420.1L-28.1,420.1
		C-28.1,419.9-28.1,419.9-28.1,420.1L-28.1,420.1z M-28.3,419.9l0.1,0.1l-0.1,0.1l-0.1-0.1L-28.3,419.9z M-28.4,420.1l-0.1-0.1
		c0,0,0.1,0,0.2,0L-28.4,420.1z M-28.3,420.4h-0.2l0.1-0.1L-28.3,420.4z M-28.3,420.5L-28.3,420.5h-0.2H-28.3z M-28.3,420.5l0.1,0.1
		l-0.1,0.1l0,0l-0.1-0.1L-28.3,420.5z M-28.3,420.8h-0.2H-28.3L-28.3,420.8z M-28.3,420.9l-0.1,0.1l-0.1-0.1H-28.3z M-28.3,420.9
		l0.1,0.1l-0.1,0.1l-0.1-0.1L-28.3,420.9z M-25.1,421.2L-25.1,421.2L-25.1,421.2L-25.1,421.2z M-24.9,421.2l-0.1-0.1l0.1-0.1
		l0.1,0.1L-24.9,421.2z M-24.8,420.9h0.2H-24.8L-24.8,420.9z M-24.6,420.9v0.3V420.9L-24.6,420.9z M-24.4,421.2L-24.4,421.2
		L-24.4,421.2L-24.4,421.2z M-24.1,421.2l0.1,0.1h-0.2L-24.1,421.2z M-23.7,421.2L-23.7,421.2L-23.7,421.2L-23.7,421.2z
		 M-23.4,421.2l0.1,0.1h-0.2L-23.4,421.2z M-23,421.2L-23,421.2L-23,421.2L-23,421.2z M-22.7,421.2l0.1,0.1h-0.2L-22.7,421.2z
		 M-22.4,421.2L-22.4,421.2L-22.4,421.2L-22.4,421.2z M-22,421.2l0.1,0.1h-0.2L-22,421.2z M-21.7,421.2L-21.7,421.2L-21.7,421.2
		L-21.7,421.2z M-21.4,421.2l0.1,0.1h-0.2L-21.4,421.2z M-21,421.2L-21,421.2L-21,421.2L-21,421.2z M-20.7,421.2l0.1,0.1h-0.2
		L-20.7,421.2z M-20.4,421.2L-20.4,421.2L-20.4,421.2L-20.4,421.2z M-20,421.2l0.1,0.1h-0.2L-20,421.2z M-19.7,421.2L-19.7,421.2
		L-19.7,421.2L-19.7,421.2z M-19.4,421.2l0.1,0.1h-0.2L-19.4,421.2z M-19,421.2L-19,421.2L-19,421.2L-19,421.2z M-18.7,421.2
		l0.1,0.1h-0.2L-18.7,421.2z M-18.3,421.2L-18.3,421.2L-18.3,421.2L-18.3,421.2z M-18,421.2l0.1,0.1h-0.2L-18,421.2z M-17.7,421.2
		L-17.7,421.2L-17.7,421.2L-17.7,421.2z M-17.4,421.2l0.1,0.1h-0.2L-17.4,421.2z M-17,421.2L-17,421.2l-0.1,0.1L-17,421.2z
		 M-16.7,421.2l0.1,0.1h-0.2L-16.7,421.2z M-16.3,421.2L-16.3,421.2L-16.3,421.2L-16.3,421.2z M-16,421.2l0.1,0.1h-0.2L-16,421.2z
		 M-15.7,421.2L-15.7,421.2L-15.7,421.2L-15.7,421.2z M-15.3,421.2l0.1,0.1h-0.2L-15.3,421.2z M-15,421.2L-15,421.2L-15,421.2
		L-15,421.2z M-14.7,421.2l0.1,0.1h-0.2L-14.7,421.2z M-14.3,421.2L-14.3,421.2L-14.3,421.2L-14.3,421.2z M-14,421.2l0.1,0.1h-0.2
		L-14,421.2z M-13.7,421.2L-13.7,421.2L-13.7,421.2L-13.7,421.2z M-13.3,421.2l0.1,0.1h-0.2L-13.3,421.2z M-13,421.2L-13,421.2
		L-13,421.2L-13,421.2z M-12.7,421.2l0.1,0.1h-0.2L-12.7,421.2z M-12.5,420.9L-12.5,420.9v0.3V420.9z M-12.4,420.9h0.2l-0.1,0.1
		L-12.4,420.9z M-12.1,420.9l0.1,0.1l-0.1,0.1l-0.1-0.1L-12.1,420.9z M-12,421.2l0.1,0.1h-0.2L-12,421.2z M-8.6,421.2l0.1,0.1h-0.2
		L-8.6,421.2z M-28.5,420.2L-28.5,420.2C-28.6,420.2-28.6,420.1-28.5,420.2L-28.5,420.2z M-28.5,420.7L-28.5,420.7
		C-28.6,420.7-28.6,420.7-28.5,420.7L-28.5,420.7z M-28.5,421.1L-28.5,421.1C-28.6,421.2-28.6,421.1-28.5,421.1L-28.5,421.1z
		 M-28.4,421.2L-28.4,421.2L-28.4,421.2L-28.4,421.2z M-24.7,421.2l0.1,0.1h-0.2L-24.7,421.2z M-12.3,421.2L-12.3,421.2L-12.3,421.2
		L-12.3,421.2z"/>
	<path class="st0" d="M-56.1,423.3V442h13.5v-18.7H-44v-8.6h-0.3v-1h-2.6v-0.8h0.7v-2.2h-6.2v2.2h0.7v0.8h-2.6v1h-0.3v3.7l-0.6,0.4
		v0.7h0.6v3.8H-56.1z M-47.5,413.7H-51v-0.8h3.5V413.7z"/>
	<path class="st0" d="M-83.3,439.9v-12.1l-0.2-0.1v-1.3h-0.1v-0.6h-0.1v-0.3h-0.1l-0.1-1.1H-84l-0.1,1.1h-0.1v0.3h-0.1v0.6h-0.1
		v-2.5c0,0-0.7,0-1-0.4c-0.6-0.8-0.4-1.5-0.4-1.5H-86v-0.6h-0.1v-0.3h-0.1l-0.1-1.1h-0.1l-0.1,1.1h-0.1v0.3h-0.1v0.6h-0.1v-1.5
		c0,0-0.4,0-0.8-0.4c-0.3-0.4-0.4-0.8-0.4-0.8h-0.3v-1.7h0.4v-0.3h-0.4v-0.7h-0.2v0.7h-0.4v0.3h0.4v1.7h-0.4c0,0,0,0.4-0.4,0.8
		c-0.3,0.4-0.8,0.4-0.8,0.4v1.5h0.1v-0.6h-0.1v-0.3h-0.1l-0.1-1.1h-0.1l-0.1,1.1h-0.1v0.3h-0.1v0.6h-0.2c0,0,0.2,0.8-0.4,1.5
		c-0.3,0.4-1,0.4-1,0.4v2.5h-0.1v-0.6h-0.1v-0.3h-0.1l-0.1-1.1h-0.1l-0.1,1.1H-93v0.3h-0.1v0.6h-0.1v1.3l-0.2,0.1v12.1h-0.9v2.5
		h11.7v-2.5H-83.3z"/>
	<path class="st0" d="M1.4,432v10.7h16.8V432h-1.4v-7.6h-1v-25.7h-0.3v-13.1h-1.6v1.8h-0.5v-0.3h-2.5v-1l0,0v1h-1v-0.7H9.8v0.7H7.2
		v-0.7c0.2,0,0.3-0.1,0.3-0.3c0-0.1-0.1-0.1-0.3-0.3v-0.8c0,0,0.1,0,0.1-0.1c0,0,0,0-0.1-0.1v-1l0,0c0-0.1-0.2-0.1-0.5-0.1
		c-0.2,0-0.5,0.1-0.5,0.1l0,0v1c-0.1,0-0.1,0-0.1,0.1c0,0,0,0,0.1,0.1v0.8c-0.2,0-0.3,0.1-0.3,0.3c0,0.1,0.1,0.1,0.3,0.3v0.7H6.1
		v0.1H5.6v-1.8H4v13.1H3.7v25.7h-1v7.6H1.4V432z M6.6,386.1c0-0.1,0-0.4,0-0.7l0,0V386.1L6.6,386.1z M6.4,384.9
		C6.4,384.9,6.3,384.9,6.4,384.9c-0.1-0.4-0.1-0.7-0.1-0.8c0,0,0,0,0.1,0V384.9z M6.4,386.1C6.4,386.1,6.3,386.1,6.4,386.1
		c-0.1-0.3-0.1-0.6-0.1-0.8c0,0,0,0,0.1,0V386.1z M6.4,387.2L6.4,387.2c-0.1-0.3-0.1-0.4-0.1-0.7c0,0,0,0,0.1,0V387.2z M6.4,384.9
		L6.4,384.9c0-0.4,0-0.7,0-0.8l0,0V384.9z M6.4,386.1L6.4,386.1c0-0.3,0-0.6,0-0.8l0,0V386.1z M6.5,384.9L6.5,384.9
		c0-0.3,0-0.6,0-0.8l0,0V384.9z M6.5,386.1L6.5,386.1c0-0.1,0-0.4,0-0.8l0,0V386.1z M6.5,387.2L6.5,387.2c-0.1-0.3-0.1-0.4-0.1-0.7
		h0.1V387.2z M6.6,384.9L6.6,384.9c0-0.3,0-0.6,0-0.7l0,0V384.9z M6.6,386.1L6.6,386.1c0-0.3,0-0.6,0-0.7l0,0V386.1z M6.7,384.9
		C6.7,384.9,6.6,384.9,6.7,384.9c-0.1-0.3-0.1-0.6-0.1-0.7h0.1C6.7,384.4,6.7,384.7,6.7,384.9z M6.7,384.9L6.7,384.9L6.7,384.9v-0.7
		l0,0l0,0V384.9z M6.8,384.9L6.8,384.9c-0.1-0.3-0.1-0.6-0.1-0.7h0.1C6.8,384.4,6.8,384.7,6.8,384.9z M6.8,386.1L6.8,386.1v-0.7l0,0
		C6.8,385.5,6.8,385.8,6.8,386.1z M6.9,384.9L6.9,384.9v-0.7l0,0C6.9,384.2,6.9,384.5,6.9,384.9z M6.9,386.1L6.9,386.1v-0.7l0,0
		C6.9,385.5,6.9,385.8,6.9,386.1z M7,384.9L7,384.9v-0.7l0,0C7,384.2,7,384.5,7,384.9z M7,386.1L7,386.1v-0.8l0,0
		C7,385.5,7,385.9,7,386.1z M7,384.9L7,384.9v-0.8l0,0C7,384.2,7,384.5,7,384.9z M7,386.1L7,386.1v-0.8l0,0C7,385.5,7,385.8,7,386.1
		z M7,387.2L7,387.2l-0.1-0.7H7C7,386.8,7,387,7,387.2z M7.1,384.9L7.1,384.9L7,384.1c0,0,0,0,0.1,0C7.1,384.1,7.1,384.5,7.1,384.9z
		 M7.1,386.1L7.1,386.1L7,385.2c0,0,0,0,0.1,0C7.1,385.5,7.1,385.8,7.1,386.1z M7.1,387.2L7.1,387.2L7,386.5c0,0,0,0,0.1,0
		C7.1,386.8,7.1,387,7.1,387.2z"/>
	<path class="st0" d="M10.9,442.3L10.9,442.3l-0.4-0.1V442h-0.4v-0.1H9.7v-0.1H9.3l0,0H8.9v-0.1H8.5v-0.1H7.7v-0.1H7.5v-0.1H7.4l0,0
		l0,0V441l0,0v-13.6l0,0v-0.1l0,0l0,0h0.1v-0.1l0,0l0,0l0,0l0,0H7.4v-0.3l0,0v-0.6l0,0h0.1v-0.1h0.1V426l0,0l0,0l0,0H7.3v-0.3H7.2
		v-0.1H7v-0.1h0.5v-0.1h0.2v-0.4H7.6l0,0H7.5v-0.1h0v-0.1l0,0l0,0c0,0,0,0,0-0.1l-0.1-0.3c0,0-0.1,0.1-0.1,0.3c0,0,0,0,0,0.1l0,0
		l0,0v0.1H7.2v0.1H7.1l0,0H7v0.1h0.2v0.1H7.1v0.1H6.7l0,0H6.6v-0.7h0.1v-0.1H6.6v-1.8h0.1v-0.1H6.6V422h0.3v-0.1l0,0v-0.1
		c0,0-0.1,0-0.2-0.1c-0.1-0.1-0.1-0.1-0.1-0.1l0,0v-0.3l0,0V421l0,0l0,0H6.4l0,0l0,0v-0.1h0.1v-0.3H6.4v-0.1h0.1v-0.1h0.1v-0.1h0.1
		l-0.5-0.3h-1l-0.5,0.3h0.1v0.1h0.1v0.1H5v0.1H4.9v0.4H5v0.1l0,0l0,0H4.8l0,0H3.1v-5.8l0,0v-1.3l0,0V414H3v-0.3l0,0v-0.1H2.9v-0.3H3
		v-0.1H2.9V413v-0.1v-0.1H1.8v-0.1h-2v-2.1l0,0c0,0,0-0.1-0.1-0.1c0,0-0.1,0-0.1,0.1l0,0v0.1c-0.1,0-0.2,0.1-0.4,0.1
		c-0.3,0-0.3,0-0.6-0.1v0.7c0.3,0.1,0.3,0.1,0.6,0.1c0.2,0,0.3,0,0.4-0.1v1.1h-2.4v-1.7l0,0v-0.3H-3v-0.3h-0.1l0,0h-0.2l0,0h-0.5
		v-0.1h-1.6v0.1h-0.8v0.3h-0.2v0.3l0,0v1.8h-4.5v0.1H-12v0.1v0.1v0.1h-0.1v0.1h0.1v0.3h-0.1v0.1l0,0v0.3h-0.1v0.1l0,0v1.3l0,0v5.8
		h-1.7l0,0h-0.2l0,0l0,0V421l0,0v-0.4l0,0v-0.1l0,0v-0.1h0.1v-0.1h0.1l-0.5-0.3h-1l-0.5,0.3h0.1v0.1h0.1v0.1l0,0v0.1l0,0v0.4l0,0
		v0.1l0,0l0,0h-0.2l0,0l0,0v0.1l0,0v0.3l0,0c0,0,0,0.1-0.1,0.1c-0.1,0-0.2,0.1-0.2,0.1v0.1l0,0l0,0h0.3v0.4H-16v0.1h0.1v1.8H-16v0.1
		h0.1v0.7H-16l0,0h-0.4v-0.1h-0.1V425h0.2v-0.1h-0.1l0,0h-0.1v-0.1h-0.1v-0.1l0,0l0,0c0,0,0,0,0-0.1l-0.1-0.3c0,0-0.1,0.1-0.1,0.3
		c0,0,0,0,0,0.1l0,0l0,0v0.1h-0.1v0.1H-17l0,0h-0.1v0.1h0.2v0.1H-17v0.1h-0.1v0.1h-0.1v0.3h-0.4l0,0l0,0l0,0v0.1h0.1v0.1h0.1l0,0
		v0.4l0,0v0.3h-0.1l0,0l0,0l0,0l0,0v0.1h0.1l0,0l0,0v0.1l0,0v13.6l0,0v0.1l0,0l0,0h-0.1v0.1h-0.2v0.1h-0.8v0.1h-0.4v0.6h0.4v0.1
		h-0.4v0.1h-0.4v0.1h-0.4v0.1h-0.4v0.1h-0.4v0.1H11v-0.1h-0.1V442.3z M7.2,427.1L7.2,427.1L7.2,427.1v0.3l0,0V441l0,0v0.1l0,0l0,0
		H7.1v0.1H7v-0.1H6.9l0,0l0,0V441l0,0v-13.6l0,0v-0.1l0,0l0,0H7v-0.1H7.2L7.2,427.1L7.2,427.1z M-16.3,441.3L-16.3,441.3
		L-16.3,441.3V441l0,0v-13.6l0,0v-0.1l0,0l0,0h0.1v-0.1h0.1v0.1h0.1l0,0l0,0v0.1l0,0V441l0,0v0.1l0,0l0,0h-0.1v0.1H-16.3
		L-16.3,441.3L-16.3,441.3z"/>
	<path class="st0" d="M-56.4,438.2v-7.4h-1v-2.4h-0.2v-4.8h-1.3c-0.1-0.6-0.2-1.1-0.3-1.8c-0.3-0.4-0.6-0.4-0.6-0.4
		s-0.3-1.1-0.5-1.3c-0.1-0.1-0.5-0.3-0.9-0.3v-0.6h-0.2v-0.1c0.1,0,0.2,0,0.2,0s-0.1,0-0.2,0v-0.1c0.1,0,0.2,0,0.2,0s-0.1,0-0.2,0
		v-0.1c0.1,0,0.2,0,0.2,0s-0.1,0-0.2,0v-0.1c0.1,0,0.2,0,0.2,0s-0.1,0-0.2,0v-0.1c0.1,0,0.2,0,0.2,0s-0.1,0-0.2,0v-0.1
		c0.1,0,0.2,0,0.2,0s-0.1,0-0.2,0v-0.1c0.1,0,0.2,0,0.2,0s-0.1,0-0.2,0v-0.1c0.1,0,0.2,0,0.2,0s-0.1,0-0.2,0V418c0.1,0,0.2,0,0.2,0
		s-0.1,0-0.2,0l-0.1-3l-0.1,3c-0.1,0-0.2,0-0.2,0s0.1,0,0.2,0v0.1c-0.1,0-0.2,0-0.2,0s0.1,0,0.2,0v0.1c-0.1,0-0.2,0-0.2,0
		s0.1,0,0.2,0v0.1c-0.1,0-0.2,0-0.2,0s0.1,0,0.2,0v0.1c-0.1,0-0.2,0-0.2,0s0.1,0,0.2,0v0.1c-0.1,0-0.2,0-0.2,0s0.1,0,0.2,0v0.1
		c-0.1,0-0.2,0-0.2,0s0.1,0,0.2,0v0.1c-0.1,0-0.2,0-0.2,0s0.1,0,0.2,0v0.1c-0.1,0-0.2,0-0.2,0s0.1,0,0.2,0v0.1h-0.2v0.4
		c-0.4,0-0.7,0-0.7,0l-0.1-1.8l-0.2,1.8h-0.7v-1.4h-0.6v1.4h-0.3l-0.1-2.8l-0.2,2.8c0,0-1.2,0.3-1.4,0.4c-0.2,0.1-0.5,1.3-0.5,1.3
		s-0.3,0.1-0.6,0.4c-0.1,0.6-0.2,1.1-0.3,1.8h-1.3v4.8h-0.3v2.4h-1v7.4h-0.4v3.7h14.3v-3.7C-56.2,438.2-56.4,438.2-56.4,438.2z"/>
	<polygon class="st0" points="47,427.4 47,417.3 47.7,417.3 47.7,416.6 47,416.6 47,414.9 47.7,414.9 47.7,414.2 47,414.2 47,412.5 
		47.7,412.5 47.7,411.9 47,411.9 47,410.1 47.7,410.1 47.7,409.5 47,409.5 47,407.8 47.7,407.8 47.7,407.1 47,407.1 47,405.5 
		47.7,405.5 47.7,404.8 47,404.8 47,403.1 47.7,403.1 47.7,402.4 47,402.4 47,400.7 47.7,400.7 47.7,400.1 47,400.1 47,398.3 
		47.7,398.3 47.7,397.7 47,397.7 47,396 47.7,396 47.7,395.3 47,395.3 47,393.4 45.9,393.4 45.9,392.7 44.5,392.7 44.5,392 43,392 
		43,388.9 43.6,388.9 43.6,387.9 43,387.9 43,387.2 42.1,387.2 42.1,386.2 40.6,386.2 40.6,387.2 39.8,387.2 39.8,387.9 39.2,387.9 
		39.2,388.9 39.8,388.9 39.8,392 38.2,392 38.2,392.7 36.9,392.7 36.9,393.4 35.8,393.4 35.8,395.3 35,395.3 35,396 35.8,396 
		35.8,397.7 35,397.7 35,398.3 35.8,398.3 35.8,400.1 35,400.1 35,400.7 35.8,400.7 35.8,402.4 35,402.4 35,403.1 35.8,403.1 
		35.8,404.8 35,404.8 35,405.5 35.8,405.5 35.8,407.1 35,407.1 35,407.8 35.8,407.8 35.8,409.5 35,409.5 35,410.1 35.8,410.1 
		35.8,411.9 35,411.9 35,412.5 35.8,412.5 35.8,414.2 35,414.2 35,414.9 35.8,414.9 35.8,416.6 35,416.6 35,417.3 35.8,417.3 
		35.8,427.4 33.6,427.4 33.6,442 49.1,442 49.1,427.4 	"/>
	<path class="st0" d="M-89.6,441.4v-5.6h-1.1v-0.4l-2.9-2.2v-1.5h-0.3v0.3h-0.4v-0.3h-0.3v0.3h-0.5v-0.3h-0.3v0.3h-0.5v-0.3h-0.3
		v0.3h-0.3v-3.7h1l-7.1-6.6l-4,3.5v-2.7h-0.1v-0.1h-1.2v0.1h-0.1v4.1l-1.8,1.5h1v7.7h-1.1v5.6h-0.7v0.6h21.6v-0.6H-89.6z M-94.3,432
		h0.4v1.1h-0.4V432z M-95,432h0.5v1.1H-95V432z M-95.8,432h0.5v1.1h-0.5V432z M-96.3,432h0.3v1.1h-0.3V432z"/>
	<polygon class="st0" points="-122.1,433.7 -122.1,433.7 -122.1,430.8 -121.7,430.8 -121.7,430.1 -121.2,430.1 -121.2,430.8 
		-120.8,430.8 -120.8,432.1 -118.7,429.4 -115.5,433.7 -114.6,433.7 -114.6,437.7 -113.3,437.7 -113.3,437.3 -113.1,437.3 
		-113.1,437.2 -113,435.3 -113,435.6 -112.4,435.6 -112.4,435.9 -113,435.9 -113,437.2 -113,437.3 -112.8,437.3 -112.8,438 
		-112.1,438 -111,438.3 -111,440.8 -110.3,440.8 -110.3,442.5 -123,442.5 -123,433.7 	"/>
	<polygon class="st0" points="-71.5,393.9 -72.6,393.9 -72.6,385.4 -72.9,385.4 -72.9,383.5 -74.6,383.5 -74.6,382.1 -76.5,380.6 
		-76.5,380.5 -77.6,379.6 -77.6,379.3 -78.5,378.6 -78.5,378.3 -79.8,377.4 -79.8,376.2 -79.8,377.4 -81.1,378.3 -81.1,378.6 
		-81.9,379.3 -81.9,379.6 -83.1,380.5 -83.1,380.6 -84.9,382.1 -84.9,383.5 -86.6,383.5 -86.6,385.4 -86.9,385.4 -86.9,393.9 
		-88.1,393.9 -88.1,441.3 -89.1,441.3 -89.1,442.6 -70.5,442.6 -70.5,441.3 -71.5,441.3 	"/>
	<path class="st0" d="M-30.7,439.4v-9.1h-1v-2.5h0.7v-12.2h-0.7v-2.2h0.2v-7h-0.1V403h-0.2v-8.3l-4.1,3l-4.9,1.5v14.1h0.2v2.2h-0.7
		v12.2h0.7v2.5h-1v9.1h-0.2v3.2h11.2L-30.7,439.4C-30.6,439.4-30.7,439.4-30.7,439.4z M-33.1,432.5h-0.2v-2.1h0.2V432.5z
		 M-33.1,418.8v1.8h-0.2v-1.8H-33.1z M-39.3,418.8h0.2v1.8h-0.2V418.8z M-39.3,430.4h0.2v2.1h-0.2V430.4z"/>
</g>
<g id="statue_of_liberty">
</g>
</svg>
