<svg width="776" height="402" xmlns="http://www.w3.org/2000/svg">

 <g>
  <title>background</title>
  <rect fill="none" id="canvas_background" height="402" width="582" y="-1" x="-1"/>
 </g>
 <g>
  <title>Layer 1</title>
  <path id="svg_13" fill="#cecece" d="m525.1,254.2c-0.6,-0.3 -1.3,-0.7 -2,-1.2c-4,-2.8 -9.6,-9 -14.1,-14.5c-2.2,-2.7 -4.2,-5.3 -5.7,-7.2c-0.7,-0.9 -1.3,-1.7 -1.7,-2.2l-0.1,-0.1l0.5,0l0,-1.5l-21.6,0l0,1.5l0.5,0l0,0.2c-4.5,2.2 -25.7,11.8 -56.1,15.5c-3.6,0.4 -7.3,0.7 -11.1,0.9c-7.9,-0.4 -15.8,-0.7 -23.9,-1.1c-27.1,-4.3 -61.6,-17.1 -91.3,-29.9c-18.2,-7.8 -34.7,-15.7 -46.5,-21.6c-5.2,-2.6 -9.5,-4.8 -12.7,-6.4l0,-1.4l1,0l0,-3l-40.4,0l0,3l1,0l0,4c-9,2.6 -20.5,5.6 -32.7,8.3l0.1,0.9c12.1,-2.7 23.6,-5.7 32.5,-8.2l0,2.8c-9,3.1 -20.5,6.7 -32.8,9.4l0.1,0.9c12.2,-2.7 23.6,-6.2 32.6,-9.3l0,0.8c-9,3.1 -20.5,6.7 -32.8,9.4l0.1,0.9c12.2,-2.7 23.6,-6.2 32.6,-9.4l0,1.7c-9,3.1 -20.5,6.7 -32.8,9.4l0.1,0.9c12.2,-2.7 23.6,-6.2 32.6,-9.3l0,40.2c-20.1,-0.5 -32.4,-0.7 -32.4,-0.7l0,0.9s0.7,0 2.1,0.1l0,4.3l-0.4,0l0,-4.3l-1.1,0l0,4.3l-0.7,0l0,0.9s12.6,0.3 32.6,0.8l0,48.7l38.5,0l0,-47.8c37.4,0.9 83.8,2.2 124.6,3.7c42.2,1.5 84.1,3.2 117.1,6.2l0,25.3l20.5,0l0,-23.3c10.2,1 19.4,1.9 22.2,2.1l0,21.2l4.5,0l0,-26.7l-2.9,0l0,-0.1zm-353,-10.8l-0.4,0l0,-4.4l0.4,0l0,4.3l0,0.1zm1.5,0l-0.4,0l0,-4.4l0.4,0l0,4.3l0,0.1zm1.6,0l-0.4,0l0,-4.4l0.4,0l0,4.3l0,0.1zm1.5,0l-0.4,0l0,-4.4l0.4,0l0,4.3l0,0.1zm1.5,0.1l-0.4,0l0,-4.3l0.4,0l0,4.3zm1.6,0l-0.4,0l0,-4.3l0.4,0l0,4.3zm1.5,0l-0.4,0l0.1,-4.2l0.4,0l-0.1,4.2zm1.5,0.1l-0.4,0l0,-4.2l0.4,0l0,4.2zm1.5,0l-0.4,0l0.1,-4.2l0.4,0l-0.1,4.2zm1.6,0l-0.4,0l0.1,-4.2l0.4,0l-0.1,4.2zm1.5,0l-0.4,0l0.1,-4.2l0.4,0l-0.1,4.2zm1.5,0.1l-0.4,0l0.1,-4.2l0.4,0l-0.1,4.2zm1.6,0l-0.4,0l0.1,-4.2l0.4,0l-0.1,4.2zm1.5,0l-0.4,0l0.1,-4.2l0.4,0l-0.1,4.2zm1.5,0.1l-0.4,0l0.1,-4.2l0.4,0l-0.1,4.2zm1.6,0l-0.4,0l0.1,-4.2l0.4,0l-0.1,4.2zm1.5,0l-0.4,0l0.1,-4.2l0.4,0l-0.1,4.2zm1.5,0.1l-0.4,0l0.1,-4.2l0.4,0l-0.1,4.2zm1.6,0l-0.4,0l0.1,-4.2l0.4,0l-0.1,4.2zm1.2,0l-0.2,0l0.1,-4.2l0.1,0l0,4.2zm15.3,-13.5c-2.9,-0.3 -5.9,-0.6 -8.9,-0.9l0,-24.1s3.1,-7.7 5.6,-7.7c1.7,0 3.4,7.2 3.4,7.2l0,25.5l-0.1,0zm14,1.2c-2.9,-0.3 -5.9,-0.6 -8.9,-0.9l0,-25.5s3.1,-7.7 5.6,-7.7c1.7,0 3.3,7.2 3.3,7.2l0,26.9zm9.2,-43.8c10.7,5.5 33.1,16.7 59,27.9c23.6,10.2 50.1,20.3 73.7,26.2c-23.6,-5.1 -50.2,-14.1 -73.7,-23c-17.9,-6.8 -34,-13.6 -45.6,-18.8c-5.6,-2.5 -10.1,-4.5 -13.4,-6l0,-6.3zm0,7.3c10.1,4.6 32.5,14.6 58.7,24.7c10.7,4.1 22.1,8.2 33.6,11.9c-11.4,-3.5 -22.8,-7.4 -33.5,-11.2c-17.9,-6.4 -33.9,-12.9 -45.5,-17.7c-5.6,-2.3 -10.1,-4.2 -13.3,-5.6l0,-2.2l0,0.1zm0,3c10.1,4.4 32.4,13.8 58.6,23.2c19.1,6.9 40.3,13.8 60.3,18.7c-20,-4.3 -41.2,-10.2 -60.4,-16.2c-18,-5.6 -34.3,-11.2 -46,-15.4c-5.1,-1.8 -9.3,-3.4 -12.4,-4.5l0,-5.9l-0.1,0.1zm0,46.7l-0.1,-4l0.1,0l0,4zm1.6,0l-0.4,0l0.1,-4l0.4,0l-0.1,4zm1.5,0.1l-0.4,0l0.1,-4l0.4,0l-0.1,4zm1.5,0l-0.4,0l0.1,-4l0.4,0l-0.1,4zm1.6,0l-0.4,0l0.1,-4l0.4,0l-0.1,4zm1.5,0.1l-0.4,0l0.1,-4l0.4,0l-0.1,4zm1.5,0l-0.4,0l0.1,-4l0.4,0l-0.1,4zm1.6,0.1l-0.4,0l0.1,-4l0.4,0l-0.1,4zm1.5,0l-0.4,0l0.1,-4l0.4,0l-0.1,4zm1.5,0l-0.4,0l0.1,-4l0.4,0l-0.1,4zm1.5,0.1l-0.4,0l0.1,-4l0.4,0l-0.1,4zm1.6,0l-0.4,0l0.1,-4l0.4,0l-0.1,4zm1.5,0.1l-0.4,0l0.1,-4l0.4,0l-0.1,4zm1.5,0l-0.4,0l0.1,-4l0.4,0l-0.1,4zm1.6,0l-0.4,0l0.1,-4l0.4,0l-0.1,4zm1.5,0.1l-0.4,0l0.1,-4l0.4,0l-0.1,4zm1.5,0l-0.4,0l0.1,-4l0.4,0l-0.1,4zm1.6,0.1l-0.4,0l0.1,-3.9l0.4,0l-0.1,3.9zm1.5,0l-0.4,0l0.1,-3.9l0.4,0l-0.1,3.9zm1.5,0l-0.4,0l0.1,-3.9l0.4,0l-0.1,3.9zm1.5,0.1l-0.4,0l0.1,-3.9l0.4,0l-0.1,3.9zm1.6,0l-0.4,0l0.1,-3.9l0.4,0l-0.1,3.9zm1.5,0.1l-0.4,0l0.1,-3.9l0.4,0l-0.1,3.9zm1.5,0l-0.4,0l0.1,-3.9l0.4,0l-0.1,3.9zm1.6,0l-0.4,0l0.1,-3.9l0.4,0l-0.1,3.9zm1.5,0.1l-0.4,0l0.1,-3.9l0.4,0l-0.1,3.9zm1.5,0l-0.4,0l0.1,-3.9l0.4,0l-0.1,3.9zm1.6,0.1l-0.4,0l0.1,-3.9l0.4,0l-0.1,3.9zm1.5,0l-0.4,0l0.1,-3.9l0.4,0l-0.1,3.9zm1.5,0.1l-0.4,0l0.1,-3.9l0.4,0l-0.1,3.9zm1.5,0l-0.4,0l0.1,-3.9l0.4,0l-0.1,3.9zm1.6,0l-0.4,0l0.1,-3.9l0.4,0l-0.1,3.9zm1.5,0.1l-0.4,0l0.1,-3.9l0.4,0l-0.1,3.9zm1.5,0l-0.4,0l0.1,-3.9l0.4,0l-0.1,3.9zm1.6,0.1l-0.4,0l0.1,-3.9l0.4,0l-0.1,3.9zm1.5,0l-0.4,0l0.1,-3.9l0.4,0l-0.1,3.9zm1.5,0.1l-0.4,0l0.1,-3.9l0.4,0l-0.1,3.9zm1.6,0l-0.4,0l0.1,-3.9l0.4,0l-0.1,3.9zm1.5,0.1l-0.4,0l0.1,-3.9l0.4,0l-0.1,3.9zm1.5,0l-0.4,0l0.1,-3.9l0.4,0l-0.1,3.9zm1.5,0l-0.4,0l0.1,-3.9l0.4,0l-0.1,3.9zm1.6,0.1l-0.4,0l0.1,-3.9l0.4,0l-0.1,3.9zm1.5,0l-0.4,0l0.1,-3.9l0.4,0l-0.1,3.9zm1.5,0.1l-0.4,0l0.1,-3.9l0.4,0l-0.1,3.9zm1.6,0l-0.4,0l0.1,-3.9l0.4,0l-0.1,3.9zm1.5,0.1l-0.4,0l0.1,-3.9l0.4,0l-0.1,3.9zm1.5,0l-0.4,0l0.1,-3.9l0.4,0l-0.1,3.9zm1.6,0.1l-0.4,0l0.1,-3.9l0.4,0l-0.1,3.9zm1.5,0l-0.4,0l0.1,-3.9l0.4,0l-0.1,3.9zm1.5,0.1l-0.4,0l0.1,-3.9l0.4,0l-0.1,3.9zm1.5,0l-0.4,0l0.1,-3.9l0.4,0l-0.1,3.9zm1.6,0.1l-0.4,0l0.1,-3.9l0.4,0l-0.1,3.9zm1.5,0l-0.4,0l0.1,-3.9l0.4,0l-0.1,3.9zm1.5,0.1l-0.4,0l0.1,-3.9l0.4,0l-0.1,3.9zm1.6,0l-0.4,0l0.1,-3.9l0.4,0l-0.1,3.9zm1.5,0.1l-0.4,0l0.1,-3.9l0.4,0l-0.1,3.9zm1.5,0l-0.4,0l0.1,-3.9l0.4,0l-0.1,3.9zm1.6,0.1l-0.4,0l0.1,-3.9l0.4,0l-0.1,3.9zm1.5,0l-0.4,0l0.1,-3.9l0.4,0l-0.1,3.9zm1.5,0.1l-0.4,0l0.1,-3.9l0.4,0l-0.1,3.9zm1.5,0l-0.4,0l0.1,-3.9l0.4,0l-0.1,3.9zm1.6,0.1l-0.4,0l0.1,-3.9l0.4,0l-0.1,3.9zm1.5,0l-0.4,0l0.1,-3.9l0.4,0l-0.1,3.9zm1.5,0.1l-0.4,0l0.1,-3.9l0.4,0l-0.1,3.9zm1.6,0l-0.4,0l0.1,-3.9l0.4,0l-0.1,3.9zm1.5,0.1l-0.4,0l0.1,-3.9l0.4,0l-0.1,3.9zm1.5,0l-0.4,0l0.1,-3.9l0.4,0l-0.1,3.9zm1.6,0.1l-0.4,0l0.1,-3.9l0.4,0l-0.1,3.9zm1.5,0l-0.4,0l0.1,-3.9l0.4,0l-0.1,3.9zm1.5,0.1l-0.4,0l0.1,-3.9l0.4,0l-0.1,3.9zm1.5,0l-0.4,0l0.1,-3.9l0.4,0l-0.1,3.9zm1.6,0.1l-0.4,0l0.1,-3.9l0.4,0l-0.1,3.9zm1.5,0.1l-0.4,0l0.1,-3.9l0.4,0l-0.1,3.9zm1.5,0l-0.4,0l0.1,-3.9l0.4,0l-0.1,3.9zm1.6,0.1l-0.4,0l0.1,-3.9l0.4,0l-0.1,3.9zm1.5,0l-0.4,0l0.1,-3.9l0.4,0l-0.1,3.9zm1.5,0.1l-0.4,0l0.1,-3.9l0.4,0l-0.1,3.9zm1.5,0l-0.4,0l0.1,-3.9l0.4,0l-0.1,3.9zm1.6,0.1l-0.4,0l0.1,-3.9l0.4,0l-0.1,3.9zm1.5,0l-0.4,0l0.1,-3.9l0.4,0l-0.1,3.9zm1.5,0.1l-0.4,0l0.1,-3.9l0.4,0l-0.1,3.9zm1.6,0.1l-0.4,0l0.1,-3.9l0.4,0l-0.1,3.9zm-124,-9l0,-34.7c10.6,3.9 32.6,11.9 58.2,19.8c24.4,7.6 52.1,15.1 76.4,19.2c-47.9,-1.8 -96.6,-3.3 -134.6,-4.3zm125.5,9l-0.4,0l0.1,-3.9l0.4,0l-0.1,3.9zm1.5,0.1l-0.4,0l0.1,-3.9l0.4,0l-0.1,3.9zm1.6,0l-0.4,0l0.1,-3.9l0.4,0l-0.1,3.9zm1.5,0.1l-0.4,0l0.1,-3.9l0.4,0l-0.1,3.9zm1.5,0.1l-0.4,0l0.1,-3.9l0.4,0l-0.1,3.9zm1.5,0l-0.4,0l0.1,-3.9l0.4,0l-0.1,3.9zm1.6,0.1l-0.4,0l0.1,-3.9l0.4,0l-0.1,3.9zm1.5,0l-0.4,0l0.1,-3.9l0.4,0l-0.1,3.9zm1.5,0.1l-0.4,0l0.1,-3.9l0.4,0l-0.1,3.9zm1.6,0.1l-0.4,0l0.1,-4l0.4,0l-0.1,4zm1.5,0l-0.4,0l0.1,-4l0.4,0l-0.1,4zm1.5,0.1l-0.4,0l0.1,-4l0.4,0l-0.1,4zm1.6,0.1l-0.4,0l0.1,-3.9c0.1,0 0.3,0 0.4,0.1l-0.1,3.8zm1.5,0l-0.4,0l0.1,-3.8c0.1,0 0.3,0 0.4,0.1l-0.1,3.7zm1.5,0.1l-0.4,0l0.1,-3.7c0.1,0 0.3,0 0.4,0.1l-0.1,3.6zm1.5,0l-0.4,0l0.1,-3.6c0.1,0 0.3,0 0.4,0.1l-0.1,3.5zm1.6,0.1l-0.4,0l0.1,-3.5l0.4,0l-0.1,3.5zm1.5,0.1l-0.4,0l0.1,-3.4l0.4,0l-0.1,3.4zm1.5,0l-0.4,0l0.1,-3.3l0.4,0l-0.1,3.3zm1.6,0.1l-0.4,0l0.1,-3.2l0.4,0l-0.1,3.2zm1.5,0.1l-0.4,0l0.1,-3.1l0.4,0l-0.1,3.1zm1.5,0l-0.4,0l0.1,-3.1l0.4,0l-0.1,3.1zm1.5,0.1l-0.4,0l0.1,-3.1l0.4,0l-0.1,3.1zm1.6,0.1l-0.4,0l0.1,-3.1l0.4,0l-0.1,3.1zm1.5,0l-0.4,0l0.1,-3.1l0.4,0l-0.1,3.1zm1.5,0.1l-0.4,0l0.1,-3.1l0.4,0l-0.1,3.1zm1.6,0.1l-0.4,0l0.1,-3.1l0.4,0l-0.1,3.1zm1.5,0l-0.4,0l0.1,-3.2l0.4,0l-0.1,3.2zm1.5,0.1l-0.4,0l0.1,-3.3l0.4,0l-0.1,3.3zm1.5,0.1l-0.4,0l0.1,-3.4l0.4,0l-0.1,3.4zm1.6,0.1l-0.4,0l0.1,-3.5l0.4,0l-0.1,3.5zm1.5,0l-0.4,0l0.1,-3.6l0.4,0l-0.1,3.6zm1.5,0.1l-0.4,0l0.1,-3.8l0.4,0l-0.1,3.8zm1.6,0.1l-0.4,0l0.1,-4l0.4,0l-0.1,4zm1.5,0.1l-0.4,0l0.1,-4l0.4,0l-0.1,4zm1.5,0l-0.4,0l0.1,-4l0.4,0l-0.1,4zm1.5,0.1l-0.4,0l0.1,-4l0.4,0l-0.1,4zm1.6,0.1l-0.4,0l0.1,-4l0.4,0l-0.1,4zm1.5,0l-0.4,0l0.1,-4l0.4,0l-0.1,4zm1.5,0.1l-0.4,0l0.1,-4l0.4,0l-0.1,4zm1.6,0.1l-0.4,0l0.2,-4l0.4,0l-0.2,4zm1.5,0.1l-0.4,0l0.1,-4l0.4,0l-0.1,4zm1.5,0.1l-0.4,0l0.2,-4l0.4,0l-0.2,4zm1.6,0l-0.4,0l0.2,-4l0.4,0l-0.2,4zm1.5,0.1l-0.4,0l0.2,-4l0.4,0l-0.2,4zm1.5,0.1l-0.4,0l0.2,-4l0.4,0l-0.2,4zm1.5,0.1l-0.4,0l0.2,-4l0.4,0l-0.2,4zm1.6,0.1l-0.4,0l0.2,-4l0.4,0l-0.2,4zm1.5,0l-0.4,0l0.2,-4l0.4,0l-0.2,4zm1.5,0.1l-0.4,0l0.2,-4l0.4,0l-0.2,4zm1.5,0.1l-0.4,0l0.2,-4l0.4,0l-0.2,4zm1.6,0.1l-0.4,0l0.2,-4l0.4,0l-0.2,4zm1.5,0.1l-0.4,0l0.2,-4l0.4,0l-0.2,4zm1.5,0.1l-0.4,0l0.2,-4l0.4,0l-0.2,4zm1.6,0.1l-0.4,0l0.2,-4l0.4,0l-0.2,4zm1.5,0l-0.4,0l0.2,-4l0.4,0l-0.2,4zm1.5,0.1l-0.4,0l0.2,-4l0.4,0l-0.2,4zm1.5,0.1l-0.4,0l0.2,-4l0.4,0l-0.2,4zm1.6,0.1l-0.4,0l0.2,-4l0.4,0l-0.2,4zm1.5,0.1l-0.4,0l0.2,-3.9l0.4,0l-0.2,3.9zm1.5,0.1l-0.4,0l0.2,-4l0.4,0l-0.2,4zm1.6,0.1l-0.4,0l0.2,-4l0.4,0l-0.2,4zm1.5,0.1l-0.4,0l0.2,-4l0.4,0l-0.2,4zm1.5,0.1l-0.4,0l0.2,-4l0.4,0l-0.2,4zm1.5,0.1l-0.4,0l0.2,-4l0.4,0l-0.2,4zm1.6,0.1l-0.4,0l0.2,-4l0.4,0l-0.2,4zm1.5,0.1l-0.4,0l0.2,-4l0.4,0l-0.2,4zm1.5,0.1l-0.4,0l0.2,-4l0.4,0l-0.2,4zm1.5,0.2l-0.4,0l0.2,-4l0.4,0l-0.2,4zm1.6,0.1l-0.4,0l0.2,-4l0.4,0l-0.2,4zm1.5,0.1l-0.4,0l0.2,-4l0.4,0l-0.2,4zm1.5,0.1l-0.4,0l0.2,-4l0.4,0l-0.2,4zm1.6,0.1l-0.4,0l0.2,-4.1l0.4,0l-0.2,4.1zm1.5,0.2l-0.4,0l0.2,-4.1l0.4,0l-0.2,4.1zm1.5,0.1l-0.4,0l0.2,-4.1l0.4,0l-0.2,4.1zm1.5,0.1l-0.4,0l0.2,-4.1l0.4,0l-0.2,4.1zm1.6,-0.1l0,0.2l-0.4,0l0.2,-4.1l0.2,0l0,3.9zm0,-4.6c-9.1,-0.8 -18.5,-1.5 -26.9,-2c-9.6,-0.6 -19.7,-1.1 -29.9,-1.6c30.5,-1.7 51.9,-3.8 56.8,-4.3l0,7.9zm0,-8.9l-0.3,0c-4.5,0.4 -19.8,1.9 -42,3.3c22.5,-2.7 38.1,-6.5 42.3,-7.6l0,4.3zm0,-5.1c-0.1,0 -0.3,0.1 -0.4,0.1c-3.5,0.9 -13.7,3.3 -28.3,5.6c15.1,-3 25.4,-6.3 28.7,-7.4l0,1.7zm0,-2.8c-0.1,0 -0.3,0.1 -0.4,0.2c-3.8,1.3 -15,4.8 -31.3,7.9c16.8,-4.2 28.1,-9.3 31.7,-11l0,2.9zm4.7,18.7l-0.4,0l0,-0.8l0.4,0l0,0.8zm1.6,0l-0.4,0l0,-0.7l0.4,0l0,0.7zm1.5,0l-0.4,0l0,-0.5l0.4,0l0,0.5zm0.3,-1.2c-1.6,-0.1 -3.2,-0.3 -4.8,-0.4l0,-11.5s1.6,-3.7 3,-3.7c0.9,0 1.8,3.4 1.8,3.4l0,12.2zm2.8,1.2l0,-0.2l0.1,0l-0.1,0.2zm1.5,0l-0.4,0l0,-0.1c0.1,0 0.3,0 0.4,0.1zm3.2,-0.5c-1.6,-0.1 -3.1,-0.3 -4.8,-0.4l0,-12.2s1.6,-3.7 3,-3.7c0.9,0 1.8,3.4 1.8,3.4l0,12.9zm5.8,5.4c-0.2,0 -0.4,0 -0.5,-0.1l0.3,-4.1l0.3,0l0,4.2l-0.1,0zm1.4,0.1l-0.4,0l0,-4.1l0.4,0l0,4.1zm1.4,0.2l-0.4,0l0,-4.1c0.1,0 0.3,0 0.4,0.1l0,4zm1.4,0.1l-0.4,0l0,-4.2l0.4,0l0,4.1l0,0.1zm1.4,0.1l-0.4,0l0,-4.1l0.4,0l0,4.1zm1.4,0.2l-0.4,0l0,-4l0.4,0l0,4zm1.4,0.1l-0.4,0l0,-4c0.1,0 0.3,0 0.4,0.1l0,3.9zm-9.3,-5.8l0,-6.2c2.1,1.6 5.2,3.9 8.6,6.1c0.5,0.4 1.1,0.7 1.7,1.1c-3.1,-0.3 -6.6,-0.6 -10.3,-1zm10.7,5.9l-0.4,0l0,-4l0.4,0l0,4zm1.4,0.2l-0.4,0l0,-4l0.1,0c0.1,0.1 0.2,0.1 0.3,0.2l0,3.8zm1.4,0.1l-0.4,0l0,-3.3c0.1,0.1 0.3,0.2 0.4,0.3l0,3zm-1.5,-5c-1.8,-1.1 -3.5,-2.3 -5.1,-3.4c-2.5,-1.8 -4.8,-3.4 -6.4,-4.6c-0.2,-0.1 -0.3,-0.2 -0.4,-0.3l0,-3.9c2.1,2.1 5.3,5 8.8,8.1c1.8,1.5 3.7,3.1 5.5,4.5c-0.8,-0.2 -1.6,-0.3 -2.4,-0.4zm2.9,5.2l-0.4,0l0,-2.7c0.1,0.1 0.3,0.2 0.4,0.3l0,2.4zm0,-3.4c-0.1,-0.1 -0.3,-0.2 -0.4,-0.3l0,-0.4l0.4,0l0,0.7zm1.4,3.5l-0.4,0l0,-2c0.1,0.1 0.3,0.2 0.4,0.2l0,1.8zm0,-2.7c-0.1,-0.1 -0.3,-0.2 -0.4,-0.2l0,-0.9c0.1,0.1 0.3,0.2 0.4,0.3l0,0.8zm-0.3,-2.2c-3,-2.2 -6.2,-4.9 -9,-7.4c-2.6,-2.3 -4.9,-4.5 -6.5,-6.1l-0.5,-0.5l0,-0.7c2.1,2.1 5.3,5.1 8.8,8.1c2.8,2.4 5.7,4.7 8.4,6.7c-0.4,0 -0.8,0 -1.2,-0.1zm1.7,5l-0.4,0l0,-1.4c0.1,0.1 0.3,0.2 0.4,0.2l0,1.2zm0,-2c-0.1,-0.1 -0.3,-0.2 -0.4,-0.2l0,-0.7c0.1,0.1 0.3,0.2 0.4,0.3l0,0.6zm0,-1.7c-0.1,-0.1 -0.2,-0.1 -0.3,-0.2l0.3,0l0,0.2zm1.4,3.9l-0.4,0l0,-0.8c0.1,0.1 0.3,0.1 0.4,0.2l0,0.6zm0,-1.5c-0.1,-0.1 -0.3,-0.1 -0.4,-0.2l0,-0.5c0.1,0.1 0.3,0.2 0.4,0.3l0,0.4zm0,-1.5c-0.1,-0.1 -0.3,-0.2 -0.4,-0.3l0,-0.7l0.2,0c0.1,0.1 0.2,0.1 0.3,0.2l0,0.8l-0.1,0zm1.4,3.1l-0.4,0l0,-0.3c0.1,0.1 0.3,0.1 0.4,0.2l0,0.1zm0,-1c-0.1,-0.1 -0.3,-0.1 -0.4,-0.2l0,-0.3c0.1,0.1 0.3,0.2 0.4,0.3l0,0.2zm0,-1.2c-0.1,-0.1 -0.3,-0.2 -0.4,-0.3l0,-0.8c0.1,0.1 0.3,0.2 0.4,0.3l0,0.8zm-1.4,-2.7c-3.8,-2.5 -8.3,-6.2 -12.1,-9.6c-2.6,-2.3 -4.9,-4.5 -6.5,-6.1l-0.5,-0.5l0,-7.1c1.7,2.2 5,6.6 8.8,11.1c2.7,3.2 5.7,6.5 8.4,9c1.4,1.3 2.7,2.4 3.9,3.2c-0.6,0.1 -1.2,0 -2,0zm2.3,4.4c0.1,0 0.3,0.1 0.4,0.1c-0.1,0 -0.2,-0.1 -0.4,-0.1zm0.5,-0.9c-0.1,-0.1 -0.3,-0.2 -0.4,-0.2l0,-0.8c0.1,0.1 0.3,0.1 0.4,0.2l0,0.8zm0,-1.9c-0.1,-0.1 -0.3,-0.2 -0.4,-0.2l0,-0.3c0.2,0 0.3,0 0.4,0.1l0,0.4z"/>
  <path id="svg_14" fill="none" stroke-miterlimit="10" stroke-linejoin="round" stroke-linecap="round" stroke-width="3" stroke="#cecece" d="m525.1,254.2c-0.6,-0.3 -1.3,-0.7 -2,-1.2c-4,-2.8 -9.6,-9 -14.1,-14.5c-2.2,-2.7 -4.2,-5.3 -5.7,-7.2c-0.7,-0.9 -1.3,-1.7 -1.7,-2.2l-0.1,-0.1l0.5,0l0,-1.5l-21.6,0l0,1.5l0.5,0l0,0.2c-4.5,2.2 -25.7,11.8 -56.1,15.5c-3.6,0.4 -7.3,0.7 -11.1,0.9c-7.9,-0.4 -15.8,-0.7 -23.9,-1.1c-27.1,-4.3 -61.6,-17.1 -91.3,-29.9c-18.2,-7.8 -34.7,-15.7 -46.5,-21.6c-5.2,-2.6 -9.5,-4.8 -12.7,-6.4l0,-1.4l1,0l0,-3l-40.4,0l0,3l1,0l0,4c-9,2.6 -20.5,5.6 -32.7,8.3l0.1,0.9c12.1,-2.7 23.6,-5.7 32.5,-8.2l0,2.8c-9,3.1 -20.5,6.7 -32.8,9.4l0.1,0.9c12.2,-2.7 23.6,-6.2 32.6,-9.3l0,0.8c-9,3.1 -20.5,6.7 -32.8,9.4l0.1,0.9c12.2,-2.7 23.6,-6.2 32.6,-9.4l0,1.7c-9,3.1 -20.5,6.7 -32.8,9.4l0.1,0.9c12.2,-2.7 23.6,-6.2 32.6,-9.3l0,40.2c-20.1,-0.5 -32.4,-0.7 -32.4,-0.7l0,0.9s0.7,0 2.1,0.1l0,4.3l-0.4,0l0,-4.3l-1.1,0l0,4.3l-0.7,0l0,0.9s12.6,0.3 32.6,0.8l0,48.7l38.5,0l0,-47.8c37.4,0.9 83.8,2.2 124.6,3.7c42.2,1.5 84.1,3.2 117.1,6.2l0,25.3l20.5,0l0,-23.3c10.2,1 19.4,1.9 22.2,2.1l0,21.2l4.5,0l0,-26.7l-2.9,0l0,-0.1zm-353,-10.8l-0.4,0l0,-4.4l0.4,0l0,4.3l0,0.1zm1.5,0l-0.4,0l0,-4.4l0.4,0l0,4.3l0,0.1zm1.6,0l-0.4,0l0,-4.4l0.4,0l0,4.3l0,0.1zm1.5,0l-0.4,0l0,-4.4l0.4,0l0,4.3l0,0.1zm1.5,0.1l-0.4,0l0,-4.3l0.4,0l0,4.3zm1.6,0l-0.4,0l0,-4.3l0.4,0l0,4.3zm1.5,0l-0.4,0l0.1,-4.2l0.4,0l-0.1,4.2zm1.5,0.1l-0.4,0l0,-4.2l0.4,0l0,4.2zm1.5,0l-0.4,0l0.1,-4.2l0.4,0l-0.1,4.2zm1.6,0l-0.4,0l0.1,-4.2l0.4,0l-0.1,4.2zm1.5,0l-0.4,0l0.1,-4.2l0.4,0l-0.1,4.2zm1.5,0.1l-0.4,0l0.1,-4.2l0.4,0l-0.1,4.2zm1.6,0l-0.4,0l0.1,-4.2l0.4,0l-0.1,4.2zm1.5,0l-0.4,0l0.1,-4.2l0.4,0l-0.1,4.2zm1.5,0.1l-0.4,0l0.1,-4.2l0.4,0l-0.1,4.2zm1.6,0l-0.4,0l0.1,-4.2l0.4,0l-0.1,4.2zm1.5,0l-0.4,0l0.1,-4.2l0.4,0l-0.1,4.2zm1.5,0.1l-0.4,0l0.1,-4.2l0.4,0l-0.1,4.2zm1.6,0l-0.4,0l0.1,-4.2l0.4,0l-0.1,4.2zm1.2,0l-0.2,0l0.1,-4.2l0.1,0l0,4.2zm15.3,-13.5c-2.9,-0.3 -5.9,-0.6 -8.9,-0.9l0,-24.1s3.1,-7.7 5.6,-7.7c1.7,0 3.4,7.2 3.4,7.2l0,25.5l-0.1,0zm14,1.2c-2.9,-0.3 -5.9,-0.6 -8.9,-0.9l0,-25.5s3.1,-7.7 5.6,-7.7c1.7,0 3.3,7.2 3.3,7.2l0,26.9zm9.2,-43.8c10.7,5.5 33.1,16.7 59,27.9c23.6,10.2 50.1,20.3 73.7,26.2c-23.6,-5.1 -50.2,-14.1 -73.7,-23c-17.9,-6.8 -34,-13.6 -45.6,-18.8c-5.6,-2.5 -10.1,-4.5 -13.4,-6l0,-6.3zm0,7.3c10.1,4.6 32.5,14.6 58.7,24.7c10.7,4.1 22.1,8.2 33.6,11.9c-11.4,-3.5 -22.8,-7.4 -33.5,-11.2c-17.9,-6.4 -33.9,-12.9 -45.5,-17.7c-5.6,-2.3 -10.1,-4.2 -13.3,-5.6l0,-2.2l0,0.1zm0,3c10.1,4.4 32.4,13.8 58.6,23.2c19.1,6.9 40.3,13.8 60.3,18.7c-20,-4.3 -41.2,-10.2 -60.4,-16.2c-18,-5.6 -34.3,-11.2 -46,-15.4c-5.1,-1.8 -9.3,-3.4 -12.4,-4.5l0,-5.9l-0.1,0.1zm0,46.7l-0.1,-4l0.1,0l0,4zm1.6,0l-0.4,0l0.1,-4l0.4,0l-0.1,4zm1.5,0.1l-0.4,0l0.1,-4l0.4,0l-0.1,4zm1.5,0l-0.4,0l0.1,-4l0.4,0l-0.1,4zm1.6,0l-0.4,0l0.1,-4l0.4,0l-0.1,4zm1.5,0.1l-0.4,0l0.1,-4l0.4,0l-0.1,4zm1.5,0l-0.4,0l0.1,-4l0.4,0l-0.1,4zm1.6,0.1l-0.4,0l0.1,-4l0.4,0l-0.1,4zm1.5,0l-0.4,0l0.1,-4l0.4,0l-0.1,4zm1.5,0l-0.4,0l0.1,-4l0.4,0l-0.1,4zm1.5,0.1l-0.4,0l0.1,-4l0.4,0l-0.1,4zm1.6,0l-0.4,0l0.1,-4l0.4,0l-0.1,4zm1.5,0.1l-0.4,0l0.1,-4l0.4,0l-0.1,4zm1.5,0l-0.4,0l0.1,-4l0.4,0l-0.1,4zm1.6,0l-0.4,0l0.1,-4l0.4,0l-0.1,4zm1.5,0.1l-0.4,0l0.1,-4l0.4,0l-0.1,4zm1.5,0l-0.4,0l0.1,-4l0.4,0l-0.1,4zm1.6,0.1l-0.4,0l0.1,-3.9l0.4,0l-0.1,3.9zm1.5,0l-0.4,0l0.1,-3.9l0.4,0l-0.1,3.9zm1.5,0l-0.4,0l0.1,-3.9l0.4,0l-0.1,3.9zm1.5,0.1l-0.4,0l0.1,-3.9l0.4,0l-0.1,3.9zm1.6,0l-0.4,0l0.1,-3.9l0.4,0l-0.1,3.9zm1.5,0.1l-0.4,0l0.1,-3.9l0.4,0l-0.1,3.9zm1.5,0l-0.4,0l0.1,-3.9l0.4,0l-0.1,3.9zm1.6,0l-0.4,0l0.1,-3.9l0.4,0l-0.1,3.9zm1.5,0.1l-0.4,0l0.1,-3.9l0.4,0l-0.1,3.9zm1.5,0l-0.4,0l0.1,-3.9l0.4,0l-0.1,3.9zm1.6,0.1l-0.4,0l0.1,-3.9l0.4,0l-0.1,3.9zm1.5,0l-0.4,0l0.1,-3.9l0.4,0l-0.1,3.9zm1.5,0.1l-0.4,0l0.1,-3.9l0.4,0l-0.1,3.9zm1.5,0l-0.4,0l0.1,-3.9l0.4,0l-0.1,3.9zm1.6,0l-0.4,0l0.1,-3.9l0.4,0l-0.1,3.9zm1.5,0.1l-0.4,0l0.1,-3.9l0.4,0l-0.1,3.9zm1.5,0l-0.4,0l0.1,-3.9l0.4,0l-0.1,3.9zm1.6,0.1l-0.4,0l0.1,-3.9l0.4,0l-0.1,3.9zm1.5,0l-0.4,0l0.1,-3.9l0.4,0l-0.1,3.9zm1.5,0.1l-0.4,0l0.1,-3.9l0.4,0l-0.1,3.9zm1.6,0l-0.4,0l0.1,-3.9l0.4,0l-0.1,3.9zm1.5,0.1l-0.4,0l0.1,-3.9l0.4,0l-0.1,3.9zm1.5,0l-0.4,0l0.1,-3.9l0.4,0l-0.1,3.9zm1.5,0l-0.4,0l0.1,-3.9l0.4,0l-0.1,3.9zm1.6,0.1l-0.4,0l0.1,-3.9l0.4,0l-0.1,3.9zm1.5,0l-0.4,0l0.1,-3.9l0.4,0l-0.1,3.9zm1.5,0.1l-0.4,0l0.1,-3.9l0.4,0l-0.1,3.9zm1.6,0l-0.4,0l0.1,-3.9l0.4,0l-0.1,3.9zm1.5,0.1l-0.4,0l0.1,-3.9l0.4,0l-0.1,3.9zm1.5,0l-0.4,0l0.1,-3.9l0.4,0l-0.1,3.9zm1.6,0.1l-0.4,0l0.1,-3.9l0.4,0l-0.1,3.9zm1.5,0l-0.4,0l0.1,-3.9l0.4,0l-0.1,3.9zm1.5,0.1l-0.4,0l0.1,-3.9l0.4,0l-0.1,3.9zm1.5,0l-0.4,0l0.1,-3.9l0.4,0l-0.1,3.9zm1.6,0.1l-0.4,0l0.1,-3.9l0.4,0l-0.1,3.9zm1.5,0l-0.4,0l0.1,-3.9l0.4,0l-0.1,3.9zm1.5,0.1l-0.4,0l0.1,-3.9l0.4,0l-0.1,3.9zm1.6,0l-0.4,0l0.1,-3.9l0.4,0l-0.1,3.9zm1.5,0.1l-0.4,0l0.1,-3.9l0.4,0l-0.1,3.9zm1.5,0l-0.4,0l0.1,-3.9l0.4,0l-0.1,3.9zm1.6,0.1l-0.4,0l0.1,-3.9l0.4,0l-0.1,3.9zm1.5,0l-0.4,0l0.1,-3.9l0.4,0l-0.1,3.9zm1.5,0.1l-0.4,0l0.1,-3.9l0.4,0l-0.1,3.9zm1.5,0l-0.4,0l0.1,-3.9l0.4,0l-0.1,3.9zm1.6,0.1l-0.4,0l0.1,-3.9l0.4,0l-0.1,3.9zm1.5,0l-0.4,0l0.1,-3.9l0.4,0l-0.1,3.9zm1.5,0.1l-0.4,0l0.1,-3.9l0.4,0l-0.1,3.9zm1.6,0l-0.4,0l0.1,-3.9l0.4,0l-0.1,3.9zm1.5,0.1l-0.4,0l0.1,-3.9l0.4,0l-0.1,3.9zm1.5,0l-0.4,0l0.1,-3.9l0.4,0l-0.1,3.9zm1.6,0.1l-0.4,0l0.1,-3.9l0.4,0l-0.1,3.9zm1.5,0l-0.4,0l0.1,-3.9l0.4,0l-0.1,3.9zm1.5,0.1l-0.4,0l0.1,-3.9l0.4,0l-0.1,3.9zm1.5,0l-0.4,0l0.1,-3.9l0.4,0l-0.1,3.9zm1.6,0.1l-0.4,0l0.1,-3.9l0.4,0l-0.1,3.9zm1.5,0.1l-0.4,0l0.1,-3.9l0.4,0l-0.1,3.9zm1.5,0l-0.4,0l0.1,-3.9l0.4,0l-0.1,3.9zm1.6,0.1l-0.4,0l0.1,-3.9l0.4,0l-0.1,3.9zm1.5,0l-0.4,0l0.1,-3.9l0.4,0l-0.1,3.9zm1.5,0.1l-0.4,0l0.1,-3.9l0.4,0l-0.1,3.9zm1.5,0l-0.4,0l0.1,-3.9l0.4,0l-0.1,3.9zm1.6,0.1l-0.4,0l0.1,-3.9l0.4,0l-0.1,3.9zm1.5,0l-0.4,0l0.1,-3.9l0.4,0l-0.1,3.9zm1.5,0.1l-0.4,0l0.1,-3.9l0.4,0l-0.1,3.9zm1.6,0.1l-0.4,0l0.1,-3.9l0.4,0l-0.1,3.9zm-124,-9l0,-34.7c10.6,3.9 32.6,11.9 58.2,19.8c24.4,7.6 52.1,15.1 76.4,19.2c-47.9,-1.8 -96.6,-3.3 -134.6,-4.3zm125.5,9l-0.4,0l0.1,-3.9l0.4,0l-0.1,3.9zm1.5,0.1l-0.4,0l0.1,-3.9l0.4,0l-0.1,3.9zm1.6,0l-0.4,0l0.1,-3.9l0.4,0l-0.1,3.9zm1.5,0.1l-0.4,0l0.1,-3.9l0.4,0l-0.1,3.9zm1.5,0.1l-0.4,0l0.1,-3.9l0.4,0l-0.1,3.9zm1.5,0l-0.4,0l0.1,-3.9l0.4,0l-0.1,3.9zm1.6,0.1l-0.4,0l0.1,-3.9l0.4,0l-0.1,3.9zm1.5,0l-0.4,0l0.1,-3.9l0.4,0l-0.1,3.9zm1.5,0.1l-0.4,0l0.1,-3.9l0.4,0l-0.1,3.9zm1.6,0.1l-0.4,0l0.1,-4l0.4,0l-0.1,4zm1.5,0l-0.4,0l0.1,-4l0.4,0l-0.1,4zm1.5,0.1l-0.4,0l0.1,-4l0.4,0l-0.1,4zm1.6,0.1l-0.4,0l0.1,-3.9c0.1,0 0.3,0 0.4,0.1l-0.1,3.8zm1.5,0l-0.4,0l0.1,-3.8c0.1,0 0.3,0 0.4,0.1l-0.1,3.7zm1.5,0.1l-0.4,0l0.1,-3.7c0.1,0 0.3,0 0.4,0.1l-0.1,3.6zm1.5,0l-0.4,0l0.1,-3.6c0.1,0 0.3,0 0.4,0.1l-0.1,3.5zm1.6,0.1l-0.4,0l0.1,-3.5l0.4,0l-0.1,3.5zm1.5,0.1l-0.4,0l0.1,-3.4l0.4,0l-0.1,3.4zm1.5,0l-0.4,0l0.1,-3.3l0.4,0l-0.1,3.3zm1.6,0.1l-0.4,0l0.1,-3.2l0.4,0l-0.1,3.2zm1.5,0.1l-0.4,0l0.1,-3.1l0.4,0l-0.1,3.1zm1.5,0l-0.4,0l0.1,-3.1l0.4,0l-0.1,3.1zm1.5,0.1l-0.4,0l0.1,-3.1l0.4,0l-0.1,3.1zm1.6,0.1l-0.4,0l0.1,-3.1l0.4,0l-0.1,3.1zm1.5,0l-0.4,0l0.1,-3.1l0.4,0l-0.1,3.1zm1.5,0.1l-0.4,0l0.1,-3.1l0.4,0l-0.1,3.1zm1.6,0.1l-0.4,0l0.1,-3.1l0.4,0l-0.1,3.1zm1.5,0l-0.4,0l0.1,-3.2l0.4,0l-0.1,3.2zm1.5,0.1l-0.4,0l0.1,-3.3l0.4,0l-0.1,3.3zm1.5,0.1l-0.4,0l0.1,-3.4l0.4,0l-0.1,3.4zm1.6,0.1l-0.4,0l0.1,-3.5l0.4,0l-0.1,3.5zm1.5,0l-0.4,0l0.1,-3.6l0.4,0l-0.1,3.6zm1.5,0.1l-0.4,0l0.1,-3.8l0.4,0l-0.1,3.8zm1.6,0.1l-0.4,0l0.1,-4l0.4,0l-0.1,4zm1.5,0.1l-0.4,0l0.1,-4l0.4,0l-0.1,4zm1.5,0l-0.4,0l0.1,-4l0.4,0l-0.1,4zm1.5,0.1l-0.4,0l0.1,-4l0.4,0l-0.1,4zm1.6,0.1l-0.4,0l0.1,-4l0.4,0l-0.1,4zm1.5,0l-0.4,0l0.1,-4l0.4,0l-0.1,4zm1.5,0.1l-0.4,0l0.1,-4l0.4,0l-0.1,4zm1.6,0.1l-0.4,0l0.2,-4l0.4,0l-0.2,4zm1.5,0.1l-0.4,0l0.1,-4l0.4,0l-0.1,4zm1.5,0.1l-0.4,0l0.2,-4l0.4,0l-0.2,4zm1.6,0l-0.4,0l0.2,-4l0.4,0l-0.2,4zm1.5,0.1l-0.4,0l0.2,-4l0.4,0l-0.2,4zm1.5,0.1l-0.4,0l0.2,-4l0.4,0l-0.2,4zm1.5,0.1l-0.4,0l0.2,-4l0.4,0l-0.2,4zm1.6,0.1l-0.4,0l0.2,-4l0.4,0l-0.2,4zm1.5,0l-0.4,0l0.2,-4l0.4,0l-0.2,4zm1.5,0.1l-0.4,0l0.2,-4l0.4,0l-0.2,4zm1.5,0.1l-0.4,0l0.2,-4l0.4,0l-0.2,4zm1.6,0.1l-0.4,0l0.2,-4l0.4,0l-0.2,4zm1.5,0.1l-0.4,0l0.2,-4l0.4,0l-0.2,4zm1.5,0.1l-0.4,0l0.2,-4l0.4,0l-0.2,4zm1.6,0.1l-0.4,0l0.2,-4l0.4,0l-0.2,4zm1.5,0l-0.4,0l0.2,-4l0.4,0l-0.2,4zm1.5,0.1l-0.4,0l0.2,-4l0.4,0l-0.2,4zm1.5,0.1l-0.4,0l0.2,-4l0.4,0l-0.2,4zm1.6,0.1l-0.4,0l0.2,-4l0.4,0l-0.2,4zm1.5,0.1l-0.4,0l0.2,-3.9l0.4,0l-0.2,3.9zm1.5,0.1l-0.4,0l0.2,-4l0.4,0l-0.2,4zm1.6,0.1l-0.4,0l0.2,-4l0.4,0l-0.2,4zm1.5,0.1l-0.4,0l0.2,-4l0.4,0l-0.2,4zm1.5,0.1l-0.4,0l0.2,-4l0.4,0l-0.2,4zm1.5,0.1l-0.4,0l0.2,-4l0.4,0l-0.2,4zm1.6,0.1l-0.4,0l0.2,-4l0.4,0l-0.2,4zm1.5,0.1l-0.4,0l0.2,-4l0.4,0l-0.2,4zm1.5,0.1l-0.4,0l0.2,-4l0.4,0l-0.2,4zm1.5,0.2l-0.4,0l0.2,-4l0.4,0l-0.2,4zm1.6,0.1l-0.4,0l0.2,-4l0.4,0l-0.2,4zm1.5,0.1l-0.4,0l0.2,-4l0.4,0l-0.2,4zm1.5,0.1l-0.4,0l0.2,-4l0.4,0l-0.2,4zm1.6,0.1l-0.4,0l0.2,-4.1l0.4,0l-0.2,4.1zm1.5,0.2l-0.4,0l0.2,-4.1l0.4,0l-0.2,4.1zm1.5,0.1l-0.4,0l0.2,-4.1l0.4,0l-0.2,4.1zm1.5,0.1l-0.4,0l0.2,-4.1l0.4,0l-0.2,4.1zm1.6,-0.1l0,0.2l-0.4,0l0.2,-4.1l0.2,0l0,3.9zm0,-4.6c-9.1,-0.8 -18.5,-1.5 -26.9,-2c-9.6,-0.6 -19.7,-1.1 -29.9,-1.6c30.5,-1.7 51.9,-3.8 56.8,-4.3l0,7.9zm0,-8.9l-0.3,0c-4.5,0.4 -19.8,1.9 -42,3.3c22.5,-2.7 38.1,-6.5 42.3,-7.6l0,4.3zm0,-5.1c-0.1,0 -0.3,0.1 -0.4,0.1c-3.5,0.9 -13.7,3.3 -28.3,5.6c15.1,-3 25.4,-6.3 28.7,-7.4l0,1.7zm0,-2.8c-0.1,0 -0.3,0.1 -0.4,0.2c-3.8,1.3 -15,4.8 -31.3,7.9c16.8,-4.2 28.1,-9.3 31.7,-11l0,2.9zm4.7,18.7l-0.4,0l0,-0.8l0.4,0l0,0.8zm1.6,0l-0.4,0l0,-0.7l0.4,0l0,0.7zm1.5,0l-0.4,0l0,-0.5l0.4,0l0,0.5zm0.3,-1.2c-1.6,-0.1 -3.2,-0.3 -4.8,-0.4l0,-11.5s1.6,-3.7 3,-3.7c0.9,0 1.8,3.4 1.8,3.4l0,12.2zm2.8,1.2l0,-0.2l0.1,0l-0.1,0.2zm1.5,0l-0.4,0l0,-0.1c0.1,0 0.3,0 0.4,0.1zm3.2,-0.5c-1.6,-0.1 -3.1,-0.3 -4.8,-0.4l0,-12.2s1.6,-3.7 3,-3.7c0.9,0 1.8,3.4 1.8,3.4l0,12.9zm5.8,5.4c-0.2,0 -0.4,0 -0.5,-0.1l0.3,-4.1l0.3,0l0,4.2l-0.1,0zm1.4,0.1l-0.4,0l0,-4.1l0.4,0l0,4.1zm1.4,0.2l-0.4,0l0,-4.1c0.1,0 0.3,0 0.4,0.1l0,4zm1.4,0.1l-0.4,0l0,-4.2l0.4,0l0,4.1l0,0.1zm1.4,0.1l-0.4,0l0,-4.1l0.4,0l0,4.1zm1.4,0.2l-0.4,0l0,-4l0.4,0l0,4zm1.4,0.1l-0.4,0l0,-4c0.1,0 0.3,0 0.4,0.1l0,3.9zm-9.3,-5.8l0,-6.2c2.1,1.6 5.2,3.9 8.6,6.1c0.5,0.4 1.1,0.7 1.7,1.1c-3.1,-0.3 -6.6,-0.6 -10.3,-1zm10.7,5.9l-0.4,0l0,-4l0.4,0l0,4zm1.4,0.2l-0.4,0l0,-4l0.1,0c0.1,0.1 0.2,0.1 0.3,0.2l0,3.8zm1.4,0.1l-0.4,0l0,-3.3c0.1,0.1 0.3,0.2 0.4,0.3l0,3zm-1.5,-5c-1.8,-1.1 -3.5,-2.3 -5.1,-3.4c-2.5,-1.8 -4.8,-3.4 -6.4,-4.6c-0.2,-0.1 -0.3,-0.2 -0.4,-0.3l0,-3.9c2.1,2.1 5.3,5 8.8,8.1c1.8,1.5 3.7,3.1 5.5,4.5c-0.8,-0.2 -1.6,-0.3 -2.4,-0.4zm2.9,5.2l-0.4,0l0,-2.7c0.1,0.1 0.3,0.2 0.4,0.3l0,2.4zm0,-3.4c-0.1,-0.1 -0.3,-0.2 -0.4,-0.3l0,-0.4l0.4,0l0,0.7zm1.4,3.5l-0.4,0l0,-2c0.1,0.1 0.3,0.2 0.4,0.2l0,1.8zm0,-2.7c-0.1,-0.1 -0.3,-0.2 -0.4,-0.2l0,-0.9c0.1,0.1 0.3,0.2 0.4,0.3l0,0.8zm-0.3,-2.2c-3,-2.2 -6.2,-4.9 -9,-7.4c-2.6,-2.3 -4.9,-4.5 -6.5,-6.1l-0.5,-0.5l0,-0.7c2.1,2.1 5.3,5.1 8.8,8.1c2.8,2.4 5.7,4.7 8.4,6.7c-0.4,0 -0.8,0 -1.2,-0.1zm1.7,5l-0.4,0l0,-1.4c0.1,0.1 0.3,0.2 0.4,0.2l0,1.2zm0,-2c-0.1,-0.1 -0.3,-0.2 -0.4,-0.2l0,-0.7c0.1,0.1 0.3,0.2 0.4,0.3l0,0.6zm0,-1.7c-0.1,-0.1 -0.2,-0.1 -0.3,-0.2l0.3,0l0,0.2zm1.4,3.9l-0.4,0l0,-0.8c0.1,0.1 0.3,0.1 0.4,0.2l0,0.6zm0,-1.5c-0.1,-0.1 -0.3,-0.1 -0.4,-0.2l0,-0.5c0.1,0.1 0.3,0.2 0.4,0.3l0,0.4zm0,-1.5c-0.1,-0.1 -0.3,-0.2 -0.4,-0.3l0,-0.7l0.2,0c0.1,0.1 0.2,0.1 0.3,0.2l0,0.8l-0.1,0zm1.4,3.1l-0.4,0l0,-0.3c0.1,0.1 0.3,0.1 0.4,0.2l0,0.1zm0,-1c-0.1,-0.1 -0.3,-0.1 -0.4,-0.2l0,-0.3c0.1,0.1 0.3,0.2 0.4,0.3l0,0.2zm0,-1.2c-0.1,-0.1 -0.3,-0.2 -0.4,-0.3l0,-0.8c0.1,0.1 0.3,0.2 0.4,0.3l0,0.8zm-1.4,-2.7c-3.8,-2.5 -8.3,-6.2 -12.1,-9.6c-2.6,-2.3 -4.9,-4.5 -6.5,-6.1l-0.5,-0.5l0,-7.1c1.7,2.2 5,6.6 8.8,11.1c2.7,3.2 5.7,6.5 8.4,9c1.4,1.3 2.7,2.4 3.9,3.2c-0.6,0.1 -1.2,0 -2,0zm2.3,4.4c0.1,0 0.3,0.1 0.4,0.1c-0.1,0 -0.2,-0.1 -0.4,-0.1zm0.5,-0.9c-0.1,-0.1 -0.3,-0.2 -0.4,-0.2l0,-0.8c0.1,0.1 0.3,0.1 0.4,0.2l0,0.8zm0,-1.9c-0.1,-0.1 -0.3,-0.2 -0.4,-0.2l0,-0.3c0.2,0 0.3,0 0.4,0.1l0,0.4z"/>
  <path id="svg_23" fill="#cecece" d="m726.7,261l30,0l0,36.6l-30,0l0,-36.6z"/>
  <path id="svg_24" fill="none" stroke-miterlimit="10" stroke-linejoin="round" stroke-linecap="round" stroke-width="3" stroke="#cecece" d="m726.7,261l30,0l0,36.6l-30,0l0,-36.6z"/>
  <path id="svg_35" fill="#cecece" d="m604.5,224l12.2,0l0,70l-12.2,0l0,-70z"/>
  <path id="svg_36" fill="none" stroke-miterlimit="10" stroke-linejoin="round" stroke-linecap="round" stroke-width="3" stroke="#cecece" d="m604.5,224l12.2,0l0,70l-12.2,0l0,-70z"/>
  <path id="svg_37" fill="#cecece" d="m491,268.3l26.7,0l0,25.8l-26.7,0l0,-25.8z"/>
  <path id="svg_38" fill="none" stroke-miterlimit="10" stroke-linejoin="round" stroke-linecap="round" stroke-width="3" stroke="#cecece" d="m491,268.3l26.7,0l0,25.8l-26.7,0l0,-25.8z"/>
  <path id="svg_39" fill="#cecece" d="m380.4,261l14.8,0l0,33.1l-14.8,0l0,-33.1z"/>
  <path id="svg_40" fill="none" stroke-miterlimit="10" stroke-linejoin="round" stroke-linecap="round" stroke-width="3" stroke="#cecece" d="m380.4,261l14.8,0l0,33.1l-14.8,0l0,-33.1z"/>
  <path id="svg_41" fill="#cecece" d="m293.3,275.7l37.6,0l0,21.1l-37.6,0l0,-21.1z"/>
  <path id="svg_42" fill="none" stroke-miterlimit="10" stroke-linejoin="round" stroke-linecap="round" stroke-width="3" stroke="#cecece" d="m293.3,275.7l37.6,0l0,21.1l-37.6,0l0,-21.1z"/>
  <path id="svg_43" d="m576.4,152.4l0,1.1m1.8,-1.1l0,-0.8"/>
  <path id="svg_44" fill="#cecece" d="m557.7,104.2l0,-19.5l-2.6,0l0,-10.6l-1.4,0l0,-4.7l-2.7,0l0,-1.2l0.5,0l0,-2.2l-1.8,0l0,-1.5l-2.5,0l0,-1.1l-0.9,0l0,-3.3l-0.6,0l0,-1.9l-1.3,0l0,-15.6l-0.8,0l0,-0.5l1,0l0,-0.8l-1,0l0,-0.8l1,0l0,-1.1l-1,0l0,-1.9l0.2,0l0,-1.4l-1.1,0l0,-0.8l-1,0l0,-4.7l1.2,0l0,-1l-1.2,0l0,-12.1l0.5,0l0,-0.7l-0.5,0l0,-1.8l0.5,0l0,-0.8l-0.5,0l0,-12.2l-1.1,0l0,12.2l-0.5,0l0,0.8l0.5,0l0,1.8l-0.5,0l0,0.7l0.5,0l0,12.1l-1.2,0l0,1l1.2,0l0,4.7l-1,0l0,0.8l-1.1,0l0,1.4l0.2,0l0,1.9l-1,0l0,1.1l1,0l0,0.8l-1,0l0,0.8l1,0l0,0.5l-0.8,0l0,15.6l-1.3,0l0,1.9l-0.6,0l0,3.3l-0.9,0l0,1.1l-2.5,0l0,1.5l-1.8,0l0,2.2l0.5,0l0,1.2l-3,0l0,4.7l-1.1,0l0,10.6l-2.6,0l0,19.5l-1.4,0l0,187.3l35.9,0l0,-187.3l-1.4,0z"/>
  <path id="svg_45" fill="none" stroke-miterlimit="10" stroke-linejoin="round" stroke-linecap="round" stroke-width="3" stroke="#cecece" d="m557.7,104.2l0,-19.5l-2.6,0l0,-10.6l-1.4,0l0,-4.7l-2.7,0l0,-1.2l0.5,0l0,-2.2l-1.8,0l0,-1.5l-2.5,0l0,-1.1l-0.9,0l0,-3.3l-0.6,0l0,-1.9l-1.3,0l0,-15.6l-0.8,0l0,-0.5l1,0l0,-0.8l-1,0l0,-0.8l1,0l0,-1.1l-1,0l0,-1.9l0.2,0l0,-1.4l-1.1,0l0,-0.8l-1,0l0,-4.7l1.2,0l0,-1l-1.2,0l0,-12.1l0.5,0l0,-0.7l-0.5,0l0,-1.8l0.5,0l0,-0.8l-0.5,0l0,-12.2l-1.1,0l0,12.2l-0.5,0l0,0.8l0.5,0l0,1.8l-0.5,0l0,0.7l0.5,0l0,12.1l-1.2,0l0,1l1.2,0l0,4.7l-1,0l0,0.8l-1.1,0l0,1.4l0.2,0l0,1.9l-1,0l0,1.1l1,0l0,0.8l-1,0l0,0.8l1,0l0,0.5l-0.8,0l0,15.6l-1.3,0l0,1.9l-0.6,0l0,3.3l-0.9,0l0,1.1l-2.5,0l0,1.5l-1.8,0l0,2.2l0.5,0l0,1.2l-3,0l0,4.7l-1.1,0l0,10.6l-2.6,0l0,19.5l-1.4,0l0,187.3l35.9,0l0,-187.3l-1.4,0z"/>
  <path id="svg_46" fill="#cecece" d="m548.1,224l14.8,0l0,70l-14.8,0l0,-70z"/>
  <path id="svg_47" fill="none" stroke-miterlimit="10" stroke-linejoin="round" stroke-linecap="round" stroke-width="3" stroke="#cecece" d="m548.1,224l14.8,0l0,70l-14.8,0l0,-70z"/>
  <path id="svg_48" fill="#cecece" d="m560.9,259l21.5,0l0,35l-21.5,0l0,-35z"/>
  <path id="svg_49" fill="none" stroke-miterlimit="10" stroke-linejoin="round" stroke-linecap="round" stroke-width="3" stroke="#cecece" d="m560.9,259l21.5,0l0,35l-21.5,0l0,-35z"/>
  <path id="svg_50" fill="#cecece" d="m703,256.2l20.6,0l0,37.8l-20.6,0l0,-37.8z"/>
  <path id="svg_51" fill="none" stroke-miterlimit="10" stroke-linejoin="round" stroke-linecap="round" stroke-width="3" stroke="#cecece" d="m703,256.2l20.6,0l0,37.8l-20.6,0l0,-37.8z"/>
  <path id="svg_52" fill="#cecece" d="m633.7,202.1l0,-2.5l-0.5,0l0,-0.4l-0.3,0l0,-0.9l-0.7,0l0,0.9l-0.4,0l0,0.4l-0.6,0l0,-1.6l-0.7,0l0,-0.5l0.5,0l0,-0.7l-0.5,0l-5.4,-15.4l-1.4,0l-5.5,15.4l-0.5,0l0,0.7l0.5,0l0,0.5l-0.7,0l0,1.6l-0.6,0l0,-0.4l-0.3,0l0,-0.9l-0.7,0l0,0.9l-0.4,0l0,0.4l-0.4,0l0,2.5l-0.8,0l0,1l1.1,0l0,88.4l18,0l0,-88.4l1,0l0,-1l-0.7,0z"/>
  <path id="svg_53" fill="none" stroke-miterlimit="10" stroke-linejoin="round" stroke-linecap="round" stroke-width="3" stroke="#cecece" d="m633.7,202.1l0,-2.5l-0.5,0l0,-0.4l-0.3,0l0,-0.9l-0.7,0l0,0.9l-0.4,0l0,0.4l-0.6,0l0,-1.6l-0.7,0l0,-0.5l0.5,0l0,-0.7l-0.5,0l-5.4,-15.4l-1.4,0l-5.5,15.4l-0.5,0l0,0.7l0.5,0l0,0.5l-0.7,0l0,1.6l-0.6,0l0,-0.4l-0.3,0l0,-0.9l-0.7,0l0,0.9l-0.4,0l0,0.4l-0.4,0l0,2.5l-0.8,0l0,1l1.1,0l0,88.4l18,0l0,-88.4l1,0l0,-1l-0.7,0z"/>
  <path id="svg_54" fill="#cecece" d="m675.9,201.7l0,-8.1l-3.5,0l0,-63.8l-1.7,0l0,-9l-0.2,0l0,-2.5l-0.4,0l0,-0.6l-0.2,0l0,-0.5l-0.6,0l0,0.5l-0.2,0l0,0.6l-0.4,0l0,2.4l-7,-9.2l0,-3.3l-0.5,0l0,-0.4l0.4,0l0,-3.7l-0.7,0l-0.2,-2.4l-0.3,0l0,-0.4l0.3,0l0,-2.4l-0.3,0l0,-2.9l-0.3,0l0,2.9l-0.4,0l0,2.4l0.4,0l0,0.4l-0.4,0l-0.1,2.4l-0.8,0l0,3.7l0.5,0l0,0.4l-0.5,0l0,3.3l-7.1,9.2l0,-2.4l-0.4,0l0,-0.6l-0.2,0l0,-0.5l-0.6,0l0,0.5l-0.2,0l0,0.6l-0.4,0l0,2.5l-0.2,0l0,9l-1.7,0l0,63.8l-3.5,0l0,8.1l-2.8,0l0,89.8l37,0l0,-89.8l-2.8,0z"/>
  <path id="svg_55" fill="none" stroke-miterlimit="10" stroke-linejoin="round" stroke-linecap="round" stroke-width="3" stroke="#cecece" d="m675.9,201.7l0,-8.1l-3.5,0l0,-63.8l-1.7,0l0,-9l-0.2,0l0,-2.5l-0.4,0l0,-0.6l-0.2,0l0,-0.5l-0.6,0l0,0.5l-0.2,0l0,0.6l-0.4,0l0,2.4l-7,-9.2l0,-3.3l-0.5,0l0,-0.4l0.4,0l0,-3.7l-0.7,0l-0.2,-2.4l-0.3,0l0,-0.4l0.3,0l0,-2.4l-0.3,0l0,-2.9l-0.3,0l0,2.9l-0.4,0l0,2.4l0.4,0l0,0.4l-0.4,0l-0.1,2.4l-0.8,0l0,3.7l0.5,0l0,0.4l-0.5,0l0,3.3l-7.1,9.2l0,-2.4l-0.4,0l0,-0.6l-0.2,0l0,-0.5l-0.6,0l0,0.5l-0.2,0l0,0.6l-0.4,0l0,2.5l-0.2,0l0,9l-1.7,0l0,63.8l-3.5,0l0,8.1l-2.8,0l0,89.8l37,0l0,-89.8l-2.8,0z"/>
  <path id="svg_56" fill="#cecece" d="m706.8,217.1l-1,0l0,-6.8l-0.1,-0.7l-0.6,0.1l-1,-1l-0.6,0.6l-0.4,-0.7l-0.7,0.5l-0.3,0l0,-4.3l0.2,0l0,-0.8l-0.8,0l0,-1.5l0.2,0l0,-0.7l-0.2,0l0,-5.1l0.4,0l0,-1.6l-1.2,0l0,-3l0.3,0l0,-0.7l-1,0l-1.4,-2.9l0.1,0l0,-0.4l-0.4,0l0,-0.3l0.4,0l0,-0.8l-0.4,0l0,-0.3l0.2,0l0,-0.5l-0.6,0l0,-0.4l-0.1,0l0,-0.3l-0.2,0c0.1,-0.2 0.3,-0.4 0.4,-0.6c0.1,-0.3 0.1,-0.6 0.1,-1c-0.1,-0.7 -0.5,-1.2 -0.8,-1.8l-0.1,0.1l0,1c-0.2,-0.3 -0.5,-0.6 -0.7,-0.8c0,0 -0.1,0.1 0,0.1c0,0 0,0.1 0.1,0.3c0,0.4 0.1,0.7 0.3,1.1l0,0.1c0,0.1 0.1,0.1 0.1,0.2c0,0 0,0.1 0.1,0.1l0,0.1c0,0.2 0.2,0.3 0.2,0.5c0,0 0.1,0.3 0.1,0.5l-0.4,0l0,0.3l-0.1,0l0,0.4l-0.6,0l0,0.5l0.2,0l0,0.3l-0.4,0l0,0.8l0.4,0l0,0.3l-0.4,0l0,0.4l0.1,0l-1.4,2.9l-1,0l0,0.7l0.3,0l0,3l-1.2,0l0,1.6l0.4,0l0,5.1l-0.3,0l0,0.7l0.2,0l0,1.5l-0.8,0l0,0.9l0.2,0l0,4.3l-0.3,0l-0.7,-0.5l-0.4,0.7l-0.6,-0.6l-1,1l-0.6,-0.1l-0.1,0.7l0,6.8l-1.3,0l0,0.7l0.3,0l0,73.7l18.9,0l0,-73.7l0.3,0l0,-0.7l-0.3,0z"/>
  <path id="svg_57" fill="none" stroke-miterlimit="10" stroke-linejoin="round" stroke-linecap="round" stroke-width="3" stroke="#cecece" d="m706.8,217.1l-1,0l0,-6.8l-0.1,-0.7l-0.6,0.1l-1,-1l-0.6,0.6l-0.4,-0.7l-0.7,0.5l-0.3,0l0,-4.3l0.2,0l0,-0.8l-0.8,0l0,-1.5l0.2,0l0,-0.7l-0.2,0l0,-5.1l0.4,0l0,-1.6l-1.2,0l0,-3l0.3,0l0,-0.7l-1,0l-1.4,-2.9l0.1,0l0,-0.4l-0.4,0l0,-0.3l0.4,0l0,-0.8l-0.4,0l0,-0.3l0.2,0l0,-0.5l-0.6,0l0,-0.4l-0.1,0l0,-0.3l-0.2,0c0.1,-0.2 0.3,-0.4 0.4,-0.6c0.1,-0.3 0.1,-0.6 0.1,-1c-0.1,-0.7 -0.5,-1.2 -0.8,-1.8l-0.1,0.1l0,1c-0.2,-0.3 -0.5,-0.6 -0.7,-0.8c0,0 -0.1,0.1 0,0.1c0,0 0,0.1 0.1,0.3c0,0.4 0.1,0.7 0.3,1.1l0,0.1c0,0.1 0.1,0.1 0.1,0.2c0,0 0,0.1 0.1,0.1l0,0.1c0,0.2 0.2,0.3 0.2,0.5c0,0 0.1,0.3 0.1,0.5l-0.4,0l0,0.3l-0.1,0l0,0.4l-0.6,0l0,0.5l0.2,0l0,0.3l-0.4,0l0,0.8l0.4,0l0,0.3l-0.4,0l0,0.4l0.1,0l-1.4,2.9l-1,0l0,0.7l0.3,0l0,3l-1.2,0l0,1.6l0.4,0l0,5.1l-0.3,0l0,0.7l0.2,0l0,1.5l-0.8,0l0,0.9l0.2,0l0,4.3l-0.3,0l-0.7,-0.5l-0.4,0.7l-0.6,-0.6l-1,1l-0.6,-0.1l-0.1,0.7l0,6.8l-1.3,0l0,0.7l0.3,0l0,73.7l18.9,0l0,-73.7l0.3,0l0,-0.7l-0.3,0z"/>
  <path id="svg_58" fill="#cecece" d="m430.3,250.5l47.6,0l0,47.1l-47.6,0l0,-47.1z"/>
  <path id="svg_59" fill="none" stroke-miterlimit="10" stroke-linejoin="round" stroke-linecap="round" stroke-width="3" stroke="#cecece" d="m430.3,250.5l47.6,0l0,47.1l-47.6,0l0,-47.1z"/>
  <path id="svg_60" fill="#cecece" d="m632,242.4l20.6,0l0,51.8l-20.6,0l0,-51.8z"/>
  <path id="svg_61" fill="none" stroke-miterlimit="10" stroke-linejoin="round" stroke-linecap="round" stroke-width="3" stroke="#cecece" d="m632,242.4l20.6,0l0,51.8l-20.6,0l0,-51.8z"/>
  <path id="svg_62" fill="#cecece" d="m462.7,178.5l0,-17.3l-1.9,0l0,-12.8l-0.4,0l0,-2.8l-1.6,0l0,-10.9l-0.7,0l0,-1.3l-3,0l0,-4.1l-1.7,0l0,-0.8l-0.9,0l0,0.8l-1.7,0l0,4.1l-3,0l0,1.3l-0.7,0l0,10.9l-1.6,0l0,2.8l-0.3,0l0,12.8l-2,0l0,17.3l-2.6,0l0,113l24.8,0l0,-113l-2.7,0z"/>
  <path id="svg_63" fill="none" stroke-miterlimit="10" stroke-linejoin="round" stroke-linecap="round" stroke-width="3" stroke="#cecece" d="m462.7,178.5l0,-17.3l-1.9,0l0,-12.8l-0.4,0l0,-2.8l-1.6,0l0,-10.9l-0.7,0l0,-1.3l-3,0l0,-4.1l-1.7,0l0,-0.8l-0.9,0l0,0.8l-1.7,0l0,4.1l-3,0l0,1.3l-0.7,0l0,10.9l-1.6,0l0,2.8l-0.3,0l0,12.8l-2,0l0,17.3l-2.6,0l0,113l24.8,0l0,-113l-2.7,0z"/>
  <path id="svg_64" fill="#cecece" d="m428.6,235.5l0,-8.2l-0.8,0l0,-8.7l-6,0l0,-5.4l-16.3,0l0,5.4l-6,0l0,8.7l-0.8,0l0,8.2l-4.2,0l0,56l38.3,0l0,-56l-4.2,0z"/>
  <path id="svg_65" fill="none" stroke-miterlimit="10" stroke-linejoin="round" stroke-linecap="round" stroke-width="3" stroke="#cecece" d="m428.6,235.5l0,-8.2l-0.8,0l0,-8.7l-6,0l0,-5.4l-16.3,0l0,5.4l-6,0l0,8.7l-0.8,0l0,8.2l-4.2,0l0,56l38.3,0l0,-56l-4.2,0z"/>
  <path id="svg_66" fill="#cecece" d="m507.3,235.5l0,-8.2l-0.8,0l0,-8.7l-6,0l0,-5.4l-16.4,0l0,5.4l-6,0l0,8.7l-0.8,0l0,8.2l-4.2,0l0,56l38.4,0l0,-56l-4.2,0z"/>
  <path id="svg_67" fill="none" stroke-miterlimit="10" stroke-linejoin="round" stroke-linecap="round" stroke-width="3" stroke="#cecece" d="m507.3,235.5l0,-8.2l-0.8,0l0,-8.7l-6,0l0,-5.4l-16.4,0l0,5.4l-6,0l0,8.7l-0.8,0l0,8.2l-4.2,0l0,56l38.4,0l0,-56l-4.2,0z"/>
  <path id="svg_68" fill="#cecece" d="m369.2,196.3l0,72.3l-21.2,0l0,-0.4l-7.9,0l0,-2.4l-8.2,0l0,2.8l-5.1,0l0,29l61,0l0,-86.4l-18.6,-14.9z"/>
  <path id="svg_69" fill="none" stroke-miterlimit="10" stroke-linejoin="round" stroke-linecap="round" stroke-width="3" stroke="#cecece" d="m369.2,196.3l0,72.3l-21.2,0l0,-0.4l-7.9,0l0,-2.4l-8.2,0l0,2.8l-5.1,0l0,29l61,0l0,-86.4l-18.6,-14.9z"/>
  <path id="svg_70" fill="#cecece" d="m192.2,290.4l581.3,0l0,24.7l-581.3,0l0,-24.7z"/>
  <path id="svg_71" fill="none" stroke-miterlimit="10" stroke-linejoin="round" stroke-linecap="round" stroke-width="3" stroke="#cecece" d="m192.2,290.4l581.3,0l0,24.7l-581.3,0l0,-24.7z"/>
  <path id="svg_72" fill="#cecece" d="m237.3,291.9l0,-18.9l-34.5,0l0,-12.6l-15.8,0l0,-6.3l-2,0l0,-4.6l-1.7,0l0,-5.5l1.8,0l0,-1.7l-1.3,0l0,-0.6l1.5,0l0,-3.4l-1.8,0l0,-0.7l-1.9,0l0,-1.7l-0.8,0l0,-1.8l-1.1,0l0,-2.4l-2.3,0l0,-1.4l1.3,0l0,-0.9l-1.3,0l0,-9.7l0.8,0l0,-1.3l-0.8,0l0,-12.2l-0.7,0l0,-2.5l0.7,0l0,-1.5l-0.7,0l0,-2.5l0.7,0l0,-2.6l1.5,0l0,-2.4l1.4,0l0,-2.3l1.1,0l0,-6.7l-3.2,0l0,1.1l-1.5,0l0,-1.1l-3.2,0l0,1.1l-1.9,0l0,-4.5l-1.2,0l0,-4.2l0.6,0l0,-0.9l1,0l0,-2.4l-2.1,0l0,-4.8l-3.8,0c0.2,-3.6 0.2,-7.3 -0.1,-10.9c-0.3,-3.5 -2.7,-7.1 -1.8,-10.7c0.2,-0.3 1.9,-1.3 2.1,-1.5c0.2,-0.3 -1,-6.4 -1,-9.2c-0.1,-3.5 0.4,-7 0.1,-10.5c-0.5,-5.5 -2.5,-12.3 -4.7,-17.3l3.4,-4.9c0.6,-0.4 1.2,-0.7 1.8,-1.1c0.7,-0.4 1.9,-1.1 2.3,-2c1,-0.8 2.5,-1.6 1.7,-3c0.6,-0.5 1.1,-1.1 0.7,-1.9c-0.2,-0.4 1,-0.7 0.5,-1l0,-0.1l2.8,-5l-13.7,-7.7l-2.8,5c-0.6,-2.7 -1.2,-5.4 -3,-7.6c-1.3,-1.6 -3,-2.9 -4.2,-4.7c-1.5,-2.1 -2,-4.3 -3.6,-8.2c1.2,-1.9 1.5,-2.8 2,-7.3c0,-0.1 0.7,-0.7 1.3,-1.3l6.8,-0.6l-6.1,-1c0,-0.2 0,-0.4 -0.1,-0.6l6.1,-3.1l-6.7,1.6c-0.1,-0.2 -0.3,-0.4 -0.4,-0.6l5.3,-5.8l-6.6,4.6c-0.4,-0.2 -0.8,-0.5 -1.2,-0.6l1.5,-6.6l-3.1,6.2c-0.4,-0.1 -0.9,-0.1 -1.3,-0.1s-0.7,0 -1.1,0.1l-3.4,-5.7l1.8,6.1c-0.5,0.2 -0.9,0.4 -1.3,0.7l-2.7,-1.2c0.1,-1.2 0.1,-2.4 0.2,-3.5c0.1,-3.6 0.1,-7.2 0.2,-10.8c2.3,-1.6 0.1,-6.4 0.1,-6.4c0.4,-0.8 0.2,-2.1 0,-3.1l4,0l0,-4.9l-3.9,0l0,-2l-0.2,0c0.9,-0.9 2.3,-1.6 2.1,-3c-0.2,-2.6 -1.7,-3 -2,-5.6c0,-0.2 -3,-0.1 -2.9,0.4c0.2,2.5 -1.4,2.1 -1.9,4.6c-0.3,1.6 0.4,2.8 1.4,3.6l-0.1,0l0,2l-3.9,0l0,4.9l2.9,0c-0.3,0.7 -1,1.2 -1,2.1c0,0.9 0.6,1.6 0.6,1.6c0.3,0.6 -0.2,1.3 -0.5,1.6c-0.4,0.3 -0.7,0.6 -0.8,1.1c-0.2,0.5 0.1,1.1 0.4,1.5c0.1,0.1 0.1,0.2 0.2,0.2c0.2,4.2 0.2,8.4 -0.6,12.6c-0.6,3 -1.2,6.1 -0.6,9.2c0,0 -0.1,0 -0.1,0.1c-1.9,2.1 -3.5,4.3 -4.2,7.1c-0.3,1.3 -0.3,2.6 -0.1,3.9c0.1,0.5 0.4,1 0.7,1.4c0.4,0.6 0.3,1.4 0.2,2.2c-0.6,1.2 -1.6,2.2 -1.2,3.6c0.3,1.1 1.4,1.6 2.3,2.2c0,0 -0.1,0.1 -0.1,0.2c-0.4,2.4 -1.3,4.6 -1.3,7.1c0,0.8 0.2,1.5 0.5,2.2c0.4,0.9 1.4,1.1 1.9,1.9l0,0.1c-1.7,4.2 -4,8.9 -3,13.6c0.4,2.2 1.8,4.7 4,4.4c-4.4,8.6 -1.6,11.3 0.7,13.1c-4.3,5.7 -0.3,8.7 0.9,9.6l-0.1,0.1c-0.9,1.1 -1.6,2.3 -2.1,3.7c-0.7,1.9 -0.1,4.1 -1,6c-0.8,1.6 -2.1,2.9 -2.9,4.6c-0.7,1.5 -0.8,3.2 -0.9,4.8c-0.1,2.1 -1.1,4.1 -1.6,6.1c-0.5,2.2 -0.9,4.4 -1.8,6.6c-0.8,1.9 -2.3,2.8 -3.4,4.3c-0.7,1 -0.6,2 -0.6,3l-2.2,0l0,4.8l-2.1,0l0,2.4l1,0l0,0.9l0.6,0l0,4.2l-1.2,0l0,4.5l-1.9,0l0,-1.1l-3.2,0l0,1.1l-1.5,0l0,-1.1l-3.2,0l0,6.7l1.2,0l0,2.3l1.4,0l0,2.4l1.5,0l0,2.6l0.8,0l0,2.5l-0.8,0l0,1.5l0.8,0l0,2.5l-0.8,0l0,12.2l-0.8,0l0,1.3l0.8,0l0,9.7l-1.3,0l0,0.9l1.3,0l0,1.4l-2.3,0l0,2.4l-1.1,0l0,1.8l-0.8,0l0,1.7l-1.9,0l0,0.7l-1.8,0l0,3.4l1.5,0l0,0.6l-1.3,0l0,1.7l1.8,0l0,5.6l-1.7,0l0,4.6l-2,0l0,6.3l-15.8,0l0,12l-34.5,0l0,18.9l-47.4,0l0,23l283.6,0l0,-23l-47.3,0zm-100,-234c-0.1,-1.5 0,-2.9 0.1,-4.4l1.6,1.3c-0.8,0.9 -1.3,1.9 -1.4,3c-0.1,0.1 -0.2,0.1 -0.3,0.1z"/>
  <path id="svg_73" fill="none" stroke-miterlimit="10" stroke-linejoin="round" stroke-linecap="round" stroke-width="3" stroke="#cecece" d="m237.3,291.9l0,-18.9l-34.5,0l0,-12.6l-15.8,0l0,-6.3l-2,0l0,-4.6l-1.7,0l0,-5.5l1.8,0l0,-1.7l-1.3,0l0,-0.6l1.5,0l0,-3.4l-1.8,0l0,-0.7l-1.9,0l0,-1.7l-0.8,0l0,-1.8l-1.1,0l0,-2.4l-2.3,0l0,-1.4l1.3,0l0,-0.9l-1.3,0l0,-9.7l0.8,0l0,-1.3l-0.8,0l0,-12.2l-0.7,0l0,-2.5l0.7,0l0,-1.5l-0.7,0l0,-2.5l0.7,0l0,-2.6l1.5,0l0,-2.4l1.4,0l0,-2.3l1.1,0l0,-6.7l-3.2,0l0,1.1l-1.5,0l0,-1.1l-3.2,0l0,1.1l-1.9,0l0,-4.5l-1.2,0l0,-4.2l0.6,0l0,-0.9l1,0l0,-2.4l-2.1,0l0,-4.8l-3.8,0c0.2,-3.6 0.2,-7.3 -0.1,-10.9c-0.3,-3.5 -2.7,-7.1 -1.8,-10.7c0.2,-0.3 1.9,-1.3 2.1,-1.5c0.2,-0.3 -1,-6.4 -1,-9.2c-0.1,-3.5 0.4,-7 0.1,-10.5c-0.5,-5.5 -2.5,-12.3 -4.7,-17.3l3.4,-4.9c0.6,-0.4 1.2,-0.7 1.8,-1.1c0.7,-0.4 1.9,-1.1 2.3,-2c1,-0.8 2.5,-1.6 1.7,-3c0.6,-0.5 1.1,-1.1 0.7,-1.9c-0.2,-0.4 1,-0.7 0.5,-1l0,-0.1l2.8,-5l-13.7,-7.7l-2.8,5c-0.6,-2.7 -1.2,-5.4 -3,-7.6c-1.3,-1.6 -3,-2.9 -4.2,-4.7c-1.5,-2.1 -2,-4.3 -3.6,-8.2c1.2,-1.9 1.5,-2.8 2,-7.3c0,-0.1 0.7,-0.7 1.3,-1.3l6.8,-0.6l-6.1,-1c0,-0.2 0,-0.4 -0.1,-0.6l6.1,-3.1l-6.7,1.6c-0.1,-0.2 -0.3,-0.4 -0.4,-0.6l5.3,-5.8l-6.6,4.6c-0.4,-0.2 -0.8,-0.5 -1.2,-0.6l1.5,-6.6l-3.1,6.2c-0.4,-0.1 -0.9,-0.1 -1.3,-0.1s-0.7,0 -1.1,0.1l-3.4,-5.7l1.8,6.1c-0.5,0.2 -0.9,0.4 -1.3,0.7l-2.7,-1.2c0.1,-1.2 0.1,-2.4 0.2,-3.5c0.1,-3.6 0.1,-7.2 0.2,-10.8c2.3,-1.6 0.1,-6.4 0.1,-6.4c0.4,-0.8 0.2,-2.1 0,-3.1l4,0l0,-4.9l-3.9,0l0,-2l-0.2,0c0.9,-0.9 2.3,-1.6 2.1,-3c-0.2,-2.6 -1.7,-3 -2,-5.6c0,-0.2 -3,-0.1 -2.9,0.4c0.2,2.5 -1.4,2.1 -1.9,4.6c-0.3,1.6 0.4,2.8 1.4,3.6l-0.1,0l0,2l-3.9,0l0,4.9l2.9,0c-0.3,0.7 -1,1.2 -1,2.1c0,0.9 0.6,1.6 0.6,1.6c0.3,0.6 -0.2,1.3 -0.5,1.6c-0.4,0.3 -0.7,0.6 -0.8,1.1c-0.2,0.5 0.1,1.1 0.4,1.5c0.1,0.1 0.1,0.2 0.2,0.2c0.2,4.2 0.2,8.4 -0.6,12.6c-0.6,3 -1.2,6.1 -0.6,9.2c0,0 -0.1,0 -0.1,0.1c-1.9,2.1 -3.5,4.3 -4.2,7.1c-0.3,1.3 -0.3,2.6 -0.1,3.9c0.1,0.5 0.4,1 0.7,1.4c0.4,0.6 0.3,1.4 0.2,2.2c-0.6,1.2 -1.6,2.2 -1.2,3.6c0.3,1.1 1.4,1.6 2.3,2.2c0,0 -0.1,0.1 -0.1,0.2c-0.4,2.4 -1.3,4.6 -1.3,7.1c0,0.8 0.2,1.5 0.5,2.2c0.4,0.9 1.4,1.1 1.9,1.9l0,0.1c-1.7,4.2 -4,8.9 -3,13.6c0.4,2.2 1.8,4.7 4,4.4c-4.4,8.6 -1.6,11.3 0.7,13.1c-4.3,5.7 -0.3,8.7 0.9,9.6l-0.1,0.1c-0.9,1.1 -1.6,2.3 -2.1,3.7c-0.7,1.9 -0.1,4.1 -1,6c-0.8,1.6 -2.1,2.9 -2.9,4.6c-0.7,1.5 -0.8,3.2 -0.9,4.8c-0.1,2.1 -1.1,4.1 -1.6,6.1c-0.5,2.2 -0.9,4.4 -1.8,6.6c-0.8,1.9 -2.3,2.8 -3.4,4.3c-0.7,1 -0.6,2 -0.6,3l-2.2,0l0,4.8l-2.1,0l0,2.4l1,0l0,0.9l0.6,0l0,4.2l-1.2,0l0,4.5l-1.9,0l0,-1.1l-3.2,0l0,1.1l-1.5,0l0,-1.1l-3.2,0l0,6.7l1.2,0l0,2.3l1.4,0l0,2.4l1.5,0l0,2.6l0.8,0l0,2.5l-0.8,0l0,1.5l0.8,0l0,2.5l-0.8,0l0,12.2l-0.8,0l0,1.3l0.8,0l0,9.7l-1.3,0l0,0.9l1.3,0l0,1.4l-2.3,0l0,2.4l-1.1,0l0,1.8l-0.8,0l0,1.7l-1.9,0l0,0.7l-1.8,0l0,3.4l1.5,0l0,0.6l-1.3,0l0,1.7l1.8,0l0,5.6l-1.7,0l0,4.6l-2,0l0,6.3l-15.8,0l0,12l-34.5,0l0,18.9l-47.4,0l0,23l283.6,0l0,-23l-47.3,0zm-100,-234c-0.1,-1.5 0,-2.9 0.1,-4.4l1.6,1.3c-0.8,0.9 -1.3,1.9 -1.4,3c-0.1,0.1 -0.2,0.1 -0.3,0.1z"/>
  <path id="svg_74" fill="#cecece" d="m576.6,111l29.7,0l0,188.3l-29.7,0l0,-188.3z"/>
  <path id="svg_75" fill="none" stroke-miterlimit="10" stroke-linejoin="round" stroke-linecap="round" stroke-width="3" stroke="#cecece" d="m576.6,111l29.7,0l0,188.3l-29.7,0l0,-188.3z"/>
 </g>
</svg>