<?xml version="1.0" encoding="utf-8"?>
<!-- Generator: Adobe Illustrator 19.0.0, SVG Export Plug-In . SVG Version: 6.00 Build 0)  -->
<svg version="1.1" xmlns="http://www.w3.org/2000/svg" xmlns:xlink="http://www.w3.org/1999/xlink" x="0px" y="0px"
	 viewBox="0 0 363.8 91.5" style="enable-background:new 0 0 363.8 91.5;" xml:space="preserve">
<style type="text/css">
	.st0{fill:#757575;}
</style>
<g id="ground">
</g>
<g id="new_york">
	<polygon class="st0" points="184,78.5 184,76.8 183.8,76.8 183.8,75.3 184,75.3 184,75.1 183.8,75.1 183.8,74.2 184,74.2 184,74 
		183.8,74 183.8,73 184,73 184,72.9 183.8,72.9 183.8,71.9 184,71.9 184,71.8 183.8,71.8 183.8,70.8 184,70.8 184,70.7 183.8,70.7 
		183.8,69.7 184,69.7 184,69.6 183.8,69.6 183.8,68.6 184,68.6 184,68.4 183.8,68.4 183.8,67.5 184,67.5 184,67.3 183.8,67.3 
		183.8,66.4 184,66.4 184,66.2 183.8,66.2 183.8,65.3 184,65.3 184,65.1 183.8,65.1 183.8,64.1 184,64.1 184,64 183.8,64 183.8,63 
		184,63 184,62.9 183.8,62.9 183.8,61.9 184,61.9 184,61.8 183.8,61.8 183.8,60.8 184,60.8 184,60.7 183.8,60.7 183.8,59.7 
		184,59.7 184,59.5 183.8,59.5 183.8,58.6 184,58.6 184,58.4 183.8,58.4 183.8,57.5 184,57.5 184,57.3 183.8,57.3 183.8,56.4 
		184,56.4 184,56.2 183.8,56.2 183.8,55.3 184,55.3 184,55.1 183.8,55.1 183.8,54.1 184,54.1 184,54 183.8,54 183.8,53 184,53 
		184,52.9 183.8,52.9 183.8,51.9 184,51.9 184,51.8 183.8,51.8 183.8,50.1 192,50.1 192,51.8 191.9,51.8 191.9,51.9 192,51.9 
		192,52.9 191.9,52.9 191.9,53 192,53 192,54 191.9,54 191.9,54.1 192,54.1 192,55.1 191.9,55.1 191.9,55.3 192,55.3 192,56.2 
		191.9,56.2 191.9,56.4 192,56.4 192,57.3 191.9,57.3 191.9,57.5 192,57.5 192,58.4 191.9,58.4 191.9,58.6 192,58.6 192,59.5 
		191.9,59.5 191.9,59.7 192,59.7 192,60.7 191.9,60.7 191.9,60.8 192,60.8 192,61.8 191.9,61.8 191.9,61.9 192,61.9 192,62.9 
		191.9,62.9 191.9,63 192,63 192,64 191.9,64 191.9,64.1 192,64.1 192,65.1 191.9,65.1 191.9,65.3 192,65.3 192,66.2 191.9,66.2 
		191.9,66.4 192,66.4 192,67.3 191.9,67.3 191.9,67.5 192,67.5 192,68.4 191.9,68.4 191.9,68.6 192,68.6 192,69.6 191.9,69.6 
		191.9,69.7 192,69.7 192,70.7 191.9,70.7 191.9,70.8 192,70.8 192,71.8 191.9,71.8 191.9,71.9 192,71.9 192,72.9 191.9,72.9 
		191.9,73 192,73 192,74 191.9,74 191.9,74.2 192,74.2 192,75.1 191.9,75.1 191.9,75.3 192,75.3 192,76.8 191.9,76.8 191.9,78.5 
		196.7,78.5 196.7,82.4 179.1,82.4 179.1,78.5 	"/>
	<polygon class="st0" points="146.8,66.8 146.3,46.8 146,46.8 145.6,43.2 145.3,43.2 144.9,41.1 144.6,41 144.4,40.1 143.9,38.8 
		143.8,38.7 143.1,37.7 142.4,37.1 142.3,37.3 142.8,37.8 143.3,38.9 143.3,38.9 143.7,40.6 143.7,40.8 143.6,40.8 143.6,40.2 
		143.5,40.2 143.5,40.1 143.4,40.2 143.4,40 143.3,39.9 143.1,39.9 143.1,39.8 143,39.8 143,38.6 142.9,38.5 142.8,38.5 142.8,38.6 
		142.7,39.5 142.6,39.5 142.4,39.4 142.3,39.4 142.3,38.6 142.3,38.6 142.2,37.2 142.1,37.2 142.1,38.6 142.1,38.6 142.1,39.4 
		141.9,39.3 141.9,39.3 141.7,39.3 141.7,39.2 141.6,39.1 141.6,38.6 141.6,38.6 141.5,37.2 141.4,37.2 141.4,38.6 141.4,38.6 
		141.4,39 140.9,39 140.9,38.6 140.9,38.6 140.9,37.2 140.7,37.2 140.7,38.6 140.7,38.6 140.7,39 140.2,39 140.2,38.6 140.2,38.6 
		140.2,37.2 140,37.2 140,38.6 140,38.6 140,39 139.5,39 139.5,38.6 139.5,38.6 139.4,37.2 139.3,37.2 139.3,38.6 139.3,38.6 
		139.3,39 138.8,39 138.8,38.6 138.8,38.6 138.8,37.2 138.6,37.2 138.6,38.6 138.6,38.6 138.6,39.1 138.5,39.2 138.5,39.3 
		138.3,39.3 138.3,39.3 138.1,39.4 138.1,38.6 138.1,38.6 138.1,37.2 137.9,37.2 137.9,38.6 137.9,38.6 137.9,39.4 137.8,39.4 
		137.6,39.5 137.4,39.5 137.4,38.6 137.3,38.5 137.2,38.5 137.2,38.6 137.1,39.8 137.1,39.8 137.1,39.9 136.9,39.9 136.8,40 
		136.8,40.2 136.7,40.1 136.7,40.2 136.6,40.2 136.6,40.8 136.5,40.8 136.5,40.6 136.9,38.9 136.8,38.9 137.4,37.8 137.8,37.3 
		137.7,37.1 137,37.7 136.4,38.7 136.3,38.8 135.8,40.1 135.5,41 135.3,41.1 134.9,43.2 134.6,43.2 134.2,46.8 133.9,46.8 
		133.4,66.8 126.4,66.8 126.4,82.4 153.8,82.4 153.8,66.8 	"/>
	<path class="st0" d="M104.8,48.2v34.2h7V48.2h-0.1v-4.6h-0.1V40h-0.1v-3.3h-0.5v-0.1h0v-0.2h-0.6v0.2h-0.2v-0.1h-0.4v0.1h-0.3v0.5
		h-0.7v-0.1h0v0h0V37h0v0c0,0,0,0,0-0.1c0,0,0-0.1-0.1-0.1c0,0-0.1,0-0.1,0.1c0,0,0,0.1,0,0.1v0h0V37h-0.1V37h0v0c0,0,0,0,0-0.1
		c0,0,0-0.1-0.1-0.1c0,0-0.1,0-0.1,0.1c0,0,0,0.1,0,0.1v0h0V37h0v0h0v-0.5h0.3v0h0v0h-0.3v-0.7h0.3v0h0v0h-0.1l0-0.4l0,0.4h0l0-0.4
		l0,0.4h-0.6v-0.1l0,0v0.1h0v-0.1h0v0h0l0,0c0,0,0,0,0,0v0.2h0v-0.2c0.1,0,0.1-0.1,0.1-0.1c0-0.1-0.1-0.1-0.2-0.1
		c-0.1,0-0.2,0-0.2,0.1c0,0,0,0,0,0.1h0v0h0v0h-0.1l0,0l0,0l0,0l0,0c0-0.1,0.1-0.1,0-0.2c0,0-0.1,0-0.2,0c0,0-0.1-0.1-0.2,0
		c-0.1,0-0.2,0.1-0.2,0.1c0,0,0.1,0.1,0.2,0.1l0,0l0,0l0,0l0,0v0.2h-0.2v0h0v0h0.3v0.7h-0.3v0h0v0h0.3v0.1h-0.7v0.1
		c0,0-0.1,0-0.1,0.1c0,0,0,0.1,0.1,0.1v0.1h-1.6v0h-0.1l0,0.1v0.1H105V40H105v3.6h-0.1L104.8,48.2L104.8,48.2z M108,35.7L108,35.7
		L108,35.7L108,35.7L108,35.7z M107.9,35.7h-0.1v0L107.9,35.7L107.9,35.7z M107.5,35.6v0.2h0L107.5,35.6L107.5,35.6z M107.7,35.6
		L107.7,35.6L107.7,35.6l-0.1,0v0.2h-0.1v-0.2l0,0c0,0,0,0,0,0C107.6,35.6,107.6,35.6,107.7,35.6L107.7,35.6L107.7,35.6L107.7,35.6z
		 M108,37.1L108,37.1l0-0.3h0c0,0,0,0,0,0V37.1z M107.7,36.6L107.7,36.6l0.3-0.1v0.1c0,0,0,0,0,0h0v-0.1H107.7z M107.7,36.5v-0.7
		h0.3v0.7H107.7z M107.7,35.7L107.7,35.7L107.7,35.7L107.7,35.7L107.7,35.7z M107.7,35.6L107.7,35.6L107.7,35.6L107.7,35.6
		L107.7,35.6z M107.9,35.7L107.9,35.7l-0.1,0.1v-0.1H107.9z M108.4,35.8v0.7h-0.3v-0.7H108.4z M108.4,36.6v0.5h-0.1v0h-0.2v-0.5
		H108.4z M107.6,36.6L107.6,36.6L107.6,36.6L107.6,36.6L107.6,36.6z M107.6,35.8L107.6,35.8l0.1,0.7h-0.1V35.8z M107.9,35.5
		L107.9,35.5l-0.1,0.1v0l0,0H107.9z M108,35.5C108,35.5,108,35.5,108,35.5L108,35.5L108,35.5L108,35.5L108,35.5z M108,35.8L108,35.8
		L108,35.8L108,35.8L108,35.8z M108.5,36.5L108.5,36.5l-0.1-0.7h0.1V36.5z M108.5,37.1L108.5,37.1l-0.1-0.5h0.1V37.1z"/>
	<path class="st0" d="M233.3,63.4H233v19.1h13.8V63.4h-0.3V45.6H245v-2.8h0.2v-4.2c0-0.1-1.2-0.2-3-0.3l-1.6-2.5v-0.2h0v-2.2h-0.1
		v2.2h0v0.2h-1.1v-0.2h0v-2.2h-0.1v2.2h0v0.2l-1.6,2.5c-1.8,0-3,0.1-3,0.3v4.2h0.2v2.8h-1.5V63.4z M239.2,36c-0.2,0.4-0.8,1.7-1,2.3
		c-0.1,0-0.3,0-0.4,0C238.1,37.6,239,36.3,239.2,36z M239,38.3c0.1-0.3,0.2-0.8,0.2-1.2v0.8L239,38.3C239.1,38.3,239,38.3,239,38.3z
		 M239.4,35.8l0.5,0.9l-0.5,0.8l-0.1-0.9V35.8z M239.4,37.7L239.4,37.7l0-0.3C239.4,37.4,239.4,37.5,239.4,37.7z M239.4,37.7
		c0,0.2,0,0.4,0,0.5c0,0,0,0-0.1,0L239.4,37.7L239.4,37.7z M239.3,38.3c0,0-0.1,0-0.1,0l0.1-0.3V38.3z M239.3,35.9v1
		c-0.1,0.4-0.2,1.1-0.3,1.4c-0.3,0-0.5,0-0.8,0C238.4,37.7,239.1,36.4,239.3,35.9z M240.5,35.7L240.5,35.7l-0.5,1l-0.5-1v0H240.5z
		 M240.6,37.1c0.1,0.4,0.2,0.9,0.2,1.2c0,0,0,0,0,0l-0.2-0.4V37.1z M240.7,38.3c-0.1,0-0.1,0-0.2,0V38L240.7,38.3z M240.5,38.3
		C240.4,38.3,240.4,38.3,240.5,38.3c-0.1-0.1,0-0.3,0-0.5l0,0V38.3z M240.4,37.7c0-0.1,0-0.2,0-0.3L240.4,37.7L240.4,37.7z
		 M240.4,37.6l-0.5-0.8l0.5-0.9v0.8L240.4,37.6z M240.6,35.9c0.2,0.5,0.8,1.9,1.1,2.4c-0.3,0-0.5,0-0.8,0c-0.1-0.4-0.2-1-0.3-1.4
		V35.9z M242.1,38.3c-0.1,0-0.3,0-0.4,0c-0.3-0.6-0.9-1.9-1-2.3C240.9,36.3,241.7,37.6,242.1,38.3z M239.9,38.3c-0.2,0-0.3,0-0.4,0
		l0-0.6l0.5-0.9l0.5,0.8l0,0.6C240.2,38.3,240.1,38.3,239.9,38.3z"/>
	<path class="st0" d="M168.5,78.5h-0.2v3.9h10.1v-3.9h-0.2V45h-0.5v-0.1h-1.9v-0.1h-0.1v-0.3h0v-0.2h0.2V44h0v-0.2v0h-0.9v-0.1h0.3
		v0h0.2v-0.1h-0.1v-0.9h0.1v-0.2h0v-0.2v0h-0.5v-0.9h0.3v0h0.2V41h0v-0.2v0h-0.2v0h0.1v-0.1c0.1,0,0.1,0.1,0.1,0.1
		c0.1,0,0.1-0.2,0-0.4c-0.1-0.2-0.2-0.4-0.3-0.3c0,0-0.1,0.2,0,0.4c0,0,0,0,0,0.1v0.1h0v0.1h-0.9v-0.6h-0.3v0h-0.4v-0.4h0v-0.3h0
		v0.3h0v0.4h-0.3v0h-0.7V40h-0.3v0.1h-0.1v0.6H171h0v0V41h0v0.2h0.2v0h0.3v0.9H171h0v0v0.2h0v0.2h0.1v0.9H171v0.1h0.2v0h0.3v0.1
		h-0.9h0v0V44h0v0.2h0.2v0.2h0v0.3h-0.1v0.1h-1.9V45h-0.4V78.5z M174.9,42.2L174.9,42.2l-0.3,0.1v-0.1
		C174.6,42.2,174.8,42.2,174.9,42.2z M172.1,42.4v-0.1h0.1L172.1,42.4L172.1,42.4z M174.4,42.3L174.4,42.3l0.1,0.1h-0.1V42.3z
		 M171.6,42.4v-0.1h0.1L171.6,42.4L171.6,42.4z M171.8,42.3h0.3v0.1h-0.3V42.3z M171.8,42.2L171.8,42.2c0.1-0.1,0.2-0.1,0.3-0.1v0.1
		H171.8z M172.1,42.2C172.1,42.2,172.2,42.2,172.1,42.2L172.1,42.2L172.1,42.2L172.1,42.2z M174.4,42.2
		C174.4,42.2,174.5,42.2,174.4,42.2L174.4,42.2L174.4,42.2L174.4,42.2z M174.9,42.3v0.1h-0.3v-0.1H174.9z M174.9,42.3L174.9,42.3
		l0.1,0.1h-0.1V42.3z M171.4,42.4v-0.1h0.1v0.1H171.4z M171.6,42.3L171.6,42.3l0,0.1h0V42.3z M171.6,42.2L171.6,42.2
		C171.6,42.2,171.6,42.2,171.6,42.2L171.6,42.2L171.6,42.2z M171.6,42.2C171.7,42.2,171.7,42.2,171.6,42.2L171.6,42.2L171.6,42.2
		L171.6,42.2z M171.6,42.1v-0.9h0.6v0.9H171.6z M171.4,41L171.4,41l0.3-0.1V41H171.4z M171.4,40.8L171.4,40.8
		c0.1-0.1,0.2-0.1,0.3-0.1v0.1H171.4z M171.8,40.8c0.1,0,0.2,0,0.3,0v0.1L171.8,40.8L171.8,40.8z M172.1,40.9L172.1,40.9l-0.3,0.1
		v-0.1H172.1z M172.1,40.9L172.1,40.9L172.1,40.9L172.1,40.9L172.1,40.9z M174.4,40.9L174.4,40.9L174.4,40.9L174.4,40.9L174.4,40.9z
		 M174.5,40.9h0.3V41L174.5,40.9L174.5,40.9z M174.5,40.8L174.5,40.8c0.1-0.1,0.2-0.1,0.3-0.1v0.1H174.5z M174.9,40.8
		c0.1,0,0.2,0,0.3,0v0.1L174.9,40.8L174.9,40.8z M175.2,40.9L175.2,40.9l-0.3,0.1v-0.1H175.2z M175.2,40.9L175.2,40.9L175.2,40.9
		L175.2,40.9L175.2,40.9z M175,41.3v0.9h-0.6v-0.9H175z M175,42.2L175,42.2L175,42.2L175,42.2C174.9,42.2,174.9,42.2,175,42.2z
		 M175,42.2C175,42.2,175,42.2,175,42.2L175,42.2L175,42.2L175,42.2z M175,42.3v0.1h0L175,42.3L175,42.3z M175.1,42.3h0.1v0.1h-0.1
		V42.3z M171.1,42.4c0,0,0-0.1,0-0.1h0.3v0.1H171.1z M171.1,42.2c0,0,0.1,0,0.3,0v0.1L171.1,42.2C171.1,42.2,171.1,42.2,171.1,42.2z
		 M171.5,42.2L171.5,42.2l-0.1,0.1v-0.1C171.5,42.2,171.5,42.2,171.5,42.2z M171.6,41.3L171.6,41.3l0,0.9h0V41.3z M171.1,41
		C171.1,41,171.1,40.9,171.1,41l0.3-0.1V41H171.1z M171.1,40.8c0,0,0.1,0,0.3,0v0.1L171.1,40.8C171.1,40.8,171.1,40.8,171.1,40.8z
		 M172.2,40.8L172.2,40.8L172.2,40.8L172.2,40.8C172.1,40.8,172.2,40.8,172.2,40.8z M174.4,40.8C174.4,40.8,174.5,40.8,174.4,40.8
		L174.4,40.8L174.4,40.8L174.4,40.8z M175.3,40.8L175.3,40.8L175.3,40.8L175.3,40.8C175.3,40.8,175.3,40.8,175.3,40.8z M175.4,40.8
		c0.1,0,0.1,0,0.2,0c0,0,0,0,0,0.1L175.4,40.8L175.4,40.8L175.4,40.8z M175.6,41h-0.1v-0.1L175.6,41C175.6,40.9,175.6,41,175.6,41z
		 M175,42.1L175,42.1l0-0.9h0V42.1z M175.1,42.2c0,0,0.1,0,0.1,0v0.1L175.1,42.2L175.1,42.2z M175.2,42.2c0.2,0,0.3,0,0.3,0
		c0,0,0,0,0,0.1L175.2,42.2L175.2,42.2z M175.6,42.4h-0.3v-0.1h0.3C175.6,42.3,175.6,42.3,175.6,42.4z M170.9,44.5L170.9,44.5l0-0.1
		h0.6v0.4h-0.6V44.5z M175.6,43.9h-0.3v-0.1C175.4,43.8,175.5,43.8,175.6,43.9L175.6,43.9z M175.6,43.8c0.2,0,0.3,0,0.3,0
		c0,0,0,0,0,0.1L175.6,43.8L175.6,43.8z M175.6,43.9V44h-0.3v-0.1H175.6z M171.3,43.9V44H171v-0.1H171.3z M171,43.9L171,43.9
		c0.1-0.1,0.2-0.1,0.3-0.1v0.1H171z M171.4,43.9h0.2V44h-0.2V43.9z M175.1,43.9h0.2V44h-0.2V43.9z M170.7,44c0,0,0-0.1,0-0.1h0.3V44
		H170.7z M170.7,43.8c0,0,0.1,0,0.3,0v0.1L170.7,43.8C170.7,43.9,170.7,43.8,170.7,43.8z M171.5,43.8L171.5,43.8l-0.2,0.1v-0.1
		C171.4,43.8,171.5,43.8,171.5,43.8z M175.1,43.8c0.1,0,0.1,0,0.2,0v0.1L175.1,43.8L175.1,43.8z M176,44h-0.3v-0.1h0.3
		C176,44,176,44,176,44z M175.7,44.8h-0.6v-0.4h0.6v0.1h0V44.8z"/>
	<path class="st0" d="M47.6,68.2v14.2h7.8V68.2h-0.2v-0.8h-0.1v-0.9h0v-0.1h-1.7l0.3-0.6l0.2,0l0.5-0.4c0,0,0.1,0,0.2,0
		c0.1,0,0.2-0.1,0.2-0.1c0,0,0-0.1,0-0.1l0.2-0.2c0,0,0.1-0.1,0.1-0.2c0-0.1-0.1-0.2-0.2-0.2v0v0l0,0c-0.4-0.1-1.4-0.4-3.5-0.4
		c-2,0-3.1,0.3-3.5,0.4l0,0v0c-0.1,0-0.2,0.1-0.2,0.2c0,0.1,0.1,0.2,0.1,0.2l0.2,0.2c0,0,0,0,0,0.1c0,0,0.2,0.1,0.2,0.1
		c0.1,0,0.2,0,0.2,0l0.5,0.4l0.2,0l0.3,0.6H48v0.1h0v0.9h-0.1v0.8H47.6z M51.2,64.2c-0.1,0-0.1,0-0.2,0v0
		C51.1,64.2,51.2,64.2,51.2,64.2L51.2,64.2z M51.3,64.2c0.1,0,0.1,0,0.2,0v0C51.4,64.2,51.3,64.2,51.3,64.2L51.3,64.2z M51.1,64.2
		c-0.1,0-0.1,0-0.2,0v0C50.9,64.2,51,64.2,51.1,64.2L51.1,64.2z M49.4,64.3c0.1,0,0.1,0,0.2,0v0C49.5,64.3,49.4,64.3,49.4,64.3
		L49.4,64.3z M49.4,64.3c-0.1,0-0.1,0-0.2,0v0C49.2,64.3,49.3,64.3,49.4,64.3L49.4,64.3z M49.6,64.3c0.1,0,0.1,0,0.2,0v0
		C49.7,64.3,49.6,64.3,49.6,64.3L49.6,64.3z M49.8,64.3c0.1,0,0.1,0,0.2,0v0C49.9,64.3,49.8,64.3,49.8,64.3L49.8,64.3z M49.9,64.2
		c0.1,0,0.1,0,0.2,0v0C50.1,64.3,50,64.3,49.9,64.2L49.9,64.2z M50.1,64.2c0.1,0,0.1,0,0.2,0v0C50.2,64.2,50.2,64.2,50.1,64.2
		L50.1,64.2z M50.3,64.2c0.1,0,0.1,0,0.2,0v0C50.4,64.2,50.4,64.2,50.3,64.2L50.3,64.2z M50.5,64.2c0.1,0,0.1,0,0.2,0v0
		C50.6,64.2,50.6,64.2,50.5,64.2L50.5,64.2z M50.7,64.2c0.1,0,0.1,0,0.2,0v0C50.8,64.2,50.7,64.2,50.7,64.2L50.7,64.2z M50.9,66v0.2
		l-0.6-0.3L50.9,66z M50,65.9L50,65.9l-0.2,0L50,65.9z M50,66l-0.1,0.2l-0.1-0.1c0-0.1,0-0.2,0-0.2C49.8,65.9,49.9,66,50,66z
		 M49.8,66.2l-0.1,0.1C49.8,66.3,49.8,66.3,49.8,66.2C49.8,66.2,49.8,66.2,49.8,66.2z M50,66.1c0.2,0.1,0.4,0.3,0.5,0.4h-0.3
		l-0.3-0.2C49.9,66.2,50,66.1,50,66.1z M50.1,66.4h-0.3c0,0,0.1-0.1,0.1-0.2C50,66.3,50,66.4,50.1,66.4z M49.5,65.9
		c0.1,0,0.2,0.1,0.3,0.2l0,0.2C49.6,66.3,49.5,66,49.5,65.9z M49.5,65.8l0.3,0l0,0.2L49.5,65.8z M49,64.4L49,64.4
		c0.1,0,0.1-0.1,0.2-0.1v0C49.1,64.4,49.1,64.4,49,64.4z M49,64.4c-0.1,0-0.1,0-0.2,0v0C48.9,64.4,48.9,64.4,49,64.4L49,64.4z
		 M48.6,64.5L48.6,64.5c0.1,0,0.1-0.1,0.2-0.1v0C48.7,64.4,48.7,64.5,48.6,64.5z M48.4,64.5L48.4,64.5c0.1-0.1,0.1-0.1,0.2-0.1v0
		C48.5,64.5,48.5,64.5,48.4,64.5z M48.4,64.5c-0.1,0-0.1,0-0.2,0v0C48.3,64.5,48.4,64.5,48.4,64.5L48.4,64.5z M48.1,64.6
		c0,0,0.1,0,0.2-0.1v0C48.1,64.6,48.1,64.6,48.1,64.6C48.1,64.6,48.1,64.6,48.1,64.6C48.1,64.6,48.1,64.6,48.1,64.6z M52.2,66
		l0.6-0.1l-0.6,0.3V66z M53.3,66.4H53c0,0,0.1-0.1,0.2-0.2C53.2,66.3,53.2,66.4,53.3,66.4z M53.2,66.2
		C53.2,66.2,53.3,66.2,53.2,66.2c0.1,0,0.1,0.1,0.1,0.1L53.2,66.2z M52.9,66.4h-0.3c0.1-0.1,0.3-0.2,0.5-0.4c0,0,0.1,0.1,0.1,0.2
		L52.9,66.4z M53.1,66c0.1-0.1,0.1-0.1,0.2-0.1c0,0,0,0.1,0,0.2l-0.1,0.1L53.1,66z M53.7,64.3L53.7,64.3c0.1,0,0.1,0,0.2,0v0
		C53.8,64.4,53.8,64.3,53.7,64.3z M53.7,64.3c-0.1,0-0.1,0-0.2,0v0C53.6,64.3,53.6,64.3,53.7,64.3L53.7,64.3z M53.5,64.3
		c-0.1,0-0.1,0-0.2,0v0C53.4,64.3,53.4,64.3,53.5,64.3L53.5,64.3z M52.2,64.2L52.2,64.2c0.1,0,0.1,0,0.2,0v0
		C52.3,64.2,52.3,64.2,52.2,64.2z M52.4,64.2c0.1,0,0.1,0,0.2,0v0C52.5,64.2,52.4,64.2,52.4,64.2L52.4,64.2z M52.6,64.2
		c0.1,0,0.1,0,0.2,0v0C52.7,64.2,52.6,64.2,52.6,64.2L52.6,64.2z M52.8,64.2c0.1,0,0.1,0,0.2,0v0C52.9,64.2,52.8,64.2,52.8,64.2
		L52.8,64.2z M52.9,64.2c0.1,0,0.1,0,0.2,0v0C53.1,64.3,53,64.3,52.9,64.2L52.9,64.2z M53.1,64.2c0.1,0,0.1,0,0.2,0v0
		C53.3,64.3,53.2,64.3,53.1,64.2L53.1,64.2z M53.1,66L53.1,66l0.1-0.1L53.1,66z M52,64.2L52,64.2c0.1,0,0.1,0,0.2,0v0
		C52.1,64.2,52.1,64.2,52,64.2z M52,64.2c-0.1,0-0.1,0-0.2,0v0C51.9,64.2,51.9,64.2,52,64.2L52,64.2z M51.8,64.2c-0.1,0-0.1,0-0.2,0
		v0C51.7,64.2,51.7,64.2,51.8,64.2L51.8,64.2z M54.3,64.4L54.3,64.4c-0.1,0-0.1,0-0.2,0v0C54.1,64.4,54.2,64.4,54.3,64.4z
		 M54.8,64.5L54.8,64.5c0,0-0.1,0-0.2,0v0C54.7,64.5,54.8,64.5,54.8,64.5z M54.8,64.6L54.8,64.6c0.1,0,0.1,0,0.2,0c0,0,0,0,0,0
		c0,0,0,0,0,0C55,64.6,54.9,64.6,54.8,64.6z M54.5,64.5L54.5,64.5c0.1,0,0.1,0,0.2,0v0C54.6,64.5,54.5,64.5,54.5,64.5z M54.3,64.4
		L54.3,64.4c0.1,0,0.1,0,0.2,0v0C54.4,64.5,54.3,64.4,54.3,64.4z M53.9,64.4L53.9,64.4c0.1,0,0.1,0,0.2,0v0
		C54,64.4,53.9,64.4,53.9,64.4z M53.6,65.8l-0.3,0.2l0-0.2L53.6,65.8z M53.6,65.9c-0.1,0.1-0.2,0.4-0.3,0.5l0-0.2
		C53.4,66.1,53.5,66,53.6,65.9z M52.2,66.4v-0.2c0.2-0.1,0.7-0.3,0.8-0.3c0,0,0,0.1,0.1,0.1l-0.6,0.4H52.2z M51.5,64.2
		C51.5,64.2,51.5,64.2,51.5,64.2L51.5,64.2C51.5,64.2,51.5,64.2,51.5,64.2C51.6,64.2,51.6,64.2,51.5,64.2L51.5,64.2
		C51.6,64.2,51.6,64.2,51.5,64.2z M50.9,66.4h-0.3L50,66c0-0.1,0.1-0.1,0.1-0.1c0,0,0.5,0.2,0.8,0.3V66.4z"/>
	<path class="st0" d="M67.7,82.4v-4.1l1-1.7h2v-1c-0.3,0-0.5-0.1-0.6-0.2v-0.2c0.5,0.3,2.4,0.3,3.3,0.4l0-0.9h0.4v-2
		c-0.8,0-2.6-0.1-3.1-0.4v-0.2c0.5,0.3,1.9,0.4,2.7,0.4v-0.8h0.4v-1.9c-0.8,0-2.3-0.1-2.8-0.4v-0.2c0.5,0.3,1.5,0.4,2.4,0.4v-0.8
		h0.4v-1.8c-0.8,0-2.1-0.1-2.6-0.4v-0.2c0.5,0.3,1.4,0.4,2.2,0.4v-0.8h0.4v-1.7c-0.8,0-1.8-0.1-2.3-0.4v-0.3l3,0.4v-0.2H75v-0.1h0.3
		v-0.2c-0.3,0-0.4,0-0.4-0.1c0,0,0.1-0.1,0.4-0.1v-0.1c-0.3,0-0.4,0-0.4-0.1c0,0,0.1-0.1,0.4-0.1v-0.1c-0.3,0-0.4,0-0.4-0.1
		c0,0,0.1-0.1,0.4-0.1v-0.1c-0.3,0-0.4,0-0.4-0.1c0,0,0.1-0.1,0.4-0.1v-0.1c-0.3,0-0.4,0-0.4-0.1c0,0,0.1-0.1,0.4-0.1v-0.1
		c-0.3,0-0.4-0.1-0.4-0.1c0,0,0.1-0.1,0.4-0.1v-0.1c-0.3,0-0.4,0-0.4-0.1c0,0,0.1-0.1,0.4-0.1v-0.1c-0.3,0-0.4,0-0.4-0.1
		c0,0,0.1-0.1,0.4-0.1v-0.1c-0.3,0-0.4,0-0.4-0.1c0,0,0.1-0.1,0.4-0.1V61c-0.3,0-0.4,0-0.4-0.1c0,0,0.1-0.1,0.4-0.1l0-2.3
		c-0.1,0-0.1-0.1-0.1-0.2c0-0.1,0.1-0.2,0.2-0.2c0.1,0,0.2,0.1,0.2,0.2c0,0.1,0,0.1-0.1,0.2l0,2.3c0.3,0,0.4,0,0.4,0.1
		c0,0-0.1,0.1-0.4,0.1v0.1c0.3,0,0.4,0,0.4,0.1c0,0-0.1,0.1-0.4,0.1v0.1c0.3,0,0.4,0,0.4,0.1c0,0-0.1,0.1-0.4,0.1v0.1
		c0.3,0,0.4,0,0.4,0.1c0,0-0.1,0.1-0.4,0.1v0.1c0.3,0,0.4,0,0.4,0.1c0,0-0.1,0.1-0.4,0.1v0.1c0.3,0,0.4,0,0.4,0.1
		c0,0-0.1,0.1-0.4,0.1v0.1c0.3,0,0.4,0,0.4,0.1c0,0-0.1,0.1-0.4,0.1v0.1c0.3,0,0.4,0,0.4,0.1c0,0-0.1,0.1-0.4,0.1v0.1
		c0.3,0,0.4,0,0.4,0.1c0,0-0.1,0.1-0.4,0.1v0.1c0.3,0,0.4,0,0.4,0.1c0,0-0.1,0.1-0.4,0.1v0.2h0.3v0.1h0.6v0.2c0,0,2.1,0.1,3-0.4v0.3
		c-0.5,0.3-1.5,0.4-2.3,0.4v1.7h0.4v0.8c0.8,0,1.7-0.1,2.2-0.4v0.2c-0.5,0.3-1.8,0.4-2.6,0.4v1.8h0.4v0.8c0.9,0,2-0.1,2.4-0.4v0.2
		c-0.5,0.3-2,0.4-2.8,0.4v1.9h0.4v0.8c0.8,0,2.2-0.1,2.7-0.4v0.2c-0.5,0.3-2.3,0.4-3.1,0.4v2h0.4v0.9c0.8,0,2.8-0.1,3.3-0.4v0.2
		c-0.1,0.1-0.3,0.1-0.6,0.2v1h2l1.1,1.7v4.1H67.7z"/>
	<path class="st0" d="M39.3,76.1v-1.8h-0.4l-2-3.1l-1.5,2.4H31v0.1h0.1v0.7H31v1.8h-0.7v6.3H40v-6.3H39.3z M35.2,73.6h0.2l-0.2,0.3
		V73.6z M34.7,73.6h0.3v0.4l-0.1,0.2h-0.2V73.6z M34.3,73.6h0.3v0.7h-0.3V73.6z M33.9,73.6h0.3v0.7h-0.3V73.6z M33.4,73.6h0.3v0.7
		h-0.3V73.6z M33,73.6h0.3v0.7H33V73.6z M32.5,73.6h0.3v0.7h-0.3V73.6z M32.1,73.6h0.3v0.7h-0.3V73.6z M31.7,73.6H32v0.7h-0.3V73.6z
		 M31.2,73.6h0.3v0.7h-0.3V73.6z"/>
	<path class="st0" d="M316,67.8v-0.3h-0.1v-0.2l-0.1-0.1v-0.1h-0.1V67l4.2-1.9l4.2,1.9v0.1h-0.1v0.1l-0.1,0.1v0.2H324v0.3h5.3V60
		h0.1v-0.3h0v-0.1h0v-0.5h0.1v-1.4l0,0v-0.1h0l0-0.1h0v-0.1h0v-0.1l0-0.1h0v0l0,0v-0.1h0.1V57h0.1c0,0-0.1-0.1,0-0.2
		c0-0.1,0.1-0.1,0.1-0.1v-0.1h0.1c0,0-0.1,0-0.1-0.1c0-0.1,0.1-0.1,0.1-0.1v-5h0v-0.2h0v0h0l0-0.1h0v0h0V51h0v-0.1
		c0,0-0.1-0.1-0.1-0.2c0-0.1,0-0.2,0-0.2h-0.1v-0.1l-0.1-0.1v0l0,0h0.2l0.1-0.2h0.1v0h0v-0.3h0v-0.1h0v0h0.1v-0.1l0,0v-0.1h0v-0.2h0
		v-0.1h0v-0.2h0v-0.1h0v-0.2h0v-0.2c0,0,0,0,0,0c0,0,0,0,0,0h0v0h0.1v0l0,0v0h0V48h0v-0.1l0,0h0v-0.1l-0.1-0.1h0v-0.1l0,0v0v0h0.3
		v-0.2h0.1v-0.1h0v0h0.2c0,0-0.1-0.1,0-0.2c0.1-0.1,0.2-0.1,0.2-0.1s0,0,0.1-0.1c0.1-0.1,0.1-0.2,0.1-0.2s-0.1,0-0.1-0.1
		c0-0.1,0.1-0.1,0.1-0.1s-0.1,0-0.1-0.1h0v0c0,0,0,0,0-0.1c0,0,0-0.1,0-0.1v0c0,0,0.2-0.2,0.2-0.2c0,0,0-0.6,0.3-1
		c0.3-0.4,0.6-0.5,0.9-0.5c0.2,0,0.5,0.1,0.9,0.5c0.3,0.4,0.3,0.9,0.3,1c0,0,0.2,0.2,0.2,0.2v0c0,0,0,0,0,0.1c0,0,0,0.1,0,0.1v0h0
		c0,0.1-0.1,0.1-0.1,0.1s0.1,0,0.1,0.1c0,0.1-0.1,0.1-0.1,0.1s0,0.1,0.1,0.2c0,0.1,0.1,0.1,0.1,0.1s0.1,0,0.2,0.1
		c0.1,0.1,0,0.2,0,0.2h0.2v0h0v0.1h0.1v0.2h0.3v0v0l0,0v0.1h0l-0.1,0.1v0.1h0l0,0V48h0v0.1h0v0l0,0v0h0.1v0h0c0,0,0,0,0,0
		c0,0,0,0,0,0v0.2h0v0.2h0v0.1h0v0.2h0v0.1h0v0.2h0v0.1l0,0v0.1h0.1v0h0v0.1h0v0.3h0v0h0.1l0.1,0.2h0.2l0,0v0l-0.1,0.1v0.1h-0.1
		c0,0,0,0.1,0,0.2c0,0.1-0.1,0.2-0.1,0.2V51h0v0.1h0v0h0l0,0.1h0v0h0v0.2h0v5c0,0,0.1,0,0.1,0.1c0,0.1-0.1,0.1-0.1,0.1h0.1v0.1
		c0,0,0.1,0,0.1,0.1c0,0.1,0,0.2,0,0.2h0.1v0.2h0.1v0.1l0,0v0h0l0,0.1v0.1h0v0.1h0l0,0.1h0v0.1l0,0v1.4h0.1v0.5h0v0.1h0V60h0.1v7.8
		h5.3v-0.3h-0.1v-0.2l-0.1-0.1v-0.1h-0.1V67l4.3-1.9l4.3,1.9v0.1h-0.1v0.1l-0.1,0.1v0.2h-0.1v0.3h0.8l-0.1,0.2v0.1h-0.2v0.1h-0.1
		v5.2h0.1v0.8h0.1v0.1h-0.1v3.1h0.1v5h-32.6v-5h0.1v-3.1h-0.1v-0.1h0.1v-0.8h0.1v-5.2h-0.1v-0.1h-0.2V68l-0.1-0.2H316z"/>
	<polygon class="st0" points="109.6,82.4 109.6,78.5 109.2,78.5 109.2,78.1 108.8,78.1 108.8,77.9 109.6,77.4 109.6,74.9 
		109.2,74.9 109.2,74.5 108.8,74.5 108.8,74.3 109.6,73.8 109.6,71.2 109.2,71.2 109.2,70.9 108.8,70.9 108.8,70.6 109.6,70.2 
		109.6,67.6 109.2,67.6 109.2,67.2 108.8,67.2 108.8,67 109.6,66.5 109.6,64 109.2,64 109.2,63.6 108.8,63.6 108.8,63.3 109.6,62.9 
		109.6,60.3 109.2,60.3 109.2,59.9 108.8,59.9 108.8,59.7 109.6,59.2 109.6,56.7 111.4,56.7 111.4,56.3 112.4,56.3 112.4,55.2 
		112.9,55.2 112.9,54.3 112.4,54.3 112.4,52.1 112.9,52.1 112.9,51.2 115.9,51.2 115.9,50.7 116.3,50.7 116.3,51.2 119.3,51.2 
		119.3,52.1 119.8,52.1 119.8,54.3 119.3,54.3 119.3,55.2 119.8,55.2 119.8,56.3 120.8,56.3 120.8,56.7 122.6,56.7 122.6,59.2 
		123.4,59.7 123.4,59.9 123,59.9 123,60.3 122.6,60.3 122.6,62.9 123.4,63.3 123.4,63.6 123,63.6 123,64 122.6,64 122.6,66.5 
		123.4,67 123.4,67.2 123,67.2 123,67.6 122.6,67.6 122.6,70.2 123.4,70.6 123.4,70.9 123,70.9 123,71.2 122.6,71.2 122.6,73.8 
		123.4,74.3 123.4,74.5 123,74.5 123,74.9 122.6,74.9 122.6,77.4 123.4,77.9 123.4,78.1 123,78.1 123,78.5 122.6,78.5 122.6,82.4 	
		"/>
	<polygon class="st0" points="234.3,55.1 234.3,50.8 233.7,50.8 233.7,43.7 233.1,43.7 233.1,33.4 232.6,33.4 232.5,32.1 
		232.4,32.1 232.4,30.9 231.9,30.9 231.9,29 231.1,28.4 231.1,27.3 230.6,27.3 230.6,26.1 230,25.5 230,24.8 229.7,24.8 229.4,20.3 
		229.2,24.8 228.9,24.8 228.9,25.5 228.3,26.1 228.3,27.3 227.7,27.3 227.7,28.4 226.9,29 226.9,30.9 226.4,30.9 226.4,32.1 
		226.4,32.1 226.3,33.4 225.8,33.4 225.8,43.7 225.2,43.7 225.2,50.8 224.5,50.8 224.5,55.1 222.4,55.1 222.4,82.4 236.4,82.4 
		236.4,55.1 	"/>
	<path class="st0" d="M276.5,80.6v-1.4h-0.3v-0.8h-0.3c-0.1-0.3-0.2-0.7-0.3-1.2l0-0.1l-0.1,0c-0.1-0.5-0.2-1-0.3-1.5l0-0.1l0,0
		c-0.1-0.5-0.2-1-0.3-1.5l0,0l0-0.1l-0.1,0c-0.1-0.5-0.1-1-0.2-1.4l0.1,0l0-0.1l-0.1,0l0-0.1l-0.1,0c0,0,0,0,0,0l0,0l0,0
		c0-0.4-0.1-0.8-0.1-1.1l0.1,0l0-0.1l-0.1,0c0-0.3,0-0.5,0-0.7c0-0.2,0-0.4,0-0.5l0.1,0l0-0.1l-0.1,0c0-0.4,0-0.8,0-1.2l0.1,0l0-0.1
		l-0.1,0c0-0.4,0-0.8,0.1-1.2l0.1,0l0-0.1l-0.1,0c0-0.4,0.1-0.8,0.1-1.2l0.1,0l0-0.1l-0.2-0.1c0-0.4,0.1-0.7,0.2-1h0.4V64v-0.1h-0.3
		c-0.1-0.3-0.1-0.7-0.2-1.1l0-0.1l-0.1,0c-0.1-0.5-0.2-1-0.3-1.5l0-0.1l0,0c-0.1-0.5-0.2-1-0.3-1.5l0,0l0-0.1l-0.1,0
		c-0.1-0.5-0.1-1-0.2-1.5l0.1,0l0-0.1l-0.1,0l0-0.1l-0.1,0c0,0,0,0,0,0l0,0l0,0c0-0.4-0.1-0.8-0.1-1.1l0.1,0l0-0.1l-0.1,0
		c0-0.3,0-0.5,0-0.7c0-0.2,0-0.4,0-0.5l0.1,0l0-0.1l-0.1,0c0-0.4,0-0.8,0-1.2l0.1,0l0-0.1l-0.1,0c0-0.4,0-0.8,0.1-1.2l0.1,0l0-0.1
		l-0.1,0c0-0.4,0.1-0.8,0.1-1.2l0.1,0l0-0.1l-0.2-0.1c0-0.4,0.1-0.7,0.2-1h0.4v-0.5v-0.1h-0.3c-0.1-0.3-0.1-0.7-0.2-1.1l0-0.1
		l-0.1,0c-0.1-0.5-0.2-1-0.3-1.5l0-0.1l0,0c-0.1-0.5-0.2-1-0.3-1.5l0,0l0-0.1l-0.1,0c-0.1-0.5-0.2-1-0.2-1.4l0.1,0l0-0.1l-0.1,0
		l0-0.1l-0.1,0c0,0,0,0,0,0l0,0l0,0c0-0.4-0.1-0.8-0.1-1.1l0.1,0l0-0.1l-0.1,0c0-0.3,0-0.5,0-0.7c0-0.2,0-0.4,0-0.5l0.1,0l0-0.1
		l-0.1,0c0-0.4,0-0.8,0-1.2l0.1,0l0-0.1l-0.1,0c0-0.4,0-0.8,0.1-1.2l0.1,0l0-0.1l-0.1,0c0-0.4,0.1-0.8,0.1-1.2l0.1,0l0-0.1l-0.2,0
		c0.1-0.4,0.1-0.7,0.2-1h0.4v-0.5h-2.9v-0.6h1.7v-1.4h0.3v-0.3h-0.3v-0.5h-0.7V32h-3.1v-0.4h-0.6V32h-3.1v0.3h-0.7v0.5h-0.3v0.3h0.3
		v1.4h1.7v0.6h-2.9v0.5h0.4c0.1,0.3,0.1,0.7,0.2,1l-0.2,0l0,0.1l0.1,0c0.1,0.4,0.1,0.8,0.1,1.2l-0.1,0l0,0.1l0.1,0
		c0,0.4,0.1,0.8,0.1,1.2l-0.1,0l0,0.1l0.1,0c0,0.4,0,0.8,0,1.2l-0.1,0l0,0.1l0.1,0c0,0.2,0,0.3,0,0.5c0,0.2,0,0.5,0,0.7l-0.1,0
		l0,0.1l0.1,0c0,0.3-0.1,0.7-0.1,1.1l0,0l0,0c0,0,0,0,0,0l-0.1,0l0,0.1l-0.1,0l0,0.1l0.1,0c-0.1,0.5-0.1,1-0.2,1.4l-0.1,0l0,0.1l0,0
		c-0.1,0.5-0.2,1-0.3,1.5l0,0l0,0.1c-0.1,0.6-0.2,1.1-0.3,1.5l-0.1,0l0,0.1c-0.1,0.5-0.2,0.8-0.2,1.1h-0.3v0.1v0.5h0.4
		c0.1,0.3,0.1,0.7,0.2,1l-0.2,0.1l0,0.1l0.1,0c0.1,0.4,0.1,0.8,0.1,1.2l-0.1,0l0,0.1l0.1,0c0,0.4,0.1,0.8,0.1,1.2l-0.1,0l0,0.1
		l0.1,0c0,0.4,0,0.8,0,1.2l-0.1,0l0,0.1l0.1,0c0,0.2,0,0.3,0,0.5c0,0.2,0,0.5,0,0.7l-0.1,0l0,0.1l0.1,0c0,0.3-0.1,0.7-0.1,1.1l0,0
		l0,0c0,0,0,0,0,0l-0.1,0l0,0.1l-0.1,0l0,0.1l0.1,0c-0.1,0.5-0.1,1-0.2,1.5l-0.1,0l0,0.1l0,0c-0.1,0.5-0.2,1-0.3,1.5l0,0l0,0.1
		c-0.1,0.6-0.2,1.1-0.3,1.5l-0.1,0l0,0.1c-0.1,0.5-0.2,0.8-0.2,1.1h-0.3V64v0.5h0.4c0.1,0.3,0.1,0.7,0.2,1l-0.2,0.1l0,0.1l0.1,0
		c0.1,0.4,0.1,0.8,0.1,1.2l-0.1,0l0,0.1l0.1,0c0,0.4,0.1,0.8,0.1,1.2l-0.1,0l0,0.1l0.1,0c0,0.4,0,0.8,0,1.2l-0.1,0l0,0.1l0.1,0
		c0,0.2,0,0.3,0,0.5c0,0.2,0,0.5,0,0.7l-0.1,0l0,0.1l0.1,0c0,0.3-0.1,0.7-0.1,1.1l0,0l0,0c0,0,0,0,0,0l-0.1,0l0,0.1l-0.1,0l0,0.1
		l0.1,0c-0.1,0.5-0.1,1-0.2,1.4l-0.1,0l0,0.1l0,0c-0.1,0.5-0.2,1-0.3,1.5l0,0l0,0.1c-0.1,0.6-0.2,1.1-0.3,1.5l-0.1,0l0,0.1
		c-0.1,0.5-0.2,0.9-0.3,1.2h-0.3v0.8h-0.3v1.4h-0.2v1.9h15.8v-1.9H276.5z M275.6,78l-0.1-0.3c0-0.1-0.1-0.3-0.1-0.4l0,0
		C275.6,77.6,275.6,77.8,275.6,78z M275.5,77.2C275.5,77.3,275.5,77.3,275.5,77.2L275.5,77.2C275.5,77.3,275.5,77.3,275.5,77.2
		L275.5,77.2z M272.9,38.6c0.1,0.1,0.1,0.3,0.1,0.4c0,0.1,0,0.1,0,0.2l-0.2-0.1C272.8,39,272.9,38.8,272.9,38.6z M272.7,38l0.2,0.1
		c0,0.1,0,0.2,0,0.3C272.8,38.2,272.7,38.1,272.7,38z M273.6,46.4c-0.1-0.1-0.1-0.2-0.2-0.3c-0.1-0.3-0.1-0.5-0.1-0.8
		c0.1-0.1,0.1-0.1,0.2-0.2C273.5,45.6,273.6,46,273.6,46.4z M273.4,45L273.4,45C273.4,45,273.4,45,273.4,45
		C273.4,45,273.4,45,273.4,45z M274,48.4L274,48.4L274,48.4C274,48.3,274,48.3,274,48.4C274,48.3,274,48.3,274,48.4z M274,48.4
		L274,48.4c0,0.1,0,0.1,0.1,0.2L274,48.4L274,48.4z M273.9,48.1l-0.1-0.2C273.9,48,273.9,48.1,273.9,48.1
		C274,48.1,274,48.1,273.9,48.1L273.9,48.1z M274.3,60.8c-0.1-0.1-0.1-0.2-0.2-0.3c-0.1-0.3-0.1-0.5-0.2-0.8
		c0.1-0.1,0.1-0.1,0.2-0.2C274.2,60,274.3,60.4,274.3,60.8z M274.1,59.5L274.1,59.5C274.1,59.5,274.1,59.5,274.1,59.5
		C274.1,59.5,274.1,59.5,274.1,59.5z M274.7,62.8L274.7,62.8L274.7,62.8C274.7,62.8,274.7,62.8,274.7,62.8
		C274.7,62.8,274.7,62.8,274.7,62.8z M274.7,62.9L274.7,62.9c0,0.1,0,0.1,0,0.2L274.7,62.9L274.7,62.9z M274.6,62.5l-0.1-0.2
		C274.6,62.4,274.6,62.5,274.6,62.5C274.7,62.6,274.7,62.6,274.6,62.5L274.6,62.5z M275,75.3c-0.1-0.1-0.1-0.2-0.2-0.3
		c0-0.3-0.1-0.5-0.1-0.8c0.1-0.1,0.1-0.1,0.2-0.2C274.9,74.5,275,74.9,275,75.3z M274.8,73.9L274.8,73.9
		C274.8,73.9,274.8,73.9,274.8,73.9C274.8,73.9,274.8,73.9,274.8,73.9z M274.6,75.4L274.6,75.4L274.6,75.4L274.6,75.4L274.6,75.4z
		 M274.4,75.2l-0.1-0.3L274.4,75.2L274.4,75.2z M274.6,75.2l-0.3-0.7l0,0c0.1,0.2,0.3,0.3,0.4,0.5c0,0.1,0,0.2,0.1,0.3L274.6,75.2z
		 M274.5,72L274.5,72l-0.2,0c0,0,0,0,0,0L274.5,72z M274.3,71.9C274.3,71.8,274.3,71.8,274.3,71.9L274.3,71.9L274.3,71.9z
		 M274.6,72.4L274.6,72.4l-0.2,0.1c0-0.1,0-0.1,0-0.2L274.6,72.4z M274.4,73.2l-0.3-0.4c0.1,0,0.2-0.1,0.2-0.1
		C274.3,72.8,274.4,73,274.4,73.2z M274.4,73.3c0,0.1,0,0.2,0.1,0.3l-0.3-0.1l-0.1-0.6C274.2,73.1,274.3,73.2,274.4,73.3z
		 M274.5,73.8C274.5,73.8,274.5,73.8,274.5,73.8l-0.3,0l0-0.1L274.5,73.8z M274.5,73.9c0,0.1,0,0.2,0,0.3c-0.1,0.1-0.2,0.2-0.2,0.2
		c0,0,0,0,0,0l-0.1-0.6L274.5,73.9z M274.7,74.9c-0.1-0.1-0.2-0.3-0.3-0.4c0.1-0.1,0.1-0.1,0.2-0.2
		C274.6,74.5,274.7,74.7,274.7,74.9z M274.6,73.9l0.2,0.1c0,0-0.1,0.1-0.1,0.1C274.6,74.1,274.6,74,274.6,73.9z M274.8,75.5
		C274.8,75.5,274.8,75.5,274.8,75.5l-0.1,0l0-0.1L274.8,75.5z M274.8,75.6c0,0.1,0,0.1,0,0.2c0,0,0,0-0.1,0.1l-0.1-0.3L274.8,75.6z
		 M275,76.4c-0.1-0.1-0.2-0.2-0.3-0.4c0,0,0.1-0.1,0.1-0.1L275,76.4z M274.8,75.9C274.9,75.9,274.9,75.9,274.8,75.9
		c0.1,0.1,0.1,0.3,0.2,0.4L274.8,75.9z M274.9,75.6L274.9,75.6C275,75.7,275,75.7,274.9,75.6C274.9,75.7,274.9,75.6,274.9,75.6z
		 M275,75.8c0.1,0,0.1-0.1,0.1-0.1l0,0c0.1,0.4,0.2,0.8,0.2,1.2c-0.1-0.1-0.1-0.1-0.2-0.2C275.1,76.4,275,76.1,275,75.8z M275,75.6
		l-0.1,0c0,0,0,0,0-0.1L275,75.6C275.1,75.6,275.1,75.6,275,75.6C275.1,75.6,275.1,75.6,275,75.6z M274.9,75.3c0-0.1,0-0.1,0-0.2
		c0.1,0.1,0.2,0.2,0.2,0.2L274.9,75.3z M274.8,74l-0.2-0.1c0,0,0-0.1,0-0.1L274.8,74C274.8,73.9,274.8,73.9,274.8,74
		C274.8,74,274.8,74,274.8,74z M274.6,73.7c0-0.1,0-0.2,0-0.2c0.1,0.1,0.2,0.2,0.3,0.3L274.6,73.7z M274.5,73.3
		c0-0.2-0.1-0.4-0.1-0.7c0.1,0,0.1-0.1,0.2-0.1c0,0.4,0.1,0.7,0.2,1.1L274.5,73.3z M274.6,72.1C274.6,72.1,274.6,72.1,274.6,72.1
		L274.6,72.1C274.6,72.1,274.6,72.1,274.6,72.1L274.6,72.1z M274.6,72c0-0.3-0.1-0.6-0.1-0.9l0.1,0C274.6,71.4,274.6,71.7,274.6,72
		L274.6,72z M274,70c-0.1-0.2-0.2-0.4-0.3-0.5l0.4,0.1C274.1,69.7,274.1,69.8,274,70C274,69.9,274,69.9,274,70z M274.1,70
		C274.1,70,274.1,70,274.1,70c0,0.1,0,0.1,0,0.1C274,70.1,274,70,274.1,70C274,70,274,70,274.1,70z M274.5,69.5L274.5,69.5
		c-0.1,0-0.1-0.1-0.1-0.1C274.5,69.4,274.5,69.5,274.5,69.5C274.5,69.5,274.5,69.5,274.5,69.5z M274.5,69.7
		C274.5,69.7,274.5,69.7,274.5,69.7L274.5,69.7C274.5,69.7,274.5,69.7,274.5,69.7z M274.5,69.4c0,0,0-0.1-0.1-0.1c0-0.3,0-0.6,0-0.9
		c0,0,0,0,0,0l0,0C274.5,68.7,274.5,69,274.5,69.4z M274.5,68.3C274.5,68.3,274.5,68.3,274.5,68.3L274.5,68.3
		C274.5,68.3,274.5,68.3,274.5,68.3z M274.5,68.3C274.5,68.3,274.5,68.3,274.5,68.3C274.5,68.3,274.5,68.3,274.5,68.3L274.5,68.3z
		 M274.5,68.1c0,0,0-0.1,0-0.1C274.5,68,274.5,68.1,274.5,68.1C274.5,68.1,274.5,68.1,274.5,68.1L274.5,68.1z M274.5,67.9
		c0-0.3,0-0.5,0-0.8c0,0,0,0,0,0l0,0c0,0.3,0,0.6,0,0.9C274.5,68,274.5,67.9,274.5,67.9z M273.7,62.9l0-0.1l0.5,0.5
		c-0.1,0.1-0.2,0.1-0.2,0.2C273.8,63.3,273.8,63.1,273.7,62.9z M273.8,68.2c0.1,0.1,0.2,0.3,0.3,0.5c-0.1,0.1-0.3,0.2-0.4,0.3
		C273.7,68.7,273.8,68.4,273.8,68.2z M274.4,65.8c0,0.1,0,0.2,0.1,0.3c0,0,0,0,0,0c-0.1,0.1-0.2,0.2-0.3,0.4c0,0,0,0,0,0L274.4,65.8
		z M274.3,65.9c0-0.1,0-0.1,0.1-0.2c0,0,0,0,0,0L274.3,65.9z M274.4,65.6C274.4,65.6,274.4,65.5,274.4,65.6L274.4,65.6L274.4,65.6
		C274.4,65.6,274.4,65.6,274.4,65.6z M274.2,63.9l-0.2-0.1c0-0.1-0.1-0.2-0.1-0.3l0.3-0.2L274.2,63.9L274.2,63.9z M273.9,67.3
		c0-0.1,0.1-0.3,0.1-0.4c0,0.1,0.1,0.3,0.2,0.5c-0.1,0.1-0.2,0.3-0.3,0.4C273.9,67.6,273.9,67.4,273.9,67.3z M274.1,66.9l0.2,0.1
		c0,0.1,0,0.2,0,0.3C274.2,67.1,274.1,67,274.1,66.9z M274.1,66.9C274.1,66.8,274.1,66.8,274.1,66.9
		C274.1,66.8,274.1,66.8,274.1,66.9l0.2,0c0,0,0,0.1,0,0.1L274.1,66.9z M274.1,66.7C274.1,66.6,274.1,66.6,274.1,66.7
		c0.1-0.2,0.2-0.3,0.3-0.5c0,0.2-0.1,0.3-0.1,0.5L274.1,66.7z M274.4,66.9l0.1,0c0,0,0,0.1,0,0.1L274.4,66.9
		C274.4,66.9,274.4,66.9,274.4,66.9z M274.3,67l0.1,0c0,0,0,0,0,0c0,0-0.1,0.1-0.2,0.2C274.3,67.2,274.3,67.1,274.3,67z M274.5,67
		L274.5,67C274.5,67,274.5,67,274.5,67L274.5,67C274.6,66.9,274.6,67,274.5,67C274.6,67,274.5,67,274.5,67z M274.5,66.8l-0.1,0
		c0-0.2,0.1-0.3,0.1-0.5c0,0.1,0,0.2,0.1,0.2C274.5,66.6,274.5,66.7,274.5,66.8z M274.4,65.9c0-0.1,0-0.2-0.1-0.2l0-0.1l0.1,0
		C274.5,65.7,274.5,65.8,274.4,65.9z M274.6,64.8l-0.1,0.2l-0.1,0.1C274.5,65,274.5,64.9,274.6,64.8L274.6,64.8z M274.6,64.8
		c0-0.1,0-0.2,0.1-0.2h0c0,0,0,0.1,0,0.2L274.6,64.8L274.6,64.8z M274.5,65.2l-0.1,0.3l0,0c0,0,0-0.1,0-0.1
		C274.5,65.3,274.5,65.2,274.5,65.2z M274.5,65.4l0.1-0.4c0,0,0.1-0.1,0.1-0.1C274.6,65.1,274.6,65.3,274.5,65.4L274.5,65.4z
		 M274.6,64.9L274.6,64.9L274.6,64.9L274.6,64.9z M274.7,64.8L274.7,64.8C274.7,64.8,274.7,64.8,274.7,64.8L274.7,64.8z M274.3,63.9
		l-0.1-0.6l0.5,0.6H274.3z M274.2,63.2l-0.1-0.5l0.4,0.1c0,0,0,0.1,0,0.1C274.4,63,274.3,63.1,274.2,63.2z M274.1,62.6L274.1,62.6
		l0.4,0.1c0,0,0,0,0,0.1L274.1,62.6z M274.1,63.1c-0.2-0.2-0.4-0.4-0.5-0.6l0-0.1l0.4,0.1L274.1,63.1z M273.6,69.4
		C273.6,69.4,273.6,69.4,273.6,69.4l0.4,0.1c0,0,0,0,0,0.1L273.6,69.4z M273.7,69.2c0-0.1,0-0.1,0-0.2c0.1-0.1,0.3-0.2,0.4-0.3
		c0,0,0,0,0,0c0,0.2,0,0.4,0,0.6L273.7,69.2z M274.1,68.6c-0.1-0.2-0.2-0.3-0.2-0.5l0.3,0.1C274.1,68.4,274.1,68.5,274.1,68.6
		C274.1,68.6,274.1,68.6,274.1,68.6z M273.8,68.1C273.8,68.1,273.8,68.1,273.8,68.1C273.8,68.1,273.8,68.1,273.8,68.1l0.3,0
		c0,0,0,0.1,0,0.1L273.8,68.1z M273.8,67.9c0,0,0-0.1,0-0.1c0.1-0.1,0.2-0.2,0.4-0.4c0,0.2,0,0.4-0.1,0.6L273.8,67.9z M274.1,69.6
		C274.1,69.6,274.1,69.5,274.1,69.6h0.3c0,0,0,0,0,0.1L274.1,69.6z M274.4,69.7c-0.1,0-0.1,0.1-0.2,0.2c0-0.1,0-0.2,0-0.2
		L274.4,69.7z M274.1,69.4c0-0.2,0-0.3,0-0.5c0.1,0.2,0.2,0.3,0.2,0.4c0,0,0,0.1,0,0.2L274.1,69.4z M274.2,68.8c0-0.1,0-0.1,0-0.2
		c0.1-0.1,0.2-0.1,0.2-0.2c0,0.3,0,0.5,0,0.8C274.3,69.1,274.2,68.9,274.2,68.8z M274.2,68.5c0-0.1,0-0.2,0-0.3l0.2,0.1
		C274.3,68.4,274.3,68.5,274.2,68.5z M274.1,69.9c0.1-0.1,0.2-0.1,0.3-0.2c0,0.1,0,0.3,0,0.4c0,0.2,0,0.3,0,0.5
		c-0.1-0.1-0.2-0.3-0.3-0.4c0-0.1,0-0.1,0-0.2C274.1,70,274.1,70,274.1,69.9z M274.4,68.3l-0.2-0.1c0,0,0,0,0-0.1L274.4,68.3
		C274.4,68.3,274.4,68.3,274.4,68.3z M274.2,68.1c0-0.2,0-0.4,0.1-0.5c0.1,0.1,0.1,0.3,0.1,0.4c0,0.1,0,0.1,0,0.2L274.2,68.1z
		 M274.3,67.4C274.3,67.4,274.3,67.4,274.3,67.4c0.1-0.1,0.1-0.2,0.2-0.3c0,0.2,0,0.4,0,0.6C274.4,67.7,274.3,67.5,274.3,67.4z
		 M274.5,69.6C274.5,69.6,274.5,69.6,274.5,69.6C274.4,69.6,274.4,69.6,274.5,69.6L274.5,69.6z M274.5,69.7c0,0.2,0,0.3,0,0.5
		c0,0.2,0,0.4,0,0.6c0,0,0-0.1-0.1-0.1c0-0.2,0-0.4,0-0.5C274.4,70,274.4,69.9,274.5,69.7L274.5,69.7z M274.5,70.9L274.5,70.9
		C274.5,70.8,274.5,70.8,274.5,70.9C274.5,70.8,274.5,70.8,274.5,70.9z M274.5,71C274.5,71,274.5,71,274.5,71
		C274.5,71,274.5,71,274.5,71L274.5,71z M274.5,71L274.5,71C274.5,71,274.5,71,274.5,71L274.5,71C274.5,71,274.5,71,274.5,71z
		 M274.6,66.8L274.6,66.8c0-0.1,0-0.2,0-0.2C274.6,66.7,274.6,66.7,274.6,66.8C274.6,66.8,274.6,66.8,274.6,66.8z M274.5,66.3
		c0-0.1,0-0.1-0.1-0.2c0,0,0,0,0-0.1c0,0,0.1-0.1,0.1-0.1C274.6,66.1,274.6,66.2,274.5,66.3z M274.5,66c0-0.1,0-0.2,0.1-0.4l0,0
		c0,0.1,0,0.2,0,0.3C274.6,65.9,274.5,65.9,274.5,66z M274.6,65.5c0-0.1,0.1-0.3,0.1-0.4c0,0,0,0,0,0
		C274.7,65.2,274.7,65.4,274.6,65.5L274.6,65.5z M274.7,64.5L274.7,64.5L274.7,64.5L274.7,64.5z M274.7,64.7l0-0.1h0
		C274.8,64.6,274.7,64.7,274.7,64.7L274.7,64.7z M274.2,63.3l0.3-0.3c0.1,0.4,0.2,0.7,0.2,0.9C274.6,63.7,274.4,63.5,274.2,63.3z
		 M274.5,62.2c-0.1-0.3-0.1-0.6-0.2-0.9c0,0,0.1-0.1,0.1-0.1h0c0.1,0.4,0.2,0.8,0.2,1.2C274.6,62.4,274.5,62.3,274.5,62.2z
		 M273.9,60.9L273.9,60.9L273.9,60.9L273.9,60.9L273.9,60.9z M273.7,60.7l-0.1-0.3L273.7,60.7L273.7,60.7z M273.9,60.8l-0.3-0.7v0
		c0.2,0.2,0.3,0.3,0.4,0.5c0,0.1,0,0.2,0.1,0.3L273.9,60.8z M273.8,57.6L273.8,57.6l-0.2,0c0,0,0,0,0,0L273.8,57.6z M273.6,57.4
		C273.6,57.4,273.6,57.4,273.6,57.4L273.6,57.4L273.6,57.4z M273.9,58l-0.2,0.1c0-0.1,0-0.1,0-0.2L273.9,58z M273.7,58.7l-0.3-0.4
		c0.1,0,0.2-0.1,0.2-0.1C273.6,58.4,273.7,58.6,273.7,58.7z M273.7,58.9c0,0.1,0,0.2,0.1,0.3l-0.3-0.1l-0.1-0.6
		C273.5,58.6,273.6,58.8,273.7,58.9z M273.8,59.3C273.8,59.4,273.8,59.4,273.8,59.3l-0.3,0l0-0.1L273.8,59.3z M273.8,59.5
		c0,0.1,0,0.2,0.1,0.3c-0.1,0.1-0.2,0.2-0.3,0.2c0,0,0,0,0-0.1l-0.1-0.6L273.8,59.5z M274,60.4c-0.1-0.1-0.2-0.2-0.3-0.4
		c0.1-0.1,0.1-0.1,0.2-0.2C273.9,60,274,60.2,274,60.4z M273.9,59.5l0.2,0.1c0,0-0.1,0.1-0.1,0.1C273.9,59.6,273.9,59.6,273.9,59.5z
		 M274.1,61C274.1,61,274.1,61.1,274.1,61l-0.1,0l0-0.1L274.1,61z M274.1,61.1c0,0.1,0,0.1,0,0.2c0,0,0,0-0.1,0.1l-0.1-0.3
		L274.1,61.1z M274.3,62c-0.1-0.1-0.2-0.2-0.3-0.3c0,0,0.1-0.1,0.1-0.1L274.3,62z M274.1,61.5C274.2,61.4,274.2,61.4,274.1,61.5
		c0.1,0.1,0.1,0.3,0.2,0.4L274.1,61.5z M274.2,61.2L274.2,61.2C274.3,61.2,274.3,61.2,274.2,61.2C274.2,61.2,274.2,61.2,274.2,61.2z
		 M274.3,61.2l-0.1,0c0,0,0,0,0-0.1L274.3,61.2C274.4,61.1,274.4,61.1,274.3,61.2C274.4,61.1,274.4,61.1,274.3,61.2z M274.2,60.9
		c0-0.1,0-0.1,0-0.2c0.1,0.1,0.2,0.2,0.2,0.2L274.2,60.9z M274.1,59.5l-0.2-0.1c0,0,0-0.1,0-0.1L274.1,59.5
		C274.1,59.5,274.1,59.5,274.1,59.5C274.1,59.5,274.1,59.5,274.1,59.5z M273.9,59.2c0-0.1,0-0.2,0-0.2c0.1,0.1,0.2,0.2,0.3,0.3
		L273.9,59.2z M273.8,58.8c0-0.2-0.1-0.4-0.1-0.7c0.1,0,0.1-0.1,0.2-0.1c0,0.4,0.1,0.7,0.2,1.1L273.8,58.8z M273.9,57.6
		C273.9,57.6,273.9,57.6,273.9,57.6L273.9,57.6C273.9,57.6,273.9,57.6,273.9,57.6L273.9,57.6z M273.9,57.5c0-0.3-0.1-0.6-0.1-0.9
		l0.1,0C273.9,56.9,273.9,57.2,273.9,57.5L273.9,57.5z M273.3,55.5c-0.1-0.2-0.2-0.4-0.3-0.5l0.4,0.1
		C273.4,55.3,273.4,55.4,273.3,55.5C273.3,55.5,273.3,55.5,273.3,55.5z M273.4,55.5C273.4,55.5,273.4,55.6,273.4,55.5
		c0,0.1,0,0.1,0,0.1C273.3,55.6,273.3,55.6,273.4,55.5C273.3,55.5,273.3,55.5,273.4,55.5z M273.8,55.2
		C273.8,55.2,273.8,55.2,273.8,55.2L273.8,55.2C273.8,55.2,273.8,55.2,273.8,55.2z M273.7,55.2C273.7,55.2,273.7,55.2,273.7,55.2
		L273.7,55.2C273.8,55.2,273.7,55.2,273.7,55.2z M273.7,55C273.7,55,273.7,55,273.7,55C273.8,55,273.8,55,273.7,55
		C273.8,55,273.8,55,273.7,55L273.7,55z M273.7,54.8c0-0.3,0-0.6,0-0.9c0,0,0,0,0,0l0,0c0,0.3,0,0.6,0,1
		C273.8,54.9,273.7,54.9,273.7,54.8z M273.7,53.9C273.7,53.9,273.7,53.8,273.7,53.9L273.7,53.9C273.8,53.8,273.8,53.9,273.7,53.9z
		 M273.8,53.9C273.8,53.9,273.8,53.9,273.8,53.9C273.8,53.9,273.8,53.9,273.8,53.9L273.8,53.9z M273.8,53.7c0-0.1,0-0.1,0-0.1
		C273.8,53.6,273.8,53.6,273.8,53.7C273.8,53.7,273.8,53.7,273.8,53.7L273.8,53.7z M273.8,53.4c0-0.3,0-0.5,0-0.8c0,0,0,0,0-0.1l0,0
		c0,0.3,0,0.6-0.1,0.9C273.8,53.5,273.8,53.5,273.8,53.4z M273.4,55.1C273.4,55.1,273.4,55.1,273.4,55.1h0.2c0,0,0,0.1,0,0.1
		L273.4,55.1z M273.7,55.3c-0.1,0-0.1,0.1-0.2,0.1c0-0.1,0-0.1,0-0.2L273.7,55.3z M273.4,54.9c0-0.2,0-0.3,0-0.5
		c0.1,0.2,0.2,0.3,0.2,0.4c0,0.1,0,0.1,0,0.2L273.4,54.9z M273.5,54.3c0-0.1,0-0.1,0-0.2c0.1-0.1,0.2-0.1,0.2-0.2c0,0.2,0,0.5,0,0.8
		C273.6,54.6,273.5,54.5,273.5,54.3z M273.5,54.1c0-0.1,0-0.2,0-0.3l0.2,0.1C273.6,54,273.6,54,273.5,54.1z M273.5,53.8
		C273.5,53.8,273.5,53.8,273.5,53.8l0.2,0c0,0,0,0.1,0,0.1L273.5,53.8z M273.2,53.3c0-0.2,0.1-0.3,0.1-0.5c0-0.1,0.1-0.3,0.1-0.4
		c0,0.1,0.1,0.3,0.2,0.5C273.4,53,273.3,53.2,273.2,53.3z M273,48.4l0-0.2l0.5,0.5c-0.1,0.1-0.2,0.1-0.2,0.2
		C273.1,48.8,273.1,48.6,273,48.4z M273.1,53.7c0.1,0.1,0.2,0.3,0.3,0.5c-0.1,0.1-0.2,0.2-0.4,0.3C273,54.3,273,54,273.1,53.7z
		 M273.7,51.3c0,0.1,0,0.2,0.1,0.3c0,0,0,0,0,0c-0.1,0.1-0.2,0.2-0.3,0.3c0,0,0,0,0,0L273.7,51.3z M273.6,51.5c0-0.1,0-0.1,0.1-0.2
		c0,0,0,0,0,0L273.6,51.5z M273.7,51.1C273.7,51.1,273.7,51.1,273.7,51.1L273.7,51.1L273.7,51.1C273.7,51.2,273.7,51.2,273.7,51.1z
		 M273.5,49.4l-0.2-0.1c0-0.1-0.1-0.2-0.1-0.3l0.3-0.2L273.5,49.4L273.5,49.4z M273.4,52.5l0.2,0.1c0,0.1,0,0.2,0,0.3
		C273.5,52.7,273.4,52.6,273.4,52.5z M273.4,52.4C273.4,52.4,273.4,52.4,273.4,52.4C273.4,52.3,273.4,52.3,273.4,52.4l0.2,0
		c0,0,0,0.1,0,0.1L273.4,52.4z M273.4,52.2C273.4,52.2,273.4,52.2,273.4,52.2c0.1-0.2,0.2-0.3,0.3-0.5c0,0.2-0.1,0.4-0.1,0.5
		L273.4,52.2z M273.7,52.4l0.1,0c0,0,0,0,0,0.1L273.7,52.4C273.7,52.5,273.7,52.5,273.7,52.4z M273.6,52.5l0.1,0c0,0,0,0,0,0
		c0,0.1-0.1,0.1-0.2,0.2C273.6,52.7,273.6,52.6,273.6,52.5z M273.8,52.6L273.8,52.6C273.8,52.5,273.8,52.5,273.8,52.6L273.8,52.6
		C273.9,52.5,273.9,52.5,273.8,52.6C273.9,52.5,273.9,52.5,273.8,52.6z M273.8,52.4l-0.1,0c0-0.2,0.1-0.3,0.1-0.5
		c0,0.1,0,0.2,0.1,0.2C273.8,52.1,273.8,52.2,273.8,52.4z M273.7,51.5c0-0.1,0-0.2-0.1-0.3l0-0.1l0.1,0
		C273.8,51.3,273.8,51.4,273.7,51.5z M273.9,50.4l-0.1,0.2l-0.1,0.1C273.8,50.6,273.8,50.5,273.9,50.4L273.9,50.4z M273.9,50.3
		c0-0.1,0-0.2,0.1-0.3h0c0,0.1,0,0.1,0,0.2L273.9,50.3L273.9,50.3z M273.8,50.7l-0.1,0.2l0,0c0,0,0-0.1,0-0.1
		C273.8,50.8,273.8,50.8,273.8,50.7z M273.8,51l0.1-0.4c0,0,0.1-0.1,0.1-0.1C273.9,50.7,273.9,50.8,273.8,51L273.8,51z M273.9,50.5
		L273.9,50.5L273.9,50.5L273.9,50.5z M274,50.4L274,50.4C274,50.3,274,50.4,274,50.4L274,50.4z M273.6,49.4l-0.1-0.6l0.5,0.6H273.6z
		 M273.5,48.7l-0.1-0.5l0.4,0.1c0,0,0,0.1,0,0.1C273.7,48.5,273.6,48.6,273.5,48.7z M273.4,48.2L273.4,48.2l0.4,0.1c0,0,0,0,0,0.1
		L273.4,48.2z M273.4,48.7c-0.2-0.2-0.4-0.4-0.5-0.6l0-0.1l0.4,0.1L273.4,48.7z M272.9,55C272.9,54.9,272.9,54.9,272.9,55l0.4,0.1
		c0,0,0,0.1,0,0.1L272.9,55z M273,54.8c0-0.1,0-0.1,0-0.2c0.1-0.1,0.3-0.2,0.4-0.3c0,0,0,0,0,0c0,0.2,0,0.4,0,0.6L273,54.8z
		 M273.4,54.2c-0.1-0.2-0.2-0.3-0.2-0.5l0.3,0.1C273.4,53.9,273.4,54.1,273.4,54.2C273.4,54.2,273.4,54.2,273.4,54.2z M273.1,53.7
		C273.1,53.7,273.1,53.7,273.1,53.7C273.1,53.6,273.1,53.6,273.1,53.7l0.3,0c0,0,0,0,0,0.1L273.1,53.7z M273.1,53.5c0,0,0-0.1,0-0.1
		c0.1-0.1,0.2-0.2,0.4-0.4c0,0.2,0,0.4-0.1,0.6L273.1,53.5z M273.4,55.5c0.1-0.1,0.2-0.1,0.2-0.2c0,0.1,0,0.3,0,0.4
		c0,0.2,0,0.3,0,0.5c-0.1-0.1-0.2-0.3-0.3-0.4c0-0.1,0-0.1,0-0.2C273.4,55.6,273.4,55.5,273.4,55.5z M273.5,53.6
		c0-0.2,0-0.4,0.1-0.5c0.1,0.1,0.1,0.3,0.1,0.4c0,0.1,0,0.1,0,0.2L273.5,53.6z M273.6,53C273.6,52.9,273.6,52.9,273.6,53
		c0.1-0.1,0.1-0.2,0.2-0.3c0,0.2,0,0.4,0,0.6C273.7,53.2,273.6,53.1,273.6,53z M273.8,55.3c0,0.1,0,0.3,0,0.5c0,0.2,0,0.4,0,0.6
		c0,0,0-0.1-0.1-0.1c0-0.2,0-0.4,0-0.5C273.7,55.6,273.7,55.4,273.8,55.3L273.8,55.3z M273.8,56.4L273.8,56.4
		C273.8,56.4,273.8,56.4,273.8,56.4C273.8,56.4,273.8,56.4,273.8,56.4z M273.8,56.5C273.8,56.5,273.8,56.5,273.8,56.5
		C273.8,56.5,273.8,56.5,273.8,56.5L273.8,56.5z M273.8,56.6C273.8,56.6,273.8,56.6,273.8,56.6L273.8,56.6L273.8,56.6L273.8,56.6z
		 M273.9,52.4L273.9,52.4c-0.1-0.1,0-0.2,0-0.2C273.9,52.2,273.9,52.3,273.9,52.4C273.9,52.3,273.9,52.4,273.9,52.4z M273.8,51.9
		c0-0.1,0-0.1,0-0.2c0,0,0,0,0-0.1c0,0,0.1-0.1,0.1-0.1C273.9,51.6,273.9,51.8,273.8,51.9z M273.8,51.5c0-0.1,0.1-0.2,0.1-0.4l0,0
		c0,0.1,0,0.2,0,0.2C273.9,51.5,273.8,51.5,273.8,51.5z M273.9,51c0-0.1,0.1-0.3,0.1-0.4c0,0,0,0,0,0C274,50.8,274,50.9,273.9,51
		L273.9,51z M274,50.1L274,50.1L274,50.1L274,50.1z M274,50.2l0-0.1h0C274.1,50.2,274,50.2,274,50.2L274,50.2z M273.5,48.8l0.3-0.3
		c0.1,0.4,0.2,0.7,0.2,0.9C273.9,49.2,273.7,49,273.5,48.8z M273.8,47.8c-0.1-0.3-0.1-0.6-0.2-0.9c0,0,0.1-0.1,0.1-0.1l0,0
		c0.1,0.4,0.2,0.8,0.2,1.2C273.9,47.9,273.8,47.8,273.8,47.8z M273.2,46.5L273.2,46.5L273.2,46.5L273.2,46.5L273.2,46.5z M273,46.3
		L273,46L273,46.3L273,46.3z M273.2,46.3l-0.3-0.7l0,0c0.1,0.2,0.3,0.3,0.4,0.5c0,0.1,0,0.2,0.1,0.3L273.2,46.3z M273.1,43.1
		L273.1,43.1l-0.2,0c0,0,0,0,0,0L273.1,43.1z M272.9,43C272.9,42.9,272.9,42.9,272.9,43L272.9,43L272.9,43z M273.2,43.5L273.2,43.5
		l-0.2,0.1c0-0.1,0-0.1,0-0.2L273.2,43.5z M273,44.3l-0.3-0.4c0.1,0,0.2-0.1,0.2-0.1C272.9,44,273,44.1,273,44.3z M273,44.4
		c0,0.1,0,0.2,0.1,0.3l-0.3-0.1l-0.1-0.6C272.8,44.2,272.9,44.3,273,44.4z M273.1,44.9C273.1,44.9,273.1,44.9,273.1,44.9l-0.3,0
		l0-0.1L273.1,44.9z M273.1,45c0,0.1,0,0.2,0,0.3c-0.1,0.1-0.2,0.2-0.2,0.2c0,0,0,0,0-0.1l-0.1-0.6L273.1,45z M273.3,46
		c-0.1-0.1-0.2-0.3-0.3-0.4c0.1-0.1,0.1-0.1,0.2-0.2C273.2,45.6,273.3,45.8,273.3,46z M273.2,45.1l0.2,0.1c0,0-0.1,0.1-0.1,0.1
		C273.2,45.2,273.2,45.1,273.2,45.1z M273.4,46.6C273.4,46.6,273.4,46.6,273.4,46.6l-0.1,0l0-0.1L273.4,46.6z M273.4,46.7
		c0,0.1,0,0.1,0,0.2c0,0,0,0-0.1,0.1l-0.1-0.3L273.4,46.7z M273.6,47.5c-0.1-0.1-0.2-0.2-0.3-0.4c0,0,0.1-0.1,0.1-0.1L273.6,47.5z
		 M273.4,47C273.5,47,273.5,47,273.4,47c0.1,0.1,0.1,0.3,0.2,0.4L273.4,47z M273.5,46.7L273.5,46.7
		C273.6,46.8,273.6,46.8,273.5,46.7C273.5,46.8,273.5,46.7,273.5,46.7z M273.6,46.7l-0.1,0c0,0,0,0,0-0.1L273.6,46.7
		C273.7,46.7,273.7,46.7,273.6,46.7C273.7,46.7,273.7,46.7,273.6,46.7z M273.5,46.4c0-0.1,0-0.1,0-0.2c0.1,0.1,0.1,0.2,0.2,0.2
		L273.5,46.4z M273.4,45.1l-0.2-0.1c0,0,0-0.1,0-0.1L273.4,45.1C273.4,45,273.4,45,273.4,45.1C273.4,45.1,273.4,45.1,273.4,45.1z
		 M273.2,44.8c0-0.1,0-0.2,0-0.2c0.1,0.1,0.2,0.2,0.3,0.3L273.2,44.8z M273.1,44.4c0-0.2-0.1-0.4-0.1-0.7c0.1,0,0.1-0.1,0.2-0.1
		c0,0.4,0.1,0.7,0.2,1.1L273.1,44.4z M273.2,43.2C273.2,43.2,273.2,43.2,273.2,43.2L273.2,43.2C273.2,43.2,273.2,43.2,273.2,43.2
		L273.2,43.2z M273.2,43.1c0-0.3-0.1-0.6-0.1-0.9l0.1,0C273.2,42.5,273.2,42.8,273.2,43.1L273.2,43.1z M273.2,38.2L273.2,38.2
		c0,0.3,0,0.6,0,0.9c0,0,0-0.1-0.1-0.1C273.1,38.7,273.1,38.5,273.2,38.2C273.1,38.2,273.1,38.2,273.2,38.2z M273.1,38.1
		C273.1,38.1,273.1,38.1,273.1,38.1L273.1,38.1C273.2,38.1,273.2,38.1,273.1,38.1C273.2,38.1,273.2,38.1,273.1,38.1L273.1,38.1z
		 M273.1,39.2C273.1,39.2,273.1,39.3,273.1,39.2L273.1,39.2c-0.1,0-0.1-0.1-0.1-0.1C273.1,39.2,273.1,39.2,273.1,39.2z M273.1,39.4
		C273.1,39.4,273.1,39.4,273.1,39.4C273,39.4,273,39.4,273.1,39.4L273.1,39.4z M273.1,39.4C273.1,39.4,273.1,39.5,273.1,39.4
		L273.1,39.4C273.1,39.4,273.1,39.4,273.1,39.4z M273.1,39.5L273.1,39.5c0,0.3,0,0.7,0,1c0,0,0-0.1-0.1-0.1
		C273,40.1,273,39.8,273.1,39.5C273,39.5,273,39.5,273.1,39.5z M273.1,40.6C273.1,40.6,273.1,40.6,273.1,40.6L273.1,40.6
		c-0.1,0-0.1-0.1-0.1-0.1C273,40.5,273.1,40.6,273.1,40.6z M273.1,40.8C273.1,40.8,273.1,40.8,273.1,40.8L273.1,40.8
		C273.1,40.8,273.1,40.8,273.1,40.8z M273.1,40.7C273.1,40.7,273,40.7,273.1,40.7C273,40.7,273,40.7,273.1,40.7L273.1,40.7z
		 M273.1,40.8c0,0.2,0,0.3,0,0.5c0,0.2,0,0.4,0,0.6c0,0,0-0.1-0.1-0.1c0-0.2,0-0.4,0-0.5C273,41.1,273,41,273.1,40.8L273.1,40.8z
		 M273.1,42L273.1,42C273.1,41.9,273.1,41.9,273.1,42C273.1,41.9,273.1,41.9,273.1,42z M273.1,42.1
		C273.1,42.1,273.1,42.1,273.1,42.1C273.1,42.1,273.1,42.1,273.1,42.1L273.1,42.1z M273.1,42.1C273.1,42.1,273.1,42.1,273.1,42.1
		L273.1,42.1C273.1,42.1,273.1,42.1,273.1,42.1L273.1,42.1z M273.2,37.9L273.2,37.9c-0.1-0.1,0-0.2,0-0.2
		C273.2,37.8,273.2,37.8,273.2,37.9C273.2,37.9,273.2,37.9,273.2,37.9z M273.1,37.4c0-0.1,0-0.1-0.1-0.2c0,0,0,0,0-0.1
		c0,0,0.1-0.1,0.1-0.1C273.2,37.2,273.2,37.3,273.1,37.4z M273.1,37.1c0-0.1,0-0.2,0.1-0.4l0,0c0,0.1,0,0.2,0,0.2
		C273.2,37,273.1,37,273.1,37.1z M273.2,36.6c0-0.1,0.1-0.3,0.1-0.4c0,0,0,0,0,0C273.3,36.3,273.3,36.5,273.2,36.6L273.2,36.6z
		 M273.3,36.1c0,0.2-0.1,0.3-0.1,0.5l-0.1,0l0.1-0.4C273.2,36.1,273.2,36.1,273.3,36.1z M273.2,36L273.2,36L273.2,36L273.2,36z
		 M273.1,36.7c0,0.1-0.1,0.2-0.1,0.4c0-0.1,0-0.2-0.1-0.3L273.1,36.7L273.1,36.7z M273.1,37.3c0,0.1,0,0.2,0.1,0.2
		c0,0.1,0,0.2,0,0.3l-0.1,0C273,37.7,273,37.5,273.1,37.3z M273.1,38C273.1,38,273.1,38.1,273.1,38l-0.1,0c0,0,0-0.1,0-0.1L273.1,38
		z M273.1,38.1C273.1,38.2,273.1,38.2,273.1,38.1c-0.1,0.1-0.1,0.2-0.2,0.2c0-0.1,0-0.2,0-0.3L273.1,38.1z M273.1,38.3
		c0,0.2,0,0.4,0,0.6c0-0.1-0.1-0.2-0.1-0.4c0,0,0-0.1,0-0.1C273,38.4,273,38.3,273.1,38.3z M273,39.3C273,39.4,273,39.4,273,39.3
		l-0.2,0c0,0,0-0.1,0-0.1L273,39.3z M273,39.5c-0.1,0.1-0.1,0.1-0.2,0.2c0-0.1,0-0.2,0-0.3L273,39.5z M273,39.5c0,0.3,0,0.5,0,0.8
		c-0.1-0.1-0.1-0.3-0.2-0.4c0-0.1,0-0.1,0-0.2C272.9,39.7,272.9,39.6,273,39.5z M273,40.4c0,0.1,0,0.1,0,0.2l-0.2-0.1
		c0-0.2,0-0.3,0-0.5C272.8,40.1,272.9,40.3,273,40.4z M273,40.7C273,40.7,273,40.7,273,40.7h-0.2c0,0,0-0.1,0-0.1L273,40.7z
		 M273,40.8c-0.1,0-0.1,0.1-0.2,0.2c0-0.1,0-0.1,0-0.2L273,40.8z M273,40.8c0,0.1,0,0.3,0,0.4c0,0.2,0,0.3,0,0.5
		c-0.1-0.1-0.2-0.3-0.3-0.4c0-0.1,0-0.1,0-0.2c0,0,0-0.1,0-0.1C272.8,40.9,272.9,40.9,273,40.8z M272.8,42.7
		c-0.1-0.1-0.1-0.1-0.2-0.2l0.1-0.1C272.7,42.5,272.8,42.6,272.8,42.7z M272.7,41.4c0.1,0.2,0.2,0.3,0.3,0.4c0,0,0,0.1,0,0.1
		l-0.3-0.1C272.8,41.7,272.7,41.6,272.7,41.4z M273,42.1C273,42.1,273,42.1,273,42.1C273,42.1,273,42.1,273,42.1h-0.2
		c0,0,0-0.1,0-0.1L273,42.1z M273,42.2c-0.1,0-0.1,0.1-0.2,0.1c0-0.1,0-0.1,0-0.2L273,42.2z M273,42.2L273,42.2
		c0,0.3,0.1,0.6,0.1,0.9l-0.1,0c-0.1-0.1-0.1-0.2-0.2-0.2c0-0.2,0-0.3,0-0.5L273,42.2z M272.9,43.4c0,0.1,0,0.2,0,0.3l-0.2,0.1
		l-0.1-0.5L272.9,43.4z M272.6,44l0.1,0.7l-0.2-0.1l-0.2-0.4C272.4,44.1,272.5,44,272.6,44C272.6,44,272.6,44,272.6,44z M272.7,44.8
		L272.7,44.8l-0.2,0l0-0.1L272.7,44.8z M272.8,44.9l0.1,0.5l-0.2-0.6L272.8,44.9z M272.8,45.6c-0.1,0.1-0.2,0.2-0.3,0.3l-0.2-1
		c0.1,0.2,0.3,0.3,0.4,0.5L272.8,45.6z M272.9,45.7l0,0.1l0.1,0.5l-0.4-0.1l0-0.1C272.6,45.9,272.7,45.8,272.9,45.7z M273,46.5
		L273,46.5l-0.4-0.1l0-0.1L273,46.5z M272.6,46.4l0.4,0.1l0.1,0.5C273,46.8,272.8,46.6,272.6,46.4z M273.2,47.2
		c-0.1,0.1-0.2,0.2-0.3,0.3l-0.2-0.9C272.8,46.7,273,46.9,273.2,47.2z M273.1,46.6l0.1,0l0.1,0.4c0,0-0.1,0.1-0.1,0.1L273.1,46.6z
		 M273.6,47.7l0.1,0.2c0,0.1,0,0.1,0,0.1l-0.4-0.1l-0.1-0.7C273.4,47.4,273.5,47.6,273.6,47.7z M273.4,48.2l-0.4-0.1l0-0.1
		L273.4,48.2L273.4,48.2z M272.9,55.1c0.1,0.1,0.2,0.3,0.3,0.5c-0.1,0.1-0.2,0.2-0.4,0.3C272.9,55.6,272.9,55.3,272.9,55.1z
		 M272.9,47.9L272.9,47.9L272.9,47.9C272.9,48,272.9,48,272.9,47.9z M272.9,55.9c0.1-0.1,0.3-0.2,0.4-0.3c0,0.1,0.1,0.1,0.1,0.2
		c0,0.2,0,0.3,0,0.5l-0.5-0.2C272.9,56,272.9,55.9,272.9,55.9z M273.4,56.4C273.4,56.4,273.4,56.4,273.4,56.4l-0.5-0.1
		c0,0,0-0.1,0-0.1L273.4,56.4z M273.4,56.5c0,0.1,0,0.2,0,0.2c-0.1,0-0.1,0.1-0.2,0.1c-0.1-0.2-0.3-0.3-0.4-0.5c0,0,0,0,0,0
		L273.4,56.5z M273.4,56.8c0,0.1,0,0.2,0,0.3c-0.1-0.1-0.1-0.1-0.2-0.2L273.4,56.8z M273.4,55.9c0.1,0.2,0.2,0.3,0.3,0.4
		c0,0,0,0.1,0,0.1l-0.3-0.1C273.5,56.2,273.5,56,273.4,55.9z M273.7,56.5C273.7,56.5,273.7,56.5,273.7,56.5
		C273.7,56.6,273.7,56.6,273.7,56.5h-0.3c0,0,0-0.1,0-0.1L273.7,56.5z M273.7,56.6c-0.1,0-0.1,0.1-0.2,0.1c0-0.1,0-0.1,0-0.2
		L273.7,56.6z M273.7,56.6L273.7,56.6c0,0.3,0.1,0.6,0.1,0.9l-0.1,0c-0.1-0.1-0.1-0.2-0.2-0.3c0-0.2,0-0.3-0.1-0.5L273.7,56.6z
		 M273.6,57.9c0,0.1,0,0.2,0,0.3l-0.2,0.1l-0.1-0.5L273.6,57.9z M273.3,58.4l0.1,0.7l-0.2-0.1l-0.2-0.4
		C273.1,58.5,273.2,58.5,273.3,58.4C273.3,58.4,273.3,58.4,273.3,58.4z M273.4,59.2L273.4,59.2l-0.2,0l0-0.1L273.4,59.2z
		 M273.5,59.3l0.1,0.5l-0.2-0.6L273.5,59.3z M273.5,60.1c-0.1,0.1-0.2,0.2-0.3,0.3l-0.2-1c0.1,0.2,0.3,0.3,0.4,0.5L273.5,60.1z
		 M273.6,60.2L273.6,60.2l0.1,0.6l-0.4-0.1l0-0.1C273.3,60.4,273.4,60.3,273.6,60.2z M273.7,60.9L273.7,60.9l-0.4-0.1l0-0.1
		L273.7,60.9z M273.3,60.9l0.4,0.1l0.1,0.5C273.7,61.3,273.5,61,273.3,60.9z M273.9,61.6c-0.1,0.1-0.2,0.2-0.3,0.3l-0.2-0.9
		C273.5,61.2,273.7,61.4,273.9,61.6z M273.8,61l0.1,0l0.1,0.4c0,0-0.1,0.1-0.1,0.1L273.8,61z M274.3,62.2l0.1,0.2c0,0.1,0,0.1,0,0.1
		l-0.4-0.1l-0.1-0.7C274.1,61.9,274.2,62.1,274.3,62.2z M274.1,62.6l-0.4-0.1l0-0.1L274.1,62.6L274.1,62.6z M273.6,69.5
		c0.1,0.1,0.2,0.3,0.3,0.5c-0.1,0.1-0.2,0.2-0.4,0.3C273.6,70,273.6,69.8,273.6,69.5z M273.6,62.4L273.6,62.4L273.6,62.4
		C273.6,62.4,273.6,62.4,273.6,62.4z M273.6,70.3c0.1-0.1,0.2-0.2,0.4-0.3c0,0.1,0.1,0.1,0.1,0.2c0,0.2,0,0.3,0,0.5l-0.5-0.2
		C273.6,70.5,273.6,70.4,273.6,70.3z M274.1,70.8C274.1,70.9,274.1,70.9,274.1,70.8l-0.5-0.1c0,0,0-0.1,0-0.1L274.1,70.8z M274.1,71
		c0,0.1,0,0.2,0,0.2c-0.1,0-0.1,0.1-0.2,0.1c-0.1-0.2-0.3-0.3-0.4-0.5c0,0,0,0,0,0L274.1,71z M274.1,71.3c0,0.1,0,0.2,0,0.3
		c-0.1-0.1-0.1-0.2-0.2-0.2L274.1,71.3z M274.1,70.3c0.1,0.2,0.2,0.3,0.3,0.4c0,0,0,0.1,0,0.1l-0.3-0.1
		C274.2,70.6,274.1,70.5,274.1,70.3z M274.4,70.9C274.4,71,274.4,71,274.4,70.9C274.4,71,274.4,71,274.4,70.9l-0.2,0
		c0,0,0-0.1,0-0.1L274.4,70.9z M274.4,71c0,0-0.1,0.1-0.2,0.1c0-0.1,0-0.1,0-0.2L274.4,71z M274.4,71.1L274.4,71.1
		c0,0.3,0.1,0.6,0.1,0.9l-0.1,0c-0.1-0.1-0.1-0.2-0.2-0.2c0-0.2,0-0.3,0-0.5L274.4,71.1z M274.3,72.3c0,0.1,0,0.2,0,0.3l-0.2,0.1
		l-0.1-0.5L274.3,72.3z M274,72.9l0.1,0.7l-0.2-0.1l-0.2-0.4C273.8,73,273.9,72.9,274,72.9C274,72.9,274,72.9,274,72.9z M274.1,73.7
		L274.1,73.7l-0.2,0l0-0.1L274.1,73.7z M274.2,73.8l0.1,0.5l-0.2-0.6L274.2,73.8z M274.2,74.5c-0.1,0.1-0.2,0.2-0.3,0.3l-0.2-1
		c0.1,0.2,0.3,0.3,0.4,0.5L274.2,74.5z M274.3,74.6L274.3,74.6l0.1,0.6L274,75l0-0.1C274,74.8,274.1,74.7,274.3,74.6z M274.4,75.3
		L274.4,75.3l-0.4-0.1l0-0.1L274.4,75.3z M274,75.3l0.4,0.1l0.1,0.5C274.4,75.7,274.2,75.5,274,75.3z M274.6,76.1
		c-0.1,0.1-0.2,0.2-0.3,0.3l-0.2-0.9C274.2,75.6,274.4,75.8,274.6,76.1z M274.5,75.5l0.1,0l0.1,0.4c0,0-0.1,0.1-0.1,0.1L274.5,75.5z
		 M275,76.6l0.1,0.2c0,0,0,0.1,0,0.1l-0.4-0.1l-0.1-0.7C274.8,76.3,274.9,76.5,275,76.6z M275.2,77.1
		C275.2,77.1,275.2,77.2,275.2,77.1l-0.4-0.1l0-0.1L275.2,77.1z M275.2,77.2c0,0,0,0.1,0,0.1c-0.1,0.1-0.2,0.2-0.3,0.3l-0.1-0.5
		L275.2,77.2z M275.3,77.4c0.1,0.4,0.2,0.7,0.2,0.9c-0.2-0.2-0.4-0.4-0.5-0.6L275.3,77.4z M275.2,76.8c0.1,0.1,0.1,0.1,0.2,0.2
		c0,0,0,0,0,0l-0.1,0L275.2,76.8z M275.4,77.2C275.4,77.2,275.4,77.2,275.4,77.2C275.4,77.2,275.4,77.2,275.4,77.2L275.4,77.2
		L275.4,77.2z M275.4,77.3L275.4,77.3c0,0.1,0,0.1,0,0.2L275.4,77.3L275.4,77.3z M275.4,77C275.4,77,275.4,76.9,275.4,77
		c-0.1-0.4-0.2-0.9-0.3-1.3l0.1,0C275.3,76.2,275.4,76.6,275.4,77z M275.2,75.7L275.2,75.7L275.2,75.7
		C275.1,75.6,275.2,75.6,275.2,75.7C275.2,75.6,275.2,75.6,275.2,75.7z M275.1,75.4C275.1,75.4,275.1,75.3,275.1,75.4
		c-0.1-0.5-0.2-0.9-0.3-1.3l0,0C275,74.5,275.1,74.9,275.1,75.4z M274.9,74C274.9,74,274.9,74,274.9,74L274.9,74
		C274.9,74,274.9,74,274.9,74z M274.7,72.5c0.1,0.4,0.1,0.9,0.2,1.3l-0.1-0.1C274.7,73.3,274.7,72.9,274.7,72.5
		C274.6,72.5,274.7,72.5,274.7,72.5z M274.6,66.6c0-0.1,0-0.1,0-0.2c0-0.2,0-0.4,0.1-0.5c0,0,0-0.1,0.1-0.1
		C274.7,66.1,274.6,66.3,274.6,66.6z M274.7,65.7C274.7,65.7,274.7,65.8,274.7,65.7C274.7,65.7,274.7,65.7,274.7,65.7L274.7,65.7
		C274.7,65.7,274.7,65.7,274.7,65.7z M274.7,65.5L274.7,65.5c0-0.1,0-0.2,0-0.3c0,0.1,0,0.1,0,0.2C274.8,65.4,274.8,65.5,274.7,65.5
		z M274.8,65.2l0-0.2c0,0,0-0.1,0-0.1l0.1,0C274.8,65,274.8,65.1,274.8,65.2z M274.9,64.9L274.9,64.9c-0.1-0.1,0-0.1,0-0.1
		c0,0,0.1-0.1,0.1-0.1C274.9,64.7,274.9,64.8,274.9,64.9z M274.8,64.6C274.9,64.6,274.9,64.6,274.8,64.6L274.8,64.6L274.8,64.6z
		 M274.9,63.9c-0.1-0.2-0.1-0.6-0.2-1l0,0l0.2,0.6C274.9,63.7,274.9,63.8,274.9,63.9L274.9,63.9z M275,63.9L275,63.9
		c0-0.1-0.1-0.1-0.1-0.2L275,63.9z M274.9,63.5l-0.1-0.3c0-0.1,0-0.3-0.1-0.4l0,0C274.9,63.1,274.9,63.3,274.9,63.5z M274.8,62.8
		C274.8,62.8,274.8,62.8,274.8,62.8L274.8,62.8C274.8,62.8,274.8,62.8,274.8,62.8L274.8,62.8z M274.7,62.5
		C274.7,62.5,274.7,62.5,274.7,62.5c-0.1-0.5-0.2-0.9-0.3-1.3l0.1,0C274.6,61.7,274.7,62.1,274.7,62.5z M274.5,61.2L274.5,61.2
		L274.5,61.2C274.5,61.2,274.5,61.2,274.5,61.2C274.5,61.2,274.5,61.2,274.5,61.2z M274.4,60.9C274.4,60.9,274.4,60.9,274.4,60.9
		c-0.1-0.5-0.2-0.9-0.3-1.3l0.1,0C274.3,60.1,274.4,60.5,274.4,60.9z M274.2,59.5C274.2,59.5,274.2,59.6,274.2,59.5L274.2,59.5
		C274.2,59.5,274.2,59.5,274.2,59.5z M274,58c0.1,0.4,0.1,0.9,0.2,1.3l-0.1-0.1C274,58.8,274,58.4,274,58C273.9,58,274,58,274,58z
		 M273.9,52.2c0-0.1,0-0.1,0-0.2c0-0.2,0-0.4,0.1-0.5c0,0,0.1-0.1,0.1-0.1C274,51.6,273.9,51.9,273.9,52.2z M274,51.3
		C274,51.3,274,51.3,274,51.3C274,51.3,274,51.2,274,51.3L274,51.3C274,51.2,274,51.2,274,51.3z M274,51.1L274,51.1
		c0-0.1,0-0.2,0-0.3c0,0.1,0,0.1,0,0.2C274.1,51,274.1,51,274,51.1z M274.1,50.8l0-0.2c0,0,0-0.1,0-0.1l0.1,0
		C274.1,50.6,274.1,50.7,274.1,50.8z M274.2,50.4L274.2,50.4c0-0.1,0-0.1,0-0.1c0,0,0.1-0.1,0.1-0.1
		C274.2,50.3,274.2,50.3,274.2,50.4z M274.1,50.2C274.1,50.1,274.2,50.1,274.1,50.2L274.1,50.2L274.1,50.2z M274.2,49.4
		c-0.1-0.2-0.1-0.6-0.2-1l0,0l0.2,0.6C274.2,49.2,274.2,49.3,274.2,49.4L274.2,49.4z M274.3,49.4L274.3,49.4c0-0.1-0.1-0.1-0.1-0.2
		L274.3,49.4z M274.2,49.1l-0.1-0.3c0-0.1-0.1-0.3-0.1-0.4l0,0C274.2,48.7,274.2,48.9,274.2,49.1z M274.1,48.3
		C274.1,48.4,274.1,48.4,274.1,48.3L274.1,48.3C274.1,48.4,274.1,48.4,274.1,48.3L274.1,48.3z M274,48.1C274,48.1,274,48.1,274,48.1
		c-0.1-0.5-0.2-0.9-0.3-1.3l0.1,0C273.9,47.3,274,47.7,274,48.1z M273.8,46.8L273.8,46.8L273.8,46.8
		C273.7,46.7,273.8,46.7,273.8,46.8C273.8,46.7,273.8,46.7,273.8,46.8z M273.7,46.5C273.7,46.5,273.7,46.4,273.7,46.5
		c-0.1-0.5-0.2-0.9-0.3-1.3l0,0C273.6,45.6,273.7,46.1,273.7,46.5z M273.5,45.1C273.5,45.1,273.5,45.1,273.5,45.1L273.5,45.1
		C273.5,45.1,273.5,45.1,273.5,45.1z M273.3,43.6c0.1,0.4,0.1,0.9,0.2,1.3l-0.1-0.1C273.3,44.4,273.3,44,273.3,43.6
		C273.2,43.6,273.3,43.6,273.3,43.6z M273.2,37.7c0-0.1,0-0.1,0-0.2c0-0.2,0-0.4,0.1-0.5c0,0,0.1-0.1,0.1-0.1
		C273.3,37.2,273.2,37.4,273.2,37.7z M273.3,36.8C273.3,36.8,273.3,36.9,273.3,36.8C273.3,36.8,273.3,36.8,273.3,36.8L273.3,36.8
		C273.3,36.8,273.3,36.8,273.3,36.8z M273.3,36.6L273.3,36.6c0-0.1,0-0.2,0-0.3c0,0.1,0,0.2,0,0.2C273.4,36.6,273.4,36.6,273.3,36.6
		z M273.5,35.6L273.5,35.6L273.5,35.6C273.4,35.7,273.5,35.7,273.5,35.6z M273.4,35.8c0,0,0.1-0.1,0.1-0.1c0,0.1,0,0.2-0.1,0.3
		l-0.1,0C273.4,35.9,273.4,35.9,273.4,35.8z M273.5,36c0,0.1,0,0.2-0.1,0.3l0-0.2C273.4,36.1,273.4,36,273.5,36L273.5,36z
		 M273.4,35.6c0,0.1,0,0.1-0.1,0.2l0-0.1L273.4,35.6L273.4,35.6z M273.3,35.6L273.3,35.6L273.3,35.6L273.3,35.6z M273.3,35.9
		L273.3,35.9L273.3,35.9C273.3,35.9,273.3,35.9,273.3,35.9z M273.2,35.6L273.2,35.6c0,0,0,0.1,0,0.2l0,0.1l-0.1,0
		C273.2,35.8,273.2,35.7,273.2,35.6z M273.2,35.9L273.2,35.9l0,0.2l-0.1,0.1C273.1,36.1,273.1,36,273.2,35.9z M273,36.4
		c0,0,0.1-0.1,0.1-0.1l-0.1,0.2l0,0C273,36.5,273,36.4,273,36.4z M273,36.6L273,36.6L273,36.6C273,36.7,273,36.7,273,36.6
		C273,36.7,273,36.7,273,36.6z M272.9,36.8C272.9,36.8,272.9,36.8,272.9,36.8l-0.1,0.2C272.9,36.9,272.9,36.9,272.9,36.8z
		 M272.7,37.5l0.2-0.6c0,0.1,0,0.2,0.1,0.3c0,0,0,0,0,0C272.9,37.3,272.8,37.5,272.7,37.5C272.7,37.6,272.7,37.5,272.7,37.5z
		 M272.7,37.7c0.1-0.1,0.2-0.2,0.3-0.4c0,0.2-0.1,0.4-0.1,0.5L272.7,37.7C272.7,37.7,272.7,37.7,272.7,37.7z M272.7,37.9l0.2,0.1
		c0,0,0,0,0,0.1L272.7,37.9C272.7,37.9,272.7,37.9,272.7,37.9C272.7,37.9,272.7,37.9,272.7,37.9z M272.5,38.4c0-0.1,0.1-0.3,0.1-0.4
		c0.1,0.1,0.1,0.3,0.2,0.5c-0.1,0.1-0.3,0.3-0.4,0.4C272.5,38.7,272.5,38.5,272.5,38.4z M272.4,38.9c0.1-0.1,0.2-0.2,0.4-0.4
		c0,0.2,0,0.4-0.1,0.6l-0.3-0.1C272.4,39,272.4,39,272.4,38.9z M272.4,39.2l0.3,0.1c0,0,0,0.1,0,0.1L272.4,39.2
		C272.4,39.2,272.4,39.2,272.4,39.2C272.4,39.2,272.4,39.2,272.4,39.2z M272.7,39.4c0,0.1,0,0.2,0,0.3c0,0,0,0,0,0
		c-0.1-0.2-0.2-0.3-0.2-0.5L272.7,39.4z M272.4,39.3c0.1,0.1,0.2,0.3,0.3,0.5c-0.1,0.1-0.3,0.2-0.4,0.3
		C272.3,39.8,272.3,39.5,272.4,39.3z M272.3,40.2c0.1-0.1,0.3-0.2,0.4-0.3c0,0,0,0,0,0c0,0.2,0,0.4,0,0.6l-0.4-0.1
		C272.3,40.3,272.3,40.2,272.3,40.2z M272.2,40.4l0.4,0.1c0,0,0,0.1,0,0.1L272.2,40.4C272.2,40.5,272.2,40.5,272.2,40.4z
		 M272.7,40.7c0,0.1,0,0.2,0,0.3c0,0-0.1,0-0.1,0.1c-0.1-0.2-0.2-0.4-0.3-0.5L272.7,40.7z M272.7,41.1
		C272.7,41.1,272.7,41.1,272.7,41.1c0,0.1,0,0.1,0,0.1C272.6,41.2,272.6,41.1,272.7,41.1C272.6,41.1,272.6,41.1,272.7,41.1z
		 M272.2,40.6c0.1,0.1,0.2,0.3,0.3,0.5c-0.1,0.1-0.2,0.2-0.4,0.3C272.2,41.1,272.2,40.9,272.2,40.6z M272.2,41.4
		c0.1-0.1,0.3-0.2,0.4-0.3c0,0.1,0.1,0.1,0.1,0.2c0,0.2,0,0.3,0,0.5l-0.5-0.2C272.2,41.6,272.2,41.5,272.2,41.4z M272.2,41.8
		l0.5,0.2c0,0,0,0.1,0,0.1L272.2,41.8C272.2,41.8,272.2,41.8,272.2,41.8z M272.2,41.9l0.6,0.2c0,0.1,0,0.2,0,0.2
		c-0.1,0-0.1,0.1-0.2,0.1C272.4,42.2,272.3,42.1,272.2,41.9C272.2,41.9,272.2,41.9,272.2,41.9z M262.2,77.2
		C262.2,77.2,262.2,77.2,262.2,77.2L262.2,77.2L262.2,77.2C262.2,77.2,262.2,77.2,262.2,77.2z M262.2,77.3l-0.1,0.2
		C262.1,77.4,262.1,77.4,262.2,77.3L262.2,77.3L262.2,77.3z M262.2,77C262.2,77,262.2,77,262.2,77c0-0.1,0.1-0.1,0.2-0.2L262.2,77
		L262.2,77z M262.7,74c0,0,0.1,0.1,0.2,0.2c0,0.3-0.1,0.5-0.2,0.8c-0.1,0.1-0.2,0.2-0.2,0.3C262.6,74.9,262.7,74.5,262.7,74z
		 M262.7,73.9L262.7,73.9C262.7,73.9,262.7,73.9,262.7,73.9C262.7,73.9,262.7,73.9,262.7,73.9z M262.9,62.8
		C262.9,62.8,262.9,62.8,262.9,62.8L262.9,62.8L262.9,62.8C262.9,62.8,262.9,62.8,262.9,62.8z M262.9,62.9l-0.1,0.2
		C262.8,63,262.8,62.9,262.9,62.9L262.9,62.9L262.9,62.9z M262.9,62.6C262.9,62.6,262.9,62.6,262.9,62.6c0-0.1,0.1-0.1,0.2-0.2
		L262.9,62.6L262.9,62.6z M263.4,59.6c0,0,0.1,0.1,0.2,0.2c0,0.3-0.1,0.5-0.2,0.8c-0.1,0.1-0.2,0.2-0.2,0.3
		C263.3,60.4,263.4,60,263.4,59.6z M263.4,59.5L263.4,59.5C263.4,59.5,263.4,59.5,263.4,59.5C263.4,59.5,263.4,59.5,263.4,59.5z
		 M263.6,48.3C263.6,48.3,263.6,48.3,263.6,48.3L263.6,48.3L263.6,48.3C263.6,48.3,263.6,48.3,263.6,48.3z M263.6,48.4l-0.1,0.2
		C263.5,48.5,263.5,48.5,263.6,48.4L263.6,48.4L263.6,48.4z M263.6,48.1C263.6,48.1,263.6,48.1,263.6,48.1c0-0.1,0.1-0.1,0.2-0.2
		L263.6,48.1L263.6,48.1z M264.1,45.2c0,0,0.1,0.1,0.2,0.2c0,0.3-0.1,0.5-0.2,0.8c-0.1,0.1-0.2,0.2-0.2,0.3
		C264,46,264.1,45.6,264.1,45.2z M264.1,45L264.1,45C264.1,45,264.1,45,264.1,45C264.1,45,264.1,45,264.1,45z M264.7,39.2l-0.2,0.1
		c0-0.1,0-0.1,0-0.2c0-0.1,0.1-0.2,0.1-0.4C264.7,38.8,264.7,39,264.7,39.2z M264.7,38.1l0.2-0.1c0,0.1-0.1,0.2-0.1,0.4
		C264.7,38.3,264.7,38.2,264.7,38.1z M264.8,41c-0.1-0.1-0.1-0.1-0.2-0.2l0.2-0.1C264.8,40.8,264.8,40.9,264.8,41z M264.8,41
		c0,0,0,0.1,0,0.1c0,0.1,0,0.1,0,0.2c-0.1,0.1-0.2,0.3-0.3,0.4c0-0.2,0-0.3,0-0.5c0-0.1,0-0.3,0-0.4C264.6,40.9,264.7,40.9,264.8,41
		z M264.6,40.8C264.6,40.7,264.6,40.7,264.6,40.8l0.2-0.2c0,0,0,0.1,0,0.1L264.6,40.8z M264.6,40.6c0-0.1,0-0.1,0-0.2
		c0.1-0.1,0.1-0.3,0.2-0.4c0,0.2,0,0.3,0,0.5L264.6,40.6z M264.6,40.3c0-0.3,0-0.5,0-0.8c0.1,0.1,0.1,0.1,0.2,0.2c0,0.1,0,0.1,0,0.2
		C264.7,40,264.6,40.2,264.6,40.3z M264.6,39.5l0.2-0.1c0,0.1,0,0.2,0,0.3C264.7,39.6,264.6,39.5,264.6,39.5z M264.6,39.4
		C264.6,39.4,264.6,39.4,264.6,39.4l0.2-0.1c0,0,0,0.1,0,0.1L264.6,39.4z M264.5,38.9c0-0.2,0-0.4,0-0.6c0.1,0.1,0.1,0.1,0.2,0.2
		c0,0,0,0.1,0,0.1C264.6,38.6,264.6,38.8,264.5,38.9z M264.4,38.2C264.4,38.2,264.4,38.2,264.4,38.2c0.1,0.3,0.1,0.5,0.1,0.8
		c0,0.1,0,0.1-0.1,0.1C264.4,38.8,264.4,38.5,264.4,38.2L264.4,38.2z M264.4,38.1C264.4,38.1,264.4,38.1,264.4,38.1L264.4,38.1
		C264.4,38.1,264.4,38.1,264.4,38.1L264.4,38.1C264.4,38.1,264.4,38.1,264.4,38.1z M264.5,39.4L264.5,39.4
		C264.5,39.4,264.5,39.4,264.5,39.4C264.5,39.4,264.5,39.4,264.5,39.4z M264.5,39.5L264.5,39.5C264.5,39.5,264.5,39.4,264.5,39.5
		C264.5,39.4,264.5,39.4,264.5,39.5z M264.5,39.3C264.5,39.3,264.5,39.2,264.5,39.3c0-0.1,0-0.1,0.1-0.2
		C264.5,39.1,264.5,39.2,264.5,39.3L264.5,39.3z M264.4,42.1L264.4,42.1C264.5,42.1,264.5,42.1,264.4,42.1L264.4,42.1
		C264.4,42.1,264.4,42.1,264.4,42.1z M264.5,42.1L264.5,42.1C264.5,42.1,264.5,42.1,264.5,42.1C264.5,42.1,264.5,42.1,264.5,42.1z
		 M264.5,42C264.5,41.9,264.5,41.9,264.5,42C264.5,41.9,264.5,41.9,264.5,42L264.5,42z M264.5,41.9c0-0.2,0-0.4,0-0.6
		c0-0.2,0-0.3,0-0.5l0.1,0c0,0.1,0,0.3,0,0.4C264.5,41.4,264.5,41.6,264.5,41.9C264.5,41.8,264.5,41.9,264.5,41.9z M264.5,40.8
		C264.5,40.8,264.5,40.8,264.5,40.8C264.5,40.8,264.5,40.8,264.5,40.8L264.5,40.8z M264.5,40.7L264.5,40.7
		C264.5,40.7,264.5,40.7,264.5,40.7C264.5,40.7,264.5,40.7,264.5,40.7z M264.5,40.6C264.5,40.6,264.5,40.6,264.5,40.6
		c0,0,0-0.1,0.1-0.1C264.5,40.5,264.5,40.6,264.5,40.6L264.5,40.6z M264.5,40.5c0-0.3,0-0.7,0-1l0,0c0,0,0,0,0,0c0,0.3,0,0.6,0,0.9
		C264.5,40.4,264.5,40.5,264.5,40.5z M264.5,38.2C264.5,38.2,264.5,38.2,264.5,38.2l0.1-0.1c0,0.1,0,0.2,0,0.3
		C264.6,38.3,264.5,38.2,264.5,38.2z M264.5,38.1C264.5,38.1,264.5,38,264.5,38.1l0.1-0.1c0,0,0,0,0,0.1L264.5,38.1z M264.5,37.9
		c0-0.1,0-0.2,0-0.3c0-0.1,0-0.2,0.1-0.2c0,0.2,0.1,0.3,0.1,0.5L264.5,37.9z M264.4,36.7L264.4,36.7l0.1,0.1c0,0.1,0,0.2-0.1,0.3
		C264.5,36.9,264.5,36.8,264.4,36.7z M264.4,36.6c0-0.2-0.1-0.3-0.1-0.5c0,0,0.1,0.1,0.1,0.1L264.4,36.6L264.4,36.6z M264.3,36
		L264.3,36L264.3,36L264.3,36z M264.3,36.6L264.3,36.6c-0.1-0.1-0.1-0.3-0.1-0.4c0,0,0,0,0,0C264.3,36.3,264.3,36.5,264.3,36.6z
		 M264.4,36.7c0,0.1,0.1,0.2,0.1,0.4c0,0,0-0.1-0.1-0.1C264.3,36.9,264.3,36.8,264.4,36.7L264.4,36.7z M264.5,37.2
		C264.5,37.2,264.5,37.2,264.5,37.2c0,0.1,0,0.2,0,0.3c0-0.1,0-0.3,0-0.4C264.4,37.1,264.4,37.1,264.5,37.2z M264.4,37.9L264.4,37.9
		C264.4,37.9,264.4,37.9,264.4,37.9c-0.1-0.1,0-0.2,0-0.2C264.4,37.8,264.4,37.8,264.4,37.9z M264.4,42.2L264.4,42.2
		c0,0.3,0,0.6,0,0.9l-0.1,0C264.4,42.8,264.4,42.5,264.4,42.2z M264.7,43.1C264.7,43.1,264.7,43.1,264.7,43.1l-0.2,0.1l0,0
		L264.7,43.1z M264.6,43l0.1-0.1C264.7,42.9,264.7,42.9,264.6,43L264.6,43z M264.5,46.3l0.1-0.3L264.5,46.3L264.5,46.3z M264.5,46.5
		L264.5,46.5l-0.1,0.1L264.5,46.5L264.5,46.5z M264.4,46.3l-0.2,0.1c0-0.1,0-0.2,0.1-0.3c0.1-0.1,0.3-0.3,0.4-0.5l0,0L264.4,46.3z
		 M264.1,47C264.1,47,264.1,47,264.1,47l-0.1,0.5C264,47.3,264,47.1,264.1,47z M264,46.8C264,46.8,264,46.8,264,46.8L264,46.8
		C264,46.7,264,46.8,264,46.8z M264.2,47.1c0,0,0.1,0.1,0.1,0.1c-0.1,0.1-0.2,0.2-0.3,0.4L264.2,47.1z M264.1,46.9
		C264.1,46.9,264.1,46.9,264.1,46.9c-0.1-0.1,0-0.2,0-0.2l0.1,0L264.1,46.9z M264.1,46.6C264.1,46.6,264.1,46.6,264.1,46.6l0.2-0.1
		l0,0.1L264.1,46.6z M264.4,45.4c0.1,0.1,0.1,0.1,0.2,0.2c-0.1,0.1-0.2,0.3-0.3,0.4C264.3,45.8,264.3,45.6,264.4,45.4z M264.3,45.2
		c0,0-0.1-0.1-0.1-0.1l0.2-0.1C264.3,45.1,264.3,45.2,264.3,45.2z M264.6,45.5c-0.1-0.1-0.2-0.2-0.2-0.2c0-0.1,0-0.2,0-0.3l0.3-0.1
		L264.6,45.5C264.7,45.5,264.7,45.5,264.6,45.5z M264.5,45C264.5,44.9,264.5,44.9,264.5,45l0.3-0.2l0,0.1L264.5,45z M264.5,44.8
		c0-0.1,0-0.2,0.1-0.3c0.1-0.1,0.2-0.3,0.3-0.4l-0.1,0.6L264.5,44.8z M264.6,44.3c0-0.2,0.1-0.3,0.1-0.5c0.1,0,0.1,0.1,0.2,0.1
		L264.6,44.3z M264.6,43.5c0,0.1,0,0.1,0,0.2l-0.2-0.1l0,0L264.6,43.5z M264.4,43.2C264.4,43.2,264.4,43.2,264.4,43.2L264.4,43.2
		C264.3,43.2,264.3,43.2,264.4,43.2L264.4,43.2z M264.6,43.7c0,0.2-0.1,0.4-0.1,0.7l-0.3,0.3c0.1-0.4,0.1-0.7,0.2-1.1
		C264.4,43.7,264.5,43.7,264.6,43.7z M264.4,44.6c0,0.1,0,0.2,0,0.2l-0.2,0.1C264.3,44.8,264.3,44.7,264.4,44.6z M264.4,44.9
		C264.4,45,264.4,45,264.4,44.9l-0.2,0.2c0,0,0,0,0,0c0,0,0,0,0-0.1L264.4,44.9z M264.1,46.3c0,0.1,0,0.1,0,0.2l-0.2,0.1
		C264,46.4,264,46.3,264.1,46.3z M264.1,46.6C264.1,46.6,264,46.7,264.1,46.6l-0.1,0.1c0,0,0,0,0,0c0,0,0,0,0,0L264.1,46.6z
		 M264,46.9c-0.1,0.3-0.1,0.6-0.2,0.9c-0.1,0.1-0.1,0.1-0.2,0.2c0.1-0.4,0.2-0.8,0.2-1.2v0C263.9,46.8,263.9,46.8,264,46.9z
		 M264.2,55.5c0-0.1,0-0.2,0-0.3l0.4-0.1C264.5,55.2,264.4,55.3,264.2,55.5C264.3,55.5,264.2,55.5,264.2,55.5z M264.3,55.6
		c0,0,0,0.1-0.1,0.1C264.2,55.6,264.2,55.6,264.3,55.6C264.2,55.6,264.2,55.5,264.3,55.6C264.2,55.5,264.2,55.5,264.3,55.6z
		 M264.6,48.4c-0.1,0.2-0.1,0.4-0.2,0.6c-0.1-0.1-0.2-0.1-0.2-0.2l0.5-0.5L264.6,48.4z M264.6,54.5c-0.1-0.1-0.2-0.2-0.4-0.3
		c0.1-0.2,0.2-0.4,0.3-0.5C264.5,54,264.5,54.3,264.6,54.5z M263.9,55c0-0.1,0-0.1,0-0.2c0.1-0.1,0.1-0.3,0.2-0.4c0,0.2,0,0.3,0,0.5
		L263.9,55z M264.1,55.1C264.1,55.1,264.1,55.1,264.1,55.1l-0.2,0.2c0,0,0-0.1,0-0.1L264.1,55.1z M263.9,54.8c0-0.3,0-0.5,0-0.8
		c0.1,0.1,0.1,0.1,0.2,0.2c0,0.1,0,0.1,0,0.2C264,54.5,263.9,54.6,263.9,54.8z M263.9,53.9l0.2-0.1c0,0.1,0,0.2,0,0.3
		C264,54,263.9,54,263.9,53.9z M263.9,53.9C263.9,53.8,263.9,53.8,263.9,53.9l0.2-0.1c0,0,0,0.1,0,0.1L263.9,53.9z M264,52.9
		c0.1-0.2,0.1-0.3,0.2-0.5c0,0.1,0.1,0.3,0.1,0.4c0,0.1,0.1,0.3,0.1,0.5C264.3,53.2,264.2,53,264,52.9z M263.9,52.5
		c0,0.1,0,0.2,0,0.3c-0.1-0.1-0.1-0.1-0.2-0.2c0,0,0,0,0,0L263.9,52.5z M263.8,52.5C263.8,52.5,263.8,52.5,263.8,52.5l0.1-0.1
		c0,0,0,0,0,0.1L263.8,52.5z M263.9,51.8c0.1,0.1,0.2,0.3,0.3,0.4c0,0,0,0.1,0,0.1l-0.2,0.1C263.9,52.1,263.9,51.9,263.9,51.8z
		 M263.9,51.3l0.2,0.6c0,0,0,0,0,0c-0.1-0.1-0.2-0.2-0.3-0.3c0,0,0,0,0,0C263.9,51.5,263.9,51.4,263.9,51.3z M263.9,51.2L263.9,51.2
		L263.9,51.2C263.9,51.1,263.9,51.1,263.9,51.2C263.9,51.2,263.9,51.2,263.9,51.2z M263.9,51.3C263.9,51.3,263.9,51.3,263.9,51.3
		c0,0,0,0.1,0.1,0.2L263.9,51.3z M264.2,52.3C264.2,52.3,264.2,52.3,264.2,52.3C264.2,52.4,264.2,52.4,264.2,52.3l-0.2,0.1
		c0,0,0-0.1,0-0.1L264.2,52.3z M264.2,52.5c0,0.1-0.1,0.2-0.1,0.4c0-0.1,0-0.2,0-0.3L264.2,52.5z M264.4,49.1c0,0.1-0.1,0.2-0.1,0.3
		l-0.2,0.1h0l0.1-0.6L264.4,49.1z M264.1,48.7c-0.1-0.1-0.2-0.2-0.3-0.3c0,0,0-0.1,0-0.1l0.4-0.1L264.1,48.7z M264,49.4h-0.4
		l0.5-0.6L264,49.4z M263.7,50.4c0,0.1,0.1,0.2,0.1,0.3l-0.1-0.1L263.7,50.4L263.7,50.4z M263.6,50.4l0-0.1c0-0.1,0-0.1,0-0.2h0
		C263.6,50.2,263.7,50.2,263.6,50.4L263.6,50.4z M263.8,50.8c0,0,0,0.1,0,0.1l0,0l-0.1-0.2C263.8,50.8,263.8,50.8,263.8,50.8z
		 M263.6,50.3L263.6,50.3L263.6,50.3C263.6,50.4,263.6,50.3,263.6,50.3z M263.6,50.4L263.6,50.4L263.6,50.4L263.6,50.4z M263.7,50.6
		l0.1,0.4l-0.1,0c0-0.2-0.1-0.3-0.1-0.5C263.6,50.5,263.6,50.6,263.7,50.6z M263.8,51.1l0,0.1c0,0.1,0,0.2-0.1,0.3
		C263.8,51.4,263.8,51.3,263.8,51.1L263.8,51.1z M263.9,52.3l-0.1,0c0-0.1,0-0.2,0-0.3c0-0.1,0-0.2,0.1-0.2
		C263.8,52,263.9,52.1,263.9,52.3z M263.7,52.5C263.7,52.5,263.7,52.5,263.7,52.5L263.7,52.5C263.7,52.5,263.7,52.5,263.7,52.5
		C263.7,52.5,263.7,52.5,263.7,52.5L263.7,52.5z M263.7,52.6C263.7,52.6,263.7,52.6,263.7,52.6c0.1,0.3,0.1,0.5,0.1,0.8
		c0,0.1,0,0.1-0.1,0.1C263.7,53.2,263.7,52.9,263.7,52.6L263.7,52.6z M263.8,53.8L263.8,53.8C263.8,53.8,263.8,53.9,263.8,53.8
		C263.8,53.9,263.8,53.8,263.8,53.8z M263.8,53.9L263.8,53.9C263.8,53.9,263.8,53.9,263.8,53.9C263.8,53.9,263.8,53.9,263.8,53.9z
		 M263.8,53.7C263.8,53.7,263.8,53.7,263.8,53.7c0-0.1,0-0.1,0.1-0.2C263.8,53.6,263.8,53.6,263.8,53.7L263.8,53.7z M263.7,56.6
		L263.7,56.6L263.7,56.6L263.7,56.6C263.7,56.6,263.7,56.6,263.7,56.6z M263.8,56.5L263.8,56.5C263.8,56.5,263.8,56.5,263.8,56.5
		C263.8,56.5,263.8,56.5,263.8,56.5z M263.8,56.4C263.8,56.4,263.8,56.4,263.8,56.4C263.8,56.4,263.8,56.4,263.8,56.4L263.8,56.4z
		 M263.8,56.3c0-0.2,0-0.4,0-0.6c0-0.2,0-0.3,0-0.5l0.1,0c0,0.1,0,0.3,0,0.4C263.8,55.9,263.8,56.1,263.8,56.3
		C263.8,56.3,263.8,56.3,263.8,56.3z M263.8,55.3C263.8,55.2,263.8,55.2,263.8,55.3C263.8,55.2,263.8,55.2,263.8,55.3L263.8,55.3z
		 M263.8,55.2L263.8,55.2C263.8,55.2,263.8,55.2,263.8,55.2C263.8,55.2,263.8,55.2,263.8,55.2z M263.8,55
		C263.8,55,263.8,55,263.8,55c0,0,0-0.1,0.1-0.1C263.8,55,263.8,55,263.8,55L263.8,55z M263.8,54.9c0-0.3,0-0.7,0-1l0,0c0,0,0,0,0,0
		c0,0.3,0,0.6,0,0.9C263.8,54.9,263.8,54.9,263.8,54.9z M263.8,53.3c0-0.2,0-0.4,0-0.6c0.1,0.1,0.1,0.1,0.2,0.2c0,0,0,0,0,0.1
		C263.9,53.1,263.9,53.2,263.8,53.3z M264,53.1c0,0.2,0,0.4,0.1,0.5l-0.2,0.1c0-0.1,0-0.1,0-0.2C263.9,53.3,263.9,53.2,264,53.1z
		 M263.9,55.7c0-0.1,0-0.3,0-0.4c0.1,0.1,0.2,0.1,0.2,0.2c0,0,0,0.1,0,0.1c0,0.1,0,0.1,0,0.2c-0.1,0.1-0.2,0.3-0.3,0.4
		C263.9,56,263.9,55.9,263.9,55.7z M263.9,55.3l0.2-0.1c0,0.1,0,0.1,0,0.2C264,55.3,264,55.3,263.9,55.3z M264.1,53.6
		c0-0.2,0-0.4-0.1-0.6c0.1,0.1,0.3,0.3,0.4,0.4c0,0,0,0.1,0,0.1L264.1,53.6z M264.5,53.6C264.5,53.6,264.5,53.6,264.5,53.6
		C264.5,53.7,264.5,53.7,264.5,53.6l-0.3,0.2c0,0,0-0.1,0-0.1L264.5,53.6z M264.4,53.7c-0.1,0.1-0.2,0.3-0.2,0.5c0,0,0,0,0,0
		c0-0.1,0-0.2,0-0.3L264.4,53.7z M264.2,54.3c0.1,0.1,0.3,0.2,0.4,0.3c0,0.1,0,0.1,0,0.2l-0.4,0.1C264.2,54.7,264.2,54.5,264.2,54.3
		C264.2,54.3,264.2,54.3,264.2,54.3z M264.2,55l0.4-0.1c0,0,0,0.1,0,0.1L264.2,55C264.2,55.1,264.2,55.1,264.2,55z M264.6,48.1
		c-0.1,0.2-0.3,0.4-0.5,0.6l0.1-0.5L264.6,48.1L264.6,48.1z M264.2,48.2l-0.4,0.1c0,0,0,0,0-0.1L264.2,48.2L264.2,48.2z M263.7,48.5
		l0.3,0.3c-0.2,0.2-0.4,0.4-0.5,0.6C263.5,49.2,263.6,48.9,263.7,48.5z M263.6,50.1L263.6,50.1L263.6,50.1L263.6,50.1z M263.5,50.1
		l0,0.1l0,0.1C263.5,50.2,263.5,50.2,263.5,50.1L263.5,50.1z M263.5,50.6c0,0.1,0.1,0.3,0.1,0.4l0,0
		C263.6,50.9,263.6,50.8,263.5,50.6C263.5,50.6,263.5,50.6,263.5,50.6z M263.7,51.2c0,0.1,0.1,0.2,0.1,0.4c0,0-0.1-0.1-0.1-0.1
		C263.6,51.3,263.6,51.3,263.7,51.2L263.7,51.2z M263.8,51.6C263.8,51.6,263.8,51.7,263.8,51.6c0,0.1,0,0.2,0,0.3c0-0.1,0-0.3,0-0.4
		C263.7,51.5,263.7,51.6,263.8,51.6z M263.7,52.4L263.7,52.4C263.7,52.4,263.7,52.3,263.7,52.4c-0.1-0.1,0-0.2,0-0.2
		C263.7,52.2,263.7,52.3,263.7,52.4z M263.7,56.7L263.7,56.7c0,0.3,0,0.6,0,0.9l-0.1,0C263.7,57.2,263.7,56.9,263.7,56.7z M264,57.5
		C264,57.5,264,57.5,264,57.5l-0.2,0.1l0,0L264,57.5z M263.9,57.5l0.1-0.1C264,57.4,264,57.4,263.9,57.5L263.9,57.5z M263.8,60.8
		l0.1-0.3L263.8,60.8L263.8,60.8z M263.8,60.9L263.8,60.9l-0.1,0.1L263.8,60.9L263.8,60.9z M263.7,60.8l-0.2,0.1
		c0-0.1,0-0.2,0.1-0.3c0.1-0.1,0.3-0.3,0.4-0.5v0L263.7,60.8z M263.4,61.4C263.4,61.4,263.4,61.4,263.4,61.4l-0.1,0.5
		C263.3,61.7,263.3,61.6,263.4,61.4z M263.3,61.3C263.3,61.2,263.3,61.2,263.3,61.3L263.3,61.3C263.3,61.2,263.3,61.2,263.3,61.3z
		 M263.5,61.5c0,0,0.1,0.1,0.1,0.1c-0.1,0.1-0.2,0.2-0.3,0.3L263.5,61.5z M263.4,61.4C263.4,61.4,263.4,61.3,263.4,61.4
		c-0.1-0.1,0-0.2,0-0.2l0.1,0L263.4,61.4z M263.4,61.1C263.4,61.1,263.4,61,263.4,61.1l0.2-0.1l0,0.1L263.4,61.1z M263.7,59.8
		c0.1,0.1,0.1,0.1,0.2,0.2c-0.1,0.1-0.2,0.3-0.3,0.4C263.6,60.2,263.6,60,263.7,59.8z M263.6,59.7c0,0-0.1-0.1-0.1-0.1l0.1-0.1
		C263.6,59.6,263.6,59.6,263.6,59.7z M263.9,60c-0.1-0.1-0.2-0.2-0.2-0.2c0-0.1,0-0.2,0-0.3l0.3-0.1L263.9,60
		C264,60,264,60,263.9,60z M263.8,59.4C263.8,59.4,263.8,59.4,263.8,59.4l0.3-0.2l0,0.1L263.8,59.4z M263.8,59.2
		c0-0.1,0-0.2,0.1-0.3c0.1-0.1,0.2-0.3,0.3-0.4l-0.1,0.6L263.8,59.2z M263.9,58.7c0-0.2,0.1-0.3,0.1-0.5c0.1,0,0.1,0.1,0.2,0.1
		L263.9,58.7z M263.9,57.9c0,0.1,0,0.1,0,0.2l-0.2-0.1L263.9,57.9z M263.7,57.6C263.7,57.6,263.7,57.6,263.7,57.6L263.7,57.6
		C263.6,57.6,263.6,57.6,263.7,57.6L263.7,57.6z M263.7,58.1c0.1,0,0.1,0.1,0.2,0.1c0,0.2-0.1,0.4-0.1,0.7l-0.3,0.3
		C263.6,58.8,263.6,58.4,263.7,58.1z M263.7,59c0,0.1,0,0.2,0,0.2l-0.2,0.1C263.6,59.2,263.6,59.1,263.7,59z M263.7,59.4
		C263.7,59.4,263.7,59.4,263.7,59.4l-0.2,0.2c0,0,0,0,0,0c0,0,0,0,0-0.1L263.7,59.4z M263.4,60.7c0,0.1,0,0.1,0,0.2l-0.2,0.1
		C263.3,60.9,263.3,60.8,263.4,60.7z M263.4,61.1C263.4,61.1,263.3,61.1,263.4,61.1l-0.1,0.1c0,0,0,0,0,0c0,0,0,0,0,0L263.4,61.1z
		 M263.3,61.3c-0.1,0.3-0.1,0.6-0.2,0.9c-0.1,0.1-0.1,0.1-0.2,0.2c0.1-0.4,0.1-0.8,0.2-1.2h0C263.2,61.3,263.2,61.3,263.3,61.3z
		 M263.5,69.9c0-0.1,0-0.2,0-0.3l0.4-0.1C263.8,69.6,263.7,69.8,263.5,69.9C263.6,69.9,263.5,69.9,263.5,69.9z M263.6,70
		C263.5,70,263.5,70.1,263.6,70C263.5,70.1,263.5,70.1,263.6,70C263.5,70,263.5,70,263.6,70C263.5,70,263.5,70,263.6,70z
		 M263.5,69.6C263.5,69.5,263.5,69.5,263.5,69.6l0.4-0.2c0,0,0,0.1,0,0.1L263.5,69.6z M263.9,62.9c-0.1,0.2-0.1,0.4-0.2,0.6
		c-0.1-0.1-0.2-0.1-0.2-0.2l0.5-0.5L263.9,62.9z M263.9,69c-0.1-0.1-0.2-0.2-0.4-0.3c0.1-0.2,0.2-0.4,0.3-0.5
		C263.8,68.4,263.8,68.7,263.9,69z M263.2,69.5c0-0.1,0-0.1,0-0.2c0.1-0.1,0.1-0.3,0.2-0.4c0,0.2,0,0.3,0,0.5L263.2,69.5z
		 M263.4,69.5C263.4,69.5,263.4,69.6,263.4,69.5l-0.2,0.2c0,0,0-0.1,0-0.1L263.4,69.5z M263.2,69.2c0-0.3,0-0.5,0-0.8
		c0.1,0.1,0.1,0.1,0.2,0.2c0,0.1,0,0.1,0,0.2C263.3,68.9,263.2,69.1,263.2,69.2z M263.2,68.4l0.2-0.1c0,0.1,0,0.2,0,0.3
		C263.3,68.5,263.2,68.4,263.2,68.4z M263.2,68.3C263.2,68.3,263.2,68.3,263.2,68.3l0.2-0.1c0,0,0,0.1,0,0.1L263.2,68.3z M263.2,67
		c0,0.1,0,0.2,0,0.3c-0.1-0.1-0.1-0.1-0.2-0.2c0,0,0,0,0,0L263.2,67z M263.1,67C263.1,67,263.1,66.9,263.1,67l0.1-0.1c0,0,0,0,0,0.1
		L263.1,67z M263.2,66.2c0.1,0.1,0.2,0.3,0.3,0.4c0,0,0,0.1,0,0.1l-0.2,0.1C263.2,66.6,263.2,66.4,263.2,66.2z M263.2,65.8l0.2,0.6
		c0,0,0,0,0,0c-0.1-0.1-0.2-0.2-0.3-0.4c0,0,0,0,0,0C263.2,66,263.2,65.9,263.2,65.8z M263.2,65.6L263.2,65.6L263.2,65.6
		C263.2,65.5,263.2,65.6,263.2,65.6C263.2,65.6,263.2,65.6,263.2,65.6z M263.2,65.7C263.2,65.7,263.2,65.7,263.2,65.7
		c0,0,0,0.1,0.1,0.2L263.2,65.7z M263.5,66.8C263.5,66.8,263.5,66.8,263.5,66.8C263.5,66.8,263.5,66.8,263.5,66.8l-0.2,0.2
		c0,0,0-0.1,0-0.1L263.5,66.8z M263.5,66.9c0,0.1-0.1,0.2-0.1,0.4c0-0.1,0-0.2,0-0.3L263.5,66.9z M263.5,66.9c0,0.1,0.1,0.3,0.1,0.4
		c0,0.1,0.1,0.3,0.1,0.5c-0.1-0.1-0.2-0.2-0.3-0.4C263.4,67.2,263.5,67,263.5,66.9z M263.7,63.5c0,0.1-0.1,0.2-0.1,0.3l-0.2,0.1h0
		l0.1-0.6L263.7,63.5z M263.4,63.2c-0.1-0.1-0.2-0.2-0.4-0.3c0,0,0-0.1,0-0.1l0.4-0.1L263.4,63.2z M263.3,63.9h-0.4l0.5-0.6
		L263.3,63.9z M263,64.8c0,0.1,0.1,0.2,0.1,0.3L263,65L263,64.8L263,64.8z M262.9,64.8l0-0.1c0-0.1,0-0.1,0-0.2h0
		C263,64.6,263,64.7,262.9,64.8L262.9,64.8z M263.1,65.3c0,0,0,0.1,0,0.1l0,0l-0.1-0.3C263.1,65.2,263.1,65.3,263.1,65.3z
		 M262.9,64.8L262.9,64.8L262.9,64.8C262.9,64.8,262.9,64.8,262.9,64.8z M262.9,64.9L262.9,64.9L262.9,64.9L262.9,64.9z M263,65.1
		l0.1,0.4l-0.1,0c0-0.2-0.1-0.3-0.1-0.5C262.9,65,263,65,263,65.1z M263.1,65.5l0,0.1c0,0.1,0,0.2-0.1,0.2
		C263.1,65.8,263.1,65.7,263.1,65.5L263.1,65.5z M263.2,66.8l-0.1,0c0-0.1,0-0.2,0-0.3c0-0.1,0-0.2,0.1-0.2
		C263.1,66.4,263.2,66.6,263.2,66.8z M263,66.9C263,67,263,67,263,66.9L263,66.9C263,67,263,67,263,66.9C263,67,263,66.9,263,66.9
		L263,66.9z M263,67.1C263,67.1,263,67.1,263,67.1c0.1,0.3,0.1,0.5,0.1,0.8c0,0.1,0,0.1-0.1,0.1C263,67.7,263,67.4,263,67.1
		L263,67.1z M263.1,68.4L263.1,68.4C263.1,68.4,263.1,68.4,263.1,68.4c0.1,0.3,0.1,0.6,0.1,0.9c0,0,0,0.1-0.1,0.1
		C263.1,69,263.1,68.7,263.1,68.4z M263.1,69.7C263.1,69.7,263.1,69.7,263.1,69.7L263.1,69.7C263.1,69.7,263.1,69.7,263.1,69.7z
		 M263.1,68.3C263.1,68.3,263.1,68.3,263.1,68.3L263.1,68.3C263.1,68.3,263.1,68.3,263.1,68.3z M263.1,68.3L263.1,68.3
		C263.1,68.3,263.1,68.3,263.1,68.3C263.1,68.3,263.1,68.3,263.1,68.3z M263.1,68.2C263.1,68.1,263.1,68.1,263.1,68.2
		c0-0.1,0-0.1,0.1-0.2C263.1,68,263.1,68.1,263.1,68.2L263.1,68.2z M263,71L263,71C263.1,71,263.1,71,263,71L263,71
		C263,71,263,71,263,71z M263.1,71L263.1,71C263.1,71,263.1,71,263.1,71C263.1,71,263.1,71,263.1,71z M263.1,70.9
		C263.1,70.8,263.1,70.8,263.1,70.9C263.1,70.8,263.1,70.8,263.1,70.9L263.1,70.9z M263.1,70.8c0-0.2,0-0.4,0-0.6c0-0.2,0-0.3,0-0.5
		l0.1,0c0,0.1,0,0.3,0,0.4C263.1,70.3,263.1,70.5,263.1,70.8C263.1,70.7,263.1,70.8,263.1,70.8z M263.1,69.6L263.1,69.6
		C263.1,69.6,263.1,69.6,263.1,69.6C263.1,69.6,263.1,69.6,263.1,69.6z M263.1,69.5L263.1,69.5c0,0,0-0.1,0.1-0.1
		C263.1,69.4,263.1,69.4,263.1,69.5L263.1,69.5z M263.1,67.8c0-0.2,0-0.4,0-0.6c0,0.1,0.1,0.1,0.2,0.2c0,0,0,0.1,0,0.1
		C263.2,67.5,263.2,67.7,263.1,67.8z M263.3,67.5c0,0.2,0,0.4,0.1,0.5l-0.2,0.1c0-0.1,0-0.1,0-0.2C263.2,67.8,263.2,67.7,263.3,67.5
		z M263.2,70.1c0-0.1,0-0.3,0-0.4c0.1,0,0.2,0.1,0.3,0.2c0,0,0,0.1,0,0.1c0,0.1,0,0.1,0,0.2c-0.1,0.1-0.2,0.3-0.3,0.4
		C263.2,70.5,263.2,70.3,263.2,70.1z M263.2,69.7l0.2-0.1c0,0.1,0,0.1,0,0.2C263.3,69.8,263.3,69.7,263.2,69.7z M263.4,68
		c0-0.2,0-0.4-0.1-0.6c0.1,0.1,0.3,0.3,0.4,0.4c0,0,0,0.1,0,0.1L263.4,68z M263.8,68C263.8,68.1,263.8,68.1,263.8,68
		C263.8,68.1,263.8,68.1,263.8,68l-0.3,0.2c0,0,0-0.1,0-0.1L263.8,68z M263.7,68.2c-0.1,0.1-0.2,0.3-0.2,0.5c0,0,0,0,0,0
		c0-0.1,0-0.2,0-0.3L263.7,68.2z M263.5,68.7c0.1,0.1,0.3,0.2,0.4,0.3c0,0.1,0,0.1,0,0.2l-0.4,0.1C263.5,69.2,263.5,69,263.5,68.7
		C263.5,68.7,263.5,68.7,263.5,68.7z M263.9,62.6c-0.1,0.2-0.3,0.4-0.5,0.6l0.1-0.5L263.9,62.6L263.9,62.6z M263.5,62.6l-0.4,0.1
		c0,0,0,0,0-0.1L263.5,62.6L263.5,62.6z M263,63l0.3,0.3c-0.2,0.2-0.4,0.4-0.5,0.6C262.8,63.6,262.9,63.3,263,63z M262.9,64.5
		L262.9,64.5L262.9,64.5L262.9,64.5z M262.8,64.5l0,0.1l0,0.1C262.8,64.7,262.8,64.6,262.8,64.5L262.8,64.5z M262.8,65.1
		c0,0.1,0.1,0.3,0.1,0.4l0,0C262.9,65.4,262.9,65.2,262.8,65.1C262.8,65.1,262.8,65.1,262.8,65.1z M263,65.6c0,0.1,0.1,0.2,0.1,0.4
		c0,0-0.1-0.1-0.1-0.1C263,65.8,262.9,65.7,263,65.6L263,65.6z M263.1,66.1C263.1,66.1,263.1,66.1,263.1,66.1c0,0.1,0,0.2,0,0.3
		c0-0.1,0-0.3,0-0.4C263,66,263,66,263.1,66.1z M263,66.8L263,66.8C263,66.8,263,66.8,263,66.8c-0.1-0.1,0-0.2,0-0.2
		C263,66.7,263,66.7,263,66.8z M263,71.1L263,71.1c0,0.3,0,0.6,0,0.9l-0.1,0C263,71.7,263,71.4,263,71.1z M263.3,72
		C263.3,72,263.3,72,263.3,72l-0.2,0.1l0,0L263.3,72z M263.2,71.9l0.1-0.1C263.3,71.8,263.3,71.8,263.2,71.9L263.2,71.9z
		 M263.1,75.2l0.1-0.3L263.1,75.2L263.1,75.2z M263.1,75.4L263.1,75.4l-0.1,0.1L263.1,75.4L263.1,75.4z M263,75.2l-0.2,0.1
		c0-0.1,0-0.2,0.1-0.3c0.1-0.1,0.3-0.3,0.4-0.5l0,0L263,75.2z M262.7,75.9C262.7,75.9,262.7,75.9,262.7,75.9l-0.1,0.5
		C262.6,76.2,262.6,76,262.7,75.9z M262.6,75.7C262.6,75.7,262.6,75.7,262.6,75.7L262.6,75.7C262.6,75.6,262.6,75.7,262.6,75.7z
		 M262.8,76c0,0,0.1,0.1,0.1,0.1c-0.1,0.1-0.2,0.2-0.3,0.4L262.8,76z M262.7,75.8C262.7,75.8,262.7,75.8,262.7,75.8
		c-0.1-0.1,0-0.2,0-0.2l0.1,0L262.7,75.8z M262.7,75.5C262.7,75.5,262.7,75.5,262.7,75.5l0.2-0.1l0,0.1L262.7,75.5z M263,74.3
		c0.1,0.1,0.1,0.1,0.2,0.2c-0.1,0.1-0.2,0.3-0.3,0.4C262.9,74.7,262.9,74.5,263,74.3z M262.9,74.1c0,0-0.1-0.1-0.1-0.1l0.2-0.1
		C263,74,262.9,74.1,262.9,74.1z M263.2,74.4c-0.1-0.1-0.2-0.2-0.2-0.2c0-0.1,0-0.2,0-0.3l0.3-0.1L263.2,74.4
		C263.3,74.4,263.3,74.4,263.2,74.4z M263.1,73.9C263.1,73.8,263.1,73.8,263.1,73.9l0.3-0.2l0,0.1L263.1,73.9z M263.1,73.7
		c0-0.1,0-0.2,0.1-0.3c0.1-0.1,0.2-0.3,0.3-0.4l-0.1,0.6L263.1,73.7z M263.2,73.2c0-0.2,0.1-0.3,0.1-0.5c0.1,0,0.1,0.1,0.2,0.1
		L263.2,73.2z M263.2,72.4c0,0.1,0,0.1,0,0.2l-0.2-0.1l0,0L263.2,72.4z M263,72C263,72.1,263,72.1,263,72L263,72
		C262.9,72.1,262.9,72.1,263,72L263,72z M263.2,72.6c0,0.2-0.1,0.4-0.1,0.7l-0.3,0.3c0.1-0.4,0.1-0.7,0.2-1.1
		C263,72.5,263.1,72.6,263.2,72.6z M263,73.5c0,0.1,0,0.2,0,0.2l-0.2,0.1C262.9,73.7,262.9,73.6,263,73.5z M263,73.8
		C263,73.8,263,73.9,263,73.8l-0.2,0.2c0,0,0,0,0,0c0,0,0,0,0-0.1L263,73.8z M262.7,75.1c0,0.1,0,0.1,0,0.2l-0.2,0.1
		C262.6,75.3,262.6,75.2,262.7,75.1z M262.7,75.5C262.7,75.5,262.6,75.5,262.7,75.5l-0.1,0.1c0,0,0,0,0,0c0,0,0,0,0,0L262.7,75.5z
		 M262.6,75.8c-0.1,0.3-0.1,0.6-0.2,0.9c-0.1,0.1-0.1,0.1-0.2,0.2c0.1-0.4,0.2-0.8,0.2-1.2l0,0C262.5,75.7,262.5,75.7,262.6,75.8z
		 M262.3,77.4l0.3,0.3c-0.2,0.2-0.4,0.4-0.5,0.6C262.1,78.1,262.2,77.8,262.3,77.4z M262.3,77.3c0,0,0-0.1,0-0.1l0.4-0.1l-0.1,0.5
		C262.5,77.5,262.4,77.4,262.3,77.3z M262.4,77.2C262.4,77.2,262.4,77.1,262.4,77.2l0.4-0.2l0,0.1L262.4,77.2z M262.4,77
		c0-0.1,0-0.1,0-0.1l0.1-0.2c0.1-0.1,0.3-0.3,0.4-0.5l-0.1,0.7L262.4,77z M262.8,75.9l0.1-0.4l0.1,0l-0.1,0.5
		C262.9,76,262.9,75.9,262.8,75.9z M263.1,75.5l0.4-0.1c-0.1,0.2-0.3,0.4-0.5,0.6L263.1,75.5z M263.5,75.4l-0.2,0.9
		c-0.1-0.1-0.2-0.2-0.3-0.3C263.2,75.8,263.4,75.6,263.5,75.4z M263.1,75.4L263.1,75.4l0.5-0.2l0,0.1L263.1,75.4z M263.2,75.2
		l0.1-0.5l0-0.1c0.1,0.1,0.2,0.2,0.3,0.3l0,0.1L263.2,75.2z M263.3,74.5l0.1-0.2c0.1-0.2,0.3-0.3,0.4-0.5l-0.2,1
		C263.6,74.7,263.4,74.6,263.3,74.5z M263.3,74.3l0.1-0.5l0.2-0.1L263.3,74.3z M263.4,73.7L263.4,73.7l0.2-0.2l0,0.1L263.4,73.7z
		 M263.4,73.5l0.1-0.7c0,0,0,0,0,0c0.1,0.1,0.2,0.1,0.3,0.2l-0.2,0.4L263.4,73.5z M263.5,72.7l-0.2-0.1c0-0.1,0-0.2,0-0.3l0.3-0.1
		L263.5,72.7z M263.1,71.9L263.1,71.9c0-0.3,0-0.6,0-0.9l0,0l0.2,0.1c0,0.2,0,0.3,0,0.5C263.2,71.8,263.2,71.8,263.1,71.9z
		 M263.2,71l0.2-0.1c0,0.1,0,0.1,0,0.2C263.3,71.1,263.2,71.1,263.2,71z M263.2,71C263.1,71,263.1,71,263.2,71
		C263.1,71,263.1,71,263.2,71l0.2-0.2c0,0,0,0.1,0,0.1L263.2,71z M263.1,70.8C263.1,70.8,263.1,70.8,263.1,70.8
		c0.1-0.2,0.2-0.4,0.3-0.5c0,0.1,0,0.3,0,0.4L263.1,70.8z M263.4,71.3l0.2,0.1c-0.1,0.1-0.1,0.1-0.2,0.2
		C263.4,71.5,263.4,71.4,263.4,71.3z M263.4,71.2c0-0.1,0-0.2,0-0.2l0.6-0.2c0,0,0,0,0,0c-0.1,0.1-0.3,0.3-0.4,0.5
		C263.6,71.3,263.5,71.2,263.4,71.2z M263.5,70.9C263.5,70.9,263.5,70.9,263.5,70.9l0.6-0.3c0,0,0,0,0,0.1L263.5,70.9z M263.5,70.7
		c0-0.2,0-0.4,0-0.5c0-0.1,0.1-0.1,0.1-0.2c0.1,0.1,0.3,0.2,0.4,0.3c0,0.1,0,0.2,0,0.2L263.5,70.7z M264,62.4L264,62.4L264,62.4
		C264,62.4,264,62.4,264,62.4z M264,70.2c-0.1-0.1-0.2-0.2-0.4-0.3c0.1-0.2,0.2-0.3,0.3-0.5C264,69.8,264,70,264,70.2z M263.9,62.5
		l-0.4,0.1l0-0.1L263.9,62.5L263.9,62.5z M263.5,62.4l-0.4,0.1c0,0,0-0.1,0-0.1l0.1-0.2c0.1-0.1,0.3-0.3,0.4-0.5L263.5,62.4z
		 M263.5,61.4l0.1-0.4l0.1,0l-0.1,0.5C263.6,61.5,263.6,61.5,263.5,61.4z M263.8,61l0.4-0.1c-0.1,0.2-0.3,0.4-0.5,0.6L263.8,61z
		 M264.2,61l-0.2,0.9c-0.1-0.1-0.2-0.2-0.3-0.3C263.9,61.4,264.1,61.2,264.2,61z M263.8,61L263.8,61l0.5-0.2l0,0.1L263.8,61z
		 M263.9,60.7l0.1-0.5l0-0.1c0.1,0.1,0.2,0.2,0.3,0.3l0,0.1L263.9,60.7z M264,60.1l0.1-0.2c0.2-0.2,0.3-0.3,0.4-0.5l-0.2,1
		C264.3,60.3,264.1,60.2,264,60.1z M264,59.9l0.1-0.5l0.2-0.1L264,59.9z M264.1,59.3L264.1,59.3l0.2-0.2l0,0.1L264.1,59.3z
		 M264.1,59.1l0.1-0.7c0,0,0,0,0,0c0.1,0.1,0.2,0.1,0.3,0.2l-0.2,0.4L264.1,59.1z M264.2,58.3l-0.2-0.1c0-0.1,0-0.2,0-0.3l0.3-0.1
		L264.2,58.3z M263.8,57.5L263.8,57.5c0-0.3,0-0.6,0-0.9l0,0l0.2,0.1c0,0.2,0,0.3,0,0.5C263.9,57.3,263.9,57.4,263.8,57.5z
		 M263.9,56.6l0.2-0.1c0,0.1,0,0.1,0,0.2C264,56.7,263.9,56.6,263.9,56.6z M263.9,56.6C263.8,56.6,263.8,56.6,263.9,56.6
		C263.8,56.5,263.8,56.5,263.9,56.6l0.2-0.2c0,0,0,0.1,0,0.1L263.9,56.6z M263.8,56.4c0,0,0-0.1,0-0.1c0.1-0.1,0.2-0.3,0.3-0.4
		c0,0.1,0,0.3,0,0.4L263.8,56.4z M264.1,56.8l0.2,0.1c-0.1,0.1-0.1,0.1-0.2,0.2C264.1,57,264.1,56.9,264.1,56.8z M264.1,56.8
		c0-0.1,0-0.2,0-0.2l0.6-0.2c0,0,0,0,0,0c-0.1,0.1-0.3,0.3-0.4,0.5C264.3,56.8,264.2,56.8,264.1,56.8z M264.2,56.5
		C264.2,56.4,264.2,56.4,264.2,56.5l0.6-0.3c0,0,0,0.1,0,0.1L264.2,56.5z M264.2,56.3c0-0.2,0-0.4,0-0.5c0-0.1,0.1-0.1,0.1-0.2
		c0.1,0.1,0.3,0.2,0.4,0.3c0,0.1,0,0.2,0,0.2L264.2,56.3z M264.7,48L264.7,48L264.7,48C264.7,48,264.7,48,264.7,48z M264.7,55.8
		c-0.1-0.1-0.2-0.2-0.4-0.3c0.1-0.2,0.2-0.3,0.3-0.5C264.7,55.3,264.7,55.6,264.7,55.8z M264.6,48l-0.4,0.1l0-0.1L264.6,48L264.6,48
		z M264.2,47.9l-0.4,0.1c0,0,0-0.1,0-0.1l0.1-0.2c0.1-0.1,0.3-0.3,0.4-0.5L264.2,47.9z M264.2,47l0.1-0.4l0.1,0l-0.1,0.5
		C264.3,47.1,264.3,47,264.2,47z M264.5,46.6l0.4-0.1c-0.1,0.2-0.3,0.4-0.5,0.6L264.5,46.6z M264.9,46.5l-0.2,0.9
		c-0.1-0.1-0.2-0.2-0.3-0.3C264.6,46.9,264.8,46.7,264.9,46.5z M264.5,46.5L264.5,46.5l0.5-0.2l0,0.1L264.5,46.5z M264.6,46.3
		l0.1-0.5l0-0.1c0.1,0.1,0.2,0.2,0.3,0.3l0,0.1L264.6,46.3z M264.7,45.6l0.1-0.2c0.1-0.2,0.3-0.3,0.4-0.5l-0.2,1
		C265,45.8,264.8,45.7,264.7,45.6z M264.7,45.4l0.1-0.5l0.2-0.1L264.7,45.4z M264.8,44.8L264.8,44.8l0.2-0.2l0,0.1L264.8,44.8z
		 M264.8,44.6l0.1-0.7c0,0,0,0,0,0c0.1,0.1,0.2,0.1,0.3,0.2l-0.2,0.4L264.8,44.6z M264.9,43.9l-0.2-0.1c0-0.1,0-0.2,0-0.3l0.3-0.1
		L264.9,43.9z M264.5,43L264.5,43c0-0.3,0-0.6,0-0.9l0,0l0.2,0.1c0,0.2,0,0.3-0.1,0.5C264.6,42.9,264.6,43,264.5,43z M264.6,42.2
		l0.2-0.1c0,0.1,0,0.1,0,0.2C264.7,42.2,264.6,42.2,264.6,42.2z M264.5,42.1C264.5,42.1,264.5,42.1,264.5,42.1
		C264.5,42.1,264.5,42.1,264.5,42.1l0.2-0.2c0,0,0,0.1,0,0.1L264.5,42.1z M264.5,41.9C264.5,41.9,264.5,41.9,264.5,41.9
		c0.1-0.2,0.2-0.4,0.3-0.5c0,0.1,0,0.3,0,0.4L264.5,41.9z M264.8,42.4l0.1,0.1c-0.1,0.1-0.1,0.1-0.2,0.2
		C264.8,42.6,264.8,42.5,264.8,42.4z M264.8,42.3c0-0.1,0-0.2,0-0.2l0.6-0.2c0,0,0,0,0,0c-0.1,0.1-0.3,0.3-0.4,0.5
		C265,42.4,264.9,42.3,264.8,42.3z M264.8,39.4l0.3-0.1c-0.1,0.1-0.2,0.3-0.2,0.5c0,0,0,0,0,0C264.9,39.6,264.8,39.5,264.8,39.4z
		 M265.4,41.8l-0.6,0.2c0,0,0-0.1,0-0.1L265.4,41.8C265.4,41.8,265.4,41.8,265.4,41.8z M265.4,41.7l-0.5,0.2c0-0.2,0-0.4,0-0.5
		c0-0.1,0.1-0.1,0.1-0.2c0.1,0.1,0.3,0.2,0.4,0.3C265.4,41.5,265.4,41.6,265.4,41.7z M264.9,41.2C264.9,41.2,264.9,41.2,264.9,41.2
		c0-0.1,0-0.1,0-0.1c0,0,0,0,0.1,0C264.9,41.1,264.9,41.2,264.9,41.2z M265.4,41.4c-0.1-0.1-0.2-0.2-0.4-0.3
		c0.1-0.2,0.2-0.3,0.3-0.5C265.4,40.9,265.4,41.1,265.4,41.4z M265,41.1C265,41,264.9,41,265,41.1c-0.1-0.2-0.1-0.3-0.1-0.4l0.4-0.1
		C265.2,40.7,265.1,40.9,265,41.1z M265.3,40.5l-0.4,0.1c0,0,0-0.1,0-0.1L265.3,40.5C265.3,40.5,265.3,40.5,265.3,40.5z M265.3,40.3
		l-0.4,0.1c0-0.2,0-0.4,0-0.6c0,0,0,0,0,0c0.1,0.1,0.3,0.2,0.4,0.3C265.3,40.2,265.3,40.3,265.3,40.3z M265.3,40.1
		c-0.1-0.1-0.2-0.2-0.4-0.3c0.1-0.2,0.2-0.3,0.3-0.5C265.2,39.5,265.2,39.8,265.3,40.1z M265.2,39.2
		C265.2,39.2,265.2,39.2,265.2,39.2l-0.3,0.1c0,0,0,0,0-0.1L265.2,39.2C265.2,39.2,265.2,39.2,265.2,39.2z M265.1,39l-0.3,0.1
		c0-0.2,0-0.4-0.1-0.6c0.1,0.1,0.3,0.3,0.4,0.4C265.1,39,265.1,39,265.1,39z M265,38.4c0,0.1,0.1,0.3,0.1,0.5
		c-0.1-0.1-0.2-0.2-0.4-0.4c0.1-0.2,0.1-0.3,0.2-0.5C265,38.1,265,38.3,265,38.4z M264.9,37.9C264.9,37.9,264.9,37.9,264.9,37.9
		l-0.2,0.1c0,0,0-0.1,0-0.1L264.9,37.9C264.9,37.9,264.9,37.9,264.9,37.9z M264.9,37.8l-0.2,0.1c0-0.2-0.1-0.4-0.1-0.5
		C264.7,37.4,264.8,37.6,264.9,37.8C264.9,37.7,264.9,37.7,264.9,37.8z M264.6,36.8c0,0.1,0,0.1,0.1,0.2L264.6,36.8
		C264.6,36.8,264.6,36.8,264.6,36.8z M264.8,37.5C264.8,37.5,264.8,37.6,264.8,37.5c-0.1-0.1-0.2-0.2-0.3-0.3c0,0,0,0,0,0
		c0-0.1,0-0.2,0.1-0.3L264.8,37.5z M264.6,36.6C264.6,36.7,264.6,36.7,264.6,36.6C264.6,36.7,264.6,36.7,264.6,36.6L264.6,36.6
		L264.6,36.6z M264.6,36.5L264.6,36.5l-0.1-0.2c0,0,0.1,0.1,0.1,0.1C264.5,36.4,264.6,36.5,264.6,36.5z M264.5,36.3l-0.1-0.1
		l-0.1-0.2l0.1,0C264.4,36,264.5,36.1,264.5,36.3z M264.3,35.6L264.3,35.6c0,0.1,0.1,0.2,0.1,0.2l-0.1,0l0-0.1
		C264.3,35.7,264.3,35.7,264.3,35.6z M264.3,35.9L264.3,35.9L264.3,35.9C264.3,35.9,264.3,35.9,264.3,35.9z M264.3,35.6L264.3,35.6
		L264.3,35.6L264.3,35.6z M264.2,35.6l0,0.1l0,0.1C264.2,35.8,264.2,35.7,264.2,35.6L264.2,35.6z M264.1,35.6
		C264.1,35.7,264.1,35.7,264.1,35.6L264.1,35.6L264.1,35.6z M264.1,35.7c0,0,0.1,0.1,0.1,0.1c0,0,0,0.1,0,0.1l-0.1,0
		C264.1,35.9,264.1,35.8,264.1,35.7z M264.1,36L264.1,36c0.1,0,0.1,0.1,0.1,0.1l0,0.2C264.1,36.2,264.1,36.1,264.1,36z M264.2,36.6
		c0,0,0-0.1,0-0.1c0-0.1,0-0.1,0-0.2C264.2,36.4,264.3,36.5,264.2,36.6L264.2,36.6z M264.2,36.8L264.2,36.8c0.1,0,0.1,0.1,0.1,0.2
		C264.3,36.9,264.3,36.8,264.2,36.8C264.2,36.8,264.2,36.8,264.2,36.8z M264.3,36.9C264.3,36.9,264.3,37,264.3,36.9
		c0.1,0.3,0.1,0.5,0.1,0.6c0,0.1,0,0.1,0,0.2C264.3,37.4,264.3,37.2,264.3,36.9z M264.3,43.6C264.3,43.6,264.3,43.6,264.3,43.6
		c0,0.4-0.1,0.8-0.1,1.2l-0.1,0.1C264.2,44.4,264.2,44,264.3,43.6z M264.1,45.1C264.1,45.1,264.1,45.1,264.1,45.1L264.1,45.1
		C264.1,45.1,264.1,45.1,264.1,45.1z M264.1,45.2L264.1,45.2c0,0.4-0.1,0.8-0.2,1.2c0,0,0,0-0.1,0.1C263.9,46.1,264,45.6,264.1,45.2
		z M263.8,46.7C263.8,46.7,263.8,46.7,263.8,46.7L263.8,46.7L263.8,46.7C263.8,46.7,263.8,46.7,263.8,46.7z M263.8,46.8L263.8,46.8
		c0,0.4-0.1,0.8-0.2,1.2c0,0,0,0-0.1,0.1C263.6,47.7,263.7,47.3,263.8,46.8z M263.5,48.3L263.5,48.3
		C263.5,48.4,263.5,48.4,263.5,48.3L263.5,48.3C263.5,48.4,263.5,48.4,263.5,48.3z M263.3,49.4L263.3,49.4l0-0.2
		C263.3,49.3,263.3,49.4,263.3,49.4z M263.4,48.4L263.4,48.4c0,0.1,0,0.3,0,0.4l-0.1,0.3C263.4,48.9,263.4,48.7,263.4,48.4z
		 M263.4,49.1l0.2-0.6l0,0c-0.1,0.4-0.2,0.7-0.2,1h-0.1C263.3,49.3,263.4,49.2,263.4,49.1z M263.4,50.2L263.4,50.2L263.4,50.2
		C263.4,50.1,263.4,50.1,263.4,50.2z M263.4,50.2c0,0,0.1,0.1,0.1,0.1c0,0,0,0.1,0,0.1l-0.1,0C263.4,50.3,263.4,50.3,263.4,50.2z
		 M263.4,50.5L263.4,50.5c0.1,0,0.1,0.1,0.1,0.1l0,0.2C263.4,50.7,263.4,50.6,263.4,50.5z M263.5,51.1c0,0,0-0.1,0-0.1
		c0-0.1,0-0.1,0-0.2C263.5,50.9,263.6,51,263.5,51.1L263.5,51.1z M263.5,51.2L263.5,51.2c0.1,0,0.1,0.1,0.1,0.2
		C263.6,51.3,263.6,51.3,263.5,51.2C263.5,51.2,263.5,51.2,263.5,51.2z M263.6,51.4C263.6,51.4,263.6,51.4,263.6,51.4
		c0.1,0.3,0.1,0.5,0.1,0.6c0,0.1,0,0.1,0,0.2C263.6,51.9,263.6,51.6,263.6,51.4z M263.6,58C263.6,58,263.6,58,263.6,58
		c0,0.4-0.1,0.8-0.1,1.2l-0.1,0.1C263.5,58.9,263.5,58.4,263.6,58z M263.4,59.5C263.4,59.5,263.4,59.5,263.4,59.5L263.4,59.5
		C263.4,59.6,263.4,59.5,263.4,59.5z M263.4,59.6L263.4,59.6c0,0.4-0.1,0.8-0.2,1.3c0,0,0,0-0.1,0.1
		C263.2,60.5,263.3,60.1,263.4,59.6z M263.1,61.1C263.1,61.2,263.1,61.2,263.1,61.1L263.1,61.1L263.1,61.1
		C263.1,61.2,263.1,61.2,263.1,61.1z M263.1,61.2L263.1,61.2c0,0.4-0.1,0.8-0.2,1.2c0,0,0,0-0.1,0.1C262.9,62.1,263,61.7,263.1,61.2
		z M262.8,62.8L262.8,62.8C262.8,62.8,262.8,62.8,262.8,62.8L262.8,62.8C262.8,62.8,262.8,62.8,262.8,62.8z M262.6,63.9L262.6,63.9
		l0-0.2C262.6,63.8,262.6,63.8,262.6,63.9z M262.8,62.9L262.8,62.9c0,0.1,0,0.2,0,0.4l-0.1,0.3C262.7,63.3,262.7,63.1,262.8,62.9z
		 M262.7,63.5l0.2-0.6l0,0c-0.1,0.4-0.2,0.7-0.2,1h-0.1C262.6,63.8,262.7,63.7,262.7,63.5z M262.7,64.6L262.7,64.6L262.7,64.6
		C262.7,64.6,262.7,64.6,262.7,64.6z M262.7,64.6c0,0,0.1,0.1,0.1,0.1c0,0,0,0.1,0,0.1l-0.1,0C262.7,64.8,262.7,64.7,262.7,64.6z
		 M262.7,64.9L262.7,64.9c0.1,0,0.1,0.1,0.1,0.1l0,0.2C262.8,65.1,262.7,65,262.7,64.9z M262.8,65.5c0,0,0-0.1,0-0.1
		c0-0.1,0-0.1,0-0.2C262.8,65.3,262.9,65.4,262.8,65.5L262.8,65.5z M262.8,65.6L262.8,65.6c0.1,0,0.1,0.1,0.1,0.2
		C262.9,65.8,262.9,65.7,262.8,65.6C262.8,65.7,262.8,65.7,262.8,65.6z M262.9,65.8C262.9,65.8,262.9,65.9,262.9,65.8
		c0.1,0.3,0.1,0.5,0.1,0.6c0,0.1,0,0.1,0,0.2C262.9,66.3,262.9,66.1,262.9,65.8z M262.9,72.5C262.9,72.5,262.9,72.5,262.9,72.5
		c0,0.4-0.1,0.8-0.1,1.2l-0.1,0.1C262.8,73.3,262.8,72.9,262.9,72.5z M262.7,74C262.7,74,262.7,74,262.7,74L262.7,74
		C262.7,74,262.7,74,262.7,74z M262.7,74.1L262.7,74.1c0,0.4-0.1,0.8-0.2,1.2c0,0,0,0-0.1,0.1C262.5,74.9,262.6,74.5,262.7,74.1z
		 M262.4,75.6C262.4,75.6,262.4,75.6,262.4,75.6L262.4,75.6L262.4,75.6C262.4,75.6,262.4,75.6,262.4,75.6z M262.4,75.7L262.4,75.7
		c0,0.4-0.1,0.8-0.2,1.2c0,0,0,0-0.1,0.1C262.2,76.6,262.3,76.2,262.4,75.7z M262.1,77.2L262.1,77.2
		C262.1,77.3,262.1,77.3,262.1,77.2L262.1,77.2C262.1,77.3,262.1,77.3,262.1,77.2z M262,77.3L262,77.3c0,0.1,0,0.2,0,0.4l-0.1,0.3
		C262,77.8,262,77.6,262,77.3z M261.8,78.5C261.8,78.5,261.8,78.4,261.8,78.5l0.1-0.3C261.9,78.3,261.9,78.4,261.8,78.5L261.8,78.5z
		 M262,78.5L262,78.5c0-0.1,0-0.3,0-0.5l0.2-0.6l0,0C262.1,77.8,262,78.2,262,78.5C262,78.5,262,78.5,262,78.5z M262.3,78.5h-0.2
		l0.6-0.7l-0.1,0.6L262.3,78.5z M262.8,78.3l-0.2,0.1l0.1-0.6L263,78C262.9,78.1,262.9,78.2,262.8,78.3z M263.2,77.3
		c-0.1,0.2-0.1,0.4-0.2,0.6c-0.1-0.1-0.2-0.1-0.2-0.2l0.5-0.5L263.2,77.3z M263.2,77c-0.1,0.2-0.3,0.4-0.5,0.6l0.1-0.5L263.2,77
		L263.2,77z M263.2,76.9l-0.4,0.1l0-0.1L263.2,76.9L263.2,76.9z M263.3,76.9L263.3,76.9L263.3,76.9
		C263.3,76.8,263.3,76.9,263.3,76.9z M263.3,76.7l-0.4,0.1l0.1-0.7c0.1,0.1,0.3,0.2,0.4,0.3L263.3,76.7z M263.3,76.7L263.3,76.7
		l0-0.2c0,0,0,0,0,0C263.4,76.6,263.4,76.6,263.3,76.7z M263.4,76.4C263.4,76.4,263.4,76.4,263.4,76.4l0.2-1.1c0,0,0-0.1,0.1-0.1
		C263.6,75.7,263.5,76.1,263.4,76.4z M263.6,75.2L263.6,75.2L263.6,75.2C263.6,75.2,263.6,75.2,263.6,75.2z M263.7,75L263.7,75
		L263.7,75C263.7,75,263.7,75,263.7,75C263.7,75,263.7,75,263.7,75z M263.7,74.9C263.7,74.9,263.7,74.9,263.7,74.9l0.1-0.9
		C263.8,74.3,263.8,74.6,263.7,74.9z M263.9,73.7c-0.1,0.1-0.2,0.3-0.4,0.4l0.2-0.5l0.2-0.1L263.9,73.7z M263.9,73.5L263.9,73.5
		l-0.2,0.1l0-0.1L263.9,73.5C263.9,73.5,263.9,73.5,263.9,73.5z M263.9,73.3l-0.1,0l0.1-0.3c0,0,0,0,0,0
		C263.9,73.2,263.9,73.3,263.9,73.3z M263.9,73L263.9,73L263.9,73C263.9,73,263.9,73,263.9,73z M264,72.7l-0.1,0.3l-0.3-0.2
		c0.1-0.2,0.3-0.3,0.4-0.5C264,72.4,264,72.6,264,72.7z M264,72.2l-0.5,0.6l0.1-0.5L264,72.2C264,72.1,264,72.1,264,72.2z M264,71.7
		l-0.7,0.2c0,0,0,0,0,0L264,71.7C264,71.7,264,71.7,264,71.7z M264,71.6l-0.6,0.2c0-0.1,0-0.1,0-0.2l0.2-0.3L264,71.6
		C264,71.6,264,71.6,264,71.6z M264,71.6c-0.1-0.1-0.2-0.1-0.4-0.2l0.4-0.4c0,0.2,0,0.3,0,0.5C264,71.4,264,71.5,264,71.6z
		 M264,62.2l-0.4,0.1l0.1-0.7c0.1,0.1,0.3,0.3,0.4,0.3L264,62.2z M264,62.2L264,62.2l0-0.1c0,0,0,0,0,0
		C264.1,62.1,264.1,62.2,264,62.2z M264.1,62C264.1,62,264.1,62,264.1,62l0.2-1.1c0,0,0-0.1,0.1-0.1C264.3,61.3,264.2,61.6,264.1,62
		z M264.3,60.8L264.3,60.8L264.3,60.8C264.3,60.7,264.3,60.8,264.3,60.8z M264.4,60.6L264.4,60.6L264.4,60.6
		C264.4,60.5,264.4,60.5,264.4,60.6C264.4,60.5,264.4,60.6,264.4,60.6z M264.4,60.5C264.4,60.4,264.4,60.4,264.4,60.5l0.1-0.9
		C264.5,59.9,264.5,60.2,264.4,60.5z M264.6,59.3c-0.1,0.1-0.2,0.3-0.4,0.4l0.2-0.5l0.2-0.1L264.6,59.3z M264.6,59.1L264.6,59.1
		l-0.2,0.1l0-0.1L264.6,59.1C264.6,59,264.6,59.1,264.6,59.1z M264.6,58.9l-0.1,0.1l0.1-0.3c0,0,0,0,0,0
		C264.6,58.7,264.6,58.8,264.6,58.9z M264.6,58.6L264.6,58.6L264.6,58.6C264.6,58.5,264.6,58.5,264.6,58.6z M264.7,58.2l-0.1,0.3
		l-0.3-0.2c0.1-0.2,0.3-0.3,0.4-0.5C264.7,58,264.7,58.1,264.7,58.2z M264.7,57.7l-0.5,0.6l0.1-0.5L264.7,57.7
		C264.7,57.7,264.7,57.7,264.7,57.7z M264.7,57.3l-0.7,0.2c0,0,0,0,0,0L264.7,57.3C264.7,57.3,264.7,57.3,264.7,57.3z M264.7,57.2
		l-0.6,0.2c0-0.1,0-0.1,0-0.2l0.2-0.3L264.7,57.2C264.7,57.2,264.7,57.2,264.7,57.2z M264.7,57.1c-0.1-0.1-0.2-0.1-0.4-0.2l0.4-0.4
		c0,0.2,0,0.3,0,0.5C264.7,57,264.7,57.1,264.7,57.1z M264.7,47.8l-0.4,0.1l0.1-0.7c0.1,0.1,0.3,0.3,0.4,0.3L264.7,47.8z
		 M264.7,47.8L264.7,47.8l0-0.1c0,0,0,0,0,0C264.8,47.7,264.8,47.7,264.7,47.8z M264.8,47.5C264.8,47.5,264.8,47.5,264.8,47.5
		l0.2-1.1c0,0,0-0.1,0.1-0.1C265,46.8,264.9,47.2,264.8,47.5z M265,46.3L265,46.3L265,46.3C265,46.3,265,46.3,265,46.3z M265.1,46.1
		L265.1,46.1L265.1,46.1C265.1,46.1,265.1,46.1,265.1,46.1C265.1,46.1,265.1,46.1,265.1,46.1z M265.1,46C265.1,46,265.1,46,265.1,46
		l0.1-0.9C265.2,45.4,265.2,45.7,265.1,46z M265.3,44.8c-0.1,0.1-0.2,0.3-0.4,0.4l0.2-0.5l0.2-0.1L265.3,44.8z M265.3,44.6
		L265.3,44.6l-0.2,0.1l0-0.1L265.3,44.6C265.3,44.6,265.3,44.6,265.3,44.6z M265.3,44.5l-0.1,0.1l0.1-0.3c0,0,0,0,0,0
		C265.3,44.3,265.3,44.4,265.3,44.5z M265.3,44.1L265.3,44.1L265.3,44.1C265.3,44.1,265.3,44.1,265.3,44.1z M265.4,43.8l-0.1,0.3
		l-0.3-0.2c0.1-0.2,0.3-0.3,0.4-0.5C265.4,43.5,265.4,43.7,265.4,43.8z M265.4,43.3l-0.5,0.6l0.1-0.5L265.4,43.3
		C265.4,43.2,265.4,43.3,265.4,43.3z M265.4,42.8l-0.7,0.2c0,0,0,0,0,0L265.4,42.8C265.4,42.8,265.4,42.8,265.4,42.8z M265.4,42.7
		l-0.6,0.2c0-0.1,0-0.1,0-0.2l0.2-0.3L265.4,42.7C265.4,42.7,265.4,42.7,265.4,42.7z M265.4,42.7c-0.1-0.1-0.2-0.1-0.4-0.2l0.4-0.4
		c0,0.2,0,0.3,0,0.5C265.4,42.5,265.4,42.6,265.4,42.7z M272.1,42.5c0-0.2,0-0.3,0-0.5l0.4,0.4c-0.1,0.1-0.2,0.2-0.4,0.2
		C272.2,42.6,272.1,42.5,272.1,42.5z M272.2,42.7l0.4-0.2l0.2,0.3c0,0.1,0,0.1,0,0.2L272.2,42.7C272.2,42.7,272.2,42.7,272.2,42.7z
		 M272.2,42.8l0.7,0.2c0,0,0,0,0,0L272.2,42.8C272.2,42.8,272.2,42.8,272.2,42.8z M272.2,43.2l0.4,0.1l0.1,0.5L272.2,43.2
		C272.2,43.3,272.2,43.2,272.2,43.2z M272.2,43.4c0.1,0.1,0.3,0.3,0.4,0.5l-0.3,0.2l-0.1-0.3C272.2,43.7,272.2,43.5,272.2,43.4z
		 M272.2,44L272.2,44L272.2,44C272.2,44.1,272.2,44.1,272.2,44z M272.2,44.2C272.2,44.2,272.3,44.2,272.2,44.2l0.2,0.3l-0.1-0.1
		C272.2,44.4,272.2,44.3,272.2,44.2z M272.3,44.6C272.3,44.6,272.3,44.6,272.3,44.6l0.2,0l0,0.1L272.3,44.6L272.3,44.6z M272.3,44.7
		l0.2,0.1l0.2,0.5c-0.1-0.2-0.3-0.3-0.4-0.4L272.3,44.7z M272.3,45.1l0.2,0.9c0,0,0,0,0,0C272.4,45.7,272.4,45.4,272.3,45.1z
		 M272.5,46.1C272.5,46.1,272.5,46.1,272.5,46.1L272.5,46.1L272.5,46.1C272.5,46.1,272.5,46.1,272.5,46.1z M272.5,46.3L272.5,46.3
		C272.5,46.3,272.5,46.3,272.5,46.3L272.5,46.3z M272.5,46.4C272.5,46.4,272.6,46.5,272.5,46.4l0.3,1.1c0,0,0,0,0,0
		C272.7,47.2,272.6,46.8,272.5,46.4z M272.8,47.8c0,0,0-0.1,0-0.1c0,0,0,0,0,0L272.8,47.8L272.8,47.8z M273.2,47.2l0.1,0.7l-0.4-0.1
		l0-0.2C272.9,47.5,273.1,47.4,273.2,47.2z M272.8,56.9c0-0.2,0-0.3,0-0.5l0.4,0.4c-0.1,0.1-0.2,0.2-0.4,0.2
		C272.8,57.1,272.8,57,272.8,56.9z M272.9,57.2l0.4-0.2l0.2,0.3c0,0.1,0,0.1,0,0.2L272.9,57.2C272.9,57.2,272.9,57.2,272.9,57.2z
		 M272.9,57.3l0.7,0.2c0,0,0,0,0,0L272.9,57.3C272.9,57.3,272.9,57.3,272.9,57.3z M272.9,57.7l0.4,0.1l0.1,0.5L272.9,57.7
		C272.9,57.7,272.9,57.7,272.9,57.7z M272.9,57.9c0.1,0.1,0.3,0.3,0.4,0.5l-0.3,0.2l-0.1-0.3C272.9,58.1,272.9,58,272.9,57.9z
		 M272.9,58.5L272.9,58.5L272.9,58.5C272.9,58.5,272.9,58.5,272.9,58.5z M272.9,58.7C272.9,58.6,272.9,58.6,272.9,58.7l0.2,0.3
		l-0.1-0.1C272.9,58.8,272.9,58.7,272.9,58.7z M273,59.1C273,59.1,273,59,273,59.1l0.2,0l0,0.1L273,59.1L273,59.1z M273,59.2
		l0.2,0.1l0.2,0.5c-0.1-0.2-0.3-0.3-0.4-0.4L273,59.2z M273,59.6l0.2,0.9c0,0,0,0,0,0C273.1,60.2,273.1,59.9,273,59.6z M273.2,60.6
		C273.2,60.6,273.2,60.5,273.2,60.6C273.2,60.5,273.2,60.5,273.2,60.6L273.2,60.6L273.2,60.6z M273.2,60.7L273.2,60.7
		C273.2,60.8,273.2,60.7,273.2,60.7L273.2,60.7z M273.2,60.9C273.2,60.9,273.3,60.9,273.2,60.9l0.3,1.1c0,0,0,0,0,0
		C273.4,61.6,273.3,61.3,273.2,60.9z M273.5,62.2c0,0,0-0.1,0-0.1c0,0,0,0,0,0L273.5,62.2L273.5,62.2z M273.9,61.7l0.1,0.7l-0.4-0.1
		l0-0.2C273.6,61.9,273.8,61.8,273.9,61.7z M273.5,71.4c0-0.2,0-0.3,0-0.5l0.4,0.4c-0.1,0.1-0.3,0.2-0.4,0.2
		C273.5,71.5,273.5,71.4,273.5,71.4z M273.5,71.6l0.4-0.2l0.2,0.3c0,0.1,0,0.1,0,0.2L273.5,71.6C273.5,71.6,273.5,71.6,273.5,71.6z
		 M273.6,71.7l0.7,0.2c0,0,0,0,0,0L273.6,71.7C273.6,71.7,273.6,71.7,273.6,71.7z M273.6,72.1l0.4,0.1l0.1,0.5L273.6,72.1
		C273.6,72.1,273.6,72.1,273.6,72.1z M273.6,72.3c0.1,0.1,0.3,0.3,0.4,0.5l-0.3,0.2l-0.1-0.3C273.6,72.6,273.6,72.4,273.6,72.3z
		 M273.6,72.9L273.6,72.9L273.6,72.9C273.6,73,273.6,73,273.6,72.9z M273.6,73.1C273.6,73.1,273.6,73.1,273.6,73.1l0.2,0.3l-0.1,0
		C273.6,73.3,273.6,73.2,273.6,73.1z M273.7,73.5C273.7,73.5,273.7,73.5,273.7,73.5l0.2,0l0,0.1L273.7,73.5L273.7,73.5z M273.7,73.6
		l0.2,0.1l0.2,0.5c-0.1-0.2-0.3-0.3-0.4-0.4L273.7,73.6z M273.7,74l0.2,0.9c0,0,0,0,0,0C273.8,74.6,273.8,74.3,273.7,74z M273.9,75
		C273.9,75,273.9,75,273.9,75L273.9,75L273.9,75C273.9,75,273.9,75,273.9,75z M273.9,75.2L273.9,75.2
		C273.9,75.2,273.9,75.2,273.9,75.2L273.9,75.2z M273.9,75.3C273.9,75.3,274,75.4,273.9,75.3l0.3,1.1c0,0,0,0,0,0
		C274.1,76.1,274,75.7,273.9,75.3z M274.2,76.7c0,0,0-0.1,0-0.1c0,0,0,0,0,0L274.2,76.7L274.2,76.7z M274.6,76.1l0.1,0.7l-0.4-0.1
		l0-0.2C274.3,76.4,274.5,76.3,274.6,76.1z M274.3,76.8L274.3,76.8L274.3,76.8C274.3,76.9,274.3,76.8,274.3,76.8z M274.3,76.8
		l0.4,0.1l0,0.1L274.3,76.8L274.3,76.8z M274.3,77l0.4,0.1l0.1,0.5C274.7,77.4,274.5,77.2,274.3,77L274.3,77z M274.4,77.3l0-0.1
		l0.5,0.5c-0.1,0.1-0.2,0.1-0.2,0.2C274.5,77.7,274.5,77.5,274.4,77.3z M274.7,78.3c0-0.1-0.1-0.2-0.1-0.3l0.3-0.2l0.1,0.6
		L274.7,78.3z M275.3,78.5l-0.3-0.1l-0.1-0.6l0.6,0.7H275.3z M275.6,78.5C275.6,78.5,275.6,78.5,275.6,78.5
		c-0.1-0.3-0.2-0.6-0.3-1.1l0,0l0.2,0.6C275.6,78.2,275.6,78.3,275.6,78.5L275.6,78.5z M275.7,78.5c0-0.1,0-0.2-0.1-0.3L275.7,78.5
		C275.7,78.4,275.7,78.5,275.7,78.5L275.7,78.5z"/>
	<polygon class="st0" points="253,82.4 253,54.1 253.4,54.1 253.4,52.7 253.8,52.4 253.8,50.9 254.1,50.9 254.1,49.7 254.4,49.7 
		254.4,48.6 254.9,48.6 256.4,46.6 257.4,41.6 256.9,41.1 257.5,40.5 257.9,37.5 257.9,37.5 258.3,40.5 258.9,41.1 258.3,41.6 
		259.4,46.6 260.8,48.6 261.3,48.6 261.3,49.7 261.6,49.7 261.6,50.9 261.9,50.9 261.9,52.4 262.3,52.7 262.3,54.1 262.7,54.1 
		262.7,82.4 	"/>
	<path class="st0" d="M200,81.9v0.5h20v-0.5h-0.2V67.6l-3.9-2V43h0.1v-5.9l-0.4-0.1h-3.5v-0.5l-0.2-0.1h-0.1l-0.2,0.1V37h-3.2v-0.5
		l-0.2-0.1h-0.1l-0.2,0.1V37h-3.5l-0.4,0.1V43h0.1v22.6l-3.9,2v14.3H200z M211.6,38.3v0.5h-3.2v-0.5H211.6z M215,38.8h-3v-0.5h3
		V38.8z M204.9,38.3h3v0.5h-3V38.3z"/>
	<polygon class="st0" points="100.4,78.6 100.4,77.1 100.1,77.1 100.1,76.7 99.9,76.7 99.9,76 100,76 100,75.6 99.9,75.6 99.9,75.5 
		100,75.5 100,74.5 99.9,74.5 99.9,74.4 100,74.4 100,73.4 99.9,73.4 99.9,73.3 100,73.3 100,72.3 99.9,72.3 99.9,72.2 100,72.2 
		100,71.2 99.9,71.2 99.9,71.1 100,71.1 100,70.2 99.9,70.2 99.9,70 100,70 100,69.1 99.9,69.1 99.9,68.9 100,68.9 100,68 99.9,68 
		99.9,67.8 100,67.8 100,66.9 98.4,66.9 98.4,66.7 98.5,66.7 98.5,65.8 98.4,65.8 98.4,65.6 98.5,65.6 98.5,64.7 98.4,64.7 
		98.4,64.6 98.5,64.6 98.5,63.6 98.4,63.6 98.4,63.5 98.5,63.5 98.5,62.5 98.4,62.5 98.4,62.4 98.5,62.4 98.5,61.4 98.4,61.4 
		98.4,61.3 98.5,61.3 98.5,60.3 98.4,60.3 98.4,60.2 98.5,60.2 98.5,59.3 98.4,59.3 98.4,59.1 98.5,59.1 98.5,58.2 98.4,58.2 
		98.4,58 98.5,58 98.5,57.1 98.4,57.1 98.4,56.9 98.5,56.9 98.4,56 96.7,56 96.7,55.8 95.2,55.8 95.2,53.4 95.5,53.4 95.5,53.1 
		94.3,53.1 94.3,53 92.5,53 92.5,53.1 91.4,53.1 91.4,53.4 91.7,53.4 91.7,55.8 90.2,55.8 90.2,56 88.5,56 88.3,56.9 88.5,56.9 
		88.5,57.1 88.3,57.1 88.3,58 88.5,58 88.5,58.2 88.3,58.2 88.3,59.1 88.5,59.1 88.5,59.3 88.3,59.3 88.3,60.2 88.5,60.2 88.5,60.3 
		88.3,60.3 88.3,61.3 88.5,61.3 88.5,61.4 88.3,61.4 88.3,62.4 88.5,62.4 88.5,62.5 88.3,62.5 88.3,63.5 88.5,63.5 88.5,63.6 
		88.3,63.6 88.3,64.6 88.5,64.6 88.5,64.7 88.3,64.7 88.3,65.6 88.5,65.6 88.5,65.8 88.3,65.8 88.3,66.7 88.5,66.7 88.5,66.9 
		86.8,66.9 86.8,67.8 86.9,67.8 86.9,68 86.8,68 86.8,68.9 86.9,68.9 86.9,69.1 86.8,69.1 86.8,70 86.9,70 86.9,70.2 86.8,70.2 
		86.8,71.1 86.9,71.1 86.9,71.2 86.8,71.2 86.8,72.2 86.9,72.2 86.9,72.3 86.8,72.3 86.8,73.3 86.9,73.3 86.9,73.4 86.8,73.4 
		86.8,74.4 86.9,74.4 86.9,74.5 86.8,74.5 86.8,75.5 86.9,75.5 86.9,75.6 86.8,75.6 86.8,76 86.9,76 86.9,76.7 86.8,76.7 86.8,77.1 
		86.4,77.1 86.4,78.6 84,78.6 84,82.4 102.8,82.4 102.8,78.6 	"/>
</g>
<g id="statue_of_liberty">
</g>
</svg>
