<?xml version="1.0" encoding="utf-8"?>
<!-- Generator: Adobe Illustrator 19.0.0, SVG Export Plug-In . SVG Version: 6.00 Build 0)  -->
<svg version="1.1" id="Layer_1" xmlns="http://www.w3.org/2000/svg" xmlns:xlink="http://www.w3.org/1999/xlink" x="0px" y="0px"
	 viewBox="-32.9 352.5 170 90.6" style="enable-background:new -32.9 352.5 170 90.6;" xml:space="preserve">
<style type="text/css">
	.st0{fill:#263318;}
</style>
<g id="ground">
	<rect x="-33" y="441.2" class="st0" width="170.1" height="1.9"/>
</g>
<g id="new_york">
	<polygon class="st0" points="93.4,441.5 93.4,441.2 93.6,441.2 93.6,440.7 93.7,440.7 93.7,440.3 93.6,440.1 93.7,439.9 
		93.7,438.7 93.6,438.6 94.3,437.5 94.8,437.5 95.7,438.6 95.7,436.4 96.2,435.7 96.7,435.7 97.1,436.2 97.7,435.4 98.4,435.4 
		99.2,436.5 99.2,437 99.5,437.5 99.5,435.2 99.3,435 100,434.2 100.7,434.2 101.4,435 101.4,435.2 101.7,434.7 102.2,434.7 
		102.9,435.7 102.8,435.9 102.8,436.4 104,436.4 104,436.2 104.2,436.2 104.2,435.5 104,435.5 104,435.3 104.2,435.3 104.2,434.7 
		104,434.7 104,434.4 104.2,434.4 104.2,433.8 104,433.8 104,433.5 104.2,433.5 104.2,432.9 104,432.9 104,432.6 104.2,432.6 
		104.2,431.9 104,431.9 104,431.7 104.2,431.7 104.2,431.5 104.6,431.5 105.2,430.7 105.2,430.5 105.7,430.5 105.7,430.3 
		106.3,429.5 106.3,428.9 106.6,428.9 106.6,428.9 108,428.9 108,429.2 108.7,430.3 109.7,430.3 109.7,430.6 110.3,431.5 111,431.5 
		111,431.7 111.2,431.7 111.2,431.9 111,431.9 111,432.6 111.2,432.6 111.2,432.9 111,432.9 111,433.5 111.2,433.5 111.2,433.8 
		111,433.8 111,434.4 111.2,434.4 111.2,434.7 111,434.7 111,435.3 111.2,435.3 111.2,435.5 111,435.5 111,436.2 111.2,436.2 
		111.2,436.4 111.6,436.4 111.9,437 112.4,437 112.7,436.4 113.6,436.4 113.6,434.3 113.5,434.2 114.3,433.1 115,433.1 115.2,433.3 
		115.4,433.1 116.2,433.1 116.3,433.2 116.4,433.1 117.2,433.1 117.5,433.6 117.5,433.4 118.2,432.6 118.9,432.6 119.6,433.4 
		119.4,433.6 119.4,434.7 119.7,434.2 119.7,433.7 120.4,432.6 121.3,432.6 121.8,433.4 122.1,432.9 122.7,432.9 123.2,433.7 
		123.6,433.4 124.3,432.3 124.9,432.3 125.5,433.4 125.5,433.5 125.5,434.7 125.5,434.9 125.5,435 125.5,438.6 127.8,438.6 
		127.8,440.5 129.9,440.5 129.9,441.4 130.7,441.4 130.7,441.8 93.1,441.8 93.1,441.5 	"/>
	<polygon class="st0" points="45.1,436.4 45.1,433.4 44.3,433.4 44.3,430.9 43.9,430.9 43.9,412.6 43.8,412.6 43.8,412.5 
		43.4,412.5 43.4,412.4 43.8,412.4 43.7,412.3 43.6,412.3 43.6,412.3 43.6,412.3 43.6,412.3 43.3,412.3 43.3,412.3 43.3,412.3 
		43.3,412.2 43.1,411.9 43.1,411.8 42.6,411.8 42.6,411.9 42.5,412.2 42.5,412.3 42.2,412.3 42.2,412.3 42.1,412.3 42.1,412.3 
		41.8,412.3 41.8,412.3 41.8,412.3 41.8,412.3 41.4,412.3 41.4,412.3 41.4,412.3 41.4,412.3 41.1,412.3 41.1,412.3 41,412.3 
		41,412.3 40.7,412.3 40.7,412.3 40.7,412.3 40.7,412.3 40.4,412.3 40.4,412.3 40.3,412.3 40.3,412.3 40,412.3 40,412.3 39.9,412.3 
		39.9,412.3 39.6,412.3 39.6,412.3 39.6,412.3 39.6,412.3 39.3,412.3 39.3,412.3 39.2,412.3 39.2,412.3 38.9,412.3 38.9,412.3 
		38.8,412.3 38.8,412.3 38.5,412.3 38.5,412.3 38.5,412.3 38.5,412.3 38.2,412.3 38.2,412.3 38.1,412.3 38.1,412.3 38,412.3 
		37.9,412.4 38.3,412.4 38.3,412.5 37.9,412.5 37.9,412.6 37.8,412.6 37.8,430.9 37.4,430.9 37.4,433.4 36.7,433.4 36.7,436.4 
		36,436.4 36,441.8 45.7,441.8 45.7,436.4 	"/>
	<polygon class="st0" points="12.9,434.7 12.9,433.9 13,433.9 13,433.1 13.1,433.1 13.1,432.4 13.8,432.4 13.8,433.1 13.9,433.1 
		13.9,433.9 18.2,433.9 18.2,435.8 19.9,435.8 19.9,433 23.1,433 23.1,433.1 23.4,433.1 23.4,434.1 23.2,434.1 23.1,434.8 
		23.3,434.8 23.3,435.5 23.1,435.5 23,436.1 23.1,436.1 23.1,436.9 22.9,436.9 22.9,437.5 23,437.5 23,438.2 22.8,438.2 22.8,438.9 
		22.9,438.9 22.9,439.6 22.7,439.6 22.6,440.2 22.7,440.2 22.7,442.1 12.6,442.1 12.6,434.7 	"/>
	<path class="st0" d="M65.4,437.3v-0.1h-1.5v-2.3h-0.2v-0.1h-1.1v-10.6l-0.2-0.2h-1.3v-2.3h-0.3v-3.2h-0.2v-0.2h-0.7v-36.5h-0.3
		v-5.5h-0.7v-3.4h-0.6V371l-0.5-0.1V370h-0.1v-0.1h-0.6l-0.6-2.8h-0.4l-0.2-3.6L56,361l0,0c0.1,0,0.3-0.1,0.3-0.3
		c0-0.1-0.1-0.3-0.3-0.3l0,0v-1c0.1,0,0.1-0.1,0.1-0.2S56,359,56,359l-0.2-6.5h-0.3l-0.2,6.5c-0.1,0-0.1,0.1-0.1,0.2
		s0.1,0.2,0.1,0.2v1l0,0c-0.1,0-0.3,0.1-0.3,0.3c0,0.1,0.1,0.3,0.3,0.3l0,0l-0.1,2.5l-0.2,3.6h-0.4l-0.7,2.8h-0.6v0.1h-0.2v0.9
		l-0.5,0.1v1.9h-0.7v3.4h-0.7v5.5h-0.2v36.5h-0.7v0.2h-0.2v3.2H50v2.3h-1.3l-0.3,0.2v10.6h-1.1v0.1h-0.2v2.3h-1.5v0.1l0,0v4.4h19.9
		v-4.4C65.6,437.3,65.4,437.3,65.4,437.3z"/>
	<path class="st0" d="M93.5,441.8v-0.9h-0.1v-7.9h-0.2v0.1h-0.7v-3.1h-0.3v-0.2h-0.1v-0.2h0.1v-0.1H92v-0.5h0.1v-0.5h-0.5v-0.9h0.1
		c0,0,0-0.5,0-0.7c0-0.2-0.1-0.6-0.1-0.6h-0.1l0.1-0.6l-0.1-0.1l-0.3,0.5v-11.5h-0.1v-0.5c0,0,0.1-0.4,0.1-0.5s0.1-0.2,0.1-0.2
		s0.1,0.1,0.2,0c0.1-0.1,0-0.3,0-0.3l0.1,0.1c0,0,0.1-0.1,0.1-0.1s-0.1-0.2-0.3-0.2c-0.2,0-0.3,0-0.3,0v-3.1h-0.1v-0.1h-0.3V408
		h-0.1c0,0-0.1-0.7-0.1-0.9s0-0.7,0-0.7h-0.1v-1.3h-0.1l-0.1,0.1c0-0.7,0-1.4,0-1.4s-0.2-0.1-0.2,0c0-0.6,0.1-1.7,0.1-1.7
		s-0.2-0.1-0.2,0c0-0.7,0-1.8,0-1.8h-0.2V399c0,0-0.2-0.1-0.2,0c-0.1-0.7-0.3-1.3-0.3-1.3v-5H89v4.9c0,0-0.2,0.7-0.3,1.3
		c-0.1-0.1-0.2,0-0.2,0v1.3h-0.2c0,0,0,1.2,0,1.8h-0.2c0,0,0,1.1,0.1,1.7c0-0.1-0.2,0-0.2,0s0,0.6,0,1.4l-0.1-0.1h-0.1v1.3h-0.1
		c0,0,0,0.4,0,0.7s-0.1,0.9-0.1,0.9h-0.1v1.6h-0.3v0.1h-0.1v3.1c0,0-0.2-0.1-0.3,0c-0.2,0-0.3,0.1-0.3,0.2s0.1,0.1,0.1,0.1l0.1-0.1
		c0,0-0.1,0.2,0,0.3c0.1,0.1,0.2,0,0.2,0s0.1,0.1,0.1,0.2s0.1,0.5,0.1,0.5v0.6h-0.1V426l-0.3-0.5l-0.1,0.1l0.1,0.6h-0.1
		c0,0-0.1,0.4-0.1,0.6s0,0.7,0,0.7h0.1v0.9h-0.9v0.5h0.1v0.5h-0.2v0.1h0.1v0.2h-0.1v0.2h-0.3v3.1h-0.7l0,0h-0.2v7.9h-0.1v0.9H93.5z"
		/>
	<path class="st0" d="M124.5,435.1v-1.5h-0.2v-0.3h0.2v-0.7h-0.2v-0.3h0.2v-0.3h0.2v-0.3h1.4v0.3h0.2v0.2h0.2v0.3h-0.2v0.7h0.2v0.3
		h-0.2v1.5h0.3v0.2h0.2c0,0,0-0.3,0.4-0.8c0.4-0.4,1.3-0.3,1.3-0.3s0.1-0.1,0.1-0.3c0-0.2-0.2-0.6-0.2-0.6s0.4,0,0.4-0.3
		s-0.3-0.8-0.3-1c0-0.2,0.1-0.3,0.3-0.3c0.2,0,0.2,0.2,0.2,0.2s0.1,0,0.2,0v-0.1c0,0,0.6,0,0.9-0.4c0.2-0.3,0.3-0.5,0.4-0.7
		c-0.1,0-0.2-0.1-0.2-0.2c0-0.1,0.1-0.2,0.2-0.2h0.1v-0.2h-0.1v-0.3h0.1v-0.3h0.2v-0.7h-0.3v-0.2h0.3v-0.4h0.2v0.4h0.3v0.2h-0.3v0.8
		h0.2v0.3h0.1v0.3h-0.1v0.2h0.1c0.1,0,0.2,0.1,0.2,0.2c0,0.1-0.1,0.2-0.2,0.2c0.1,0.2,0.2,0.4,0.4,0.7c0.4,0.4,0.9,0.4,0.9,0.4v0.1
		c0.1,0,0.2,0,0.2,0s0.1-0.2,0.2-0.2c0.2,0,0.3,0.2,0.3,0.3c0,0.2-0.3,0.7-0.3,1s0.4,0.3,0.4,0.3s-0.2,0.4-0.2,0.6
		c0,0.2,0.1,0.3,0.1,0.3s0.9-0.2,1.3,0.3c0.4,0.4,0.4,0.8,0.4,0.8h0.2v-0.2h0.3v-1.5h-0.2v-0.3h0.2v-0.7h-0.2v-0.3h0.2v-0.3h0.2
		v-0.3h1.4v0.3h0.2v0.2h0.2v0.3h-0.2v0.7h0.2v0.3h-0.2v1.5h0.3v0.5l0,0v6.2h-12.7v-6.2h-0.3v-0.4H124.5z"/>
	<path class="st0" d="M-14.7,437.7v4.1h13.1v-4.1l-0.9-0.6v-10.8l-0.3,1.7H-4l-0.1-0.6l-0.1,0.6h-1.3l-0.3-1.7v6.7l-2.5-1.7v-0.2
		c0,0,0.1,0,0.1-0.1h0.1l0,0h-0.1c0,0,0-0.1-0.1-0.1v-0.1h-0.1v0.1c0,0-0.1,0-0.1,0.1h-0.1l0,0h0.1c0,0,0,0.1,0.1,0.1v0.2l-2.4,1.7
		v-6.7l-0.3,1.7h-1.3l-0.1-0.6l-0.1,0.6H-14l-0.3-1.7v10.8L-14.7,437.7z M-8.2,431.1L-8.2,431.1L-8.2,431.1L-8.2,431.1z M-8.2,431.2
		C-8.2,431.2-8.2,431.1-8.2,431.2L-8.2,431.2L-8.2,431.2z M-12.1,430.1h-0.4c0,0,0,0,0-0.3s0.1-0.3,0.1-0.3s0.1,0,0.1,0.3
		C-12.1,430.1-12.1,430.1-12.1,430.1z M-8.1,431.1L-8.1,431.1L-8.1,431.1L-8.1,431.1z M-8.1,431.2L-8.1,431.2L-8.1,431.2
		C-8.1,431.1-8.1,431.2-8.1,431.2z M-3.9,430.1h-0.4c0,0,0,0,0-0.3s0.1-0.3,0.1-0.3s0.1,0,0.1,0.3C-3.9,430.1-3.9,430.1-3.9,430.1z"
		/>
	<polygon class="st0" points="-2.8,440 -3,440 -1.7,438.5 -1.7,437.4 -0.5,435.4 -0.3,435.4 -0.3,434.4 -0.4,434.4 -0.4,434 
		-0.3,434 -0.3,433.8 -0.2,433.8 -0.2,434 -0.1,434 -0.1,433.8 0,433.8 0,434 0.1,434 0.1,433.8 0.2,433.8 0.2,434 0.3,434 
		0.3,434.4 0.2,434.4 0.2,435.4 2.9,435.4 4,437.4 4,441.6 4.2,441.6 4.2,441.8 -3,441.8 -3,441.6 -2.8,441.6 	"/>
	<path class="st0" d="M18.9,441.4v-0.6h0.3v-2.1l2.2,0.4l-3.3-3l-5.1,2.6h0.5v2.1h0.3v0.6c-0.2,0.1-0.4,0.2-0.6,0.3h6.2
		C19.3,441.6,19.1,441.5,18.9,441.4z"/>
	<polygon class="st0" points="71.7,439.1 71.9,439.1 71.9,438.4 72.3,438.4 71.2,437 71.5,437 69,433.4 66.4,437 66.7,437 
		65.6,438.4 66,438.4 66,439.1 66.1,439.1 66.1,441.5 65.8,441.5 65.8,441.8 72,441.8 72,441.5 71.7,441.5 	"/>
	<path class="st0" d="M35.7,439.6H36v0.2h-0.2v2h-3.2v-2h-0.2v-0.2h0.2v-1.8h-0.7l2-2.4v-0.6h0v-0.1H34v0.1h0v-0.1h0.1v0.1h0v-0.1
		h0.1v0.1h0v0.6l2,2.4h-0.7L35.7,439.6L35.7,439.6z M34.3,436.8c0-0.3-0.1-0.3-0.1-0.3s-0.1,0-0.1,0.3s0,0.3,0,0.3h0.2
		C34.3,437,34.3,437,34.3,436.8z"/>
	<path class="st0" d="M8.3,438.4v3.3H3.3v-3.3l1.2-0.4v-0.2h0.1v-0.4h0.2c0-0.5,0.4-0.8,0.9-0.8c0.5,0,0.9,0.2,0.9,0.8h0.2v0.4H7
		v0.2L8.3,438.4z"/>
	<polygon class="st0" points="84.8,440 84.8,439.6 82.8,438.3 82.8,435 77.7,436.6 77.7,437 77.5,437 77.5,437.3 77.7,437.3 
		77.7,442.2 77.3,442.2 77.3,442.4 84.8,442.4 84.8,442.2 84.6,442.2 84.6,440 	"/>
	<polygon class="st0" points="16.4,437.2 13.1,437.6 13.2,434.5 12.9,434.5 12.9,431.2 11.6,425.9 11.6,425.3 11.7,425.3 
		11.7,425.3 11.6,425.3 11.6,425.2 11.5,425.2 11.5,425.3 11.5,425.3 11.5,425.3 11.5,425.3 11.5,425.9 10.3,431.2 10.3,434.5 
		9.9,434.5 9.1,437.2 6.7,437.2 6.7,441.8 16.4,441.8 	"/>
	<polygon class="st0" points="77.2,424.8 77.1,424.8 77.1,420.1 76.9,420.1 76.9,415.6 76.7,415.6 76.7,411.1 76.1,410.9 
		73.6,410.9 72.9,411.1 72.9,415.6 72.7,415.6 72.7,420.1 72.5,420.1 72.5,424.8 72.4,424.8 72.4,429.5 72.3,429.5 72.3,441.8 
		77.3,441.8 77.3,429.5 77.2,429.5 	"/>
	<path class="st0" d="M30.4,438.5v-4.7h-0.1v0.2h-0.1v-0.2H30v0.2h0l-0.5-1.3l-0.5,1.3h0v-0.2h-0.1v0.2h-0.1v-0.2h-0.1v2.5h-0.1V436
		h-0.1v0.2H28V436h-0.1v0.2h-0.1V436h-0.1v0.2h-0.5V436H27v0.2h-0.1V436h-0.2v0.2h-0.1v-2.4h-0.1v0.2h-0.2v-0.2h-0.1v0.2h0l-0.5-1.3
		l-0.5,1.3h0v-0.2h-0.1v0.2h-0.1v-0.2h-0.1v4.7l-0.7,0.3v3h7.4v-3L30.4,438.5z M25.6,437.2L25.6,437.2l-0.1-0.6h0.1V437.2z
		 M25.6,435L25.6,435l-0.1-0.6h0.1V435z M29.4,437.2L29.4,437.2l-0.1-0.6h0.1V437.2z M29.4,435L29.4,435l-0.1-0.6h0.1V435z"/>
</g>
<g id="statue_of_liberty">
	<path class="st0" d="M1.9,441.8v-0.7h-12.3v-1.7h-3.2v-0.6h-1.8v-0.4h-1.4V436h-0.3v-1.2h-0.3l-0.1-6.7h0.2v-0.9h0.5v-0.7h0.3v-0.7
		h-2.6c0,0-1-1.2-1-6.1c0.3-0.4,0.6-0.6,0.8-1.1c0.1-0.5-0.1-3.1-0.2-4c0.3-0.9,0.5-2.9,0.2-3.9c0,0,1.1-1.7,0.1-3.4l-0.1-0.7
		c0,0,0.5-0.4,0.6-2.3c0.1-0.1,0.2-0.4,0.1-0.6c0,0,0.1-0.3,0.5-0.1c0.3,0.2,0-1.8-0.4-2.3c0,0,0.2-0.9,0.2-1c0,0,0.5-0.7,0.4-3.4
		l0.1,0.1c0,0-0.3,0.4,0.2,0.4c0.5,0,0.2-0.4,0.2-0.4s0.2-0.1,0.1-0.4c0.1-0.1,0.2-0.3,0.2-0.5h-0.1v-0.7c0,0,0.1,0,0.1-0.1
		s-0.1-0.1-0.1-0.1c0.1,0,0.2,0,0.2-0.1s-0.2-0.2-0.2-0.2v-0.1c0,0,0.2,0,0.2-0.2c0-0.1-0.2-0.1-0.2-0.1v-0.3c0,0,0.2,0,0.2-0.1
		s-0.2-0.1-0.2-0.1v-0.1c0,0,0.6-0.1,0.6-0.4c0-0.1-0.1-0.1-0.1-0.1v-0.4c0,0-0.2-0.1-0.5-0.1v-0.2c0,0,0.1,0,0.1-0.1
		c0-0.1-0.1-0.1-0.1-0.1s0.2-0.1,0.2-0.2s-0.1-0.1-0.1-0.3c0-0.1,0.1-0.4,0.1-0.5s-0.2-0.5-0.2-0.7c-0.1,0-0.1,0.2-0.1,0.2
		s-0.1-0.2-0.1-0.2s-0.2,0.1-0.1,0.2c-0.1,0-0.1-0.1-0.1-0.3s-0.2-0.2-0.2-0.2s-0.2,0.1-0.2,0.3c0,0.2,0.1,0.4,0.1,0.6
		s-0.2,0.4-0.2,0.6c0,0.2,0.1,0.4,0.1,0.4s-0.1,0.1-0.1,0.1c0,0.1,0.1,0.1,0.1,0.1v0.2c-0.3,0-0.4,0.1-0.4,0.1v0.5
		c0,0-0.1,0-0.1,0.1c0,0.3,0.6,0.4,0.6,0.4v0.1c0,0-0.2,0.1-0.2,0.1c0,0.1,0.2,0.2,0.2,0.2v0.3c0,0-0.4,0.4-0.5,1.2
		c-0.3,0.9-0.4,1.8-0.4,1.8s-0.5,1.5-0.6,2.3l-0.9,0.1c0,0,0-0.1-0.1-0.1c-0.1-0.1-0.1-0.1-0.1-0.1l1.2-1.3l-1.4,1.1
		c0,0-0.1-0.1-0.1-0.1c-0.1,0-0.2,0-0.2,0l0.5-1.5l-0.8,1.5c0,0-0.1,0-0.3,0c-0.1,0-0.3,0.1-0.3,0.1l-0.3-1.3v1.4c0,0-0.2,0-0.3,0.1
		c-0.1,0.1-0.2,0.1-0.2,0.1l-1.1-0.5l0.9,0.8c0,0-0.1,0.1-0.1,0.1c-0.1,0.1-0.1,0.1-0.1,0.1l-1.4,0.1l1.2,0.2c0,0,0,0.2,0,0.4
		s0,0.4,0,0.4h0.1v0.1c0,0-0.1,0.1-0.2,0.3c-0.1,0.2,0.1,0.4,0.1,0.6c0,0.2-0.2,0.3-0.1,0.4c0,0.1,0.1,0.2,0.1,0.2s-0.3,0.6-0.5,0.7
		c0,0-0.1,0-0.1,0s-0.1,0.1-0.1,0.1s-0.3,0.1-0.7,0.6c-0.4,0.5-0.6,1.6-0.7,1.9c-0.1,0.2-0.5,0.4-0.5,0.4l-0.2-0.4l0.1,0.1l-0.1-0.4
		l-0.5,0.2l-0.7,0.9l0.1,0.3l-0.1,0.1l0.3,0.8c0,0-0.3,0.1-0.3,0.4c0,0.2,0.1,0.4,0.1,0.4s-0.1,0.4,0,0.5c0.1,0.2,0.3,0.4,0.3,0.4
		s0,0.1,0.1,0.4c0.1,0.2,0,1.2,0.3,1.6s0.6,0.7,0.9,0.7s0.7-0.3,0.7-0.3s-0.7,3.1-0.8,5.7c-0.1,0.1-0.2,0.2-0.2,0.4s0.2,0.2,0.2,0.2
		s-0.2,0.6-0.2,0.9s0.2,0.4,0.2,0.4s-0.1,0.8-0.1,1.1c0,0.3,0.2,0.4,0.2,0.4s-0.5,1.5-0.5,1.9c0,0.4,0.1,0.6,0.1,0.6
		s-0.4,1.7-0.9,1.9h-2.8v0.7h0.3v0.7h0.5v0.9h0.2l-0.1,6.6h-0.3v1.2h-0.3v2.4h-0.9v0.4h-1.9v0.6h-0.3l-0.3,2.3H1.9z M-20.5,400.2
		c0-0.1,0.1-0.2,0.1-0.2l0.9-0.3c0,0,0,0.1-0.1,0.2c0,0.1-0.1,0.1-0.1,0.1c-0.1,0.1-0.2,0.2-0.2,0.2h-0.7
		C-20.6,400.4-20.5,400.3-20.5,400.2z M-20.8,401.5c0,0,0.2,0.1,0.3,0.1c0.1-0.1,0-0.5,0-0.5l0.1-0.1v-0.2h0.7c0,0-0.1,0.1-0.1,0.2
		c-0.1,0.1,0,0.3-0.1,0.4c0,0.1-0.1-0.1-0.1,0.1c0,0.1,0.1,0.1,0,0.3s-0.2,0.4-0.3,0.5C-20.5,402-20.9,401.5-20.8,401.5L-20.8,401.5
		z M-20.8,402.7c0.1-0.1,0.1-0.2,0.1-0.4c0-0.1-0.1-0.3-0.1-0.3s0.1,0.1,0.1,0.1c0.1,0.1,0.1,0.1,0.1,0.1s0,0.1,0,0.1
		c0,0.1-0.1,0.1-0.1,0.1c-0.1,0.1-0.1,0.1-0.1,0.3c-0.1,0.1-0.3,0.2-0.3,0.2v-0.1C-21.2,403-20.9,402.8-20.8,402.7z M-23,403.2
		c0.1-0.2,0.1-0.4,0.1-0.4h0.1c0,0,0.1,0.2,0,0.4c0,0.2-0.1,0.4-0.2,0.4c-0.1,0.1-0.2,0-0.2,0S-23.1,403.4-23,403.2z"/>
</g>
</svg>
