<?xml version="1.0" encoding="utf-8"?>
<!-- Generator: Adobe Illustrator 19.0.0, SVG Export Plug-In . SVG Version: 6.00 Build 0)  -->
<svg version="1.1" xmlns="http://www.w3.org/2000/svg" xmlns:xlink="http://www.w3.org/1999/xlink" x="0px" y="0px"
	 viewBox="0 0 363.8 91.5" style="enable-background:new 0 0 363.8 91.5;" xml:space="preserve">
<style type="text/css">
	.st0{fill:#262626;}
</style>
<g id="ground">
</g>
<g id="new_york">
	<polygon class="st0" points="257.3,81.7 257.3,82.4 241.5,82.4 241.5,81.7 242.1,81.7 242.1,80.9 243.1,80.9 243.1,25.2 
		243.6,25.2 244,17.7 244.3,25.2 244.9,25.2 244.9,30.4 253.2,34.8 253.2,35.6 254.7,35.6 254.7,36.1 255.6,36.3 255.6,80.9 
		256.6,80.9 256.6,81.7 	"/>
	<path class="st0" d="M155.9,82.4v-3.9h0.1v-0.4h-0.1v-1.1h0.1v-0.4h-0.1v-0.4h0.7v-0.5h-2.1v-8.2h0.1v-0.3h-4v-3.3h-20.2l0,3.3h-4
		v0.3h0.1v8.2h-2.1v0.5h0.7v0.4h-0.1v0.4h0.1v1.1h-0.1v0.4h0.1v3.9H155.9z M133.7,67L133.7,67v-0.2C133.7,66.9,133.7,66.9,133.7,67z
		 M133.7,67h-0.2H133.7L133.7,67z M133.4,67L133.4,67l-0.1-0.1l0.1-0.1l0.1,0.1L133.4,67z M133.3,67h-0.2H133.3L133.3,67z M133.1,67
		v-0.2V67L133.1,67z M133.1,67L133.1,67v-0.2V67z M133,67h-0.2H133L133,67z M131.1,67.1h0.2l-0.1,0.1L131.1,67.1z M131.2,67.2
		L131.2,67.2L131.2,67.2L131.2,67.2z M131.4,67.1l0.1,0.1l-0.1,0.1l-0.1-0.1L131.4,67.1z M131.5,67.1h0.2H131.5L131.5,67.1z
		 M131.7,67.1v0.2V67.1L131.7,67.1z M131.8,67.1L131.8,67.1v0.2V67.1z M131.8,67.1h0.2l-0.1,0.1L131.8,67.1z M132.1,67.1l0.1,0.1
		l-0.1,0.1l-0.1-0.1L132.1,67.1z M132.2,67.1h0.2H132.2L132.2,67.1z M132.4,67.1v0.2V67.1L132.4,67.1z M132.5,67.1L132.5,67.1v0.2
		V67.1z M132.5,67.1h0.2l-0.1,0.1L132.5,67.1z M132.8,67L132.8,67l-0.1-0.1l0.1-0.1l0.1,0.1L132.8,67z M132.7,67h-0.2H132.7
		L132.7,67z M132.5,67v-0.2V67L132.5,67z M132.4,67L132.4,67v-0.2V67z M132.3,67h-0.2H132.3L132.3,67z M132.1,67L132.1,67l-0.1-0.1
		l0.1-0.1l0.1,0.1L132.1,67z M132,67h-0.2H132L132,67z M131.8,67v-0.2V67L131.8,67z M131.7,67L131.7,67v-0.2V67z M131.7,67h-0.2
		H131.7L131.7,67z M131.4,67L131.4,67l-0.1-0.1l0.1-0.1l0.1,0.1L131.4,67z M131.3,67h-0.2H131.3L131.3,67z M131.1,67v-0.2V67
		L131.1,67z M131.3,67.3L131.3,67.3L131.3,67.3L131.3,67.3z M131.6,67.3l0.1,0.1h-0.2L131.6,67.3z M131.9,67.3L131.9,67.3
		L131.9,67.3L131.9,67.3z M132.2,67.3l0.1,0.1h-0.2L132.2,67.3z M132.6,67.3L132.6,67.3L132.6,67.3L132.6,67.3z M132.6,67.2l0.1-0.1
		l0.1,0.1l-0.1,0.1L132.6,67.2z M132.8,67.1h0.2H132.8L132.8,67.1z M133.1,67.1v0.2V67.1L133.1,67.1z M133.1,67.1L133.1,67.1v0.2
		V67.1z M133.2,67.1h0.2l-0.1,0.1L133.2,67.1z M133.4,67.1l0.1,0.1l-0.1,0.1l-0.1-0.1L133.4,67.1z M133.5,67.1h0.2H133.5L133.5,67.1
		z M133.7,67.1c0,0.1,0,0.1,0,0.2V67.1L133.7,67.1z M133.8,66.8L133.8,66.8V67V66.8z M133.8,66.8h0.2H133.8L133.8,66.8z M133.6,66.9
		L133.6,66.9L133.6,66.9L133.6,66.9z M133.3,66.8L133.3,66.8L133.3,66.8L133.3,66.8z M132.9,66.9L132.9,66.9L132.9,66.9L132.9,66.9z
		 M132.6,66.8L132.6,66.8L132.6,66.8L132.6,66.8z M132.3,66.9L132.3,66.9L132.3,66.9L132.3,66.9z M131.9,66.8L131.9,66.8L131.9,66.8
		L131.9,66.8z M131.6,66.9L131.6,66.9L131.6,66.9L131.6,66.9z M131.2,66.8L131.2,66.8L131.2,66.8L131.2,66.8z M132.9,67.3l0.1,0.1
		h-0.2L132.9,67.3z M133.3,67.3L133.3,67.3L133.3,67.3L133.3,67.3z M133.6,67.3l0.1,0.1h-0.2L133.6,67.3z M133.9,66.9L133.9,66.9
		L133.9,66.9L133.9,66.9z M134.1,67l-0.1-0.1l0.1-0.1l0.1,0.1L134.1,67L134.1,67z M134.2,66.8h0.2H134.2L134.2,66.8z M146.2,67
		l-0.1-0.1l0.1-0.1l0.1,0.1L146.2,67L146.2,67z M145.5,67l-0.1-0.1l0.1-0.1l0.1,0.1L145.5,67L145.5,67z M144.8,67l-0.1-0.1l0.1-0.1
		l0.1,0.1L144.8,67L144.8,67z M144.5,67L144.5,67v-0.2V67z M144.5,66.8L144.5,66.8V67V66.8z M144.6,66.8h0.2H144.6L144.6,66.8z
		 M144.9,66.8h0.2H144.9L144.9,66.8z M145.1,66.8V67V66.8L145.1,66.8z M145.2,66.8L145.2,66.8V67V66.8z M145.2,66.8h0.2H145.2
		L145.2,66.8z M145.6,66.8h0.2H145.6L145.6,66.8z M145.8,66.8V67V66.8L145.8,66.8z M145.9,66.8L145.9,66.8V67V66.8z M145.9,66.8h0.2
		H145.9L145.9,66.8z M146.3,66.8h0.2H146.3L146.3,66.8z M146.5,66.8V67V66.8L146.5,66.8z M146.5,66.6L146.5,66.6v-0.2V66.6z
		 M146.4,66.7h-0.2l0.1-0.1L146.4,66.7z M146.2,66.7l-0.1-0.1l0.1-0.1l0.1,0.1L146.2,66.7z M146.1,66.7h-0.2l0.1-0.1L146.1,66.7z
		 M145.9,66.7v-0.2V66.7L145.9,66.7z M145.8,66.6L145.8,66.6v-0.2V66.6z M145.8,66.7h-0.2l0.1-0.1L145.8,66.7z M145.5,66.7l-0.1-0.1
		l0.1-0.1l0.1,0.1L145.5,66.7z M145.4,66.7h-0.2l0.1-0.1L145.4,66.7z M145.2,66.7v-0.2V66.7L145.2,66.7z M145.1,66.6L145.1,66.6
		v-0.2V66.6z M145.1,66.7h-0.2l0.1-0.1L145.1,66.7z M144.8,66.7l-0.1-0.1l0.1-0.1l0.1,0.1L144.8,66.7z M144.8,66.7h-0.2l0.1-0.1
		L144.8,66.7z M144.5,66.7v-0.2V66.7L144.5,66.7z M144.3,66.9L144.3,66.9L144.3,66.9L144.3,66.9z M144.2,67l-0.1-0.1l0.1-0.1
		l0.1,0.1L144.2,67L144.2,67z M144,66.8L144,66.8L144,66.8L144,66.8z M143.8,67L143.8,67v-0.2V67z M143.9,66.8L143.9,66.8V67V66.8z
		 M143.7,66.9L143.7,66.9L143.7,66.9L143.7,66.9z M143.5,67l-0.1-0.1l0.1-0.1l0.1,0.1L143.5,67L143.5,67z M143.3,66.8L143.3,66.8
		L143.3,66.8L143.3,66.8z M142.8,67l-0.1-0.1l0.1-0.1l0.1,0.1L142.8,67L142.8,67z M142.2,67l-0.1-0.1l0.1-0.1l0.1,0.1L142.2,67
		L142.2,67z M141.5,67l-0.1-0.1l0.1-0.1l0.1,0.1L141.5,67L141.5,67z M141.1,67L141.1,67v-0.2V67z M141.2,66.8L141.2,66.8V67V66.8z
		 M141.2,66.8h0.2H141.2L141.2,66.8z M141.6,66.8h0.2H141.6L141.6,66.8z M141.8,66.8V67V66.8L141.8,66.8z M141.9,66.8L141.9,66.8V67
		V66.8z M141.9,66.8h0.2H141.9L141.9,66.8z M142.2,66.8h0.2H142.2L142.2,66.8z M142.5,66.8V67V66.8L142.5,66.8z M142.5,66.8
		L142.5,66.8V67V66.8z M142.6,66.8h0.2H142.6L142.6,66.8z M142.9,66.8h0.2H142.9L142.9,66.8z M143.1,66.8V67V66.8L143.1,66.8z
		 M143.2,66.8L143.2,66.8V67V66.8z M143.1,66.6L143.1,66.6v-0.2V66.6z M143.1,66.7h-0.2l0.1-0.1L143.1,66.7z M142.8,66.7l-0.1-0.1
		l0.1-0.1l0.1,0.1L142.8,66.7z M142.8,66.7h-0.2l0.1-0.1L142.8,66.7z M142.5,66.7v-0.2V66.7L142.5,66.7z M142.5,66.6L142.5,66.6
		v-0.2V66.6z M142.4,66.7h-0.2l0.1-0.1L142.4,66.7z M142.2,66.7l-0.1-0.1l0.1-0.1l0.1,0.1L142.2,66.7z M142.1,66.7h-0.2l0.1-0.1
		L142.1,66.7z M141.9,66.7v-0.2V66.7L141.9,66.7z M141.8,66.6L141.8,66.6v-0.2V66.6z M141.7,66.7h-0.2l0.1-0.1L141.7,66.7z
		 M141.5,66.7l-0.1-0.1l0.1-0.1l0.1,0.1L141.5,66.7z M141.4,66.7h-0.2l0.1-0.1L141.4,66.7z M141.2,66.7v-0.2V66.7L141.2,66.7z
		 M141,66.9L141,66.9L141,66.9L141,66.9z M140.8,67l-0.1-0.1l0.1-0.1l0.1,0.1L140.8,67L140.8,67z M140.6,66.8L140.6,66.8L140.6,66.8
		L140.6,66.8z M140.4,67L140.4,67v-0.2C140.4,66.9,140.4,66.9,140.4,67z M140.5,66.8L140.5,66.8V67V66.8z M140.3,66.9L140.3,66.9
		L140.3,66.9L140.3,66.9z M140.1,67l-0.1-0.1l0.1-0.1l0.1,0.1L140.1,67L140.1,67z M140,66.8L140,66.8L140,66.8L140,66.8z M139.5,67
		l-0.1-0.1l0.1-0.1l0.1,0.1L139.5,67L139.5,67z M138.8,67l-0.1-0.1l0.1-0.1l0.1,0.1L138.8,67L138.8,67z M138.1,67l-0.1-0.1l0.1-0.1
		l0.1,0.1L138.1,67L138.1,67z M137.8,67L137.8,67v-0.2V67z M137.8,66.8L137.8,66.8V67V66.8z M137.9,66.8h0.2H137.9L137.9,66.8z
		 M138.2,66.8h0.2H138.2L138.2,66.8z M138.4,66.8V67V66.8L138.4,66.8z M138.5,66.8L138.5,66.8V67V66.8z M138.5,66.8h0.2H138.5
		L138.5,66.8z M138.9,66.8h0.2H138.9L138.9,66.8z M139.1,66.8V67V66.8L139.1,66.8z M139.2,66.8L139.2,66.8V67V66.8z M139.2,66.8h0.2
		H139.2L139.2,66.8z M139.5,66.8h0.2H139.5L139.5,66.8z M139.8,66.8V67V66.8L139.8,66.8z M139.8,66.8L139.8,66.8V67V66.8z
		 M139.8,66.6L139.8,66.6v-0.2V66.6z M139.7,66.7h-0.2l0.1-0.1L139.7,66.7z M139.5,66.7l-0.1-0.1l0.1-0.1l0.1,0.1L139.5,66.7z
		 M139.4,66.7h-0.2l0.1-0.1L139.4,66.7z M139.2,66.7v-0.2V66.7L139.2,66.7z M139.1,66.6L139.1,66.6v-0.2V66.6z M139.1,66.7h-0.2
		l0.1-0.1L139.1,66.7z M138.8,66.7l-0.1-0.1l0.1-0.1l0.1,0.1L138.8,66.7z M138.7,66.7h-0.2l0.1-0.1L138.7,66.7z M138.5,66.7v-0.2
		V66.7L138.5,66.7z M138.4,66.6L138.4,66.6v-0.2V66.6z M138.4,66.7h-0.2l0.1-0.1L138.4,66.7z M138.1,66.7l-0.1-0.1l0.1-0.1l0.1,0.1
		L138.1,66.7z M138.1,66.7h-0.2l0.1-0.1L138.1,66.7z M137.8,66.7v-0.2V66.7L137.8,66.7z M137.6,66.9L137.6,66.9L137.6,66.9
		L137.6,66.9z M137.5,67l-0.1-0.1l0.1-0.1l0.1,0.1L137.5,67L137.5,67z M137.3,66.8L137.3,66.8L137.3,66.8L137.3,66.8z M137.1,67
		L137.1,67v-0.2V67z M137.2,66.8L137.2,66.8V67V66.8z M137,66.9L137,66.9L137,66.9L137,66.9z M136.8,67l-0.1-0.1l0.1-0.1l0.1,0.1
		L136.8,67L136.8,67z M136.6,66.8L136.6,66.8L136.6,66.8L136.6,66.8z M136.1,67l-0.1-0.1l0.1-0.1l0.1,0.1L136.1,67L136.1,67z
		 M135.5,67l-0.1-0.1l0.1-0.1l0.1,0.1L135.5,67L135.5,67z M134.8,67l-0.1-0.1l0.1-0.1l0.1,0.1L134.8,67L134.8,67z M134.5,66.8
		L134.5,66.8V67V66.8z M134.5,66.8h0.2H134.5L134.5,66.8z M134.9,66.8h0.2H134.9L134.9,66.8z M135.1,66.8V67V66.8L135.1,66.8z
		 M135.1,66.8L135.1,66.8V67V66.8z M135.2,66.8h0.2H135.2L135.2,66.8z M135.5,66.8h0.2H135.5L135.5,66.8z M135.7,66.8V67V66.8
		L135.7,66.8z M135.8,66.8L135.8,66.8V67V66.8z M135.9,66.8h0.2H135.9L135.9,66.8z M136.2,66.8h0.2H136.2L136.2,66.8z M136.4,66.8
		V67V66.8L136.4,66.8z M136.5,66.8L136.5,66.8V67V66.8z M136.4,66.6L136.4,66.6v-0.2V66.6z M136.4,66.7h-0.2l0.1-0.1L136.4,66.7z
		 M136.1,66.7l-0.1-0.1l0.1-0.1l0.1,0.1L136.1,66.7z M136.1,66.7h-0.2l0.1-0.1L136.1,66.7z M135.8,66.7v-0.2V66.7L135.8,66.7z
		 M135.7,66.6L135.7,66.6v-0.2V66.6z M135.7,66.7h-0.2l0.1-0.1L135.7,66.7z M135.4,66.7l-0.1-0.1l0.1-0.1l0.1,0.1L135.4,66.7z
		 M135.4,66.7h-0.2l0.1-0.1L135.4,66.7z M135.1,66.7v-0.2V66.7L135.1,66.7z M135.1,66.6L135.1,66.6v-0.2V66.6z M135,66.7h-0.2
		l0.1-0.1L135,66.7z M134.8,66.7l-0.1-0.1l0.1-0.1l0.1,0.1L134.8,66.7z M134.7,66.7h-0.2l0.1-0.1L134.7,66.7z M134.5,66.7v-0.2V66.7
		L134.5,66.7z M134.4,66.8V67V66.8L134.4,66.8z M134.6,66.9L134.6,66.9L134.6,66.9L134.6,66.9z M134.9,66.9L134.9,66.9L134.9,66.9
		L134.9,66.9z M135.3,66.9L135.3,66.9L135.3,66.9L135.3,66.9z M135.6,66.9L135.6,66.9L135.6,66.9L135.6,66.9z M135.9,66.9
		L135.9,66.9L135.9,66.9L135.9,66.9z M136.3,66.9L136.3,66.9L136.3,66.9L136.3,66.9z M136.6,66.9L136.6,66.9L136.6,66.9L136.6,66.9z
		 M137,66.9L137,66.9L137,66.9L137,66.9z M137.3,66.9L137.3,66.9L137.3,66.9L137.3,66.9z M137.6,66.9L137.6,66.9L137.6,66.9
		L137.6,66.9z M137.9,66.9L137.9,66.9L137.9,66.9L137.9,66.9z M138.3,66.9L138.3,66.9L138.3,66.9L138.3,66.9z M138.6,66.9
		L138.6,66.9L138.6,66.9L138.6,66.9z M139,66.9L139,66.9L139,66.9L139,66.9z M139.3,66.9L139.3,66.9L139.3,66.9L139.3,66.9z
		 M139.6,66.9L139.6,66.9L139.6,66.9L139.6,66.9z M140,66.9L140,66.9L140,66.9L140,66.9z M140.3,66.9L140.3,66.9L140.3,66.9
		L140.3,66.9z M140.6,66.9L140.6,66.9L140.6,66.9L140.6,66.9z M141,66.9L141,66.9L141,66.9L141,66.9z M141.3,66.9L141.3,66.9
		L141.3,66.9L141.3,66.9z M141.7,66.9L141.7,66.9L141.7,66.9L141.7,66.9z M142,66.9L142,66.9L142,66.9L142,66.9z M142.3,66.9
		L142.3,66.9L142.3,66.9L142.3,66.9z M142.7,66.9L142.7,66.9L142.7,66.9L142.7,66.9z M143,66.9L143,66.9L143,66.9L143,66.9z
		 M143.3,66.9L143.3,66.9L143.3,66.9L143.3,66.9z M143.7,66.9L143.7,66.9L143.7,66.9L143.7,66.9z M144,66.9L144,66.9L144,66.9
		L144,66.9z M144.3,66.9L144.3,66.9L144.3,66.9L144.3,66.9z M144.7,66.9L144.7,66.9L144.7,66.9L144.7,66.9z M145,66.9L145,66.9
		L145,66.9L145,66.9z M145.3,66.9L145.3,66.9L145.3,66.9L145.3,66.9z M145.7,66.9L145.7,66.9L145.7,66.9L145.7,66.9z M146,66.9
		L146,66.9L146,66.9L146,66.9z M146.4,66.9L146.4,66.9L146.4,66.9L146.4,66.9z M146.5,66.8L146.5,66.8V67V66.8z M146.6,66.8h0.2
		H146.6L146.6,66.8z M147.5,67.3l-0.1-0.1l0.1-0.1l0.1,0.1L147.5,67.3z M149.8,67L149.8,67v-0.2V67z M149.8,67h-0.2H149.8L149.8,67z
		 M149.5,67L149.5,67l-0.1-0.1l0.1-0.1l0.1,0.1L149.5,67z M149.5,67h-0.2H149.5L149.5,67z M149.2,67v-0.2V67L149.2,67z M149.2,67
		L149.2,67v-0.2V67z M149.1,67H149H149.1L149.1,67z M148.9,67L148.9,67l-0.1-0.1l0.1-0.1l0.1,0.1L148.9,67z M148.8,67h-0.2H148.8
		L148.8,67z M148.6,67v-0.2V67L148.6,67z M148.5,67L148.5,67v-0.2V67z M148.4,67h-0.2H148.4L148.4,67z M148.2,67L148.2,67l-0.1-0.1
		l0.1-0.1l0.1,0.1L148.2,67z M148.1,67h-0.2H148.1L148.1,67z M147.9,67v-0.2V67L147.9,67z M147.9,67.1L147.9,67.1v0.2V67.1z
		 M147.9,67.1h0.2l-0.1,0.1L147.9,67.1z M148.2,67.1l0.1,0.1l-0.1,0.1l-0.1-0.1L148.2,67.1z M148.3,67.1h0.2H148.3L148.3,67.1z
		 M148.5,67.1v0.2V67.1L148.5,67.1z M148.6,67.1L148.6,67.1v0.2V67.1z M148.6,67.1h0.2l-0.1,0.1L148.6,67.1z M148.9,67.1l0.1,0.1
		l-0.1,0.1l-0.1-0.1L148.9,67.1z M148.9,67.1h0.2H148.9L148.9,67.1z M149.2,67.1v0.2V67.1L149.2,67.1z M149.2,67.1L149.2,67.1v0.2
		V67.1z M149.3,67.1h0.2l-0.1,0.1L149.3,67.1z M149.5,67.1l0.1,0.1l-0.1,0.1l-0.1-0.1L149.5,67.1z M149.6,67.1h0.2H149.6L149.6,67.1
		z M149.8,67.1v0.2V67.1L149.8,67.1z M149.7,66.9L149.7,66.9L149.7,66.9L149.7,66.9z M149.4,66.8L149.4,66.8L149.4,66.8L149.4,66.8z
		 M149,66.9L149,66.9L149,66.9L149,66.9z M148.7,66.8L148.7,66.8L148.7,66.8L148.7,66.8z M148.4,66.9L148.4,66.9L148.4,66.9
		L148.4,66.9z M148,66.8L148,66.8L148,66.8L148,66.8z M147.8,67L147.8,67v-0.2V67z M147.8,67h-0.2H147.8L147.8,67z M147.5,67
		L147.5,67l-0.1-0.1l0.1-0.1l0.1,0.1L147.5,67z M147.4,67h-0.2H147.4L147.4,67z M147.2,67v-0.2V67L147.2,67z M147.1,67L147.1,67
		v-0.2C147.1,66.9,147.1,66.9,147.1,67z M147.2,67.1L147.2,67.1v0.2V67.1z M147.3,67.1h0.2l-0.1,0.1L147.3,67.1z M147.6,67.1h0.2
		H147.6L147.6,67.1z M147.8,67.1v0.2V67.1L147.8,67.1z M148,67.3L148,67.3L148,67.3L148,67.3z M148.4,67.3l0.1,0.1h-0.2L148.4,67.3z
		 M148.7,67.3L148.7,67.3L148.7,67.3L148.7,67.3z M149,67.3l0.1,0.1h-0.2L149,67.3z M149.4,67.3L149.4,67.3L149.4,67.3L149.4,67.3z
		 M149.7,67.3l0.1,0.1h-0.2L149.7,67.3z M149.9,67v-0.2V67L149.9,67z M150,66.9L150,66.9L150,66.9L150,66.9z M149.9,66.8h0.2H149.9
		L149.9,66.8z M150.2,66.7l-0.1-0.1l0.1-0.1l0.1,0.1L150.2,66.7z M150.4,66.6l0.1,0.1h-0.2L150.4,66.6z M150.1,66.7h-0.2l0.1-0.1
		L150.1,66.7z M149.9,66.7v-0.2V66.7L149.9,66.7z M149.8,66.6L149.8,66.6v-0.2V66.6z M149.8,66.7h-0.2l0.1-0.1L149.8,66.7z
		 M149.5,66.7l-0.1-0.1l0.1-0.1l0.1,0.1L149.5,66.7z M149.5,66.7h-0.2l0.1-0.1L149.5,66.7z M149.2,66.7v-0.2V66.7L149.2,66.7z
		 M149.2,66.6L149.2,66.6v-0.2V66.6z M149.1,66.7h-0.2l0.1-0.1L149.1,66.7z M148.9,66.7l-0.1-0.1l0.1-0.1l0.1,0.1L148.9,66.7z
		 M148.8,66.7h-0.2l0.1-0.1L148.8,66.7z M148.6,66.7v-0.2V66.7L148.6,66.7z M148.5,66.6L148.5,66.6v-0.2V66.6z M148.5,66.7h-0.2
		l0.1-0.1L148.5,66.7z M148.2,66.7l-0.1-0.1l0.1-0.1l0.1,0.1L148.2,66.7z M148.1,66.7h-0.2l0.1-0.1L148.1,66.7z M147.9,66.7v-0.2
		V66.7L147.9,66.7z M147.7,66.9L147.7,66.9L147.7,66.9L147.7,66.9z M147.3,66.8L147.3,66.8L147.3,66.8L147.3,66.8z M147,66.9
		L147,66.9L147,66.9L147,66.9z M146.8,66.8l0.1,0.1l-0.1,0.1l0,0l-0.1-0.1L146.8,66.8z M147,66.9L147,66.9L147,66.9L147,66.9z
		 M147.4,67.3L147.4,67.3L147.4,67.3L147.4,67.3z M147.7,67.3l0.1,0.1h-0.2L147.7,67.3z M149.9,67.3v-0.2V67.3L149.9,67.3z
		 M150,67.3L150,67.3L150,67.3L150,67.3z M149.9,67.1h0.2l-0.1,0.1L149.9,67.1z M150.2,67L150.2,67l-0.1-0.1l0.1-0.1l0.1,0.1
		L150.2,67z M150.4,66.9L150.4,66.9L150.4,66.9L150.4,66.9z M150.3,66.8h0.2H150.3L150.3,66.8z M150.4,66.5L150.4,66.5
		C150.5,66.5,150.5,66.6,150.4,66.5L150.4,66.5z M150.4,66.5L150.4,66.5C150.4,66.4,150.4,66.4,150.4,66.5L150.4,66.5z M150,66.5
		l-0.1-0.1c0.1,0,0.1,0,0.2,0L150,66.5z M149.7,66.5L149.7,66.5C149.7,66.4,149.7,66.4,149.7,66.5L149.7,66.5z M149.4,66.5l-0.1-0.1
		c0.1,0,0.1,0,0.2,0L149.4,66.5z M149,66.5L149,66.5C149,66.4,149.1,66.4,149,66.5L149,66.5z M148.7,66.5l-0.1-0.1
		c0.1,0,0.1,0,0.2,0L148.7,66.5z M148.4,66.5L148.4,66.5C148.3,66.4,148.4,66.4,148.4,66.5L148.4,66.5z M148,66.5l-0.1-0.1
		c0.1,0,0.1,0,0.2,0L148,66.5z M147.8,66.6L147.8,66.6v-0.2V66.6z M147.8,66.7h-0.2l0.1-0.1L147.8,66.7z M147.5,66.7l-0.1-0.1
		l0.1-0.1l0.1,0.1L147.5,66.7z M147.5,66.7h-0.2l0.1-0.1L147.5,66.7z M147.2,66.7v-0.2V66.7L147.2,66.7z M147.1,66.6L147.1,66.6
		v-0.2C147.1,66.5,147.1,66.6,147.1,66.6z M147.1,66.7h-0.2l0.1-0.1L147.1,66.7z M146.8,66.7l-0.1-0.1l0.1-0.1l0.1,0.1L146.8,66.7z
		 M146.8,66.7h-0.2l0.1-0.1L146.8,66.7z M146.5,66.7v-0.2V66.7L146.5,66.7z M146.3,66.5L146.3,66.5
		C146.3,66.4,146.4,66.4,146.3,66.5L146.3,66.5z M146,66.5l-0.1-0.1c0.1,0,0.1,0,0.2,0L146,66.5z M145.7,66.5L145.7,66.5
		C145.6,66.4,145.7,66.4,145.7,66.5L145.7,66.5z M145.3,66.5l-0.1-0.1c0.1,0,0.1,0,0.2,0L145.3,66.5z M145,66.5L145,66.5
		C145,66.4,145,66.4,145,66.5L145,66.5z M144.7,66.5l-0.1-0.1c0.1,0,0.1,0,0.2,0L144.7,66.5z M144.5,66.6L144.5,66.6v-0.2V66.6z
		 M144.4,66.7h-0.2l0.1-0.1L144.4,66.7z M144.2,66.7l-0.1-0.1l0.1-0.1l0.1,0.1L144.2,66.7z M144.1,66.7h-0.2l0.1-0.1L144.1,66.7z
		 M143.9,66.6v-0.2V66.6L143.9,66.6z M143.8,66.6L143.8,66.6v-0.2V66.6z M143.8,66.7h-0.2l0.1-0.1L143.8,66.7z M143.5,66.7l-0.1-0.1
		l0.1-0.1l0.1,0.1L143.5,66.7z M143.4,66.7h-0.2l0.1-0.1L143.4,66.7z M143.2,66.7v-0.2V66.7L143.2,66.7z M143,66.5L143,66.5
		C143,66.4,143,66.4,143,66.5L143,66.5z M142.7,66.5l-0.1-0.1c0.1,0,0.1,0,0.2,0L142.7,66.5z M142.3,66.5L142.3,66.5
		C142.3,66.4,142.3,66.4,142.3,66.5L142.3,66.5z M142,66.5l-0.1-0.1c0.1,0,0.1,0,0.2,0L142,66.5z M141.6,66.5L141.6,66.5
		C141.6,66.4,141.7,66.4,141.6,66.5L141.6,66.5z M141.3,66.5l-0.1-0.1c0.1,0,0.1,0,0.2,0L141.3,66.5z M141.1,66.6L141.1,66.6v-0.2
		V66.6z M141.1,66.7h-0.2l0.1-0.1L141.1,66.7z M140.8,66.7l-0.1-0.1l0.1-0.1l0.1,0.1L140.8,66.7z M140.7,66.7h-0.2l0.1-0.1
		L140.7,66.7z M140.5,66.7v-0.2V66.7L140.5,66.7z M140.4,66.6L140.4,66.6v-0.2C140.4,66.5,140.4,66.6,140.4,66.6z M140.4,66.7h-0.2
		l0.1-0.1L140.4,66.7z M140.1,66.7l-0.1-0.1l0.1-0.1l0.1,0.1L140.1,66.7z M140.1,66.7h-0.2l0.1-0.1L140.1,66.7z M139.8,66.7v-0.2
		V66.7L139.8,66.7z M139.6,66.5L139.6,66.5C139.6,66.4,139.7,66.4,139.6,66.5L139.6,66.5z M139.3,66.5l-0.1-0.1c0.1,0,0.1,0,0.2,0
		L139.3,66.5z M139,66.5L139,66.5C138.9,66.4,139,66.4,139,66.5L139,66.5z M138.6,66.5l-0.1-0.1c0.1,0,0.1,0,0.2,0L138.6,66.5z
		 M138.3,66.5L138.3,66.5C138.3,66.4,138.3,66.4,138.3,66.5L138.3,66.5z M138,66.5l-0.1-0.1c0.1,0,0.1,0,0.2,0L138,66.5z
		 M137.8,66.6L137.8,66.6v-0.2V66.6z M137.7,66.7h-0.2l0.1-0.1L137.7,66.7z M137.4,66.7l-0.1-0.1l0.1-0.1l0.1,0.1L137.4,66.7z
		 M137.4,66.7h-0.2l0.1-0.1L137.4,66.7z M137.2,66.6v-0.2V66.6L137.2,66.6z M137.1,66.6L137.1,66.6v-0.2V66.6z M137.1,66.7h-0.2
		l0.1-0.1L137.1,66.7z M136.8,66.7l-0.1-0.1l0.1-0.1l0.1,0.1L136.8,66.7z M136.7,66.7h-0.2l0.1-0.1L136.7,66.7z M136.5,66.7v-0.2
		V66.7L136.5,66.7z M136.3,66.5L136.3,66.5C136.2,66.4,136.3,66.4,136.3,66.5L136.3,66.5z M136,66.5l-0.1-0.1c0.1,0,0.1,0,0.2,0
		L136,66.5z M135.6,66.5L135.6,66.5C135.6,66.4,135.6,66.4,135.6,66.5L135.6,66.5z M135.3,66.5l-0.1-0.1c0.1,0,0.1,0,0.2,0
		L135.3,66.5z M134.9,66.5L134.9,66.5C134.9,66.4,135,66.4,134.9,66.5L134.9,66.5z M134.6,66.5l-0.1-0.1c0.1,0,0.1,0,0.2,0
		L134.6,66.5z M134.4,66.6L134.4,66.6v-0.2V66.6z M134.4,66.7h-0.2l0.1-0.1L134.4,66.7z M134.1,66.7l-0.1-0.1l0.1-0.1l0.1,0.1
		L134.1,66.7z M134,66.7h-0.2l0.1-0.1L134,66.7z M133.8,66.7v-0.2V66.7L133.8,66.7z M133.7,66.6L133.7,66.6v-0.2
		C133.7,66.5,133.7,66.6,133.7,66.6z M133.7,66.7h-0.2l0.1-0.1L133.7,66.7z M133.4,66.7l-0.1-0.1l0.1-0.1l0.1,0.1L133.4,66.7z
		 M133.4,66.7h-0.2l0.1-0.1L133.4,66.7z M133.1,66.7v-0.2V66.7L133.1,66.7z M133.1,66.6L133.1,66.6v-0.2V66.6z M133,66.7h-0.2
		l0.1-0.1L133,66.7z M132.8,66.7l-0.1-0.1l0.1-0.1l0.1,0.1L132.8,66.7z M132.7,66.7h-0.2l0.1-0.1L132.7,66.7z M132.5,66.7v-0.2V66.7
		L132.5,66.7z M132.4,66.6L132.4,66.6v-0.2V66.6z M132.4,66.7h-0.2l0.1-0.1L132.4,66.7z M132.1,66.7l-0.1-0.1l0.1-0.1l0.1,0.1
		L132.1,66.7z M132,66.7h-0.2l0.1-0.1L132,66.7z M131.8,66.7v-0.2V66.7L131.8,66.7z M131.7,66.6L131.7,66.6v-0.2V66.6z M131.7,66.7
		h-0.2l0.1-0.1L131.7,66.7z M131.4,66.7l-0.1-0.1l0.1-0.1l0.1,0.1L131.4,66.7z M131.4,66.7h-0.2l0.1-0.1L131.4,66.7z M131.1,66.7
		v-0.2V66.7L131.1,66.7z M131,66.6L131,66.6v-0.2V66.6z M131,66.7h-0.2l0.1-0.1L131,66.7z M131,66.8L131,66.8h-0.2H131z M131,66.8
		V67V66.8L131,66.8z M131,67h-0.2H131L131,67z M131,67.1L131,67.1h-0.2H131z M131,67.1v0.2V67.1L131,67.1z M131,67.4h-0.2l0.1-0.1
		L131,67.4z M133.8,67.1L133.8,67.1v0.2V67.1z M133.8,67.1h0.2l-0.1,0.1L133.8,67.1z M134.3,66.9L134.3,66.9L134.3,66.9L134.3,66.9z
		 M134.5,67.1L134.5,67.1v0.2V67.1z M134.5,67.1h0.2l-0.1,0.1L134.5,67.1z M134.8,67.1l0.1,0.1l-0.1,0.1l-0.1-0.1L134.8,67.1z
		 M134.8,67.1h0.2H134.8L134.8,67.1z M135.1,67.1v0.2V67.1L135.1,67.1z M135.1,67.1L135.1,67.1v0.2V67.1z M135.2,67.1h0.2l-0.1,0.1
		L135.2,67.1z M135.5,67.1l0.1,0.1l-0.1,0.1l-0.1-0.1L135.5,67.1z M135.5,67.1h0.2H135.5L135.5,67.1z M135.7,67.1v0.2V67.1
		L135.7,67.1z M135.8,67.1L135.8,67.1v0.2V67.1z M135.9,67.1h0.2l-0.1,0.1L135.9,67.1z M136.1,67.1l0.1,0.1l-0.1,0.1l-0.1-0.1
		L136.1,67.1z M136.2,67.1h0.2H136.2L136.2,67.1z M136.4,67.1v0.2V67.1L136.4,67.1z M136.5,67.1L136.5,67.1v0.2V67.1z M136.5,67.1
		h0.2l-0.1,0.1L136.5,67.1z M136.8,67.1l0.1,0.1l-0.1,0.1l-0.1-0.1L136.8,67.1z M136.9,67.1h0.2H136.9L136.9,67.1z M137.1,67.1v0.2
		V67.1L137.1,67.1z M137.2,67.1L137.2,67.1v0.2V67.1z M137.2,67.1h0.2l-0.1,0.1L137.2,67.1z M137.5,67.1l0.1,0.1l-0.1,0.1l-0.1-0.1
		L137.5,67.1z M137.5,67.1h0.2H137.5L137.5,67.1z M137.8,67.1v0.2V67.1L137.8,67.1z M137.8,67.1L137.8,67.1v0.2V67.1z M137.9,67.1
		h0.2l-0.1,0.1L137.9,67.1z M138.1,67.1l0.1,0.1l-0.1,0.1l-0.1-0.1L138.1,67.1z M138.2,67.1h0.2H138.2L138.2,67.1z M138.4,67.1v0.2
		V67.1L138.4,67.1z M138.5,67.1L138.5,67.1v0.2V67.1z M138.5,67.1h0.2l-0.1,0.1L138.5,67.1z M138.8,67.1l0.1,0.1l-0.1,0.1l-0.1-0.1
		L138.8,67.1z M138.9,67.1h0.2H138.9L138.9,67.1z M139.1,67.1v0.2V67.1L139.1,67.1z M139.2,67.1L139.2,67.1v0.2V67.1z M139.2,67.1
		h0.2l-0.1,0.1L139.2,67.1z M139.5,67.1l0.1,0.1l-0.1,0.1l-0.1-0.1L139.5,67.1z M139.5,67.1h0.2H139.5L139.5,67.1z M139.8,67.1v0.2
		V67.1L139.8,67.1z M139.8,67.1L139.8,67.1v0.2V67.1z M139.9,67.1h0.2l-0.1,0.1L139.9,67.1z M140.1,67.1l0.1,0.1l-0.1,0.1l-0.1-0.1
		L140.1,67.1z M140.2,67.1h0.2H140.2L140.2,67.1z M140.4,67.1c0,0.1,0,0.1,0,0.2V67.1L140.4,67.1z M140.5,67.1L140.5,67.1v0.2V67.1z
		 M140.5,67.1h0.2l-0.1,0.1L140.5,67.1z M140.8,67.1l0.1,0.1l-0.1,0.1l-0.1-0.1L140.8,67.1z M140.9,67.1h0.2H140.9L140.9,67.1z
		 M141.1,67.1v0.2V67.1L141.1,67.1z M141.2,67.1L141.2,67.1v0.2V67.1z M141.2,67.1h0.2l-0.1,0.1L141.2,67.1z M141.5,67.1l0.1,0.1
		l-0.1,0.1l-0.1-0.1L141.5,67.1z M141.5,67.1h0.2H141.5L141.5,67.1z M141.8,67.1v0.2V67.1L141.8,67.1z M141.9,67.1L141.9,67.1v0.2
		V67.1z M141.9,67.1h0.2l-0.1,0.1L141.9,67.1z M142.2,67.1l0.1,0.1l-0.1,0.1l-0.1-0.1L142.2,67.1z M142.2,67.1h0.2H142.2L142.2,67.1
		z M142.5,67.1v0.2V67.1L142.5,67.1z M142.5,67.1L142.5,67.1v0.2V67.1z M142.6,67.1h0.2l-0.1,0.1L142.6,67.1z M142.8,67.1l0.1,0.1
		l-0.1,0.1l-0.1-0.1L142.8,67.1z M142.9,67.1h0.2H142.9L142.9,67.1z M143.1,67.1v0.2V67.1L143.1,67.1z M143.2,67.1L143.2,67.1v0.2
		V67.1z M143.2,67.1h0.2l-0.1,0.1L143.2,67.1z M143.5,67.1l0.1,0.1l-0.1,0.1l-0.1-0.1L143.5,67.1z M143.6,67.1h0.2H143.6L143.6,67.1
		z M143.8,67.1v0.2V67.1L143.8,67.1z M143.9,67.1L143.9,67.1v0.2V67.1z M143.9,67.1h0.2l-0.1,0.1L143.9,67.1z M144.2,67.1l0.1,0.1
		l-0.1,0.1l-0.1-0.1L144.2,67.1z M144.2,67.1h0.2H144.2L144.2,67.1z M144.5,67.1v0.2V67.1L144.5,67.1z M144.5,67.1L144.5,67.1v0.2
		V67.1z M144.6,67.1h0.2l-0.1,0.1L144.6,67.1z M144.8,67.1l0.1,0.1l-0.1,0.1l-0.1-0.1L144.8,67.1z M144.9,67.1h0.2H144.9L144.9,67.1
		z M145.1,67.1v0.2V67.1L145.1,67.1z M145.2,67.1L145.2,67.1v0.2V67.1z M145.2,67.1h0.2l-0.1,0.1L145.2,67.1z M145.5,67.1l0.1,0.1
		l-0.1,0.1l-0.1-0.1L145.5,67.1z M145.6,67.1h0.2H145.6L145.6,67.1z M145.8,67.1v0.2V67.1L145.8,67.1z M145.9,67.1L145.9,67.1v0.2
		V67.1z M145.9,67.1h0.2l-0.1,0.1L145.9,67.1z M146.2,67.1l0.1,0.1l-0.1,0.1l-0.1-0.1L146.2,67.1z M146.2,67.1h0.2H146.2L146.2,67.1
		z M146.5,67.1v0.2V67.1L146.5,67.1z M146.7,66.9L146.7,66.9L146.7,66.9L146.7,66.9z M147.1,67.1L147.1,67.1h-0.2H147.1z
		 M147.1,67.1c0,0.1,0,0.1,0,0.2V67.1L147.1,67.1z M150.1,67.2l0.1-0.1l0.1,0.1l-0.1,0.1L150.1,67.2z M150.3,67.1h0.2H150.3
		L150.3,67.1z M150.5,67.1c0,0.1,0,0.1,0,0.2V67.1L150.5,67.1z M150.4,66.9L150.4,66.9C150.5,66.9,150.5,66.9,150.4,66.9L150.4,66.9
		z M147.7,66.5L147.7,66.5C147.6,66.4,147.7,66.4,147.7,66.5L147.7,66.5z M147.4,66.5l-0.1-0.1c0,0,0.1,0,0.2,0L147.4,66.5z
		 M147,66.5l-0.1-0.1C147,66.4,147.1,66.4,147,66.5L147,66.5z M146.7,66.5l-0.1-0.1c0.1,0,0.1,0,0.2,0L146.7,66.5z M144.3,66.5
		L144.3,66.5C144.3,66.4,144.3,66.4,144.3,66.5L144.3,66.5z M144,66.5l-0.1-0.1c0,0,0.1,0,0.2,0L144,66.5z M143.7,66.5L143.7,66.5
		C143.6,66.4,143.7,66.4,143.7,66.5L143.7,66.5z M143.3,66.5l-0.1-0.1c0.1,0,0.1,0,0.2,0L143.3,66.5z M141,66.5L141,66.5
		C140.9,66.4,141,66.4,141,66.5L141,66.5z M140.7,66.5l-0.1-0.1c0,0,0.1,0,0.2,0L140.7,66.5z M140.3,66.5L140.3,66.5
		C140.3,66.4,140.4,66.4,140.3,66.5L140.3,66.5z M140,66.5l-0.1-0.1c0.1,0,0.1,0,0.2,0L140,66.5z M137.6,66.5L137.6,66.5
		C137.6,66.4,137.6,66.4,137.6,66.5L137.6,66.5z M137.3,66.5l-0.1-0.1c0,0,0.1,0,0.2,0L137.3,66.5z M137,66.5L137,66.5
		C136.9,66.4,137,66.4,137,66.5L137,66.5z M136.6,66.5l-0.1-0.1c0.1,0,0.1,0,0.2,0L136.6,66.5z M134.3,66.5L134.3,66.5
		C134.2,66.4,134.3,66.4,134.3,66.5L134.3,66.5z M133.9,66.5l-0.1-0.1c0,0,0.1,0,0.2,0L133.9,66.5z M133.6,66.5L133.6,66.5
		C133.6,66.4,133.7,66.4,133.6,66.5L133.6,66.5z M133.3,66.5l-0.1-0.1c0.1,0,0.1,0,0.2,0L133.3,66.5z M132.9,66.5L132.9,66.5
		C132.9,66.4,133,66.4,132.9,66.5L132.9,66.5z M132.6,66.5l-0.1-0.1c0.1,0,0.1,0,0.2,0L132.6,66.5z M132.2,66.5L132.2,66.5
		C132.2,66.4,132.3,66.4,132.2,66.5L132.2,66.5z M131.9,66.5l-0.1-0.1c0.1,0,0.1,0,0.2,0L131.9,66.5z M131.6,66.5L131.6,66.5
		C131.5,66.4,131.6,66.4,131.6,66.5L131.6,66.5z M131.3,66.5l-0.1-0.1c0.1,0,0.1,0,0.2,0L131.3,66.5z M130.9,66.5L130.9,66.5
		C130.9,66.4,130.9,66.4,130.9,66.5L130.9,66.5z M130.7,66.4l0.1,0.1l-0.1,0.1l-0.1-0.1L130.7,66.4z M130.6,66.5l-0.1-0.1
		c0,0,0.1,0,0.2,0L130.6,66.5z M130.7,66.7h-0.2l0.1-0.1L130.7,66.7z M130.7,66.8L130.7,66.8h-0.2H130.7z M130.7,66.8l0.1,0.1
		l-0.1,0.1l0,0l-0.1-0.1L130.7,66.8z M130.7,67h-0.2H130.7L130.7,67z M130.7,67.1l-0.1,0.1l-0.1-0.1H130.7z M130.7,67.1l0.1,0.1
		l-0.1,0.1l-0.1-0.1L130.7,67.1z M133.9,67.3L133.9,67.3L133.9,67.3L133.9,67.3z M134.1,67.3l-0.1-0.1l0.1-0.1l0.1,0.1L134.1,67.3z
		 M134.2,67.1h0.2H134.2L134.2,67.1z M134.4,67.1v0.2V67.1L134.4,67.1z M134.6,67.3L134.6,67.3L134.6,67.3L134.6,67.3z M134.9,67.3
		l0.1,0.1h-0.2L134.9,67.3z M135.3,67.3L135.3,67.3L135.3,67.3L135.3,67.3z M135.6,67.3l0.1,0.1h-0.2L135.6,67.3z M136,67.3
		L136,67.3L136,67.3L136,67.3z M136.3,67.3l0.1,0.1h-0.2L136.3,67.3z M136.6,67.3L136.6,67.3L136.6,67.3L136.6,67.3z M137,67.3
		l0.1,0.1h-0.2L137,67.3z M137.3,67.3L137.3,67.3L137.3,67.3L137.3,67.3z M137.6,67.3l0.1,0.1h-0.2L137.6,67.3z M138,67.3L138,67.3
		L138,67.3L138,67.3z M138.3,67.3l0.1,0.1h-0.2L138.3,67.3z M138.6,67.3L138.6,67.3L138.6,67.3L138.6,67.3z M139,67.3l0.1,0.1h-0.2
		L139,67.3z M139.3,67.3L139.3,67.3L139.3,67.3L139.3,67.3z M139.6,67.3l0.1,0.1h-0.2L139.6,67.3z M140,67.3L140,67.3L140,67.3
		L140,67.3z M140.3,67.3l0.1,0.1h-0.2L140.3,67.3z M140.7,67.3L140.7,67.3L140.7,67.3L140.7,67.3z M141,67.3l0.1,0.1h-0.2L141,67.3z
		 M141.3,67.3L141.3,67.3L141.3,67.3L141.3,67.3z M141.6,67.3l0.1,0.1h-0.2L141.6,67.3z M142,67.3L142,67.3l-0.1,0.1L142,67.3z
		 M142.3,67.3l0.1,0.1h-0.2L142.3,67.3z M142.7,67.3L142.7,67.3L142.7,67.3L142.7,67.3z M143,67.3l0.1,0.1h-0.2L143,67.3z
		 M143.3,67.3L143.3,67.3L143.3,67.3L143.3,67.3z M143.7,67.3l0.1,0.1h-0.2L143.7,67.3z M144,67.3L144,67.3L144,67.3L144,67.3z
		 M144.3,67.3l0.1,0.1h-0.2L144.3,67.3z M144.7,67.3L144.7,67.3L144.7,67.3L144.7,67.3z M145,67.3l0.1,0.1h-0.2L145,67.3z
		 M145.3,67.3L145.3,67.3L145.3,67.3L145.3,67.3z M145.7,67.3l0.1,0.1h-0.2L145.7,67.3z M146,67.3L146,67.3L146,67.3L146,67.3z
		 M146.3,67.3l0.1,0.1h-0.2L146.3,67.3z M146.5,67.1L146.5,67.1v0.2V67.1z M146.6,67.1h0.2l-0.1,0.1L146.6,67.1z M146.9,67.1
		l0.1,0.1l-0.1,0.1l-0.1-0.1L146.9,67.1z M147,67.3l0.1,0.1h-0.2L147,67.3z M150.4,67.3l0.1,0.1h-0.2L150.4,67.3z M130.5,66.6
		L130.5,66.6C130.4,66.6,130.4,66.5,130.5,66.6L130.5,66.6z M130.5,66.9L130.5,66.9C130.4,66.9,130.4,66.9,130.5,66.9L130.5,66.9z
		 M130.5,67.2L130.5,67.2C130.4,67.3,130.4,67.2,130.5,67.2L130.5,67.2z M130.6,67.3L130.6,67.3L130.6,67.3L130.6,67.3z M134.3,67.3
		l0.1,0.1h-0.2L134.3,67.3z M146.7,67.3L146.7,67.3L146.7,67.3L146.7,67.3z"/>
	<path class="st0" d="M83.9,69.1v13.3h13.5V69.1H96V63h-0.3v-0.7h-2.6v-0.6h0.7v-1.6h-6.2v1.6h0.7v0.6h-2.6V63h-0.3v2.6l-0.6,0.3
		v0.5h0.6v2.7H83.9z M92.5,62.3H89v-0.6h3.5V62.3z"/>
	<path class="st0" d="M352.7,80.6V72l-0.2-0.1V71h-0.1v-0.4h-0.1v-0.2h-0.1l-0.1-0.8h-0.1l-0.1,0.8h-0.1v0.2h-0.1V71h-0.1v-1.8
		c0,0-0.7,0-1-0.3c-0.6-0.6-0.4-1.1-0.4-1.1H350v-0.4h-0.1v-0.2h-0.1l-0.1-0.8h-0.1l-0.1,0.8h-0.1v0.2h-0.1v0.4h-0.1v-1.1
		c0,0-0.4,0-0.8-0.3c-0.3-0.3-0.4-0.6-0.4-0.6h-0.3v-1.2h0.4v-0.2h-0.4v-0.5h-0.2v0.5h-0.4v0.2h0.4v1.2h-0.4c0,0,0,0.3-0.4,0.6
		c-0.3,0.3-0.8,0.3-0.8,0.3v1.1H346v-0.4h-0.1v-0.2h-0.1l-0.1-0.8h-0.1l-0.1,0.8h-0.1v0.2h-0.1v0.4h-0.2c0,0,0.2,0.6-0.4,1.1
		c-0.3,0.3-1,0.3-1,0.3V71h-0.1v-0.4h-0.1v-0.2h-0.1l-0.1-0.8h-0.1l-0.1,0.8h-0.1v0.2h-0.1V71h-0.1v0.9l-0.2,0.1v8.6h-0.9v1.8h11.7
		v-1.8H352.7z"/>
	<path class="st0" d="M294.9,74.9v7.6h16.8v-7.6h-1.4v-5.4h-1V51.2H309v-9.3h-1.6v1.3h-0.5V43h-2.5v-0.7h0V43h-1v-0.5h-0.1V43h-2.6
		v-0.5c0.2,0,0.3-0.1,0.3-0.2c0-0.1-0.1-0.1-0.3-0.2v-0.6c0,0,0.1,0,0.1-0.1c0,0,0,0-0.1-0.1v-0.7c0,0,0,0,0,0
		c0-0.1-0.2-0.1-0.5-0.1c-0.2,0-0.5,0.1-0.5,0.1c0,0,0,0,0,0v0.7c-0.1,0-0.1,0-0.1,0.1c0,0,0,0,0.1,0.1v0.6c-0.2,0-0.3,0.1-0.3,0.2
		c0,0.1,0.1,0.1,0.3,0.2V43h-0.1v0.1h-0.5v-1.3h-1.6v9.3h-0.3v18.3h-1v5.4H294.9z M300.1,42.2c0-0.1,0-0.3,0-0.5c0,0,0,0,0,0
		L300.1,42.2C300.1,42.2,300.1,42.2,300.1,42.2z M299.9,41.4C299.9,41.4,299.8,41.4,299.9,41.4c-0.1-0.3-0.1-0.5-0.1-0.6
		c0,0,0,0,0.1,0V41.4z M299.9,42.2C299.9,42.2,299.8,42.2,299.9,42.2c-0.1-0.2-0.1-0.4-0.1-0.6c0,0,0,0,0.1,0V42.2z M299.9,43
		L299.9,43c-0.1-0.2-0.1-0.3-0.1-0.5c0,0,0,0,0.1,0V43z M299.9,41.4C299.9,41.4,299.9,41.4,299.9,41.4c0-0.3,0-0.5,0-0.6
		c0,0,0,0,0,0V41.4z M299.9,42.2C299.9,42.2,299.9,42.2,299.9,42.2c0-0.2,0-0.4,0-0.6c0,0,0,0,0,0V42.2z M300,41.4
		C300,41.4,300,41.4,300,41.4c0-0.2,0-0.4,0-0.6c0,0,0,0,0,0V41.4z M300,42.2C300,42.2,300,42.2,300,42.2c0-0.1,0-0.3,0-0.6
		c0,0,0,0,0,0V42.2z M300,43L300,43c-0.1-0.2-0.1-0.3-0.1-0.5c0,0,0.1,0,0.1,0V43z M300.1,41.4C300.1,41.4,300.1,41.4,300.1,41.4
		c0-0.2,0-0.4,0-0.5c0,0,0,0,0,0V41.4z M300.1,42.2C300.1,42.2,300.1,42.2,300.1,42.2c0-0.2,0-0.4,0-0.5c0,0,0,0,0,0V42.2z
		 M300.2,41.4C300.2,41.4,300.1,41.4,300.2,41.4c-0.1-0.2-0.1-0.4-0.1-0.5c0,0,0.1,0,0.1,0C300.2,41,300.2,41.2,300.2,41.4z
		 M300.2,41.4C300.2,41.4,300.2,41.4,300.2,41.4C300.2,41.4,300.2,41.4,300.2,41.4l0-0.5c0,0,0,0,0,0c0,0,0,0,0,0V41.4z M300.3,41.4
		C300.3,41.4,300.3,41.4,300.3,41.4c-0.1-0.2-0.1-0.4-0.1-0.5c0,0,0.1,0,0.1,0C300.3,41,300.3,41.2,300.3,41.4z M300.3,42.2
		C300.3,42.2,300.3,42.2,300.3,42.2l0-0.5c0,0,0,0,0,0C300.3,41.8,300.3,42,300.3,42.2z M300.4,41.4
		C300.4,41.4,300.4,41.4,300.4,41.4l0-0.5c0,0,0,0,0,0C300.4,40.9,300.4,41.1,300.4,41.4z M300.4,42.2
		C300.4,42.2,300.4,42.2,300.4,42.2l0-0.5c0,0,0,0,0,0C300.4,41.8,300.4,42,300.4,42.2z M300.5,41.4
		C300.5,41.4,300.5,41.4,300.5,41.4l0-0.5c0,0,0,0,0,0C300.5,40.9,300.5,41.1,300.5,41.4z M300.5,42.2
		C300.5,42.2,300.5,42.2,300.5,42.2l0-0.6c0,0,0,0,0,0C300.5,41.8,300.5,42.1,300.5,42.2z M300.5,41.4
		C300.5,41.4,300.5,41.4,300.5,41.4l0-0.6c0,0,0,0,0,0C300.5,40.9,300.5,41.1,300.5,41.4z M300.5,42.2
		C300.5,42.2,300.5,42.2,300.5,42.2l0-0.6c0,0,0,0,0,0C300.5,41.8,300.5,42,300.5,42.2z M300.5,43L300.5,43l-0.1-0.5
		c0,0,0.1,0,0.1,0C300.5,42.7,300.5,42.9,300.5,43z M300.6,41.4C300.6,41.4,300.6,41.4,300.6,41.4l-0.1-0.6c0,0,0,0,0.1,0
		C300.6,40.8,300.6,41.1,300.6,41.4z M300.6,42.2C300.6,42.2,300.6,42.2,300.6,42.2l-0.1-0.6c0,0,0,0,0.1,0
		C300.6,41.8,300.6,42,300.6,42.2z M300.6,43L300.6,43l-0.1-0.5c0,0,0,0,0.1,0C300.6,42.7,300.6,42.9,300.6,43z"/>
	<path class="st0" d="M254.4,82.4L254.4,82.4l-0.4-0.1v-0.1h-0.4v-0.1h-0.4v-0.1h-0.4V82h-0.4v-0.1h-0.4v-0.1h-0.8v-0.1h-0.2v-0.1
		h-0.1l0,0l0,0v-0.1l0,0v-9.7l0,0v-0.1l0,0l0,0h0.1v-0.1h0l0,0h0v0h-0.1v-0.2h0V71l0,0h0.1v-0.1h0.1v-0.1h0v0l0,0h-0.4v-0.2l-0.1,0
		v-0.1h-0.1v-0.1H251v-0.1h0.2V70h-0.1v0h-0.1v-0.1H251v-0.1h0v0c0,0,0,0,0-0.1c0,0-0.1-0.2-0.1-0.2s-0.1,0.1-0.1,0.2c0,0,0,0,0,0.1
		v0h0v0.1h-0.1v0.1h-0.1v0h-0.1v0.1h0.2v0.1h-0.1v0.1h-0.4v0h-0.1v-0.5h0.1v-0.1h-0.1v-1.3h0.1v-0.1h-0.1V68h0.3v-0.1h0v-0.1
		c0,0-0.1,0-0.2-0.1c-0.1-0.1-0.1-0.1-0.1-0.1h0v-0.2h0v-0.1h0v0h-0.2v0h0v-0.1h0.1V67h-0.1v-0.1h0.1v-0.1h0.1v-0.1h0.1l-0.5-0.2h-1
		l-0.5,0.2h0.1v0.1h0.1v0.1h0.1V67h-0.1v0.3h0.1v0.1h0v0h-0.2v0l-1.7,0v-4.1h0v-0.9h0v-0.1h-0.1v-0.2h0v-0.1h-0.1v-0.2h0.1v-0.1
		l-0.1,0v-0.1l0-0.1v-0.1h-1.1v-0.1h-2v-1.5c0,0,0,0,0,0c0,0,0-0.1-0.1-0.1c0,0-0.1,0-0.1,0.1c0,0,0,0,0,0v0.1
		c-0.1,0-0.2,0.1-0.4,0.1c-0.3,0-0.3,0-0.6-0.1v0.5c0.3,0.1,0.3,0.1,0.6,0.1c0.2,0,0.3,0,0.4-0.1v0.8h-2.4V60h0v-0.2h-0.2v-0.2h-0.1
		v0h-0.2v0h-0.5v-0.1h-1.6v0.1h-0.8v0.2h-0.2V60h0v1.3h-4.5v0.1h-1.1v0.1l0,0.1v0.1l-0.1,0v0.1h0.1v0.2h-0.1v0.1h0v0.2h-0.1v0.1h0
		v0.9h0v4.1l-1.7,0v0h-0.2v0h0v-0.1h0V67h0v-0.1h0v-0.1h0.1v-0.1h0.1l-0.5-0.2h-1l-0.5,0.2h0.1v0.1h0.1v0.1h0V67h0v0.3h0v0.1h0v0
		h-0.2v0h0v0.1h0v0.2h0c0,0,0,0.1-0.1,0.1c-0.1,0-0.2,0.1-0.2,0.1v0.1h0V68h0.3v0.3h-0.1v0.1h0.1v1.3h-0.1v0.1h0.1v0.5h-0.1v0h-0.4
		v-0.1h-0.1v-0.1h0.2V70h-0.1v0h-0.1v-0.1h-0.1v-0.1h0v0c0,0,0,0,0-0.1c0,0-0.1-0.2-0.1-0.2s-0.1,0.1-0.1,0.2c0,0,0,0,0,0.1v0h0v0.1
		h-0.1v0.1h-0.1v0h-0.1v0.1h0.2v0.1h-0.1v0.1h-0.1v0.1l-0.1,0v0.2h-0.4l0,0v0h0v0.1h0.1v0.1h0.1l0,0v0.3h0v0.2h-0.1v0h0l0,0h0v0.1
		h0.1l0,0l0,0v0.1l0,0v9.7l0,0v0.1l0,0l0,0h-0.1v0.1h-0.2v0.1h-0.8v0.1h-0.4V82H225v0.1h-0.4v0.1h-0.4v0.1h-0.4v0.1h-0.4v0.1h-0.4
		v0.1h31.5v-0.1H254.4z M250.7,71.6L250.7,71.6L250.7,71.6l0,0.2l0,0v9.7l0,0v0.1l0,0l0,0h-0.1v0.1h-0.1v-0.1h-0.1l0,0l0,0v-0.1l0,0
		v-9.7l0,0v-0.1l0,0l0,0h0.1v-0.1L250.7,71.6L250.7,71.6L250.7,71.6z M227.2,81.7L227.2,81.7L227.2,81.7l0-0.2l0,0v-9.7l0,0v-0.1
		l0,0l0,0h0.1v-0.1h0.1v0.1h0.1l0,0l0,0v0.1l0,0v9.7l0,0v0.1l0,0l0,0h-0.1v0.1L227.2,81.7L227.2,81.7L227.2,81.7z"/>
	<path class="st0" d="M83.7,79.8v-5.3h-1v-1.7h-0.2v-3.4h-1.3c-0.1-0.4-0.2-0.8-0.3-1.3c-0.3-0.3-0.6-0.3-0.6-0.3s-0.3-0.8-0.5-0.9
		c-0.1-0.1-0.5-0.2-0.9-0.2v-0.4h-0.2l0-0.1c0.1,0,0.2,0,0.2,0c0,0-0.1,0-0.2,0l0-0.1c0.1,0,0.2,0,0.2,0c0,0-0.1,0-0.2,0l0-0.1
		c0.1,0,0.2,0,0.2,0s-0.1,0-0.2,0l0-0.1c0.1,0,0.2,0,0.2,0c0,0-0.1,0-0.2,0l0-0.1c0.1,0,0.2,0,0.2,0c0,0-0.1,0-0.2,0l0-0.1
		c0.1,0,0.2,0,0.2,0c0,0-0.1,0-0.2,0l0-0.1c0.1,0,0.2,0,0.2,0c0,0-0.1,0-0.2,0l0-0.1c0.1,0,0.2,0,0.2,0c0,0-0.1,0-0.2,0l0-0.1
		c0.1,0,0.2,0,0.2,0c0,0-0.1,0-0.2,0l-0.1-2.1l-0.1,2.1c-0.1,0-0.2,0-0.2,0c0,0,0.1,0,0.2,0l0,0.1c-0.1,0-0.2,0-0.2,0s0.1,0,0.2,0
		l0,0.1c-0.1,0-0.2,0-0.2,0c0,0,0.1,0,0.2,0l0,0.1c-0.1,0-0.2,0-0.2,0c0,0,0.1,0,0.2,0l0,0.1c-0.1,0-0.2,0-0.2,0c0,0,0.1,0,0.2,0
		l0,0.1c-0.1,0-0.2,0-0.2,0c0,0,0.1,0,0.2,0l0,0.1c-0.1,0-0.2,0-0.2,0c0,0,0.1,0,0.2,0l0,0.1c-0.1,0-0.2,0-0.2,0c0,0,0.1,0,0.2,0
		l0,0.1c-0.1,0-0.2,0-0.2,0c0,0,0.1,0,0.2,0l0,0.1h-0.2v0.3c-0.4,0-0.7,0-0.7,0l-0.1-1.3l-0.2,1.3h-0.7v-1H76v1h-0.3l-0.1-2l-0.2,2
		c0,0-1.2,0.2-1.4,0.3c-0.2,0.1-0.5,0.9-0.5,0.9s-0.3,0.1-0.6,0.3c-0.1,0.4-0.2,0.8-0.3,1.3h-1.3v3.4h-0.3v1.7h-1v5.3h-0.4v2.6h14.3
		v-2.6H83.7z"/>
	<polygon class="st0" points="269.2,72 269.2,64.8 269.9,64.8 269.9,64.3 269.2,64.3 269.2,63.1 269.9,63.1 269.9,62.6 269.2,62.6 
		269.2,61.4 269.9,61.4 269.9,61 269.2,61 269.2,59.7 269.9,59.7 269.9,59.3 269.2,59.3 269.2,58.1 269.9,58.1 269.9,57.6 
		269.2,57.6 269.2,56.4 269.9,56.4 269.9,55.9 269.2,55.9 269.2,54.7 269.9,54.7 269.9,54.2 269.2,54.2 269.2,53 269.9,53 
		269.9,52.6 269.2,52.6 269.2,51.3 269.9,51.3 269.9,50.9 269.2,50.9 269.2,49.7 269.9,49.7 269.9,49.2 269.2,49.2 269.2,47.8 
		268.1,47.8 268.1,47.3 266.7,47.3 266.7,46.8 265.2,46.8 265.2,44.6 265.8,44.6 265.8,43.9 265.2,43.9 265.2,43.4 264.3,43.4 
		264.3,42.7 262.8,42.7 262.8,43.4 262,43.4 262,43.9 261.4,43.9 261.4,44.6 262,44.6 262,46.8 260.4,46.8 260.4,47.3 259.1,47.3 
		259.1,47.8 258,47.8 258,49.2 257.2,49.2 257.2,49.7 258,49.7 258,50.9 257.2,50.9 257.2,51.3 258,51.3 258,52.6 257.2,52.6 
		257.2,53 258,53 258,54.2 257.2,54.2 257.2,54.7 258,54.7 258,55.9 257.2,55.9 257.2,56.4 258,56.4 258,57.6 257.2,57.6 
		257.2,58.1 258,58.1 258,59.3 257.2,59.3 257.2,59.7 258,59.7 258,61 257.2,61 257.2,61.4 258,61.4 258,62.6 257.2,62.6 
		257.2,63.1 258,63.1 258,64.3 257.2,64.3 257.2,64.8 258,64.8 258,72 255.8,72 255.8,82.4 271.3,82.4 271.3,72 	"/>
	<path class="st0" d="M62.7,82.1v-4h-0.8v-0.3l-2.1-1.6v-1.1h-0.2v0.2h-0.3v-0.2h-0.2v0.2h-0.4v-0.2h-0.2v0.2h-0.4v-0.2h-0.2v0.2
		h-0.2v-2.6h0.7L53.2,68l-2.9,2.5v-1.9h-0.1v-0.1h-0.9v0.1h-0.1v2.9l-1.3,1.1h0.7l0,5.5h-0.8v4h-0.5v0.4h15.8v-0.4H62.7z M59.3,75.4
		h0.3v0.8h-0.3V75.4z M58.8,75.4h0.4v0.8h-0.4V75.4z M58.2,75.4h0.4v0.8h-0.4V75.4z M57.8,75.4h0.2v0.8h-0.2V75.4z"/>
	<polygon class="st0" points="27.5,76.1 27.5,76.1 27.5,74.1 27.7,74.1 27.7,73.6 28,73.6 28,74.1 28.2,74.1 28.2,75 29.4,73.1 
		31.2,76.1 31.7,76.1 31.7,79 32.4,79 32.4,78.7 32.5,78.7 32.5,78.6 32.6,77.3 32.6,77.5 32.9,77.5 32.9,77.7 32.6,77.7 32.6,78.6 
		32.6,78.7 32.7,78.7 32.7,79.2 33.1,79.2 33.7,79.4 33.7,81.2 34.1,81.2 34.1,82.4 27,82.4 27,76.1 	"/>
	<polygon class="st0" points="152,82.4 152,80.7 151.5,80.6 151.4,80.6 151.4,80.5 151.3,80.4 151.7,80.2 152,80.2 152,80 
		151.9,79.9 156.7,77.4 156.7,77.3 156.6,77.3 156.6,77.2 156.8,77.2 156.8,75.8 156.6,75.7 156.5,75.7 156.5,75.6 156.4,75.6 
		156.9,75.3 157,75.3 157,75.1 156.9,75.1 159.5,73.6 160.1,73.6 160.1,72.4 160,72.4 160,72.3 159.9,72.2 159.8,72.2 159.8,72.2 
		159.7,72.1 161.5,71.2 162.5,71.7 165.6,69.8 165.6,69.1 165.4,69.1 165.4,69 165.3,68.9 165.2,68.9 165.2,68.9 165.2,68.8 
		167.1,67.8 169,68.8 168.9,68.9 168.9,68.9 168.8,68.9 168.7,69 168.7,69.1 168.6,69.1 168.6,69.8 170.8,71.1 170.8,66.6 
		173.1,65.1 174.1,65.1 175.2,64.4 175.2,63.7 175.1,63.7 175.1,63.6 175,63.5 174.9,63.5 174.9,63.5 174.8,63.4 176.6,62.3 
		178.4,63.4 178.3,63.5 178.3,63.5 178.2,63.5 178.1,63.6 178.1,63.7 178,63.7 178,64.4 178.5,64.7 178.5,64.3 178.4,64.3 
		178.4,64.2 178.3,64.2 178.2,64.2 178.2,64.1 178.2,64.1 179.8,63.1 181.3,63.9 181.5,63.8 181.5,63.1 181.4,63.1 181.4,63.1 
		181.3,63 181.2,63 181.2,62.9 181.1,62.9 183,61.8 184.9,62.9 184.8,62.9 184.8,63 184.7,63 184.7,63.1 184.7,63.1 184.5,63.1 
		184.5,63.8 185.7,64.5 186.3,64.5 189,66 188.9,66.1 188.9,66.3 189.1,66.3 189.6,66.6 189.5,66.6 189.5,66.7 189.3,66.7 
		189.2,66.8 189.2,66.9 188.8,66.9 188.8,74.5 189.1,74.3 190.1,74.3 191.2,73.6 191.2,72.8 191,72.8 191,72.8 191,72.7 190.9,72.7 
		190.9,72.6 190.8,72.6 192.6,71.4 194.4,72.6 194.3,72.6 194.3,72.7 194.2,72.7 194.1,72.8 194.1,72.8 194,72.8 194,75.9 
		195.1,76.7 196.1,76.7 198.3,78.1 198.3,76.3 198.1,76.3 198.1,76.2 198.1,76.2 198,76.2 198,76.1 197.9,76.1 198.3,75.8 
		198.3,74.5 198.1,74.5 198.1,74.4 198.1,74.4 198,74.4 198,74.3 197.9,74.3 199.5,73.3 200.9,74.2 200.9,73.6 200.8,73.6 
		200.8,73.5 200.7,73.4 200.6,73.4 200.6,73.4 200.6,73.3 202.3,72.2 204,73.3 204,73.4 204,73.4 203.9,73.4 203.8,73.5 203.8,73.6 
		203.7,73.6 203.7,73.8 205.4,74.9 205.9,74.9 207.3,75.8 207.8,75.5 209.6,76.6 209.5,76.7 209.5,76.7 209.4,76.7 209.4,76.8 
		209.4,76.9 209.2,76.9 209.2,77.2 210.1,76.6 211.2,76.6 211.2,70.2 211,70.2 211,70.1 211,70.1 210.9,70.1 210.9,70 210.8,69.9 
		212.5,68.8 214.3,69.9 214.2,70 214.2,70.1 214.1,70.1 214.1,70.1 214.1,70.2 213.9,70.2 213.9,71.3 214.9,70.7 216.3,71.6 
		216.2,71.6 216.2,71.6 216.1,71.6 216.1,71.7 216.1,71.7 216,71.7 216,74 216,74 217.8,75.1 217.7,75.2 217.7,75.2 217.6,75.2 
		217.5,75.3 217.5,75.4 217.4,75.4 217.4,76 217.6,76.2 217.9,76.2 217.9,76 217.8,76 217.8,76 217.7,75.9 217.6,75.9 217.6,75.8 
		217.6,75.8 219.1,74.8 220.6,75.8 220.6,75.8 220.6,75.9 220.5,75.9 220.4,76 220.4,76 220.3,76 220.3,76.6 222.5,77.8 222.3,77.9 
		222.3,78 222.6,78 223.1,78.3 223,78.3 223,78.4 222.9,78.4 222.4,78.5 222.4,79.8 222.6,79.8 222.6,79.9 222.5,79.9 222.5,80.8 
		222.6,80.8 222.6,80.9 222.4,80.9 222.4,82.4 	"/>
	<polygon class="st0" points="167,47.8 166.2,47.8 166.2,41.7 166,41.7 166,40.4 164.8,40.4 164.8,39.4 163.5,38.3 163.5,38.2 
		162.7,37.6 162.7,37.4 162.1,36.9 162.1,36.7 161.2,36 161.2,35.2 161.2,36 160.3,36.7 160.3,36.9 159.7,37.4 159.7,37.6 
		158.9,38.2 158.9,38.3 157.6,39.4 157.6,40.4 156.4,40.4 156.4,41.7 156.2,41.7 156.2,47.8 155.4,47.8 155.4,81.5 154.7,81.5 
		154.7,82.4 167.7,82.4 167.7,81.5 167,81.5 	"/>
	<path class="st0" d="M130.5,80.2v-6.5h-1v-1.8h0.7v-8.7h-0.7v-1.6h0.2v-5h-0.1v-2.3h-0.2v-5.9l-4.1,2.1l-4.9,1.1v10h0.2v1.6h-0.7
		v8.7h0.7v1.8h-1v6.5h-0.2v2.3h11.2v-2.3H130.5z M128.1,75.3h-0.2v-1.5h0.2V75.3z M128.1,65.5v1.3h-0.2v-1.3H128.1z M121.9,65.5h0.2
		v1.3h-0.2V65.5z M121.9,73.8h0.2v1.5h-0.2V73.8z"/>
	<path d="M134.5,78.4h0.5v0.3h-0.5v3.8h-6.9v-3.8h-0.5v-0.3h0.5v-3.3h-1.5l4.4-4.4v-1.2h0.1v-0.2h0.2v0.2h0.1v-0.2h0.2v0.2h0.1v-0.2
		h0.2v0.2h0.1v1.2l4.4,4.4h-1.5V78.4z M131.3,73.1c0-0.6-0.3-0.6-0.3-0.6s-0.3,0-0.3,0.6c0,0.6,0,0.6,0,0.6h0.5
		C131.3,73.6,131.3,73.6,131.3,73.1z"/>
</g>
<g id="statue_of_liberty">
</g>
</svg>
