<?xml version="1.0" encoding="utf-8"?>
<!-- Generator: Adobe Illustrator 19.0.0, SVG Export Plug-In . SVG Version: 6.00 Build 0)  -->
<svg version="1.1" id="Layer_1" xmlns="http://www.w3.org/2000/svg" xmlns:xlink="http://www.w3.org/1999/xlink" x="0px" y="0px"
	 viewBox="-123 392.1 166.4 51.4" style="enable-background:new -123 392.1 166.4 51.4;" xml:space="preserve">
<style type="text/css">
	.st0{fill:#BDCCAC;}
</style>
<g id="ground">
</g>
<g id="new_york">
	<polygon class="st0" points="30.7,438.8 30.7,437.1 30.5,437.1 30.5,435.6 30.7,435.6 30.7,435.4 30.5,435.4 30.5,434.5 
		30.7,434.5 30.7,434.3 30.5,434.3 30.5,433.3 30.7,433.3 30.7,433.2 30.5,433.2 30.5,432.2 30.7,432.2 30.7,432.1 30.5,432.1 
		30.5,431.1 30.7,431.1 30.7,431 30.5,431 30.5,430 30.7,430 30.7,429.9 30.5,429.9 30.5,428.9 30.7,428.9 30.7,428.7 30.5,428.7 
		30.5,427.8 30.7,427.8 30.7,427.6 30.5,427.6 30.5,426.7 30.7,426.7 30.7,426.5 30.5,426.5 30.5,425.6 30.7,425.6 30.7,425.4 
		30.5,425.4 30.5,424.4 30.7,424.4 30.7,424.3 30.5,424.3 30.5,423.3 30.7,423.3 30.7,423.2 30.5,423.2 30.5,422.2 30.7,422.2 
		30.7,422.1 30.5,422.1 30.5,421.1 30.7,421.1 30.7,421 30.5,421 30.5,420 30.7,420 30.7,419.8 30.5,419.8 30.5,418.9 30.7,418.9 
		30.7,418.7 30.5,418.7 30.5,417.8 30.7,417.8 30.7,417.6 30.5,417.6 30.5,416.7 30.7,416.7 30.7,416.5 30.5,416.5 30.5,415.6 
		30.7,415.6 30.7,415.4 30.5,415.4 30.5,414.4 30.7,414.4 30.7,414.3 30.5,414.3 30.5,413.3 30.7,413.3 30.7,413.2 30.5,413.2 
		30.5,412.2 30.7,412.2 30.7,412.1 30.5,412.1 30.5,410.4 38.7,410.4 38.7,412.1 38.6,412.1 38.6,412.2 38.7,412.2 38.7,413.2 
		38.6,413.2 38.6,413.3 38.7,413.3 38.7,414.3 38.6,414.3 38.6,414.4 38.7,414.4 38.7,415.4 38.6,415.4 38.6,415.6 38.7,415.6 
		38.7,416.5 38.6,416.5 38.6,416.7 38.7,416.7 38.7,417.6 38.6,417.6 38.6,417.8 38.7,417.8 38.7,418.7 38.6,418.7 38.6,418.9 
		38.7,418.9 38.7,419.8 38.6,419.8 38.6,420 38.7,420 38.7,421 38.6,421 38.6,421.1 38.7,421.1 38.7,422.1 38.6,422.1 38.6,422.2 
		38.7,422.2 38.7,423.2 38.6,423.2 38.6,423.3 38.7,423.3 38.7,424.3 38.6,424.3 38.6,424.4 38.7,424.4 38.7,425.4 38.6,425.4 
		38.6,425.6 38.7,425.6 38.7,426.5 38.6,426.5 38.6,426.7 38.7,426.7 38.7,427.6 38.6,427.6 38.6,427.8 38.7,427.8 38.7,428.7 
		38.6,428.7 38.6,428.9 38.7,428.9 38.7,429.9 38.6,429.9 38.6,430 38.7,430 38.7,431 38.6,431 38.6,431.1 38.7,431.1 38.7,432.1 
		38.6,432.1 38.6,432.2 38.7,432.2 38.7,433.2 38.6,433.2 38.6,433.3 38.7,433.3 38.7,434.3 38.6,434.3 38.6,434.5 38.7,434.5 
		38.7,435.4 38.6,435.4 38.6,435.6 38.7,435.6 38.7,437.1 38.6,437.1 38.6,438.8 43.4,438.8 43.4,442.7 25.8,442.7 25.8,438.8 	"/>
	<polygon class="st0" points="-6.5,427.1 -7,407.1 -7.3,407.1 -7.7,403.5 -8,403.5 -8.4,401.4 -8.7,401.3 -8.9,400.4 -9.4,399.1 
		-9.5,399 -10.2,398 -10.9,397.4 -11,397.6 -10.5,398.1 -10,399.2 -10,399.2 -9.6,400.9 -9.6,401.1 -9.7,401.1 -9.7,400.5 
		-9.8,400.5 -9.8,400.4 -9.9,400.5 -9.9,400.3 -10,400.2 -10.2,400.2 -10.2,400.1 -10.3,400.1 -10.3,398.9 -10.4,398.8 -10.5,398.8 
		-10.5,398.9 -10.6,399.8 -10.7,399.8 -10.9,399.7 -11,399.7 -11,398.9 -11,398.9 -11.1,397.5 -11.2,397.5 -11.2,398.9 -11.2,398.9 
		-11.2,399.7 -11.4,399.6 -11.4,399.6 -11.6,399.6 -11.6,399.5 -11.7,399.4 -11.7,398.9 -11.7,398.9 -11.8,397.5 -11.9,397.5 
		-11.9,398.9 -11.9,398.9 -11.9,399.3 -12.4,399.3 -12.4,398.9 -12.4,398.9 -12.4,397.5 -12.6,397.5 -12.6,398.9 -12.6,398.9 
		-12.6,399.3 -13.1,399.3 -13.1,398.9 -13.1,398.9 -13.1,397.5 -13.3,397.5 -13.3,398.9 -13.3,398.9 -13.3,399.3 -13.8,399.3 
		-13.8,398.9 -13.8,398.9 -13.9,397.5 -14,397.5 -14,398.9 -14,398.9 -14,399.3 -14.5,399.3 -14.5,398.9 -14.5,398.9 -14.5,397.5 
		-14.7,397.5 -14.7,398.9 -14.7,398.9 -14.7,399.4 -14.8,399.5 -14.8,399.6 -15,399.6 -15,399.6 -15.2,399.7 -15.2,398.9 
		-15.2,398.9 -15.2,397.5 -15.4,397.5 -15.4,398.9 -15.4,398.9 -15.4,399.7 -15.5,399.7 -15.7,399.8 -15.9,399.8 -15.9,398.9 
		-16,398.8 -16.1,398.8 -16.1,398.9 -16.2,400.1 -16.2,400.1 -16.2,400.2 -16.4,400.2 -16.5,400.3 -16.5,400.5 -16.6,400.4 
		-16.6,400.5 -16.7,400.5 -16.7,401.1 -16.8,401.1 -16.8,400.9 -16.4,399.2 -16.5,399.2 -15.9,398.1 -15.5,397.6 -15.6,397.4 
		-16.3,398 -16.9,399 -17,399.1 -17.5,400.4 -17.8,401.3 -18,401.4 -18.4,403.5 -18.7,403.5 -19.1,407.1 -19.4,407.1 -19.9,427.1 
		-26.9,427.1 -26.9,442.7 0.5,442.7 0.5,427.1 	"/>
	<path class="st0" d="M-48.5,408.5v34.2h7v-34.2h-0.1v-4.6h-0.1v-3.6h-0.1V397h-0.5v-0.1l0,0v-0.2h-0.6v0.2h-0.2v-0.1h-0.4v0.1h-0.3
		v0.5h-0.7v-0.1l0,0l0,0l0,0l0,0l0,0l0,0c0,0,0,0,0-0.1c0,0,0-0.1-0.1-0.1c0,0-0.1,0-0.1,0.1v0.1l0,0l0,0l0,0h-0.1l0,0l0,0l0,0
		c0,0,0,0,0-0.1c0,0,0-0.1-0.1-0.1c0,0-0.1,0-0.1,0.1v0.1l0,0l0,0l0,0l0,0l0,0l0,0v-0.5h0.3l0,0l0,0l0,0H-45v-0.7h0.3l0,0l0,0l0,0
		h-0.1v-0.4v0.4l0,0v-0.4v0.4h-0.6V396l0,0v0.1l0,0V396l0,0l0,0l0,0l0,0l0,0v0.2l0,0V396c0.1,0,0.1-0.1,0.1-0.1
		c0-0.1-0.1-0.1-0.2-0.1s-0.2,0-0.2,0.1c0,0,0,0,0,0.1l0,0l0,0l0,0l0,0h-0.1l0,0l0,0l0,0l0,0c0-0.1,0.1-0.1,0-0.2c0,0-0.1,0-0.2,0
		c0,0-0.1-0.1-0.2,0c-0.1,0-0.2,0.1-0.2,0.1s0.1,0.1,0.2,0.1l0,0l0,0l0,0l0,0v0.2h-0.2l0,0l0,0l0,0h0.3v0.7h-0.3l0,0l0,0l0,0h0.3
		v0.1h-0.7v0.1c0,0-0.1,0-0.1,0.1c0,0,0,0.1,0.1,0.1v0.1h-1.6l0,0h-0.1v0.1v0.1h0.2v2.7l0,0v3.6h-0.1L-48.5,408.5L-48.5,408.5z
		 M-45.3,396L-45.3,396L-45.3,396L-45.3,396L-45.3,396z M-45.4,396L-45.4,396L-45.4,396L-45.4,396L-45.4,396z M-45.8,395.9v0.2l0,0
		V395.9L-45.8,395.9z M-45.6,395.9L-45.6,395.9L-45.6,395.9L-45.6,395.9l-0.1,0.2h-0.1v-0.2l0,0l0,0
		C-45.7,395.9-45.7,395.9-45.6,395.9L-45.6,395.9L-45.6,395.9L-45.6,395.9z M-45.3,397.4L-45.3,397.4v-0.3l0,0l0,0V397.4z
		 M-45.6,396.9L-45.6,396.9l0.3-0.1v0.1l0,0l0,0v-0.1L-45.6,396.9L-45.6,396.9z M-45.6,396.8v-0.7h0.3v0.7H-45.6z M-45.6,396
		L-45.6,396L-45.6,396L-45.6,396L-45.6,396z M-45.6,395.9L-45.6,395.9L-45.6,395.9L-45.6,395.9L-45.6,395.9z M-45.4,396L-45.4,396
		l-0.1,0.1L-45.4,396L-45.4,396z M-44.9,396.1v0.7h-0.3v-0.7H-44.9z M-44.9,396.9v0.5H-45l0,0h-0.2v-0.5H-44.9z M-45.7,396.9
		L-45.7,396.9L-45.7,396.9L-45.7,396.9L-45.7,396.9z M-45.7,396.1L-45.7,396.1l0.1,0.7h-0.1V396.1z M-45.4,395.8L-45.4,395.8
		L-45.4,395.8L-45.4,395.8L-45.4,395.8L-45.4,395.8L-45.4,395.8z M-45.3,395.8L-45.3,395.8L-45.3,395.8L-45.3,395.8L-45.3,395.8
		L-45.3,395.8z M-45.3,396.1L-45.3,396.1L-45.3,396.1L-45.3,396.1L-45.3,396.1z M-44.8,396.8L-44.8,396.8l-0.1-0.7h0.1V396.8z
		 M-44.8,397.4L-44.8,397.4l-0.1-0.5h0.1V397.4z"/>
	<path class="st0" d="M-109.9,424.4h-0.3v19.1h13.8v-19.1h-0.3v-17.8h-1.5v-2.8h0.2v-4.2c0-0.1-1.2-0.2-3-0.3l-1.6-2.5v-0.2l0,0
		v-2.2h-0.1v2.2l0,0v0.2h-1.1v-0.2l0,0v-2.2h-0.1v2.2l0,0v0.2l-1.6,2.5c-1.8,0-3,0.1-3,0.3v4.2h0.2v2.8h-1.5L-109.9,424.4
		L-109.9,424.4z M-104,397c-0.2,0.4-0.8,1.7-1,2.3c-0.1,0-0.3,0-0.4,0C-105.1,398.6-104.2,397.3-104,397z M-104.2,399.3
		c0.1-0.3,0.2-0.8,0.2-1.2v0.8L-104.2,399.3C-104.1,399.3-104.2,399.3-104.2,399.3z M-103.8,396.8l0.5,0.9l-0.5,0.8l-0.1-0.9v-0.8
		H-103.8z M-103.8,398.7L-103.8,398.7v-0.3C-103.8,398.4-103.8,398.5-103.8,398.7z M-103.8,398.7c0,0.2,0,0.4,0,0.5c0,0,0,0-0.1,0
		L-103.8,398.7L-103.8,398.7z M-103.9,399.3h-0.1l0.1-0.3V399.3z M-103.9,396.9v1c-0.1,0.4-0.2,1.1-0.3,1.4c-0.3,0-0.5,0-0.8,0
		C-104.8,398.7-104.1,397.4-103.9,396.9z M-102.7,396.7L-102.7,396.7l-0.5,1l-0.5-1l0,0H-102.7z M-102.6,398.1
		c0.1,0.4,0.2,0.9,0.2,1.2l0,0l-0.2-0.4V398.1z M-102.5,399.3c-0.1,0-0.1,0-0.2,0V399L-102.5,399.3z M-102.7,399.3
		C-102.8,399.3-102.8,399.3-102.7,399.3c-0.1-0.1,0-0.3,0-0.5l0,0V399.3z M-102.8,398.7c0-0.1,0-0.2,0-0.3V398.7L-102.8,398.7z
		 M-102.8,398.6l-0.5-0.8l0.5-0.9v0.8V398.6z M-102.6,396.9c0.2,0.5,0.8,1.9,1.1,2.4c-0.3,0-0.5,0-0.8,0c-0.1-0.4-0.2-1-0.3-1.4
		V396.9z M-101.1,399.3c-0.1,0-0.3,0-0.4,0c-0.3-0.6-0.9-1.9-1-2.3C-102.3,397.3-101.5,398.6-101.1,399.3z M-103.3,399.3
		c-0.2,0-0.3,0-0.4,0v-0.6l0.5-0.9l0.5,0.8v0.6C-103,399.3-103.1,399.3-103.3,399.3z"/>
	<path class="st0" d="M15.2,438.8H15v3.9h10.1v-3.9h-0.2v-33.5h-0.5v-0.1h-1.9v-0.1h-0.1v-0.3l0,0v-0.2h0.2v-0.3l0,0v-0.2l0,0h-0.9
		V404H22l0,0h0.2v-0.1h-0.1V403h0.1v-0.2l0,0v-0.2l0,0h-0.5v-0.9H22l0,0h0.2v-0.4l0,0v-0.2l0,0H22l0,0h0.1V401
		c0.1,0,0.1,0.1,0.1,0.1c0.1,0,0.1-0.2,0-0.4c-0.1-0.2-0.2-0.4-0.3-0.3c0,0-0.1,0.2,0,0.4c0,0,0,0,0,0.1v0.1l0,0v0.1H21v-0.6h-0.3
		l0,0h-0.4v-0.4l0,0v-0.3l0,0v0.3l0,0v0.4H20l0,0h-0.7v-0.2H19v0.1h-0.1v0.6h-1.2l0,0l0,0v0.3l0,0v0.2h0.2l0,0h0.3v0.9h-0.5l0,0l0,0
		v0.2l0,0v0.2h0.1v0.9h-0.1v0.1h0.2l0,0h0.3v0.1h-0.9l0,0l0,0v0.4l0,0v0.2h0.2v0.2l0,0v0.3h-0.1v0.1h-1.9v0.2h-0.4L15.2,438.8
		L15.2,438.8z M21.6,402.5L21.6,402.5l-0.3,0.1v-0.1C21.3,402.5,21.5,402.5,21.6,402.5z M18.8,402.7v-0.1h0.1L18.8,402.7L18.8,402.7
		z M21.1,402.6L21.1,402.6l0.1,0.1h-0.1V402.6z M18.3,402.7v-0.1h0.1L18.3,402.7L18.3,402.7z M18.5,402.6h0.3v0.1h-0.3V402.6z
		 M18.5,402.5L18.5,402.5c0.1-0.1,0.2-0.1,0.3-0.1v0.1H18.5z M18.8,402.5C18.8,402.5,18.9,402.5,18.8,402.5L18.8,402.5L18.8,402.5
		L18.8,402.5z M21.1,402.5C21.1,402.5,21.2,402.5,21.1,402.5L21.1,402.5L21.1,402.5L21.1,402.5z M21.6,402.6v0.1h-0.3v-0.1H21.6z
		 M21.6,402.6L21.6,402.6l0.1,0.1h-0.1V402.6z M18.1,402.7v-0.1h0.1v0.1H18.1z M18.3,402.6L18.3,402.6v0.1l0,0V402.6z M18.3,402.5
		L18.3,402.5L18.3,402.5L18.3,402.5L18.3,402.5z M18.3,402.5C18.4,402.5,18.4,402.5,18.3,402.5L18.3,402.5L18.3,402.5L18.3,402.5z
		 M18.3,402.4v-0.9h0.6v0.9H18.3z M18.1,401.3L18.1,401.3l0.3-0.1v0.1H18.1z M18.1,401.1L18.1,401.1c0.1-0.1,0.2-0.1,0.3-0.1v0.1
		H18.1z M18.5,401.1c0.1,0,0.2,0,0.3,0v0.1L18.5,401.1L18.5,401.1z M18.8,401.2L18.8,401.2l-0.3,0.1v-0.1H18.8z M18.8,401.2
		L18.8,401.2L18.8,401.2L18.8,401.2L18.8,401.2z M21.1,401.2L21.1,401.2L21.1,401.2L21.1,401.2L21.1,401.2z M21.2,401.2h0.3v0.1
		L21.2,401.2L21.2,401.2z M21.2,401.1L21.2,401.1c0.1-0.1,0.2-0.1,0.3-0.1v0.1H21.2z M21.6,401.1c0.1,0,0.2,0,0.3,0v0.1L21.6,401.1
		L21.6,401.1z M21.9,401.2L21.9,401.2l-0.3,0.1v-0.1H21.9z M21.9,401.2L21.9,401.2L21.9,401.2L21.9,401.2L21.9,401.2z M21.7,401.6
		v0.9h-0.6v-0.9H21.7z M21.7,402.5L21.7,402.5L21.7,402.5L21.7,402.5C21.6,402.5,21.6,402.5,21.7,402.5z M21.7,402.5L21.7,402.5
		L21.7,402.5L21.7,402.5L21.7,402.5z M21.7,402.6v0.1l0,0V402.6L21.7,402.6z M21.8,402.6h0.1v0.1h-0.1V402.6z M17.8,402.7v-0.1h0.3
		v0.1H17.8z M17.8,402.5c0,0,0.1,0,0.3,0v0.1L17.8,402.5L17.8,402.5z M18.2,402.5L18.2,402.5l-0.1,0.1v-0.1
		C18.2,402.5,18.2,402.5,18.2,402.5z M18.3,401.6L18.3,401.6v0.9l0,0V401.6z M17.8,401.3C17.8,401.3,17.8,401.2,17.8,401.3l0.3-0.1
		v0.1H17.8z M17.8,401.1c0,0,0.1,0,0.3,0v0.1L17.8,401.1L17.8,401.1z M18.9,401.1L18.9,401.1L18.9,401.1L18.9,401.1
		C18.8,401.1,18.9,401.1,18.9,401.1z M21.1,401.1C21.1,401.1,21.2,401.1,21.1,401.1L21.1,401.1L21.1,401.1L21.1,401.1z M22,401.1
		L22,401.1L22,401.1L22,401.1L22,401.1z M22.1,401.1c0.1,0,0.1,0,0.2,0c0,0,0,0,0,0.1L22.1,401.1L22.1,401.1L22.1,401.1z
		 M22.3,401.3h-0.1v-0.1L22.3,401.3C22.3,401.2,22.3,401.3,22.3,401.3z M21.7,402.4L21.7,402.4v-0.9l0,0V402.4z M21.8,402.5h0.1v0.1
		L21.8,402.5L21.8,402.5z M21.9,402.5c0.2,0,0.3,0,0.3,0s0,0,0,0.1L21.9,402.5L21.9,402.5z M22.3,402.7H22v-0.1h0.3
		C22.3,402.6,22.3,402.6,22.3,402.7z M17.6,404.8L17.6,404.8v-0.1h0.6v0.4h-0.6V404.8z M22.3,404.2H22v-0.1
		C22.1,404.1,22.2,404.1,22.3,404.2L22.3,404.2z M22.3,404.1c0.2,0,0.3,0,0.3,0s0,0,0,0.1L22.3,404.1L22.3,404.1z M22.3,404.2v0.1
		H22v-0.1H22.3z M18,404.2v0.1h-0.3v-0.1H18z M17.7,404.2L17.7,404.2c0.1-0.1,0.2-0.1,0.3-0.1v0.1H17.7z M18.1,404.2h0.2v0.1h-0.2
		V404.2z M21.8,404.2H22v0.1h-0.2V404.2z M17.4,404.3v-0.1h0.3v0.1H17.4z M17.4,404.1c0,0,0.1,0,0.3,0v0.1L17.4,404.1
		C17.4,404.2,17.4,404.1,17.4,404.1z M18.2,404.1L18.2,404.1l-0.2,0.1v-0.1C18.1,404.1,18.2,404.1,18.2,404.1z M21.8,404.1
		c0.1,0,0.1,0,0.2,0v0.1L21.8,404.1L21.8,404.1z M22.7,404.3h-0.3v-0.1h0.3C22.7,404.3,22.7,404.3,22.7,404.3z M22.4,405.1h-0.6
		v-0.4h0.6v0.1l0,0V405.1z"/>
	<path class="st0" d="M-96.1,429v14.2h7.8V429h-0.2v-0.8h-0.1v-0.9l0,0v-0.1h-1.7l0.3-0.6h0.2l0.5-0.4c0,0,0.1,0,0.2,0
		c0.1,0,0.2-0.1,0.2-0.1V426l0.2-0.2c0,0,0.1-0.1,0.1-0.2s-0.1-0.2-0.2-0.2l0,0l0,0l0,0c-0.4-0.1-1.4-0.4-3.5-0.4
		c-2,0-3.1,0.3-3.5,0.4l0,0l0,0c-0.1,0-0.2,0.1-0.2,0.2s0.1,0.2,0.1,0.2l0.2,0.2c0,0,0,0,0,0.1l0.2,0.1c0.1,0,0.2,0,0.2,0l0.5,0.4
		h0.2l0.3,0.6h-1.4v0.1l0,0v0.9h-0.1v0.8H-96.1z M-92.5,425c-0.1,0-0.1,0-0.2,0l0,0C-92.6,425-92.5,425-92.5,425L-92.5,425z
		 M-92.4,425c0.1,0,0.1,0,0.2,0l0,0C-92.3,425-92.4,425-92.4,425L-92.4,425z M-92.6,425c-0.1,0-0.1,0-0.2,0l0,0
		C-92.8,425-92.7,425-92.6,425L-92.6,425z M-94.3,425.1c0.1,0,0.1,0,0.2,0l0,0C-94.2,425.1-94.3,425.1-94.3,425.1L-94.3,425.1z
		 M-94.3,425.1c-0.1,0-0.1,0-0.2,0l0,0C-94.5,425.1-94.4,425.1-94.3,425.1L-94.3,425.1z M-94.1,425.1c0.1,0,0.1,0,0.2,0l0,0
		C-94,425.1-94.1,425.1-94.1,425.1L-94.1,425.1z M-93.9,425.1c0.1,0,0.1,0,0.2,0l0,0C-93.8,425.1-93.9,425.1-93.9,425.1L-93.9,425.1
		z M-93.8,425c0.1,0,0.1,0,0.2,0l0,0C-93.6,425.1-93.7,425.1-93.8,425L-93.8,425z M-93.6,425c0.1,0,0.1,0,0.2,0l0,0
		C-93.5,425-93.5,425-93.6,425L-93.6,425z M-93.4,425c0.1,0,0.1,0,0.2,0l0,0C-93.3,425-93.3,425-93.4,425L-93.4,425z M-93.2,425
		c0.1,0,0.1,0,0.2,0l0,0C-93.1,425-93.1,425-93.2,425L-93.2,425z M-93,425c0.1,0,0.1,0,0.2,0l0,0C-92.9,425-93,425-93,425L-93,425z
		 M-92.8,426.8v0.2l-0.6-0.3L-92.8,426.8z M-93.7,426.7L-93.7,426.7h-0.2H-93.7z M-93.7,426.8l-0.1,0.2l-0.1-0.1c0-0.1,0-0.2,0-0.2
		C-93.9,426.7-93.8,426.8-93.7,426.8z M-93.9,427l-0.1,0.1C-93.9,427.1-93.9,427.1-93.9,427L-93.9,427z M-93.7,426.9
		c0.2,0.1,0.4,0.3,0.5,0.4h-0.3l-0.3-0.2C-93.8,427-93.7,426.9-93.7,426.9z M-93.6,427.2h-0.3c0,0,0.1-0.1,0.1-0.2
		C-93.7,427.1-93.7,427.2-93.6,427.2z M-94.2,426.7c0.1,0,0.2,0.1,0.3,0.2v0.2C-94.1,427.1-94.2,426.8-94.2,426.7z M-94.2,426.6h0.3
		v0.2L-94.2,426.6z M-94.7,425.2L-94.7,425.2c0.1,0,0.1-0.1,0.2-0.1l0,0C-94.6,425.2-94.6,425.2-94.7,425.2z M-94.7,425.2
		c-0.1,0-0.1,0-0.2,0l0,0C-94.8,425.2-94.8,425.2-94.7,425.2L-94.7,425.2z M-95.1,425.3L-95.1,425.3c0.1,0,0.1-0.1,0.2-0.1l0,0
		C-95,425.2-95,425.3-95.1,425.3z M-95.3,425.3L-95.3,425.3c0.1-0.1,0.1-0.1,0.2-0.1l0,0C-95.2,425.3-95.2,425.3-95.3,425.3z
		 M-95.3,425.3c-0.1,0-0.1,0-0.2,0l0,0C-95.4,425.3-95.3,425.3-95.3,425.3L-95.3,425.3z M-95.6,425.4c0,0,0.1,0,0.2-0.1l0,0
		C-95.6,425.4-95.6,425.4-95.6,425.4L-95.6,425.4L-95.6,425.4z M-91.5,426.8l0.6-0.1l-0.6,0.3V426.8z M-90.4,427.2h-0.3
		c0,0,0.1-0.1,0.2-0.2C-90.5,427.1-90.5,427.2-90.4,427.2z M-90.5,427C-90.5,427-90.4,427-90.5,427c0.1,0,0.1,0.1,0.1,0.1L-90.5,427
		z M-90.8,427.2h-0.3c0.1-0.1,0.3-0.2,0.5-0.4c0,0,0.1,0.1,0.1,0.2L-90.8,427.2z M-90.6,426.8c0.1-0.1,0.1-0.1,0.2-0.1
		c0,0,0,0.1,0,0.2l-0.1,0.1L-90.6,426.8z M-90,425.1L-90,425.1c0.1,0,0.1,0,0.2,0l0,0C-89.9,425.2-89.9,425.1-90,425.1z M-90,425.1
		c-0.1,0-0.1,0-0.2,0l0,0C-90.1,425.1-90.1,425.1-90,425.1L-90,425.1z M-90.2,425.1c-0.1,0-0.1,0-0.2,0l0,0
		C-90.3,425.1-90.3,425.1-90.2,425.1L-90.2,425.1z M-91.5,425L-91.5,425c0.1,0,0.1,0,0.2,0l0,0C-91.4,425-91.4,425-91.5,425z
		 M-91.3,425c0.1,0,0.1,0,0.2,0l0,0C-91.2,425-91.3,425-91.3,425L-91.3,425z M-91.1,425c0.1,0,0.1,0,0.2,0l0,0
		C-91,425-91.1,425-91.1,425L-91.1,425z M-90.9,425c0.1,0,0.1,0,0.2,0l0,0C-90.8,425-90.9,425-90.9,425L-90.9,425z M-90.8,425
		c0.1,0,0.1,0,0.2,0l0,0C-90.6,425.1-90.7,425.1-90.8,425L-90.8,425z M-90.6,425c0.1,0,0.1,0,0.2,0l0,0
		C-90.4,425.1-90.5,425.1-90.6,425L-90.6,425z M-90.6,426.8L-90.6,426.8L-90.6,426.8L-90.6,426.8z M-91.7,425L-91.7,425
		c0.1,0,0.1,0,0.2,0l0,0C-91.6,425-91.6,425-91.7,425z M-91.7,425c-0.1,0-0.1,0-0.2,0l0,0C-91.8,425-91.8,425-91.7,425L-91.7,425z
		 M-91.9,425c-0.1,0-0.1,0-0.2,0l0,0C-92,425-92,425-91.9,425L-91.9,425z M-89.4,425.2L-89.4,425.2c-0.1,0-0.1,0-0.2,0l0,0
		C-89.6,425.2-89.5,425.2-89.4,425.2z M-88.9,425.3L-88.9,425.3c0,0-0.1,0-0.2,0l0,0C-89,425.3-88.9,425.3-88.9,425.3z M-88.9,425.4
		L-88.9,425.4c0.1,0,0.1,0,0.2,0l0,0l0,0C-88.7,425.4-88.8,425.4-88.9,425.4z M-89.2,425.3L-89.2,425.3c0.1,0,0.1,0,0.2,0l0,0
		C-89.1,425.3-89.2,425.3-89.2,425.3z M-89.4,425.2L-89.4,425.2c0.1,0,0.1,0,0.2,0l0,0C-89.3,425.3-89.4,425.2-89.4,425.2z
		 M-89.8,425.2L-89.8,425.2c0.1,0,0.1,0,0.2,0l0,0C-89.7,425.2-89.8,425.2-89.8,425.2z M-90.1,426.6l-0.3,0.2v-0.2H-90.1z
		 M-90.1,426.7c-0.1,0.1-0.2,0.4-0.3,0.5V427C-90.3,426.9-90.2,426.8-90.1,426.7z M-91.5,427.2V427c0.2-0.1,0.7-0.3,0.8-0.3
		c0,0,0,0.1,0.1,0.1l-0.6,0.4H-91.5z M-92.2,425L-92.2,425L-92.2,425L-92.2,425C-92.1,425-92.1,425-92.2,425L-92.2,425
		C-92.1,425-92.1,425-92.2,425z M-92.8,427.2h-0.3l-0.6-0.4c0-0.1,0.1-0.1,0.1-0.1s0.5,0.2,0.8,0.3C-92.8,427-92.8,427.2-92.8,427.2
		z"/>
	<path class="st0" d="M-85.6,442.7v-4.1l1-1.7h2v-1c-0.3,0-0.5-0.1-0.6-0.2v-0.2c0.5,0.3,2.4,0.3,3.3,0.4V435h0.4v-2
		c-0.8,0-2.6-0.1-3.1-0.4v-0.2c0.5,0.3,1.9,0.4,2.7,0.4V432h0.4v-1.9c-0.8,0-2.3-0.1-2.8-0.4v-0.2c0.5,0.3,1.5,0.4,2.4,0.4v-0.8h0.4
		v-1.8c-0.8,0-2.1-0.1-2.6-0.4v-0.2c0.5,0.3,1.4,0.4,2.2,0.4v-0.8h0.4v-1.7c-0.8,0-1.8-0.1-2.3-0.4v-0.3l3,0.4v-0.2h0.5V424h0.3
		v-0.2c-0.3,0-0.4,0-0.4-0.1c0,0,0.1-0.1,0.4-0.1v-0.1c-0.3,0-0.4,0-0.4-0.1c0,0,0.1-0.1,0.4-0.1v-0.1c-0.3,0-0.4,0-0.4-0.1
		c0,0,0.1-0.1,0.4-0.1v-0.1c-0.3,0-0.4,0-0.4-0.1c0,0,0.1-0.1,0.4-0.1v-0.1c-0.3,0-0.4,0-0.4-0.1c0,0,0.1-0.1,0.4-0.1v-0.1
		c-0.3,0-0.4-0.1-0.4-0.1s0.1-0.1,0.4-0.1V422c-0.3,0-0.4,0-0.4-0.1c0,0,0.1-0.1,0.4-0.1v-0.1c-0.3,0-0.4,0-0.4-0.1
		c0,0,0.1-0.1,0.4-0.1v-0.1c-0.3,0-0.4,0-0.4-0.1c0,0,0.1-0.1,0.4-0.1v0.1c-0.3,0-0.4,0-0.4-0.1c0,0,0.1-0.1,0.4-0.1v-2.3
		c-0.1,0-0.1-0.1-0.1-0.2s0.1-0.2,0.2-0.2c0.1,0,0.2,0.1,0.2,0.2s0,0.1-0.1,0.2v2.3c0.3,0,0.4,0,0.4,0.1c0,0-0.1,0.1-0.4,0.1v0.1
		c0.3,0,0.4,0,0.4,0.1c0,0-0.1,0.1-0.4,0.1v0.1c0.3,0,0.4,0,0.4,0.1c0,0-0.1,0.1-0.4,0.1v0.1c0.3,0,0.4,0,0.4,0.1
		c0,0-0.1,0.1-0.4,0.1v0.1c0.3,0,0.4,0,0.4,0.1c0,0-0.1,0.1-0.4,0.1v0.1c0.3,0,0.4,0,0.4,0.1c0,0-0.1,0.1-0.4,0.1v0.1
		c0.3,0,0.4,0,0.4,0.1c0,0-0.1,0.1-0.4,0.1v0.1c0.3,0,0.4,0,0.4,0.1c0,0-0.1,0.1-0.4,0.1v0.1c0.3,0,0.4,0,0.4,0.1
		c0,0-0.1,0.1-0.4,0.1v0.1c0.3,0,0.4,0,0.4,0.1c0,0-0.1,0.1-0.4,0.1v0.2h0.3v0.1h0.6v0.2c0,0,2.1,0.1,3-0.4v0.3
		c-0.5,0.3-1.5,0.4-2.3,0.4v1.7h0.4v0.8c0.8,0,1.7-0.1,2.2-0.4v0.2c-0.5,0.3-1.8,0.4-2.6,0.4v1.8h0.4v0.8c0.9,0,2-0.1,2.4-0.4v0.2
		c-0.5,0.3-2,0.4-2.8,0.4v1.9h0.4v0.8c0.8,0,2.2-0.1,2.7-0.4v0.2c-0.5,0.3-2.3,0.4-3.1,0.4v2h0.4v0.9c0.8,0,2.8-0.1,3.3-0.4v0.2
		c-0.1,0.1-0.3,0.1-0.6,0.2v1h2l1.1,1.7v4.1h-15.6V442.7z"/>
	<path class="st0" d="M-114,436.4v-1.8h-0.4l-2-3.1l-1.5,2.4h-4.4v0.1h0.1v0.7h-0.1v1.8h-0.7v6.3h9.7v-6.3h-0.7V436.4z
		 M-118.1,433.9h0.2l-0.2,0.3V433.9z M-118.6,433.9h0.3v0.4l-0.1,0.2h-0.2V433.9z M-119,433.9h0.3v0.7h-0.3V433.9z M-119.4,433.9
		h0.3v0.7h-0.3V433.9z M-119.9,433.9h0.3v0.7h-0.3V433.9z M-120.3,433.9h0.3v0.7h-0.3V433.9z M-120.8,433.9h0.3v0.7h-0.3V433.9z
		 M-121.2,433.9h0.3v0.7h-0.3V433.9z M-121.6,433.9h0.3v0.7h-0.3V433.9z M-122.1,433.9h0.3v0.7h-0.3V433.9z"/>
	<polygon class="st0" points="-43.7,442.7 -43.7,438.8 -44.1,438.8 -44.1,438.4 -44.5,438.4 -44.5,438.2 -43.7,437.7 -43.7,435.2 
		-44.1,435.2 -44.1,434.8 -44.5,434.8 -44.5,434.6 -43.7,434.1 -43.7,431.5 -44.1,431.5 -44.1,431.2 -44.5,431.2 -44.5,430.9 
		-43.7,430.5 -43.7,427.9 -44.1,427.9 -44.1,427.5 -44.5,427.5 -44.5,427.3 -43.7,426.8 -43.7,424.3 -44.1,424.3 -44.1,423.9 
		-44.5,423.9 -44.5,423.6 -43.7,423.2 -43.7,420.6 -44.1,420.6 -44.1,420.2 -44.5,420.2 -44.5,420 -43.7,419.5 -43.7,417 -41.9,417 
		-41.9,416.6 -40.9,416.6 -40.9,415.5 -40.4,415.5 -40.4,414.6 -40.9,414.6 -40.9,412.4 -40.4,412.4 -40.4,411.5 -37.4,411.5 
		-37.4,411 -37,411 -37,411.5 -34,411.5 -34,412.4 -33.5,412.4 -33.5,414.6 -34,414.6 -34,415.5 -33.5,415.5 -33.5,416.6 
		-32.5,416.6 -32.5,417 -30.7,417 -30.7,419.5 -29.9,420 -29.9,420.2 -30.3,420.2 -30.3,420.6 -30.7,420.6 -30.7,423.2 -29.9,423.6 
		-29.9,423.9 -30.3,423.9 -30.3,424.3 -30.7,424.3 -30.7,426.8 -29.9,427.3 -29.9,427.5 -30.3,427.5 -30.3,427.9 -30.7,427.9 
		-30.7,430.5 -29.9,430.9 -29.9,431.2 -30.3,431.2 -30.3,431.5 -30.7,431.5 -30.7,434.1 -29.9,434.6 -29.9,434.8 -30.3,434.8 
		-30.3,435.2 -30.7,435.2 -30.7,437.7 -29.9,438.2 -29.9,438.4 -30.3,438.4 -30.3,438.8 -30.7,438.8 -30.7,442.7 	"/>
	<path class="st0" d="M17.4,441.1v-1.4h-0.3v-0.8h-0.3c-0.1-0.3-0.2-0.7-0.3-1.2v-0.1h-0.1c-0.1-0.5-0.2-1-0.3-1.5V436l0,0
		c-0.1-0.5-0.2-1-0.3-1.5l0,0v-0.1h-0.1c-0.1-0.5-0.1-1-0.2-1.4h0.1v-0.1h-0.1v-0.1h-0.1l0,0l0,0l0,0c0-0.4-0.1-0.8-0.1-1.1h0.1
		v-0.1h-0.1c0-0.3,0-0.5,0-0.7c0-0.2,0-0.4,0-0.5h0.1v-0.1h-0.1c0-0.4,0-0.8,0-1.2h0.1V429h-0.1c0-0.4,0-0.8,0.1-1.2h0.1v-0.1h-0.1
		c0-0.4,0.1-0.8,0.1-1.2h0.1v-0.1l-0.2-0.1c0-0.4,0.1-0.7,0.2-1H16v-0.8v-0.1h-0.3c-0.1-0.3-0.1-0.7-0.2-1.1v-0.1h-0.1
		c-0.1-0.5-0.2-1-0.3-1.5v-0.1l0,0c-0.1-0.5-0.2-1-0.3-1.5l0,0V420h-0.1c-0.1-0.5-0.1-1-0.2-1.5h0.1v-0.1h-0.1v-0.1h-0.1l0,0l0,0
		l0,0c0-0.4-0.1-0.8-0.1-1.1h0.1v-0.1h-0.1c0-0.3,0-0.5,0-0.7c0-0.2,0-0.4,0-0.5h0.1v-0.1h-0.1c0-0.4,0-0.8,0-1.2h0.1v-0.1h-0.1
		c0-0.4,0-0.8,0.1-1.2h0.1v-0.1h-0.1c0-0.4,0.1-0.8,0.1-1.2h0.1v-0.1l-0.2-0.1c0-0.4,0.1-0.7,0.2-1H15v-0.5v-0.1h-0.3
		c-0.1-0.3-0.1-0.7-0.2-1.1V409h-0.1c-0.1-0.5-0.2-1-0.3-1.5v-0.1l0,0c-0.1-0.5-0.2-1-0.3-1.5l0,0v-0.1h-0.1c-0.1-0.5-0.2-1-0.2-1.4
		h0.1v-0.1h-0.1v-0.1h-0.1l0,0l0,0l0,0c0-0.4-0.1-0.8-0.1-1.1h0.1V403h-0.1c0-0.3,0-0.5,0-0.7c0-0.2,0-0.4,0-0.5h0.1v-0.1h-0.1
		c0-0.4,0-0.8,0-1.2h0.1v-0.1h-0.1c0-0.4,0-0.8,0.1-1.2h0.1v-0.1h-0.1c0-0.4,0.1-0.8,0.1-1.2h0.1v-0.1h-0.2c0.1-0.4,0.1-0.7,0.2-1
		H14v-0.5h-2.9v-0.6h1.7v-1.4h0.3V394h-0.3v-0.5h-0.7v-1H9v-0.4H8.4v0.4H5.3v0.3H4.6v0.5H4.3v0.3h0.3v1.4h1.7v0.6H3.4v0.5h0.4
		c0.1,0.3,0.1,0.7,0.2,1H3.8v0.1h0.1C4,397.6,4,398,4,398.4H3.9v0.1H4c0,0.4,0.1,0.8,0.1,1.2H4v0.1h0.1c0,0.4,0,0.8,0,1.2H4v0.1h0.1
		c0,0.2,0,0.3,0,0.5c0,0.2,0,0.5,0,0.7H4v0.1h0.1c0,0.3-0.1,0.7-0.1,1.1l0,0l0,0l0,0H3.9v0.1H3.8v0.1h0.1c-0.1,0.5-0.1,1-0.2,1.4
		H3.6v0.1l0,0c-0.1,0.5-0.2,1-0.3,1.5l0,0v0.1c-0.1,0.6-0.2,1.1-0.3,1.5H2.9v0.1c-0.1,0.5-0.2,0.8-0.2,1.1H2.4v0.1v0.5h0.4
		c0.1,0.3,0.1,0.7,0.2,1l-0.2,0.1v0.1h0.1c0.1,0.4,0.1,0.8,0.1,1.2H2.9v0.1H3c0,0.4,0.1,0.8,0.1,1.2H3v0.1h0.1c0,0.4,0,0.8,0,1.2H3
		v0.1h0.1c0,0.2,0,0.3,0,0.5s0,0.5,0,0.7H3v0.1h0.1c0,0.3-0.1,0.7-0.1,1.1l0,0l0,0l0,0H2.9v0.1H2.8v0.1h0.1c-0.1,0.5-0.1,1-0.2,1.5
		H2.6v0.1l0,0c-0.1,0.5-0.2,1-0.3,1.5l0,0v0.1c-0.1,0.6-0.2,1.1-0.3,1.5H1.9v0.1c-0.1,0.5-0.2,0.8-0.2,1.1H1.4v0.8v0.5h0.4
		c0.1,0.3,0.1,0.7,0.2,1l-0.2,0.1v0.1h0.1C2,426.6,2,427,2,427.4H1.9v0.1H2c0,0.4,0.1,0.8,0.1,1.2H2v0.1h0.1c0,0.4,0,0.8,0,1.2H2
		v0.1h0.1c0,0.2,0,0.3,0,0.5c0,0.2,0,0.5,0,0.7H2v0.1h0.1c0,0.3-0.1,0.7-0.1,1.1l0,0l0,0l0,0H1.9v0.1H1.8v0.1h0.1
		c-0.1,0.5-0.1,1-0.2,1.4H1.6v0.1l0,0c-0.1,0.5-0.2,1-0.3,1.5l0,0v0.1c-0.1,0.6-0.2,1.1-0.3,1.5H0.9v0.1c-0.1,0.5-0.2,0.9-0.3,1.2
		H0.3v0.8H0v1.4h-0.2v1.9h15.8v-1.9h1.8V441.1z M16.5,438.5l-0.1-0.3c0-0.1-0.1-0.3-0.1-0.4l0,0C16.5,438.1,16.5,438.3,16.5,438.5z
		 M16.4,437.7C16.4,437.8,16.4,437.8,16.4,437.7L16.4,437.7C16.4,437.8,16.4,437.8,16.4,437.7L16.4,437.7z M13.8,399.1
		c0.1,0.1,0.1,0.3,0.1,0.4s0,0.1,0,0.2l-0.2-0.1C13.7,399.5,13.8,399.3,13.8,399.1z M13.6,398.5l0.2,0.1c0,0.1,0,0.2,0,0.3
		C13.7,398.7,13.6,398.6,13.6,398.5z M14.5,406.9c-0.1-0.1-0.1-0.2-0.2-0.3c-0.1-0.3-0.1-0.5-0.1-0.8c0.1-0.1,0.1-0.1,0.2-0.2
		C14.4,406.1,14.5,406.5,14.5,406.9z M14.3,405.5L14.3,405.5L14.3,405.5L14.3,405.5z M14.9,408.9L14.9,408.9L14.9,408.9
		C14.9,408.8,14.9,408.8,14.9,408.9C14.9,408.8,14.9,408.8,14.9,408.9z M14.9,408.9L14.9,408.9c0,0.1,0,0.1,0.1,0.2L14.9,408.9
		L14.9,408.9z M14.8,408.6l-0.1-0.2C14.8,408.5,14.8,408.6,14.8,408.6C14.9,408.6,14.9,408.6,14.8,408.6L14.8,408.6z M15.2,421.3
		c-0.1-0.1-0.1-0.2-0.2-0.3c-0.1-0.3-0.1-0.5-0.2-0.8c0.1-0.1,0.1-0.1,0.2-0.2C15.1,420.5,15.2,420.9,15.2,421.3z M15,420L15,420
		L15,420L15,420z M15.6,423.3L15.6,423.3L15.6,423.3L15.6,423.3L15.6,423.3z M15.6,423.4L15.6,423.4c0,0.1,0,0.1,0,0.2V423.4
		L15.6,423.4z M15.5,423l-0.1-0.2C15.5,422.9,15.5,423,15.5,423C15.6,423.1,15.6,423.1,15.5,423L15.5,423z M15.9,435.8
		c-0.1-0.1-0.1-0.2-0.2-0.3c0-0.3-0.1-0.5-0.1-0.8c0.1-0.1,0.1-0.1,0.2-0.2C15.8,435,15.9,435.4,15.9,435.8z M15.7,434.4L15.7,434.4
		L15.7,434.4L15.7,434.4z M15.5,435.9L15.5,435.9L15.5,435.9L15.5,435.9L15.5,435.9z M15.3,435.7l-0.1-0.3L15.3,435.7L15.3,435.7z
		 M15.5,435.7l-0.3-0.7l0,0c0.1,0.2,0.3,0.3,0.4,0.5c0,0.1,0,0.2,0.1,0.3L15.5,435.7z M15.4,432.5L15.4,432.5h-0.2l0,0H15.4z
		 M15.2,432.4C15.2,432.3,15.2,432.3,15.2,432.4L15.2,432.4L15.2,432.4z M15.5,432.9L15.5,432.9l-0.2,0.1c0-0.1,0-0.1,0-0.2
		L15.5,432.9z M15.3,433.7l-0.3-0.4c0.1,0,0.2-0.1,0.2-0.1C15.2,433.3,15.3,433.5,15.3,433.7z M15.3,433.8c0,0.1,0,0.2,0.1,0.3
		l-0.3-0.1l-0.1-0.6C15.1,433.6,15.2,433.7,15.3,433.8z M15.4,434.3L15.4,434.3h-0.3v-0.1L15.4,434.3z M15.4,434.4
		c0,0.1,0,0.2,0,0.3c-0.1,0.1-0.2,0.2-0.2,0.2l0,0l-0.1-0.6L15.4,434.4z M15.6,435.4c-0.1-0.1-0.2-0.3-0.3-0.4
		c0.1-0.1,0.1-0.1,0.2-0.2C15.5,435,15.6,435.2,15.6,435.4z M15.5,434.4l0.2,0.1l-0.1,0.1C15.5,434.6,15.5,434.5,15.5,434.4z
		 M15.7,436L15.7,436h-0.1v-0.1L15.7,436z M15.7,436.1c0,0.1,0,0.1,0,0.2c0,0,0,0-0.1,0.1l-0.1-0.3H15.7z M15.9,436.9
		c-0.1-0.1-0.2-0.2-0.3-0.4l0.1-0.1L15.9,436.9z M15.7,436.4C15.8,436.4,15.8,436.4,15.7,436.4c0.1,0.1,0.1,0.3,0.2,0.4L15.7,436.4z
		 M15.8,436.1L15.8,436.1C15.9,436.2,15.9,436.2,15.8,436.1C15.8,436.2,15.8,436.1,15.8,436.1z M15.9,436.3c0.1,0,0.1-0.1,0.1-0.1
		l0,0c0.1,0.4,0.2,0.8,0.2,1.2c-0.1-0.1-0.1-0.1-0.2-0.2C16,436.9,15.9,436.6,15.9,436.3z M15.9,436.1h-0.1c0,0,0,0,0-0.1
		L15.9,436.1C16,436.1,16,436.1,15.9,436.1C16,436.1,16,436.1,15.9,436.1z M15.8,435.8c0-0.1,0-0.1,0-0.2c0.1,0.1,0.2,0.2,0.2,0.2
		H15.8z M15.7,434.5l-0.2-0.1v-0.1L15.7,434.5C15.7,434.4,15.7,434.4,15.7,434.5L15.7,434.5z M15.5,434.2c0-0.1,0-0.2,0-0.2
		c0.1,0.1,0.2,0.2,0.3,0.3L15.5,434.2z M15.4,433.8c0-0.2-0.1-0.4-0.1-0.7c0.1,0,0.1-0.1,0.2-0.1c0,0.4,0.1,0.7,0.2,1.1L15.4,433.8z
		 M15.5,432.6L15.5,432.6L15.5,432.6L15.5,432.6L15.5,432.6z M15.5,432.5c0-0.3-0.1-0.6-0.1-0.9h0.1
		C15.5,431.9,15.5,432.2,15.5,432.5L15.5,432.5z M14.9,430.5c-0.1-0.2-0.2-0.4-0.3-0.5l0.4,0.1C15,430.2,15,430.3,14.9,430.5
		C14.9,430.4,14.9,430.4,14.9,430.5z M15,430.5L15,430.5c0,0.1,0,0.1,0,0.1C14.9,430.6,14.9,430.5,15,430.5
		C14.9,430.5,14.9,430.5,15,430.5z M15.4,430L15.4,430c-0.1,0-0.1-0.1-0.1-0.1C15.4,429.9,15.4,430,15.4,430L15.4,430z M15.4,430.2
		L15.4,430.2L15.4,430.2L15.4,430.2z M15.4,429.9c0,0,0-0.1-0.1-0.1c0-0.3,0-0.6,0-0.9l0,0l0,0C15.4,429.2,15.4,429.5,15.4,429.9z
		 M15.4,428.8L15.4,428.8L15.4,428.8L15.4,428.8z M15.4,428.8L15.4,428.8L15.4,428.8L15.4,428.8z M15.4,428.6v-0.1V428.6L15.4,428.6
		L15.4,428.6z M15.4,428.4c0-0.3,0-0.5,0-0.8l0,0l0,0c0,0.3,0,0.6,0,0.9V428.4z M14.6,423.4L14.6,423.4l0.5,0.4
		c-0.1,0.1-0.2,0.1-0.2,0.2C14.7,423.8,14.7,423.6,14.6,423.4z M14.7,428.7c0.1,0.1,0.2,0.3,0.3,0.5c-0.1,0.1-0.3,0.2-0.4,0.3
		C14.6,429.2,14.7,428.9,14.7,428.7z M15.3,426.3c0,0.1,0,0.2,0.1,0.3l0,0c-0.1,0.1-0.2,0.2-0.3,0.4l0,0L15.3,426.3z M15.2,426.4
		c0-0.1,0-0.1,0.1-0.2l0,0L15.2,426.4z M15.3,426.1C15.3,426.1,15.3,426,15.3,426.1L15.3,426.1L15.3,426.1L15.3,426.1z M15.1,424.4
		l-0.2-0.1c0-0.1-0.1-0.2-0.1-0.3l0.3-0.2L15.1,424.4L15.1,424.4z M14.8,427.8c0-0.1,0.1-0.3,0.1-0.4c0,0.1,0.1,0.3,0.2,0.5
		c-0.1,0.1-0.2,0.3-0.3,0.4C14.8,428.1,14.8,427.9,14.8,427.8z M15,427.4l0.2,0.1c0,0.1,0,0.2,0,0.3C15.1,427.6,15,427.5,15,427.4z
		 M15,427.4C15,427.3,15,427.3,15,427.4C15,427.3,15,427.3,15,427.4h0.2v0.1L15,427.4z M15,427.2C15,427.1,15,427.1,15,427.2
		c0.1-0.2,0.2-0.3,0.3-0.5c0,0.2-0.1,0.3-0.1,0.5H15z M15.3,427.4h0.1v0.1L15.3,427.4L15.3,427.4z M15.2,427.5h0.1l0,0
		c0,0-0.1,0.1-0.2,0.2C15.2,427.7,15.2,427.6,15.2,427.5z M15.4,427.5L15.4,427.5L15.4,427.5L15.4,427.5
		C15.5,427.4,15.5,427.5,15.4,427.5C15.5,427.5,15.4,427.5,15.4,427.5z M15.4,427.3h-0.1c0-0.2,0.1-0.3,0.1-0.5c0,0.1,0,0.2,0.1,0.2
		C15.4,427.1,15.4,427.2,15.4,427.3z M15.3,426.4c0-0.1,0-0.2-0.1-0.2v-0.1h0.1C15.4,426.2,15.4,426.3,15.3,426.4z M15.5,425.3
		l-0.1,0.2l-0.1,0.1C15.4,425.5,15.4,425.4,15.5,425.3L15.5,425.3z M15.5,425.3c0-0.1,0-0.2,0.1-0.2l0,0c0,0,0,0.1,0,0.2H15.5
		L15.5,425.3z M15.4,425.7l-0.1,0.3l0,0v-0.1C15.4,425.8,15.4,425.7,15.4,425.7z M15.4,425.9l0.1-0.4l0.1-0.1
		C15.5,425.6,15.5,425.8,15.4,425.9L15.4,425.9z M15.5,425.4L15.5,425.4L15.5,425.4L15.5,425.4z M15.6,425.3L15.6,425.3L15.6,425.3
		L15.6,425.3z M15.2,424.4l-0.1-0.6l0.5,0.6H15.2z M15.1,423.7l-0.1-0.5l0.4,0.1v0.1C15.3,423.5,15.2,423.6,15.1,423.7z M15,423.1
		L15,423.1l0.4,0.1c0,0,0,0,0,0.1L15,423.1z M15,423.6c-0.2-0.2-0.4-0.4-0.5-0.6v-0.1l0.4,0.1L15,423.6z M14.5,429.9L14.5,429.9
		l0.4,0.1c0,0,0,0,0,0.1L14.5,429.9z M14.6,429.7c0-0.1,0-0.1,0-0.2c0.1-0.1,0.3-0.2,0.4-0.3l0,0c0,0.2,0,0.4,0,0.6L14.6,429.7z
		 M15,429.1c-0.1-0.2-0.2-0.3-0.2-0.5l0.3,0.1C15,428.9,15,429,15,429.1L15,429.1z M14.7,428.6L14.7,428.6L14.7,428.6H15v0.1
		L14.7,428.6z M14.7,428.4L14.7,428.4c0.1-0.2,0.2-0.3,0.4-0.5c0,0.2,0,0.4-0.1,0.6L14.7,428.4z M15,430.1C15,430.1,15,430,15,430.1
		h0.3c0,0,0,0,0,0.1L15,430.1z M15.3,430.2c-0.1,0-0.1,0.1-0.2,0.2c0-0.1,0-0.2,0-0.2H15.3z M15,429.9c0-0.2,0-0.3,0-0.5
		c0.1,0.2,0.2,0.3,0.2,0.4c0,0,0,0.1,0,0.2L15,429.9z M15.1,429.3c0-0.1,0-0.1,0-0.2c0.1-0.1,0.2-0.1,0.2-0.2c0,0.3,0,0.5,0,0.8
		C15.2,429.6,15.1,429.4,15.1,429.3z M15.1,429c0-0.1,0-0.2,0-0.3l0.2,0.1C15.2,428.9,15.2,429,15.1,429z M15,430.4
		c0.1-0.1,0.2-0.1,0.3-0.2c0,0.1,0,0.3,0,0.4c0,0.2,0,0.3,0,0.5c-0.1-0.1-0.2-0.3-0.3-0.4c0-0.1,0-0.1,0-0.2
		C15,430.5,15,430.5,15,430.4z M15.3,428.8l-0.2-0.1c0,0,0,0,0-0.1L15.3,428.8L15.3,428.8z M15.1,428.6c0-0.2,0-0.4,0.1-0.5
		c0.1,0.1,0.1,0.3,0.1,0.4s0,0.1,0,0.2L15.1,428.6z M15.2,427.9L15.2,427.9c0.1-0.1,0.1-0.2,0.2-0.3c0,0.2,0,0.4,0,0.6
		C15.3,428.2,15.2,428,15.2,427.9z M15.4,430.1L15.4,430.1C15.3,430.1,15.3,430.1,15.4,430.1L15.4,430.1z M15.4,430.2
		c0,0.2,0,0.3,0,0.5c0,0.2,0,0.4,0,0.6c0,0,0-0.1-0.1-0.1c0-0.2,0-0.4,0-0.5C15.3,430.5,15.3,430.4,15.4,430.2L15.4,430.2z
		 M15.4,431.4L15.4,431.4C15.4,431.3,15.4,431.3,15.4,431.4C15.4,431.3,15.4,431.3,15.4,431.4z M15.4,431.5L15.4,431.5L15.4,431.5
		L15.4,431.5z M15.4,431.5L15.4,431.5L15.4,431.5L15.4,431.5L15.4,431.5z M15.5,427.3L15.5,427.3c0-0.1,0-0.2,0-0.2
		C15.5,427.2,15.5,427.2,15.5,427.3L15.5,427.3z M15.4,426.8c0-0.1,0-0.1-0.1-0.2c0,0,0,0,0-0.1l0.1-0.1
		C15.5,426.6,15.5,426.7,15.4,426.8z M15.4,426.5c0-0.1,0-0.2,0.1-0.4l0,0c0,0.1,0,0.2,0,0.3C15.5,426.4,15.4,426.4,15.4,426.5z
		 M15.5,426c0-0.1,0.1-0.3,0.1-0.4l0,0C15.6,425.7,15.6,425.9,15.5,426L15.5,426z M15.6,425L15.6,425L15.6,425L15.6,425z
		 M15.6,425.2v-0.1l0,0C15.7,425.1,15.6,425.2,15.6,425.2L15.6,425.2z M15.1,423.8l0.3-0.3c0.1,0.4,0.2,0.7,0.2,0.9
		C15.5,424.2,15.3,424,15.1,423.8z M15.4,422.7c-0.1-0.3-0.1-0.6-0.2-0.9l0.1-0.1l0,0c0.1,0.4,0.2,0.8,0.2,1.2
		C15.5,422.9,15.4,422.8,15.4,422.7z M14.8,421.4L14.8,421.4L14.8,421.4L14.8,421.4L14.8,421.4z M14.6,421.2l-0.1-0.3L14.6,421.2
		L14.6,421.2z M14.8,421.3l-0.3-0.7l0,0c0.2,0.2,0.3,0.3,0.4,0.5c0,0.1,0,0.2,0.1,0.3L14.8,421.3z M14.7,418.1L14.7,418.1h-0.2l0,0
		H14.7z M14.5,417.9L14.5,417.9L14.5,417.9L14.5,417.9z M14.8,418.5l-0.2,0.1c0-0.1,0-0.1,0-0.2L14.8,418.5z M14.6,419.2l-0.3-0.4
		c0.1,0,0.2-0.1,0.2-0.1C14.5,418.9,14.6,419.1,14.6,419.2z M14.6,419.4c0,0.1,0,0.2,0.1,0.3l-0.3-0.1l-0.1-0.6
		C14.4,419.1,14.5,419.3,14.6,419.4z M14.7,419.8C14.7,419.9,14.7,419.9,14.7,419.8h-0.3v-0.1L14.7,419.8z M14.7,420
		c0,0.1,0,0.2,0.1,0.3c-0.1,0.1-0.2,0.2-0.3,0.2c0,0,0,0,0-0.1l-0.1-0.6L14.7,420z M14.9,420.9c-0.1-0.1-0.2-0.2-0.3-0.4
		c0.1-0.1,0.1-0.1,0.2-0.2C14.8,420.5,14.9,420.7,14.9,420.9z M14.8,420l0.2,0.1l-0.1,0.1C14.8,420.1,14.8,420.1,14.8,420z
		 M15,421.5C15,421.5,15,421.6,15,421.5h-0.1v-0.1L15,421.5z M15,421.6c0,0.1,0,0.1,0,0.2c0,0,0,0-0.1,0.1l-0.1-0.3H15z M15.2,422.5
		c-0.1-0.1-0.2-0.2-0.3-0.3l0.1-0.1L15.2,422.5z M15,422C15.1,421.9,15.1,421.9,15,422c0.1,0.1,0.1,0.3,0.2,0.4L15,422z M15.1,421.7
		L15.1,421.7C15.2,421.7,15.2,421.7,15.1,421.7L15.1,421.7z M15.2,421.7h-0.1c0,0,0,0,0-0.1L15.2,421.7
		C15.3,421.6,15.3,421.6,15.2,421.7C15.3,421.6,15.3,421.6,15.2,421.7z M15.1,421.4c0-0.1,0-0.1,0-0.2c0.1,0.1,0.2,0.2,0.2,0.2H15.1
		z M15,420l-0.2-0.1v-0.1L15,420L15,420L15,420z M14.8,419.7c0-0.1,0-0.2,0-0.2c0.1,0.1,0.2,0.2,0.3,0.3L14.8,419.7z M14.7,419.3
		c0-0.2-0.1-0.4-0.1-0.7c0.1,0,0.1-0.1,0.2-0.1c0,0.4,0.1,0.7,0.2,1.1L14.7,419.3z M14.8,418.1L14.8,418.1L14.8,418.1L14.8,418.1
		L14.8,418.1z M14.8,418c0-0.3-0.1-0.6-0.1-0.9h0.1C14.8,417.4,14.8,417.7,14.8,418L14.8,418z M14.2,416c-0.1-0.2-0.2-0.4-0.3-0.5
		l0.4,0.1C14.3,415.8,14.3,415.9,14.2,416L14.2,416z M14.3,416C14.3,416,14.3,416.1,14.3,416c0,0.1,0,0.1,0,0.1
		C14.2,416.1,14.2,416.1,14.3,416C14.2,416,14.2,416,14.3,416z M14.7,415.7L14.7,415.7L14.7,415.7L14.7,415.7z M14.6,415.7
		L14.6,415.7L14.6,415.7C14.7,415.7,14.6,415.7,14.6,415.7z M14.6,415.5L14.6,415.5C14.7,415.5,14.7,415.5,14.6,415.5
		C14.7,415.5,14.7,415.5,14.6,415.5L14.6,415.5z M14.6,415.3c0-0.3,0-0.6,0-0.9l0,0l0,0C14.6,414.7,14.6,415,14.6,415.3
		C14.7,415.4,14.6,415.4,14.6,415.3z M14.6,414.4C14.6,414.4,14.6,414.3,14.6,414.4L14.6,414.4C14.7,414.3,14.7,414.4,14.6,414.4z
		 M14.7,414.4L14.7,414.4L14.7,414.4L14.7,414.4z M14.7,414.2c0-0.1,0-0.1,0-0.1S14.7,414.1,14.7,414.2L14.7,414.2L14.7,414.2z
		 M14.7,413.9c0-0.3,0-0.5,0-0.8c0,0,0,0,0-0.1l0,0c0,0.3,0,0.6-0.1,0.9C14.7,414,14.7,414,14.7,413.9z M14.3,415.6L14.3,415.6h0.2
		v0.1L14.3,415.6z M14.6,415.8c-0.1,0-0.1,0.1-0.2,0.1c0-0.1,0-0.1,0-0.2L14.6,415.8z M14.3,415.4c0-0.2,0-0.3,0-0.5
		c0.1,0.2,0.2,0.3,0.2,0.4c0,0.1,0,0.1,0,0.2L14.3,415.4z M14.4,414.8c0-0.1,0-0.1,0-0.2c0.1-0.1,0.2-0.1,0.2-0.2c0,0.2,0,0.5,0,0.8
		C14.5,415.1,14.4,415,14.4,414.8z M14.4,414.6c0-0.1,0-0.2,0-0.3l0.2,0.1C14.5,414.5,14.5,414.5,14.4,414.6z M14.4,414.3
		L14.4,414.3h0.2v0.1L14.4,414.3z M14.1,413.8c0-0.2,0.1-0.3,0.1-0.5c0-0.1,0.1-0.3,0.1-0.4c0,0.1,0.1,0.3,0.2,0.5
		C14.3,413.5,14.2,413.7,14.1,413.8z M13.9,408.9v-0.2l0.5,0.5c-0.1,0.1-0.2,0.1-0.2,0.2C14,409.3,14,409.1,13.9,408.9z M14,414.2
		c0.1,0.1,0.2,0.3,0.3,0.5c-0.1,0.1-0.2,0.2-0.4,0.3C13.9,414.8,13.9,414.5,14,414.2z M14.6,411.8c0,0.1,0,0.2,0.1,0.3l0,0
		c-0.1,0.1-0.2,0.2-0.3,0.3l0,0L14.6,411.8z M14.5,412c0-0.1,0-0.1,0.1-0.2l0,0L14.5,412z M14.6,411.6L14.6,411.6L14.6,411.6
		L14.6,411.6C14.6,411.7,14.6,411.7,14.6,411.6z M14.4,409.9l-0.2-0.1c0-0.1-0.1-0.2-0.1-0.3l0.3-0.2L14.4,409.9L14.4,409.9z
		 M14.3,413l0.2,0.1c0,0.1,0,0.2,0,0.3C14.4,413.2,14.3,413.1,14.3,413z M14.3,412.9L14.3,412.9C14.3,412.8,14.3,412.8,14.3,412.9
		h0.2v0.1L14.3,412.9z M14.3,412.7L14.3,412.7c0.1-0.2,0.2-0.3,0.3-0.5c0,0.2-0.1,0.4-0.1,0.5H14.3z M14.6,412.9h0.1c0,0,0,0,0,0.1
		L14.6,412.9C14.6,413,14.6,413,14.6,412.9z M14.5,413h0.1l0,0c0,0.1-0.1,0.1-0.2,0.2C14.5,413.2,14.5,413.1,14.5,413z M14.7,413.1
		L14.7,413.1C14.7,413,14.7,413,14.7,413.1L14.7,413.1C14.8,413,14.8,413,14.7,413.1C14.8,413,14.8,413,14.7,413.1z M14.7,412.9
		h-0.1c0-0.2,0.1-0.3,0.1-0.5c0,0.1,0,0.2,0.1,0.2C14.7,412.6,14.7,412.7,14.7,412.9z M14.6,412c0-0.1,0-0.2-0.1-0.3v-0.1h0.1
		C14.7,411.8,14.7,411.9,14.6,412z M14.8,410.9l-0.1,0.2l-0.1,0.1C14.7,411.1,14.7,411,14.8,410.9L14.8,410.9z M14.8,410.8
		c0-0.1,0-0.2,0.1-0.3l0,0c0,0.1,0,0.1,0,0.2L14.8,410.8L14.8,410.8z M14.7,411.2l-0.1,0.2l0,0v-0.1
		C14.7,411.3,14.7,411.3,14.7,411.2z M14.7,411.5l0.1-0.4l0.1-0.1C14.8,411.2,14.8,411.3,14.7,411.5L14.7,411.5z M14.8,411L14.8,411
		L14.8,411L14.8,411z M14.9,410.9L14.9,410.9C14.9,410.8,14.9,410.9,14.9,410.9L14.9,410.9z M14.5,409.9l-0.1-0.6l0.5,0.6H14.5z
		 M14.4,409.2l-0.1-0.5l0.4,0.1v0.1C14.6,409,14.5,409.1,14.4,409.2z M14.3,408.7L14.3,408.7l0.4,0.1c0,0,0,0,0,0.1L14.3,408.7z
		 M14.3,409.2c-0.2-0.2-0.4-0.4-0.5-0.6v-0.1l0.4,0.1L14.3,409.2z M13.8,415.5C13.8,415.4,13.8,415.4,13.8,415.5l0.4,0.1v0.1
		L13.8,415.5z M13.9,415.3c0-0.1,0-0.1,0-0.2c0.1-0.1,0.3-0.2,0.4-0.3l0,0c0,0.2,0,0.4,0,0.6L13.9,415.3z M14.3,414.7
		c-0.1-0.2-0.2-0.3-0.2-0.5l0.3,0.1C14.3,414.4,14.3,414.6,14.3,414.7L14.3,414.7z M14,414.2L14,414.2C14,414.1,14,414.1,14,414.2
		h0.3c0,0,0,0,0,0.1L14,414.2z M14,414v-0.1c0.1-0.1,0.2-0.2,0.4-0.4c0,0.2,0,0.4-0.1,0.6L14,414z M14.3,416
		c0.1-0.1,0.2-0.1,0.2-0.2c0,0.1,0,0.3,0,0.4c0,0.2,0,0.3,0,0.5c-0.1-0.1-0.2-0.3-0.3-0.4c0-0.1,0-0.1,0-0.2
		C14.3,416.1,14.3,416,14.3,416z M14.4,414.1c0-0.2,0-0.4,0.1-0.5c0.1,0.1,0.1,0.3,0.1,0.4s0,0.1,0,0.2L14.4,414.1z M14.5,413.5
		C14.5,413.4,14.5,413.4,14.5,413.5c0.1-0.1,0.1-0.2,0.2-0.3c0,0.2,0,0.4,0,0.6C14.6,413.7,14.5,413.6,14.5,413.5z M14.7,415.8
		c0,0.1,0,0.3,0,0.5c0,0.2,0,0.4,0,0.6c0,0,0-0.1-0.1-0.1c0-0.2,0-0.4,0-0.5C14.6,416.1,14.6,415.9,14.7,415.8L14.7,415.8z
		 M14.7,416.9L14.7,416.9L14.7,416.9L14.7,416.9z M14.7,417L14.7,417L14.7,417L14.7,417z M14.7,417.1L14.7,417.1L14.7,417.1
		L14.7,417.1L14.7,417.1z M14.8,412.9L14.8,412.9c-0.1-0.1,0-0.2,0-0.2S14.8,412.8,14.8,412.9C14.8,412.8,14.8,412.9,14.8,412.9z
		 M14.7,412.4c0-0.1,0-0.1,0-0.2c0,0,0,0,0-0.1l0.1-0.1C14.8,412.1,14.8,412.3,14.7,412.4z M14.7,412c0-0.1,0.1-0.2,0.1-0.4l0,0
		c0,0.1,0,0.2,0,0.2C14.8,412,14.7,412,14.7,412z M14.8,411.5c0-0.1,0.1-0.3,0.1-0.4l0,0C14.9,411.3,14.9,411.4,14.8,411.5
		L14.8,411.5z M14.9,410.6L14.9,410.6L14.9,410.6L14.9,410.6z M14.9,410.7v-0.1l0,0C15,410.7,14.9,410.7,14.9,410.7L14.9,410.7z
		 M14.4,409.3l0.3-0.3c0.1,0.4,0.2,0.7,0.2,0.9C14.8,409.7,14.6,409.5,14.4,409.3z M14.7,408.3c-0.1-0.3-0.1-0.6-0.2-0.9l0.1-0.1
		l0,0c0.1,0.4,0.2,0.8,0.2,1.2C14.8,408.4,14.7,408.3,14.7,408.3z M14.1,407L14.1,407L14.1,407L14.1,407L14.1,407z M13.9,406.8v-0.3
		V406.8L13.9,406.8z M14.1,406.8l-0.3-0.7l0,0c0.1,0.2,0.3,0.3,0.4,0.5c0,0.1,0,0.2,0.1,0.3L14.1,406.8z M14,403.6L14,403.6h-0.2
		l0,0H14z M13.8,403.5C13.8,403.4,13.8,403.4,13.8,403.5L13.8,403.5L13.8,403.5z M14.1,404L14.1,404l-0.2,0.1c0-0.1,0-0.1,0-0.2
		L14.1,404z M13.9,404.8l-0.3-0.4c0.1,0,0.2-0.1,0.2-0.1C13.8,404.5,13.9,404.6,13.9,404.8z M13.9,404.9c0,0.1,0,0.2,0.1,0.3
		l-0.3-0.1l-0.1-0.6C13.7,404.7,13.8,404.8,13.9,404.9z M14,405.4L14,405.4h-0.3v-0.1L14,405.4z M14,405.5c0,0.1,0,0.2,0,0.3
		c-0.1,0.1-0.2,0.2-0.2,0.2s0,0,0-0.1l-0.1-0.6L14,405.5z M14.2,406.5c-0.1-0.1-0.2-0.3-0.3-0.4c0.1-0.1,0.1-0.1,0.2-0.2
		C14.1,406.1,14.2,406.3,14.2,406.5z M14.1,405.6l0.2,0.1l-0.1,0.1C14.1,405.7,14.1,405.6,14.1,405.6z M14.3,407.1L14.3,407.1h-0.1
		V407L14.3,407.1z M14.3,407.2c0,0.1,0,0.1,0,0.2c0,0,0,0-0.1,0.1l-0.1-0.3H14.3z M14.5,408c-0.1-0.1-0.2-0.2-0.3-0.4l0.1-0.1
		L14.5,408z M14.3,407.5C14.4,407.5,14.4,407.5,14.3,407.5c0.1,0.1,0.1,0.3,0.2,0.4L14.3,407.5z M14.4,407.2L14.4,407.2
		C14.5,407.3,14.5,407.3,14.4,407.2C14.4,407.3,14.4,407.2,14.4,407.2z M14.5,407.2h-0.1c0,0,0,0,0-0.1L14.5,407.2
		C14.6,407.2,14.6,407.2,14.5,407.2C14.6,407.2,14.6,407.2,14.5,407.2z M14.4,406.9c0-0.1,0-0.1,0-0.2c0.1,0.1,0.1,0.2,0.2,0.2H14.4
		z M14.3,405.6l-0.2-0.1v-0.1L14.3,405.6C14.3,405.5,14.3,405.5,14.3,405.6L14.3,405.6z M14.1,405.3c0-0.1,0-0.2,0-0.2
		c0.1,0.1,0.2,0.2,0.3,0.3L14.1,405.3z M14,404.9c0-0.2-0.1-0.4-0.1-0.7c0.1,0,0.1-0.1,0.2-0.1c0,0.4,0.1,0.7,0.2,1.1L14,404.9z
		 M14.1,403.7L14.1,403.7L14.1,403.7L14.1,403.7L14.1,403.7z M14.1,403.6c0-0.3-0.1-0.6-0.1-0.9h0.1C14.1,403,14.1,403.3,14.1,403.6
		L14.1,403.6z M14.1,398.7L14.1,398.7c0,0.3,0,0.6,0,0.9c0,0,0-0.1-0.1-0.1C14,399.2,14,399,14.1,398.7
		C14,398.7,14,398.7,14.1,398.7z M14,398.6L14,398.6L14,398.6C14.1,398.6,14.1,398.6,14,398.6C14.1,398.6,14.1,398.6,14,398.6
		L14,398.6z M14,399.7C14,399.7,14,399.8,14,399.7L14,399.7c-0.1,0-0.1-0.1-0.1-0.1C14,399.7,14,399.7,14,399.7z M14,399.9L14,399.9
		C13.9,399.9,13.9,399.9,14,399.9L14,399.9z M14,399.9C14,399.9,14,400,14,399.9L14,399.9L14,399.9z M14,400L14,400c0,0.3,0,0.7,0,1
		c0,0,0-0.1-0.1-0.1C13.9,400.6,13.9,400.3,14,400C13.9,400,13.9,400,14,400z M14,401.1L14,401.1L14,401.1c-0.1,0-0.1-0.1-0.1-0.1
		L14,401.1z M14,401.3L14,401.3L14,401.3L14,401.3z M14,401.2C14,401.2,13.9,401.2,14,401.2C13.9,401.2,13.9,401.2,14,401.2
		L14,401.2z M14,401.3c0,0.2,0,0.3,0,0.5c0,0.2,0,0.4,0,0.6c0,0,0-0.1-0.1-0.1c0-0.2,0-0.4,0-0.5C13.9,401.6,13.9,401.5,14,401.3
		L14,401.3z M14,402.5L14,402.5C14,402.4,14,402.4,14,402.5C14,402.4,14,402.4,14,402.5z M14,402.6L14,402.6L14,402.6L14,402.6z
		 M14,402.6L14,402.6L14,402.6L14,402.6L14,402.6z M14.1,398.4L14.1,398.4c-0.1-0.1,0-0.2,0-0.2C14.1,398.3,14.1,398.3,14.1,398.4
		L14.1,398.4z M14,397.9c0-0.1,0-0.1-0.1-0.2c0,0,0,0,0-0.1l0.1-0.1C14.1,397.7,14.1,397.8,14,397.9z M14,397.6c0-0.1,0-0.2,0.1-0.4
		l0,0c0,0.1,0,0.2,0,0.2C14.1,397.5,14,397.5,14,397.6z M14.1,397.1c0-0.1,0.1-0.3,0.1-0.4l0,0C14.2,396.8,14.2,397,14.1,397.1
		L14.1,397.1z M14.2,396.6c0,0.2-0.1,0.3-0.1,0.5H14l0.1-0.4C14.1,396.6,14.1,396.6,14.2,396.6z M14.1,396.5L14.1,396.5L14.1,396.5
		L14.1,396.5z M14,397.2c0,0.1-0.1,0.2-0.1,0.4c0-0.1,0-0.2-0.1-0.3L14,397.2L14,397.2z M14,397.8c0,0.1,0,0.2,0.1,0.2
		c0,0.1,0,0.2,0,0.3H14C13.9,398.2,13.9,398,14,397.8z M14,398.5C14,398.5,14,398.6,14,398.5h-0.1v-0.1L14,398.5z M14,398.6
		C14,398.7,14,398.7,14,398.6c-0.1,0.1-0.1,0.2-0.2,0.2c0-0.1,0-0.2,0-0.3L14,398.6z M14,398.8c0,0.2,0,0.4,0,0.6
		c0-0.1-0.1-0.2-0.1-0.4v-0.1C13.9,398.9,13.9,398.8,14,398.8z M13.9,399.8C13.9,399.9,13.9,399.9,13.9,399.8h-0.2v-0.1L13.9,399.8z
		 M13.9,400c-0.1,0.1-0.1,0.1-0.2,0.2c0-0.1,0-0.2,0-0.3L13.9,400z M13.9,400c0,0.3,0,0.5,0,0.8c-0.1-0.1-0.1-0.3-0.2-0.4
		c0-0.1,0-0.1,0-0.2C13.8,400.2,13.8,400.1,13.9,400z M13.9,400.9c0,0.1,0,0.1,0,0.2l-0.2-0.1c0-0.2,0-0.3,0-0.5
		C13.7,400.6,13.8,400.8,13.9,400.9z M13.9,401.2L13.9,401.2h-0.2v-0.1L13.9,401.2z M13.9,401.3c-0.1,0-0.1,0.1-0.2,0.2
		c0-0.1,0-0.1,0-0.2H13.9z M13.9,401.3c0,0.1,0,0.3,0,0.4c0,0.2,0,0.3,0,0.5c-0.1-0.1-0.2-0.3-0.3-0.4c0-0.1,0-0.1,0-0.2v-0.1
		C13.7,401.4,13.8,401.4,13.9,401.3z M13.7,403.2c-0.1-0.1-0.1-0.1-0.2-0.2l0.1-0.1C13.6,403,13.7,403.1,13.7,403.2z M13.6,401.9
		c0.1,0.2,0.2,0.3,0.3,0.4v0.1l-0.3-0.1C13.7,402.2,13.6,402.1,13.6,401.9z M13.9,402.6L13.9,402.6L13.9,402.6h-0.2v-0.1L13.9,402.6
		z M13.9,402.7c-0.1,0-0.1,0.1-0.2,0.1c0-0.1,0-0.1,0-0.2L13.9,402.7z M13.9,402.7L13.9,402.7c0,0.3,0.1,0.6,0.1,0.9h-0.1
		c-0.1-0.1-0.1-0.2-0.2-0.2c0-0.2,0-0.3,0-0.5L13.9,402.7z M13.8,403.9c0,0.1,0,0.2,0,0.3l-0.2,0.1l-0.1-0.5L13.8,403.9z
		 M13.5,404.5l0.1,0.7l-0.2-0.1l-0.2-0.4C13.3,404.6,13.4,404.5,13.5,404.5L13.5,404.5z M13.6,405.3L13.6,405.3h-0.2v-0.1
		L13.6,405.3z M13.7,405.4l0.1,0.5l-0.2-0.6L13.7,405.4z M13.7,406.1c-0.1,0.1-0.2,0.2-0.3,0.3l-0.2-1c0.1,0.2,0.3,0.3,0.4,0.5
		L13.7,406.1z M13.8,406.2v0.1l0.1,0.5l-0.4-0.1v-0.1C13.5,406.4,13.6,406.3,13.8,406.2z M13.9,407L13.9,407l-0.4-0.1v-0.1L13.9,407
		z M13.5,406.9l0.4,0.1l0.1,0.5C13.9,407.3,13.7,407.1,13.5,406.9z M14.1,407.7c-0.1,0.1-0.2,0.2-0.3,0.3l-0.2-0.9
		C13.7,407.2,13.9,407.4,14.1,407.7z M14,407.1h0.1l0.1,0.4l-0.1,0.1L14,407.1z M14.5,408.2l0.1,0.2c0,0.1,0,0.1,0,0.1l-0.4-0.1
		l-0.1-0.7C14.3,407.9,14.4,408.1,14.5,408.2z M14.3,408.7l-0.4-0.1v-0.1L14.3,408.7L14.3,408.7z M13.8,415.6
		c0.1,0.1,0.2,0.3,0.3,0.5c-0.1,0.1-0.2,0.2-0.4,0.3C13.8,416.1,13.8,415.8,13.8,415.6z M13.8,408.4L13.8,408.4L13.8,408.4
		C13.8,408.5,13.8,408.5,13.8,408.4z M13.8,416.4c0.1-0.1,0.3-0.2,0.4-0.3c0,0.1,0.1,0.1,0.1,0.2c0,0.2,0,0.3,0,0.5l-0.5-0.2
		C13.8,416.5,13.8,416.4,13.8,416.4z M14.3,416.9L14.3,416.9l-0.5-0.1v-0.1L14.3,416.9z M14.3,417c0,0.1,0,0.2,0,0.2
		c-0.1,0-0.1,0.1-0.2,0.1c-0.1-0.2-0.3-0.3-0.4-0.5l0,0L14.3,417z M14.3,417.3c0,0.1,0,0.2,0,0.3c-0.1-0.1-0.1-0.1-0.2-0.2
		L14.3,417.3z M14.3,416.4c0.1,0.2,0.2,0.3,0.3,0.4v0.1l-0.3-0.1C14.4,416.7,14.4,416.5,14.3,416.4z M14.6,417L14.6,417
		C14.6,417.1,14.6,417.1,14.6,417h-0.3v-0.1L14.6,417z M14.6,417.1c-0.1,0-0.1,0.1-0.2,0.1c0-0.1,0-0.1,0-0.2L14.6,417.1z
		 M14.6,417.1L14.6,417.1c0,0.3,0.1,0.6,0.1,0.9h-0.1c-0.1-0.1-0.1-0.2-0.2-0.3c0-0.2,0-0.3-0.1-0.5L14.6,417.1z M14.5,418.4
		c0,0.1,0,0.2,0,0.3l-0.2,0.1l-0.1-0.5L14.5,418.4z M14.2,418.9l0.1,0.7l-0.2-0.1l-0.2-0.4C14,419,14.1,419,14.2,418.9L14.2,418.9z
		 M14.3,419.7L14.3,419.7h-0.2v-0.1L14.3,419.7z M14.4,419.8l0.1,0.5l-0.2-0.6L14.4,419.8z M14.4,420.6c-0.1,0.1-0.2,0.2-0.3,0.3
		l-0.2-1c0.1,0.2,0.3,0.3,0.4,0.5L14.4,420.6z M14.5,420.7L14.5,420.7l0.1,0.6l-0.4-0.1v-0.1C14.2,420.9,14.3,420.8,14.5,420.7z
		 M14.6,421.4L14.6,421.4l-0.4-0.1v-0.1L14.6,421.4z M14.2,421.4l0.4,0.1l0.1,0.5C14.6,421.8,14.4,421.5,14.2,421.4z M14.8,422.1
		c-0.1,0.1-0.2,0.2-0.3,0.3l-0.2-0.9C14.4,421.7,14.6,421.9,14.8,422.1z M14.7,421.5h0.1l0.1,0.4l-0.1,0.1L14.7,421.5z M15.2,422.7
		l0.1,0.2c0,0.1,0,0.1,0,0.1l-0.4-0.1l-0.1-0.7C15,422.4,15.1,422.6,15.2,422.7z M15,423.1l-0.4-0.1v-0.1L15,423.1L15,423.1z
		 M14.5,430c0.1,0.1,0.2,0.3,0.3,0.5c-0.1,0.1-0.2,0.2-0.4,0.3C14.5,430.5,14.5,430.3,14.5,430z M14.5,422.9L14.5,422.9L14.5,422.9
		L14.5,422.9z M14.5,430.8c0.1-0.1,0.2-0.2,0.4-0.3c0,0.1,0.1,0.1,0.1,0.2c0,0.2,0,0.3,0,0.5l-0.5-0.2
		C14.5,431,14.5,430.9,14.5,430.8z M15,431.3C15,431.4,15,431.4,15,431.3l-0.5-0.1v-0.1L15,431.3z M15,431.5c0,0.1,0,0.2,0,0.2
		c-0.1,0-0.1,0.1-0.2,0.1c-0.1-0.2-0.3-0.3-0.4-0.5l0,0L15,431.5z M15,431.8c0,0.1,0,0.2,0,0.3c-0.1-0.1-0.1-0.2-0.2-0.2L15,431.8z
		 M15,430.8c0.1,0.2,0.2,0.3,0.3,0.4v0.1l-0.3-0.1C15.1,431.1,15,431,15,430.8z M15.3,431.4C15.3,431.5,15.3,431.5,15.3,431.4
		C15.3,431.5,15.3,431.5,15.3,431.4h-0.2v-0.1L15.3,431.4z M15.3,431.5c0,0-0.1,0.1-0.2,0.1c0-0.1,0-0.1,0-0.2L15.3,431.5z
		 M15.3,431.6L15.3,431.6c0,0.3,0.1,0.6,0.1,0.9h-0.1c-0.1-0.1-0.1-0.2-0.2-0.2c0-0.2,0-0.3,0-0.5L15.3,431.6z M15.2,432.8
		c0,0.1,0,0.2,0,0.3l-0.2,0.1l-0.1-0.5L15.2,432.8z M14.9,433.4l0.1,0.7l-0.2-0.1l-0.2-0.4C14.7,433.5,14.8,433.4,14.9,433.4
		L14.9,433.4z M15,434.2L15,434.2h-0.2v-0.1L15,434.2z M15.1,434.3l0.1,0.5l-0.2-0.6L15.1,434.3z M15.1,435
		c-0.1,0.1-0.2,0.2-0.3,0.3l-0.2-1c0.1,0.2,0.3,0.3,0.4,0.5L15.1,435z M15.2,435.1L15.2,435.1l0.1,0.6l-0.4-0.2v-0.1
		C14.9,435.3,15,435.2,15.2,435.1z M15.3,435.8L15.3,435.8l-0.4-0.1v-0.1L15.3,435.8z M14.9,435.8l0.4,0.1l0.1,0.5
		C15.3,436.2,15.1,436,14.9,435.8z M15.5,436.6c-0.1,0.1-0.2,0.2-0.3,0.3L15,436C15.1,436.1,15.3,436.3,15.5,436.6z M15.4,436h0.1
		l0.1,0.4l-0.1,0.1L15.4,436z M15.9,437.1l0.1,0.2v0.1l-0.4-0.1l-0.1-0.7C15.7,436.8,15.8,437,15.9,437.1z M16.1,437.6
		C16.1,437.6,16.1,437.7,16.1,437.6l-0.4-0.1v-0.1L16.1,437.6z M16.1,437.7L16.1,437.7c-0.1,0.2-0.2,0.3-0.3,0.4l-0.1-0.5
		L16.1,437.7z M16.2,437.9c0.1,0.4,0.2,0.7,0.2,0.9c-0.2-0.2-0.4-0.4-0.5-0.6L16.2,437.9z M16.1,437.3c0.1,0.1,0.1,0.1,0.2,0.2l0,0
		h-0.1L16.1,437.3z M16.3,437.7L16.3,437.7L16.3,437.7L16.3,437.7L16.3,437.7z M16.3,437.8L16.3,437.8c0,0.1,0,0.1,0,0.2V437.8
		L16.3,437.8z M16.3,437.5C16.3,437.5,16.3,437.4,16.3,437.5c-0.1-0.4-0.2-0.9-0.3-1.3h0.1C16.2,436.7,16.3,437.1,16.3,437.5z
		 M16.1,436.2L16.1,436.2L16.1,436.2C16,436.1,16.1,436.1,16.1,436.2C16.1,436.1,16.1,436.1,16.1,436.2z M16,435.9
		C16,435.9,16,435.8,16,435.9c-0.1-0.5-0.2-0.9-0.3-1.3l0,0C15.9,435,16,435.4,16,435.9z M15.8,434.5L15.8,434.5L15.8,434.5
		L15.8,434.5z M15.6,433c0.1,0.4,0.1,0.9,0.2,1.3l-0.1-0.1C15.6,433.8,15.6,433.4,15.6,433C15.5,433,15.6,433,15.6,433z M15.5,427.1
		c0-0.1,0-0.1,0-0.2c0-0.2,0-0.4,0.1-0.5c0,0,0-0.1,0.1-0.1C15.6,426.6,15.5,426.8,15.5,427.1z M15.6,426.2
		C15.6,426.2,15.6,426.3,15.6,426.2L15.6,426.2L15.6,426.2L15.6,426.2z M15.6,426L15.6,426c0-0.1,0-0.2,0-0.3c0,0.1,0,0.1,0,0.2
		C15.7,425.9,15.7,426,15.6,426z M15.7,425.7v-0.2v-0.1h0.1C15.7,425.5,15.7,425.6,15.7,425.7z M15.8,425.4L15.8,425.4
		C15.7,425.3,15.8,425.3,15.8,425.4l0.1-0.2C15.8,425.2,15.8,425.3,15.8,425.4z M15.7,425.1C15.8,425.1,15.8,425.1,15.7,425.1
		L15.7,425.1L15.7,425.1z M15.8,424.4c-0.1-0.2-0.1-0.6-0.2-1l0,0l0.2,0.6C15.8,424.2,15.8,424.3,15.8,424.4L15.8,424.4z
		 M15.9,424.4L15.9,424.4c0-0.1-0.1-0.1-0.1-0.2L15.9,424.4z M15.8,424l-0.1-0.3c0-0.1,0-0.3-0.1-0.4l0,0
		C15.8,423.6,15.8,423.8,15.8,424z M15.7,423.3L15.7,423.3L15.7,423.3L15.7,423.3L15.7,423.3z M15.6,423L15.6,423
		c-0.1-0.5-0.2-0.9-0.3-1.3h0.1C15.5,422.2,15.6,422.6,15.6,423z M15.4,421.7L15.4,421.7L15.4,421.7L15.4,421.7L15.4,421.7z
		 M15.3,421.4L15.3,421.4c-0.1-0.5-0.2-0.9-0.3-1.3h0.1C15.2,420.6,15.3,421,15.3,421.4z M15.1,420C15.1,420,15.1,420.1,15.1,420
		L15.1,420L15.1,420z M14.9,418.5c0.1,0.4,0.1,0.9,0.2,1.3l-0.1-0.1C14.9,419.3,14.9,418.9,14.9,418.5
		C14.8,418.5,14.9,418.5,14.9,418.5z M14.8,412.7c0-0.1,0-0.1,0-0.2c0-0.2,0-0.4,0.1-0.5l0.1-0.1C14.9,412.1,14.8,412.4,14.8,412.7z
		 M14.9,411.8L14.9,411.8C14.9,411.8,14.9,411.7,14.9,411.8L14.9,411.8C14.9,411.7,14.9,411.7,14.9,411.8z M14.9,411.6L14.9,411.6
		c0-0.1,0-0.2,0-0.3c0,0.1,0,0.1,0,0.2C15,411.5,15,411.5,14.9,411.6z M15,411.3v-0.2V411h0.1C15,411.1,15,411.2,15,411.3z
		 M15.1,410.9L15.1,410.9C15.1,410.8,15.1,410.8,15.1,410.9l0.1-0.2C15.1,410.8,15.1,410.8,15.1,410.9z M15,410.7
		C15,410.6,15.1,410.6,15,410.7L15,410.7L15,410.7z M15.1,409.9c-0.1-0.2-0.1-0.6-0.2-1l0,0l0.2,0.6
		C15.1,409.7,15.1,409.8,15.1,409.9L15.1,409.9z M15.2,409.9L15.2,409.9c0-0.1-0.1-0.1-0.1-0.2L15.2,409.9z M15.1,409.6l-0.1-0.3
		c0-0.1-0.1-0.3-0.1-0.4l0,0C15.1,409.2,15.1,409.4,15.1,409.6z M15,408.8C15,408.9,15,408.9,15,408.8L15,408.8
		C15,408.9,15,408.9,15,408.8L15,408.8z M14.9,408.6L14.9,408.6c-0.1-0.5-0.2-0.9-0.3-1.3h0.1C14.8,407.8,14.9,408.2,14.9,408.6z
		 M14.7,407.3L14.7,407.3L14.7,407.3C14.6,407.2,14.7,407.2,14.7,407.3C14.7,407.2,14.7,407.2,14.7,407.3z M14.6,407
		C14.6,407,14.6,406.9,14.6,407c-0.1-0.5-0.2-0.9-0.3-1.3l0,0C14.5,406.1,14.6,406.6,14.6,407z M14.4,405.6L14.4,405.6L14.4,405.6
		L14.4,405.6z M14.2,404.1c0.1,0.4,0.1,0.9,0.2,1.3l-0.1-0.1C14.2,404.9,14.2,404.5,14.2,404.1C14.1,404.1,14.2,404.1,14.2,404.1z
		 M14.1,398.2c0-0.1,0-0.1,0-0.2c0-0.2,0-0.4,0.1-0.5l0.1-0.1C14.2,397.7,14.1,397.9,14.1,398.2z M14.2,397.3
		C14.2,397.3,14.2,397.4,14.2,397.3L14.2,397.3L14.2,397.3L14.2,397.3z M14.2,397.1L14.2,397.1c0-0.1,0-0.2,0-0.3c0,0.1,0,0.2,0,0.2
		C14.3,397.1,14.3,397.1,14.2,397.1z M14.4,396.1L14.4,396.1L14.4,396.1C14.3,396.2,14.4,396.2,14.4,396.1z M14.3,396.3l0.1-0.1
		c0,0.1,0,0.2-0.1,0.3h-0.1C14.3,396.4,14.3,396.4,14.3,396.3z M14.4,396.5c0,0.1,0,0.2-0.1,0.3v-0.2
		C14.3,396.6,14.3,396.5,14.4,396.5L14.4,396.5z M14.3,396.1c0,0.1,0,0.1-0.1,0.2v-0.1L14.3,396.1L14.3,396.1z M14.2,396.1
		L14.2,396.1L14.2,396.1L14.2,396.1z M14.2,396.4L14.2,396.4L14.2,396.4L14.2,396.4z M14.1,396.1L14.1,396.1c0,0,0,0.1,0,0.2v0.1H14
		C14.1,396.3,14.1,396.2,14.1,396.1z M14.1,396.4L14.1,396.4v0.2l-0.1,0.1C14,396.6,14,396.5,14.1,396.4z M13.9,396.9l0.1-0.1
		l-0.1,0.2l0,0C13.9,397,13.9,396.9,13.9,396.9z M13.9,397.1L13.9,397.1L13.9,397.1C13.9,397.2,13.9,397.2,13.9,397.1
		C13.9,397.2,13.9,397.2,13.9,397.1z M13.8,397.3L13.8,397.3l-0.1,0.2C13.8,397.4,13.8,397.4,13.8,397.3z M13.6,398l0.2-0.6
		c0,0.1,0,0.2,0.1,0.3l0,0C13.8,397.8,13.7,398,13.6,398C13.6,398.1,13.6,398,13.6,398z M13.6,398.2c0.1-0.1,0.2-0.2,0.3-0.4
		c0,0.2-0.1,0.4-0.1,0.5L13.6,398.2L13.6,398.2z M13.6,398.4l0.2,0.1c0,0,0,0,0,0.1L13.6,398.4L13.6,398.4L13.6,398.4z M13.4,398.9
		c0-0.1,0.1-0.3,0.1-0.4c0.1,0.1,0.1,0.3,0.2,0.5c-0.1,0.1-0.3,0.3-0.4,0.4C13.4,399.2,13.4,399,13.4,398.9z M13.3,399.4
		c0.1-0.1,0.2-0.2,0.4-0.4c0,0.2,0,0.4-0.1,0.6l-0.3-0.1C13.3,399.5,13.3,399.5,13.3,399.4z M13.3,399.7l0.3,0.1v0.1L13.3,399.7
		L13.3,399.7L13.3,399.7z M13.6,399.9c0,0.1,0,0.2,0,0.3l0,0c-0.1-0.2-0.2-0.3-0.2-0.5L13.6,399.9z M13.3,399.8
		c0.1,0.1,0.2,0.3,0.3,0.5c-0.1,0.1-0.3,0.2-0.4,0.3C13.2,400.3,13.2,400,13.3,399.8z M13.2,400.7c0.1-0.1,0.3-0.2,0.4-0.3l0,0
		c0,0.2,0,0.4,0,0.6l-0.4-0.1C13.2,400.8,13.2,400.7,13.2,400.7z M13.1,400.9l0.4,0.1v0.1L13.1,400.9C13.1,401,13.1,401,13.1,400.9z
		 M13.6,401.2c0,0.1,0,0.2,0,0.3c0,0-0.1,0-0.1,0.1c-0.1-0.2-0.2-0.4-0.3-0.5L13.6,401.2z M13.6,401.6L13.6,401.6c0,0.1,0,0.1,0,0.1
		C13.5,401.7,13.5,401.6,13.6,401.6C13.5,401.6,13.5,401.6,13.6,401.6z M13.1,401.1c0.1,0.1,0.2,0.3,0.3,0.5
		c-0.1,0.1-0.2,0.2-0.4,0.3C13.1,401.6,13.1,401.4,13.1,401.1z M13.1,401.9c0.1-0.1,0.3-0.2,0.4-0.3c0,0.1,0.1,0.1,0.1,0.2
		c0,0.2,0,0.3,0,0.5l-0.5-0.2C13.1,402.1,13.1,402,13.1,401.9z M13.1,402.3l0.5,0.2v0.1L13.1,402.3L13.1,402.3z M13.1,402.4l0.6,0.2
		c0,0.1,0,0.2,0,0.2c-0.1,0-0.1,0.1-0.2,0.1C13.3,402.7,13.2,402.6,13.1,402.4L13.1,402.4z M3.1,437.7L3.1,437.7L3.1,437.7
		L3.1,437.7L3.1,437.7z M3.1,437.8L3,438C3,437.9,3,437.9,3.1,437.8L3.1,437.8L3.1,437.8z M3.1,437.5L3.1,437.5
		c0-0.1,0.1-0.1,0.2-0.2L3.1,437.5L3.1,437.5z M3.6,434.5c0,0,0.1,0.1,0.2,0.2c0,0.3-0.1,0.5-0.2,0.8c-0.1,0.1-0.2,0.2-0.2,0.3
		C3.5,435.4,3.6,435,3.6,434.5z M3.6,434.4L3.6,434.4L3.6,434.4L3.6,434.4z M3.8,423.3L3.8,423.3L3.8,423.3L3.8,423.3L3.8,423.3z
		 M3.8,423.4l-0.1,0.2C3.7,423.5,3.7,423.4,3.8,423.4L3.8,423.4L3.8,423.4z M3.8,423.1L3.8,423.1c0-0.1,0.1-0.1,0.2-0.2L3.8,423.1
		L3.8,423.1z M4.3,420.1c0,0,0.1,0.1,0.2,0.2c0,0.3-0.1,0.5-0.2,0.8c-0.1,0.1-0.2,0.2-0.2,0.3C4.2,420.9,4.3,420.5,4.3,420.1z
		 M4.3,420L4.3,420L4.3,420L4.3,420z M4.5,408.8L4.5,408.8L4.5,408.8L4.5,408.8L4.5,408.8z M4.5,408.9l-0.1,0.2
		C4.4,409,4.4,409,4.5,408.9L4.5,408.9L4.5,408.9z M4.5,408.6L4.5,408.6c0-0.1,0.1-0.1,0.2-0.2L4.5,408.6L4.5,408.6z M5,405.7
		c0,0,0.1,0.1,0.2,0.2c0,0.3-0.1,0.5-0.2,0.8c-0.1,0.1-0.2,0.2-0.2,0.3C4.9,406.5,5,406.1,5,405.7z M5,405.5L5,405.5L5,405.5
		L5,405.5z M5.6,399.7l-0.2,0.1c0-0.1,0-0.1,0-0.2s0.1-0.2,0.1-0.4C5.6,399.3,5.6,399.5,5.6,399.7z M5.6,398.6l0.2-0.1
		c0,0.1-0.1,0.2-0.1,0.4C5.6,398.8,5.6,398.7,5.6,398.6z M5.7,401.5c-0.1-0.1-0.1-0.1-0.2-0.2l0.2-0.1
		C5.7,401.3,5.7,401.4,5.7,401.5z M5.7,401.5v0.1c0,0.1,0,0.1,0,0.2c-0.1,0.1-0.2,0.3-0.3,0.4c0-0.2,0-0.3,0-0.5c0-0.1,0-0.3,0-0.4
		C5.5,401.4,5.6,401.4,5.7,401.5z M5.5,401.3C5.5,401.2,5.5,401.2,5.5,401.3l0.2-0.2v0.1L5.5,401.3z M5.5,401.1c0-0.1,0-0.1,0-0.2
		c0.1-0.1,0.1-0.3,0.2-0.4c0,0.2,0,0.3,0,0.5L5.5,401.1z M5.5,400.8c0-0.3,0-0.5,0-0.8c0.1,0.1,0.1,0.1,0.2,0.2c0,0.1,0,0.1,0,0.2
		C5.6,400.5,5.5,400.7,5.5,400.8z M5.5,400l0.2-0.1c0,0.1,0,0.2,0,0.3C5.6,400.1,5.5,400,5.5,400z M5.5,399.9L5.5,399.9l0.2-0.1v0.1
		H5.5z M5.4,399.4c0-0.2,0-0.4,0-0.6c0.1,0.1,0.1,0.1,0.2,0.2v0.1C5.5,399.1,5.5,399.3,5.4,399.4z M5.3,398.7L5.3,398.7
		c0.1,0.3,0.1,0.5,0.1,0.8c0,0.1,0,0.1-0.1,0.1C5.3,399.3,5.3,399,5.3,398.7L5.3,398.7z M5.3,398.6L5.3,398.6L5.3,398.6L5.3,398.6
		L5.3,398.6L5.3,398.6z M5.4,399.9L5.4,399.9L5.4,399.9L5.4,399.9z M5.4,400L5.4,400C5.4,400,5.4,399.9,5.4,400
		C5.4,399.9,5.4,399.9,5.4,400z M5.4,399.8C5.4,399.8,5.4,399.7,5.4,399.8c0-0.1,0-0.1,0.1-0.2C5.4,399.6,5.4,399.7,5.4,399.8
		L5.4,399.8z M5.3,402.6L5.3,402.6C5.4,402.6,5.4,402.6,5.3,402.6L5.3,402.6L5.3,402.6z M5.4,402.6L5.4,402.6L5.4,402.6L5.4,402.6z
		 M5.4,402.5C5.4,402.4,5.4,402.4,5.4,402.5C5.4,402.4,5.4,402.4,5.4,402.5L5.4,402.5z M5.4,402.4c0-0.2,0-0.4,0-0.6
		c0-0.2,0-0.3,0-0.5h0.1c0,0.1,0,0.3,0,0.4C5.4,401.9,5.4,402.1,5.4,402.4C5.4,402.3,5.4,402.4,5.4,402.4z M5.4,401.3L5.4,401.3
		L5.4,401.3L5.4,401.3z M5.4,401.2L5.4,401.2L5.4,401.2L5.4,401.2z M5.4,401.1L5.4,401.1c0,0,0-0.1,0.1-0.1
		C5.4,401,5.4,401.1,5.4,401.1L5.4,401.1z M5.4,401c0-0.3,0-0.7,0-1l0,0l0,0c0,0.3,0,0.6,0,0.9V401z M5.4,398.7L5.4,398.7l0.1-0.1
		c0,0.1,0,0.2,0,0.3C5.5,398.8,5.4,398.7,5.4,398.7z M5.4,398.6C5.4,398.6,5.4,398.5,5.4,398.6l0.1-0.1c0,0,0,0,0,0.1H5.4z
		 M5.4,398.4c0-0.1,0-0.2,0-0.3s0-0.2,0.1-0.2c0,0.2,0.1,0.3,0.1,0.5H5.4z M5.3,397.2L5.3,397.2l0.1,0.1c0,0.1,0,0.2-0.1,0.3
		C5.4,397.4,5.4,397.3,5.3,397.2z M5.3,397.1c0-0.2-0.1-0.3-0.1-0.5l0.1,0.1V397.1L5.3,397.1z M5.2,396.5L5.2,396.5L5.2,396.5
		L5.2,396.5z M5.2,397.1L5.2,397.1c-0.1-0.1-0.1-0.3-0.1-0.4l0,0C5.2,396.8,5.2,397,5.2,397.1z M5.3,397.2c0,0.1,0.1,0.2,0.1,0.4
		c0,0,0-0.1-0.1-0.1C5.2,397.4,5.2,397.3,5.3,397.2L5.3,397.2z M5.4,397.7L5.4,397.7c0,0.1,0,0.2,0,0.3c0-0.1,0-0.3,0-0.4
		C5.3,397.6,5.3,397.6,5.4,397.7z M5.3,398.4L5.3,398.4L5.3,398.4c-0.1-0.1,0-0.2,0-0.2C5.3,398.3,5.3,398.3,5.3,398.4z M5.3,402.7
		L5.3,402.7c0,0.3,0,0.6,0,0.9H5.2C5.3,403.3,5.3,403,5.3,402.7z M5.6,403.6L5.6,403.6l-0.2,0.1l0,0L5.6,403.6z M5.5,403.5l0.1-0.1
		C5.6,403.4,5.6,403.4,5.5,403.5L5.5,403.5z M5.4,406.8l0.1-0.3L5.4,406.8L5.4,406.8z M5.4,407L5.4,407l-0.1,0.1L5.4,407L5.4,407z
		 M5.3,406.8l-0.2,0.1c0-0.1,0-0.2,0.1-0.3s0.3-0.3,0.4-0.5l0,0L5.3,406.8z M5,407.5L5,407.5L4.9,408C4.9,407.8,4.9,407.6,5,407.5z
		 M4.9,407.3L4.9,407.3L4.9,407.3C4.9,407.2,4.9,407.3,4.9,407.3z M5.1,407.6l0.1,0.1c-0.1,0.1-0.2,0.2-0.3,0.4L5.1,407.6z M5,407.4
		L5,407.4c-0.1-0.1,0-0.2,0-0.2h0.1L5,407.4z M5,407.1L5,407.1l0.2-0.1v0.1H5z M5.3,405.9c0.1,0.1,0.1,0.1,0.2,0.2
		c-0.1,0.1-0.2,0.3-0.3,0.4C5.2,406.3,5.2,406.1,5.3,405.9z M5.2,405.7l-0.1-0.1l0.2-0.1C5.2,405.6,5.2,405.7,5.2,405.7z M5.5,406
		c-0.1-0.1-0.2-0.2-0.2-0.2c0-0.1,0-0.2,0-0.3l0.3-0.1L5.5,406C5.6,406,5.6,406,5.5,406z M5.4,405.5C5.4,405.4,5.4,405.4,5.4,405.5
		l0.3-0.2v0.1L5.4,405.5z M5.4,405.3c0-0.1,0-0.2,0.1-0.3s0.2-0.3,0.3-0.4l-0.1,0.6L5.4,405.3z M5.5,404.8c0-0.2,0.1-0.3,0.1-0.5
		c0.1,0,0.1,0.1,0.2,0.1L5.5,404.8z M5.5,404c0,0.1,0,0.1,0,0.2l-0.2-0.1l0,0L5.5,404z M5.3,403.7L5.3,403.7L5.3,403.7
		C5.2,403.7,5.2,403.7,5.3,403.7L5.3,403.7z M5.5,404.2c0,0.2-0.1,0.4-0.1,0.7l-0.3,0.3c0.1-0.4,0.1-0.7,0.2-1.1
		C5.3,404.2,5.4,404.2,5.5,404.2z M5.3,405.1c0,0.1,0,0.2,0,0.2l-0.2,0.1C5.2,405.3,5.2,405.2,5.3,405.1z M5.3,405.4
		C5.3,405.5,5.3,405.5,5.3,405.4l-0.2,0.2l0,0c0,0,0,0,0-0.1L5.3,405.4z M5,406.8c0,0.1,0,0.1,0,0.2l-0.2,0.1
		C4.9,406.9,4.9,406.8,5,406.8z M5,407.1C5,407.1,4.9,407.2,5,407.1l-0.1,0.1l0,0l0,0L5,407.1z M4.9,407.4c-0.1,0.3-0.1,0.6-0.2,0.9
		c-0.1,0.1-0.1,0.1-0.2,0.2c0.1-0.4,0.2-0.8,0.2-1.2l0,0C4.8,407.3,4.8,407.3,4.9,407.4z M5.1,416c0-0.1,0-0.2,0-0.3l0.4-0.1
		C5.4,415.7,5.3,415.8,5.1,416C5.2,416,5.1,416,5.1,416z M5.2,416.1c0,0,0,0.1-0.1,0.1C5.1,416.1,5.1,416.1,5.2,416.1
		C5.1,416.1,5.1,416,5.2,416.1C5.1,416,5.1,416,5.2,416.1z M5.5,408.9c-0.1,0.2-0.1,0.4-0.2,0.6c-0.1-0.1-0.2-0.1-0.2-0.2L5.5,408.9
		L5.5,408.9z M5.5,415c-0.1-0.1-0.2-0.2-0.4-0.3c0.1-0.2,0.2-0.4,0.3-0.5C5.4,414.5,5.4,414.8,5.5,415z M4.8,415.5
		c0-0.1,0-0.1,0-0.2c0.1-0.1,0.1-0.3,0.2-0.4c0,0.2,0,0.3,0,0.5L4.8,415.5z M5,415.6L5,415.6l-0.2,0.2v-0.1L5,415.6z M4.8,415.3
		c0-0.3,0-0.5,0-0.8c0.1,0.1,0.1,0.1,0.2,0.2c0,0.1,0,0.1,0,0.2C4.9,415,4.8,415.1,4.8,415.3z M4.8,414.4l0.2-0.1c0,0.1,0,0.2,0,0.3
		C4.9,414.5,4.8,414.5,4.8,414.4z M4.8,414.4C4.8,414.3,4.8,414.3,4.8,414.4l0.2-0.1v0.1H4.8z M4.9,413.4c0.1-0.2,0.1-0.3,0.2-0.5
		c0,0.1,0.1,0.3,0.1,0.4c0,0.1,0.1,0.3,0.1,0.5C5.2,413.7,5.1,413.5,4.9,413.4z M4.8,413c0,0.1,0,0.2,0,0.3
		c-0.1-0.1-0.1-0.1-0.2-0.2l0,0L4.8,413z M4.7,413L4.7,413l0.1-0.1c0,0,0,0,0,0.1H4.7z M4.8,412.3c0.1,0.1,0.2,0.3,0.3,0.4v0.1
		l-0.2,0.1C4.8,412.6,4.8,412.4,4.8,412.3z M4.8,411.8l0.2,0.6l0,0c-0.1-0.1-0.2-0.2-0.3-0.3l0,0C4.8,412,4.8,411.9,4.8,411.8z
		 M4.8,411.7L4.8,411.7L4.8,411.7C4.8,411.6,4.8,411.6,4.8,411.7L4.8,411.7z M4.8,411.8L4.8,411.8c0,0,0,0.1,0.1,0.2L4.8,411.8z
		 M5.1,412.8L5.1,412.8C5.1,412.9,5.1,412.9,5.1,412.8l-0.2,0.1v-0.1H5.1z M5.1,413c0,0.1-0.1,0.2-0.1,0.4c0-0.1,0-0.2,0-0.3
		L5.1,413z M5.3,409.6c0,0.1-0.1,0.2-0.1,0.3L5,410l0,0l0.1-0.6L5.3,409.6z M5,409.2c-0.1-0.1-0.2-0.2-0.3-0.3v-0.1l0.4-0.1L5,409.2
		z M4.9,409.9H4.5l0.5-0.6L4.9,409.9z M4.6,410.9c0,0.1,0.1,0.2,0.1,0.3l-0.1-0.1V410.9L4.6,410.9z M4.5,410.9L4.5,410.9
		c0-0.2,0-0.2,0-0.3l0,0C4.5,410.7,4.6,410.7,4.5,410.9L4.5,410.9z M4.7,411.3L4.7,411.3L4.7,411.3l-0.1-0.1
		C4.7,411.3,4.7,411.3,4.7,411.3z M4.5,410.8L4.5,410.8L4.5,410.8C4.5,410.9,4.5,410.8,4.5,410.8z M4.5,410.9L4.5,410.9L4.5,410.9
		L4.5,410.9z M4.6,411.1l0.1,0.4H4.6c0-0.2-0.1-0.3-0.1-0.5C4.5,411,4.5,411.1,4.6,411.1z M4.7,411.6v0.1c0,0.1,0,0.2-0.1,0.3
		C4.7,411.9,4.7,411.8,4.7,411.6L4.7,411.6z M4.8,412.8H4.7c0-0.1,0-0.2,0-0.3s0-0.2,0.1-0.2C4.7,412.5,4.8,412.6,4.8,412.8z
		 M4.6,413L4.6,413L4.6,413L4.6,413L4.6,413L4.6,413z M4.6,413.1L4.6,413.1c0.1,0.3,0.1,0.5,0.1,0.8c0,0.1,0,0.1-0.1,0.1
		C4.6,413.7,4.6,413.4,4.6,413.1L4.6,413.1z M4.7,414.3L4.7,414.3C4.7,414.3,4.7,414.4,4.7,414.3C4.7,414.4,4.7,414.3,4.7,414.3z
		 M4.7,414.4L4.7,414.4L4.7,414.4L4.7,414.4z M4.7,414.2L4.7,414.2c0-0.1,0-0.1,0.1-0.2C4.7,414.1,4.7,414.1,4.7,414.2L4.7,414.2z
		 M4.6,417.1L4.6,417.1L4.6,417.1L4.6,417.1L4.6,417.1z M4.7,417L4.7,417L4.7,417L4.7,417z M4.7,416.9L4.7,416.9L4.7,416.9
		L4.7,416.9z M4.7,416.8c0-0.2,0-0.4,0-0.6c0-0.2,0-0.3,0-0.5h0.1c0,0.1,0,0.3,0,0.4C4.7,416.4,4.7,416.6,4.7,416.8L4.7,416.8z
		 M4.7,415.8C4.7,415.7,4.7,415.7,4.7,415.8C4.7,415.7,4.7,415.7,4.7,415.8L4.7,415.8z M4.7,415.7L4.7,415.7L4.7,415.7L4.7,415.7z
		 M4.7,415.5L4.7,415.5c0,0,0-0.1,0.1-0.1C4.7,415.5,4.7,415.5,4.7,415.5L4.7,415.5z M4.7,415.4c0-0.3,0-0.7,0-1l0,0l0,0
		C4.7,414.7,4.7,415,4.7,415.4C4.7,415.4,4.7,415.4,4.7,415.4z M4.7,413.8c0-0.2,0-0.4,0-0.6c0.1,0.1,0.1,0.1,0.2,0.2c0,0,0,0,0,0.1
		C4.8,413.6,4.8,413.7,4.7,413.8z M4.9,413.6c0,0.2,0,0.4,0.1,0.5l-0.2,0.1c0-0.1,0-0.1,0-0.2C4.8,413.8,4.8,413.7,4.9,413.6z
		 M4.8,416.2c0-0.1,0-0.3,0-0.4c0.1,0.1,0.2,0.1,0.2,0.2v0.1c0,0.1,0,0.1,0,0.2c-0.1,0.1-0.2,0.3-0.3,0.4
		C4.8,416.5,4.8,416.4,4.8,416.2z M4.8,415.8l0.2-0.1c0,0.1,0,0.1,0,0.2C4.9,415.8,4.9,415.8,4.8,415.8z M5,414.1
		c0-0.2,0-0.4-0.1-0.6c0.1,0.1,0.3,0.3,0.4,0.4v0.1L5,414.1z M5.4,414.1L5.4,414.1C5.4,414.2,5.4,414.2,5.4,414.1l-0.3,0.2v-0.1
		L5.4,414.1z M5.3,414.2c-0.1,0.1-0.2,0.3-0.2,0.5l0,0c0-0.1,0-0.2,0-0.3L5.3,414.2z M5.1,414.8c0.1,0.1,0.3,0.2,0.4,0.3
		c0,0.1,0,0.1,0,0.2l-0.4,0.1C5.1,415.2,5.1,415,5.1,414.8L5.1,414.8z M5.1,415.5l0.4-0.1v0.1H5.1C5.1,415.6,5.1,415.6,5.1,415.5z
		 M5.5,408.6c-0.1,0.2-0.3,0.4-0.5,0.6l0.1-0.5L5.5,408.6L5.5,408.6z M5.1,408.7l-0.4,0.1c0,0,0,0,0-0.1H5.1L5.1,408.7z M4.6,409
		l0.3,0.3c-0.2,0.2-0.4,0.4-0.5,0.6C4.4,409.7,4.5,409.4,4.6,409z M4.5,410.6L4.5,410.6L4.5,410.6L4.5,410.6z M4.4,410.6v0.1v0.1
		C4.4,410.7,4.4,410.7,4.4,410.6L4.4,410.6z M4.4,411.1c0,0.1,0.1,0.3,0.1,0.4l0,0C4.5,411.4,4.5,411.3,4.4,411.1L4.4,411.1z
		 M4.6,411.7c0,0.1,0.1,0.2,0.1,0.4L4.6,412C4.5,411.8,4.5,411.8,4.6,411.7L4.6,411.7z M4.7,412.1C4.7,412.1,4.7,412.2,4.7,412.1
		c0,0.1,0,0.2,0,0.3c0-0.1,0-0.3,0-0.4C4.6,412,4.6,412.1,4.7,412.1z M4.6,412.9L4.6,412.9C4.6,412.9,4.6,412.8,4.6,412.9
		c-0.1-0.1,0-0.2,0-0.2S4.6,412.8,4.6,412.9z M4.6,417.2L4.6,417.2c0,0.3,0,0.6,0,0.9H4.5C4.6,417.7,4.6,417.4,4.6,417.2z M4.9,418
		L4.9,418l-0.2,0.1l0,0L4.9,418z M4.8,418l0.1-0.1C4.9,417.9,4.9,417.9,4.8,418L4.8,418z M4.7,421.3l0.1-0.3L4.7,421.3L4.7,421.3z
		 M4.7,421.4L4.7,421.4l-0.1,0.1L4.7,421.4L4.7,421.4z M4.6,421.3l-0.2,0.1c0-0.1,0-0.2,0.1-0.3s0.3-0.3,0.4-0.5l0,0L4.6,421.3z
		 M4.3,421.9L4.3,421.9l-0.1,0.5C4.2,422.2,4.2,422.1,4.3,421.9z M4.2,421.8C4.2,421.7,4.2,421.7,4.2,421.8L4.2,421.8
		C4.2,421.7,4.2,421.7,4.2,421.8z M4.4,422l0.1,0.1c-0.1,0.1-0.2,0.2-0.3,0.3L4.4,422z M4.3,421.9C4.3,421.9,4.3,421.8,4.3,421.9
		c-0.1-0.1,0-0.2,0-0.2h0.1L4.3,421.9z M4.3,421.6C4.3,421.6,4.3,421.5,4.3,421.6l0.2-0.1v0.1H4.3z M4.6,420.3
		c0.1,0.1,0.1,0.1,0.2,0.2c-0.1,0.1-0.2,0.3-0.3,0.4C4.5,420.7,4.5,420.5,4.6,420.3z M4.5,420.2l-0.1-0.1l0.1-0.1
		C4.5,420.1,4.5,420.1,4.5,420.2z M4.8,420.5c-0.1-0.1-0.2-0.2-0.2-0.2c0-0.1,0-0.2,0-0.3l0.3-0.1L4.8,420.5
		C4.9,420.5,4.9,420.5,4.8,420.5z M4.7,419.9L4.7,419.9l0.3-0.2v0.1L4.7,419.9z M4.7,419.7c0-0.1,0-0.2,0.1-0.3
		c0.1-0.1,0.2-0.3,0.3-0.4L5,419.6L4.7,419.7z M4.8,419.2c0-0.2,0.1-0.3,0.1-0.5c0.1,0,0.1,0.1,0.2,0.1L4.8,419.2z M4.8,418.4
		c0,0.1,0,0.1,0,0.2l-0.2-0.1L4.8,418.4z M4.6,418.1L4.6,418.1L4.6,418.1C4.5,418.1,4.5,418.1,4.6,418.1L4.6,418.1z M4.6,418.6
		c0.1,0,0.1,0.1,0.2,0.1c0,0.2-0.1,0.4-0.1,0.7l-0.3,0.3C4.5,419.3,4.5,418.9,4.6,418.6z M4.6,419.5c0,0.1,0,0.2,0,0.2l-0.2,0.1
		C4.5,419.7,4.5,419.6,4.6,419.5z M4.6,419.9L4.6,419.9l-0.2,0.2l0,0c0,0,0,0,0-0.1L4.6,419.9z M4.3,421.2c0,0.1,0,0.1,0,0.2
		l-0.2,0.1C4.2,421.4,4.2,421.3,4.3,421.2z M4.3,421.6C4.3,421.6,4.2,421.6,4.3,421.6l-0.1,0.1l0,0l0,0L4.3,421.6z M4.2,421.8
		c-0.1,0.3-0.1,0.6-0.2,0.9c-0.1,0.1-0.1,0.1-0.2,0.2c0.1-0.4,0.1-0.8,0.2-1.2l0,0C4.1,421.8,4.1,421.8,4.2,421.8z M4.4,430.4
		c0-0.1,0-0.2,0-0.3l0.4-0.1C4.7,430.1,4.6,430.3,4.4,430.4C4.5,430.4,4.4,430.4,4.4,430.4z M4.5,430.5
		C4.4,430.5,4.4,430.6,4.5,430.5C4.4,430.6,4.4,430.6,4.5,430.5C4.4,430.5,4.4,430.5,4.5,430.5C4.4,430.5,4.4,430.5,4.5,430.5z
		 M4.4,430.1C4.4,430,4.4,430,4.4,430.1l0.4-0.2v0.1L4.4,430.1z M4.8,423.4c-0.1,0.2-0.1,0.4-0.2,0.6c-0.1-0.1-0.2-0.1-0.2-0.2
		L4.8,423.4L4.8,423.4z M4.8,429.5c-0.1-0.1-0.2-0.2-0.4-0.3c0.1-0.2,0.2-0.4,0.3-0.5C4.7,428.9,4.7,429.2,4.8,429.5z M4.1,430
		c0-0.1,0-0.1,0-0.2c0.1-0.1,0.1-0.3,0.2-0.4c0,0.2,0,0.3,0,0.5L4.1,430z M4.3,430C4.3,430,4.3,430.1,4.3,430l-0.2,0.2v-0.1L4.3,430
		z M4.1,429.7c0-0.3,0-0.5,0-0.8c0.1,0.1,0.1,0.1,0.2,0.2c0,0.1,0,0.1,0,0.2C4.2,429.4,4.1,429.6,4.1,429.7z M4.1,428.9l0.2-0.1
		c0,0.1,0,0.2,0,0.3C4.2,429,4.1,428.9,4.1,428.9z M4.1,428.8L4.1,428.8l0.2-0.1v0.1H4.1z M4.1,427.5c0,0.1,0,0.2,0,0.3
		c-0.1-0.1-0.1-0.1-0.2-0.2l0,0L4.1,427.5z M4,427.5C4,427.5,4,427.4,4,427.5l0.1-0.1c0,0,0,0,0,0.1H4z M4.1,426.7
		c0.1,0.1,0.2,0.3,0.3,0.4v0.1l-0.2,0.1C4.1,427.1,4.1,426.9,4.1,426.7z M4.1,426.3l0.2,0.6l0,0c-0.1-0.1-0.2-0.2-0.3-0.4l0,0
		C4.1,426.5,4.1,426.4,4.1,426.3z M4.1,426.1L4.1,426.1L4.1,426.1C4.1,426,4.1,426.1,4.1,426.1L4.1,426.1z M4.1,426.2L4.1,426.2
		c0,0,0,0.1,0.1,0.2L4.1,426.2z M4.4,427.3L4.4,427.3L4.4,427.3l-0.2,0.2v-0.1L4.4,427.3z M4.4,427.4c0,0.1-0.1,0.2-0.1,0.4
		c0-0.1,0-0.2,0-0.3L4.4,427.4z M4.4,427.4c0,0.1,0.1,0.3,0.1,0.4c0,0.1,0.1,0.3,0.1,0.5c-0.1-0.1-0.2-0.2-0.3-0.4
		C4.3,427.7,4.4,427.5,4.4,427.4z M4.6,424c0,0.1-0.1,0.2-0.1,0.3l-0.2,0.1l0,0l0.1-0.6L4.6,424z M4.3,423.7
		c-0.1-0.1-0.2-0.2-0.4-0.3v-0.1l0.4-0.1V423.7z M4.2,424.4H3.8l0.5-0.6L4.2,424.4z M3.9,425.3c0,0.1,0.1,0.2,0.1,0.3l-0.1-0.1
		V425.3L3.9,425.3z M3.8,425.3v-0.1c0-0.1,0-0.1,0-0.2l0,0C3.9,425.1,3.9,425.2,3.8,425.3L3.8,425.3z M4,425.8L4,425.8L4,425.8
		l-0.1-0.2C4,425.7,4,425.8,4,425.8z M3.8,425.3L3.8,425.3L3.8,425.3L3.8,425.3z M3.8,425.4L3.8,425.4L3.8,425.4L3.8,425.4z
		 M3.9,425.6L4,426H3.9c0-0.2-0.1-0.3-0.1-0.5C3.8,425.5,3.9,425.5,3.9,425.6z M4,426v0.1c0,0.1,0,0.2-0.1,0.2
		C4,426.3,4,426.2,4,426L4,426z M4.1,427.3H4c0-0.1,0-0.2,0-0.3s0-0.2,0.1-0.2C4,426.9,4.1,427.1,4.1,427.3z M3.9,427.4
		C3.9,427.5,3.9,427.5,3.9,427.4L3.9,427.4C3.9,427.5,3.9,427.5,3.9,427.4C3.9,427.5,3.9,427.4,3.9,427.4L3.9,427.4z M3.9,427.6
		L3.9,427.6c0.1,0.3,0.1,0.5,0.1,0.8c0,0.1,0,0.1-0.1,0.1C3.9,428.2,3.9,427.9,3.9,427.6L3.9,427.6z M4,428.9L4,428.9L4,428.9
		c0.1,0.3,0.1,0.6,0.1,0.9c0,0,0,0.1-0.1,0.1C4,429.5,4,429.2,4,428.9z M4,430.2L4,430.2L4,430.2L4,430.2z M4,428.8L4,428.8L4,428.8
		L4,428.8z M4,428.8L4,428.8L4,428.8L4,428.8z M4,428.7C4,428.6,4,428.6,4,428.7c0-0.1,0-0.1,0.1-0.2C4,428.5,4,428.6,4,428.7
		L4,428.7z M3.9,431.5L3.9,431.5C4,431.5,4,431.5,3.9,431.5L3.9,431.5L3.9,431.5z M4,431.5L4,431.5L4,431.5L4,431.5z M4,431.4
		C4,431.3,4,431.3,4,431.4C4,431.3,4,431.3,4,431.4L4,431.4z M4,431.3c0-0.2,0-0.4,0-0.6c0-0.2,0-0.3,0-0.5h0.1c0,0.1,0,0.3,0,0.4
		C4,430.8,4,431,4,431.3C4,431.2,4,431.3,4,431.3z M4,430.1L4,430.1L4,430.1L4,430.1z M4,430L4,430c0,0,0-0.1,0.1-0.1
		C4,429.9,4,429.9,4,430L4,430z M4,428.3c0-0.2,0-0.4,0-0.6c0,0.1,0.1,0.1,0.2,0.2v0.1C4.1,428,4.1,428.2,4,428.3z M4.2,428
		c0,0.2,0,0.4,0.1,0.5l-0.2,0.1c0-0.1,0-0.1,0-0.2C4.1,428.3,4.1,428.2,4.2,428z M4.1,430.6c0-0.1,0-0.3,0-0.4
		c0.1,0,0.2,0.1,0.3,0.2v0.1c0,0.1,0,0.1,0,0.2c-0.1,0.1-0.2,0.3-0.3,0.4C4.1,431,4.1,430.8,4.1,430.6z M4.1,430.2l0.2-0.1
		c0,0.1,0,0.1,0,0.2C4.2,430.3,4.2,430.2,4.1,430.2z M4.3,428.5c0-0.2,0-0.4-0.1-0.6c0.1,0.1,0.3,0.3,0.4,0.4v0.1L4.3,428.5z
		 M4.7,428.5C4.7,428.6,4.7,428.6,4.7,428.5C4.7,428.6,4.7,428.6,4.7,428.5l-0.3,0.2v-0.1L4.7,428.5z M4.6,428.7
		c-0.1,0.1-0.2,0.3-0.2,0.5l0,0c0-0.1,0-0.2,0-0.3L4.6,428.7z M4.4,429.2c0.1,0.1,0.3,0.2,0.4,0.3c0,0.1,0,0.1,0,0.2l-0.4,0.1
		C4.4,429.7,4.4,429.5,4.4,429.2L4.4,429.2z M4.8,423.1c-0.1,0.2-0.3,0.4-0.5,0.6l0.1-0.5L4.8,423.1L4.8,423.1z M4.4,423.1L4,423.2
		c0,0,0,0,0-0.1H4.4L4.4,423.1z M3.9,423.5l0.3,0.3c-0.2,0.2-0.4,0.4-0.5,0.6C3.7,424.1,3.8,423.8,3.9,423.5z M3.8,425L3.8,425
		L3.8,425L3.8,425z M3.7,425v0.1v0.1C3.7,425.2,3.7,425.1,3.7,425L3.7,425z M3.7,425.6c0,0.1,0.1,0.3,0.1,0.4l0,0
		C3.8,425.9,3.8,425.7,3.7,425.6L3.7,425.6z M3.9,426.1c0,0.1,0.1,0.2,0.1,0.4l-0.1-0.1C3.9,426.3,3.8,426.2,3.9,426.1L3.9,426.1z
		 M4,426.6L4,426.6c0,0.1,0,0.2,0,0.3c0-0.1,0-0.3,0-0.4C3.9,426.5,3.9,426.5,4,426.6z M3.9,427.3L3.9,427.3L3.9,427.3
		c-0.1-0.1,0-0.2,0-0.2C3.9,427.2,3.9,427.2,3.9,427.3z M3.9,431.6L3.9,431.6c0,0.3,0,0.6,0,0.9H3.8C3.9,432.2,3.9,431.9,3.9,431.6z
		 M4.2,432.5L4.2,432.5L4,432.6l0,0L4.2,432.5z M4.1,432.4l0.1-0.1C4.2,432.3,4.2,432.3,4.1,432.4L4.1,432.4z M4,435.7l0.1-0.3
		L4,435.7L4,435.7z M4,435.9L4,435.9L3.9,436L4,435.9L4,435.9z M3.9,435.7l-0.2,0.1c0-0.1,0-0.2,0.1-0.3s0.3-0.3,0.4-0.5l0,0
		L3.9,435.7z M3.6,436.4L3.6,436.4l-0.1,0.5C3.5,436.7,3.5,436.5,3.6,436.4z M3.5,436.2L3.5,436.2L3.5,436.2
		C3.5,436.1,3.5,436.2,3.5,436.2z M3.7,436.5l0.1,0.1c-0.1,0.1-0.2,0.2-0.3,0.4L3.7,436.5z M3.6,436.3L3.6,436.3
		c-0.1-0.1,0-0.2,0-0.2h0.1L3.6,436.3z M3.6,436L3.6,436l0.2-0.1v0.1H3.6z M3.9,434.8c0.1,0.1,0.1,0.1,0.2,0.2
		c-0.1,0.1-0.2,0.3-0.3,0.4C3.8,435.2,3.8,435,3.9,434.8z M3.8,434.6l-0.1-0.1l0.2-0.1C3.9,434.5,3.8,434.6,3.8,434.6z M4.1,434.9
		c-0.1-0.1-0.2-0.2-0.2-0.2c0-0.1,0-0.2,0-0.3l0.3-0.1L4.1,434.9C4.2,434.9,4.2,434.9,4.1,434.9z M4,434.4C4,434.3,4,434.3,4,434.4
		l0.3-0.2v0.1L4,434.4z M4,434.2c0-0.1,0-0.2,0.1-0.3s0.2-0.3,0.3-0.4l-0.1,0.6L4,434.2z M4.1,433.7c0-0.2,0.1-0.3,0.1-0.5
		c0.1,0,0.1,0.1,0.2,0.1L4.1,433.7z M4.1,432.9c0,0.1,0,0.1,0,0.2L3.9,433l0,0L4.1,432.9z M3.9,432.5C3.9,432.6,3.9,432.6,3.9,432.5
		L3.9,432.5C3.8,432.6,3.8,432.6,3.9,432.5L3.9,432.5z M4.1,433.1c0,0.2-0.1,0.4-0.1,0.7l-0.3,0.3c0.1-0.4,0.1-0.7,0.2-1.1
		C3.9,433,4,433.1,4.1,433.1z M3.9,434c0,0.1,0,0.2,0,0.2l-0.2,0.1C3.8,434.2,3.8,434.1,3.9,434z M3.9,434.3
		C3.9,434.3,3.9,434.4,3.9,434.3l-0.2,0.2l0,0c0,0,0,0,0-0.1L3.9,434.3z M3.6,435.6c0,0.1,0,0.1,0,0.2l-0.2,0.1
		C3.5,435.8,3.5,435.7,3.6,435.6z M3.6,436C3.6,436,3.5,436,3.6,436l-0.1,0.1l0,0l0,0L3.6,436z M3.5,436.3c-0.1,0.3-0.1,0.6-0.2,0.9
		c-0.1,0.1-0.1,0.1-0.2,0.2c0.1-0.4,0.2-0.8,0.2-1.2l0,0C3.4,436.2,3.4,436.2,3.5,436.3z M3.2,437.9l0.3,0.3
		c-0.2,0.2-0.4,0.4-0.5,0.6C3,438.6,3.1,438.3,3.2,437.9z M3.2,437.8v-0.1l0.4-0.1l-0.1,0.5C3.4,438,3.3,437.9,3.2,437.8z
		 M3.3,437.7C3.3,437.7,3.3,437.6,3.3,437.7l0.4-0.2v0.1L3.3,437.7z M3.3,437.5c0-0.1,0-0.1,0-0.1l0.1-0.2c0.1-0.1,0.3-0.3,0.4-0.5
		l-0.1,0.7L3.3,437.5z M3.7,436.4l0.1-0.4h0.1l-0.1,0.5C3.8,436.5,3.8,436.4,3.7,436.4z M4,436l0.4-0.1c-0.1,0.2-0.3,0.4-0.5,0.6
		L4,436z M4.4,435.9l-0.2,0.9c-0.1-0.1-0.2-0.2-0.3-0.3C4.1,436.3,4.3,436.1,4.4,435.9z M4,435.9L4,435.9l0.5-0.2v0.1L4,435.9z
		 M4.1,435.7l0.1-0.5v-0.1c0.1,0.1,0.2,0.2,0.3,0.3v0.1L4.1,435.7z M4.2,435l0.1-0.2c0.1-0.2,0.3-0.3,0.4-0.5l-0.2,1
		C4.5,435.2,4.3,435.1,4.2,435z M4.2,434.8l0.1-0.5l0.2-0.1L4.2,434.8z M4.3,434.2L4.3,434.2l0.2-0.2v0.1L4.3,434.2z M4.3,434
		l0.1-0.7l0,0c0.1,0.1,0.2,0.1,0.3,0.2l-0.2,0.4L4.3,434z M4.4,433.2l-0.2-0.1c0-0.1,0-0.2,0-0.3l0.3-0.1L4.4,433.2z M4,432.4
		L4,432.4c0-0.3,0-0.6,0-0.9l0,0l0.2,0.1c0,0.2,0,0.3,0,0.5C4.1,432.3,4.1,432.3,4,432.4z M4.1,431.5l0.2-0.1c0,0.1,0,0.1,0,0.2
		C4.2,431.6,4.1,431.6,4.1,431.5z M4.1,431.5C4,431.5,4,431.5,4.1,431.5C4,431.5,4,431.5,4.1,431.5l0.2-0.2v0.1L4.1,431.5z M4,431.3
		L4,431.3c0.1-0.2,0.2-0.4,0.3-0.5c0,0.1,0,0.3,0,0.4L4,431.3z M4.3,431.8l0.2,0.1c-0.1,0.1-0.1,0.1-0.2,0.2
		C4.3,432,4.3,431.9,4.3,431.8z M4.3,431.7c0-0.1,0-0.2,0-0.2l0.6-0.2l0,0c-0.1,0.1-0.3,0.3-0.4,0.5C4.5,431.8,4.4,431.7,4.3,431.7z
		 M4.4,431.4L4.4,431.4l0.6-0.3c0,0,0,0,0,0.1L4.4,431.4z M4.4,431.2c0-0.2,0-0.4,0-0.5c0-0.1,0.1-0.1,0.1-0.2
		c0.1,0.1,0.3,0.2,0.4,0.3c0,0.1,0,0.2,0,0.2L4.4,431.2z M4.9,422.9L4.9,422.9L4.9,422.9L4.9,422.9z M4.9,430.7
		c-0.1-0.1-0.2-0.2-0.4-0.3c0.1-0.2,0.2-0.3,0.3-0.5C4.9,430.3,4.9,430.5,4.9,430.7z M4.8,423l-0.4,0.1V423H4.8L4.8,423z M4.4,422.9
		L4,423v-0.1l0.1-0.2c0.1-0.1,0.3-0.3,0.4-0.5L4.4,422.9z M4.4,421.9l0.1-0.4h0.1L4.5,422C4.5,422,4.5,422,4.4,421.9z M4.7,421.5
		l0.4-0.1c-0.1,0.2-0.3,0.4-0.5,0.6L4.7,421.5z M5.1,421.5l-0.2,0.9c-0.1-0.1-0.2-0.2-0.3-0.3C4.8,421.9,5,421.7,5.1,421.5z
		 M4.7,421.5L4.7,421.5l0.5-0.2v0.1L4.7,421.5z M4.8,421.2l0.1-0.5v-0.1c0.1,0.1,0.2,0.2,0.3,0.3v0.1L4.8,421.2z M4.9,420.6l0.1-0.2
		c0.2-0.2,0.3-0.3,0.4-0.5l-0.2,1C5.2,420.8,5,420.7,4.9,420.6z M4.9,420.4l0.1-0.5l0.2-0.1L4.9,420.4z M5,419.8L5,419.8l0.2-0.2
		v0.1L5,419.8z M5,419.6l0.1-0.7l0,0c0.1,0.1,0.2,0.1,0.3,0.2l-0.2,0.4L5,419.6z M5.1,418.8l-0.2-0.1c0-0.1,0-0.2,0-0.3l0.3-0.1
		L5.1,418.8z M4.7,418L4.7,418c0-0.3,0-0.6,0-0.9l0,0l0.2,0.1c0,0.2,0,0.3,0,0.5C4.8,417.8,4.8,417.9,4.7,418z M4.8,417.1L5,417
		c0,0.1,0,0.1,0,0.2C4.9,417.2,4.8,417.1,4.8,417.1z M4.8,417.1C4.7,417.1,4.7,417.1,4.8,417.1C4.7,417,4.7,417,4.8,417.1l0.2-0.2
		v0.1L4.8,417.1z M4.7,416.9L4.7,416.9c0.1-0.2,0.2-0.4,0.3-0.5c0,0.1,0,0.3,0,0.4L4.7,416.9z M5,417.3l0.2,0.1
		c-0.1,0.1-0.1,0.1-0.2,0.2C5,417.5,5,417.4,5,417.3z M5,417.3c0-0.1,0-0.2,0-0.2l0.6-0.2l0,0c-0.1,0.1-0.3,0.3-0.4,0.5
		C5.2,417.3,5.1,417.3,5,417.3z M5.1,417C5.1,416.9,5.1,416.9,5.1,417l0.6-0.3v0.1L5.1,417z M5.1,416.8c0-0.2,0-0.4,0-0.5
		c0-0.1,0.1-0.1,0.1-0.2c0.1,0.1,0.3,0.2,0.4,0.3c0,0.1,0,0.2,0,0.2L5.1,416.8z M5.6,408.5L5.6,408.5L5.6,408.5L5.6,408.5z
		 M5.6,416.3c-0.1-0.1-0.2-0.2-0.4-0.3c0.1-0.2,0.2-0.3,0.3-0.5C5.6,415.8,5.6,416.1,5.6,416.3z M5.5,408.5l-0.4,0.1v-0.1H5.5
		L5.5,408.5z M5.1,408.4l-0.4,0.1v-0.1l0.1-0.2c0.1-0.1,0.3-0.3,0.4-0.5L5.1,408.4z M5.1,407.5l0.1-0.4h0.1l-0.1,0.5
		C5.2,407.6,5.2,407.5,5.1,407.5z M5.4,407.1l0.4-0.1c-0.1,0.2-0.3,0.4-0.5,0.6L5.4,407.1z M5.8,407l-0.2,0.9
		c-0.1-0.1-0.2-0.2-0.3-0.3C5.5,407.4,5.7,407.2,5.8,407z M5.4,407L5.4,407l0.5-0.2v0.1L5.4,407z M5.5,406.8l0.1-0.5v-0.1
		c0.1,0.1,0.2,0.2,0.3,0.3v0.1L5.5,406.8z M5.6,406.1l0.1-0.2c0.1-0.2,0.3-0.3,0.4-0.5l-0.2,1C5.9,406.3,5.7,406.2,5.6,406.1z
		 M5.6,405.9l0.1-0.5l0.2-0.1L5.6,405.9z M5.7,405.3L5.7,405.3l0.2-0.2v0.1L5.7,405.3z M5.7,405.1l0.1-0.7l0,0
		c0.1,0.1,0.2,0.1,0.3,0.2L5.9,405L5.7,405.1z M5.8,404.4l-0.2-0.1c0-0.1,0-0.2,0-0.3l0.3-0.1L5.8,404.4z M5.4,403.5L5.4,403.5
		c0-0.3,0-0.6,0-0.9l0,0l0.2,0.1c0,0.2,0,0.3-0.1,0.5C5.5,403.4,5.5,403.5,5.4,403.5z M5.5,402.7l0.2-0.1c0,0.1,0,0.1,0,0.2
		C5.6,402.7,5.5,402.7,5.5,402.7z M5.4,402.6L5.4,402.6L5.4,402.6l0.2-0.2v0.1L5.4,402.6z M5.4,402.4L5.4,402.4
		c0.1-0.2,0.2-0.4,0.3-0.5c0,0.1,0,0.3,0,0.4L5.4,402.4z M5.7,402.9l0.1,0.1c-0.1,0.1-0.1,0.1-0.2,0.2C5.7,403.1,5.7,403,5.7,402.9z
		 M5.7,402.8c0-0.1,0-0.2,0-0.2l0.6-0.2l0,0c-0.1,0.1-0.3,0.3-0.4,0.5C5.9,402.9,5.8,402.8,5.7,402.8z M5.7,399.9l0.3-0.1
		c-0.1,0.1-0.2,0.3-0.2,0.5l0,0C5.8,400.1,5.7,400,5.7,399.9z M6.3,402.3l-0.6,0.2v-0.1L6.3,402.3L6.3,402.3z M6.3,402.2l-0.5,0.2
		c0-0.2,0-0.4,0-0.5c0-0.1,0.1-0.1,0.1-0.2c0.1,0.1,0.3,0.2,0.4,0.3C6.3,402,6.3,402.1,6.3,402.2z M5.8,401.7L5.8,401.7
		c0-0.1,0-0.1,0-0.1s0,0,0.1,0C5.8,401.6,5.8,401.7,5.8,401.7z M6.3,401.9c-0.1-0.1-0.2-0.2-0.4-0.3c0.1-0.2,0.2-0.3,0.3-0.5
		C6.3,401.4,6.3,401.6,6.3,401.9z M5.9,401.6C5.9,401.5,5.8,401.5,5.9,401.6c-0.1-0.2-0.1-0.3-0.1-0.4l0.4-0.1
		C6.1,401.2,6,401.4,5.9,401.6z M6.2,401l-0.4,0.1V401H6.2L6.2,401z M6.2,400.8l-0.4,0.1c0-0.2,0-0.4,0-0.6l0,0
		c0.1,0.1,0.3,0.2,0.4,0.3C6.2,400.7,6.2,400.8,6.2,400.8z M6.2,400.6c-0.1-0.1-0.2-0.2-0.4-0.3c0.1-0.2,0.2-0.3,0.3-0.5
		C6.1,400,6.1,400.3,6.2,400.6z M6.1,399.7L6.1,399.7l-0.3,0.1c0,0,0,0,0-0.1H6.1L6.1,399.7z M6,399.5l-0.3,0.1c0-0.2,0-0.4-0.1-0.6
		c0.1,0.1,0.3,0.3,0.4,0.4C6,399.5,6,399.5,6,399.5z M5.9,398.9c0,0.1,0.1,0.3,0.1,0.5c-0.1-0.1-0.2-0.2-0.4-0.4
		c0.1-0.2,0.1-0.3,0.2-0.5C5.9,398.6,5.9,398.8,5.9,398.9z M5.8,398.4L5.8,398.4l-0.2,0.1v-0.1H5.8L5.8,398.4z M5.8,398.3l-0.2,0.1
		c0-0.2-0.1-0.4-0.1-0.5C5.6,397.9,5.7,398.1,5.8,398.3C5.8,398.2,5.8,398.2,5.8,398.3z M5.5,397.3c0,0.1,0,0.1,0.1,0.2L5.5,397.3
		L5.5,397.3z M5.7,398C5.7,398,5.7,398.1,5.7,398c-0.1-0.1-0.2-0.2-0.3-0.3l0,0c0-0.1,0-0.2,0.1-0.3L5.7,398z M5.5,397.1
		C5.5,397.2,5.5,397.2,5.5,397.1C5.5,397.2,5.5,397.2,5.5,397.1L5.5,397.1L5.5,397.1z M5.5,397L5.5,397l-0.1-0.2l0.1,0.1
		C5.4,396.9,5.5,397,5.5,397z M5.4,396.8l-0.1-0.1l-0.1-0.2h0.1C5.3,396.5,5.4,396.6,5.4,396.8z M5.2,396.1L5.2,396.1
		c0,0.1,0.1,0.2,0.1,0.2H5.2v-0.1C5.2,396.2,5.2,396.2,5.2,396.1z M5.2,396.4L5.2,396.4L5.2,396.4L5.2,396.4z M5.2,396.1L5.2,396.1
		L5.2,396.1L5.2,396.1z M5.1,396.1v0.1v0.1C5.1,396.3,5.1,396.2,5.1,396.1L5.1,396.1z M5,396.1C5,396.2,5,396.2,5,396.1L5,396.1
		L5,396.1z M5,396.2l0.1,0.1v0.1H5C5,396.4,5,396.3,5,396.2z M5,396.5L5,396.5c0.1,0,0.1,0.1,0.1,0.1v0.2C5,396.7,5,396.6,5,396.5z
		 M5.1,397.1V397c0-0.1,0-0.1,0-0.2C5.1,396.9,5.2,397,5.1,397.1L5.1,397.1z M5.1,397.3L5.1,397.3c0.1,0,0.1,0.1,0.1,0.2
		C5.2,397.4,5.2,397.3,5.1,397.3L5.1,397.3z M5.2,397.4C5.2,397.4,5.2,397.5,5.2,397.4c0.1,0.3,0.1,0.5,0.1,0.6s0,0.1,0,0.2
		C5.2,397.9,5.2,397.7,5.2,397.4z M5.2,404.1L5.2,404.1c0,0.4-0.1,0.8-0.1,1.2L5,405.4C5.1,404.9,5.1,404.5,5.2,404.1z M5,405.6
		L5,405.6L5,405.6L5,405.6z M5,405.7L5,405.7c0,0.4-0.1,0.8-0.2,1.2c0,0,0,0-0.1,0.1C4.8,406.6,4.9,406.1,5,405.7z M4.7,407.2
		L4.7,407.2L4.7,407.2L4.7,407.2L4.7,407.2z M4.7,407.3L4.7,407.3c0,0.4-0.1,0.8-0.2,1.2c0,0,0,0-0.1,0.1
		C4.5,408.2,4.6,407.8,4.7,407.3z M4.4,408.8L4.4,408.8C4.4,408.9,4.4,408.9,4.4,408.8L4.4,408.8C4.4,408.9,4.4,408.9,4.4,408.8z
		 M4.2,409.9L4.2,409.9v-0.2C4.2,409.8,4.2,409.9,4.2,409.9z M4.3,408.9L4.3,408.9c0,0.1,0,0.3,0,0.4l-0.1,0.3
		C4.3,409.4,4.3,409.2,4.3,408.9z M4.3,409.6l0.2-0.6l0,0c-0.1,0.4-0.2,0.7-0.2,1H4.2C4.2,409.8,4.3,409.7,4.3,409.6z M4.3,410.7
		L4.3,410.7L4.3,410.7C4.3,410.6,4.3,410.6,4.3,410.7z M4.3,410.7l0.1,0.1v0.1H4.3C4.3,410.8,4.3,410.8,4.3,410.7z M4.3,411L4.3,411
		c0.1,0,0.1,0.1,0.1,0.1v0.2C4.3,411.2,4.3,411.1,4.3,411z M4.4,411.6v-0.1c0-0.1,0-0.1,0-0.2C4.4,411.4,4.5,411.5,4.4,411.6
		L4.4,411.6z M4.4,411.7L4.4,411.7c0.1,0,0.1,0.1,0.1,0.2C4.5,411.8,4.5,411.8,4.4,411.7L4.4,411.7z M4.5,411.9L4.5,411.9
		c0.1,0.3,0.1,0.5,0.1,0.6s0,0.1,0,0.2C4.5,412.4,4.5,412.1,4.5,411.9z M4.5,418.5L4.5,418.5c0,0.4-0.1,0.8-0.1,1.2l-0.1,0.1
		C4.4,419.4,4.4,418.9,4.5,418.5z M4.3,420L4.3,420L4.3,420C4.3,420.1,4.3,420,4.3,420z M4.3,420.1L4.3,420.1c0,0.4-0.1,0.8-0.2,1.3
		c0,0,0,0-0.1,0.1C4.1,421,4.2,420.6,4.3,420.1z M4,421.6C4,421.7,4,421.7,4,421.6L4,421.6L4,421.6C4,421.7,4,421.7,4,421.6z
		 M4,421.7L4,421.7c0,0.4-0.1,0.8-0.2,1.2c0,0,0,0-0.1,0.1C3.8,422.6,3.9,422.2,4,421.7z M3.7,423.3L3.7,423.3L3.7,423.3L3.7,423.3
		L3.7,423.3z M3.5,424.4L3.5,424.4v-0.2C3.5,424.3,3.5,424.3,3.5,424.4z M3.7,423.4L3.7,423.4c0,0.1,0,0.2,0,0.4l-0.1,0.3
		C3.6,423.8,3.6,423.6,3.7,423.4z M3.6,424l0.2-0.6l0,0c-0.1,0.4-0.2,0.7-0.2,1H3.5C3.5,424.3,3.6,424.2,3.6,424z M3.6,425.1
		L3.6,425.1L3.6,425.1L3.6,425.1z M3.6,425.1l0.1,0.1v0.1H3.6C3.6,425.3,3.6,425.2,3.6,425.1z M3.6,425.4L3.6,425.4
		c0.1,0,0.1,0.1,0.1,0.1v0.2C3.7,425.6,3.6,425.5,3.6,425.4z M3.7,426v-0.1c0-0.1,0-0.1,0-0.2C3.7,425.8,3.8,425.9,3.7,426L3.7,426z
		 M3.7,426.1L3.7,426.1c0.1,0,0.1,0.1,0.1,0.2C3.8,426.3,3.8,426.2,3.7,426.1C3.7,426.2,3.7,426.2,3.7,426.1z M3.8,426.3
		C3.8,426.3,3.8,426.4,3.8,426.3c0.1,0.3,0.1,0.5,0.1,0.6c0,0.1,0,0.1,0,0.2C3.8,426.8,3.8,426.6,3.8,426.3z M3.8,433L3.8,433
		c0,0.4-0.1,0.8-0.1,1.2l-0.1,0.1C3.7,433.8,3.7,433.4,3.8,433z M3.6,434.5L3.6,434.5L3.6,434.5L3.6,434.5z M3.6,434.6L3.6,434.6
		c0,0.4-0.1,0.8-0.2,1.2c0,0,0,0-0.1,0.1C3.4,435.4,3.5,435,3.6,434.6z M3.3,436.1L3.3,436.1L3.3,436.1L3.3,436.1L3.3,436.1z
		 M3.3,436.2L3.3,436.2c0,0.4-0.1,0.8-0.2,1.2c0,0,0,0-0.1,0.1C3.1,437.1,3.2,436.7,3.3,436.2z M3,437.7L3,437.7
		C3,437.8,3,437.8,3,437.7L3,437.7C3,437.8,3,437.8,3,437.7z M2.9,437.8L2.9,437.8c0,0.1,0,0.2,0,0.4l-0.1,0.3
		C2.9,438.3,2.9,438.1,2.9,437.8z M2.7,439C2.7,439,2.7,438.9,2.7,439l0.1-0.3C2.8,438.8,2.8,438.9,2.7,439L2.7,439z M2.9,439
		L2.9,439c0-0.1,0-0.3,0-0.5l0.2-0.6l0,0C3,438.3,2.9,438.7,2.9,439L2.9,439z M3.2,439H3l0.6-0.7l-0.1,0.6L3.2,439z M3.7,438.8
		l-0.2,0.1l0.1-0.6l0.3,0.2C3.8,438.6,3.8,438.7,3.7,438.8z M4.1,437.8C4,438,4,438.2,3.9,438.4c-0.1-0.1-0.2-0.1-0.2-0.2l0.5-0.5
		L4.1,437.8z M4.1,437.5c-0.1,0.2-0.3,0.4-0.5,0.6l0.1-0.5L4.1,437.5L4.1,437.5z M4.1,437.4l-0.4,0.1v-0.1H4.1L4.1,437.4z
		 M4.2,437.4L4.2,437.4L4.2,437.4C4.2,437.3,4.2,437.4,4.2,437.4z M4.2,437.2l-0.4,0.1l0.1-0.7c0.1,0.1,0.3,0.2,0.4,0.3L4.2,437.2z
		 M4.2,437.2L4.2,437.2V437l0,0C4.3,437.1,4.3,437.1,4.2,437.2z M4.3,436.9L4.3,436.9l0.2-1.1c0,0,0-0.1,0.1-0.1
		C4.5,436.2,4.4,436.6,4.3,436.9z M4.5,435.7L4.5,435.7L4.5,435.7L4.5,435.7z M4.6,435.5L4.6,435.5L4.6,435.5L4.6,435.5L4.6,435.5z
		 M4.6,435.4L4.6,435.4l0.1-0.9C4.7,434.8,4.7,435.1,4.6,435.4z M4.8,434.2c-0.1,0.1-0.2,0.3-0.4,0.4l0.2-0.5l0.2-0.1L4.8,434.2z
		 M4.8,434L4.8,434l-0.2,0.1V434H4.8L4.8,434z M4.8,433.8H4.7l0.1-0.3l0,0C4.8,433.7,4.8,433.8,4.8,433.8z M4.8,433.5L4.8,433.5
		L4.8,433.5L4.8,433.5z M4.9,433.2l-0.1,0.3l-0.3-0.2c0.1-0.2,0.3-0.3,0.4-0.5C4.9,432.9,4.9,433.1,4.9,433.2z M4.9,432.7l-0.5,0.6
		l0.1-0.5L4.9,432.7C4.9,432.6,4.9,432.6,4.9,432.7z M4.9,432.2l-0.7,0.2l0,0L4.9,432.2L4.9,432.2z M4.9,432.1l-0.6,0.2
		c0-0.1,0-0.1,0-0.2l0.2-0.3L4.9,432.1L4.9,432.1z M4.9,432.1c-0.1-0.1-0.2-0.1-0.4-0.2l0.4-0.4c0,0.2,0,0.3,0,0.5
		C4.9,431.9,4.9,432,4.9,432.1z M4.9,422.7l-0.4,0.1l0.1-0.7c0.1,0.1,0.3,0.3,0.4,0.3L4.9,422.7z M4.9,422.7L4.9,422.7v-0.1l0,0
		C5,422.6,5,422.7,4.9,422.7z M5,422.5L5,422.5l0.2-1.1c0,0,0-0.1,0.1-0.1C5.2,421.8,5.1,422.1,5,422.5z M5.2,421.3L5.2,421.3
		L5.2,421.3C5.2,421.2,5.2,421.3,5.2,421.3z M5.3,421.1L5.3,421.1L5.3,421.1C5.3,421,5.3,421,5.3,421.1C5.3,421,5.3,421.1,5.3,421.1
		z M5.3,421C5.3,420.9,5.3,420.9,5.3,421l0.1-0.9C5.4,420.4,5.4,420.7,5.3,421z M5.5,419.8c-0.1,0.1-0.2,0.3-0.4,0.4l0.2-0.5
		l0.2-0.1L5.5,419.8z M5.5,419.6L5.5,419.6l-0.2,0.1v-0.1H5.5C5.5,419.5,5.5,419.6,5.5,419.6z M5.5,419.4l-0.1,0.1l0.1-0.3l0,0
		C5.5,419.2,5.5,419.3,5.5,419.4z M5.5,419.1L5.5,419.1L5.5,419.1C5.5,419,5.5,419,5.5,419.1z M5.6,418.7L5.5,419l-0.3-0.2
		c0.1-0.2,0.3-0.3,0.4-0.5C5.6,418.5,5.6,418.6,5.6,418.7z M5.6,418.2l-0.5,0.6l0.1-0.5L5.6,418.2L5.6,418.2z M5.6,417.8L4.9,418
		l0,0L5.6,417.8L5.6,417.8z M5.6,417.7L5,417.9c0-0.1,0-0.1,0-0.2l0.2-0.3L5.6,417.7L5.6,417.7z M5.6,417.6
		c-0.1-0.1-0.2-0.1-0.4-0.2l0.4-0.4c0,0.2,0,0.3,0,0.5C5.6,417.5,5.6,417.6,5.6,417.6z M5.6,408.3l-0.4,0.1l0.1-0.7
		c0.1,0.1,0.3,0.3,0.4,0.3L5.6,408.3z M5.6,408.3L5.6,408.3v-0.1l0,0C5.7,408.2,5.7,408.2,5.6,408.3z M5.7,408L5.7,408l0.2-1.1
		c0,0,0-0.1,0.1-0.1C5.9,407.3,5.8,407.7,5.7,408z M5.9,406.8L5.9,406.8L5.9,406.8L5.9,406.8z M6,406.6L6,406.6L6,406.6L6,406.6
		L6,406.6z M6,406.5L6,406.5l0.1-0.9C6.1,405.9,6.1,406.2,6,406.5z M6.2,405.3c-0.1,0.1-0.2,0.3-0.4,0.4l0.2-0.5l0.2-0.1L6.2,405.3z
		 M6.2,405.1L6.2,405.1L6,405.2v-0.1H6.2L6.2,405.1z M6.2,405l-0.1,0.1l0.1-0.3l0,0C6.2,404.8,6.2,404.9,6.2,405z M6.2,404.6
		L6.2,404.6L6.2,404.6L6.2,404.6z M6.3,404.3l-0.1,0.3l-0.3-0.2c0.1-0.2,0.3-0.3,0.4-0.5C6.3,404,6.3,404.2,6.3,404.3z M6.3,403.8
		l-0.5,0.6l0.1-0.5L6.3,403.8C6.3,403.7,6.3,403.8,6.3,403.8z M6.3,403.3l-0.7,0.2l0,0L6.3,403.3L6.3,403.3z M6.3,403.2l-0.6,0.2
		c0-0.1,0-0.1,0-0.2l0.2-0.3L6.3,403.2L6.3,403.2z M6.3,403.2c-0.1-0.1-0.2-0.1-0.4-0.2l0.4-0.4c0,0.2,0,0.3,0,0.5
		C6.3,403,6.3,403.1,6.3,403.2z M13,403c0-0.2,0-0.3,0-0.5l0.4,0.4c-0.1,0.1-0.2,0.2-0.4,0.2C13.1,403.1,13,403,13,403z M13.1,403.2
		l0.4-0.2l0.2,0.3c0,0.1,0,0.1,0,0.2L13.1,403.2L13.1,403.2z M13.1,403.3l0.7,0.2l0,0L13.1,403.3L13.1,403.3z M13.1,403.7l0.4,0.1
		l0.1,0.5L13.1,403.7C13.1,403.8,13.1,403.7,13.1,403.7z M13.1,403.9c0.1,0.1,0.3,0.3,0.4,0.5l-0.3,0.2l-0.1-0.3
		C13.1,404.2,13.1,404,13.1,403.9z M13.1,404.5L13.1,404.5L13.1,404.5C13.1,404.6,13.1,404.6,13.1,404.5z M13.1,404.7
		C13.1,404.7,13.2,404.7,13.1,404.7l0.2,0.3l-0.1-0.1C13.1,404.9,13.1,404.8,13.1,404.7z M13.2,405.1L13.2,405.1h0.2v0.1L13.2,405.1
		L13.2,405.1z M13.2,405.2l0.2,0.1l0.2,0.5c-0.1-0.2-0.3-0.3-0.4-0.4L13.2,405.2z M13.2,405.6l0.2,0.9l0,0
		C13.3,406.2,13.3,405.9,13.2,405.6z M13.4,406.6L13.4,406.6L13.4,406.6L13.4,406.6L13.4,406.6z M13.4,406.8L13.4,406.8L13.4,406.8
		L13.4,406.8z M13.4,406.9C13.4,406.9,13.5,407,13.4,406.9l0.3,1.1l0,0C13.6,407.7,13.5,407.3,13.4,406.9z M13.7,408.3v-0.1l0,0
		V408.3L13.7,408.3z M14.1,407.7l0.1,0.7l-0.4-0.1v-0.2C13.8,408,14,407.9,14.1,407.7z M13.7,417.4c0-0.2,0-0.3,0-0.5l0.4,0.4
		c-0.1,0.1-0.2,0.2-0.4,0.2C13.7,417.6,13.7,417.5,13.7,417.4z M13.8,417.7l0.4-0.2l0.2,0.3c0,0.1,0,0.1,0,0.2L13.8,417.7
		L13.8,417.7z M13.8,417.8l0.7,0.2l0,0L13.8,417.8L13.8,417.8z M13.8,418.2l0.4,0.1l0.1,0.5L13.8,418.2L13.8,418.2z M13.8,418.4
		c0.1,0.1,0.3,0.3,0.4,0.5l-0.3,0.2l-0.1-0.3C13.8,418.6,13.8,418.5,13.8,418.4z M13.8,419L13.8,419L13.8,419L13.8,419z M13.8,419.2
		C13.8,419.1,13.8,419.1,13.8,419.2l0.2,0.3l-0.1-0.1C13.8,419.3,13.8,419.2,13.8,419.2z M13.9,419.6
		C13.9,419.6,13.9,419.5,13.9,419.6h0.2v0.1L13.9,419.6L13.9,419.6z M13.9,419.7l0.2,0.1l0.2,0.5c-0.1-0.2-0.3-0.3-0.4-0.4
		L13.9,419.7z M13.9,420.1l0.2,0.9l0,0C14,420.7,14,420.4,13.9,420.1z M14.1,421.1C14.1,421.1,14.1,421,14.1,421.1
		C14.1,421,14.1,421,14.1,421.1L14.1,421.1L14.1,421.1z M14.1,421.2L14.1,421.2C14.1,421.3,14.1,421.2,14.1,421.2L14.1,421.2z
		 M14.1,421.4C14.1,421.4,14.2,421.4,14.1,421.4l0.3,1.1l0,0C14.3,422.1,14.2,421.8,14.1,421.4z M14.4,422.7v-0.1l0,0V422.7
		L14.4,422.7z M14.8,422.2l0.1,0.7l-0.4-0.1v-0.2C14.5,422.4,14.7,422.3,14.8,422.2z M14.4,431.9c0-0.2,0-0.3,0-0.5l0.4,0.4
		c-0.1,0.1-0.3,0.2-0.4,0.2V431.9z M14.4,432.1l0.4-0.2l0.2,0.3c0,0.1,0,0.1,0,0.2L14.4,432.1L14.4,432.1z M14.5,432.2l0.7,0.2l0,0
		L14.5,432.2L14.5,432.2z M14.5,432.6l0.4,0.1l0.1,0.5L14.5,432.6L14.5,432.6z M14.5,432.8c0.1,0.1,0.3,0.3,0.4,0.5l-0.3,0.2
		l-0.1-0.3C14.5,433.1,14.5,432.9,14.5,432.8z M14.5,433.4L14.5,433.4L14.5,433.4C14.5,433.5,14.5,433.5,14.5,433.4z M14.5,433.6
		L14.5,433.6l0.2,0.3h-0.1C14.5,433.8,14.5,433.7,14.5,433.6z M14.6,434L14.6,434h0.2v0.1L14.6,434L14.6,434z M14.6,434.1l0.2,0.1
		l0.2,0.5c-0.1-0.2-0.3-0.3-0.4-0.4L14.6,434.1z M14.6,434.5l0.2,0.9l0,0C14.7,435.1,14.7,434.8,14.6,434.5z M14.8,435.5L14.8,435.5
		L14.8,435.5L14.8,435.5L14.8,435.5z M14.8,435.7L14.8,435.7L14.8,435.7L14.8,435.7z M14.8,435.8C14.8,435.8,14.9,435.9,14.8,435.8
		l0.3,1.1l0,0C15,436.6,14.9,436.2,14.8,435.8z M15.1,437.2v-0.1l0,0V437.2L15.1,437.2z M15.5,436.6l0.1,0.7l-0.4-0.1V437
		C15.2,436.9,15.4,436.8,15.5,436.6z M15.2,437.3L15.2,437.3L15.2,437.3C15.2,437.4,15.2,437.3,15.2,437.3z M15.2,437.3l0.4,0.1v0.1
		L15.2,437.3L15.2,437.3z M15.2,437.5l0.4,0.1l0.1,0.5C15.6,437.9,15.4,437.7,15.2,437.5L15.2,437.5z M15.3,437.8v-0.1l0.5,0.5
		c-0.1,0.1-0.2,0.1-0.2,0.2C15.4,438.2,15.4,438,15.3,437.8z M15.6,438.8c0-0.1-0.1-0.2-0.1-0.3l0.3-0.2l0.1,0.6L15.6,438.8z
		 M16.2,439l-0.3-0.1l-0.1-0.6l0.6,0.7H16.2z M16.5,439L16.5,439c-0.1-0.3-0.2-0.6-0.3-1.1l0,0l0.2,0.6
		C16.5,438.7,16.5,438.8,16.5,439L16.5,439z M16.6,439c0-0.1,0-0.2-0.1-0.3L16.6,439C16.6,438.9,16.6,439,16.6,439L16.6,439z"/>
	<polygon class="st0" points="-52.9,438.9 -52.9,437.4 -53.2,437.4 -53.2,437 -53.4,437 -53.4,436.3 -53.3,436.3 -53.3,435.9 
		-53.4,435.9 -53.4,435.8 -53.3,435.8 -53.3,434.8 -53.4,434.8 -53.4,434.7 -53.3,434.7 -53.3,433.7 -53.4,433.7 -53.4,433.6 
		-53.3,433.6 -53.3,432.6 -53.4,432.6 -53.4,432.5 -53.3,432.5 -53.3,431.5 -53.4,431.5 -53.4,431.4 -53.3,431.4 -53.3,430.5 
		-53.4,430.5 -53.4,430.3 -53.3,430.3 -53.3,429.4 -53.4,429.4 -53.4,429.2 -53.3,429.2 -53.3,428.3 -53.4,428.3 -53.4,428.1 
		-53.3,428.1 -53.3,427.2 -54.9,427.2 -54.9,427 -54.8,427 -54.8,426.1 -54.9,426.1 -54.9,425.9 -54.8,425.9 -54.8,425 -54.9,425 
		-54.9,424.9 -54.8,424.9 -54.8,423.9 -54.9,423.9 -54.9,423.8 -54.8,423.8 -54.8,422.8 -54.9,422.8 -54.9,422.7 -54.8,422.7 
		-54.8,421.7 -54.9,421.7 -54.9,421.6 -54.8,421.6 -54.8,420.6 -54.9,420.6 -54.9,420.5 -54.8,420.5 -54.8,419.6 -54.9,419.6 
		-54.9,419.4 -54.8,419.4 -54.8,418.5 -54.9,418.5 -54.9,418.3 -54.8,418.3 -54.8,417.4 -54.9,417.4 -54.9,417.2 -54.8,417.2 
		-54.9,416.3 -56.6,416.3 -56.6,416.1 -58.1,416.1 -58.1,413.7 -57.8,413.7 -57.8,413.4 -59,413.4 -59,413.3 -60.8,413.3 
		-60.8,413.4 -61.9,413.4 -61.9,413.7 -61.6,413.7 -61.6,416.1 -63.1,416.1 -63.1,416.3 -64.8,416.3 -65,417.2 -64.8,417.2 
		-64.8,417.4 -65,417.4 -65,418.3 -64.8,418.3 -64.8,418.5 -65,418.5 -65,419.4 -64.8,419.4 -64.8,419.6 -65,419.6 -65,420.5 
		-64.8,420.5 -64.8,420.6 -65,420.6 -65,421.6 -64.8,421.6 -64.8,421.7 -65,421.7 -65,422.7 -64.8,422.7 -64.8,422.8 -65,422.8 
		-65,423.8 -64.8,423.8 -64.8,423.9 -65,423.9 -65,424.9 -64.8,424.9 -64.8,425 -65,425 -65,425.9 -64.8,425.9 -64.8,426.1 
		-65,426.1 -65,427 -64.8,427 -64.8,427.2 -66.5,427.2 -66.5,428.1 -66.4,428.1 -66.4,428.3 -66.5,428.3 -66.5,429.2 -66.4,429.2 
		-66.4,429.4 -66.5,429.4 -66.5,430.3 -66.4,430.3 -66.4,430.5 -66.5,430.5 -66.5,431.4 -66.4,431.4 -66.4,431.5 -66.5,431.5 
		-66.5,432.5 -66.4,432.5 -66.4,432.6 -66.5,432.6 -66.5,433.6 -66.4,433.6 -66.4,433.7 -66.5,433.7 -66.5,434.7 -66.4,434.7 
		-66.4,434.8 -66.5,434.8 -66.5,435.8 -66.4,435.8 -66.4,435.9 -66.5,435.9 -66.5,436.3 -66.4,436.3 -66.4,437 -66.5,437 
		-66.5,437.4 -66.9,437.4 -66.9,438.9 -69.3,438.9 -69.3,442.7 -50.5,442.7 -50.5,438.9 	"/>
</g>
<g id="statue_of_liberty">
</g>
</svg>
