<?xml version="1.0" encoding="utf-8"?>
<!-- Generator: Adobe Illustrator 19.0.0, SVG Export Plug-In . SVG Version: 6.00 Build 0)  -->
<svg version="1.1" id="Layer_1" xmlns="http://www.w3.org/2000/svg" xmlns:xlink="http://www.w3.org/1999/xlink" x="0px" y="0px"
	 viewBox="-298 389 15 15" style="enable-background:new -298 389 15 15;" xml:space="preserve">
<style type="text/css">
	.st0{fill:#263318;}
</style>
<title>marker-stroked-15</title>
<path id="Layer_7" class="st0" d="M-290.5,403.9l-0.4-0.5c-1-1.2-4.9-6.6-4.9-9.2c-0.1-2.8,2-5.2,4.8-5.3c0.1,0,0.3,0,0.4,0
	c2.8-0.1,5.2,2,5.3,4.8c0,0.1,0,0.3,0,0.5c0,2.2-2.7,6.1-4.7,8.9L-290.5,403.9z M-290.5,390c-2.2-0.1-4.2,1.6-4.3,3.8
	c0,0.2,0,0.3,0,0.5c0,1.8,2.8,6,4.3,8c1.3-1.7,4.3-6,4.3-8c0.1-2.2-1.6-4.2-3.8-4.3C-290.2,390-290.4,390-290.5,390L-290.5,390z"/>
</svg>
